G04 #@! TF.GenerationSoftware,KiCad,Pcbnew,(5.1.5)-3*
G04 #@! TF.CreationDate,2020-01-04T07:35:08+01:00*
G04 #@! TF.ProjectId,double-oh,646f7562-6c65-42d6-9f68-2e6b69636164,rev?*
G04 #@! TF.SameCoordinates,Original*
G04 #@! TF.FileFunction,Copper,L2,Bot*
G04 #@! TF.FilePolarity,Positive*
%FSLAX46Y46*%
G04 Gerber Fmt 4.6, Leading zero omitted, Abs format (unit mm)*
G04 Created by KiCad (PCBNEW (5.1.5)-3) date 2020-01-04 07:35:08*
%MOMM*%
%LPD*%
G04 APERTURE LIST*
%ADD10R,0.800000X1.600000*%
%ADD11C,0.800000*%
%ADD12C,0.250000*%
G04 APERTURE END LIST*
D10*
X100500000Y-100900000D03*
X100500000Y-108100000D03*
X145500000Y-108100000D03*
D11*
X114492614Y-103938433D03*
X119200000Y-103900000D03*
X115962660Y-103287340D03*
X109125000Y-102400000D03*
X100800000Y-105100000D03*
X132825000Y-105325634D03*
X106570000Y-107880000D03*
X139100000Y-107300000D03*
X121350000Y-106000000D03*
X129725000Y-107850000D03*
X127802654Y-101100000D03*
X112650000Y-106350000D03*
X117215972Y-105000000D03*
X113750000Y-102000000D03*
X104000000Y-107200000D03*
X110500000Y-104400000D03*
X104700000Y-104500000D03*
X132525000Y-107850000D03*
X131727667Y-104600624D03*
X116068860Y-101975012D03*
X108350007Y-106125000D03*
X136550000Y-101150000D03*
X132510000Y-100630000D03*
X137623048Y-104973369D03*
X111600000Y-101050000D03*
X139520000Y-104200014D03*
X131895000Y-106520000D03*
X129075000Y-101075010D03*
X133573991Y-106525000D03*
X126790000Y-101075000D03*
X118497712Y-104684962D03*
X102800000Y-105400000D03*
X141125000Y-101550000D03*
X102750000Y-101300000D03*
X107100000Y-101425000D03*
X136250000Y-106600000D03*
X110450000Y-107099990D03*
X137400000Y-106100000D03*
X108450000Y-107650000D03*
X139550000Y-102349998D03*
X125725000Y-106825000D03*
X124450000Y-105250000D03*
X138225000Y-102300002D03*
D12*
X115950000Y-103900000D02*
X114370777Y-103900000D01*
X114370777Y-103900000D02*
X114369989Y-103899212D01*
X115962660Y-103853025D02*
X115962660Y-103287340D01*
X119200000Y-103900000D02*
X116200000Y-103900000D01*
X115962660Y-103887340D02*
X115962660Y-103853025D01*
X115950000Y-103900000D02*
X115962660Y-103887340D01*
X116200000Y-103900000D02*
X115950000Y-103900000D01*
X109125000Y-102400000D02*
X108225000Y-103300000D01*
X102600000Y-103300000D02*
X100800000Y-105100000D01*
X108225000Y-103300000D02*
X102600000Y-103300000D01*
X134299001Y-106149001D02*
X133900011Y-105750011D01*
X116815973Y-105399999D02*
X117215972Y-105000000D01*
X133900011Y-105750011D02*
X133249377Y-105750011D01*
X133224999Y-105725633D02*
X132825000Y-105325634D01*
X104000000Y-107200000D02*
X104700000Y-106500000D01*
X134299001Y-106874001D02*
X134299001Y-106149001D01*
X117615971Y-105399999D02*
X117215972Y-105000000D01*
X104700000Y-106500000D02*
X104800000Y-106500000D01*
X133249377Y-105750011D02*
X133224999Y-105725633D01*
X130162500Y-107850000D02*
X132525000Y-107850000D01*
X132525000Y-107850000D02*
X133323002Y-107850000D01*
X116115972Y-106100000D02*
X116815973Y-105399999D01*
X111400000Y-106100000D02*
X112700000Y-106100000D01*
X113400000Y-106100000D02*
X116115972Y-106100000D01*
X113400000Y-106100000D02*
X113400000Y-102350000D01*
X124777644Y-104125010D02*
X121924990Y-104125010D01*
X112650000Y-106350000D02*
X112700000Y-106100000D01*
X121924990Y-104125010D02*
X121350000Y-104700000D01*
X121350000Y-104700000D02*
X121350000Y-106000000D01*
X127802654Y-101100000D02*
X124777644Y-104125010D01*
X110500000Y-104400000D02*
X110500000Y-105200000D01*
X133323002Y-107850000D02*
X134299001Y-106874001D01*
X104800000Y-106500000D02*
X104700000Y-106400000D01*
X129725000Y-107850000D02*
X130162500Y-107850000D01*
X121350000Y-106000000D02*
X118215972Y-106000000D01*
X113400000Y-102350000D02*
X113750000Y-102000000D01*
X110500000Y-105200000D02*
X111400000Y-106100000D01*
X112700000Y-106100000D02*
X113400000Y-106100000D01*
X134299001Y-106874001D02*
X134300001Y-106873001D01*
X118215972Y-106000000D02*
X117615971Y-105399999D01*
X104800000Y-106500000D02*
X105220000Y-106500000D01*
X109250000Y-106850000D02*
X107570000Y-106850000D01*
X104700000Y-105065685D02*
X104700000Y-104500000D01*
X105220000Y-106500000D02*
X106570000Y-107850000D01*
X111400000Y-106100000D02*
X110000000Y-106100000D01*
X133323002Y-107850000D02*
X138550000Y-107850000D01*
X107570000Y-106850000D02*
X106570000Y-107850000D01*
X138550000Y-107850000D02*
X139100000Y-107300000D01*
X110000000Y-106100000D02*
X109250000Y-106850000D01*
X104700000Y-106400000D02*
X104700000Y-105065685D01*
X106570000Y-107850000D02*
X106570000Y-107880000D01*
X140309999Y-103410015D02*
X139919999Y-103800015D01*
X111824999Y-101274999D02*
X111600000Y-101050000D01*
X131895000Y-104767957D02*
X131727667Y-104600624D01*
X133164213Y-104600624D02*
X133536958Y-104973369D01*
X140309999Y-102036995D02*
X140309999Y-103410015D01*
X136475010Y-101075010D02*
X136550000Y-101150000D01*
X139423004Y-101150000D02*
X140309999Y-102036995D01*
X139919999Y-103800015D02*
X139520000Y-104200014D01*
X108350007Y-106125000D02*
X108750006Y-105725001D01*
X137057363Y-104973369D02*
X137623048Y-104973369D01*
X131895000Y-106520000D02*
X131895000Y-104767957D01*
X131727667Y-104600624D02*
X133164213Y-104600624D01*
X126790000Y-101427790D02*
X124542790Y-103675000D01*
X136550000Y-101150000D02*
X139423004Y-101150000D01*
X132564990Y-100684990D02*
X132510000Y-100630000D01*
X127490000Y-100375000D02*
X126790000Y-101075000D01*
X115368847Y-101274999D02*
X111824999Y-101274999D01*
X116068860Y-101975012D02*
X115368847Y-101274999D01*
X124542790Y-103675000D02*
X120498002Y-103675000D01*
X129075000Y-101075010D02*
X132564990Y-101075010D01*
X132564990Y-101075010D02*
X132564990Y-100684990D01*
X133536958Y-104973369D02*
X137057363Y-104973369D01*
X132564990Y-101075010D02*
X136475010Y-101075010D01*
X131895000Y-106520000D02*
X133520000Y-106520000D01*
X111600000Y-101900000D02*
X111600000Y-101050000D01*
X133520000Y-106520000D02*
X133525000Y-106525000D01*
X128374990Y-100375000D02*
X127490000Y-100375000D01*
X108750006Y-105725001D02*
X108750006Y-104749994D01*
X120498002Y-103675000D02*
X119488040Y-104684962D01*
X126790000Y-101075000D02*
X126790000Y-101427790D01*
X108750006Y-104749994D02*
X111600000Y-101900000D01*
X119063397Y-104684962D02*
X118497712Y-104684962D01*
X119488040Y-104684962D02*
X119063397Y-104684962D01*
X129075000Y-101075010D02*
X128374990Y-100375000D01*
X106968004Y-108625000D02*
X106943014Y-108649990D01*
X140975000Y-108625000D02*
X106968004Y-108625000D01*
X106943014Y-108649990D02*
X106196986Y-108649990D01*
X141125000Y-108475000D02*
X140975000Y-108625000D01*
X102800000Y-105965685D02*
X102800000Y-105400000D01*
X103375000Y-108625000D02*
X102800000Y-108050000D01*
X106196986Y-108649990D02*
X106171996Y-108625000D01*
X106171996Y-108625000D02*
X103375000Y-108625000D01*
X102800000Y-108050000D02*
X102800000Y-105965685D01*
X141125000Y-101550000D02*
X141125000Y-108475000D01*
X106325000Y-102200000D02*
X103650000Y-102200000D01*
X107100000Y-101425000D02*
X106325000Y-102200000D01*
X103650000Y-102200000D02*
X102750000Y-101300000D01*
X137700000Y-103425614D02*
X137749400Y-103475013D01*
X110900010Y-107550000D02*
X126340588Y-107550000D01*
X126340588Y-107550000D02*
X130464974Y-103425614D01*
X137749400Y-103475013D02*
X137834104Y-103475013D01*
X136650000Y-107000000D02*
X136250000Y-106600000D01*
X137834104Y-103475013D02*
X138798059Y-104438968D01*
X130464974Y-103425614D02*
X137700000Y-103425614D01*
X137800000Y-107000000D02*
X136650000Y-107000000D01*
X110450000Y-107099990D02*
X110900010Y-107550000D01*
X138798059Y-104438968D02*
X138798059Y-106001941D01*
X138798059Y-106001941D02*
X137800000Y-107000000D01*
X130651375Y-103875623D02*
X126476999Y-108049999D01*
X137625001Y-105874999D02*
X137400000Y-106100000D01*
X133075623Y-103875623D02*
X130651375Y-103875623D01*
X108849999Y-108049999D02*
X108450000Y-107650000D01*
X137794420Y-105874999D02*
X137625001Y-105874999D01*
X138348049Y-104625368D02*
X138348049Y-105321370D01*
X137971049Y-104248368D02*
X133448368Y-104248368D01*
X138348049Y-105321370D02*
X137794420Y-105874999D01*
X133448368Y-104248368D02*
X133075623Y-103875623D01*
X126476999Y-108049999D02*
X108849999Y-108049999D01*
X137971049Y-104248368D02*
X138348049Y-104625368D01*
X130278574Y-102975603D02*
X137886400Y-102975603D01*
X139150001Y-102749997D02*
X139550000Y-102349998D01*
X126429178Y-106825000D02*
X130278574Y-102975603D01*
X138874995Y-103025003D02*
X139150001Y-102749997D01*
X125725000Y-106825000D02*
X126429178Y-106825000D01*
X137886400Y-102975603D02*
X137935800Y-103025003D01*
X137935800Y-103025003D02*
X138874995Y-103025003D01*
X138225000Y-102300002D02*
X130317767Y-102300002D01*
X130317767Y-102300002D02*
X127367769Y-105250000D01*
X127367769Y-105250000D02*
X124450000Y-105250000D01*
M02*
