G04 #@! TF.GenerationSoftware,KiCad,Pcbnew,(5.1.5)-3*
G04 #@! TF.CreationDate,2020-01-04T07:35:08+01:00*
G04 #@! TF.ProjectId,double-oh,646f7562-6c65-42d6-9f68-2e6b69636164,rev?*
G04 #@! TF.SameCoordinates,Original*
G04 #@! TF.FileFunction,Legend,Bot*
G04 #@! TF.FilePolarity,Positive*
%FSLAX46Y46*%
G04 Gerber Fmt 4.6, Leading zero omitted, Abs format (unit mm)*
G04 Created by KiCad (PCBNEW (5.1.5)-3) date 2020-01-04 07:35:08*
%MOMM*%
%LPD*%
G04 APERTURE LIST*
%ADD10C,0.150000*%
G04 APERTURE END LIST*
D10*
X128380952Y-108361904D02*
X128380952Y-107561904D01*
X128190476Y-107561904D01*
X128076190Y-107600000D01*
X128000000Y-107676190D01*
X127961904Y-107752380D01*
X127923809Y-107904761D01*
X127923809Y-108019047D01*
X127961904Y-108171428D01*
X128000000Y-108247619D01*
X128076190Y-108323809D01*
X128190476Y-108361904D01*
X128380952Y-108361904D01*
X127466666Y-108361904D02*
X127542857Y-108323809D01*
X127580952Y-108285714D01*
X127619047Y-108209523D01*
X127619047Y-107980952D01*
X127580952Y-107904761D01*
X127542857Y-107866666D01*
X127466666Y-107828571D01*
X127352380Y-107828571D01*
X127276190Y-107866666D01*
X127238095Y-107904761D01*
X127200000Y-107980952D01*
X127200000Y-108209523D01*
X127238095Y-108285714D01*
X127276190Y-108323809D01*
X127352380Y-108361904D01*
X127466666Y-108361904D01*
X126514285Y-107828571D02*
X126514285Y-108361904D01*
X126857142Y-107828571D02*
X126857142Y-108247619D01*
X126819047Y-108323809D01*
X126742857Y-108361904D01*
X126628571Y-108361904D01*
X126552380Y-108323809D01*
X126514285Y-108285714D01*
X126133333Y-108361904D02*
X126133333Y-107561904D01*
X126133333Y-107866666D02*
X126057142Y-107828571D01*
X125904761Y-107828571D01*
X125828571Y-107866666D01*
X125790476Y-107904761D01*
X125752380Y-107980952D01*
X125752380Y-108209523D01*
X125790476Y-108285714D01*
X125828571Y-108323809D01*
X125904761Y-108361904D01*
X126057142Y-108361904D01*
X126133333Y-108323809D01*
X125295238Y-108361904D02*
X125371428Y-108323809D01*
X125409523Y-108247619D01*
X125409523Y-107561904D01*
X124685714Y-108323809D02*
X124761904Y-108361904D01*
X124914285Y-108361904D01*
X124990476Y-108323809D01*
X125028571Y-108247619D01*
X125028571Y-107942857D01*
X124990476Y-107866666D01*
X124914285Y-107828571D01*
X124761904Y-107828571D01*
X124685714Y-107866666D01*
X124647619Y-107942857D01*
X124647619Y-108019047D01*
X125028571Y-108095238D01*
X124304761Y-108057142D02*
X123695238Y-108057142D01*
X123161904Y-107561904D02*
X123009523Y-107561904D01*
X122933333Y-107600000D01*
X122857142Y-107676190D01*
X122819047Y-107828571D01*
X122819047Y-108095238D01*
X122857142Y-108247619D01*
X122933333Y-108323809D01*
X123009523Y-108361904D01*
X123161904Y-108361904D01*
X123238095Y-108323809D01*
X123314285Y-108247619D01*
X123352380Y-108095238D01*
X123352380Y-107828571D01*
X123314285Y-107676190D01*
X123238095Y-107600000D01*
X123161904Y-107561904D01*
X122476190Y-108361904D02*
X122476190Y-107561904D01*
X122133333Y-108361904D02*
X122133333Y-107942857D01*
X122171428Y-107866666D01*
X122247619Y-107828571D01*
X122361904Y-107828571D01*
X122438095Y-107866666D01*
X122476190Y-107904761D01*
X121219047Y-107828571D02*
X121028571Y-108361904D01*
X120838095Y-107828571D01*
X120114285Y-108361904D02*
X120571428Y-108361904D01*
X120342857Y-108361904D02*
X120342857Y-107561904D01*
X120419047Y-107676190D01*
X120495238Y-107752380D01*
X120571428Y-107790476D01*
X119771428Y-108285714D02*
X119733333Y-108323809D01*
X119771428Y-108361904D01*
X119809523Y-108323809D01*
X119771428Y-108285714D01*
X119771428Y-108361904D01*
X119238095Y-107561904D02*
X119161904Y-107561904D01*
X119085714Y-107600000D01*
X119047619Y-107638095D01*
X119009523Y-107714285D01*
X118971428Y-107866666D01*
X118971428Y-108057142D01*
X119009523Y-108209523D01*
X119047619Y-108285714D01*
X119085714Y-108323809D01*
X119161904Y-108361904D01*
X119238095Y-108361904D01*
X119314285Y-108323809D01*
X119352380Y-108285714D01*
X119390476Y-108209523D01*
X119428571Y-108057142D01*
X119428571Y-107866666D01*
X119390476Y-107714285D01*
X119352380Y-107638095D01*
X119314285Y-107600000D01*
X119238095Y-107561904D01*
X117447619Y-107523809D02*
X118133333Y-108552380D01*
X116609523Y-107523809D02*
X117295238Y-108552380D01*
X115504761Y-107561904D02*
X115504761Y-108133333D01*
X115542857Y-108247619D01*
X115619047Y-108323809D01*
X115733333Y-108361904D01*
X115809523Y-108361904D01*
X114780952Y-108361904D02*
X114780952Y-107942857D01*
X114819047Y-107866666D01*
X114895238Y-107828571D01*
X115047619Y-107828571D01*
X115123809Y-107866666D01*
X114780952Y-108323809D02*
X114857142Y-108361904D01*
X115047619Y-108361904D01*
X115123809Y-108323809D01*
X115161904Y-108247619D01*
X115161904Y-108171428D01*
X115123809Y-108095238D01*
X115047619Y-108057142D01*
X114857142Y-108057142D01*
X114780952Y-108019047D01*
X114400000Y-107828571D02*
X114400000Y-108361904D01*
X114400000Y-107904761D02*
X114361904Y-107866666D01*
X114285714Y-107828571D01*
X114171428Y-107828571D01*
X114095238Y-107866666D01*
X114057142Y-107942857D01*
X114057142Y-108361904D01*
X113676190Y-108285714D02*
X113638095Y-108323809D01*
X113676190Y-108361904D01*
X113714285Y-108323809D01*
X113676190Y-108285714D01*
X113676190Y-108361904D01*
X112723809Y-107638095D02*
X112685714Y-107600000D01*
X112609523Y-107561904D01*
X112419047Y-107561904D01*
X112342857Y-107600000D01*
X112304761Y-107638095D01*
X112266666Y-107714285D01*
X112266666Y-107790476D01*
X112304761Y-107904761D01*
X112761904Y-108361904D01*
X112266666Y-108361904D01*
X111771428Y-107561904D02*
X111695238Y-107561904D01*
X111619047Y-107600000D01*
X111580952Y-107638095D01*
X111542857Y-107714285D01*
X111504761Y-107866666D01*
X111504761Y-108057142D01*
X111542857Y-108209523D01*
X111580952Y-108285714D01*
X111619047Y-108323809D01*
X111695238Y-108361904D01*
X111771428Y-108361904D01*
X111847619Y-108323809D01*
X111885714Y-108285714D01*
X111923809Y-108209523D01*
X111961904Y-108057142D01*
X111961904Y-107866666D01*
X111923809Y-107714285D01*
X111885714Y-107638095D01*
X111847619Y-107600000D01*
X111771428Y-107561904D01*
X111200000Y-107638095D02*
X111161904Y-107600000D01*
X111085714Y-107561904D01*
X110895238Y-107561904D01*
X110819047Y-107600000D01*
X110780952Y-107638095D01*
X110742857Y-107714285D01*
X110742857Y-107790476D01*
X110780952Y-107904761D01*
X111238095Y-108361904D01*
X110742857Y-108361904D01*
X110247619Y-107561904D02*
X110171428Y-107561904D01*
X110095238Y-107600000D01*
X110057142Y-107638095D01*
X110019047Y-107714285D01*
X109980952Y-107866666D01*
X109980952Y-108057142D01*
X110019047Y-108209523D01*
X110057142Y-108285714D01*
X110095238Y-108323809D01*
X110171428Y-108361904D01*
X110247619Y-108361904D01*
X110323809Y-108323809D01*
X110361904Y-108285714D01*
X110400000Y-108209523D01*
X110438095Y-108057142D01*
X110438095Y-107866666D01*
X110400000Y-107714285D01*
X110361904Y-107638095D01*
X110323809Y-107600000D01*
X110247619Y-107561904D01*
X145166666Y-103523809D02*
X145052380Y-103561904D01*
X144861904Y-103561904D01*
X144785714Y-103523809D01*
X144747619Y-103485714D01*
X144709523Y-103409523D01*
X144709523Y-103333333D01*
X144747619Y-103257142D01*
X144785714Y-103219047D01*
X144861904Y-103180952D01*
X145014285Y-103142857D01*
X145090476Y-103104761D01*
X145128571Y-103066666D01*
X145166666Y-102990476D01*
X145166666Y-102914285D01*
X145128571Y-102838095D01*
X145090476Y-102800000D01*
X145014285Y-102761904D01*
X144823809Y-102761904D01*
X144709523Y-102800000D01*
X144366666Y-103028571D02*
X144366666Y-103828571D01*
X144366666Y-103066666D02*
X144290476Y-103028571D01*
X144138095Y-103028571D01*
X144061904Y-103066666D01*
X144023809Y-103104761D01*
X143985714Y-103180952D01*
X143985714Y-103409523D01*
X144023809Y-103485714D01*
X144061904Y-103523809D01*
X144138095Y-103561904D01*
X144290476Y-103561904D01*
X144366666Y-103523809D01*
X143300000Y-103561904D02*
X143300000Y-103142857D01*
X143338095Y-103066666D01*
X143414285Y-103028571D01*
X143566666Y-103028571D01*
X143642857Y-103066666D01*
X143300000Y-103523809D02*
X143376190Y-103561904D01*
X143566666Y-103561904D01*
X143642857Y-103523809D01*
X143680952Y-103447619D01*
X143680952Y-103371428D01*
X143642857Y-103295238D01*
X143566666Y-103257142D01*
X143376190Y-103257142D01*
X143300000Y-103219047D01*
X142576190Y-103523809D02*
X142652380Y-103561904D01*
X142804761Y-103561904D01*
X142880952Y-103523809D01*
X142919047Y-103485714D01*
X142957142Y-103409523D01*
X142957142Y-103180952D01*
X142919047Y-103104761D01*
X142880952Y-103066666D01*
X142804761Y-103028571D01*
X142652380Y-103028571D01*
X142576190Y-103066666D01*
X141928571Y-103523809D02*
X142004761Y-103561904D01*
X142157142Y-103561904D01*
X142233333Y-103523809D01*
X142271428Y-103447619D01*
X142271428Y-103142857D01*
X142233333Y-103066666D01*
X142157142Y-103028571D01*
X142004761Y-103028571D01*
X141928571Y-103066666D01*
X141890476Y-103142857D01*
X141890476Y-103219047D01*
X142271428Y-103295238D01*
X140671428Y-103142857D02*
X140557142Y-103180952D01*
X140519047Y-103219047D01*
X140480952Y-103295238D01*
X140480952Y-103409523D01*
X140519047Y-103485714D01*
X140557142Y-103523809D01*
X140633333Y-103561904D01*
X140938095Y-103561904D01*
X140938095Y-102761904D01*
X140671428Y-102761904D01*
X140595238Y-102800000D01*
X140557142Y-102838095D01*
X140519047Y-102914285D01*
X140519047Y-102990476D01*
X140557142Y-103066666D01*
X140595238Y-103104761D01*
X140671428Y-103142857D01*
X140938095Y-103142857D01*
X139795238Y-103028571D02*
X139795238Y-103561904D01*
X140138095Y-103028571D02*
X140138095Y-103447619D01*
X140100000Y-103523809D01*
X140023809Y-103561904D01*
X139909523Y-103561904D01*
X139833333Y-103523809D01*
X139795238Y-103485714D01*
X139071428Y-103523809D02*
X139147619Y-103561904D01*
X139300000Y-103561904D01*
X139376190Y-103523809D01*
X139414285Y-103485714D01*
X139452380Y-103409523D01*
X139452380Y-103180952D01*
X139414285Y-103104761D01*
X139376190Y-103066666D01*
X139300000Y-103028571D01*
X139147619Y-103028571D01*
X139071428Y-103066666D01*
X138728571Y-103561904D02*
X138728571Y-102761904D01*
X138652380Y-103257142D02*
X138423809Y-103561904D01*
X138423809Y-103028571D02*
X138728571Y-103333333D01*
X136900000Y-102723809D02*
X137585714Y-103752380D01*
X136061904Y-102723809D02*
X136747619Y-103752380D01*
X134690476Y-103180952D02*
X134728571Y-103142857D01*
X134804761Y-103104761D01*
X134880952Y-103104761D01*
X134957142Y-103142857D01*
X134995238Y-103180952D01*
X135033333Y-103257142D01*
X135033333Y-103333333D01*
X134995238Y-103409523D01*
X134957142Y-103447619D01*
X134880952Y-103485714D01*
X134804761Y-103485714D01*
X134728571Y-103447619D01*
X134690476Y-103409523D01*
X134690476Y-103104761D02*
X134690476Y-103409523D01*
X134652380Y-103447619D01*
X134614285Y-103447619D01*
X134538095Y-103409523D01*
X134500000Y-103333333D01*
X134500000Y-103142857D01*
X134576190Y-103028571D01*
X134690476Y-102952380D01*
X134842857Y-102914285D01*
X134995238Y-102952380D01*
X135109523Y-103028571D01*
X135185714Y-103142857D01*
X135223809Y-103295238D01*
X135185714Y-103447619D01*
X135109523Y-103561904D01*
X134995238Y-103638095D01*
X134842857Y-103676190D01*
X134690476Y-103638095D01*
X134576190Y-103561904D01*
X134157142Y-103561904D02*
X134157142Y-102761904D01*
X133814285Y-103561904D02*
X133814285Y-103142857D01*
X133852380Y-103066666D01*
X133928571Y-103028571D01*
X134042857Y-103028571D01*
X134119047Y-103066666D01*
X134157142Y-103104761D01*
X133128571Y-103523809D02*
X133204761Y-103561904D01*
X133357142Y-103561904D01*
X133433333Y-103523809D01*
X133471428Y-103447619D01*
X133471428Y-103142857D01*
X133433333Y-103066666D01*
X133357142Y-103028571D01*
X133204761Y-103028571D01*
X133128571Y-103066666D01*
X133090476Y-103142857D01*
X133090476Y-103219047D01*
X133471428Y-103295238D01*
X132823809Y-103028571D02*
X132633333Y-103561904D01*
X132442857Y-103028571D02*
X132633333Y-103561904D01*
X132709523Y-103752380D01*
X132747619Y-103790476D01*
X132823809Y-103828571D01*
X132176190Y-103523809D02*
X132100000Y-103561904D01*
X131947619Y-103561904D01*
X131871428Y-103523809D01*
X131833333Y-103447619D01*
X131833333Y-103409523D01*
X131871428Y-103333333D01*
X131947619Y-103295238D01*
X132061904Y-103295238D01*
X132138095Y-103257142D01*
X132176190Y-103180952D01*
X132176190Y-103142857D01*
X132138095Y-103066666D01*
X132061904Y-103028571D01*
X131947619Y-103028571D01*
X131871428Y-103066666D01*
X131490476Y-103028571D02*
X131490476Y-103828571D01*
X131490476Y-103066666D02*
X131414285Y-103028571D01*
X131261904Y-103028571D01*
X131185714Y-103066666D01*
X131147619Y-103104761D01*
X131109523Y-103180952D01*
X131109523Y-103409523D01*
X131147619Y-103485714D01*
X131185714Y-103523809D01*
X131261904Y-103561904D01*
X131414285Y-103561904D01*
X131490476Y-103523809D01*
X130423809Y-103561904D02*
X130423809Y-103142857D01*
X130461904Y-103066666D01*
X130538095Y-103028571D01*
X130690476Y-103028571D01*
X130766666Y-103066666D01*
X130423809Y-103523809D02*
X130500000Y-103561904D01*
X130690476Y-103561904D01*
X130766666Y-103523809D01*
X130804761Y-103447619D01*
X130804761Y-103371428D01*
X130766666Y-103295238D01*
X130690476Y-103257142D01*
X130500000Y-103257142D01*
X130423809Y-103219047D01*
X129700000Y-103523809D02*
X129776190Y-103561904D01*
X129928571Y-103561904D01*
X130004761Y-103523809D01*
X130042857Y-103485714D01*
X130080952Y-103409523D01*
X130080952Y-103180952D01*
X130042857Y-103104761D01*
X130004761Y-103066666D01*
X129928571Y-103028571D01*
X129776190Y-103028571D01*
X129700000Y-103066666D01*
X129052380Y-103523809D02*
X129128571Y-103561904D01*
X129280952Y-103561904D01*
X129357142Y-103523809D01*
X129395238Y-103447619D01*
X129395238Y-103142857D01*
X129357142Y-103066666D01*
X129280952Y-103028571D01*
X129128571Y-103028571D01*
X129052380Y-103066666D01*
X129014285Y-103142857D01*
X129014285Y-103219047D01*
X129395238Y-103295238D01*
X128671428Y-103561904D02*
X128671428Y-102761904D01*
X128671428Y-103066666D02*
X128595238Y-103028571D01*
X128442857Y-103028571D01*
X128366666Y-103066666D01*
X128328571Y-103104761D01*
X128290476Y-103180952D01*
X128290476Y-103409523D01*
X128328571Y-103485714D01*
X128366666Y-103523809D01*
X128442857Y-103561904D01*
X128595238Y-103561904D01*
X128671428Y-103523809D01*
X127604761Y-103028571D02*
X127604761Y-103561904D01*
X127947619Y-103028571D02*
X127947619Y-103447619D01*
X127909523Y-103523809D01*
X127833333Y-103561904D01*
X127719047Y-103561904D01*
X127642857Y-103523809D01*
X127604761Y-103485714D01*
X126880952Y-103523809D02*
X126957142Y-103561904D01*
X127109523Y-103561904D01*
X127185714Y-103523809D01*
X127223809Y-103485714D01*
X127261904Y-103409523D01*
X127261904Y-103180952D01*
X127223809Y-103104761D01*
X127185714Y-103066666D01*
X127109523Y-103028571D01*
X126957142Y-103028571D01*
X126880952Y-103066666D01*
X126538095Y-103561904D02*
X126538095Y-102761904D01*
X126461904Y-103257142D02*
X126233333Y-103561904D01*
X126233333Y-103028571D02*
X126538095Y-103333333D01*
M02*
