G04 #@! TF.GenerationSoftware,KiCad,Pcbnew,(5.1.5)-3*
G04 #@! TF.CreationDate,2020-01-07T20:57:30+01:00*
G04 #@! TF.ProjectId,double-oh,646f7562-6c65-42d6-9f68-2e6b69636164,rev?*
G04 #@! TF.SameCoordinates,Original*
G04 #@! TF.FileFunction,Legend,Top*
G04 #@! TF.FilePolarity,Positive*
%FSLAX46Y46*%
G04 Gerber Fmt 4.6, Leading zero omitted, Abs format (unit mm)*
G04 Created by KiCad (PCBNEW (5.1.5)-3) date 2020-01-07 20:57:30*
%MOMM*%
%LPD*%
G04 APERTURE LIST*
%ADD10C,0.200000*%
%ADD11C,0.120000*%
%ADD12C,0.100000*%
G04 APERTURE END LIST*
D10*
X131050000Y-106550000D02*
G75*
G03X131050000Y-106550000I-100000J0D01*
G01*
D11*
X100990000Y-100670000D02*
X102450000Y-100670000D01*
X100990000Y-103830000D02*
X103150000Y-103830000D01*
X100990000Y-103830000D02*
X100990000Y-102900000D01*
X100990000Y-100670000D02*
X100990000Y-101600000D01*
X103490000Y-106237221D02*
X103490000Y-106562779D01*
X104510000Y-106237221D02*
X104510000Y-106562779D01*
X104610000Y-102337221D02*
X104610000Y-102662779D01*
X103590000Y-102337221D02*
X103590000Y-102662779D01*
D12*
X111110000Y-107700000D02*
G75*
G03X111110000Y-107700000I-50000J0D01*
G01*
D11*
X107730000Y-106670000D02*
X107730000Y-105270000D01*
X105410000Y-105270000D02*
X105410000Y-107170000D01*
X130349721Y-107340000D02*
X130675279Y-107340000D01*
X130349721Y-108360000D02*
X130675279Y-108360000D01*
X140010000Y-103025000D02*
X140010000Y-101125000D01*
X137690000Y-101625000D02*
X137690000Y-103025000D01*
X113950000Y-103610000D02*
X115750000Y-103610000D01*
X115750000Y-100390000D02*
X113300000Y-100390000D01*
X131465000Y-101965000D02*
X131465000Y-101490000D01*
X131465000Y-101490000D02*
X131940000Y-101490000D01*
X136685000Y-106235000D02*
X136685000Y-106710000D01*
X136685000Y-106710000D02*
X136210000Y-106710000D01*
X136685000Y-101965000D02*
X136685000Y-101490000D01*
X136685000Y-101490000D02*
X136210000Y-101490000D01*
X131465000Y-106235000D02*
X131465000Y-106710000D01*
X109840000Y-100420000D02*
X109840000Y-101350000D01*
X109840000Y-103580000D02*
X109840000Y-102650000D01*
X109840000Y-103580000D02*
X112000000Y-103580000D01*
X109840000Y-100420000D02*
X111300000Y-100420000D01*
X123460000Y-107635000D02*
X123460000Y-108110000D01*
X123460000Y-108110000D02*
X122985000Y-108110000D01*
X119240000Y-104365000D02*
X119240000Y-103890000D01*
X119240000Y-103890000D02*
X119715000Y-103890000D01*
X119240000Y-107635000D02*
X119240000Y-108110000D01*
X119240000Y-108110000D02*
X119715000Y-108110000D01*
X123460000Y-104365000D02*
X123460000Y-103890000D01*
X105340000Y-101800000D02*
X105340000Y-103700000D01*
X107660000Y-103200000D02*
X107660000Y-101800000D01*
X140810000Y-106912221D02*
X140810000Y-107237779D01*
X139790000Y-106912221D02*
X139790000Y-107237779D01*
X126150000Y-102850000D02*
X126150000Y-106150000D01*
X126150000Y-106150000D02*
X130150000Y-106150000D01*
D12*
X101283333Y-104733333D02*
X101216666Y-104700000D01*
X101150000Y-104633333D01*
X101050000Y-104533333D01*
X100983333Y-104500000D01*
X100916666Y-104500000D01*
X100950000Y-104666666D02*
X100883333Y-104633333D01*
X100816666Y-104566666D01*
X100783333Y-104433333D01*
X100783333Y-104200000D01*
X100816666Y-104066666D01*
X100883333Y-104000000D01*
X100950000Y-103966666D01*
X101083333Y-103966666D01*
X101150000Y-104000000D01*
X101216666Y-104066666D01*
X101250000Y-104200000D01*
X101250000Y-104433333D01*
X101216666Y-104566666D01*
X101150000Y-104633333D01*
X101083333Y-104666666D01*
X100950000Y-104666666D01*
X101916666Y-104666666D02*
X101516666Y-104666666D01*
X101716666Y-104666666D02*
X101716666Y-103966666D01*
X101650000Y-104066666D01*
X101583333Y-104133333D01*
X101516666Y-104166666D01*
X131383333Y-100966666D02*
X131150000Y-100633333D01*
X130983333Y-100966666D02*
X130983333Y-100266666D01*
X131250000Y-100266666D01*
X131316666Y-100300000D01*
X131350000Y-100333333D01*
X131383333Y-100400000D01*
X131383333Y-100500000D01*
X131350000Y-100566666D01*
X131316666Y-100600000D01*
X131250000Y-100633333D01*
X130983333Y-100633333D01*
X131983333Y-100500000D02*
X131983333Y-100966666D01*
X131816666Y-100233333D02*
X131650000Y-100733333D01*
X132083333Y-100733333D01*
X103883333Y-108616666D02*
X103650000Y-108283333D01*
X103483333Y-108616666D02*
X103483333Y-107916666D01*
X103750000Y-107916666D01*
X103816666Y-107950000D01*
X103850000Y-107983333D01*
X103883333Y-108050000D01*
X103883333Y-108150000D01*
X103850000Y-108216666D01*
X103816666Y-108250000D01*
X103750000Y-108283333D01*
X103483333Y-108283333D01*
X104483333Y-107916666D02*
X104350000Y-107916666D01*
X104283333Y-107950000D01*
X104250000Y-107983333D01*
X104183333Y-108083333D01*
X104150000Y-108216666D01*
X104150000Y-108483333D01*
X104183333Y-108550000D01*
X104216666Y-108583333D01*
X104283333Y-108616666D01*
X104416666Y-108616666D01*
X104483333Y-108583333D01*
X104516666Y-108550000D01*
X104550000Y-108483333D01*
X104550000Y-108316666D01*
X104516666Y-108250000D01*
X104483333Y-108216666D01*
X104416666Y-108183333D01*
X104283333Y-108183333D01*
X104216666Y-108216666D01*
X104183333Y-108250000D01*
X104150000Y-108316666D01*
X103983333Y-100966666D02*
X103750000Y-100633333D01*
X103583333Y-100966666D02*
X103583333Y-100266666D01*
X103850000Y-100266666D01*
X103916666Y-100300000D01*
X103950000Y-100333333D01*
X103983333Y-100400000D01*
X103983333Y-100500000D01*
X103950000Y-100566666D01*
X103916666Y-100600000D01*
X103850000Y-100633333D01*
X103583333Y-100633333D01*
X104616666Y-100266666D02*
X104283333Y-100266666D01*
X104250000Y-100600000D01*
X104283333Y-100566666D01*
X104350000Y-100533333D01*
X104516666Y-100533333D01*
X104583333Y-100566666D01*
X104616666Y-100600000D01*
X104650000Y-100666666D01*
X104650000Y-100833333D01*
X104616666Y-100900000D01*
X104583333Y-100933333D01*
X104516666Y-100966666D01*
X104350000Y-100966666D01*
X104283333Y-100933333D01*
X104250000Y-100900000D01*
X116716666Y-106885714D02*
X116383333Y-107085714D01*
X116716666Y-107228571D02*
X116016666Y-107228571D01*
X116016666Y-107000000D01*
X116050000Y-106942857D01*
X116083333Y-106914285D01*
X116150000Y-106885714D01*
X116250000Y-106885714D01*
X116316666Y-106914285D01*
X116350000Y-106942857D01*
X116383333Y-107000000D01*
X116383333Y-107228571D01*
X116716666Y-106314285D02*
X116716666Y-106657142D01*
X116716666Y-106485714D02*
X116016666Y-106485714D01*
X116116666Y-106542857D01*
X116183333Y-106600000D01*
X116216666Y-106657142D01*
X116016666Y-105942857D02*
X116016666Y-105885714D01*
X116050000Y-105828571D01*
X116083333Y-105800000D01*
X116150000Y-105771428D01*
X116283333Y-105742857D01*
X116450000Y-105742857D01*
X116583333Y-105771428D01*
X116650000Y-105800000D01*
X116683333Y-105828571D01*
X116716666Y-105885714D01*
X116716666Y-105942857D01*
X116683333Y-106000000D01*
X116650000Y-106028571D01*
X116583333Y-106057142D01*
X116450000Y-106085714D01*
X116283333Y-106085714D01*
X116150000Y-106057142D01*
X116083333Y-106028571D01*
X116050000Y-106000000D01*
X116016666Y-105942857D01*
X113916666Y-107966666D02*
X113583333Y-108200000D01*
X113916666Y-108366666D02*
X113216666Y-108366666D01*
X113216666Y-108100000D01*
X113250000Y-108033333D01*
X113283333Y-108000000D01*
X113350000Y-107966666D01*
X113450000Y-107966666D01*
X113516666Y-108000000D01*
X113550000Y-108033333D01*
X113583333Y-108100000D01*
X113583333Y-108366666D01*
X113216666Y-107733333D02*
X113216666Y-107300000D01*
X113483333Y-107533333D01*
X113483333Y-107433333D01*
X113516666Y-107366666D01*
X113550000Y-107333333D01*
X113616666Y-107300000D01*
X113783333Y-107300000D01*
X113850000Y-107333333D01*
X113883333Y-107366666D01*
X113916666Y-107433333D01*
X113916666Y-107633333D01*
X113883333Y-107700000D01*
X113850000Y-107733333D01*
X117533333Y-108916666D02*
X117300000Y-108583333D01*
X117133333Y-108916666D02*
X117133333Y-108216666D01*
X117400000Y-108216666D01*
X117466666Y-108250000D01*
X117500000Y-108283333D01*
X117533333Y-108350000D01*
X117533333Y-108450000D01*
X117500000Y-108516666D01*
X117466666Y-108550000D01*
X117400000Y-108583333D01*
X117133333Y-108583333D01*
X117866666Y-108916666D02*
X118000000Y-108916666D01*
X118066666Y-108883333D01*
X118100000Y-108850000D01*
X118166666Y-108750000D01*
X118200000Y-108616666D01*
X118200000Y-108350000D01*
X118166666Y-108283333D01*
X118133333Y-108250000D01*
X118066666Y-108216666D01*
X117933333Y-108216666D01*
X117866666Y-108250000D01*
X117833333Y-108283333D01*
X117800000Y-108350000D01*
X117800000Y-108516666D01*
X117833333Y-108583333D01*
X117866666Y-108616666D01*
X117933333Y-108650000D01*
X118066666Y-108650000D01*
X118133333Y-108616666D01*
X118166666Y-108583333D01*
X118200000Y-108516666D01*
X136233333Y-100916666D02*
X136000000Y-100583333D01*
X135833333Y-100916666D02*
X135833333Y-100216666D01*
X136100000Y-100216666D01*
X136166666Y-100250000D01*
X136200000Y-100283333D01*
X136233333Y-100350000D01*
X136233333Y-100450000D01*
X136200000Y-100516666D01*
X136166666Y-100550000D01*
X136100000Y-100583333D01*
X135833333Y-100583333D01*
X136633333Y-100516666D02*
X136566666Y-100483333D01*
X136533333Y-100450000D01*
X136500000Y-100383333D01*
X136500000Y-100350000D01*
X136533333Y-100283333D01*
X136566666Y-100250000D01*
X136633333Y-100216666D01*
X136766666Y-100216666D01*
X136833333Y-100250000D01*
X136866666Y-100283333D01*
X136900000Y-100350000D01*
X136900000Y-100383333D01*
X136866666Y-100450000D01*
X136833333Y-100483333D01*
X136766666Y-100516666D01*
X136633333Y-100516666D01*
X136566666Y-100550000D01*
X136533333Y-100583333D01*
X136500000Y-100650000D01*
X136500000Y-100783333D01*
X136533333Y-100850000D01*
X136566666Y-100883333D01*
X136633333Y-100916666D01*
X136766666Y-100916666D01*
X136833333Y-100883333D01*
X136866666Y-100850000D01*
X136900000Y-100783333D01*
X136900000Y-100650000D01*
X136866666Y-100583333D01*
X136833333Y-100550000D01*
X136766666Y-100516666D01*
X110933333Y-107116666D02*
X110933333Y-106416666D01*
X111100000Y-106416666D01*
X111200000Y-106450000D01*
X111266666Y-106516666D01*
X111300000Y-106583333D01*
X111333333Y-106716666D01*
X111333333Y-106816666D01*
X111300000Y-106950000D01*
X111266666Y-107016666D01*
X111200000Y-107083333D01*
X111100000Y-107116666D01*
X110933333Y-107116666D01*
X112000000Y-107116666D02*
X111600000Y-107116666D01*
X111800000Y-107116666D02*
X111800000Y-106416666D01*
X111733333Y-106516666D01*
X111666666Y-106583333D01*
X111600000Y-106616666D01*
X107916666Y-105633333D02*
X108483333Y-105633333D01*
X108550000Y-105600000D01*
X108583333Y-105566666D01*
X108616666Y-105500000D01*
X108616666Y-105366666D01*
X108583333Y-105300000D01*
X108550000Y-105266666D01*
X108483333Y-105233333D01*
X107916666Y-105233333D01*
X107983333Y-104933333D02*
X107950000Y-104900000D01*
X107916666Y-104833333D01*
X107916666Y-104666666D01*
X107950000Y-104600000D01*
X107983333Y-104566666D01*
X108050000Y-104533333D01*
X108116666Y-104533333D01*
X108216666Y-104566666D01*
X108616666Y-104966666D01*
X108616666Y-104533333D01*
X128383333Y-108816666D02*
X128150000Y-108483333D01*
X127983333Y-108816666D02*
X127983333Y-108116666D01*
X128250000Y-108116666D01*
X128316666Y-108150000D01*
X128350000Y-108183333D01*
X128383333Y-108250000D01*
X128383333Y-108350000D01*
X128350000Y-108416666D01*
X128316666Y-108450000D01*
X128250000Y-108483333D01*
X127983333Y-108483333D01*
X128616666Y-108116666D02*
X129083333Y-108116666D01*
X128783333Y-108816666D01*
X127183333Y-102250000D02*
X127150000Y-102283333D01*
X127050000Y-102316666D01*
X126983333Y-102316666D01*
X126883333Y-102283333D01*
X126816666Y-102216666D01*
X126783333Y-102150000D01*
X126750000Y-102016666D01*
X126750000Y-101916666D01*
X126783333Y-101783333D01*
X126816666Y-101716666D01*
X126883333Y-101650000D01*
X126983333Y-101616666D01*
X127050000Y-101616666D01*
X127150000Y-101650000D01*
X127183333Y-101683333D01*
X127416666Y-101616666D02*
X127883333Y-101616666D01*
X127583333Y-102316666D01*
X140933333Y-102983333D02*
X140866666Y-102950000D01*
X140800000Y-102883333D01*
X140700000Y-102783333D01*
X140633333Y-102750000D01*
X140566666Y-102750000D01*
X140600000Y-102916666D02*
X140533333Y-102883333D01*
X140466666Y-102816666D01*
X140433333Y-102683333D01*
X140433333Y-102450000D01*
X140466666Y-102316666D01*
X140533333Y-102250000D01*
X140600000Y-102216666D01*
X140733333Y-102216666D01*
X140800000Y-102250000D01*
X140866666Y-102316666D01*
X140900000Y-102450000D01*
X140900000Y-102683333D01*
X140866666Y-102816666D01*
X140800000Y-102883333D01*
X140733333Y-102916666D01*
X140600000Y-102916666D01*
X141166666Y-102283333D02*
X141200000Y-102250000D01*
X141266666Y-102216666D01*
X141433333Y-102216666D01*
X141500000Y-102250000D01*
X141533333Y-102283333D01*
X141566666Y-102350000D01*
X141566666Y-102416666D01*
X141533333Y-102516666D01*
X141133333Y-102916666D01*
X141566666Y-102916666D01*
X134383333Y-108250000D02*
X134350000Y-108283333D01*
X134250000Y-108316666D01*
X134183333Y-108316666D01*
X134083333Y-108283333D01*
X134016666Y-108216666D01*
X133983333Y-108150000D01*
X133950000Y-108016666D01*
X133950000Y-107916666D01*
X133983333Y-107783333D01*
X134016666Y-107716666D01*
X134083333Y-107650000D01*
X134183333Y-107616666D01*
X134250000Y-107616666D01*
X134350000Y-107650000D01*
X134383333Y-107683333D01*
X134616666Y-107616666D02*
X135050000Y-107616666D01*
X134816666Y-107883333D01*
X134916666Y-107883333D01*
X134983333Y-107916666D01*
X135016666Y-107950000D01*
X135050000Y-108016666D01*
X135050000Y-108183333D01*
X135016666Y-108250000D01*
X134983333Y-108283333D01*
X134916666Y-108316666D01*
X134716666Y-108316666D01*
X134650000Y-108283333D01*
X134616666Y-108250000D01*
X129483333Y-102250000D02*
X129450000Y-102283333D01*
X129350000Y-102316666D01*
X129283333Y-102316666D01*
X129183333Y-102283333D01*
X129116666Y-102216666D01*
X129083333Y-102150000D01*
X129050000Y-102016666D01*
X129050000Y-101916666D01*
X129083333Y-101783333D01*
X129116666Y-101716666D01*
X129183333Y-101650000D01*
X129283333Y-101616666D01*
X129350000Y-101616666D01*
X129450000Y-101650000D01*
X129483333Y-101683333D01*
X130083333Y-101616666D02*
X129950000Y-101616666D01*
X129883333Y-101650000D01*
X129850000Y-101683333D01*
X129783333Y-101783333D01*
X129750000Y-101916666D01*
X129750000Y-102183333D01*
X129783333Y-102250000D01*
X129816666Y-102283333D01*
X129883333Y-102316666D01*
X130016666Y-102316666D01*
X130083333Y-102283333D01*
X130116666Y-102250000D01*
X130150000Y-102183333D01*
X130150000Y-102016666D01*
X130116666Y-101950000D01*
X130083333Y-101916666D01*
X130016666Y-101883333D01*
X129883333Y-101883333D01*
X129816666Y-101916666D01*
X129783333Y-101950000D01*
X129750000Y-102016666D01*
X116816666Y-101583333D02*
X117383333Y-101583333D01*
X117450000Y-101550000D01*
X117483333Y-101516666D01*
X117516666Y-101450000D01*
X117516666Y-101316666D01*
X117483333Y-101250000D01*
X117450000Y-101216666D01*
X117383333Y-101183333D01*
X116816666Y-101183333D01*
X116816666Y-100916666D02*
X116816666Y-100483333D01*
X117083333Y-100716666D01*
X117083333Y-100616666D01*
X117116666Y-100550000D01*
X117150000Y-100516666D01*
X117216666Y-100483333D01*
X117383333Y-100483333D01*
X117450000Y-100516666D01*
X117483333Y-100550000D01*
X117516666Y-100616666D01*
X117516666Y-100816666D01*
X117483333Y-100883333D01*
X117450000Y-100916666D01*
X142883333Y-107748666D02*
X143216666Y-107748666D01*
X142816666Y-107948666D02*
X143050000Y-107248666D01*
X143283333Y-107948666D01*
X143516666Y-107582000D02*
X143750000Y-107582000D01*
X143850000Y-107948666D02*
X143516666Y-107948666D01*
X143516666Y-107248666D01*
X143850000Y-107248666D01*
X144516666Y-107948666D02*
X144116666Y-107948666D01*
X144316666Y-107948666D02*
X144316666Y-107248666D01*
X144250000Y-107348666D01*
X144183333Y-107415333D01*
X144116666Y-107448666D01*
X116650000Y-105066666D02*
X116683333Y-105100000D01*
X116716666Y-105200000D01*
X116716666Y-105266666D01*
X116683333Y-105366666D01*
X116616666Y-105433333D01*
X116550000Y-105466666D01*
X116416666Y-105500000D01*
X116316666Y-105500000D01*
X116183333Y-105466666D01*
X116116666Y-105433333D01*
X116050000Y-105366666D01*
X116016666Y-105266666D01*
X116016666Y-105200000D01*
X116050000Y-105100000D01*
X116083333Y-105066666D01*
X116316666Y-104666666D02*
X116283333Y-104733333D01*
X116250000Y-104766666D01*
X116183333Y-104800000D01*
X116150000Y-104800000D01*
X116083333Y-104766666D01*
X116050000Y-104733333D01*
X116016666Y-104666666D01*
X116016666Y-104533333D01*
X116050000Y-104466666D01*
X116083333Y-104433333D01*
X116150000Y-104400000D01*
X116183333Y-104400000D01*
X116250000Y-104433333D01*
X116283333Y-104466666D01*
X116316666Y-104533333D01*
X116316666Y-104666666D01*
X116350000Y-104733333D01*
X116383333Y-104766666D01*
X116450000Y-104800000D01*
X116583333Y-104800000D01*
X116650000Y-104766666D01*
X116683333Y-104733333D01*
X116716666Y-104666666D01*
X116716666Y-104533333D01*
X116683333Y-104466666D01*
X116650000Y-104433333D01*
X116583333Y-104400000D01*
X116450000Y-104400000D01*
X116383333Y-104433333D01*
X116350000Y-104466666D01*
X116316666Y-104533333D01*
X111133333Y-106150000D02*
X111100000Y-106183333D01*
X111000000Y-106216666D01*
X110933333Y-106216666D01*
X110833333Y-106183333D01*
X110766666Y-106116666D01*
X110733333Y-106050000D01*
X110700000Y-105916666D01*
X110700000Y-105816666D01*
X110733333Y-105683333D01*
X110766666Y-105616666D01*
X110833333Y-105550000D01*
X110933333Y-105516666D01*
X111000000Y-105516666D01*
X111100000Y-105550000D01*
X111133333Y-105583333D01*
X111400000Y-105583333D02*
X111433333Y-105550000D01*
X111500000Y-105516666D01*
X111666666Y-105516666D01*
X111733333Y-105550000D01*
X111766666Y-105583333D01*
X111800000Y-105650000D01*
X111800000Y-105716666D01*
X111766666Y-105816666D01*
X111366666Y-106216666D01*
X111800000Y-106216666D01*
X136066666Y-107216666D02*
X136066666Y-107783333D01*
X136100000Y-107850000D01*
X136133333Y-107883333D01*
X136200000Y-107916666D01*
X136333333Y-107916666D01*
X136400000Y-107883333D01*
X136433333Y-107850000D01*
X136466666Y-107783333D01*
X136466666Y-107216666D01*
X137133333Y-107216666D02*
X136800000Y-107216666D01*
X136766666Y-107550000D01*
X136800000Y-107516666D01*
X136866666Y-107483333D01*
X137033333Y-107483333D01*
X137100000Y-107516666D01*
X137133333Y-107550000D01*
X137166666Y-107616666D01*
X137166666Y-107783333D01*
X137133333Y-107850000D01*
X137100000Y-107883333D01*
X137033333Y-107916666D01*
X136866666Y-107916666D01*
X136800000Y-107883333D01*
X136766666Y-107850000D01*
X113850000Y-104966666D02*
X113883333Y-105000000D01*
X113916666Y-105100000D01*
X113916666Y-105166666D01*
X113883333Y-105266666D01*
X113816666Y-105333333D01*
X113750000Y-105366666D01*
X113616666Y-105400000D01*
X113516666Y-105400000D01*
X113383333Y-105366666D01*
X113316666Y-105333333D01*
X113250000Y-105266666D01*
X113216666Y-105166666D01*
X113216666Y-105100000D01*
X113250000Y-105000000D01*
X113283333Y-104966666D01*
X113916666Y-104300000D02*
X113916666Y-104700000D01*
X113916666Y-104500000D02*
X113216666Y-104500000D01*
X113316666Y-104566666D01*
X113383333Y-104633333D01*
X113416666Y-104700000D01*
X108566666Y-100266666D02*
X108566666Y-100833333D01*
X108600000Y-100900000D01*
X108633333Y-100933333D01*
X108700000Y-100966666D01*
X108833333Y-100966666D01*
X108900000Y-100933333D01*
X108933333Y-100900000D01*
X108966666Y-100833333D01*
X108966666Y-100266666D01*
X109666666Y-100966666D02*
X109266666Y-100966666D01*
X109466666Y-100966666D02*
X109466666Y-100266666D01*
X109400000Y-100366666D01*
X109333333Y-100433333D01*
X109266666Y-100466666D01*
X123816666Y-103616666D02*
X123816666Y-104183333D01*
X123850000Y-104250000D01*
X123883333Y-104283333D01*
X123950000Y-104316666D01*
X124083333Y-104316666D01*
X124150000Y-104283333D01*
X124183333Y-104250000D01*
X124216666Y-104183333D01*
X124216666Y-103616666D01*
X124850000Y-103616666D02*
X124716666Y-103616666D01*
X124650000Y-103650000D01*
X124616666Y-103683333D01*
X124550000Y-103783333D01*
X124516666Y-103916666D01*
X124516666Y-104183333D01*
X124550000Y-104250000D01*
X124583333Y-104283333D01*
X124650000Y-104316666D01*
X124783333Y-104316666D01*
X124850000Y-104283333D01*
X124883333Y-104250000D01*
X124916666Y-104183333D01*
X124916666Y-104016666D01*
X124883333Y-103950000D01*
X124850000Y-103916666D01*
X124783333Y-103883333D01*
X124650000Y-103883333D01*
X124583333Y-103916666D01*
X124550000Y-103950000D01*
X124516666Y-104016666D01*
X128433333Y-107850000D02*
X128400000Y-107883333D01*
X128300000Y-107916666D01*
X128233333Y-107916666D01*
X128133333Y-107883333D01*
X128066666Y-107816666D01*
X128033333Y-107750000D01*
X128000000Y-107616666D01*
X128000000Y-107516666D01*
X128033333Y-107383333D01*
X128066666Y-107316666D01*
X128133333Y-107250000D01*
X128233333Y-107216666D01*
X128300000Y-107216666D01*
X128400000Y-107250000D01*
X128433333Y-107283333D01*
X129066666Y-107216666D02*
X128733333Y-107216666D01*
X128700000Y-107550000D01*
X128733333Y-107516666D01*
X128800000Y-107483333D01*
X128966666Y-107483333D01*
X129033333Y-107516666D01*
X129066666Y-107550000D01*
X129100000Y-107616666D01*
X129100000Y-107783333D01*
X129066666Y-107850000D01*
X129033333Y-107883333D01*
X128966666Y-107916666D01*
X128800000Y-107916666D01*
X128733333Y-107883333D01*
X128700000Y-107850000D01*
X126783333Y-107850000D02*
X126750000Y-107883333D01*
X126650000Y-107916666D01*
X126583333Y-107916666D01*
X126483333Y-107883333D01*
X126416666Y-107816666D01*
X126383333Y-107750000D01*
X126350000Y-107616666D01*
X126350000Y-107516666D01*
X126383333Y-107383333D01*
X126416666Y-107316666D01*
X126483333Y-107250000D01*
X126583333Y-107216666D01*
X126650000Y-107216666D01*
X126750000Y-107250000D01*
X126783333Y-107283333D01*
X127383333Y-107450000D02*
X127383333Y-107916666D01*
X127216666Y-107183333D02*
X127050000Y-107683333D01*
X127483333Y-107683333D01*
X107766666Y-103033333D02*
X108333333Y-103033333D01*
X108400000Y-103000000D01*
X108433333Y-102966666D01*
X108466666Y-102900000D01*
X108466666Y-102766666D01*
X108433333Y-102700000D01*
X108400000Y-102666666D01*
X108333333Y-102633333D01*
X107766666Y-102633333D01*
X108000000Y-102000000D02*
X108466666Y-102000000D01*
X107733333Y-102166666D02*
X108233333Y-102333333D01*
X108233333Y-101900000D01*
X117083333Y-103200000D02*
X117050000Y-103233333D01*
X116950000Y-103266666D01*
X116883333Y-103266666D01*
X116783333Y-103233333D01*
X116716666Y-103166666D01*
X116683333Y-103100000D01*
X116650000Y-102966666D01*
X116650000Y-102866666D01*
X116683333Y-102733333D01*
X116716666Y-102666666D01*
X116783333Y-102600000D01*
X116883333Y-102566666D01*
X116950000Y-102566666D01*
X117050000Y-102600000D01*
X117083333Y-102633333D01*
X117416666Y-103266666D02*
X117550000Y-103266666D01*
X117616666Y-103233333D01*
X117650000Y-103200000D01*
X117716666Y-103100000D01*
X117750000Y-102966666D01*
X117750000Y-102700000D01*
X117716666Y-102633333D01*
X117683333Y-102600000D01*
X117616666Y-102566666D01*
X117483333Y-102566666D01*
X117416666Y-102600000D01*
X117383333Y-102633333D01*
X117350000Y-102700000D01*
X117350000Y-102866666D01*
X117383333Y-102933333D01*
X117416666Y-102966666D01*
X117483333Y-103000000D01*
X117616666Y-103000000D01*
X117683333Y-102966666D01*
X117716666Y-102933333D01*
X117750000Y-102866666D01*
X113916666Y-106466666D02*
X113583333Y-106700000D01*
X113916666Y-106866666D02*
X113216666Y-106866666D01*
X113216666Y-106600000D01*
X113250000Y-106533333D01*
X113283333Y-106500000D01*
X113350000Y-106466666D01*
X113450000Y-106466666D01*
X113516666Y-106500000D01*
X113550000Y-106533333D01*
X113583333Y-106600000D01*
X113583333Y-106866666D01*
X113916666Y-105800000D02*
X113916666Y-106200000D01*
X113916666Y-106000000D02*
X113216666Y-106000000D01*
X113316666Y-106066666D01*
X113383333Y-106133333D01*
X113416666Y-106200000D01*
X101983333Y-108516666D02*
X101750000Y-108183333D01*
X101583333Y-108516666D02*
X101583333Y-107816666D01*
X101850000Y-107816666D01*
X101916666Y-107850000D01*
X101950000Y-107883333D01*
X101983333Y-107950000D01*
X101983333Y-108050000D01*
X101950000Y-108116666D01*
X101916666Y-108150000D01*
X101850000Y-108183333D01*
X101583333Y-108183333D01*
X102250000Y-107883333D02*
X102283333Y-107850000D01*
X102350000Y-107816666D01*
X102516666Y-107816666D01*
X102583333Y-107850000D01*
X102616666Y-107883333D01*
X102650000Y-107950000D01*
X102650000Y-108016666D01*
X102616666Y-108116666D01*
X102216666Y-108516666D01*
X102650000Y-108516666D01*
X141613333Y-107391666D02*
X141280000Y-107391666D01*
X141280000Y-106691666D01*
X142213333Y-107391666D02*
X141813333Y-107391666D01*
X142013333Y-107391666D02*
X142013333Y-106691666D01*
X141946666Y-106791666D01*
X141880000Y-106858333D01*
X141813333Y-106891666D01*
X125216666Y-105733333D02*
X125216666Y-106066666D01*
X124983333Y-105366666D02*
X125216666Y-105733333D01*
X125450000Y-105366666D01*
X126050000Y-106066666D02*
X125650000Y-106066666D01*
X125850000Y-106066666D02*
X125850000Y-105366666D01*
X125783333Y-105466666D01*
X125716666Y-105533333D01*
X125650000Y-105566666D01*
M02*
