M48
; DRILL file {KiCad (5.1.5)-3} date 3/1/2020 2:54:39 PM
; FORMAT={-:-/ absolute / metric / decimal}
; #@! TF.CreationDate,2020-03-01T14:54:39+01:00
; #@! TF.GenerationSoftware,Kicad,Pcbnew,(5.1.5)-3
FMAT,2
METRIC
T1C0.400
%
G90
G05
T1
X102.54Y-102.413
X102.9Y-107.7
X103.215Y-103.556
X105.715Y-104.445
X107.366Y-100.625
X108.763Y-103.937
X110.033Y-101.905
X110.346Y-108.196
X110.922Y-101.397
X111.176Y-103.683
X112.446Y-103.937
X112.573Y-102.032
X114.404Y-105.841
X115.315Y-104.606
X116.002Y-102.032
X117.235Y-105.75
X117.272Y-100.889
X118.185Y-104.625
X119.2Y-103.9
X121.35Y-106.0
X125.0Y-106.25
X125.625Y-105.375
X126.625Y-107.75
X126.8Y-100.625
X127.875Y-107.75
X130.3Y-103.1
X130.3Y-104.2
X131.5Y-103.1
X131.5Y-104.2
X132.7Y-103.1
X132.7Y-104.2
X135.96Y-105.916
X136.05Y-107.302
X136.45Y-102.95
X137.95Y-102.9
X138.45Y-105.5
X139.0Y-102.1
X100.5Y-108.1
X145.5Y-108.1
X100.5Y-100.9
X145.5Y-100.9
T0
M30
