G04 #@! TF.GenerationSoftware,KiCad,Pcbnew,(5.1.6)-1*
G04 #@! TF.CreationDate,2020-09-29T15:04:04+02:00*
G04 #@! TF.ProjectId,double-oh,646f7562-6c65-42d6-9f68-2e6b69636164,rev?*
G04 #@! TF.SameCoordinates,Original*
G04 #@! TF.FileFunction,Copper,L2,Bot*
G04 #@! TF.FilePolarity,Positive*
%FSLAX46Y46*%
G04 Gerber Fmt 4.6, Leading zero omitted, Abs format (unit mm)*
G04 Created by KiCad (PCBNEW (5.1.6)-1) date 2020-09-29 15:04:04*
%MOMM*%
%LPD*%
G01*
G04 APERTURE LIST*
G04 #@! TA.AperFunction,SMDPad,CuDef*
%ADD10R,0.800000X0.900000*%
G04 #@! TD*
G04 #@! TA.AperFunction,ComponentPad*
%ADD11R,1.600000X1.600000*%
G04 #@! TD*
G04 #@! TA.AperFunction,ViaPad*
%ADD12C,0.800000*%
G04 #@! TD*
G04 #@! TA.AperFunction,Conductor*
%ADD13C,0.250000*%
G04 #@! TD*
G04 #@! TA.AperFunction,Conductor*
%ADD14C,0.800000*%
G04 #@! TD*
G04 #@! TA.AperFunction,Conductor*
%ADD15C,0.254000*%
G04 #@! TD*
G04 APERTURE END LIST*
D10*
X103685500Y-100667000D03*
X102735500Y-102667000D03*
X104635500Y-102667000D03*
D11*
X145100000Y-100900000D03*
X145100000Y-108100000D03*
X100900000Y-108100000D03*
X100900000Y-100900000D03*
D12*
X116002000Y-102032000D03*
X111161000Y-103700000D03*
X117214995Y-106900000D03*
X105300000Y-103576000D03*
X106100000Y-103576000D03*
X122098000Y-105270500D03*
X120574000Y-105270500D03*
X120574000Y-106731000D03*
X122098000Y-106731000D03*
X130293500Y-105279500D03*
X132706500Y-105279500D03*
X131500000Y-105279500D03*
X121350000Y-106000000D03*
X132700000Y-103100000D03*
X131500000Y-103100000D03*
X130300000Y-103100000D03*
X139000000Y-102100000D03*
X138450000Y-105500000D03*
X131500000Y-104200000D03*
X132700000Y-104200000D03*
X130300000Y-104200000D03*
X114404012Y-105841302D03*
X105715000Y-104345000D03*
X110600000Y-105900000D03*
X105300000Y-105100000D03*
X106100000Y-105100000D03*
X101481883Y-104608660D03*
X112645606Y-101548453D03*
X117300000Y-105100000D03*
X126800000Y-100625000D03*
X107366000Y-100625010D03*
X110100000Y-101300000D03*
X126625000Y-107750000D03*
X137655500Y-102924970D03*
X136450000Y-102950000D03*
X125000000Y-106249998D03*
X102900000Y-107700000D03*
X125625000Y-105375000D03*
X111430000Y-108196168D03*
X136004500Y-106096000D03*
X127875000Y-107750000D03*
X135750500Y-107302500D03*
X103238500Y-104000500D03*
X108763000Y-103937000D03*
X112446000Y-104064000D03*
X102700000Y-100700000D03*
D13*
X111161000Y-101960057D02*
X111161000Y-103700000D01*
X114793452Y-100823452D02*
X112297605Y-100823452D01*
X112297605Y-100823452D02*
X111161000Y-101960057D01*
X116002000Y-102032000D02*
X114793452Y-100823452D01*
X102100000Y-106900000D02*
X100900000Y-108100000D01*
X117214995Y-106900000D02*
X102100000Y-106900000D01*
X130900000Y-103600000D02*
X131500000Y-104200000D01*
X114371292Y-105841302D02*
X114404012Y-105841302D01*
X139000000Y-102100000D02*
X138223002Y-102100000D01*
X138223002Y-102100000D02*
X138173002Y-102050000D01*
X138450000Y-107750000D02*
X138800000Y-108100000D01*
X138450000Y-105500000D02*
X138450000Y-107750000D01*
D14*
X138800000Y-108100000D02*
X144850000Y-108100000D01*
D13*
X138900000Y-105050000D02*
X138450000Y-105500000D01*
X138900000Y-102776998D02*
X138900000Y-105050000D01*
X135450000Y-102050000D02*
X138173002Y-102050000D01*
X138173002Y-102050000D02*
X138900000Y-102776998D01*
X131500000Y-104200000D02*
X133300000Y-104200000D01*
X133300000Y-104200000D02*
X135450000Y-102050000D01*
X114204980Y-105674990D02*
X114371292Y-105841302D01*
X107111302Y-105841302D02*
X105715000Y-104445000D01*
X130182000Y-104318000D02*
X130300000Y-104200000D01*
X121350000Y-106000000D02*
X123032000Y-104318000D01*
X123032000Y-104318000D02*
X130182000Y-104318000D01*
D14*
X144850000Y-108100000D02*
X145500000Y-108100000D01*
D13*
X110641302Y-105858698D02*
X110600000Y-105900000D01*
X110641302Y-105841302D02*
X107111302Y-105841302D01*
X110641302Y-105841302D02*
X110641302Y-105858698D01*
X114404012Y-105841302D02*
X110641302Y-105841302D01*
X114404012Y-103306859D02*
X112645606Y-101548453D01*
X114404012Y-105841302D02*
X114404012Y-103306859D01*
X101953223Y-105080000D02*
X101481883Y-104608660D01*
X105715000Y-104445000D02*
X105080000Y-105080000D01*
X105080000Y-105080000D02*
X101953223Y-105080000D01*
X121350000Y-106000000D02*
X118200000Y-106000000D01*
X118200000Y-106000000D02*
X117300000Y-105100000D01*
X114404012Y-105841302D02*
X116558698Y-105841302D01*
X116558698Y-105841302D02*
X117300000Y-105100000D01*
X107931685Y-100625010D02*
X107366000Y-100625010D01*
X108183254Y-100373441D02*
X107931685Y-100625010D01*
X108199059Y-100373441D02*
X108222490Y-100350010D01*
X108183254Y-100373441D02*
X108199059Y-100373441D01*
X109875010Y-100350010D02*
X110033000Y-100508000D01*
X108222490Y-100350010D02*
X109875010Y-100350010D01*
X126800000Y-101550000D02*
X126800000Y-100625000D01*
X124600000Y-103750000D02*
X126800000Y-101550000D01*
X118214361Y-103750000D02*
X124600000Y-103750000D01*
X110033000Y-100508000D02*
X110167558Y-100373442D01*
X110167558Y-100373442D02*
X116756439Y-100373441D01*
X116756439Y-100373441D02*
X117272000Y-100889002D01*
X117272000Y-100889002D02*
X117272000Y-102807639D01*
X117272000Y-102807639D02*
X118214361Y-103750000D01*
X110033000Y-100508000D02*
X110033000Y-101233000D01*
X110033000Y-101233000D02*
X110100000Y-101300000D01*
X137255501Y-103324969D02*
X137655500Y-102924970D01*
X127375000Y-107000000D02*
X133580472Y-107000000D01*
X126625000Y-107750000D02*
X127375000Y-107000000D01*
X133580472Y-107000000D02*
X137255501Y-103324969D01*
X133401000Y-106413500D02*
X125163502Y-106413500D01*
X136450000Y-102950000D02*
X136450000Y-103364500D01*
X125163502Y-106413500D02*
X125000000Y-106249998D01*
X136450000Y-103364500D02*
X133401000Y-106413500D01*
X125059315Y-105375000D02*
X125625000Y-105375000D01*
X124801996Y-105375000D02*
X125059315Y-105375000D01*
X122048996Y-108128000D02*
X124801996Y-105375000D01*
X112434834Y-108128000D02*
X122048996Y-108128000D01*
X103328000Y-108128000D02*
X110425166Y-108128000D01*
X102900000Y-107700000D02*
X103328000Y-108128000D01*
X110425166Y-108128000D02*
X111081999Y-107471167D01*
X111081999Y-107471167D02*
X111778001Y-107471167D01*
X111778001Y-107471167D02*
X112434834Y-108128000D01*
X111829999Y-108596167D02*
X111430000Y-108196168D01*
X135529835Y-108596167D02*
X111829999Y-108596167D01*
X136639500Y-107486502D02*
X135529835Y-108596167D01*
X136004500Y-106096000D02*
X136639500Y-106731000D01*
X136639500Y-106731000D02*
X136639500Y-107486502D01*
X134125305Y-107750000D02*
X127875000Y-107750000D01*
X135303000Y-107750000D02*
X134125305Y-107750000D01*
X135750500Y-107302500D02*
X135303000Y-107750000D01*
X103238500Y-104000500D02*
X103238500Y-103902500D01*
X103238500Y-103170000D02*
X102735500Y-102667000D01*
X103238500Y-104000500D02*
X103238500Y-103170000D01*
X104618500Y-101600000D02*
X103685500Y-100667000D01*
X107364500Y-101600000D02*
X104618500Y-101600000D01*
X108763000Y-103937000D02*
X108763000Y-102998500D01*
X108763000Y-102998500D02*
X107364500Y-101600000D01*
X102733000Y-100667000D02*
X102700000Y-100700000D01*
X103685500Y-100667000D02*
X102733000Y-100667000D01*
X108763000Y-103937000D02*
X109326000Y-104500000D01*
X112010000Y-104500000D02*
X112446000Y-104064000D01*
X109326000Y-104500000D02*
X112010000Y-104500000D01*
D15*
G36*
X138862000Y-108598000D02*
G01*
X136237936Y-108598000D01*
X136977038Y-107858899D01*
X136996184Y-107843186D01*
X137012120Y-107823769D01*
X137058916Y-107766748D01*
X137058917Y-107766747D01*
X137105531Y-107679538D01*
X137134236Y-107584911D01*
X137141500Y-107511155D01*
X137141500Y-107511146D01*
X137143927Y-107486503D01*
X137141500Y-107461860D01*
X137141500Y-106755645D01*
X137143927Y-106731000D01*
X137141500Y-106706354D01*
X137141500Y-106706347D01*
X137134236Y-106632591D01*
X137134236Y-106632590D01*
X137105531Y-106537963D01*
X137058917Y-106450754D01*
X137011900Y-106393464D01*
X137011892Y-106393456D01*
X136996184Y-106374316D01*
X136977043Y-106358607D01*
X136781500Y-106163065D01*
X136781500Y-106019472D01*
X136751641Y-105869357D01*
X136693069Y-105727952D01*
X136608036Y-105600691D01*
X136499809Y-105492464D01*
X136372548Y-105407431D01*
X136231143Y-105348859D01*
X136081028Y-105319000D01*
X135971405Y-105319000D01*
X137588435Y-103701970D01*
X137732028Y-103701970D01*
X137882143Y-103672111D01*
X138023548Y-103613539D01*
X138150809Y-103528506D01*
X138259036Y-103420279D01*
X138344069Y-103293018D01*
X138402641Y-103151613D01*
X138432500Y-103001498D01*
X138432500Y-102848442D01*
X138402641Y-102698327D01*
X138344069Y-102556922D01*
X138259036Y-102429661D01*
X138150809Y-102321434D01*
X138023548Y-102236401D01*
X137882143Y-102177829D01*
X137732028Y-102147970D01*
X137578972Y-102147970D01*
X137428857Y-102177829D01*
X137287452Y-102236401D01*
X137160191Y-102321434D01*
X137051964Y-102429661D01*
X137042568Y-102443723D01*
X136945309Y-102346464D01*
X136818048Y-102261431D01*
X136676643Y-102202859D01*
X136526528Y-102173000D01*
X136373472Y-102173000D01*
X136223357Y-102202859D01*
X136081952Y-102261431D01*
X135954691Y-102346464D01*
X135846464Y-102454691D01*
X135761431Y-102581952D01*
X135702859Y-102723357D01*
X135673000Y-102873472D01*
X135673000Y-103026528D01*
X135702859Y-103176643D01*
X135761431Y-103318048D01*
X135771479Y-103333086D01*
X133193066Y-105911500D01*
X126187345Y-105911500D01*
X126228536Y-105870309D01*
X126313569Y-105743048D01*
X126372141Y-105601643D01*
X126402000Y-105451528D01*
X126402000Y-105298472D01*
X126372141Y-105148357D01*
X126313569Y-105006952D01*
X126228536Y-104879691D01*
X126120309Y-104771464D01*
X125993048Y-104686431D01*
X125851643Y-104627859D01*
X125701528Y-104598000D01*
X125548472Y-104598000D01*
X125398357Y-104627859D01*
X125256952Y-104686431D01*
X125129691Y-104771464D01*
X125028155Y-104873000D01*
X124826639Y-104873000D01*
X124801996Y-104870573D01*
X124777353Y-104873000D01*
X124777343Y-104873000D01*
X124703587Y-104880264D01*
X124608960Y-104908969D01*
X124521751Y-104955583D01*
X124521749Y-104955584D01*
X124521750Y-104955584D01*
X124465193Y-105002000D01*
X124445312Y-105018316D01*
X124429599Y-105037462D01*
X121841062Y-107626000D01*
X117492677Y-107626000D01*
X117583043Y-107588569D01*
X117710304Y-107503536D01*
X117818531Y-107395309D01*
X117903564Y-107268048D01*
X117962136Y-107126643D01*
X117991995Y-106976528D01*
X117991995Y-106823472D01*
X117962136Y-106673357D01*
X117903564Y-106531952D01*
X117818531Y-106404691D01*
X117710304Y-106296464D01*
X117583043Y-106211431D01*
X117441638Y-106152859D01*
X117291523Y-106123000D01*
X117138467Y-106123000D01*
X116988352Y-106152859D01*
X116846947Y-106211431D01*
X116719686Y-106296464D01*
X116618150Y-106398000D01*
X107718668Y-106398000D01*
X107709803Y-106387197D01*
X107690557Y-106371403D01*
X107668601Y-106359667D01*
X107644776Y-106352440D01*
X107620000Y-106350000D01*
X103937000Y-106350000D01*
X103912224Y-106352440D01*
X103888399Y-106359667D01*
X103866443Y-106371403D01*
X103847197Y-106387197D01*
X103838332Y-106398000D01*
X102124642Y-106398000D01*
X102099999Y-106395573D01*
X102075356Y-106398000D01*
X102075347Y-106398000D01*
X102001591Y-106405264D01*
X101906964Y-106433969D01*
X101819755Y-106480583D01*
X101743316Y-106543316D01*
X101727603Y-106562462D01*
X101368889Y-106921176D01*
X101287296Y-106921176D01*
X101325889Y-102527000D01*
X101956676Y-102527000D01*
X101956676Y-103117000D01*
X101963955Y-103190905D01*
X101985512Y-103261970D01*
X102020519Y-103327463D01*
X102067631Y-103384869D01*
X102125037Y-103431981D01*
X102190530Y-103466988D01*
X102261595Y-103488545D01*
X102335500Y-103495824D01*
X102644331Y-103495824D01*
X102634964Y-103505191D01*
X102549931Y-103632452D01*
X102491359Y-103773857D01*
X102461500Y-103923972D01*
X102461500Y-104077028D01*
X102491359Y-104227143D01*
X102549931Y-104368548D01*
X102634964Y-104495809D01*
X102743191Y-104604036D01*
X102870452Y-104689069D01*
X103011857Y-104747641D01*
X103161972Y-104777500D01*
X103315028Y-104777500D01*
X103465143Y-104747641D01*
X103606548Y-104689069D01*
X103733809Y-104604036D01*
X103842036Y-104495809D01*
X103927069Y-104368548D01*
X103985641Y-104227143D01*
X104015500Y-104077028D01*
X104015500Y-103923972D01*
X103985641Y-103773857D01*
X103948193Y-103683450D01*
X103991320Y-103706502D01*
X104111018Y-103742812D01*
X104235500Y-103755072D01*
X104349750Y-103752000D01*
X104508500Y-103593250D01*
X104508500Y-102794000D01*
X104762500Y-102794000D01*
X104762500Y-103593250D01*
X104921250Y-103752000D01*
X105035500Y-103755072D01*
X105159982Y-103742812D01*
X105279680Y-103706502D01*
X105389994Y-103647537D01*
X105486685Y-103568185D01*
X105566037Y-103471494D01*
X105625002Y-103361180D01*
X105661312Y-103241482D01*
X105673572Y-103117000D01*
X105670500Y-102952750D01*
X105511750Y-102794000D01*
X104762500Y-102794000D01*
X104508500Y-102794000D01*
X103759250Y-102794000D01*
X103659860Y-102893390D01*
X103657917Y-102889755D01*
X103624012Y-102848442D01*
X103610899Y-102832464D01*
X103610897Y-102832462D01*
X103595184Y-102813316D01*
X103576038Y-102797603D01*
X103514324Y-102735889D01*
X103514324Y-102527000D01*
X103746250Y-102527000D01*
X103759250Y-102540000D01*
X107594565Y-102540000D01*
X108261001Y-103206437D01*
X108261001Y-103340154D01*
X108159464Y-103441691D01*
X108074431Y-103568952D01*
X108015859Y-103710357D01*
X107986000Y-103860472D01*
X107986000Y-104013528D01*
X108015859Y-104163643D01*
X108074431Y-104305048D01*
X108159464Y-104432309D01*
X108267691Y-104540536D01*
X108394952Y-104625569D01*
X108536357Y-104684141D01*
X108686472Y-104714000D01*
X108830065Y-104714000D01*
X108953603Y-104837538D01*
X108969316Y-104856684D01*
X108988462Y-104872397D01*
X108988464Y-104872399D01*
X108998049Y-104880265D01*
X109045755Y-104919417D01*
X109132964Y-104966031D01*
X109227591Y-104994736D01*
X109301347Y-105002000D01*
X109301356Y-105002000D01*
X109325999Y-105004427D01*
X109350642Y-105002000D01*
X111985357Y-105002000D01*
X112010000Y-105004427D01*
X112034643Y-105002000D01*
X112034653Y-105002000D01*
X112108409Y-104994736D01*
X112203036Y-104966031D01*
X112290245Y-104919417D01*
X112366684Y-104856684D01*
X112379556Y-104841000D01*
X112522528Y-104841000D01*
X112672643Y-104811141D01*
X112814048Y-104752569D01*
X112941309Y-104667536D01*
X113049536Y-104559309D01*
X113134569Y-104432048D01*
X113193141Y-104290643D01*
X113223000Y-104140528D01*
X113223000Y-103987472D01*
X113193141Y-103837357D01*
X113134569Y-103695952D01*
X113049536Y-103568691D01*
X112941309Y-103460464D01*
X112814048Y-103375431D01*
X112672643Y-103316859D01*
X112522528Y-103287000D01*
X112369472Y-103287000D01*
X112219357Y-103316859D01*
X112077952Y-103375431D01*
X111950691Y-103460464D01*
X111913061Y-103498094D01*
X111908141Y-103473357D01*
X111849569Y-103331952D01*
X111764536Y-103204691D01*
X111663000Y-103103155D01*
X111663000Y-102167991D01*
X112505540Y-101325452D01*
X114585518Y-101325452D01*
X115225000Y-101964935D01*
X115225000Y-102108528D01*
X115254859Y-102258643D01*
X115313431Y-102400048D01*
X115398464Y-102527309D01*
X115506691Y-102635536D01*
X115633952Y-102720569D01*
X115775357Y-102779141D01*
X115925472Y-102809000D01*
X116078528Y-102809000D01*
X116228643Y-102779141D01*
X116370048Y-102720569D01*
X116497309Y-102635536D01*
X116605536Y-102527309D01*
X116690569Y-102400048D01*
X116749141Y-102258643D01*
X116770001Y-102153772D01*
X116770001Y-102782986D01*
X116767573Y-102807639D01*
X116777265Y-102906048D01*
X116805970Y-103000675D01*
X116852584Y-103087884D01*
X116899601Y-103145174D01*
X116899604Y-103145177D01*
X116915317Y-103164323D01*
X116934463Y-103180036D01*
X117841968Y-104087543D01*
X117857677Y-104106684D01*
X117876817Y-104122392D01*
X117876825Y-104122400D01*
X117934115Y-104169417D01*
X117979238Y-104193535D01*
X118021325Y-104216031D01*
X118115952Y-104244736D01*
X118189708Y-104252000D01*
X118189718Y-104252000D01*
X118214361Y-104254427D01*
X118239004Y-104252000D01*
X124575357Y-104252000D01*
X124600000Y-104254427D01*
X124624643Y-104252000D01*
X124624653Y-104252000D01*
X124698409Y-104244736D01*
X124793036Y-104216031D01*
X124880245Y-104169417D01*
X124956684Y-104106684D01*
X124972401Y-104087533D01*
X127137543Y-101922393D01*
X127156684Y-101906684D01*
X127172392Y-101887544D01*
X127172400Y-101887536D01*
X127219416Y-101830246D01*
X127219417Y-101830245D01*
X127266031Y-101743036D01*
X127294736Y-101648409D01*
X127302000Y-101574653D01*
X127302000Y-101574643D01*
X127304427Y-101550000D01*
X127302000Y-101525357D01*
X127302000Y-101221845D01*
X127403536Y-101120309D01*
X127488569Y-100993048D01*
X127547141Y-100851643D01*
X127577000Y-100701528D01*
X127577000Y-100548472D01*
X127547866Y-100402000D01*
X138862000Y-100402000D01*
X138862000Y-108598000D01*
G37*
X138862000Y-108598000D02*
X136237936Y-108598000D01*
X136977038Y-107858899D01*
X136996184Y-107843186D01*
X137012120Y-107823769D01*
X137058916Y-107766748D01*
X137058917Y-107766747D01*
X137105531Y-107679538D01*
X137134236Y-107584911D01*
X137141500Y-107511155D01*
X137141500Y-107511146D01*
X137143927Y-107486503D01*
X137141500Y-107461860D01*
X137141500Y-106755645D01*
X137143927Y-106731000D01*
X137141500Y-106706354D01*
X137141500Y-106706347D01*
X137134236Y-106632591D01*
X137134236Y-106632590D01*
X137105531Y-106537963D01*
X137058917Y-106450754D01*
X137011900Y-106393464D01*
X137011892Y-106393456D01*
X136996184Y-106374316D01*
X136977043Y-106358607D01*
X136781500Y-106163065D01*
X136781500Y-106019472D01*
X136751641Y-105869357D01*
X136693069Y-105727952D01*
X136608036Y-105600691D01*
X136499809Y-105492464D01*
X136372548Y-105407431D01*
X136231143Y-105348859D01*
X136081028Y-105319000D01*
X135971405Y-105319000D01*
X137588435Y-103701970D01*
X137732028Y-103701970D01*
X137882143Y-103672111D01*
X138023548Y-103613539D01*
X138150809Y-103528506D01*
X138259036Y-103420279D01*
X138344069Y-103293018D01*
X138402641Y-103151613D01*
X138432500Y-103001498D01*
X138432500Y-102848442D01*
X138402641Y-102698327D01*
X138344069Y-102556922D01*
X138259036Y-102429661D01*
X138150809Y-102321434D01*
X138023548Y-102236401D01*
X137882143Y-102177829D01*
X137732028Y-102147970D01*
X137578972Y-102147970D01*
X137428857Y-102177829D01*
X137287452Y-102236401D01*
X137160191Y-102321434D01*
X137051964Y-102429661D01*
X137042568Y-102443723D01*
X136945309Y-102346464D01*
X136818048Y-102261431D01*
X136676643Y-102202859D01*
X136526528Y-102173000D01*
X136373472Y-102173000D01*
X136223357Y-102202859D01*
X136081952Y-102261431D01*
X135954691Y-102346464D01*
X135846464Y-102454691D01*
X135761431Y-102581952D01*
X135702859Y-102723357D01*
X135673000Y-102873472D01*
X135673000Y-103026528D01*
X135702859Y-103176643D01*
X135761431Y-103318048D01*
X135771479Y-103333086D01*
X133193066Y-105911500D01*
X126187345Y-105911500D01*
X126228536Y-105870309D01*
X126313569Y-105743048D01*
X126372141Y-105601643D01*
X126402000Y-105451528D01*
X126402000Y-105298472D01*
X126372141Y-105148357D01*
X126313569Y-105006952D01*
X126228536Y-104879691D01*
X126120309Y-104771464D01*
X125993048Y-104686431D01*
X125851643Y-104627859D01*
X125701528Y-104598000D01*
X125548472Y-104598000D01*
X125398357Y-104627859D01*
X125256952Y-104686431D01*
X125129691Y-104771464D01*
X125028155Y-104873000D01*
X124826639Y-104873000D01*
X124801996Y-104870573D01*
X124777353Y-104873000D01*
X124777343Y-104873000D01*
X124703587Y-104880264D01*
X124608960Y-104908969D01*
X124521751Y-104955583D01*
X124521749Y-104955584D01*
X124521750Y-104955584D01*
X124465193Y-105002000D01*
X124445312Y-105018316D01*
X124429599Y-105037462D01*
X121841062Y-107626000D01*
X117492677Y-107626000D01*
X117583043Y-107588569D01*
X117710304Y-107503536D01*
X117818531Y-107395309D01*
X117903564Y-107268048D01*
X117962136Y-107126643D01*
X117991995Y-106976528D01*
X117991995Y-106823472D01*
X117962136Y-106673357D01*
X117903564Y-106531952D01*
X117818531Y-106404691D01*
X117710304Y-106296464D01*
X117583043Y-106211431D01*
X117441638Y-106152859D01*
X117291523Y-106123000D01*
X117138467Y-106123000D01*
X116988352Y-106152859D01*
X116846947Y-106211431D01*
X116719686Y-106296464D01*
X116618150Y-106398000D01*
X107718668Y-106398000D01*
X107709803Y-106387197D01*
X107690557Y-106371403D01*
X107668601Y-106359667D01*
X107644776Y-106352440D01*
X107620000Y-106350000D01*
X103937000Y-106350000D01*
X103912224Y-106352440D01*
X103888399Y-106359667D01*
X103866443Y-106371403D01*
X103847197Y-106387197D01*
X103838332Y-106398000D01*
X102124642Y-106398000D01*
X102099999Y-106395573D01*
X102075356Y-106398000D01*
X102075347Y-106398000D01*
X102001591Y-106405264D01*
X101906964Y-106433969D01*
X101819755Y-106480583D01*
X101743316Y-106543316D01*
X101727603Y-106562462D01*
X101368889Y-106921176D01*
X101287296Y-106921176D01*
X101325889Y-102527000D01*
X101956676Y-102527000D01*
X101956676Y-103117000D01*
X101963955Y-103190905D01*
X101985512Y-103261970D01*
X102020519Y-103327463D01*
X102067631Y-103384869D01*
X102125037Y-103431981D01*
X102190530Y-103466988D01*
X102261595Y-103488545D01*
X102335500Y-103495824D01*
X102644331Y-103495824D01*
X102634964Y-103505191D01*
X102549931Y-103632452D01*
X102491359Y-103773857D01*
X102461500Y-103923972D01*
X102461500Y-104077028D01*
X102491359Y-104227143D01*
X102549931Y-104368548D01*
X102634964Y-104495809D01*
X102743191Y-104604036D01*
X102870452Y-104689069D01*
X103011857Y-104747641D01*
X103161972Y-104777500D01*
X103315028Y-104777500D01*
X103465143Y-104747641D01*
X103606548Y-104689069D01*
X103733809Y-104604036D01*
X103842036Y-104495809D01*
X103927069Y-104368548D01*
X103985641Y-104227143D01*
X104015500Y-104077028D01*
X104015500Y-103923972D01*
X103985641Y-103773857D01*
X103948193Y-103683450D01*
X103991320Y-103706502D01*
X104111018Y-103742812D01*
X104235500Y-103755072D01*
X104349750Y-103752000D01*
X104508500Y-103593250D01*
X104508500Y-102794000D01*
X104762500Y-102794000D01*
X104762500Y-103593250D01*
X104921250Y-103752000D01*
X105035500Y-103755072D01*
X105159982Y-103742812D01*
X105279680Y-103706502D01*
X105389994Y-103647537D01*
X105486685Y-103568185D01*
X105566037Y-103471494D01*
X105625002Y-103361180D01*
X105661312Y-103241482D01*
X105673572Y-103117000D01*
X105670500Y-102952750D01*
X105511750Y-102794000D01*
X104762500Y-102794000D01*
X104508500Y-102794000D01*
X103759250Y-102794000D01*
X103659860Y-102893390D01*
X103657917Y-102889755D01*
X103624012Y-102848442D01*
X103610899Y-102832464D01*
X103610897Y-102832462D01*
X103595184Y-102813316D01*
X103576038Y-102797603D01*
X103514324Y-102735889D01*
X103514324Y-102527000D01*
X103746250Y-102527000D01*
X103759250Y-102540000D01*
X107594565Y-102540000D01*
X108261001Y-103206437D01*
X108261001Y-103340154D01*
X108159464Y-103441691D01*
X108074431Y-103568952D01*
X108015859Y-103710357D01*
X107986000Y-103860472D01*
X107986000Y-104013528D01*
X108015859Y-104163643D01*
X108074431Y-104305048D01*
X108159464Y-104432309D01*
X108267691Y-104540536D01*
X108394952Y-104625569D01*
X108536357Y-104684141D01*
X108686472Y-104714000D01*
X108830065Y-104714000D01*
X108953603Y-104837538D01*
X108969316Y-104856684D01*
X108988462Y-104872397D01*
X108988464Y-104872399D01*
X108998049Y-104880265D01*
X109045755Y-104919417D01*
X109132964Y-104966031D01*
X109227591Y-104994736D01*
X109301347Y-105002000D01*
X109301356Y-105002000D01*
X109325999Y-105004427D01*
X109350642Y-105002000D01*
X111985357Y-105002000D01*
X112010000Y-105004427D01*
X112034643Y-105002000D01*
X112034653Y-105002000D01*
X112108409Y-104994736D01*
X112203036Y-104966031D01*
X112290245Y-104919417D01*
X112366684Y-104856684D01*
X112379556Y-104841000D01*
X112522528Y-104841000D01*
X112672643Y-104811141D01*
X112814048Y-104752569D01*
X112941309Y-104667536D01*
X113049536Y-104559309D01*
X113134569Y-104432048D01*
X113193141Y-104290643D01*
X113223000Y-104140528D01*
X113223000Y-103987472D01*
X113193141Y-103837357D01*
X113134569Y-103695952D01*
X113049536Y-103568691D01*
X112941309Y-103460464D01*
X112814048Y-103375431D01*
X112672643Y-103316859D01*
X112522528Y-103287000D01*
X112369472Y-103287000D01*
X112219357Y-103316859D01*
X112077952Y-103375431D01*
X111950691Y-103460464D01*
X111913061Y-103498094D01*
X111908141Y-103473357D01*
X111849569Y-103331952D01*
X111764536Y-103204691D01*
X111663000Y-103103155D01*
X111663000Y-102167991D01*
X112505540Y-101325452D01*
X114585518Y-101325452D01*
X115225000Y-101964935D01*
X115225000Y-102108528D01*
X115254859Y-102258643D01*
X115313431Y-102400048D01*
X115398464Y-102527309D01*
X115506691Y-102635536D01*
X115633952Y-102720569D01*
X115775357Y-102779141D01*
X115925472Y-102809000D01*
X116078528Y-102809000D01*
X116228643Y-102779141D01*
X116370048Y-102720569D01*
X116497309Y-102635536D01*
X116605536Y-102527309D01*
X116690569Y-102400048D01*
X116749141Y-102258643D01*
X116770001Y-102153772D01*
X116770001Y-102782986D01*
X116767573Y-102807639D01*
X116777265Y-102906048D01*
X116805970Y-103000675D01*
X116852584Y-103087884D01*
X116899601Y-103145174D01*
X116899604Y-103145177D01*
X116915317Y-103164323D01*
X116934463Y-103180036D01*
X117841968Y-104087543D01*
X117857677Y-104106684D01*
X117876817Y-104122392D01*
X117876825Y-104122400D01*
X117934115Y-104169417D01*
X117979238Y-104193535D01*
X118021325Y-104216031D01*
X118115952Y-104244736D01*
X118189708Y-104252000D01*
X118189718Y-104252000D01*
X118214361Y-104254427D01*
X118239004Y-104252000D01*
X124575357Y-104252000D01*
X124600000Y-104254427D01*
X124624643Y-104252000D01*
X124624653Y-104252000D01*
X124698409Y-104244736D01*
X124793036Y-104216031D01*
X124880245Y-104169417D01*
X124956684Y-104106684D01*
X124972401Y-104087533D01*
X127137543Y-101922393D01*
X127156684Y-101906684D01*
X127172392Y-101887544D01*
X127172400Y-101887536D01*
X127219416Y-101830246D01*
X127219417Y-101830245D01*
X127266031Y-101743036D01*
X127294736Y-101648409D01*
X127302000Y-101574653D01*
X127302000Y-101574643D01*
X127304427Y-101550000D01*
X127302000Y-101525357D01*
X127302000Y-101221845D01*
X127403536Y-101120309D01*
X127488569Y-100993048D01*
X127547141Y-100851643D01*
X127577000Y-100701528D01*
X127577000Y-100548472D01*
X127547866Y-100402000D01*
X138862000Y-100402000D01*
X138862000Y-108598000D01*
M02*
