G04 #@! TF.GenerationSoftware,KiCad,Pcbnew,5.1.5-52549c5~84~ubuntu18.04.1*
G04 #@! TF.CreationDate,2020-01-24T16:10:10+01:00*
G04 #@! TF.ProjectId,double-oh,646f7562-6c65-42d6-9f68-2e6b69636164,rev?*
G04 #@! TF.SameCoordinates,Original*
G04 #@! TF.FileFunction,Legend,Top*
G04 #@! TF.FilePolarity,Positive*
%FSLAX46Y46*%
G04 Gerber Fmt 4.6, Leading zero omitted, Abs format (unit mm)*
G04 Created by KiCad (PCBNEW 5.1.5-52549c5~84~ubuntu18.04.1) date 2020-01-24 16:10:10*
%MOMM*%
%LPD*%
G04 APERTURE LIST*
%ADD10C,0.200000*%
%ADD11C,0.120000*%
%ADD12C,0.100000*%
G04 APERTURE END LIST*
D10*
X123250000Y-103700000D02*
G75*
G03X123250000Y-103700000I-100000J0D01*
G01*
X127600000Y-107600000D02*
G75*
G03X127600000Y-107600000I-100000J0D01*
G01*
D11*
X112971000Y-104490000D02*
X112971000Y-103080000D01*
X110651000Y-103080000D02*
X110651000Y-105110000D01*
X110651000Y-103080000D02*
X111311000Y-103080000D01*
X112311000Y-103080000D02*
X112971000Y-103080000D01*
D12*
X113205000Y-105842000D02*
G75*
G03X113205000Y-105842000I-50000J0D01*
G01*
D11*
X104878000Y-106853422D02*
X104878000Y-107370578D01*
X106298000Y-106853422D02*
X106298000Y-107370578D01*
X106985000Y-102290000D02*
X108485000Y-102290000D01*
X105485000Y-105510000D02*
X108485000Y-105510000D01*
X100300000Y-102200000D02*
X102850000Y-102200000D01*
X100300000Y-103900000D02*
X102850000Y-103900000D01*
X100300000Y-102200000D02*
X100300000Y-103900000D01*
X113950000Y-103610000D02*
X115750000Y-103610000D01*
X115750000Y-100390000D02*
X113300000Y-100390000D01*
X140110000Y-106387221D02*
X140110000Y-106712779D01*
X139090000Y-106387221D02*
X139090000Y-106712779D01*
X127890000Y-107335000D02*
X127890000Y-107810000D01*
X135110000Y-100590000D02*
X134635000Y-100590000D01*
X135110000Y-101065000D02*
X135110000Y-100590000D01*
X135110000Y-107810000D02*
X134635000Y-107810000D01*
X135110000Y-107335000D02*
X135110000Y-107810000D01*
X127890000Y-100590000D02*
X128365000Y-100590000D01*
X127890000Y-101065000D02*
X127890000Y-100590000D01*
X123460000Y-104365000D02*
X123460000Y-103890000D01*
X119240000Y-108110000D02*
X119715000Y-108110000D01*
X119240000Y-107635000D02*
X119240000Y-108110000D01*
X119240000Y-103890000D02*
X119715000Y-103890000D01*
X119240000Y-104365000D02*
X119240000Y-103890000D01*
X123460000Y-108110000D02*
X122985000Y-108110000D01*
X123460000Y-107635000D02*
X123460000Y-108110000D01*
X100990000Y-104070000D02*
X102450000Y-104070000D01*
X100990000Y-107230000D02*
X103150000Y-107230000D01*
X100990000Y-107230000D02*
X100990000Y-106300000D01*
X100990000Y-104070000D02*
X100990000Y-105000000D01*
X107234422Y-101910000D02*
X107751578Y-101910000D01*
X107234422Y-100490000D02*
X107751578Y-100490000D01*
X138260000Y-103600000D02*
X138260000Y-101700000D01*
X135940000Y-102200000D02*
X135940000Y-103600000D01*
D12*
X112699000Y-107700000D02*
G75*
G03X112699000Y-107700000I-50000J0D01*
G01*
M02*
