M48
; DRILL file {KiCad 5.1.5-52549c5~84~ubuntu18.04.1} date Fr 24 Jan 2020 16:10:12 CET
; FORMAT={-:-/ absolute / inch / decimal}
; #@! TF.CreationDate,2020-01-24T16:10:12+01:00
; #@! TF.GenerationSoftware,Kicad,Pcbnew,5.1.5-52549c5~84~ubuntu18.04.1
FMAT,2
INCH
T1C0.0157
%
G90
G05
T1
X4.0512Y-4.2402
X4.092Y-4.202
X4.107Y-3.9894
X4.107Y-4.092
X4.1079Y-4.0465
X4.1828Y-3.9616
X4.252Y-4.247
X4.297Y-4.177
X4.3144Y-4.1096
X4.332Y-4.0516
X4.3695Y-3.997
X4.387Y-4.257
X4.3917Y-4.1106
X4.432Y-4.017
X4.5041Y-4.167
X4.54Y-4.1184
X4.567Y-4.017
X4.6156Y-4.1634
X4.617Y-3.972
X4.653Y-4.1191
X4.6929Y-4.0906
X4.7776Y-4.1732
X4.8996Y-4.1526
X4.9348Y-4.1238
X4.967Y-4.2031
X4.992Y-4.2385
X4.9921Y-3.9616
X5.1299Y-4.0591
X5.1299Y-4.1024
X5.1772Y-4.0591
X5.1772Y-4.1024
X5.2244Y-4.0591
X5.2244Y-4.1024
X5.3527Y-4.1699
X5.3563Y-4.2245
X5.372Y-4.0531
X5.4311Y-4.0512
X5.4508Y-4.1535
X5.4724Y-4.0197
X5.7283Y-4.2559
X5.7283Y-3.9724
X3.9567Y-3.9724
X3.9567Y-4.2559
T0
M30
