M48
; DRILL file {KiCad (5.1.5)-3} date 1/7/2020 8:57:32 PM
; FORMAT={-:-/ absolute / metric / decimal}
; #@! TF.CreationDate,2020-01-07T20:57:32+01:00
; #@! TF.GenerationSoftware,Kicad,Pcbnew,(5.1.5)-3
FMAT,2
METRIC
T1C0.400
%
G90
G05
T1
X100.8Y-105.1
X102.75Y-101.3
X102.8Y-105.4
X104.0Y-107.2
X104.7Y-104.5
X106.57Y-107.88
X107.1Y-101.425
X108.35Y-106.125
X108.45Y-107.65
X109.125Y-102.4
X110.45Y-107.1
X110.5Y-104.4
X111.6Y-101.05
X112.65Y-106.35
X113.75Y-102.0
X114.493Y-103.938
X115.963Y-103.287
X116.069Y-101.975
X117.216Y-105.0
X118.498Y-104.685
X119.2Y-103.9
X121.35Y-106.0
X124.45Y-105.25
X125.725Y-106.825
X126.79Y-101.075
X127.05Y-103.65
X127.803Y-101.1
X129.075Y-101.075
X129.725Y-107.85
X131.728Y-104.601
X131.895Y-106.52
X132.51Y-100.63
X132.525Y-107.85
X132.825Y-105.326
X133.574Y-106.525
X136.25Y-106.6
X136.55Y-101.15
X137.45Y-106.45
X137.65Y-105.45
X138.225Y-102.3
X139.1Y-107.3
X139.55Y-102.35
X139.65Y-104.6
X141.125Y-101.55
X100.5Y-100.9
X100.5Y-108.1
X145.5Y-108.1
T0
M30
