G04 #@! TF.GenerationSoftware,KiCad,Pcbnew,(5.1.6)-1*
G04 #@! TF.CreationDate,2020-09-29T15:04:04+02:00*
G04 #@! TF.ProjectId,double-oh,646f7562-6c65-42d6-9f68-2e6b69636164,rev?*
G04 #@! TF.SameCoordinates,Original*
G04 #@! TF.FileFunction,Legend,Bot*
G04 #@! TF.FilePolarity,Positive*
%FSLAX46Y46*%
G04 Gerber Fmt 4.6, Leading zero omitted, Abs format (unit mm)*
G04 Created by KiCad (PCBNEW (5.1.6)-1) date 2020-09-29 15:04:04*
%MOMM*%
%LPD*%
G01*
G04 APERTURE LIST*
%ADD10C,0.150000*%
%ADD11C,0.010000*%
%ADD12C,0.120000*%
G04 APERTURE END LIST*
D10*
X122801666Y-108361904D02*
X122801666Y-107561904D01*
X122611190Y-107561904D01*
X122496904Y-107600000D01*
X122420714Y-107676190D01*
X122382619Y-107752380D01*
X122344523Y-107904761D01*
X122344523Y-108019047D01*
X122382619Y-108171428D01*
X122420714Y-108247619D01*
X122496904Y-108323809D01*
X122611190Y-108361904D01*
X122801666Y-108361904D01*
X121887380Y-108361904D02*
X121963571Y-108323809D01*
X122001666Y-108285714D01*
X122039761Y-108209523D01*
X122039761Y-107980952D01*
X122001666Y-107904761D01*
X121963571Y-107866666D01*
X121887380Y-107828571D01*
X121773095Y-107828571D01*
X121696904Y-107866666D01*
X121658809Y-107904761D01*
X121620714Y-107980952D01*
X121620714Y-108209523D01*
X121658809Y-108285714D01*
X121696904Y-108323809D01*
X121773095Y-108361904D01*
X121887380Y-108361904D01*
X120935000Y-107828571D02*
X120935000Y-108361904D01*
X121277857Y-107828571D02*
X121277857Y-108247619D01*
X121239761Y-108323809D01*
X121163571Y-108361904D01*
X121049285Y-108361904D01*
X120973095Y-108323809D01*
X120935000Y-108285714D01*
X120554047Y-108361904D02*
X120554047Y-107561904D01*
X120554047Y-107866666D02*
X120477857Y-107828571D01*
X120325476Y-107828571D01*
X120249285Y-107866666D01*
X120211190Y-107904761D01*
X120173095Y-107980952D01*
X120173095Y-108209523D01*
X120211190Y-108285714D01*
X120249285Y-108323809D01*
X120325476Y-108361904D01*
X120477857Y-108361904D01*
X120554047Y-108323809D01*
X119715952Y-108361904D02*
X119792142Y-108323809D01*
X119830238Y-108247619D01*
X119830238Y-107561904D01*
X119106428Y-108323809D02*
X119182619Y-108361904D01*
X119335000Y-108361904D01*
X119411190Y-108323809D01*
X119449285Y-108247619D01*
X119449285Y-107942857D01*
X119411190Y-107866666D01*
X119335000Y-107828571D01*
X119182619Y-107828571D01*
X119106428Y-107866666D01*
X119068333Y-107942857D01*
X119068333Y-108019047D01*
X119449285Y-108095238D01*
X118725476Y-108057142D02*
X118115952Y-108057142D01*
X117582619Y-107561904D02*
X117430238Y-107561904D01*
X117354047Y-107600000D01*
X117277857Y-107676190D01*
X117239761Y-107828571D01*
X117239761Y-108095238D01*
X117277857Y-108247619D01*
X117354047Y-108323809D01*
X117430238Y-108361904D01*
X117582619Y-108361904D01*
X117658809Y-108323809D01*
X117735000Y-108247619D01*
X117773095Y-108095238D01*
X117773095Y-107828571D01*
X117735000Y-107676190D01*
X117658809Y-107600000D01*
X117582619Y-107561904D01*
X116896904Y-108361904D02*
X116896904Y-107561904D01*
X116554047Y-108361904D02*
X116554047Y-107942857D01*
X116592142Y-107866666D01*
X116668333Y-107828571D01*
X116782619Y-107828571D01*
X116858809Y-107866666D01*
X116896904Y-107904761D01*
X115639761Y-107828571D02*
X115449285Y-108361904D01*
X115258809Y-107828571D01*
X114992142Y-107638095D02*
X114954047Y-107600000D01*
X114877857Y-107561904D01*
X114687380Y-107561904D01*
X114611190Y-107600000D01*
X114573095Y-107638095D01*
X114535000Y-107714285D01*
X114535000Y-107790476D01*
X114573095Y-107904761D01*
X115030238Y-108361904D01*
X114535000Y-108361904D01*
X114192142Y-108285714D02*
X114154047Y-108323809D01*
X114192142Y-108361904D01*
X114230238Y-108323809D01*
X114192142Y-108285714D01*
X114192142Y-108361904D01*
X113887380Y-107561904D02*
X113354047Y-107561904D01*
X113696904Y-108361904D01*
X111868333Y-107523809D02*
X112554047Y-108552380D01*
X111030238Y-107523809D02*
X111715952Y-108552380D01*
X110192142Y-108323809D02*
X110077857Y-108361904D01*
X109887380Y-108361904D01*
X109811190Y-108323809D01*
X109773095Y-108285714D01*
X109735000Y-108209523D01*
X109735000Y-108133333D01*
X109773095Y-108057142D01*
X109811190Y-108019047D01*
X109887380Y-107980952D01*
X110039761Y-107942857D01*
X110115952Y-107904761D01*
X110154047Y-107866666D01*
X110192142Y-107790476D01*
X110192142Y-107714285D01*
X110154047Y-107638095D01*
X110115952Y-107600000D01*
X110039761Y-107561904D01*
X109849285Y-107561904D01*
X109735000Y-107600000D01*
X109087380Y-108323809D02*
X109163571Y-108361904D01*
X109315952Y-108361904D01*
X109392142Y-108323809D01*
X109430238Y-108247619D01*
X109430238Y-107942857D01*
X109392142Y-107866666D01*
X109315952Y-107828571D01*
X109163571Y-107828571D01*
X109087380Y-107866666D01*
X109049285Y-107942857D01*
X109049285Y-108019047D01*
X109430238Y-108095238D01*
X108706428Y-107828571D02*
X108706428Y-108628571D01*
X108706428Y-107866666D02*
X108630238Y-107828571D01*
X108477857Y-107828571D01*
X108401666Y-107866666D01*
X108363571Y-107904761D01*
X108325476Y-107980952D01*
X108325476Y-108209523D01*
X108363571Y-108285714D01*
X108401666Y-108323809D01*
X108477857Y-108361904D01*
X108630238Y-108361904D01*
X108706428Y-108323809D01*
X108096904Y-107828571D02*
X107792142Y-107828571D01*
X107982619Y-107561904D02*
X107982619Y-108247619D01*
X107944523Y-108323809D01*
X107868333Y-108361904D01*
X107792142Y-108361904D01*
X107525476Y-108285714D02*
X107487380Y-108323809D01*
X107525476Y-108361904D01*
X107563571Y-108323809D01*
X107525476Y-108285714D01*
X107525476Y-108361904D01*
X106573095Y-107638095D02*
X106535000Y-107600000D01*
X106458809Y-107561904D01*
X106268333Y-107561904D01*
X106192142Y-107600000D01*
X106154047Y-107638095D01*
X106115952Y-107714285D01*
X106115952Y-107790476D01*
X106154047Y-107904761D01*
X106611190Y-108361904D01*
X106115952Y-108361904D01*
X105620714Y-107561904D02*
X105544523Y-107561904D01*
X105468333Y-107600000D01*
X105430238Y-107638095D01*
X105392142Y-107714285D01*
X105354047Y-107866666D01*
X105354047Y-108057142D01*
X105392142Y-108209523D01*
X105430238Y-108285714D01*
X105468333Y-108323809D01*
X105544523Y-108361904D01*
X105620714Y-108361904D01*
X105696904Y-108323809D01*
X105735000Y-108285714D01*
X105773095Y-108209523D01*
X105811190Y-108057142D01*
X105811190Y-107866666D01*
X105773095Y-107714285D01*
X105735000Y-107638095D01*
X105696904Y-107600000D01*
X105620714Y-107561904D01*
X105049285Y-107638095D02*
X105011190Y-107600000D01*
X104935000Y-107561904D01*
X104744523Y-107561904D01*
X104668333Y-107600000D01*
X104630238Y-107638095D01*
X104592142Y-107714285D01*
X104592142Y-107790476D01*
X104630238Y-107904761D01*
X105087380Y-108361904D01*
X104592142Y-108361904D01*
X104096904Y-107561904D02*
X104020714Y-107561904D01*
X103944523Y-107600000D01*
X103906428Y-107638095D01*
X103868333Y-107714285D01*
X103830238Y-107866666D01*
X103830238Y-108057142D01*
X103868333Y-108209523D01*
X103906428Y-108285714D01*
X103944523Y-108323809D01*
X104020714Y-108361904D01*
X104096904Y-108361904D01*
X104173095Y-108323809D01*
X104211190Y-108285714D01*
X104249285Y-108209523D01*
X104287380Y-108057142D01*
X104287380Y-107866666D01*
X104249285Y-107714285D01*
X104211190Y-107638095D01*
X104173095Y-107600000D01*
X104096904Y-107561904D01*
X143979142Y-101377904D02*
X143979142Y-100577904D01*
X143979142Y-100882666D02*
X143902952Y-100844571D01*
X143750571Y-100844571D01*
X143674380Y-100882666D01*
X143636285Y-100920761D01*
X143598190Y-100996952D01*
X143598190Y-101225523D01*
X143636285Y-101301714D01*
X143674380Y-101339809D01*
X143750571Y-101377904D01*
X143902952Y-101377904D01*
X143979142Y-101339809D01*
X143331523Y-100844571D02*
X143141047Y-101377904D01*
X142950571Y-100844571D02*
X143141047Y-101377904D01*
X143217238Y-101568380D01*
X143255333Y-101606476D01*
X143331523Y-101644571D01*
X142074380Y-101339809D02*
X141960095Y-101377904D01*
X141769619Y-101377904D01*
X141693428Y-101339809D01*
X141655333Y-101301714D01*
X141617238Y-101225523D01*
X141617238Y-101149333D01*
X141655333Y-101073142D01*
X141693428Y-101035047D01*
X141769619Y-100996952D01*
X141922000Y-100958857D01*
X141998190Y-100920761D01*
X142036285Y-100882666D01*
X142074380Y-100806476D01*
X142074380Y-100730285D01*
X142036285Y-100654095D01*
X141998190Y-100616000D01*
X141922000Y-100577904D01*
X141731523Y-100577904D01*
X141617238Y-100616000D01*
X141274380Y-100844571D02*
X141274380Y-101644571D01*
X141274380Y-100882666D02*
X141198190Y-100844571D01*
X141045809Y-100844571D01*
X140969619Y-100882666D01*
X140931523Y-100920761D01*
X140893428Y-100996952D01*
X140893428Y-101225523D01*
X140931523Y-101301714D01*
X140969619Y-101339809D01*
X141045809Y-101377904D01*
X141198190Y-101377904D01*
X141274380Y-101339809D01*
X140207714Y-101377904D02*
X140207714Y-100958857D01*
X140245809Y-100882666D01*
X140322000Y-100844571D01*
X140474380Y-100844571D01*
X140550571Y-100882666D01*
X140207714Y-101339809D02*
X140283904Y-101377904D01*
X140474380Y-101377904D01*
X140550571Y-101339809D01*
X140588666Y-101263619D01*
X140588666Y-101187428D01*
X140550571Y-101111238D01*
X140474380Y-101073142D01*
X140283904Y-101073142D01*
X140207714Y-101035047D01*
X139483904Y-101339809D02*
X139560095Y-101377904D01*
X139712476Y-101377904D01*
X139788666Y-101339809D01*
X139826761Y-101301714D01*
X139864857Y-101225523D01*
X139864857Y-100996952D01*
X139826761Y-100920761D01*
X139788666Y-100882666D01*
X139712476Y-100844571D01*
X139560095Y-100844571D01*
X139483904Y-100882666D01*
X138836285Y-101339809D02*
X138912476Y-101377904D01*
X139064857Y-101377904D01*
X139141047Y-101339809D01*
X139179142Y-101263619D01*
X139179142Y-100958857D01*
X139141047Y-100882666D01*
X139064857Y-100844571D01*
X138912476Y-100844571D01*
X138836285Y-100882666D01*
X138798190Y-100958857D01*
X138798190Y-101035047D01*
X139179142Y-101111238D01*
X137579142Y-100958857D02*
X137464857Y-100996952D01*
X137426761Y-101035047D01*
X137388666Y-101111238D01*
X137388666Y-101225523D01*
X137426761Y-101301714D01*
X137464857Y-101339809D01*
X137541047Y-101377904D01*
X137845809Y-101377904D01*
X137845809Y-100577904D01*
X137579142Y-100577904D01*
X137502952Y-100616000D01*
X137464857Y-100654095D01*
X137426761Y-100730285D01*
X137426761Y-100806476D01*
X137464857Y-100882666D01*
X137502952Y-100920761D01*
X137579142Y-100958857D01*
X137845809Y-100958857D01*
X136702952Y-100844571D02*
X136702952Y-101377904D01*
X137045809Y-100844571D02*
X137045809Y-101263619D01*
X137007714Y-101339809D01*
X136931523Y-101377904D01*
X136817238Y-101377904D01*
X136741047Y-101339809D01*
X136702952Y-101301714D01*
X135979142Y-101339809D02*
X136055333Y-101377904D01*
X136207714Y-101377904D01*
X136283904Y-101339809D01*
X136322000Y-101301714D01*
X136360095Y-101225523D01*
X136360095Y-100996952D01*
X136322000Y-100920761D01*
X136283904Y-100882666D01*
X136207714Y-100844571D01*
X136055333Y-100844571D01*
X135979142Y-100882666D01*
X135636285Y-101377904D02*
X135636285Y-100577904D01*
X135560095Y-101073142D02*
X135331523Y-101377904D01*
X135331523Y-100844571D02*
X135636285Y-101149333D01*
X134036285Y-101377904D02*
X134036285Y-100958857D01*
X134074380Y-100882666D01*
X134150571Y-100844571D01*
X134302952Y-100844571D01*
X134379142Y-100882666D01*
X134036285Y-101339809D02*
X134112476Y-101377904D01*
X134302952Y-101377904D01*
X134379142Y-101339809D01*
X134417238Y-101263619D01*
X134417238Y-101187428D01*
X134379142Y-101111238D01*
X134302952Y-101073142D01*
X134112476Y-101073142D01*
X134036285Y-101035047D01*
X133655333Y-100844571D02*
X133655333Y-101377904D01*
X133655333Y-100920761D02*
X133617238Y-100882666D01*
X133541047Y-100844571D01*
X133426761Y-100844571D01*
X133350571Y-100882666D01*
X133312476Y-100958857D01*
X133312476Y-101377904D01*
X132588666Y-101377904D02*
X132588666Y-100577904D01*
X132588666Y-101339809D02*
X132664857Y-101377904D01*
X132817238Y-101377904D01*
X132893428Y-101339809D01*
X132931523Y-101301714D01*
X132969619Y-101225523D01*
X132969619Y-100996952D01*
X132931523Y-100920761D01*
X132893428Y-100882666D01*
X132817238Y-100844571D01*
X132664857Y-100844571D01*
X132588666Y-100882666D01*
X131636285Y-101339809D02*
X131522000Y-101377904D01*
X131331523Y-101377904D01*
X131255333Y-101339809D01*
X131217238Y-101301714D01*
X131179142Y-101225523D01*
X131179142Y-101149333D01*
X131217238Y-101073142D01*
X131255333Y-101035047D01*
X131331523Y-100996952D01*
X131483904Y-100958857D01*
X131560095Y-100920761D01*
X131598190Y-100882666D01*
X131636285Y-100806476D01*
X131636285Y-100730285D01*
X131598190Y-100654095D01*
X131560095Y-100616000D01*
X131483904Y-100577904D01*
X131293428Y-100577904D01*
X131179142Y-100616000D01*
X130836285Y-100844571D02*
X130836285Y-101644571D01*
X130836285Y-100882666D02*
X130760095Y-100844571D01*
X130607714Y-100844571D01*
X130531523Y-100882666D01*
X130493428Y-100920761D01*
X130455333Y-100996952D01*
X130455333Y-101225523D01*
X130493428Y-101301714D01*
X130531523Y-101339809D01*
X130607714Y-101377904D01*
X130760095Y-101377904D01*
X130836285Y-101339809D01*
X129769619Y-101377904D02*
X129769619Y-100958857D01*
X129807714Y-100882666D01*
X129883904Y-100844571D01*
X130036285Y-100844571D01*
X130112476Y-100882666D01*
X129769619Y-101339809D02*
X129845809Y-101377904D01*
X130036285Y-101377904D01*
X130112476Y-101339809D01*
X130150571Y-101263619D01*
X130150571Y-101187428D01*
X130112476Y-101111238D01*
X130036285Y-101073142D01*
X129845809Y-101073142D01*
X129769619Y-101035047D01*
X129502952Y-100844571D02*
X129198190Y-100844571D01*
X129388666Y-100577904D02*
X129388666Y-101263619D01*
X129350571Y-101339809D01*
X129274380Y-101377904D01*
X129198190Y-101377904D01*
X129007714Y-100844571D02*
X128588666Y-100844571D01*
X129007714Y-101377904D01*
X128588666Y-101377904D01*
X143585904Y-103917952D02*
X143624000Y-103879857D01*
X143700190Y-103841761D01*
X143776380Y-103841761D01*
X143852571Y-103879857D01*
X143890666Y-103917952D01*
X143928761Y-103994142D01*
X143928761Y-104070333D01*
X143890666Y-104146523D01*
X143852571Y-104184619D01*
X143776380Y-104222714D01*
X143700190Y-104222714D01*
X143624000Y-104184619D01*
X143585904Y-104146523D01*
X143585904Y-103841761D02*
X143585904Y-104146523D01*
X143547809Y-104184619D01*
X143509714Y-104184619D01*
X143433523Y-104146523D01*
X143395428Y-104070333D01*
X143395428Y-103879857D01*
X143471619Y-103765571D01*
X143585904Y-103689380D01*
X143738285Y-103651285D01*
X143890666Y-103689380D01*
X144004952Y-103765571D01*
X144081142Y-103879857D01*
X144119238Y-104032238D01*
X144081142Y-104184619D01*
X144004952Y-104298904D01*
X143890666Y-104375095D01*
X143738285Y-104413190D01*
X143585904Y-104375095D01*
X143471619Y-104298904D01*
X143052571Y-104298904D02*
X143052571Y-103498904D01*
X142709714Y-104298904D02*
X142709714Y-103879857D01*
X142747809Y-103803666D01*
X142824000Y-103765571D01*
X142938285Y-103765571D01*
X143014476Y-103803666D01*
X143052571Y-103841761D01*
X142024000Y-104260809D02*
X142100190Y-104298904D01*
X142252571Y-104298904D01*
X142328761Y-104260809D01*
X142366857Y-104184619D01*
X142366857Y-103879857D01*
X142328761Y-103803666D01*
X142252571Y-103765571D01*
X142100190Y-103765571D01*
X142024000Y-103803666D01*
X141985904Y-103879857D01*
X141985904Y-103956047D01*
X142366857Y-104032238D01*
X141719238Y-103765571D02*
X141528761Y-104298904D01*
X141338285Y-103765571D02*
X141528761Y-104298904D01*
X141604952Y-104489380D01*
X141643047Y-104527476D01*
X141719238Y-104565571D01*
X141071619Y-104260809D02*
X140995428Y-104298904D01*
X140843047Y-104298904D01*
X140766857Y-104260809D01*
X140728761Y-104184619D01*
X140728761Y-104146523D01*
X140766857Y-104070333D01*
X140843047Y-104032238D01*
X140957333Y-104032238D01*
X141033523Y-103994142D01*
X141071619Y-103917952D01*
X141071619Y-103879857D01*
X141033523Y-103803666D01*
X140957333Y-103765571D01*
X140843047Y-103765571D01*
X140766857Y-103803666D01*
X140385904Y-103765571D02*
X140385904Y-104565571D01*
X140385904Y-103803666D02*
X140309714Y-103765571D01*
X140157333Y-103765571D01*
X140081142Y-103803666D01*
X140043047Y-103841761D01*
X140004952Y-103917952D01*
X140004952Y-104146523D01*
X140043047Y-104222714D01*
X140081142Y-104260809D01*
X140157333Y-104298904D01*
X140309714Y-104298904D01*
X140385904Y-104260809D01*
X139319238Y-104298904D02*
X139319238Y-103879857D01*
X139357333Y-103803666D01*
X139433523Y-103765571D01*
X139585904Y-103765571D01*
X139662095Y-103803666D01*
X139319238Y-104260809D02*
X139395428Y-104298904D01*
X139585904Y-104298904D01*
X139662095Y-104260809D01*
X139700190Y-104184619D01*
X139700190Y-104108428D01*
X139662095Y-104032238D01*
X139585904Y-103994142D01*
X139395428Y-103994142D01*
X139319238Y-103956047D01*
X138595428Y-104260809D02*
X138671619Y-104298904D01*
X138824000Y-104298904D01*
X138900190Y-104260809D01*
X138938285Y-104222714D01*
X138976380Y-104146523D01*
X138976380Y-103917952D01*
X138938285Y-103841761D01*
X138900190Y-103803666D01*
X138824000Y-103765571D01*
X138671619Y-103765571D01*
X138595428Y-103803666D01*
X137947809Y-104260809D02*
X138024000Y-104298904D01*
X138176380Y-104298904D01*
X138252571Y-104260809D01*
X138290666Y-104184619D01*
X138290666Y-103879857D01*
X138252571Y-103803666D01*
X138176380Y-103765571D01*
X138024000Y-103765571D01*
X137947809Y-103803666D01*
X137909714Y-103879857D01*
X137909714Y-103956047D01*
X138290666Y-104032238D01*
X137566857Y-104298904D02*
X137566857Y-103498904D01*
X137566857Y-103803666D02*
X137490666Y-103765571D01*
X137338285Y-103765571D01*
X137262095Y-103803666D01*
X137224000Y-103841761D01*
X137185904Y-103917952D01*
X137185904Y-104146523D01*
X137224000Y-104222714D01*
X137262095Y-104260809D01*
X137338285Y-104298904D01*
X137490666Y-104298904D01*
X137566857Y-104260809D01*
X136500190Y-103765571D02*
X136500190Y-104298904D01*
X136843047Y-103765571D02*
X136843047Y-104184619D01*
X136804952Y-104260809D01*
X136728761Y-104298904D01*
X136614476Y-104298904D01*
X136538285Y-104260809D01*
X136500190Y-104222714D01*
X135776380Y-104260809D02*
X135852571Y-104298904D01*
X136004952Y-104298904D01*
X136081142Y-104260809D01*
X136119238Y-104222714D01*
X136157333Y-104146523D01*
X136157333Y-103917952D01*
X136119238Y-103841761D01*
X136081142Y-103803666D01*
X136004952Y-103765571D01*
X135852571Y-103765571D01*
X135776380Y-103803666D01*
X135433523Y-104298904D02*
X135433523Y-103498904D01*
X135357333Y-103994142D02*
X135128761Y-104298904D01*
X135128761Y-103765571D02*
X135433523Y-104070333D01*
D11*
G36*
X111068428Y-105754531D02*
G01*
X111064333Y-105795635D01*
X111094996Y-105874241D01*
X111164206Y-105900966D01*
X111228508Y-105870558D01*
X111273526Y-105786749D01*
X111244295Y-105716709D01*
X111208680Y-105696225D01*
X111115820Y-105690334D01*
X111068428Y-105754531D01*
G37*
X111068428Y-105754531D02*
X111064333Y-105795635D01*
X111094996Y-105874241D01*
X111164206Y-105900966D01*
X111228508Y-105870558D01*
X111273526Y-105786749D01*
X111244295Y-105716709D01*
X111208680Y-105696225D01*
X111115820Y-105690334D01*
X111068428Y-105754531D01*
G36*
X112225586Y-105692891D02*
G01*
X112173033Y-105729157D01*
X112127909Y-105789074D01*
X112148480Y-105838129D01*
X112166512Y-105856090D01*
X112241200Y-105895820D01*
X112281416Y-105894896D01*
X112325622Y-105841257D01*
X112329647Y-105758316D01*
X112292032Y-105692063D01*
X112287937Y-105689322D01*
X112225586Y-105692891D01*
G37*
X112225586Y-105692891D02*
X112173033Y-105729157D01*
X112127909Y-105789074D01*
X112148480Y-105838129D01*
X112166512Y-105856090D01*
X112241200Y-105895820D01*
X112281416Y-105894896D01*
X112325622Y-105841257D01*
X112329647Y-105758316D01*
X112292032Y-105692063D01*
X112287937Y-105689322D01*
X112225586Y-105692891D01*
G36*
X113242155Y-105718548D02*
G01*
X113223333Y-105795635D01*
X113253924Y-105875087D01*
X113323284Y-105898806D01*
X113396518Y-105856525D01*
X113425446Y-105793564D01*
X113384679Y-105729216D01*
X113382509Y-105727032D01*
X113302470Y-105685374D01*
X113242155Y-105718548D01*
G37*
X113242155Y-105718548D02*
X113223333Y-105795635D01*
X113253924Y-105875087D01*
X113323284Y-105898806D01*
X113396518Y-105856525D01*
X113425446Y-105793564D01*
X113384679Y-105729216D01*
X113382509Y-105727032D01*
X113302470Y-105685374D01*
X113242155Y-105718548D01*
G36*
X114308923Y-105723634D02*
G01*
X114281666Y-105775845D01*
X114315601Y-105852370D01*
X114390604Y-105896483D01*
X114440416Y-105894288D01*
X114483568Y-105841722D01*
X114490432Y-105759491D01*
X114457525Y-105695981D01*
X114454820Y-105694194D01*
X114381215Y-105686673D01*
X114308923Y-105723634D01*
G37*
X114308923Y-105723634D02*
X114281666Y-105775845D01*
X114315601Y-105852370D01*
X114390604Y-105896483D01*
X114440416Y-105894288D01*
X114483568Y-105841722D01*
X114490432Y-105759491D01*
X114457525Y-105695981D01*
X114454820Y-105694194D01*
X114381215Y-105686673D01*
X114308923Y-105723634D01*
G36*
X109161319Y-100471937D02*
G01*
X109189269Y-100598523D01*
X109232265Y-100795109D01*
X109287531Y-101048923D01*
X109352295Y-101347196D01*
X109423782Y-101677156D01*
X109499219Y-102026032D01*
X109548473Y-102254195D01*
X109857116Y-103684891D01*
X110152964Y-103659833D01*
X110279509Y-103088333D01*
X110325727Y-102888090D01*
X110366430Y-102727592D01*
X110398071Y-102619635D01*
X110417108Y-102577014D01*
X110420239Y-102580333D01*
X110434717Y-102644611D01*
X110463714Y-102772972D01*
X110503050Y-102946921D01*
X110548544Y-103147964D01*
X110549420Y-103151833D01*
X110664415Y-103659833D01*
X110812294Y-103672391D01*
X110960173Y-103684948D01*
X111100424Y-102719891D01*
X111140862Y-102441023D01*
X111177354Y-102188186D01*
X111208076Y-101974112D01*
X111231204Y-101811533D01*
X111244916Y-101713180D01*
X111247755Y-101691333D01*
X111215418Y-101638130D01*
X111120868Y-101614837D01*
X111066590Y-101609991D01*
X111025337Y-101614551D01*
X110993880Y-101639156D01*
X110968989Y-101694446D01*
X110947435Y-101791062D01*
X110925989Y-101939644D01*
X110901421Y-102150832D01*
X110870503Y-102435266D01*
X110869745Y-102442259D01*
X110843862Y-102670552D01*
X110819679Y-102864582D01*
X110799053Y-103010873D01*
X110783845Y-103095948D01*
X110777370Y-103111814D01*
X110761712Y-103065503D01*
X110733386Y-102954315D01*
X110696798Y-102796301D01*
X110666435Y-102657221D01*
X110573370Y-102220500D01*
X110243881Y-102220500D01*
X110137978Y-102725703D01*
X110032074Y-103230907D01*
X109764602Y-101942537D01*
X109674593Y-101507751D01*
X109600378Y-101148540D01*
X109539853Y-100857727D01*
X109490917Y-100628133D01*
X109451468Y-100452580D01*
X109419404Y-100323889D01*
X109392623Y-100234883D01*
X109369023Y-100178382D01*
X109346501Y-100147209D01*
X109322957Y-100134186D01*
X109296287Y-100132134D01*
X109264391Y-100133874D01*
X109234801Y-100133270D01*
X109082809Y-100120375D01*
X109161319Y-100471937D01*
G37*
X109161319Y-100471937D02*
X109189269Y-100598523D01*
X109232265Y-100795109D01*
X109287531Y-101048923D01*
X109352295Y-101347196D01*
X109423782Y-101677156D01*
X109499219Y-102026032D01*
X109548473Y-102254195D01*
X109857116Y-103684891D01*
X110152964Y-103659833D01*
X110279509Y-103088333D01*
X110325727Y-102888090D01*
X110366430Y-102727592D01*
X110398071Y-102619635D01*
X110417108Y-102577014D01*
X110420239Y-102580333D01*
X110434717Y-102644611D01*
X110463714Y-102772972D01*
X110503050Y-102946921D01*
X110548544Y-103147964D01*
X110549420Y-103151833D01*
X110664415Y-103659833D01*
X110812294Y-103672391D01*
X110960173Y-103684948D01*
X111100424Y-102719891D01*
X111140862Y-102441023D01*
X111177354Y-102188186D01*
X111208076Y-101974112D01*
X111231204Y-101811533D01*
X111244916Y-101713180D01*
X111247755Y-101691333D01*
X111215418Y-101638130D01*
X111120868Y-101614837D01*
X111066590Y-101609991D01*
X111025337Y-101614551D01*
X110993880Y-101639156D01*
X110968989Y-101694446D01*
X110947435Y-101791062D01*
X110925989Y-101939644D01*
X110901421Y-102150832D01*
X110870503Y-102435266D01*
X110869745Y-102442259D01*
X110843862Y-102670552D01*
X110819679Y-102864582D01*
X110799053Y-103010873D01*
X110783845Y-103095948D01*
X110777370Y-103111814D01*
X110761712Y-103065503D01*
X110733386Y-102954315D01*
X110696798Y-102796301D01*
X110666435Y-102657221D01*
X110573370Y-102220500D01*
X110243881Y-102220500D01*
X110137978Y-102725703D01*
X110032074Y-103230907D01*
X109764602Y-101942537D01*
X109674593Y-101507751D01*
X109600378Y-101148540D01*
X109539853Y-100857727D01*
X109490917Y-100628133D01*
X109451468Y-100452580D01*
X109419404Y-100323889D01*
X109392623Y-100234883D01*
X109369023Y-100178382D01*
X109346501Y-100147209D01*
X109322957Y-100134186D01*
X109296287Y-100132134D01*
X109264391Y-100133874D01*
X109234801Y-100133270D01*
X109082809Y-100120375D01*
X109161319Y-100471937D01*
G36*
X112461333Y-102453333D02*
G01*
X111744732Y-102453333D01*
X111720500Y-101627833D01*
X111424166Y-101627833D01*
X111424166Y-103659833D01*
X111582916Y-103672972D01*
X111741666Y-103686110D01*
X111741666Y-102707333D01*
X112461333Y-102707333D01*
X112461333Y-103681000D01*
X112757666Y-103681000D01*
X112757666Y-101606666D01*
X112461333Y-101606666D01*
X112461333Y-102453333D01*
G37*
X112461333Y-102453333D02*
X111744732Y-102453333D01*
X111720500Y-101627833D01*
X111424166Y-101627833D01*
X111424166Y-103659833D01*
X111582916Y-103672972D01*
X111741666Y-103686110D01*
X111741666Y-102707333D01*
X112461333Y-102707333D01*
X112461333Y-103681000D01*
X112757666Y-103681000D01*
X112757666Y-101606666D01*
X112461333Y-101606666D01*
X112461333Y-102453333D01*
G36*
X113629446Y-101611000D02*
G01*
X113460038Y-101628414D01*
X113356650Y-101653141D01*
X113263577Y-101698934D01*
X113227744Y-101769431D01*
X113223333Y-101843641D01*
X113227121Y-101939989D01*
X113236399Y-101986811D01*
X113237996Y-101987666D01*
X113281682Y-101970684D01*
X113370387Y-101928863D01*
X113389739Y-101919282D01*
X113516085Y-101878143D01*
X113675730Y-101853767D01*
X113743477Y-101850897D01*
X113884820Y-101858604D01*
X113976110Y-101889855D01*
X114051195Y-101956841D01*
X114057400Y-101963976D01*
X114137495Y-102102167D01*
X114136466Y-102230008D01*
X114057710Y-102342160D01*
X113904621Y-102433286D01*
X113723378Y-102489163D01*
X113465958Y-102571678D01*
X113281625Y-102689779D01*
X113164976Y-102847301D01*
X113142929Y-102901214D01*
X113107023Y-103114099D01*
X113141094Y-103317714D01*
X113236635Y-103494107D01*
X113385135Y-103625324D01*
X113511804Y-103679525D01*
X113757403Y-103716310D01*
X114025622Y-103705824D01*
X114218166Y-103666046D01*
X114327480Y-103625486D01*
X114379223Y-103572329D01*
X114398867Y-103477481D01*
X114400639Y-103457633D01*
X114404584Y-103356178D01*
X114397875Y-103302531D01*
X114394678Y-103300000D01*
X114348233Y-103315995D01*
X114251791Y-103356638D01*
X114191039Y-103383736D01*
X113978549Y-103452572D01*
X113775141Y-103468760D01*
X113601568Y-103432848D01*
X113496576Y-103365424D01*
X113408699Y-103222466D01*
X113398641Y-103057116D01*
X113418963Y-102984396D01*
X113495215Y-102898505D01*
X113654358Y-102820120D01*
X113892559Y-102750531D01*
X114047061Y-102700190D01*
X114186768Y-102631706D01*
X114238983Y-102595298D01*
X114369988Y-102436794D01*
X114429026Y-102254708D01*
X114418800Y-102065375D01*
X114342010Y-101885128D01*
X114201358Y-101730301D01*
X114083366Y-101654290D01*
X113972879Y-101623989D01*
X113810983Y-101609542D01*
X113629446Y-101611000D01*
G37*
X113629446Y-101611000D02*
X113460038Y-101628414D01*
X113356650Y-101653141D01*
X113263577Y-101698934D01*
X113227744Y-101769431D01*
X113223333Y-101843641D01*
X113227121Y-101939989D01*
X113236399Y-101986811D01*
X113237996Y-101987666D01*
X113281682Y-101970684D01*
X113370387Y-101928863D01*
X113389739Y-101919282D01*
X113516085Y-101878143D01*
X113675730Y-101853767D01*
X113743477Y-101850897D01*
X113884820Y-101858604D01*
X113976110Y-101889855D01*
X114051195Y-101956841D01*
X114057400Y-101963976D01*
X114137495Y-102102167D01*
X114136466Y-102230008D01*
X114057710Y-102342160D01*
X113904621Y-102433286D01*
X113723378Y-102489163D01*
X113465958Y-102571678D01*
X113281625Y-102689779D01*
X113164976Y-102847301D01*
X113142929Y-102901214D01*
X113107023Y-103114099D01*
X113141094Y-103317714D01*
X113236635Y-103494107D01*
X113385135Y-103625324D01*
X113511804Y-103679525D01*
X113757403Y-103716310D01*
X114025622Y-103705824D01*
X114218166Y-103666046D01*
X114327480Y-103625486D01*
X114379223Y-103572329D01*
X114398867Y-103477481D01*
X114400639Y-103457633D01*
X114404584Y-103356178D01*
X114397875Y-103302531D01*
X114394678Y-103300000D01*
X114348233Y-103315995D01*
X114251791Y-103356638D01*
X114191039Y-103383736D01*
X113978549Y-103452572D01*
X113775141Y-103468760D01*
X113601568Y-103432848D01*
X113496576Y-103365424D01*
X113408699Y-103222466D01*
X113398641Y-103057116D01*
X113418963Y-102984396D01*
X113495215Y-102898505D01*
X113654358Y-102820120D01*
X113892559Y-102750531D01*
X114047061Y-102700190D01*
X114186768Y-102631706D01*
X114238983Y-102595298D01*
X114369988Y-102436794D01*
X114429026Y-102254708D01*
X114418800Y-102065375D01*
X114342010Y-101885128D01*
X114201358Y-101730301D01*
X114083366Y-101654290D01*
X113972879Y-101623989D01*
X113810983Y-101609542D01*
X113629446Y-101611000D01*
G36*
X115262948Y-101627540D02*
G01*
X115086972Y-101693436D01*
X114957135Y-101820196D01*
X114901608Y-101917273D01*
X114817054Y-102164338D01*
X114770375Y-102451790D01*
X114761817Y-102752766D01*
X114791631Y-103040401D01*
X114860064Y-103287829D01*
X114888338Y-103350548D01*
X115026170Y-103542004D01*
X115204606Y-103667371D01*
X115409166Y-103721792D01*
X115625368Y-103700410D01*
X115763994Y-103644255D01*
X115906987Y-103525191D01*
X116017333Y-103359500D01*
X116063063Y-103262904D01*
X116093378Y-103170883D01*
X116111352Y-103062566D01*
X116120059Y-102917082D01*
X116122573Y-102713557D01*
X116122587Y-102644828D01*
X116122157Y-102601500D01*
X115823210Y-102601500D01*
X115819311Y-102877268D01*
X115799798Y-103083624D01*
X115761941Y-103234839D01*
X115703008Y-103345182D01*
X115674322Y-103379577D01*
X115553101Y-103454350D01*
X115410826Y-103461876D01*
X115274026Y-103404940D01*
X115196632Y-103329440D01*
X115155764Y-103261775D01*
X115127892Y-103176659D01*
X115109665Y-103055302D01*
X115097734Y-102878914D01*
X115092405Y-102744789D01*
X115091882Y-102436816D01*
X115115635Y-102202570D01*
X115165961Y-102034016D01*
X115245159Y-101923115D01*
X115343798Y-101865685D01*
X115506574Y-101841241D01*
X115635499Y-101893450D01*
X115730774Y-102022623D01*
X115792601Y-102229068D01*
X115821182Y-102513097D01*
X115823210Y-102601500D01*
X116122157Y-102601500D01*
X116120328Y-102417395D01*
X116112400Y-102254875D01*
X116096168Y-102137569D01*
X116068996Y-102045778D01*
X116031842Y-101966500D01*
X115926469Y-101796590D01*
X115815335Y-101692510D01*
X115673106Y-101637719D01*
X115496354Y-101616805D01*
X115262948Y-101627540D01*
G37*
X115262948Y-101627540D02*
X115086972Y-101693436D01*
X114957135Y-101820196D01*
X114901608Y-101917273D01*
X114817054Y-102164338D01*
X114770375Y-102451790D01*
X114761817Y-102752766D01*
X114791631Y-103040401D01*
X114860064Y-103287829D01*
X114888338Y-103350548D01*
X115026170Y-103542004D01*
X115204606Y-103667371D01*
X115409166Y-103721792D01*
X115625368Y-103700410D01*
X115763994Y-103644255D01*
X115906987Y-103525191D01*
X116017333Y-103359500D01*
X116063063Y-103262904D01*
X116093378Y-103170883D01*
X116111352Y-103062566D01*
X116120059Y-102917082D01*
X116122573Y-102713557D01*
X116122587Y-102644828D01*
X116122157Y-102601500D01*
X115823210Y-102601500D01*
X115819311Y-102877268D01*
X115799798Y-103083624D01*
X115761941Y-103234839D01*
X115703008Y-103345182D01*
X115674322Y-103379577D01*
X115553101Y-103454350D01*
X115410826Y-103461876D01*
X115274026Y-103404940D01*
X115196632Y-103329440D01*
X115155764Y-103261775D01*
X115127892Y-103176659D01*
X115109665Y-103055302D01*
X115097734Y-102878914D01*
X115092405Y-102744789D01*
X115091882Y-102436816D01*
X115115635Y-102202570D01*
X115165961Y-102034016D01*
X115245159Y-101923115D01*
X115343798Y-101865685D01*
X115506574Y-101841241D01*
X115635499Y-101893450D01*
X115730774Y-102022623D01*
X115792601Y-102229068D01*
X115821182Y-102513097D01*
X115823210Y-102601500D01*
X116122157Y-102601500D01*
X116120328Y-102417395D01*
X116112400Y-102254875D01*
X116096168Y-102137569D01*
X116068996Y-102045778D01*
X116031842Y-101966500D01*
X115926469Y-101796590D01*
X115815335Y-101692510D01*
X115673106Y-101637719D01*
X115496354Y-101616805D01*
X115262948Y-101627540D01*
G36*
X110006000Y-101014000D02*
G01*
X116694666Y-101014000D01*
X116694666Y-104231333D01*
X108876505Y-104231333D01*
X108848586Y-103271991D01*
X108839728Y-102924054D01*
X108832029Y-102538358D01*
X108825966Y-102145760D01*
X108822020Y-101777118D01*
X108820666Y-101472825D01*
X108820666Y-100633000D01*
X108482000Y-100633000D01*
X108482000Y-104570000D01*
X117075666Y-104570000D01*
X117075666Y-100633000D01*
X110006000Y-100633000D01*
X110006000Y-101014000D01*
G37*
X110006000Y-101014000D02*
X116694666Y-101014000D01*
X116694666Y-104231333D01*
X108876505Y-104231333D01*
X108848586Y-103271991D01*
X108839728Y-102924054D01*
X108832029Y-102538358D01*
X108825966Y-102145760D01*
X108822020Y-101777118D01*
X108820666Y-101472825D01*
X108820666Y-100633000D01*
X108482000Y-100633000D01*
X108482000Y-104570000D01*
X117075666Y-104570000D01*
X117075666Y-100633000D01*
X110006000Y-100633000D01*
X110006000Y-101014000D01*
G36*
X108863000Y-106305666D02*
G01*
X108736000Y-106305666D01*
X108635174Y-106324598D01*
X108609000Y-106369166D01*
X108624951Y-106401747D01*
X108682828Y-106421301D01*
X108797662Y-106430645D01*
X108947666Y-106432666D01*
X109121433Y-106429675D01*
X109225717Y-106418823D01*
X109275552Y-106397292D01*
X109286333Y-106369166D01*
X109248469Y-106318753D01*
X109159333Y-106305666D01*
X109032333Y-106305666D01*
X109032333Y-105298582D01*
X109180500Y-105332000D01*
X109279800Y-105348197D01*
X109321495Y-105331302D01*
X109328666Y-105290145D01*
X109289048Y-105219076D01*
X109171891Y-105176461D01*
X109000583Y-105163244D01*
X108863000Y-105162666D01*
X108863000Y-106305666D01*
G37*
X108863000Y-106305666D02*
X108736000Y-106305666D01*
X108635174Y-106324598D01*
X108609000Y-106369166D01*
X108624951Y-106401747D01*
X108682828Y-106421301D01*
X108797662Y-106430645D01*
X108947666Y-106432666D01*
X109121433Y-106429675D01*
X109225717Y-106418823D01*
X109275552Y-106397292D01*
X109286333Y-106369166D01*
X109248469Y-106318753D01*
X109159333Y-106305666D01*
X109032333Y-106305666D01*
X109032333Y-105298582D01*
X109180500Y-105332000D01*
X109279800Y-105348197D01*
X109321495Y-105331302D01*
X109328666Y-105290145D01*
X109289048Y-105219076D01*
X109171891Y-105176461D01*
X109000583Y-105163244D01*
X108863000Y-105162666D01*
X108863000Y-106305666D01*
G36*
X115281125Y-105165141D02*
G01*
X115165346Y-105174172D01*
X115105194Y-105192172D01*
X115086201Y-105221552D01*
X115086000Y-105226166D01*
X115103427Y-105260667D01*
X115166090Y-105280413D01*
X115289560Y-105288740D01*
X115382333Y-105289666D01*
X115678666Y-105289666D01*
X115678666Y-105670666D01*
X115382333Y-105670666D01*
X115226601Y-105672950D01*
X115137384Y-105683251D01*
X115096579Y-105706742D01*
X115086082Y-105748593D01*
X115086000Y-105755333D01*
X115093995Y-105799828D01*
X115130048Y-105825318D01*
X115212264Y-105836977D01*
X115358745Y-105839976D01*
X115382333Y-105840000D01*
X115678666Y-105840000D01*
X115678666Y-106305666D01*
X115361166Y-106305666D01*
X115193694Y-106308993D01*
X115095389Y-106321013D01*
X115050941Y-106344790D01*
X115043666Y-106369166D01*
X115058060Y-106399436D01*
X115110702Y-106418592D01*
X115215786Y-106428875D01*
X115387505Y-106432527D01*
X115445833Y-106432666D01*
X115848000Y-106432666D01*
X115848000Y-105162666D01*
X115467000Y-105162666D01*
X115281125Y-105165141D01*
G37*
X115281125Y-105165141D02*
X115165346Y-105174172D01*
X115105194Y-105192172D01*
X115086201Y-105221552D01*
X115086000Y-105226166D01*
X115103427Y-105260667D01*
X115166090Y-105280413D01*
X115289560Y-105288740D01*
X115382333Y-105289666D01*
X115678666Y-105289666D01*
X115678666Y-105670666D01*
X115382333Y-105670666D01*
X115226601Y-105672950D01*
X115137384Y-105683251D01*
X115096579Y-105706742D01*
X115086082Y-105748593D01*
X115086000Y-105755333D01*
X115093995Y-105799828D01*
X115130048Y-105825318D01*
X115212264Y-105836977D01*
X115358745Y-105839976D01*
X115382333Y-105840000D01*
X115678666Y-105840000D01*
X115678666Y-106305666D01*
X115361166Y-106305666D01*
X115193694Y-106308993D01*
X115095389Y-106321013D01*
X115050941Y-106344790D01*
X115043666Y-106369166D01*
X115058060Y-106399436D01*
X115110702Y-106418592D01*
X115215786Y-106428875D01*
X115387505Y-106432527D01*
X115445833Y-106432666D01*
X115848000Y-106432666D01*
X115848000Y-105162666D01*
X115467000Y-105162666D01*
X115281125Y-105165141D01*
G36*
X116507874Y-105183483D02*
G01*
X116339111Y-105250615D01*
X116227471Y-105371083D01*
X116166961Y-105551908D01*
X116151587Y-105800111D01*
X116153047Y-105849904D01*
X116163124Y-106022685D01*
X116181389Y-106135747D01*
X116215060Y-106214031D01*
X116271356Y-106282479D01*
X116281084Y-106292326D01*
X116361661Y-106358959D01*
X116455251Y-106397798D01*
X116591163Y-106418776D01*
X116672385Y-106424937D01*
X116948666Y-106442529D01*
X116948666Y-105289666D01*
X116779333Y-105289666D01*
X116779333Y-106305666D01*
X116657023Y-106305666D01*
X116532420Y-106278567D01*
X116434773Y-106224740D01*
X116384763Y-106176121D01*
X116354844Y-106115882D01*
X116339973Y-106022472D01*
X116335108Y-105874343D01*
X116334833Y-105797666D01*
X116337178Y-105622556D01*
X116347576Y-105510510D01*
X116371069Y-105439981D01*
X116412699Y-105389418D01*
X116434773Y-105370593D01*
X116550198Y-105310292D01*
X116657023Y-105289666D01*
X116779333Y-105289666D01*
X116948666Y-105289666D01*
X116948666Y-105162666D01*
X116739756Y-105162666D01*
X116507874Y-105183483D01*
G37*
X116507874Y-105183483D02*
X116339111Y-105250615D01*
X116227471Y-105371083D01*
X116166961Y-105551908D01*
X116151587Y-105800111D01*
X116153047Y-105849904D01*
X116163124Y-106022685D01*
X116181389Y-106135747D01*
X116215060Y-106214031D01*
X116271356Y-106282479D01*
X116281084Y-106292326D01*
X116361661Y-106358959D01*
X116455251Y-106397798D01*
X116591163Y-106418776D01*
X116672385Y-106424937D01*
X116948666Y-106442529D01*
X116948666Y-105289666D01*
X116779333Y-105289666D01*
X116779333Y-106305666D01*
X116657023Y-106305666D01*
X116532420Y-106278567D01*
X116434773Y-106224740D01*
X116384763Y-106176121D01*
X116354844Y-106115882D01*
X116339973Y-106022472D01*
X116335108Y-105874343D01*
X116334833Y-105797666D01*
X116337178Y-105622556D01*
X116347576Y-105510510D01*
X116371069Y-105439981D01*
X116412699Y-105389418D01*
X116434773Y-105370593D01*
X116550198Y-105310292D01*
X116657023Y-105289666D01*
X116779333Y-105289666D01*
X116948666Y-105289666D01*
X116948666Y-105162666D01*
X116739756Y-105162666D01*
X116507874Y-105183483D01*
G36*
X109862493Y-105210542D02*
G01*
X109754888Y-105354433D01*
X109691360Y-105567554D01*
X109679915Y-105658569D01*
X109680569Y-105935131D01*
X109734548Y-106158838D01*
X109838754Y-106324063D01*
X109990088Y-106425181D01*
X110118255Y-106454444D01*
X110244833Y-106458868D01*
X110344457Y-106450483D01*
X110355250Y-106447870D01*
X110417814Y-106393147D01*
X110429333Y-106347851D01*
X110417757Y-106296681D01*
X110367264Y-106289868D01*
X110299474Y-106306486D01*
X110135811Y-106315897D01*
X109990867Y-106258272D01*
X109884719Y-106147934D01*
X109837444Y-105999204D01*
X109836666Y-105976346D01*
X109842488Y-105909188D01*
X109875385Y-105907420D01*
X109930753Y-105943432D01*
X110083663Y-106003493D01*
X110244519Y-105984472D01*
X110374056Y-105907165D01*
X110444912Y-105834413D01*
X110480476Y-105753464D01*
X110492224Y-105632030D01*
X110492725Y-105583374D01*
X110341668Y-105583374D01*
X110309141Y-105716624D01*
X110237114Y-105823115D01*
X110132638Y-105878998D01*
X110097228Y-105882333D01*
X110010280Y-105852600D01*
X109944828Y-105800238D01*
X109883077Y-105679669D01*
X109870851Y-105533679D01*
X109906727Y-105397480D01*
X109964123Y-105323117D01*
X110077610Y-105256845D01*
X110175744Y-105266921D01*
X110260000Y-105332000D01*
X110327639Y-105447216D01*
X110341668Y-105583374D01*
X110492725Y-105583374D01*
X110492833Y-105572943D01*
X110470551Y-105373258D01*
X110399840Y-105238122D01*
X110274908Y-105158935D01*
X110200831Y-105139519D01*
X110011899Y-105138148D01*
X109862493Y-105210542D01*
G37*
X109862493Y-105210542D02*
X109754888Y-105354433D01*
X109691360Y-105567554D01*
X109679915Y-105658569D01*
X109680569Y-105935131D01*
X109734548Y-106158838D01*
X109838754Y-106324063D01*
X109990088Y-106425181D01*
X110118255Y-106454444D01*
X110244833Y-106458868D01*
X110344457Y-106450483D01*
X110355250Y-106447870D01*
X110417814Y-106393147D01*
X110429333Y-106347851D01*
X110417757Y-106296681D01*
X110367264Y-106289868D01*
X110299474Y-106306486D01*
X110135811Y-106315897D01*
X109990867Y-106258272D01*
X109884719Y-106147934D01*
X109837444Y-105999204D01*
X109836666Y-105976346D01*
X109842488Y-105909188D01*
X109875385Y-105907420D01*
X109930753Y-105943432D01*
X110083663Y-106003493D01*
X110244519Y-105984472D01*
X110374056Y-105907165D01*
X110444912Y-105834413D01*
X110480476Y-105753464D01*
X110492224Y-105632030D01*
X110492725Y-105583374D01*
X110341668Y-105583374D01*
X110309141Y-105716624D01*
X110237114Y-105823115D01*
X110132638Y-105878998D01*
X110097228Y-105882333D01*
X110010280Y-105852600D01*
X109944828Y-105800238D01*
X109883077Y-105679669D01*
X109870851Y-105533679D01*
X109906727Y-105397480D01*
X109964123Y-105323117D01*
X110077610Y-105256845D01*
X110175744Y-105266921D01*
X110260000Y-105332000D01*
X110327639Y-105447216D01*
X110341668Y-105583374D01*
X110492725Y-105583374D01*
X110492833Y-105572943D01*
X110470551Y-105373258D01*
X110399840Y-105238122D01*
X110274908Y-105158935D01*
X110200831Y-105139519D01*
X110011899Y-105138148D01*
X109862493Y-105210542D01*
G36*
X110969493Y-105190816D02*
G01*
X110854394Y-105307473D01*
X110820635Y-105371042D01*
X110776802Y-105540180D01*
X110759165Y-105753586D01*
X110767589Y-105975060D01*
X110801943Y-106168400D01*
X110823795Y-106231852D01*
X110922887Y-106378406D01*
X111057811Y-106458189D01*
X111210686Y-106466061D01*
X111363630Y-106396887D01*
X111373060Y-106389671D01*
X111486397Y-106251842D01*
X111550982Y-106052744D01*
X111567425Y-105797666D01*
X111381833Y-105797666D01*
X111378572Y-105988761D01*
X111366413Y-106115747D01*
X111341790Y-106199011D01*
X111301189Y-106258888D01*
X111208639Y-106334713D01*
X111120686Y-106335366D01*
X111047340Y-106292786D01*
X110982043Y-106200723D01*
X110937651Y-106049065D01*
X110917805Y-105861106D01*
X110926147Y-105660141D01*
X110937067Y-105587370D01*
X110989936Y-105401725D01*
X111064172Y-105288555D01*
X111154640Y-105251398D01*
X111256207Y-105293792D01*
X111301189Y-105336444D01*
X111341822Y-105396390D01*
X111366431Y-105479689D01*
X111378579Y-105606729D01*
X111381833Y-105797666D01*
X111567425Y-105797666D01*
X111568048Y-105788012D01*
X111565001Y-105710487D01*
X111529243Y-105464232D01*
X111451910Y-105287612D01*
X111329944Y-105174863D01*
X111265056Y-105145305D01*
X111114317Y-105132729D01*
X110969493Y-105190816D01*
G37*
X110969493Y-105190816D02*
X110854394Y-105307473D01*
X110820635Y-105371042D01*
X110776802Y-105540180D01*
X110759165Y-105753586D01*
X110767589Y-105975060D01*
X110801943Y-106168400D01*
X110823795Y-106231852D01*
X110922887Y-106378406D01*
X111057811Y-106458189D01*
X111210686Y-106466061D01*
X111363630Y-106396887D01*
X111373060Y-106389671D01*
X111486397Y-106251842D01*
X111550982Y-106052744D01*
X111567425Y-105797666D01*
X111381833Y-105797666D01*
X111378572Y-105988761D01*
X111366413Y-106115747D01*
X111341790Y-106199011D01*
X111301189Y-106258888D01*
X111208639Y-106334713D01*
X111120686Y-106335366D01*
X111047340Y-106292786D01*
X110982043Y-106200723D01*
X110937651Y-106049065D01*
X110917805Y-105861106D01*
X110926147Y-105660141D01*
X110937067Y-105587370D01*
X110989936Y-105401725D01*
X111064172Y-105288555D01*
X111154640Y-105251398D01*
X111256207Y-105293792D01*
X111301189Y-105336444D01*
X111341822Y-105396390D01*
X111366431Y-105479689D01*
X111378579Y-105606729D01*
X111381833Y-105797666D01*
X111567425Y-105797666D01*
X111568048Y-105788012D01*
X111565001Y-105710487D01*
X111529243Y-105464232D01*
X111451910Y-105287612D01*
X111329944Y-105174863D01*
X111265056Y-105145305D01*
X111114317Y-105132729D01*
X110969493Y-105190816D01*
G36*
X112017071Y-105207487D02*
G01*
X111913096Y-105345268D01*
X111848079Y-105546616D01*
X111826333Y-105797666D01*
X111849899Y-106055799D01*
X111917258Y-106256207D01*
X112023405Y-106393413D01*
X112163335Y-106461939D01*
X112332040Y-106456307D01*
X112406200Y-106432167D01*
X112523304Y-106339877D01*
X112602838Y-106174135D01*
X112643663Y-105937917D01*
X112649190Y-105797578D01*
X112645913Y-105747382D01*
X112492333Y-105747382D01*
X112483690Y-105962885D01*
X112479439Y-105993821D01*
X112433838Y-106156874D01*
X112358807Y-106279679D01*
X112267445Y-106343251D01*
X112235061Y-106348000D01*
X112166815Y-106318959D01*
X112097478Y-106258888D01*
X112049594Y-106158932D01*
X112020097Y-106002955D01*
X112008989Y-105817581D01*
X112016269Y-105629436D01*
X112041936Y-105465143D01*
X112085992Y-105351328D01*
X112097478Y-105336444D01*
X112175469Y-105270768D01*
X112235061Y-105247333D01*
X112332820Y-105286479D01*
X112411731Y-105393393D01*
X112466624Y-105552289D01*
X112492333Y-105747382D01*
X112645913Y-105747382D01*
X112632170Y-105536877D01*
X112575993Y-105346134D01*
X112477288Y-105218576D01*
X112332684Y-105147428D01*
X112324556Y-105145322D01*
X112155669Y-105138947D01*
X112017071Y-105207487D01*
G37*
X112017071Y-105207487D02*
X111913096Y-105345268D01*
X111848079Y-105546616D01*
X111826333Y-105797666D01*
X111849899Y-106055799D01*
X111917258Y-106256207D01*
X112023405Y-106393413D01*
X112163335Y-106461939D01*
X112332040Y-106456307D01*
X112406200Y-106432167D01*
X112523304Y-106339877D01*
X112602838Y-106174135D01*
X112643663Y-105937917D01*
X112649190Y-105797578D01*
X112645913Y-105747382D01*
X112492333Y-105747382D01*
X112483690Y-105962885D01*
X112479439Y-105993821D01*
X112433838Y-106156874D01*
X112358807Y-106279679D01*
X112267445Y-106343251D01*
X112235061Y-106348000D01*
X112166815Y-106318959D01*
X112097478Y-106258888D01*
X112049594Y-106158932D01*
X112020097Y-106002955D01*
X112008989Y-105817581D01*
X112016269Y-105629436D01*
X112041936Y-105465143D01*
X112085992Y-105351328D01*
X112097478Y-105336444D01*
X112175469Y-105270768D01*
X112235061Y-105247333D01*
X112332820Y-105286479D01*
X112411731Y-105393393D01*
X112466624Y-105552289D01*
X112492333Y-105747382D01*
X112645913Y-105747382D01*
X112632170Y-105536877D01*
X112575993Y-105346134D01*
X112477288Y-105218576D01*
X112332684Y-105147428D01*
X112324556Y-105145322D01*
X112155669Y-105138947D01*
X112017071Y-105207487D01*
G36*
X113233110Y-105145322D02*
G01*
X113086225Y-105213940D01*
X112985401Y-105338644D01*
X112927266Y-105526209D01*
X112908448Y-105783409D01*
X112908476Y-105797578D01*
X112930206Y-106070595D01*
X112992682Y-106270188D01*
X113096313Y-106397373D01*
X113164617Y-106434485D01*
X113317963Y-106471937D01*
X113444395Y-106447195D01*
X113514719Y-106405967D01*
X113631571Y-106273530D01*
X113704548Y-106074009D01*
X113731254Y-105814129D01*
X113731333Y-105797666D01*
X113729554Y-105777751D01*
X113548677Y-105777751D01*
X113541398Y-105965896D01*
X113515730Y-106130189D01*
X113471675Y-106244005D01*
X113460189Y-106258888D01*
X113361679Y-106335668D01*
X113268445Y-106331087D01*
X113186654Y-106268987D01*
X113118585Y-106151531D01*
X113078420Y-105981332D01*
X113066158Y-105785585D01*
X113081799Y-105591486D01*
X113125344Y-105426228D01*
X113186654Y-105326345D01*
X113287221Y-105256915D01*
X113380230Y-105268372D01*
X113460189Y-105336444D01*
X113508073Y-105436400D01*
X113537569Y-105592377D01*
X113548677Y-105777751D01*
X113729554Y-105777751D01*
X113708305Y-105540008D01*
X113642110Y-105340404D01*
X113537082Y-105204530D01*
X113397555Y-105138059D01*
X113233110Y-105145322D01*
G37*
X113233110Y-105145322D02*
X113086225Y-105213940D01*
X112985401Y-105338644D01*
X112927266Y-105526209D01*
X112908448Y-105783409D01*
X112908476Y-105797578D01*
X112930206Y-106070595D01*
X112992682Y-106270188D01*
X113096313Y-106397373D01*
X113164617Y-106434485D01*
X113317963Y-106471937D01*
X113444395Y-106447195D01*
X113514719Y-106405967D01*
X113631571Y-106273530D01*
X113704548Y-106074009D01*
X113731254Y-105814129D01*
X113731333Y-105797666D01*
X113729554Y-105777751D01*
X113548677Y-105777751D01*
X113541398Y-105965896D01*
X113515730Y-106130189D01*
X113471675Y-106244005D01*
X113460189Y-106258888D01*
X113361679Y-106335668D01*
X113268445Y-106331087D01*
X113186654Y-106268987D01*
X113118585Y-106151531D01*
X113078420Y-105981332D01*
X113066158Y-105785585D01*
X113081799Y-105591486D01*
X113125344Y-105426228D01*
X113186654Y-105326345D01*
X113287221Y-105256915D01*
X113380230Y-105268372D01*
X113460189Y-105336444D01*
X113508073Y-105436400D01*
X113537569Y-105592377D01*
X113548677Y-105777751D01*
X113729554Y-105777751D01*
X113708305Y-105540008D01*
X113642110Y-105340404D01*
X113537082Y-105204530D01*
X113397555Y-105138059D01*
X113233110Y-105145322D01*
G36*
X114223158Y-105171565D02*
G01*
X114109059Y-105286013D01*
X114030501Y-105466902D01*
X113992754Y-105708932D01*
X113992665Y-105710487D01*
X113999597Y-105982848D01*
X114051124Y-106200295D01*
X114142837Y-106357269D01*
X114270324Y-106448210D01*
X114429175Y-106467560D01*
X114565200Y-106432167D01*
X114678947Y-106341466D01*
X114756474Y-106178436D01*
X114795816Y-105948175D01*
X114800545Y-105822050D01*
X114794629Y-105730324D01*
X114641344Y-105730324D01*
X114638287Y-105921807D01*
X114611060Y-106096843D01*
X114559180Y-106230896D01*
X114529379Y-106269621D01*
X114429059Y-106338600D01*
X114335997Y-106326704D01*
X114256478Y-106258888D01*
X114208594Y-106158932D01*
X114179097Y-106002955D01*
X114167989Y-105817581D01*
X114175269Y-105629436D01*
X114200936Y-105465143D01*
X114244992Y-105351328D01*
X114256478Y-105336444D01*
X114349028Y-105260619D01*
X114436980Y-105259966D01*
X114510326Y-105302546D01*
X114576880Y-105396158D01*
X114620714Y-105546929D01*
X114641344Y-105730324D01*
X114794629Y-105730324D01*
X114783163Y-105552549D01*
X114727307Y-105353997D01*
X114630750Y-105220827D01*
X114536910Y-105163181D01*
X114367531Y-105128855D01*
X114223158Y-105171565D01*
G37*
X114223158Y-105171565D02*
X114109059Y-105286013D01*
X114030501Y-105466902D01*
X113992754Y-105708932D01*
X113992665Y-105710487D01*
X113999597Y-105982848D01*
X114051124Y-106200295D01*
X114142837Y-106357269D01*
X114270324Y-106448210D01*
X114429175Y-106467560D01*
X114565200Y-106432167D01*
X114678947Y-106341466D01*
X114756474Y-106178436D01*
X114795816Y-105948175D01*
X114800545Y-105822050D01*
X114794629Y-105730324D01*
X114641344Y-105730324D01*
X114638287Y-105921807D01*
X114611060Y-106096843D01*
X114559180Y-106230896D01*
X114529379Y-106269621D01*
X114429059Y-106338600D01*
X114335997Y-106326704D01*
X114256478Y-106258888D01*
X114208594Y-106158932D01*
X114179097Y-106002955D01*
X114167989Y-105817581D01*
X114175269Y-105629436D01*
X114200936Y-105465143D01*
X114244992Y-105351328D01*
X114256478Y-105336444D01*
X114349028Y-105260619D01*
X114436980Y-105259966D01*
X114510326Y-105302546D01*
X114576880Y-105396158D01*
X114620714Y-105546929D01*
X114641344Y-105730324D01*
X114794629Y-105730324D01*
X114783163Y-105552549D01*
X114727307Y-105353997D01*
X114630750Y-105220827D01*
X114536910Y-105163181D01*
X114367531Y-105128855D01*
X114223158Y-105171565D01*
D12*
X102105500Y-100907000D02*
X102105500Y-102367000D01*
X105265500Y-100907000D02*
X105265500Y-103067000D01*
X105265500Y-100907000D02*
X104335500Y-100907000D01*
X102105500Y-100907000D02*
X103035500Y-100907000D01*
M02*
