G04 #@! TF.GenerationSoftware,KiCad,Pcbnew,(5.1.6)-1*
G04 #@! TF.CreationDate,2020-09-29T15:04:04+02:00*
G04 #@! TF.ProjectId,double-oh,646f7562-6c65-42d6-9f68-2e6b69636164,rev?*
G04 #@! TF.SameCoordinates,Original*
G04 #@! TF.FileFunction,Copper,L1,Top*
G04 #@! TF.FilePolarity,Positive*
%FSLAX46Y46*%
G04 Gerber Fmt 4.6, Leading zero omitted, Abs format (unit mm)*
G04 Created by KiCad (PCBNEW (5.1.6)-1) date 2020-09-29 15:04:04*
%MOMM*%
%LPD*%
G01*
G04 APERTURE LIST*
G04 #@! TA.AperFunction,SMDPad,CuDef*
%ADD10C,0.500000*%
G04 #@! TD*
G04 #@! TA.AperFunction,SMDPad,CuDef*
%ADD11R,0.400000X0.650000*%
G04 #@! TD*
G04 #@! TA.AperFunction,SMDPad,CuDef*
%ADD12R,1.600000X1.000000*%
G04 #@! TD*
G04 #@! TA.AperFunction,SMDPad,CuDef*
%ADD13R,0.850000X0.280000*%
G04 #@! TD*
G04 #@! TA.AperFunction,SMDPad,CuDef*
%ADD14R,1.650000X2.400000*%
G04 #@! TD*
G04 #@! TA.AperFunction,SMDPad,CuDef*
%ADD15R,0.280000X0.700000*%
G04 #@! TD*
G04 #@! TA.AperFunction,SMDPad,CuDef*
%ADD16R,0.700000X0.450000*%
G04 #@! TD*
G04 #@! TA.AperFunction,SMDPad,CuDef*
%ADD17R,0.450000X0.700000*%
G04 #@! TD*
G04 #@! TA.AperFunction,SMDPad,CuDef*
%ADD18R,0.400000X2.700000*%
G04 #@! TD*
G04 #@! TA.AperFunction,ComponentPad*
%ADD19R,1.600000X1.600000*%
G04 #@! TD*
G04 #@! TA.AperFunction,SMDPad,CuDef*
%ADD20R,1.060000X0.650000*%
G04 #@! TD*
G04 #@! TA.AperFunction,ViaPad*
%ADD21C,0.800000*%
G04 #@! TD*
G04 #@! TA.AperFunction,Conductor*
%ADD22C,0.800000*%
G04 #@! TD*
G04 #@! TA.AperFunction,Conductor*
%ADD23C,0.250000*%
G04 #@! TD*
G04 APERTURE END LIST*
G04 #@! TA.AperFunction,SMDPad,CuDef*
G36*
G01*
X106027500Y-108073050D02*
X106027500Y-106760550D01*
G75*
G02*
X106271250Y-106516800I243750J0D01*
G01*
X106758750Y-106516800D01*
G75*
G02*
X107002500Y-106760550I0J-243750D01*
G01*
X107002500Y-108073050D01*
G75*
G02*
X106758750Y-108316800I-243750J0D01*
G01*
X106271250Y-108316800D01*
G75*
G02*
X106027500Y-108073050I0J243750D01*
G01*
G37*
G04 #@! TD.AperFunction*
G04 #@! TA.AperFunction,SMDPad,CuDef*
G36*
G01*
X104290000Y-108073050D02*
X104290000Y-106760550D01*
G75*
G02*
X104533750Y-106516800I243750J0D01*
G01*
X105021250Y-106516800D01*
G75*
G02*
X105265000Y-106760550I0J-243750D01*
G01*
X105265000Y-108073050D01*
G75*
G02*
X105021250Y-108316800I-243750J0D01*
G01*
X104533750Y-108316800D01*
G75*
G02*
X104290000Y-108073050I0J243750D01*
G01*
G37*
G04 #@! TD.AperFunction*
G04 #@! TA.AperFunction,SMDPad,CuDef*
G36*
G01*
X104290000Y-101756250D02*
X104290000Y-100443750D01*
G75*
G02*
X104533750Y-100200000I243750J0D01*
G01*
X105021250Y-100200000D01*
G75*
G02*
X105265000Y-100443750I0J-243750D01*
G01*
X105265000Y-101756250D01*
G75*
G02*
X105021250Y-102000000I-243750J0D01*
G01*
X104533750Y-102000000D01*
G75*
G02*
X104290000Y-101756250I0J243750D01*
G01*
G37*
G04 #@! TD.AperFunction*
G04 #@! TA.AperFunction,SMDPad,CuDef*
G36*
G01*
X106027500Y-101756250D02*
X106027500Y-100443750D01*
G75*
G02*
X106271250Y-100200000I243750J0D01*
G01*
X106758750Y-100200000D01*
G75*
G02*
X107002500Y-100443750I0J-243750D01*
G01*
X107002500Y-101756250D01*
G75*
G02*
X106758750Y-102000000I-243750J0D01*
G01*
X106271250Y-102000000D01*
G75*
G02*
X106027500Y-101756250I0J243750D01*
G01*
G37*
G04 #@! TD.AperFunction*
D10*
X99492000Y-105334000D03*
X146482000Y-103556000D03*
G04 #@! TA.AperFunction,SMDPad,CuDef*
G36*
G01*
X110205500Y-102610000D02*
X109860500Y-102610000D01*
G75*
G02*
X109713000Y-102462500I0J147500D01*
G01*
X109713000Y-102167500D01*
G75*
G02*
X109860500Y-102020000I147500J0D01*
G01*
X110205500Y-102020000D01*
G75*
G02*
X110353000Y-102167500I0J-147500D01*
G01*
X110353000Y-102462500D01*
G75*
G02*
X110205500Y-102610000I-147500J0D01*
G01*
G37*
G04 #@! TD.AperFunction*
G04 #@! TA.AperFunction,SMDPad,CuDef*
G36*
G01*
X110205500Y-103580000D02*
X109860500Y-103580000D01*
G75*
G02*
X109713000Y-103432500I0J147500D01*
G01*
X109713000Y-103137500D01*
G75*
G02*
X109860500Y-102990000I147500J0D01*
G01*
X110205500Y-102990000D01*
G75*
G02*
X110353000Y-103137500I0J-147500D01*
G01*
X110353000Y-103432500D01*
G75*
G02*
X110205500Y-103580000I-147500J0D01*
G01*
G37*
G04 #@! TD.AperFunction*
G04 #@! TA.AperFunction,SMDPad,CuDef*
G36*
G01*
X103127500Y-101590000D02*
X103472500Y-101590000D01*
G75*
G02*
X103620000Y-101737500I0J-147500D01*
G01*
X103620000Y-102032500D01*
G75*
G02*
X103472500Y-102180000I-147500J0D01*
G01*
X103127500Y-102180000D01*
G75*
G02*
X102980000Y-102032500I0J147500D01*
G01*
X102980000Y-101737500D01*
G75*
G02*
X103127500Y-101590000I147500J0D01*
G01*
G37*
G04 #@! TD.AperFunction*
G04 #@! TA.AperFunction,SMDPad,CuDef*
G36*
G01*
X103127500Y-100620000D02*
X103472500Y-100620000D01*
G75*
G02*
X103620000Y-100767500I0J-147500D01*
G01*
X103620000Y-101062500D01*
G75*
G02*
X103472500Y-101210000I-147500J0D01*
G01*
X103127500Y-101210000D01*
G75*
G02*
X102980000Y-101062500I0J147500D01*
G01*
X102980000Y-100767500D01*
G75*
G02*
X103127500Y-100620000I147500J0D01*
G01*
G37*
G04 #@! TD.AperFunction*
D11*
X137750000Y-103850000D03*
X136450000Y-103850000D03*
X137100000Y-101950000D03*
X137100000Y-103850000D03*
X136450000Y-101950000D03*
X137750000Y-101950000D03*
D12*
X143050000Y-106032000D03*
X143050000Y-102500000D03*
G04 #@! TA.AperFunction,SMDPad,CuDef*
G36*
G01*
X137438500Y-100662000D02*
X137438500Y-100862000D01*
G75*
G02*
X137338500Y-100962000I-100000J0D01*
G01*
X137078500Y-100962000D01*
G75*
G02*
X136978500Y-100862000I0J100000D01*
G01*
X136978500Y-100662000D01*
G75*
G02*
X137078500Y-100562000I100000J0D01*
G01*
X137338500Y-100562000D01*
G75*
G02*
X137438500Y-100662000I0J-100000D01*
G01*
G37*
G04 #@! TD.AperFunction*
G04 #@! TA.AperFunction,SMDPad,CuDef*
G36*
G01*
X138078500Y-100662000D02*
X138078500Y-100862000D01*
G75*
G02*
X137978500Y-100962000I-100000J0D01*
G01*
X137718500Y-100962000D01*
G75*
G02*
X137618500Y-100862000I0J100000D01*
G01*
X137618500Y-100662000D01*
G75*
G02*
X137718500Y-100562000I100000J0D01*
G01*
X137978500Y-100562000D01*
G75*
G02*
X138078500Y-100662000I0J-100000D01*
G01*
G37*
G04 #@! TD.AperFunction*
D13*
X107190000Y-105300000D03*
X107190000Y-104800000D03*
X107190000Y-104300000D03*
X107190000Y-103800000D03*
X107190000Y-103300000D03*
X104240000Y-103300000D03*
X104240000Y-103800000D03*
X104240000Y-104300000D03*
X104240000Y-104800000D03*
X104240000Y-105300000D03*
D14*
X105715000Y-104300000D03*
D15*
X105965000Y-105850000D03*
X105965000Y-102750000D03*
X105465000Y-105850000D03*
X105465000Y-102750000D03*
G04 #@! TA.AperFunction,SMDPad,CuDef*
G36*
G01*
X101310000Y-102585500D02*
X101310000Y-102240500D01*
G75*
G02*
X101457500Y-102093000I147500J0D01*
G01*
X101752500Y-102093000D01*
G75*
G02*
X101900000Y-102240500I0J-147500D01*
G01*
X101900000Y-102585500D01*
G75*
G02*
X101752500Y-102733000I-147500J0D01*
G01*
X101457500Y-102733000D01*
G75*
G02*
X101310000Y-102585500I0J147500D01*
G01*
G37*
G04 #@! TD.AperFunction*
G04 #@! TA.AperFunction,SMDPad,CuDef*
G36*
G01*
X100340000Y-102585500D02*
X100340000Y-102240500D01*
G75*
G02*
X100487500Y-102093000I147500J0D01*
G01*
X100782500Y-102093000D01*
G75*
G02*
X100930000Y-102240500I0J-147500D01*
G01*
X100930000Y-102585500D01*
G75*
G02*
X100782500Y-102733000I-147500J0D01*
G01*
X100487500Y-102733000D01*
G75*
G02*
X100340000Y-102585500I0J147500D01*
G01*
G37*
G04 #@! TD.AperFunction*
D16*
X100651000Y-105461000D03*
X102651000Y-104811000D03*
X102651000Y-106111000D03*
G04 #@! TA.AperFunction,SMDPad,CuDef*
G36*
G01*
X111874000Y-106967000D02*
X111874000Y-106622000D01*
G75*
G02*
X112021500Y-106474500I147500J0D01*
G01*
X112316500Y-106474500D01*
G75*
G02*
X112464000Y-106622000I0J-147500D01*
G01*
X112464000Y-106967000D01*
G75*
G02*
X112316500Y-107114500I-147500J0D01*
G01*
X112021500Y-107114500D01*
G75*
G02*
X111874000Y-106967000I0J147500D01*
G01*
G37*
G04 #@! TD.AperFunction*
G04 #@! TA.AperFunction,SMDPad,CuDef*
G36*
G01*
X110904000Y-106967000D02*
X110904000Y-106622000D01*
G75*
G02*
X111051500Y-106474500I147500J0D01*
G01*
X111346500Y-106474500D01*
G75*
G02*
X111494000Y-106622000I0J-147500D01*
G01*
X111494000Y-106967000D01*
G75*
G02*
X111346500Y-107114500I-147500J0D01*
G01*
X111051500Y-107114500D01*
G75*
G02*
X110904000Y-106967000I0J147500D01*
G01*
G37*
G04 #@! TD.AperFunction*
D17*
X111811000Y-102810000D03*
X112461000Y-104810000D03*
X111161000Y-104810000D03*
G04 #@! TA.AperFunction,SMDPad,CuDef*
G36*
G01*
X111875000Y-105669500D02*
X111875000Y-106014500D01*
G75*
G02*
X111727500Y-106162000I-147500J0D01*
G01*
X111432500Y-106162000D01*
G75*
G02*
X111285000Y-106014500I0J147500D01*
G01*
X111285000Y-105669500D01*
G75*
G02*
X111432500Y-105522000I147500J0D01*
G01*
X111727500Y-105522000D01*
G75*
G02*
X111875000Y-105669500I0J-147500D01*
G01*
G37*
G04 #@! TD.AperFunction*
G04 #@! TA.AperFunction,SMDPad,CuDef*
G36*
G01*
X112845000Y-105669500D02*
X112845000Y-106014500D01*
G75*
G02*
X112697500Y-106162000I-147500J0D01*
G01*
X112402500Y-106162000D01*
G75*
G02*
X112255000Y-106014500I0J147500D01*
G01*
X112255000Y-105669500D01*
G75*
G02*
X112402500Y-105522000I147500J0D01*
G01*
X112697500Y-105522000D01*
G75*
G02*
X112845000Y-105669500I0J-147500D01*
G01*
G37*
G04 #@! TD.AperFunction*
G04 #@! TA.AperFunction,SMDPad,CuDef*
G36*
G01*
X112591000Y-100970500D02*
X112591000Y-101315500D01*
G75*
G02*
X112443500Y-101463000I-147500J0D01*
G01*
X112148500Y-101463000D01*
G75*
G02*
X112001000Y-101315500I0J147500D01*
G01*
X112001000Y-100970500D01*
G75*
G02*
X112148500Y-100823000I147500J0D01*
G01*
X112443500Y-100823000D01*
G75*
G02*
X112591000Y-100970500I0J-147500D01*
G01*
G37*
G04 #@! TD.AperFunction*
G04 #@! TA.AperFunction,SMDPad,CuDef*
G36*
G01*
X111621000Y-100970500D02*
X111621000Y-101315500D01*
G75*
G02*
X111473500Y-101463000I-147500J0D01*
G01*
X111178500Y-101463000D01*
G75*
G02*
X111031000Y-101315500I0J147500D01*
G01*
X111031000Y-100970500D01*
G75*
G02*
X111178500Y-100823000I147500J0D01*
G01*
X111473500Y-100823000D01*
G75*
G02*
X111621000Y-100970500I0J-147500D01*
G01*
G37*
G04 #@! TD.AperFunction*
G04 #@! TA.AperFunction,SMDPad,CuDef*
G36*
G01*
X109860500Y-107683000D02*
X110205500Y-107683000D01*
G75*
G02*
X110353000Y-107830500I0J-147500D01*
G01*
X110353000Y-108125500D01*
G75*
G02*
X110205500Y-108273000I-147500J0D01*
G01*
X109860500Y-108273000D01*
G75*
G02*
X109713000Y-108125500I0J147500D01*
G01*
X109713000Y-107830500D01*
G75*
G02*
X109860500Y-107683000I147500J0D01*
G01*
G37*
G04 #@! TD.AperFunction*
G04 #@! TA.AperFunction,SMDPad,CuDef*
G36*
G01*
X109860500Y-106713000D02*
X110205500Y-106713000D01*
G75*
G02*
X110353000Y-106860500I0J-147500D01*
G01*
X110353000Y-107155500D01*
G75*
G02*
X110205500Y-107303000I-147500J0D01*
G01*
X109860500Y-107303000D01*
G75*
G02*
X109713000Y-107155500I0J147500D01*
G01*
X109713000Y-106860500D01*
G75*
G02*
X109860500Y-106713000I147500J0D01*
G01*
G37*
G04 #@! TD.AperFunction*
G04 #@! TA.AperFunction,SMDPad,CuDef*
G36*
G01*
X108977000Y-105415500D02*
X108977000Y-105760500D01*
G75*
G02*
X108829500Y-105908000I-147500J0D01*
G01*
X108534500Y-105908000D01*
G75*
G02*
X108387000Y-105760500I0J147500D01*
G01*
X108387000Y-105415500D01*
G75*
G02*
X108534500Y-105268000I147500J0D01*
G01*
X108829500Y-105268000D01*
G75*
G02*
X108977000Y-105415500I0J-147500D01*
G01*
G37*
G04 #@! TD.AperFunction*
G04 #@! TA.AperFunction,SMDPad,CuDef*
G36*
G01*
X109947000Y-105415500D02*
X109947000Y-105760500D01*
G75*
G02*
X109799500Y-105908000I-147500J0D01*
G01*
X109504500Y-105908000D01*
G75*
G02*
X109357000Y-105760500I0J147500D01*
G01*
X109357000Y-105415500D01*
G75*
G02*
X109504500Y-105268000I147500J0D01*
G01*
X109799500Y-105268000D01*
G75*
G02*
X109947000Y-105415500I0J-147500D01*
G01*
G37*
G04 #@! TD.AperFunction*
D18*
X121350000Y-101350000D03*
X120700000Y-101350000D03*
X120050000Y-101350000D03*
X122000000Y-101350000D03*
X122650000Y-101350000D03*
G04 #@! TA.AperFunction,SMDPad,CuDef*
G36*
G01*
X101841000Y-103728500D02*
X101841000Y-103383500D01*
G75*
G02*
X101988500Y-103236000I147500J0D01*
G01*
X102283500Y-103236000D01*
G75*
G02*
X102431000Y-103383500I0J-147500D01*
G01*
X102431000Y-103728500D01*
G75*
G02*
X102283500Y-103876000I-147500J0D01*
G01*
X101988500Y-103876000D01*
G75*
G02*
X101841000Y-103728500I0J147500D01*
G01*
G37*
G04 #@! TD.AperFunction*
G04 #@! TA.AperFunction,SMDPad,CuDef*
G36*
G01*
X100871000Y-103728500D02*
X100871000Y-103383500D01*
G75*
G02*
X101018500Y-103236000I147500J0D01*
G01*
X101313500Y-103236000D01*
G75*
G02*
X101461000Y-103383500I0J-147500D01*
G01*
X101461000Y-103728500D01*
G75*
G02*
X101313500Y-103876000I-147500J0D01*
G01*
X101018500Y-103876000D01*
G75*
G02*
X100871000Y-103728500I0J147500D01*
G01*
G37*
G04 #@! TD.AperFunction*
D19*
X145100000Y-100900000D03*
G04 #@! TA.AperFunction,SMDPad,CuDef*
G36*
G01*
X139172500Y-103610000D02*
X138827500Y-103610000D01*
G75*
G02*
X138680000Y-103462500I0J147500D01*
G01*
X138680000Y-103167500D01*
G75*
G02*
X138827500Y-103020000I147500J0D01*
G01*
X139172500Y-103020000D01*
G75*
G02*
X139320000Y-103167500I0J-147500D01*
G01*
X139320000Y-103462500D01*
G75*
G02*
X139172500Y-103610000I-147500J0D01*
G01*
G37*
G04 #@! TD.AperFunction*
G04 #@! TA.AperFunction,SMDPad,CuDef*
G36*
G01*
X139172500Y-104580000D02*
X138827500Y-104580000D01*
G75*
G02*
X138680000Y-104432500I0J147500D01*
G01*
X138680000Y-104137500D01*
G75*
G02*
X138827500Y-103990000I147500J0D01*
G01*
X139172500Y-103990000D01*
G75*
G02*
X139320000Y-104137500I0J-147500D01*
G01*
X139320000Y-104432500D01*
G75*
G02*
X139172500Y-104580000I-147500J0D01*
G01*
G37*
G04 #@! TD.AperFunction*
X145100000Y-108100000D03*
G04 #@! TA.AperFunction,SMDPad,CuDef*
G36*
G01*
X107828500Y-101587000D02*
X108173500Y-101587000D01*
G75*
G02*
X108321000Y-101734500I0J-147500D01*
G01*
X108321000Y-102029500D01*
G75*
G02*
X108173500Y-102177000I-147500J0D01*
G01*
X107828500Y-102177000D01*
G75*
G02*
X107681000Y-102029500I0J147500D01*
G01*
X107681000Y-101734500D01*
G75*
G02*
X107828500Y-101587000I147500J0D01*
G01*
G37*
G04 #@! TD.AperFunction*
G04 #@! TA.AperFunction,SMDPad,CuDef*
G36*
G01*
X107828500Y-100617000D02*
X108173500Y-100617000D01*
G75*
G02*
X108321000Y-100764500I0J-147500D01*
G01*
X108321000Y-101059500D01*
G75*
G02*
X108173500Y-101207000I-147500J0D01*
G01*
X107828500Y-101207000D01*
G75*
G02*
X107681000Y-101059500I0J147500D01*
G01*
X107681000Y-100764500D01*
G75*
G02*
X107828500Y-100617000I147500J0D01*
G01*
G37*
G04 #@! TD.AperFunction*
D20*
X113750000Y-101050000D03*
X113750000Y-102000000D03*
X113750000Y-102950000D03*
X115950000Y-102950000D03*
X115950000Y-101050000D03*
G04 #@! TA.AperFunction,SMDPad,CuDef*
G36*
G01*
X139343750Y-105325000D02*
X139856250Y-105325000D01*
G75*
G02*
X140075000Y-105543750I0J-218750D01*
G01*
X140075000Y-105981250D01*
G75*
G02*
X139856250Y-106200000I-218750J0D01*
G01*
X139343750Y-106200000D01*
G75*
G02*
X139125000Y-105981250I0J218750D01*
G01*
X139125000Y-105543750D01*
G75*
G02*
X139343750Y-105325000I218750J0D01*
G01*
G37*
G04 #@! TD.AperFunction*
G04 #@! TA.AperFunction,SMDPad,CuDef*
G36*
G01*
X139343750Y-106900000D02*
X139856250Y-106900000D01*
G75*
G02*
X140075000Y-107118750I0J-218750D01*
G01*
X140075000Y-107556250D01*
G75*
G02*
X139856250Y-107775000I-218750J0D01*
G01*
X139343750Y-107775000D01*
G75*
G02*
X139125000Y-107556250I0J218750D01*
G01*
X139125000Y-107118750D01*
G75*
G02*
X139343750Y-106900000I218750J0D01*
G01*
G37*
G04 #@! TD.AperFunction*
G04 #@! TA.AperFunction,SMDPad,CuDef*
G36*
G01*
X126627500Y-102190000D02*
X126972500Y-102190000D01*
G75*
G02*
X127120000Y-102337500I0J-147500D01*
G01*
X127120000Y-102632500D01*
G75*
G02*
X126972500Y-102780000I-147500J0D01*
G01*
X126627500Y-102780000D01*
G75*
G02*
X126480000Y-102632500I0J147500D01*
G01*
X126480000Y-102337500D01*
G75*
G02*
X126627500Y-102190000I147500J0D01*
G01*
G37*
G04 #@! TD.AperFunction*
G04 #@! TA.AperFunction,SMDPad,CuDef*
G36*
G01*
X126627500Y-101220000D02*
X126972500Y-101220000D01*
G75*
G02*
X127120000Y-101367500I0J-147500D01*
G01*
X127120000Y-101662500D01*
G75*
G02*
X126972500Y-101810000I-147500J0D01*
G01*
X126627500Y-101810000D01*
G75*
G02*
X126480000Y-101662500I0J147500D01*
G01*
X126480000Y-101367500D01*
G75*
G02*
X126627500Y-101220000I147500J0D01*
G01*
G37*
G04 #@! TD.AperFunction*
G04 #@! TA.AperFunction,SMDPad,CuDef*
G36*
G01*
X114070000Y-105172500D02*
X114070000Y-104827500D01*
G75*
G02*
X114217500Y-104680000I147500J0D01*
G01*
X114512500Y-104680000D01*
G75*
G02*
X114660000Y-104827500I0J-147500D01*
G01*
X114660000Y-105172500D01*
G75*
G02*
X114512500Y-105320000I-147500J0D01*
G01*
X114217500Y-105320000D01*
G75*
G02*
X114070000Y-105172500I0J147500D01*
G01*
G37*
G04 #@! TD.AperFunction*
G04 #@! TA.AperFunction,SMDPad,CuDef*
G36*
G01*
X115040000Y-105172500D02*
X115040000Y-104827500D01*
G75*
G02*
X115187500Y-104680000I147500J0D01*
G01*
X115482500Y-104680000D01*
G75*
G02*
X115630000Y-104827500I0J-147500D01*
G01*
X115630000Y-105172500D01*
G75*
G02*
X115482500Y-105320000I-147500J0D01*
G01*
X115187500Y-105320000D01*
G75*
G02*
X115040000Y-105172500I0J147500D01*
G01*
G37*
G04 #@! TD.AperFunction*
G04 #@! TA.AperFunction,SMDPad,CuDef*
G36*
G01*
X109189500Y-107280000D02*
X108844500Y-107280000D01*
G75*
G02*
X108697000Y-107132500I0J147500D01*
G01*
X108697000Y-106837500D01*
G75*
G02*
X108844500Y-106690000I147500J0D01*
G01*
X109189500Y-106690000D01*
G75*
G02*
X109337000Y-106837500I0J-147500D01*
G01*
X109337000Y-107132500D01*
G75*
G02*
X109189500Y-107280000I-147500J0D01*
G01*
G37*
G04 #@! TD.AperFunction*
G04 #@! TA.AperFunction,SMDPad,CuDef*
G36*
G01*
X109189500Y-108250000D02*
X108844500Y-108250000D01*
G75*
G02*
X108697000Y-108102500I0J147500D01*
G01*
X108697000Y-107807500D01*
G75*
G02*
X108844500Y-107660000I147500J0D01*
G01*
X109189500Y-107660000D01*
G75*
G02*
X109337000Y-107807500I0J-147500D01*
G01*
X109337000Y-108102500D01*
G75*
G02*
X109189500Y-108250000I-147500J0D01*
G01*
G37*
G04 #@! TD.AperFunction*
G04 #@! TA.AperFunction,SMDPad,CuDef*
G36*
G01*
X117890000Y-107872500D02*
X117890000Y-107527500D01*
G75*
G02*
X118037500Y-107380000I147500J0D01*
G01*
X118332500Y-107380000D01*
G75*
G02*
X118480000Y-107527500I0J-147500D01*
G01*
X118480000Y-107872500D01*
G75*
G02*
X118332500Y-108020000I-147500J0D01*
G01*
X118037500Y-108020000D01*
G75*
G02*
X117890000Y-107872500I0J147500D01*
G01*
G37*
G04 #@! TD.AperFunction*
G04 #@! TA.AperFunction,SMDPad,CuDef*
G36*
G01*
X116920000Y-107872500D02*
X116920000Y-107527500D01*
G75*
G02*
X117067500Y-107380000I147500J0D01*
G01*
X117362500Y-107380000D01*
G75*
G02*
X117510000Y-107527500I0J-147500D01*
G01*
X117510000Y-107872500D01*
G75*
G02*
X117362500Y-108020000I-147500J0D01*
G01*
X117067500Y-108020000D01*
G75*
G02*
X116920000Y-107872500I0J147500D01*
G01*
G37*
G04 #@! TD.AperFunction*
G04 #@! TA.AperFunction,SMDPad,CuDef*
G36*
G01*
X125427500Y-101220000D02*
X125772500Y-101220000D01*
G75*
G02*
X125920000Y-101367500I0J-147500D01*
G01*
X125920000Y-101662500D01*
G75*
G02*
X125772500Y-101810000I-147500J0D01*
G01*
X125427500Y-101810000D01*
G75*
G02*
X125280000Y-101662500I0J147500D01*
G01*
X125280000Y-101367500D01*
G75*
G02*
X125427500Y-101220000I147500J0D01*
G01*
G37*
G04 #@! TD.AperFunction*
G04 #@! TA.AperFunction,SMDPad,CuDef*
G36*
G01*
X125427500Y-102190000D02*
X125772500Y-102190000D01*
G75*
G02*
X125920000Y-102337500I0J-147500D01*
G01*
X125920000Y-102632500D01*
G75*
G02*
X125772500Y-102780000I-147500J0D01*
G01*
X125427500Y-102780000D01*
G75*
G02*
X125280000Y-102632500I0J147500D01*
G01*
X125280000Y-102337500D01*
G75*
G02*
X125427500Y-102190000I147500J0D01*
G01*
G37*
G04 #@! TD.AperFunction*
G04 #@! TA.AperFunction,SMDPad,CuDef*
G36*
G01*
X118480000Y-105727500D02*
X118480000Y-106072500D01*
G75*
G02*
X118332500Y-106220000I-147500J0D01*
G01*
X118037500Y-106220000D01*
G75*
G02*
X117890000Y-106072500I0J147500D01*
G01*
X117890000Y-105727500D01*
G75*
G02*
X118037500Y-105580000I147500J0D01*
G01*
X118332500Y-105580000D01*
G75*
G02*
X118480000Y-105727500I0J-147500D01*
G01*
G37*
G04 #@! TD.AperFunction*
G04 #@! TA.AperFunction,SMDPad,CuDef*
G36*
G01*
X117510000Y-105727500D02*
X117510000Y-106072500D01*
G75*
G02*
X117362500Y-106220000I-147500J0D01*
G01*
X117067500Y-106220000D01*
G75*
G02*
X116920000Y-106072500I0J147500D01*
G01*
X116920000Y-105727500D01*
G75*
G02*
X117067500Y-105580000I147500J0D01*
G01*
X117362500Y-105580000D01*
G75*
G02*
X117510000Y-105727500I0J-147500D01*
G01*
G37*
G04 #@! TD.AperFunction*
G04 #@! TA.AperFunction,SMDPad,CuDef*
G36*
G01*
X133130800Y-106000000D02*
X129869200Y-106000000D01*
G75*
G02*
X129700000Y-105830800I0J169200D01*
G01*
X129700000Y-102569200D01*
G75*
G02*
X129869200Y-102400000I169200J0D01*
G01*
X133130800Y-102400000D01*
G75*
G02*
X133300000Y-102569200I0J-169200D01*
G01*
X133300000Y-105830800D01*
G75*
G02*
X133130800Y-106000000I-169200J0D01*
G01*
G37*
G04 #@! TD.AperFunction*
G04 #@! TA.AperFunction,SMDPad,CuDef*
G36*
G01*
X128812500Y-108050000D02*
X128687500Y-108050000D01*
G75*
G02*
X128625000Y-107987500I0J62500D01*
G01*
X128625000Y-107312500D01*
G75*
G02*
X128687500Y-107250000I62500J0D01*
G01*
X128812500Y-107250000D01*
G75*
G02*
X128875000Y-107312500I0J-62500D01*
G01*
X128875000Y-107987500D01*
G75*
G02*
X128812500Y-108050000I-62500J0D01*
G01*
G37*
G04 #@! TD.AperFunction*
G04 #@! TA.AperFunction,SMDPad,CuDef*
G36*
G01*
X129312500Y-108050000D02*
X129187500Y-108050000D01*
G75*
G02*
X129125000Y-107987500I0J62500D01*
G01*
X129125000Y-107312500D01*
G75*
G02*
X129187500Y-107250000I62500J0D01*
G01*
X129312500Y-107250000D01*
G75*
G02*
X129375000Y-107312500I0J-62500D01*
G01*
X129375000Y-107987500D01*
G75*
G02*
X129312500Y-108050000I-62500J0D01*
G01*
G37*
G04 #@! TD.AperFunction*
G04 #@! TA.AperFunction,SMDPad,CuDef*
G36*
G01*
X129812500Y-108050000D02*
X129687500Y-108050000D01*
G75*
G02*
X129625000Y-107987500I0J62500D01*
G01*
X129625000Y-107312500D01*
G75*
G02*
X129687500Y-107250000I62500J0D01*
G01*
X129812500Y-107250000D01*
G75*
G02*
X129875000Y-107312500I0J-62500D01*
G01*
X129875000Y-107987500D01*
G75*
G02*
X129812500Y-108050000I-62500J0D01*
G01*
G37*
G04 #@! TD.AperFunction*
G04 #@! TA.AperFunction,SMDPad,CuDef*
G36*
G01*
X130312500Y-108050000D02*
X130187500Y-108050000D01*
G75*
G02*
X130125000Y-107987500I0J62500D01*
G01*
X130125000Y-107312500D01*
G75*
G02*
X130187500Y-107250000I62500J0D01*
G01*
X130312500Y-107250000D01*
G75*
G02*
X130375000Y-107312500I0J-62500D01*
G01*
X130375000Y-107987500D01*
G75*
G02*
X130312500Y-108050000I-62500J0D01*
G01*
G37*
G04 #@! TD.AperFunction*
G04 #@! TA.AperFunction,SMDPad,CuDef*
G36*
G01*
X130812500Y-108050000D02*
X130687500Y-108050000D01*
G75*
G02*
X130625000Y-107987500I0J62500D01*
G01*
X130625000Y-107312500D01*
G75*
G02*
X130687500Y-107250000I62500J0D01*
G01*
X130812500Y-107250000D01*
G75*
G02*
X130875000Y-107312500I0J-62500D01*
G01*
X130875000Y-107987500D01*
G75*
G02*
X130812500Y-108050000I-62500J0D01*
G01*
G37*
G04 #@! TD.AperFunction*
G04 #@! TA.AperFunction,SMDPad,CuDef*
G36*
G01*
X131312500Y-108050000D02*
X131187500Y-108050000D01*
G75*
G02*
X131125000Y-107987500I0J62500D01*
G01*
X131125000Y-107312500D01*
G75*
G02*
X131187500Y-107250000I62500J0D01*
G01*
X131312500Y-107250000D01*
G75*
G02*
X131375000Y-107312500I0J-62500D01*
G01*
X131375000Y-107987500D01*
G75*
G02*
X131312500Y-108050000I-62500J0D01*
G01*
G37*
G04 #@! TD.AperFunction*
G04 #@! TA.AperFunction,SMDPad,CuDef*
G36*
G01*
X131812500Y-108050000D02*
X131687500Y-108050000D01*
G75*
G02*
X131625000Y-107987500I0J62500D01*
G01*
X131625000Y-107312500D01*
G75*
G02*
X131687500Y-107250000I62500J0D01*
G01*
X131812500Y-107250000D01*
G75*
G02*
X131875000Y-107312500I0J-62500D01*
G01*
X131875000Y-107987500D01*
G75*
G02*
X131812500Y-108050000I-62500J0D01*
G01*
G37*
G04 #@! TD.AperFunction*
G04 #@! TA.AperFunction,SMDPad,CuDef*
G36*
G01*
X132312500Y-108050000D02*
X132187500Y-108050000D01*
G75*
G02*
X132125000Y-107987500I0J62500D01*
G01*
X132125000Y-107312500D01*
G75*
G02*
X132187500Y-107250000I62500J0D01*
G01*
X132312500Y-107250000D01*
G75*
G02*
X132375000Y-107312500I0J-62500D01*
G01*
X132375000Y-107987500D01*
G75*
G02*
X132312500Y-108050000I-62500J0D01*
G01*
G37*
G04 #@! TD.AperFunction*
G04 #@! TA.AperFunction,SMDPad,CuDef*
G36*
G01*
X132812500Y-108050000D02*
X132687500Y-108050000D01*
G75*
G02*
X132625000Y-107987500I0J62500D01*
G01*
X132625000Y-107312500D01*
G75*
G02*
X132687500Y-107250000I62500J0D01*
G01*
X132812500Y-107250000D01*
G75*
G02*
X132875000Y-107312500I0J-62500D01*
G01*
X132875000Y-107987500D01*
G75*
G02*
X132812500Y-108050000I-62500J0D01*
G01*
G37*
G04 #@! TD.AperFunction*
G04 #@! TA.AperFunction,SMDPad,CuDef*
G36*
G01*
X133312500Y-108050000D02*
X133187500Y-108050000D01*
G75*
G02*
X133125000Y-107987500I0J62500D01*
G01*
X133125000Y-107312500D01*
G75*
G02*
X133187500Y-107250000I62500J0D01*
G01*
X133312500Y-107250000D01*
G75*
G02*
X133375000Y-107312500I0J-62500D01*
G01*
X133375000Y-107987500D01*
G75*
G02*
X133312500Y-108050000I-62500J0D01*
G01*
G37*
G04 #@! TD.AperFunction*
G04 #@! TA.AperFunction,SMDPad,CuDef*
G36*
G01*
X133812500Y-108050000D02*
X133687500Y-108050000D01*
G75*
G02*
X133625000Y-107987500I0J62500D01*
G01*
X133625000Y-107312500D01*
G75*
G02*
X133687500Y-107250000I62500J0D01*
G01*
X133812500Y-107250000D01*
G75*
G02*
X133875000Y-107312500I0J-62500D01*
G01*
X133875000Y-107987500D01*
G75*
G02*
X133812500Y-108050000I-62500J0D01*
G01*
G37*
G04 #@! TD.AperFunction*
G04 #@! TA.AperFunction,SMDPad,CuDef*
G36*
G01*
X134312500Y-108050000D02*
X134187500Y-108050000D01*
G75*
G02*
X134125000Y-107987500I0J62500D01*
G01*
X134125000Y-107312500D01*
G75*
G02*
X134187500Y-107250000I62500J0D01*
G01*
X134312500Y-107250000D01*
G75*
G02*
X134375000Y-107312500I0J-62500D01*
G01*
X134375000Y-107987500D01*
G75*
G02*
X134312500Y-108050000I-62500J0D01*
G01*
G37*
G04 #@! TD.AperFunction*
G04 #@! TA.AperFunction,SMDPad,CuDef*
G36*
G01*
X135287500Y-107075000D02*
X134612500Y-107075000D01*
G75*
G02*
X134550000Y-107012500I0J62500D01*
G01*
X134550000Y-106887500D01*
G75*
G02*
X134612500Y-106825000I62500J0D01*
G01*
X135287500Y-106825000D01*
G75*
G02*
X135350000Y-106887500I0J-62500D01*
G01*
X135350000Y-107012500D01*
G75*
G02*
X135287500Y-107075000I-62500J0D01*
G01*
G37*
G04 #@! TD.AperFunction*
G04 #@! TA.AperFunction,SMDPad,CuDef*
G36*
G01*
X135287500Y-106575000D02*
X134612500Y-106575000D01*
G75*
G02*
X134550000Y-106512500I0J62500D01*
G01*
X134550000Y-106387500D01*
G75*
G02*
X134612500Y-106325000I62500J0D01*
G01*
X135287500Y-106325000D01*
G75*
G02*
X135350000Y-106387500I0J-62500D01*
G01*
X135350000Y-106512500D01*
G75*
G02*
X135287500Y-106575000I-62500J0D01*
G01*
G37*
G04 #@! TD.AperFunction*
G04 #@! TA.AperFunction,SMDPad,CuDef*
G36*
G01*
X135287500Y-106075000D02*
X134612500Y-106075000D01*
G75*
G02*
X134550000Y-106012500I0J62500D01*
G01*
X134550000Y-105887500D01*
G75*
G02*
X134612500Y-105825000I62500J0D01*
G01*
X135287500Y-105825000D01*
G75*
G02*
X135350000Y-105887500I0J-62500D01*
G01*
X135350000Y-106012500D01*
G75*
G02*
X135287500Y-106075000I-62500J0D01*
G01*
G37*
G04 #@! TD.AperFunction*
G04 #@! TA.AperFunction,SMDPad,CuDef*
G36*
G01*
X135287500Y-105575000D02*
X134612500Y-105575000D01*
G75*
G02*
X134550000Y-105512500I0J62500D01*
G01*
X134550000Y-105387500D01*
G75*
G02*
X134612500Y-105325000I62500J0D01*
G01*
X135287500Y-105325000D01*
G75*
G02*
X135350000Y-105387500I0J-62500D01*
G01*
X135350000Y-105512500D01*
G75*
G02*
X135287500Y-105575000I-62500J0D01*
G01*
G37*
G04 #@! TD.AperFunction*
G04 #@! TA.AperFunction,SMDPad,CuDef*
G36*
G01*
X135287500Y-105075000D02*
X134612500Y-105075000D01*
G75*
G02*
X134550000Y-105012500I0J62500D01*
G01*
X134550000Y-104887500D01*
G75*
G02*
X134612500Y-104825000I62500J0D01*
G01*
X135287500Y-104825000D01*
G75*
G02*
X135350000Y-104887500I0J-62500D01*
G01*
X135350000Y-105012500D01*
G75*
G02*
X135287500Y-105075000I-62500J0D01*
G01*
G37*
G04 #@! TD.AperFunction*
G04 #@! TA.AperFunction,SMDPad,CuDef*
G36*
G01*
X135287500Y-104575000D02*
X134612500Y-104575000D01*
G75*
G02*
X134550000Y-104512500I0J62500D01*
G01*
X134550000Y-104387500D01*
G75*
G02*
X134612500Y-104325000I62500J0D01*
G01*
X135287500Y-104325000D01*
G75*
G02*
X135350000Y-104387500I0J-62500D01*
G01*
X135350000Y-104512500D01*
G75*
G02*
X135287500Y-104575000I-62500J0D01*
G01*
G37*
G04 #@! TD.AperFunction*
G04 #@! TA.AperFunction,SMDPad,CuDef*
G36*
G01*
X135287500Y-104075000D02*
X134612500Y-104075000D01*
G75*
G02*
X134550000Y-104012500I0J62500D01*
G01*
X134550000Y-103887500D01*
G75*
G02*
X134612500Y-103825000I62500J0D01*
G01*
X135287500Y-103825000D01*
G75*
G02*
X135350000Y-103887500I0J-62500D01*
G01*
X135350000Y-104012500D01*
G75*
G02*
X135287500Y-104075000I-62500J0D01*
G01*
G37*
G04 #@! TD.AperFunction*
G04 #@! TA.AperFunction,SMDPad,CuDef*
G36*
G01*
X135287500Y-103575000D02*
X134612500Y-103575000D01*
G75*
G02*
X134550000Y-103512500I0J62500D01*
G01*
X134550000Y-103387500D01*
G75*
G02*
X134612500Y-103325000I62500J0D01*
G01*
X135287500Y-103325000D01*
G75*
G02*
X135350000Y-103387500I0J-62500D01*
G01*
X135350000Y-103512500D01*
G75*
G02*
X135287500Y-103575000I-62500J0D01*
G01*
G37*
G04 #@! TD.AperFunction*
G04 #@! TA.AperFunction,SMDPad,CuDef*
G36*
G01*
X135287500Y-103075000D02*
X134612500Y-103075000D01*
G75*
G02*
X134550000Y-103012500I0J62500D01*
G01*
X134550000Y-102887500D01*
G75*
G02*
X134612500Y-102825000I62500J0D01*
G01*
X135287500Y-102825000D01*
G75*
G02*
X135350000Y-102887500I0J-62500D01*
G01*
X135350000Y-103012500D01*
G75*
G02*
X135287500Y-103075000I-62500J0D01*
G01*
G37*
G04 #@! TD.AperFunction*
G04 #@! TA.AperFunction,SMDPad,CuDef*
G36*
G01*
X135287500Y-102575000D02*
X134612500Y-102575000D01*
G75*
G02*
X134550000Y-102512500I0J62500D01*
G01*
X134550000Y-102387500D01*
G75*
G02*
X134612500Y-102325000I62500J0D01*
G01*
X135287500Y-102325000D01*
G75*
G02*
X135350000Y-102387500I0J-62500D01*
G01*
X135350000Y-102512500D01*
G75*
G02*
X135287500Y-102575000I-62500J0D01*
G01*
G37*
G04 #@! TD.AperFunction*
G04 #@! TA.AperFunction,SMDPad,CuDef*
G36*
G01*
X135287500Y-102075000D02*
X134612500Y-102075000D01*
G75*
G02*
X134550000Y-102012500I0J62500D01*
G01*
X134550000Y-101887500D01*
G75*
G02*
X134612500Y-101825000I62500J0D01*
G01*
X135287500Y-101825000D01*
G75*
G02*
X135350000Y-101887500I0J-62500D01*
G01*
X135350000Y-102012500D01*
G75*
G02*
X135287500Y-102075000I-62500J0D01*
G01*
G37*
G04 #@! TD.AperFunction*
G04 #@! TA.AperFunction,SMDPad,CuDef*
G36*
G01*
X135287500Y-101575000D02*
X134612500Y-101575000D01*
G75*
G02*
X134550000Y-101512500I0J62500D01*
G01*
X134550000Y-101387500D01*
G75*
G02*
X134612500Y-101325000I62500J0D01*
G01*
X135287500Y-101325000D01*
G75*
G02*
X135350000Y-101387500I0J-62500D01*
G01*
X135350000Y-101512500D01*
G75*
G02*
X135287500Y-101575000I-62500J0D01*
G01*
G37*
G04 #@! TD.AperFunction*
G04 #@! TA.AperFunction,SMDPad,CuDef*
G36*
G01*
X134312500Y-101150000D02*
X134187500Y-101150000D01*
G75*
G02*
X134125000Y-101087500I0J62500D01*
G01*
X134125000Y-100412500D01*
G75*
G02*
X134187500Y-100350000I62500J0D01*
G01*
X134312500Y-100350000D01*
G75*
G02*
X134375000Y-100412500I0J-62500D01*
G01*
X134375000Y-101087500D01*
G75*
G02*
X134312500Y-101150000I-62500J0D01*
G01*
G37*
G04 #@! TD.AperFunction*
G04 #@! TA.AperFunction,SMDPad,CuDef*
G36*
G01*
X133812500Y-101150000D02*
X133687500Y-101150000D01*
G75*
G02*
X133625000Y-101087500I0J62500D01*
G01*
X133625000Y-100412500D01*
G75*
G02*
X133687500Y-100350000I62500J0D01*
G01*
X133812500Y-100350000D01*
G75*
G02*
X133875000Y-100412500I0J-62500D01*
G01*
X133875000Y-101087500D01*
G75*
G02*
X133812500Y-101150000I-62500J0D01*
G01*
G37*
G04 #@! TD.AperFunction*
G04 #@! TA.AperFunction,SMDPad,CuDef*
G36*
G01*
X133312500Y-101150000D02*
X133187500Y-101150000D01*
G75*
G02*
X133125000Y-101087500I0J62500D01*
G01*
X133125000Y-100412500D01*
G75*
G02*
X133187500Y-100350000I62500J0D01*
G01*
X133312500Y-100350000D01*
G75*
G02*
X133375000Y-100412500I0J-62500D01*
G01*
X133375000Y-101087500D01*
G75*
G02*
X133312500Y-101150000I-62500J0D01*
G01*
G37*
G04 #@! TD.AperFunction*
G04 #@! TA.AperFunction,SMDPad,CuDef*
G36*
G01*
X132812500Y-101150000D02*
X132687500Y-101150000D01*
G75*
G02*
X132625000Y-101087500I0J62500D01*
G01*
X132625000Y-100412500D01*
G75*
G02*
X132687500Y-100350000I62500J0D01*
G01*
X132812500Y-100350000D01*
G75*
G02*
X132875000Y-100412500I0J-62500D01*
G01*
X132875000Y-101087500D01*
G75*
G02*
X132812500Y-101150000I-62500J0D01*
G01*
G37*
G04 #@! TD.AperFunction*
G04 #@! TA.AperFunction,SMDPad,CuDef*
G36*
G01*
X132312500Y-101150000D02*
X132187500Y-101150000D01*
G75*
G02*
X132125000Y-101087500I0J62500D01*
G01*
X132125000Y-100412500D01*
G75*
G02*
X132187500Y-100350000I62500J0D01*
G01*
X132312500Y-100350000D01*
G75*
G02*
X132375000Y-100412500I0J-62500D01*
G01*
X132375000Y-101087500D01*
G75*
G02*
X132312500Y-101150000I-62500J0D01*
G01*
G37*
G04 #@! TD.AperFunction*
G04 #@! TA.AperFunction,SMDPad,CuDef*
G36*
G01*
X131812500Y-101150000D02*
X131687500Y-101150000D01*
G75*
G02*
X131625000Y-101087500I0J62500D01*
G01*
X131625000Y-100412500D01*
G75*
G02*
X131687500Y-100350000I62500J0D01*
G01*
X131812500Y-100350000D01*
G75*
G02*
X131875000Y-100412500I0J-62500D01*
G01*
X131875000Y-101087500D01*
G75*
G02*
X131812500Y-101150000I-62500J0D01*
G01*
G37*
G04 #@! TD.AperFunction*
G04 #@! TA.AperFunction,SMDPad,CuDef*
G36*
G01*
X131312500Y-101150000D02*
X131187500Y-101150000D01*
G75*
G02*
X131125000Y-101087500I0J62500D01*
G01*
X131125000Y-100412500D01*
G75*
G02*
X131187500Y-100350000I62500J0D01*
G01*
X131312500Y-100350000D01*
G75*
G02*
X131375000Y-100412500I0J-62500D01*
G01*
X131375000Y-101087500D01*
G75*
G02*
X131312500Y-101150000I-62500J0D01*
G01*
G37*
G04 #@! TD.AperFunction*
G04 #@! TA.AperFunction,SMDPad,CuDef*
G36*
G01*
X130812500Y-101150000D02*
X130687500Y-101150000D01*
G75*
G02*
X130625000Y-101087500I0J62500D01*
G01*
X130625000Y-100412500D01*
G75*
G02*
X130687500Y-100350000I62500J0D01*
G01*
X130812500Y-100350000D01*
G75*
G02*
X130875000Y-100412500I0J-62500D01*
G01*
X130875000Y-101087500D01*
G75*
G02*
X130812500Y-101150000I-62500J0D01*
G01*
G37*
G04 #@! TD.AperFunction*
G04 #@! TA.AperFunction,SMDPad,CuDef*
G36*
G01*
X130312500Y-101150000D02*
X130187500Y-101150000D01*
G75*
G02*
X130125000Y-101087500I0J62500D01*
G01*
X130125000Y-100412500D01*
G75*
G02*
X130187500Y-100350000I62500J0D01*
G01*
X130312500Y-100350000D01*
G75*
G02*
X130375000Y-100412500I0J-62500D01*
G01*
X130375000Y-101087500D01*
G75*
G02*
X130312500Y-101150000I-62500J0D01*
G01*
G37*
G04 #@! TD.AperFunction*
G04 #@! TA.AperFunction,SMDPad,CuDef*
G36*
G01*
X129812500Y-101150000D02*
X129687500Y-101150000D01*
G75*
G02*
X129625000Y-101087500I0J62500D01*
G01*
X129625000Y-100412500D01*
G75*
G02*
X129687500Y-100350000I62500J0D01*
G01*
X129812500Y-100350000D01*
G75*
G02*
X129875000Y-100412500I0J-62500D01*
G01*
X129875000Y-101087500D01*
G75*
G02*
X129812500Y-101150000I-62500J0D01*
G01*
G37*
G04 #@! TD.AperFunction*
G04 #@! TA.AperFunction,SMDPad,CuDef*
G36*
G01*
X129312500Y-101150000D02*
X129187500Y-101150000D01*
G75*
G02*
X129125000Y-101087500I0J62500D01*
G01*
X129125000Y-100412500D01*
G75*
G02*
X129187500Y-100350000I62500J0D01*
G01*
X129312500Y-100350000D01*
G75*
G02*
X129375000Y-100412500I0J-62500D01*
G01*
X129375000Y-101087500D01*
G75*
G02*
X129312500Y-101150000I-62500J0D01*
G01*
G37*
G04 #@! TD.AperFunction*
G04 #@! TA.AperFunction,SMDPad,CuDef*
G36*
G01*
X128812500Y-101150000D02*
X128687500Y-101150000D01*
G75*
G02*
X128625000Y-101087500I0J62500D01*
G01*
X128625000Y-100412500D01*
G75*
G02*
X128687500Y-100350000I62500J0D01*
G01*
X128812500Y-100350000D01*
G75*
G02*
X128875000Y-100412500I0J-62500D01*
G01*
X128875000Y-101087500D01*
G75*
G02*
X128812500Y-101150000I-62500J0D01*
G01*
G37*
G04 #@! TD.AperFunction*
G04 #@! TA.AperFunction,SMDPad,CuDef*
G36*
G01*
X128387500Y-101575000D02*
X127712500Y-101575000D01*
G75*
G02*
X127650000Y-101512500I0J62500D01*
G01*
X127650000Y-101387500D01*
G75*
G02*
X127712500Y-101325000I62500J0D01*
G01*
X128387500Y-101325000D01*
G75*
G02*
X128450000Y-101387500I0J-62500D01*
G01*
X128450000Y-101512500D01*
G75*
G02*
X128387500Y-101575000I-62500J0D01*
G01*
G37*
G04 #@! TD.AperFunction*
G04 #@! TA.AperFunction,SMDPad,CuDef*
G36*
G01*
X128387500Y-102075000D02*
X127712500Y-102075000D01*
G75*
G02*
X127650000Y-102012500I0J62500D01*
G01*
X127650000Y-101887500D01*
G75*
G02*
X127712500Y-101825000I62500J0D01*
G01*
X128387500Y-101825000D01*
G75*
G02*
X128450000Y-101887500I0J-62500D01*
G01*
X128450000Y-102012500D01*
G75*
G02*
X128387500Y-102075000I-62500J0D01*
G01*
G37*
G04 #@! TD.AperFunction*
G04 #@! TA.AperFunction,SMDPad,CuDef*
G36*
G01*
X128387500Y-102575000D02*
X127712500Y-102575000D01*
G75*
G02*
X127650000Y-102512500I0J62500D01*
G01*
X127650000Y-102387500D01*
G75*
G02*
X127712500Y-102325000I62500J0D01*
G01*
X128387500Y-102325000D01*
G75*
G02*
X128450000Y-102387500I0J-62500D01*
G01*
X128450000Y-102512500D01*
G75*
G02*
X128387500Y-102575000I-62500J0D01*
G01*
G37*
G04 #@! TD.AperFunction*
G04 #@! TA.AperFunction,SMDPad,CuDef*
G36*
G01*
X128387500Y-103075000D02*
X127712500Y-103075000D01*
G75*
G02*
X127650000Y-103012500I0J62500D01*
G01*
X127650000Y-102887500D01*
G75*
G02*
X127712500Y-102825000I62500J0D01*
G01*
X128387500Y-102825000D01*
G75*
G02*
X128450000Y-102887500I0J-62500D01*
G01*
X128450000Y-103012500D01*
G75*
G02*
X128387500Y-103075000I-62500J0D01*
G01*
G37*
G04 #@! TD.AperFunction*
G04 #@! TA.AperFunction,SMDPad,CuDef*
G36*
G01*
X128387500Y-103575000D02*
X127712500Y-103575000D01*
G75*
G02*
X127650000Y-103512500I0J62500D01*
G01*
X127650000Y-103387500D01*
G75*
G02*
X127712500Y-103325000I62500J0D01*
G01*
X128387500Y-103325000D01*
G75*
G02*
X128450000Y-103387500I0J-62500D01*
G01*
X128450000Y-103512500D01*
G75*
G02*
X128387500Y-103575000I-62500J0D01*
G01*
G37*
G04 #@! TD.AperFunction*
G04 #@! TA.AperFunction,SMDPad,CuDef*
G36*
G01*
X128387500Y-104075000D02*
X127712500Y-104075000D01*
G75*
G02*
X127650000Y-104012500I0J62500D01*
G01*
X127650000Y-103887500D01*
G75*
G02*
X127712500Y-103825000I62500J0D01*
G01*
X128387500Y-103825000D01*
G75*
G02*
X128450000Y-103887500I0J-62500D01*
G01*
X128450000Y-104012500D01*
G75*
G02*
X128387500Y-104075000I-62500J0D01*
G01*
G37*
G04 #@! TD.AperFunction*
G04 #@! TA.AperFunction,SMDPad,CuDef*
G36*
G01*
X128387500Y-104575000D02*
X127712500Y-104575000D01*
G75*
G02*
X127650000Y-104512500I0J62500D01*
G01*
X127650000Y-104387500D01*
G75*
G02*
X127712500Y-104325000I62500J0D01*
G01*
X128387500Y-104325000D01*
G75*
G02*
X128450000Y-104387500I0J-62500D01*
G01*
X128450000Y-104512500D01*
G75*
G02*
X128387500Y-104575000I-62500J0D01*
G01*
G37*
G04 #@! TD.AperFunction*
G04 #@! TA.AperFunction,SMDPad,CuDef*
G36*
G01*
X128387500Y-105075000D02*
X127712500Y-105075000D01*
G75*
G02*
X127650000Y-105012500I0J62500D01*
G01*
X127650000Y-104887500D01*
G75*
G02*
X127712500Y-104825000I62500J0D01*
G01*
X128387500Y-104825000D01*
G75*
G02*
X128450000Y-104887500I0J-62500D01*
G01*
X128450000Y-105012500D01*
G75*
G02*
X128387500Y-105075000I-62500J0D01*
G01*
G37*
G04 #@! TD.AperFunction*
G04 #@! TA.AperFunction,SMDPad,CuDef*
G36*
G01*
X128387500Y-105575000D02*
X127712500Y-105575000D01*
G75*
G02*
X127650000Y-105512500I0J62500D01*
G01*
X127650000Y-105387500D01*
G75*
G02*
X127712500Y-105325000I62500J0D01*
G01*
X128387500Y-105325000D01*
G75*
G02*
X128450000Y-105387500I0J-62500D01*
G01*
X128450000Y-105512500D01*
G75*
G02*
X128387500Y-105575000I-62500J0D01*
G01*
G37*
G04 #@! TD.AperFunction*
G04 #@! TA.AperFunction,SMDPad,CuDef*
G36*
G01*
X128387500Y-106075000D02*
X127712500Y-106075000D01*
G75*
G02*
X127650000Y-106012500I0J62500D01*
G01*
X127650000Y-105887500D01*
G75*
G02*
X127712500Y-105825000I62500J0D01*
G01*
X128387500Y-105825000D01*
G75*
G02*
X128450000Y-105887500I0J-62500D01*
G01*
X128450000Y-106012500D01*
G75*
G02*
X128387500Y-106075000I-62500J0D01*
G01*
G37*
G04 #@! TD.AperFunction*
G04 #@! TA.AperFunction,SMDPad,CuDef*
G36*
G01*
X128387500Y-106575000D02*
X127712500Y-106575000D01*
G75*
G02*
X127650000Y-106512500I0J62500D01*
G01*
X127650000Y-106387500D01*
G75*
G02*
X127712500Y-106325000I62500J0D01*
G01*
X128387500Y-106325000D01*
G75*
G02*
X128450000Y-106387500I0J-62500D01*
G01*
X128450000Y-106512500D01*
G75*
G02*
X128387500Y-106575000I-62500J0D01*
G01*
G37*
G04 #@! TD.AperFunction*
G04 #@! TA.AperFunction,SMDPad,CuDef*
G36*
G01*
X128387500Y-107075000D02*
X127712500Y-107075000D01*
G75*
G02*
X127650000Y-107012500I0J62500D01*
G01*
X127650000Y-106887500D01*
G75*
G02*
X127712500Y-106825000I62500J0D01*
G01*
X128387500Y-106825000D01*
G75*
G02*
X128450000Y-106887500I0J-62500D01*
G01*
X128450000Y-107012500D01*
G75*
G02*
X128387500Y-107075000I-62500J0D01*
G01*
G37*
G04 #@! TD.AperFunction*
G04 #@! TA.AperFunction,SMDPad,CuDef*
G36*
G01*
X115535000Y-107527500D02*
X115535000Y-107872500D01*
G75*
G02*
X115387500Y-108020000I-147500J0D01*
G01*
X115092500Y-108020000D01*
G75*
G02*
X114945000Y-107872500I0J147500D01*
G01*
X114945000Y-107527500D01*
G75*
G02*
X115092500Y-107380000I147500J0D01*
G01*
X115387500Y-107380000D01*
G75*
G02*
X115535000Y-107527500I0J-147500D01*
G01*
G37*
G04 #@! TD.AperFunction*
G04 #@! TA.AperFunction,SMDPad,CuDef*
G36*
G01*
X116505000Y-107527500D02*
X116505000Y-107872500D01*
G75*
G02*
X116357500Y-108020000I-147500J0D01*
G01*
X116062500Y-108020000D01*
G75*
G02*
X115915000Y-107872500I0J147500D01*
G01*
X115915000Y-107527500D01*
G75*
G02*
X116062500Y-107380000I147500J0D01*
G01*
X116357500Y-107380000D01*
G75*
G02*
X116505000Y-107527500I0J-147500D01*
G01*
G37*
G04 #@! TD.AperFunction*
G04 #@! TA.AperFunction,SMDPad,CuDef*
G36*
G01*
X136827500Y-107075000D02*
X137172500Y-107075000D01*
G75*
G02*
X137320000Y-107222500I0J-147500D01*
G01*
X137320000Y-107517500D01*
G75*
G02*
X137172500Y-107665000I-147500J0D01*
G01*
X136827500Y-107665000D01*
G75*
G02*
X136680000Y-107517500I0J147500D01*
G01*
X136680000Y-107222500D01*
G75*
G02*
X136827500Y-107075000I147500J0D01*
G01*
G37*
G04 #@! TD.AperFunction*
G04 #@! TA.AperFunction,SMDPad,CuDef*
G36*
G01*
X136827500Y-106105000D02*
X137172500Y-106105000D01*
G75*
G02*
X137320000Y-106252500I0J-147500D01*
G01*
X137320000Y-106547500D01*
G75*
G02*
X137172500Y-106695000I-147500J0D01*
G01*
X136827500Y-106695000D01*
G75*
G02*
X136680000Y-106547500I0J147500D01*
G01*
X136680000Y-106252500D01*
G75*
G02*
X136827500Y-106105000I147500J0D01*
G01*
G37*
G04 #@! TD.AperFunction*
G04 #@! TA.AperFunction,SMDPad,CuDef*
G36*
G01*
X120300000Y-104700000D02*
X122400000Y-104700000D01*
G75*
G02*
X122650000Y-104950000I0J-250000D01*
G01*
X122650000Y-107050000D01*
G75*
G02*
X122400000Y-107300000I-250000J0D01*
G01*
X120300000Y-107300000D01*
G75*
G02*
X120050000Y-107050000I0J250000D01*
G01*
X120050000Y-104950000D01*
G75*
G02*
X120300000Y-104700000I250000J0D01*
G01*
G37*
G04 #@! TD.AperFunction*
G04 #@! TA.AperFunction,SMDPad,CuDef*
G36*
G01*
X122537500Y-103650000D02*
X122662500Y-103650000D01*
G75*
G02*
X122725000Y-103712500I0J-62500D01*
G01*
X122725000Y-104412500D01*
G75*
G02*
X122662500Y-104475000I-62500J0D01*
G01*
X122537500Y-104475000D01*
G75*
G02*
X122475000Y-104412500I0J62500D01*
G01*
X122475000Y-103712500D01*
G75*
G02*
X122537500Y-103650000I62500J0D01*
G01*
G37*
G04 #@! TD.AperFunction*
G04 #@! TA.AperFunction,SMDPad,CuDef*
G36*
G01*
X122037500Y-103650000D02*
X122162500Y-103650000D01*
G75*
G02*
X122225000Y-103712500I0J-62500D01*
G01*
X122225000Y-104412500D01*
G75*
G02*
X122162500Y-104475000I-62500J0D01*
G01*
X122037500Y-104475000D01*
G75*
G02*
X121975000Y-104412500I0J62500D01*
G01*
X121975000Y-103712500D01*
G75*
G02*
X122037500Y-103650000I62500J0D01*
G01*
G37*
G04 #@! TD.AperFunction*
G04 #@! TA.AperFunction,SMDPad,CuDef*
G36*
G01*
X121537500Y-103650000D02*
X121662500Y-103650000D01*
G75*
G02*
X121725000Y-103712500I0J-62500D01*
G01*
X121725000Y-104412500D01*
G75*
G02*
X121662500Y-104475000I-62500J0D01*
G01*
X121537500Y-104475000D01*
G75*
G02*
X121475000Y-104412500I0J62500D01*
G01*
X121475000Y-103712500D01*
G75*
G02*
X121537500Y-103650000I62500J0D01*
G01*
G37*
G04 #@! TD.AperFunction*
G04 #@! TA.AperFunction,SMDPad,CuDef*
G36*
G01*
X121037500Y-103650000D02*
X121162500Y-103650000D01*
G75*
G02*
X121225000Y-103712500I0J-62500D01*
G01*
X121225000Y-104412500D01*
G75*
G02*
X121162500Y-104475000I-62500J0D01*
G01*
X121037500Y-104475000D01*
G75*
G02*
X120975000Y-104412500I0J62500D01*
G01*
X120975000Y-103712500D01*
G75*
G02*
X121037500Y-103650000I62500J0D01*
G01*
G37*
G04 #@! TD.AperFunction*
G04 #@! TA.AperFunction,SMDPad,CuDef*
G36*
G01*
X120537500Y-103650000D02*
X120662500Y-103650000D01*
G75*
G02*
X120725000Y-103712500I0J-62500D01*
G01*
X120725000Y-104412500D01*
G75*
G02*
X120662500Y-104475000I-62500J0D01*
G01*
X120537500Y-104475000D01*
G75*
G02*
X120475000Y-104412500I0J62500D01*
G01*
X120475000Y-103712500D01*
G75*
G02*
X120537500Y-103650000I62500J0D01*
G01*
G37*
G04 #@! TD.AperFunction*
G04 #@! TA.AperFunction,SMDPad,CuDef*
G36*
G01*
X120037500Y-103650000D02*
X120162500Y-103650000D01*
G75*
G02*
X120225000Y-103712500I0J-62500D01*
G01*
X120225000Y-104412500D01*
G75*
G02*
X120162500Y-104475000I-62500J0D01*
G01*
X120037500Y-104475000D01*
G75*
G02*
X119975000Y-104412500I0J62500D01*
G01*
X119975000Y-103712500D01*
G75*
G02*
X120037500Y-103650000I62500J0D01*
G01*
G37*
G04 #@! TD.AperFunction*
G04 #@! TA.AperFunction,SMDPad,CuDef*
G36*
G01*
X119062500Y-104625000D02*
X119762500Y-104625000D01*
G75*
G02*
X119825000Y-104687500I0J-62500D01*
G01*
X119825000Y-104812500D01*
G75*
G02*
X119762500Y-104875000I-62500J0D01*
G01*
X119062500Y-104875000D01*
G75*
G02*
X119000000Y-104812500I0J62500D01*
G01*
X119000000Y-104687500D01*
G75*
G02*
X119062500Y-104625000I62500J0D01*
G01*
G37*
G04 #@! TD.AperFunction*
G04 #@! TA.AperFunction,SMDPad,CuDef*
G36*
G01*
X119062500Y-105125000D02*
X119762500Y-105125000D01*
G75*
G02*
X119825000Y-105187500I0J-62500D01*
G01*
X119825000Y-105312500D01*
G75*
G02*
X119762500Y-105375000I-62500J0D01*
G01*
X119062500Y-105375000D01*
G75*
G02*
X119000000Y-105312500I0J62500D01*
G01*
X119000000Y-105187500D01*
G75*
G02*
X119062500Y-105125000I62500J0D01*
G01*
G37*
G04 #@! TD.AperFunction*
G04 #@! TA.AperFunction,SMDPad,CuDef*
G36*
G01*
X119062500Y-105625000D02*
X119762500Y-105625000D01*
G75*
G02*
X119825000Y-105687500I0J-62500D01*
G01*
X119825000Y-105812500D01*
G75*
G02*
X119762500Y-105875000I-62500J0D01*
G01*
X119062500Y-105875000D01*
G75*
G02*
X119000000Y-105812500I0J62500D01*
G01*
X119000000Y-105687500D01*
G75*
G02*
X119062500Y-105625000I62500J0D01*
G01*
G37*
G04 #@! TD.AperFunction*
G04 #@! TA.AperFunction,SMDPad,CuDef*
G36*
G01*
X119062500Y-106125000D02*
X119762500Y-106125000D01*
G75*
G02*
X119825000Y-106187500I0J-62500D01*
G01*
X119825000Y-106312500D01*
G75*
G02*
X119762500Y-106375000I-62500J0D01*
G01*
X119062500Y-106375000D01*
G75*
G02*
X119000000Y-106312500I0J62500D01*
G01*
X119000000Y-106187500D01*
G75*
G02*
X119062500Y-106125000I62500J0D01*
G01*
G37*
G04 #@! TD.AperFunction*
G04 #@! TA.AperFunction,SMDPad,CuDef*
G36*
G01*
X119062500Y-106625000D02*
X119762500Y-106625000D01*
G75*
G02*
X119825000Y-106687500I0J-62500D01*
G01*
X119825000Y-106812500D01*
G75*
G02*
X119762500Y-106875000I-62500J0D01*
G01*
X119062500Y-106875000D01*
G75*
G02*
X119000000Y-106812500I0J62500D01*
G01*
X119000000Y-106687500D01*
G75*
G02*
X119062500Y-106625000I62500J0D01*
G01*
G37*
G04 #@! TD.AperFunction*
G04 #@! TA.AperFunction,SMDPad,CuDef*
G36*
G01*
X119062500Y-107125000D02*
X119762500Y-107125000D01*
G75*
G02*
X119825000Y-107187500I0J-62500D01*
G01*
X119825000Y-107312500D01*
G75*
G02*
X119762500Y-107375000I-62500J0D01*
G01*
X119062500Y-107375000D01*
G75*
G02*
X119000000Y-107312500I0J62500D01*
G01*
X119000000Y-107187500D01*
G75*
G02*
X119062500Y-107125000I62500J0D01*
G01*
G37*
G04 #@! TD.AperFunction*
G04 #@! TA.AperFunction,SMDPad,CuDef*
G36*
G01*
X120037500Y-107525000D02*
X120162500Y-107525000D01*
G75*
G02*
X120225000Y-107587500I0J-62500D01*
G01*
X120225000Y-108287500D01*
G75*
G02*
X120162500Y-108350000I-62500J0D01*
G01*
X120037500Y-108350000D01*
G75*
G02*
X119975000Y-108287500I0J62500D01*
G01*
X119975000Y-107587500D01*
G75*
G02*
X120037500Y-107525000I62500J0D01*
G01*
G37*
G04 #@! TD.AperFunction*
G04 #@! TA.AperFunction,SMDPad,CuDef*
G36*
G01*
X120537500Y-107525000D02*
X120662500Y-107525000D01*
G75*
G02*
X120725000Y-107587500I0J-62500D01*
G01*
X120725000Y-108287500D01*
G75*
G02*
X120662500Y-108350000I-62500J0D01*
G01*
X120537500Y-108350000D01*
G75*
G02*
X120475000Y-108287500I0J62500D01*
G01*
X120475000Y-107587500D01*
G75*
G02*
X120537500Y-107525000I62500J0D01*
G01*
G37*
G04 #@! TD.AperFunction*
G04 #@! TA.AperFunction,SMDPad,CuDef*
G36*
G01*
X121037500Y-107525000D02*
X121162500Y-107525000D01*
G75*
G02*
X121225000Y-107587500I0J-62500D01*
G01*
X121225000Y-108287500D01*
G75*
G02*
X121162500Y-108350000I-62500J0D01*
G01*
X121037500Y-108350000D01*
G75*
G02*
X120975000Y-108287500I0J62500D01*
G01*
X120975000Y-107587500D01*
G75*
G02*
X121037500Y-107525000I62500J0D01*
G01*
G37*
G04 #@! TD.AperFunction*
G04 #@! TA.AperFunction,SMDPad,CuDef*
G36*
G01*
X121537500Y-107525000D02*
X121662500Y-107525000D01*
G75*
G02*
X121725000Y-107587500I0J-62500D01*
G01*
X121725000Y-108287500D01*
G75*
G02*
X121662500Y-108350000I-62500J0D01*
G01*
X121537500Y-108350000D01*
G75*
G02*
X121475000Y-108287500I0J62500D01*
G01*
X121475000Y-107587500D01*
G75*
G02*
X121537500Y-107525000I62500J0D01*
G01*
G37*
G04 #@! TD.AperFunction*
G04 #@! TA.AperFunction,SMDPad,CuDef*
G36*
G01*
X122037500Y-107525000D02*
X122162500Y-107525000D01*
G75*
G02*
X122225000Y-107587500I0J-62500D01*
G01*
X122225000Y-108287500D01*
G75*
G02*
X122162500Y-108350000I-62500J0D01*
G01*
X122037500Y-108350000D01*
G75*
G02*
X121975000Y-108287500I0J62500D01*
G01*
X121975000Y-107587500D01*
G75*
G02*
X122037500Y-107525000I62500J0D01*
G01*
G37*
G04 #@! TD.AperFunction*
G04 #@! TA.AperFunction,SMDPad,CuDef*
G36*
G01*
X122537500Y-107525000D02*
X122662500Y-107525000D01*
G75*
G02*
X122725000Y-107587500I0J-62500D01*
G01*
X122725000Y-108287500D01*
G75*
G02*
X122662500Y-108350000I-62500J0D01*
G01*
X122537500Y-108350000D01*
G75*
G02*
X122475000Y-108287500I0J62500D01*
G01*
X122475000Y-107587500D01*
G75*
G02*
X122537500Y-107525000I62500J0D01*
G01*
G37*
G04 #@! TD.AperFunction*
G04 #@! TA.AperFunction,SMDPad,CuDef*
G36*
G01*
X122937500Y-107125000D02*
X123637500Y-107125000D01*
G75*
G02*
X123700000Y-107187500I0J-62500D01*
G01*
X123700000Y-107312500D01*
G75*
G02*
X123637500Y-107375000I-62500J0D01*
G01*
X122937500Y-107375000D01*
G75*
G02*
X122875000Y-107312500I0J62500D01*
G01*
X122875000Y-107187500D01*
G75*
G02*
X122937500Y-107125000I62500J0D01*
G01*
G37*
G04 #@! TD.AperFunction*
G04 #@! TA.AperFunction,SMDPad,CuDef*
G36*
G01*
X122937500Y-106625000D02*
X123637500Y-106625000D01*
G75*
G02*
X123700000Y-106687500I0J-62500D01*
G01*
X123700000Y-106812500D01*
G75*
G02*
X123637500Y-106875000I-62500J0D01*
G01*
X122937500Y-106875000D01*
G75*
G02*
X122875000Y-106812500I0J62500D01*
G01*
X122875000Y-106687500D01*
G75*
G02*
X122937500Y-106625000I62500J0D01*
G01*
G37*
G04 #@! TD.AperFunction*
G04 #@! TA.AperFunction,SMDPad,CuDef*
G36*
G01*
X122937500Y-106125000D02*
X123637500Y-106125000D01*
G75*
G02*
X123700000Y-106187500I0J-62500D01*
G01*
X123700000Y-106312500D01*
G75*
G02*
X123637500Y-106375000I-62500J0D01*
G01*
X122937500Y-106375000D01*
G75*
G02*
X122875000Y-106312500I0J62500D01*
G01*
X122875000Y-106187500D01*
G75*
G02*
X122937500Y-106125000I62500J0D01*
G01*
G37*
G04 #@! TD.AperFunction*
G04 #@! TA.AperFunction,SMDPad,CuDef*
G36*
G01*
X122937500Y-105625000D02*
X123637500Y-105625000D01*
G75*
G02*
X123700000Y-105687500I0J-62500D01*
G01*
X123700000Y-105812500D01*
G75*
G02*
X123637500Y-105875000I-62500J0D01*
G01*
X122937500Y-105875000D01*
G75*
G02*
X122875000Y-105812500I0J62500D01*
G01*
X122875000Y-105687500D01*
G75*
G02*
X122937500Y-105625000I62500J0D01*
G01*
G37*
G04 #@! TD.AperFunction*
G04 #@! TA.AperFunction,SMDPad,CuDef*
G36*
G01*
X122937500Y-105125000D02*
X123637500Y-105125000D01*
G75*
G02*
X123700000Y-105187500I0J-62500D01*
G01*
X123700000Y-105312500D01*
G75*
G02*
X123637500Y-105375000I-62500J0D01*
G01*
X122937500Y-105375000D01*
G75*
G02*
X122875000Y-105312500I0J62500D01*
G01*
X122875000Y-105187500D01*
G75*
G02*
X122937500Y-105125000I62500J0D01*
G01*
G37*
G04 #@! TD.AperFunction*
G04 #@! TA.AperFunction,SMDPad,CuDef*
G36*
G01*
X122937500Y-104625000D02*
X123637500Y-104625000D01*
G75*
G02*
X123700000Y-104687500I0J-62500D01*
G01*
X123700000Y-104812500D01*
G75*
G02*
X123637500Y-104875000I-62500J0D01*
G01*
X122937500Y-104875000D01*
G75*
G02*
X122875000Y-104812500I0J62500D01*
G01*
X122875000Y-104687500D01*
G75*
G02*
X122937500Y-104625000I62500J0D01*
G01*
G37*
G04 #@! TD.AperFunction*
D19*
X100900000Y-108100000D03*
X100900000Y-100900000D03*
G04 #@! TA.AperFunction,SMDPad,CuDef*
G36*
G01*
X115040000Y-106672500D02*
X115040000Y-106327500D01*
G75*
G02*
X115187500Y-106180000I147500J0D01*
G01*
X115482500Y-106180000D01*
G75*
G02*
X115630000Y-106327500I0J-147500D01*
G01*
X115630000Y-106672500D01*
G75*
G02*
X115482500Y-106820000I-147500J0D01*
G01*
X115187500Y-106820000D01*
G75*
G02*
X115040000Y-106672500I0J147500D01*
G01*
G37*
G04 #@! TD.AperFunction*
G04 #@! TA.AperFunction,SMDPad,CuDef*
G36*
G01*
X114070000Y-106672500D02*
X114070000Y-106327500D01*
G75*
G02*
X114217500Y-106180000I147500J0D01*
G01*
X114512500Y-106180000D01*
G75*
G02*
X114660000Y-106327500I0J-147500D01*
G01*
X114660000Y-106672500D01*
G75*
G02*
X114512500Y-106820000I-147500J0D01*
G01*
X114217500Y-106820000D01*
G75*
G02*
X114070000Y-106672500I0J147500D01*
G01*
G37*
G04 #@! TD.AperFunction*
G04 #@! TA.AperFunction,SMDPad,CuDef*
G36*
G01*
X108173500Y-108250000D02*
X107828500Y-108250000D01*
G75*
G02*
X107681000Y-108102500I0J147500D01*
G01*
X107681000Y-107807500D01*
G75*
G02*
X107828500Y-107660000I147500J0D01*
G01*
X108173500Y-107660000D01*
G75*
G02*
X108321000Y-107807500I0J-147500D01*
G01*
X108321000Y-108102500D01*
G75*
G02*
X108173500Y-108250000I-147500J0D01*
G01*
G37*
G04 #@! TD.AperFunction*
G04 #@! TA.AperFunction,SMDPad,CuDef*
G36*
G01*
X108173500Y-107280000D02*
X107828500Y-107280000D01*
G75*
G02*
X107681000Y-107132500I0J147500D01*
G01*
X107681000Y-106837500D01*
G75*
G02*
X107828500Y-106690000I147500J0D01*
G01*
X108173500Y-106690000D01*
G75*
G02*
X108321000Y-106837500I0J-147500D01*
G01*
X108321000Y-107132500D01*
G75*
G02*
X108173500Y-107280000I-147500J0D01*
G01*
G37*
G04 #@! TD.AperFunction*
G04 #@! TA.AperFunction,SMDPad,CuDef*
G36*
G01*
X108844500Y-101587000D02*
X109189500Y-101587000D01*
G75*
G02*
X109337000Y-101734500I0J-147500D01*
G01*
X109337000Y-102029500D01*
G75*
G02*
X109189500Y-102177000I-147500J0D01*
G01*
X108844500Y-102177000D01*
G75*
G02*
X108697000Y-102029500I0J147500D01*
G01*
X108697000Y-101734500D01*
G75*
G02*
X108844500Y-101587000I147500J0D01*
G01*
G37*
G04 #@! TD.AperFunction*
G04 #@! TA.AperFunction,SMDPad,CuDef*
G36*
G01*
X108844500Y-100617000D02*
X109189500Y-100617000D01*
G75*
G02*
X109337000Y-100764500I0J-147500D01*
G01*
X109337000Y-101059500D01*
G75*
G02*
X109189500Y-101207000I-147500J0D01*
G01*
X108844500Y-101207000D01*
G75*
G02*
X108697000Y-101059500I0J147500D01*
G01*
X108697000Y-100764500D01*
G75*
G02*
X108844500Y-100617000I147500J0D01*
G01*
G37*
G04 #@! TD.AperFunction*
G04 #@! TA.AperFunction,SMDPad,CuDef*
G36*
G01*
X109334000Y-104617500D02*
X109334000Y-104272500D01*
G75*
G02*
X109481500Y-104125000I147500J0D01*
G01*
X109776500Y-104125000D01*
G75*
G02*
X109924000Y-104272500I0J-147500D01*
G01*
X109924000Y-104617500D01*
G75*
G02*
X109776500Y-104765000I-147500J0D01*
G01*
X109481500Y-104765000D01*
G75*
G02*
X109334000Y-104617500I0J147500D01*
G01*
G37*
G04 #@! TD.AperFunction*
G04 #@! TA.AperFunction,SMDPad,CuDef*
G36*
G01*
X108364000Y-104617500D02*
X108364000Y-104272500D01*
G75*
G02*
X108511500Y-104125000I147500J0D01*
G01*
X108806500Y-104125000D01*
G75*
G02*
X108954000Y-104272500I0J-147500D01*
G01*
X108954000Y-104617500D01*
G75*
G02*
X108806500Y-104765000I-147500J0D01*
G01*
X108511500Y-104765000D01*
G75*
G02*
X108364000Y-104617500I0J147500D01*
G01*
G37*
G04 #@! TD.AperFunction*
G04 #@! TA.AperFunction,SMDPad,CuDef*
G36*
G01*
X138127500Y-107075000D02*
X138472500Y-107075000D01*
G75*
G02*
X138620000Y-107222500I0J-147500D01*
G01*
X138620000Y-107517500D01*
G75*
G02*
X138472500Y-107665000I-147500J0D01*
G01*
X138127500Y-107665000D01*
G75*
G02*
X137980000Y-107517500I0J147500D01*
G01*
X137980000Y-107222500D01*
G75*
G02*
X138127500Y-107075000I147500J0D01*
G01*
G37*
G04 #@! TD.AperFunction*
G04 #@! TA.AperFunction,SMDPad,CuDef*
G36*
G01*
X138127500Y-106105000D02*
X138472500Y-106105000D01*
G75*
G02*
X138620000Y-106252500I0J-147500D01*
G01*
X138620000Y-106547500D01*
G75*
G02*
X138472500Y-106695000I-147500J0D01*
G01*
X138127500Y-106695000D01*
G75*
G02*
X137980000Y-106547500I0J147500D01*
G01*
X137980000Y-106252500D01*
G75*
G02*
X138127500Y-106105000I147500J0D01*
G01*
G37*
G04 #@! TD.AperFunction*
G04 #@! TA.AperFunction,SMDPad,CuDef*
G36*
G01*
X112959000Y-107872500D02*
X112959000Y-107527500D01*
G75*
G02*
X113106500Y-107380000I147500J0D01*
G01*
X113401500Y-107380000D01*
G75*
G02*
X113549000Y-107527500I0J-147500D01*
G01*
X113549000Y-107872500D01*
G75*
G02*
X113401500Y-108020000I-147500J0D01*
G01*
X113106500Y-108020000D01*
G75*
G02*
X112959000Y-107872500I0J147500D01*
G01*
G37*
G04 #@! TD.AperFunction*
G04 #@! TA.AperFunction,SMDPad,CuDef*
G36*
G01*
X113929000Y-107872500D02*
X113929000Y-107527500D01*
G75*
G02*
X114076500Y-107380000I147500J0D01*
G01*
X114371500Y-107380000D01*
G75*
G02*
X114519000Y-107527500I0J-147500D01*
G01*
X114519000Y-107872500D01*
G75*
G02*
X114371500Y-108020000I-147500J0D01*
G01*
X114076500Y-108020000D01*
G75*
G02*
X113929000Y-107872500I0J147500D01*
G01*
G37*
G04 #@! TD.AperFunction*
D21*
X116002000Y-102032000D03*
X111161000Y-103700000D03*
X117214995Y-106900000D03*
X105300000Y-103576000D03*
X106100000Y-103576000D03*
X122098000Y-105270500D03*
X120574000Y-105270500D03*
X120574000Y-106731000D03*
X122098000Y-106731000D03*
X130293500Y-105279500D03*
X132706500Y-105279500D03*
X131500000Y-105279500D03*
X121350000Y-106000000D03*
X132700000Y-103100000D03*
X131500000Y-103100000D03*
X130300000Y-103100000D03*
X139000000Y-102100000D03*
X138450000Y-105500000D03*
X131500000Y-104200000D03*
X132700000Y-104200000D03*
X130300000Y-104200000D03*
X114404012Y-105841302D03*
X105715000Y-104345000D03*
X110600000Y-105900000D03*
X105300000Y-105100000D03*
X106100000Y-105100000D03*
X101481883Y-104608660D03*
X112645606Y-101548453D03*
X117300000Y-105100000D03*
X126800000Y-100625000D03*
X107366000Y-100625010D03*
X110100000Y-101300000D03*
X126625000Y-107750000D03*
X137655500Y-102924970D03*
X136450000Y-102950000D03*
X125000000Y-106249998D03*
X102900000Y-107700000D03*
X125625000Y-105375000D03*
X111430000Y-108196168D03*
X136004500Y-106096000D03*
X127875000Y-107750000D03*
X135750500Y-107302500D03*
X103238500Y-104000500D03*
X108763000Y-103937000D03*
X112446000Y-104064000D03*
X102700000Y-100700000D03*
D22*
X142680500Y-105762500D02*
X139600000Y-105762500D01*
X143050000Y-106132000D02*
X142680500Y-105762500D01*
D23*
X139969500Y-106132000D02*
X139600000Y-105762500D01*
X119200000Y-104537500D02*
X119287500Y-104625000D01*
X120050000Y-103050000D02*
X120050000Y-101350000D01*
X119200000Y-103900000D02*
X119200000Y-104537500D01*
X119200000Y-103900000D02*
X120050000Y-103050000D01*
X119287500Y-104625000D02*
X119412500Y-104750000D01*
X115950000Y-102084000D02*
X116002000Y-102032000D01*
X115950000Y-102950000D02*
X115950000Y-102084000D01*
X111580000Y-105229000D02*
X111161000Y-104810000D01*
X111580000Y-105842000D02*
X111580000Y-105229000D01*
X111580000Y-106017400D02*
X111580000Y-105842000D01*
X112169000Y-106794500D02*
X112169000Y-106606400D01*
X112169000Y-106606400D02*
X111580000Y-106017400D01*
X119388000Y-105250000D02*
X119345000Y-105207000D01*
X119345000Y-105207000D02*
X118542000Y-105207000D01*
X118415000Y-104625000D02*
X119287500Y-104625000D01*
X118415000Y-105080000D02*
X118415000Y-104625000D01*
X119412500Y-105250000D02*
X119388000Y-105250000D01*
X118542000Y-105207000D02*
X118415000Y-105080000D01*
X111161000Y-104810000D02*
X111161000Y-103700000D01*
X116210000Y-103210000D02*
X115950000Y-102950000D01*
X115335000Y-106500000D02*
X116200000Y-106500000D01*
X116200000Y-106500000D02*
X116210000Y-106510000D01*
X116210000Y-107700000D02*
X116210000Y-106510000D01*
X116210000Y-104010000D02*
X116210000Y-103210000D01*
X116210000Y-106510000D02*
X116210000Y-104010000D01*
X116220000Y-104000000D02*
X116210000Y-104010000D01*
X118415000Y-104625000D02*
X117790000Y-104000000D01*
X117790000Y-104000000D02*
X116220000Y-104000000D01*
X115240000Y-107700000D02*
X114224000Y-107700000D01*
X113679002Y-107021998D02*
X113254000Y-107447000D01*
X114644989Y-103643011D02*
X113679002Y-104608998D01*
X113679002Y-104608998D02*
X113679002Y-107021998D01*
X114644989Y-101164989D02*
X114644989Y-103643011D01*
X114530000Y-101050000D02*
X114644989Y-101164989D01*
X113750000Y-101050000D02*
X114530000Y-101050000D01*
X113254000Y-107447000D02*
X113254000Y-107700000D01*
X112633990Y-108068222D02*
X112910778Y-108345010D01*
X112954000Y-108382000D02*
X116853000Y-108382000D01*
X112633990Y-107331778D02*
X112633990Y-108068222D01*
X113208000Y-104443590D02*
X113208000Y-106757768D01*
X113750000Y-102950000D02*
X113750000Y-103901590D01*
X113208000Y-106757768D02*
X112633990Y-107331778D01*
X113750000Y-103901590D02*
X113208000Y-104443590D01*
X112910778Y-108345010D02*
X112917010Y-108345010D01*
X112917010Y-108345010D02*
X112954000Y-108382000D01*
X116853000Y-108382000D02*
X117215000Y-108020000D01*
X117215000Y-108020000D02*
X117215000Y-107700000D01*
X111326000Y-101143000D02*
X111303000Y-101143000D01*
X113012603Y-102950000D02*
X113750000Y-102950000D01*
X111326000Y-101143000D02*
X111326000Y-101263397D01*
X111951000Y-102950000D02*
X113750000Y-102950000D01*
X111811000Y-102810000D02*
X111951000Y-102950000D01*
X117215000Y-107700000D02*
X117215000Y-106900005D01*
X117215000Y-106900005D02*
X117214995Y-106900000D01*
X111326000Y-102325000D02*
X111326000Y-101143000D01*
X111811000Y-102810000D02*
X111326000Y-102325000D01*
X114365000Y-106550000D02*
X114335000Y-106550000D01*
X122650000Y-102950000D02*
X122650000Y-101350000D01*
X122100000Y-104062500D02*
X122100000Y-103500000D01*
X122100000Y-105250000D02*
X121350000Y-106000000D01*
X114365000Y-106550000D02*
X114365000Y-105300000D01*
X122100000Y-103500000D02*
X122650000Y-102950000D01*
X139000000Y-103315000D02*
X139000000Y-102100000D01*
X138450000Y-106250000D02*
X138300000Y-106400000D01*
X145649990Y-108100000D02*
X145600000Y-108100000D01*
X138450000Y-105500000D02*
X138450000Y-106250000D01*
X122100000Y-104062500D02*
X122100000Y-105250000D01*
X106215000Y-104945000D02*
X105715000Y-104445000D01*
X105465000Y-104695000D02*
X105715000Y-104445000D01*
X105465000Y-105995000D02*
X105465000Y-104695000D01*
X105965000Y-104195000D02*
X105715000Y-104445000D01*
X105965000Y-102895000D02*
X105965000Y-104195000D01*
X105465000Y-104195000D02*
X105715000Y-104445000D01*
X105465000Y-102895000D02*
X105465000Y-104195000D01*
X109629000Y-104463232D02*
X109629000Y-104445000D01*
X108682000Y-105410232D02*
X109629000Y-104463232D01*
X108682000Y-105588000D02*
X108682000Y-105410232D01*
X110904000Y-106794500D02*
X110610999Y-106501499D01*
X111199000Y-106794500D02*
X110904000Y-106794500D01*
X108039000Y-104945000D02*
X108682000Y-105588000D01*
X101605000Y-102733000D02*
X101605000Y-102413000D01*
X101605000Y-102797000D02*
X101605000Y-102733000D01*
X101166000Y-103236000D02*
X101605000Y-102797000D01*
X101166000Y-103556000D02*
X101166000Y-103236000D01*
X109629000Y-103937000D02*
X110033000Y-103533000D01*
X109629000Y-104445000D02*
X109629000Y-103937000D01*
X110610999Y-105910999D02*
X110600000Y-105900000D01*
X110610999Y-106501499D02*
X110610999Y-105910999D01*
X105715000Y-104445000D02*
X105715000Y-104785000D01*
X105715000Y-104785000D02*
X105300000Y-105200000D01*
X105715000Y-104815000D02*
X106100000Y-105200000D01*
X105715000Y-104445000D02*
X105715000Y-104815000D01*
X105965000Y-105995000D02*
X106100000Y-105200000D01*
X101166000Y-103556000D02*
X101166000Y-104292777D01*
X101166000Y-104292777D02*
X101481883Y-104608660D01*
X110490200Y-105011200D02*
X109924000Y-104445000D01*
X109924000Y-104445000D02*
X109629000Y-104445000D01*
X110610999Y-105910999D02*
X110490200Y-105790200D01*
X110490200Y-105790200D02*
X110490200Y-105011200D01*
X139000000Y-102100000D02*
X139000000Y-101281000D01*
X138481000Y-100762000D02*
X137848500Y-100762000D01*
X139000000Y-101281000D02*
X138481000Y-100762000D01*
X112296000Y-101143000D02*
X112645606Y-101492606D01*
X113750000Y-102000000D02*
X113097153Y-102000000D01*
X113097153Y-102000000D02*
X112645606Y-101548453D01*
X112645606Y-101492606D02*
X112645606Y-101548453D01*
X117215000Y-105185000D02*
X117300000Y-105100000D01*
X117215000Y-105900000D02*
X117215000Y-105185000D01*
X112296000Y-101124768D02*
X112296000Y-101143000D01*
X111669222Y-100497990D02*
X112296000Y-101124768D01*
X109017000Y-100912000D02*
X109431010Y-100497990D01*
X109431010Y-100497990D02*
X111669222Y-100497990D01*
X104240000Y-104300000D02*
X105715000Y-104300000D01*
X106170000Y-104800000D02*
X105715000Y-104345000D01*
X107190000Y-104800000D02*
X106170000Y-104800000D01*
X107894000Y-104800000D02*
X108039000Y-104945000D01*
X107190000Y-104800000D02*
X107894000Y-104800000D01*
X129050000Y-102001978D02*
X128498022Y-101450000D01*
X128498022Y-101450000D02*
X128450000Y-101450000D01*
X128450000Y-101450000D02*
X128050000Y-101450000D01*
X128050000Y-104450000D02*
X128498022Y-104450000D01*
X128750000Y-107650000D02*
X128750000Y-107201978D01*
X128750000Y-107201978D02*
X129301978Y-106650000D01*
X128450000Y-104450000D02*
X128050000Y-104450000D01*
X126800000Y-101515000D02*
X126800000Y-100625000D01*
X128498022Y-104450000D02*
X128450000Y-104450000D01*
X129175989Y-106524011D02*
X128601978Y-105950000D01*
X129301978Y-106650000D02*
X129175989Y-106524011D01*
X128601978Y-105950000D02*
X128050000Y-105950000D01*
X129301978Y-106650000D02*
X129750000Y-107098022D01*
X129750000Y-107098022D02*
X129750000Y-107650000D01*
X129750000Y-107050000D02*
X130000000Y-106800000D01*
X130250000Y-107050000D02*
X130250000Y-107650000D01*
X129750000Y-107098022D02*
X129750000Y-107050000D01*
X130000000Y-106800000D02*
X130250000Y-107050000D01*
X136775001Y-106175001D02*
X136775001Y-105326979D01*
X137000000Y-106400000D02*
X136775001Y-106175001D01*
X136775001Y-105326979D02*
X135448012Y-103999990D01*
X135350000Y-103950000D02*
X134950000Y-103950000D01*
X135448012Y-103999990D02*
X135350000Y-103999990D01*
X135350000Y-103999990D02*
X135350000Y-103950000D01*
X128050000Y-101450000D02*
X126865000Y-101450000D01*
X126865000Y-101450000D02*
X126800000Y-101515000D01*
X107366000Y-100683500D02*
X106652500Y-101397000D01*
X107366000Y-100625010D02*
X107366000Y-100683500D01*
X107652990Y-100912000D02*
X107366000Y-100625010D01*
X108001000Y-100912000D02*
X107652990Y-100912000D01*
X134401998Y-103950000D02*
X134950000Y-103950000D01*
X129050000Y-102001978D02*
X129301978Y-101750000D01*
X129301978Y-101750000D02*
X133641800Y-101750000D01*
X134000000Y-102108200D02*
X134000000Y-103548002D01*
X133641800Y-101750000D02*
X134000000Y-102108200D01*
X134000000Y-103548002D02*
X134401998Y-103950000D01*
X128783200Y-104450000D02*
X128498022Y-104450000D01*
X129175989Y-106524011D02*
X129050000Y-106398022D01*
X129050000Y-104716800D02*
X128783200Y-104450000D01*
X129050000Y-106398022D02*
X129050000Y-104716800D01*
X129050000Y-104224000D02*
X129050000Y-102001978D01*
X128498022Y-104450000D02*
X128824000Y-104450000D01*
X128824000Y-104450000D02*
X129050000Y-104224000D01*
X110033000Y-101367000D02*
X110100000Y-101300000D01*
X110033000Y-102315000D02*
X110033000Y-101367000D01*
X109785000Y-102315000D02*
X110033000Y-102315000D01*
X109600000Y-102500000D02*
X109785000Y-102315000D01*
X109600000Y-102500000D02*
X109387232Y-102500000D01*
X109385222Y-102502010D02*
X109124988Y-102502010D01*
X109387232Y-102500000D02*
X109385222Y-102502010D01*
X107840002Y-103800000D02*
X107190000Y-103800000D01*
X107840002Y-103786996D02*
X109124988Y-102502010D01*
X107840002Y-103800000D02*
X107840002Y-103786996D01*
X121100000Y-103447000D02*
X120700000Y-103047000D01*
X120700000Y-103047000D02*
X120700000Y-101350000D01*
X121100000Y-104062500D02*
X121100000Y-103447000D01*
X121600000Y-103300000D02*
X121350000Y-103050000D01*
X121600000Y-104062500D02*
X121600000Y-103300000D01*
X121350000Y-103050000D02*
X121350000Y-101350000D01*
X109017000Y-107955000D02*
X108001000Y-107955000D01*
X107114500Y-107955000D02*
X106652500Y-107493000D01*
X108001000Y-107955000D02*
X107114500Y-107955000D01*
X102136000Y-104296000D02*
X102651000Y-104811000D01*
X102136000Y-103556000D02*
X102136000Y-104296000D01*
X106515000Y-108485000D02*
X106515000Y-107493000D01*
X106350010Y-108649990D02*
X106515000Y-108485000D01*
X102651000Y-104936000D02*
X103625001Y-105910001D01*
X102651000Y-104811000D02*
X102651000Y-104936000D01*
X103625001Y-105910001D02*
X103625001Y-108225001D01*
X103625001Y-108225001D02*
X104049990Y-108649990D01*
X104049990Y-108649990D02*
X106350010Y-108649990D01*
X134950000Y-101950000D02*
X136450000Y-101950000D01*
X139000000Y-104285000D02*
X138680000Y-104285000D01*
X138680000Y-104285000D02*
X138540000Y-104425000D01*
X138540000Y-104425000D02*
X137750000Y-104425000D01*
X137000000Y-107370000D02*
X137320000Y-107370000D01*
X137320000Y-107370000D02*
X137645010Y-107044990D01*
X137645010Y-107044990D02*
X137645010Y-104529990D01*
X137645010Y-104529990D02*
X137750000Y-104425000D01*
X137750000Y-104425000D02*
X137750000Y-103850000D01*
X133150000Y-106700000D02*
X133748022Y-106700000D01*
X133748022Y-106700000D02*
X134250000Y-107201978D01*
X134250000Y-107201978D02*
X134250000Y-107250000D01*
X134250000Y-107250000D02*
X134250000Y-107650000D01*
X132750000Y-107100000D02*
X133150000Y-106700000D01*
X132750000Y-107650000D02*
X132750000Y-107100000D01*
X134627501Y-108027501D02*
X136637499Y-108027501D01*
X137000000Y-107665000D02*
X137000000Y-107370000D01*
X136637499Y-108027501D02*
X137000000Y-107665000D01*
X134250000Y-107650000D02*
X134627501Y-108027501D01*
X126800000Y-102485000D02*
X128015000Y-102485000D01*
X128015000Y-102485000D02*
X128050000Y-102450000D01*
X126800000Y-102485000D02*
X126781768Y-102485000D01*
X126781768Y-102485000D02*
X125811768Y-101515000D01*
X125811768Y-101515000D02*
X125600000Y-101515000D01*
X127323232Y-102950000D02*
X127650000Y-102950000D01*
X126416000Y-106032002D02*
X126416000Y-103857232D01*
X127650000Y-102950000D02*
X128050000Y-102950000D01*
X126416000Y-103857232D02*
X127323232Y-102950000D01*
X123287500Y-106250000D02*
X123884433Y-106250000D01*
X125473003Y-106974999D02*
X126416000Y-106032002D01*
X124609432Y-106974999D02*
X125473003Y-106974999D01*
X123884433Y-106250000D02*
X124609432Y-106974999D01*
X126866011Y-106435987D02*
X126866011Y-104043632D01*
X127650000Y-103450000D02*
X128050000Y-103450000D01*
X123287500Y-106750000D02*
X123748022Y-106750000D01*
X126866011Y-104043632D02*
X127459643Y-103450000D01*
X127459643Y-103450000D02*
X127650000Y-103450000D01*
X125876989Y-107425009D02*
X126866011Y-106435987D01*
X124423032Y-107425009D02*
X125876989Y-107425009D01*
X123748022Y-106750000D02*
X124423032Y-107425009D01*
X137100000Y-103275000D02*
X137750000Y-102650000D01*
X137100000Y-103850000D02*
X137100000Y-103275000D01*
X137750000Y-102625000D02*
X137750000Y-102525000D01*
X137750000Y-102525000D02*
X137750000Y-101950000D01*
X137750000Y-102650000D02*
X137750000Y-102625000D01*
X126225001Y-108149999D02*
X126625000Y-107750000D01*
X123287500Y-107250000D02*
X123287500Y-107787500D01*
X123649999Y-108149999D02*
X126225001Y-108149999D01*
X123287500Y-107787500D02*
X123649999Y-108149999D01*
X137750000Y-102830470D02*
X137655500Y-102924970D01*
X137750000Y-102650000D02*
X137750000Y-102830470D01*
X136450000Y-102950000D02*
X136450000Y-103850000D01*
X123287500Y-105250000D02*
X124000002Y-105250000D01*
X124000002Y-105250000D02*
X125000000Y-106249998D01*
X137100000Y-102407484D02*
X136450000Y-103057484D01*
X137100000Y-101950000D02*
X137100000Y-102407484D01*
X136450000Y-103057484D02*
X136450000Y-103850000D01*
X100500000Y-102278000D02*
X100635000Y-102413000D01*
X100500000Y-100900000D02*
X100500000Y-102278000D01*
X100635000Y-102413000D02*
X100381000Y-102667000D01*
X100651000Y-105461000D02*
X100651000Y-104461000D01*
X100381000Y-104191000D02*
X100381000Y-102667000D01*
X100651000Y-104461000D02*
X100381000Y-104191000D01*
X137415000Y-108550000D02*
X129701978Y-108550000D01*
X129250000Y-108098022D02*
X129250000Y-108050000D01*
X129701978Y-108550000D02*
X129250000Y-108098022D01*
X129250000Y-108050000D02*
X129250000Y-107650000D01*
X138300000Y-107370000D02*
X138300000Y-107665000D01*
X138300000Y-107665000D02*
X137415000Y-108550000D01*
D22*
X139600000Y-107337500D02*
X138332500Y-107337500D01*
D23*
X138332500Y-107337500D02*
X138300000Y-107370000D01*
X102651000Y-107451000D02*
X102900000Y-107700000D01*
X102651000Y-106111000D02*
X102651000Y-107451000D01*
X125600000Y-105350000D02*
X125625000Y-105375000D01*
X125600000Y-102485000D02*
X125600000Y-105350000D01*
X115094999Y-103467815D02*
X115094999Y-101125001D01*
X115094999Y-101125001D02*
X115170000Y-101050000D01*
X115170000Y-101050000D02*
X115950000Y-101050000D01*
X115335000Y-103707816D02*
X115094999Y-103467815D01*
X115335000Y-105000000D02*
X115335000Y-103707816D01*
X104240000Y-106955500D02*
X104777500Y-107493000D01*
X104240000Y-105300000D02*
X104240000Y-106955500D01*
X109652000Y-106627000D02*
X110033000Y-107008000D01*
X109652000Y-105588000D02*
X109652000Y-106627000D01*
X109652000Y-106670000D02*
X109652000Y-106627000D01*
X109337000Y-106985000D02*
X109652000Y-106670000D01*
X109017000Y-106985000D02*
X109337000Y-106985000D01*
X109017000Y-106985000D02*
X108001000Y-106985000D01*
X108001000Y-106256000D02*
X107190000Y-105445000D01*
X108001000Y-106985000D02*
X108001000Y-106256000D01*
X107190000Y-105300000D02*
X107190000Y-105445000D01*
X111361832Y-108128000D02*
X111430000Y-108196168D01*
X110264000Y-108128000D02*
X111361832Y-108128000D01*
X134950000Y-106450000D02*
X135650500Y-106450000D01*
X135650500Y-106450000D02*
X136004500Y-106096000D01*
X120600000Y-104062500D02*
X120600000Y-104000000D01*
X120600000Y-104062500D02*
X120600000Y-103900000D01*
X120100000Y-103674400D02*
X120100000Y-104062500D01*
X120472400Y-103530600D02*
X120243800Y-103530600D01*
X120600000Y-104062500D02*
X120600000Y-103658200D01*
X120243800Y-103530600D02*
X120100000Y-103674400D01*
X120600000Y-103658200D02*
X120472400Y-103530600D01*
X104240000Y-101934500D02*
X104777500Y-101397000D01*
X104240000Y-103300000D02*
X104240000Y-101934500D01*
X108001000Y-101882000D02*
X108001000Y-102634000D01*
X108001000Y-101882000D02*
X109017000Y-101882000D01*
X107335000Y-103300000D02*
X108001000Y-102634000D01*
X107190000Y-103300000D02*
X107335000Y-103300000D01*
X137146500Y-100700000D02*
X137070000Y-100700000D01*
X137208500Y-100762000D02*
X137146500Y-100700000D01*
X134950000Y-101450000D02*
X135638000Y-100762000D01*
X135638000Y-100762000D02*
X137208500Y-100762000D01*
X118185000Y-107635000D02*
X118200000Y-107650000D01*
X126989000Y-108636000D02*
X127875000Y-107750000D01*
X118801000Y-108636000D02*
X126989000Y-108636000D01*
X118185000Y-107700000D02*
X118185000Y-108020000D01*
X118185000Y-108020000D02*
X118801000Y-108636000D01*
X134950000Y-106950000D02*
X135398000Y-106950000D01*
X135398000Y-106950000D02*
X135750500Y-107302500D01*
X118185000Y-105900000D02*
X118185000Y-107700000D01*
X103417367Y-103945000D02*
X103245119Y-103772752D01*
X103238500Y-102123500D02*
X103000000Y-101885000D01*
X103238500Y-104000500D02*
X103238500Y-102123500D01*
X103489999Y-104044999D02*
X103489999Y-104710001D01*
X103579998Y-104800000D02*
X103489999Y-104710001D01*
X104240000Y-104800000D02*
X103579998Y-104800000D01*
X103439000Y-103800000D02*
X103238500Y-104000500D01*
X104240000Y-103800000D02*
X103439000Y-103800000D01*
X112550000Y-104899000D02*
X112461000Y-104810000D01*
X112550000Y-105842000D02*
X112550000Y-104899000D01*
X108659000Y-104445000D02*
X108659000Y-104041000D01*
X108659000Y-104041000D02*
X108763000Y-103937000D01*
X112461000Y-104079000D02*
X112446000Y-104064000D01*
X112461000Y-104810000D02*
X112461000Y-104079000D01*
X103000000Y-100915000D02*
X102785000Y-100700000D01*
X102785000Y-100700000D02*
X102700000Y-100700000D01*
X108514000Y-104300000D02*
X107190000Y-104300000D01*
X108659000Y-104445000D02*
X108514000Y-104300000D01*
M02*
