M48
; DRILL file {KiCad (5.1.5)-3} date 1/9/2020 10:28:46 AM
; FORMAT={-:-/ absolute / metric / decimal}
; #@! TF.CreationDate,2020-01-09T10:28:46+01:00
; #@! TF.GenerationSoftware,Kicad,Pcbnew,(5.1.5)-3
FMAT,2
METRIC
T1C0.400
%
G90
G05
T1
X102.75Y-103.2
X103.0Y-105.515
X104.3Y-107.4
X105.35Y-107.5
X106.372Y-101.941
X107.311Y-102.285
X107.535Y-100.7
X108.57Y-104.485
X109.95Y-107.75
X110.05Y-102.85
X110.25Y-101.6
X111.3Y-107.2
X112.25Y-105.0
X112.35Y-106.7
X113.75Y-102.0
X114.425Y-106.35
X115.335Y-105.0
X115.967Y-103.273
X116.069Y-101.975
X117.235Y-105.0
X118.498Y-104.685
X119.2Y-103.9
X121.35Y-106.0
X124.45Y-105.25
X125.725Y-106.825
X126.79Y-101.075
X127.05Y-103.65
X127.803Y-101.1
X129.075Y-101.075
X129.725Y-107.85
X131.728Y-104.601
X131.895Y-106.52
X132.51Y-100.63
X132.525Y-107.85
X132.825Y-105.326
X133.574Y-106.525
X136.25Y-106.6
X136.55Y-101.15
X137.45Y-106.45
X137.65Y-105.45
X138.225Y-102.3
X139.1Y-107.3
X139.55Y-102.35
X139.65Y-104.6
X141.125Y-101.55
X145.5Y-108.1
X100.5Y-108.1
X145.5Y-100.9
X100.5Y-100.9
T0
M30
