G04 #@! TF.GenerationSoftware,KiCad,Pcbnew,(5.1.6)-1*
G04 #@! TF.CreationDate,2020-09-29T15:07:02+02:00*
G04 #@! TF.ProjectId,double-oh,646f7562-6c65-42d6-9f68-2e6b69636164,rev?*
G04 #@! TF.SameCoordinates,Original*
G04 #@! TF.FileFunction,Other,Comment*
%FSLAX46Y46*%
G04 Gerber Fmt 4.6, Leading zero omitted, Abs format (unit mm)*
G04 Created by KiCad (PCBNEW (5.1.6)-1) date 2020-09-29 15:07:02*
%MOMM*%
%LPD*%
G01*
G04 APERTURE LIST*
%ADD10C,0.150000*%
G04 #@! TA.AperFunction,Profile*
%ADD11C,0.050000*%
G04 #@! TD*
G04 APERTURE END LIST*
D10*
X122114166Y-91952381D02*
X121923690Y-91952381D01*
X121828452Y-92000001D01*
X121780833Y-92047620D01*
X121685595Y-92190477D01*
X121637976Y-92380953D01*
X121637976Y-92761905D01*
X121685595Y-92857143D01*
X121733214Y-92904762D01*
X121828452Y-92952381D01*
X122018928Y-92952381D01*
X122114166Y-92904762D01*
X122161785Y-92857143D01*
X122209404Y-92761905D01*
X122209404Y-92523810D01*
X122161785Y-92428572D01*
X122114166Y-92380953D01*
X122018928Y-92333334D01*
X121828452Y-92333334D01*
X121733214Y-92380953D01*
X121685595Y-92428572D01*
X121637976Y-92523810D01*
X122637976Y-92857143D02*
X122685595Y-92904762D01*
X122637976Y-92952381D01*
X122590357Y-92904762D01*
X122637976Y-92857143D01*
X122637976Y-92952381D01*
X123257023Y-92380953D02*
X123161785Y-92333334D01*
X123114166Y-92285715D01*
X123066547Y-92190477D01*
X123066547Y-92142858D01*
X123114166Y-92047620D01*
X123161785Y-92000001D01*
X123257023Y-91952381D01*
X123447500Y-91952381D01*
X123542738Y-92000001D01*
X123590357Y-92047620D01*
X123637976Y-92142858D01*
X123637976Y-92190477D01*
X123590357Y-92285715D01*
X123542738Y-92333334D01*
X123447500Y-92380953D01*
X123257023Y-92380953D01*
X123161785Y-92428572D01*
X123114166Y-92476191D01*
X123066547Y-92571429D01*
X123066547Y-92761905D01*
X123114166Y-92857143D01*
X123161785Y-92904762D01*
X123257023Y-92952381D01*
X123447500Y-92952381D01*
X123542738Y-92904762D01*
X123590357Y-92857143D01*
X123637976Y-92761905D01*
X123637976Y-92571429D01*
X123590357Y-92476191D01*
X123542738Y-92428572D01*
X123447500Y-92380953D01*
X124542738Y-91952381D02*
X124066547Y-91952381D01*
X124018928Y-92428572D01*
X124066547Y-92380953D01*
X124161785Y-92333334D01*
X124399880Y-92333334D01*
X124495119Y-92380953D01*
X124542738Y-92428572D01*
X124590357Y-92523810D01*
X124590357Y-92761905D01*
X124542738Y-92857143D01*
X124495119Y-92904762D01*
X124399880Y-92952381D01*
X124161785Y-92952381D01*
X124066547Y-92904762D01*
X124018928Y-92857143D01*
X125780833Y-92952381D02*
X125780833Y-92285715D01*
X125780833Y-92380953D02*
X125828452Y-92333334D01*
X125923690Y-92285715D01*
X126066547Y-92285715D01*
X126161785Y-92333334D01*
X126209404Y-92428572D01*
X126209404Y-92952381D01*
X126209404Y-92428572D02*
X126257023Y-92333334D01*
X126352261Y-92285715D01*
X126495119Y-92285715D01*
X126590357Y-92333334D01*
X126637976Y-92428572D01*
X126637976Y-92952381D01*
X127114166Y-92952381D02*
X127114166Y-92285715D01*
X127114166Y-92380953D02*
X127161785Y-92333334D01*
X127257023Y-92285715D01*
X127399880Y-92285715D01*
X127495119Y-92333334D01*
X127542738Y-92428572D01*
X127542738Y-92952381D01*
X127542738Y-92428572D02*
X127590357Y-92333334D01*
X127685595Y-92285715D01*
X127828452Y-92285715D01*
X127923690Y-92333334D01*
X127971309Y-92428572D01*
X127971309Y-92952381D01*
X129209404Y-92571429D02*
X129971309Y-92571429D01*
X129590357Y-92952381D02*
X129590357Y-92190477D01*
X131161785Y-91904762D02*
X130304642Y-93190477D01*
X131495119Y-92571429D02*
X132257023Y-92571429D01*
X133685595Y-91952381D02*
X133780833Y-91952381D01*
X133876071Y-92000001D01*
X133923690Y-92047620D01*
X133971309Y-92142858D01*
X134018928Y-92333334D01*
X134018928Y-92571429D01*
X133971309Y-92761905D01*
X133923690Y-92857143D01*
X133876071Y-92904762D01*
X133780833Y-92952381D01*
X133685595Y-92952381D01*
X133590357Y-92904762D01*
X133542738Y-92857143D01*
X133495119Y-92761905D01*
X133447500Y-92571429D01*
X133447500Y-92333334D01*
X133495119Y-92142858D01*
X133542738Y-92047620D01*
X133590357Y-92000001D01*
X133685595Y-91952381D01*
X134447500Y-92857143D02*
X134495119Y-92904762D01*
X134447500Y-92952381D01*
X134399880Y-92904762D01*
X134447500Y-92857143D01*
X134447500Y-92952381D01*
X135447500Y-92952381D02*
X134876071Y-92952381D01*
X135161785Y-92952381D02*
X135161785Y-91952381D01*
X135066547Y-92095239D01*
X134971309Y-92190477D01*
X134876071Y-92238096D01*
X136066547Y-91952381D02*
X136161785Y-91952381D01*
X136257023Y-92000001D01*
X136304642Y-92047620D01*
X136352261Y-92142858D01*
X136399880Y-92333334D01*
X136399880Y-92571429D01*
X136352261Y-92761905D01*
X136304642Y-92857143D01*
X136257023Y-92904762D01*
X136161785Y-92952381D01*
X136066547Y-92952381D01*
X135971309Y-92904762D01*
X135923690Y-92857143D01*
X135876071Y-92761905D01*
X135828452Y-92571429D01*
X135828452Y-92333334D01*
X135876071Y-92142858D01*
X135923690Y-92047620D01*
X135971309Y-92000001D01*
X136066547Y-91952381D01*
X124775000Y-93800001D02*
X117925000Y-93800001D01*
X124775000Y-100000000D02*
X124775000Y-93213580D01*
X117925000Y-100000000D02*
X117925000Y-93213580D01*
X117925000Y-93800001D02*
X119051504Y-93213580D01*
X117925000Y-93800001D02*
X119051504Y-94386422D01*
X124775000Y-93800001D02*
X123648496Y-93213580D01*
X124775000Y-93800001D02*
X123648496Y-94386422D01*
X121590357Y-96252381D02*
X122209404Y-96252381D01*
X121876071Y-96633334D01*
X122018928Y-96633334D01*
X122114166Y-96680953D01*
X122161785Y-96728572D01*
X122209404Y-96823810D01*
X122209404Y-97061905D01*
X122161785Y-97157143D01*
X122114166Y-97204762D01*
X122018928Y-97252381D01*
X121733214Y-97252381D01*
X121637976Y-97204762D01*
X121590357Y-97157143D01*
X122637976Y-97157143D02*
X122685595Y-97204762D01*
X122637976Y-97252381D01*
X122590357Y-97204762D01*
X122637976Y-97157143D01*
X122637976Y-97252381D01*
X123542738Y-96585715D02*
X123542738Y-97252381D01*
X123304642Y-96204762D02*
X123066547Y-96919048D01*
X123685595Y-96919048D01*
X124257023Y-96252381D02*
X124352261Y-96252381D01*
X124447500Y-96300001D01*
X124495119Y-96347620D01*
X124542738Y-96442858D01*
X124590357Y-96633334D01*
X124590357Y-96871429D01*
X124542738Y-97061905D01*
X124495119Y-97157143D01*
X124447500Y-97204762D01*
X124352261Y-97252381D01*
X124257023Y-97252381D01*
X124161785Y-97204762D01*
X124114166Y-97157143D01*
X124066547Y-97061905D01*
X124018928Y-96871429D01*
X124018928Y-96633334D01*
X124066547Y-96442858D01*
X124114166Y-96347620D01*
X124161785Y-96300001D01*
X124257023Y-96252381D01*
X125780833Y-97252381D02*
X125780833Y-96585715D01*
X125780833Y-96680953D02*
X125828452Y-96633334D01*
X125923690Y-96585715D01*
X126066547Y-96585715D01*
X126161785Y-96633334D01*
X126209404Y-96728572D01*
X126209404Y-97252381D01*
X126209404Y-96728572D02*
X126257023Y-96633334D01*
X126352261Y-96585715D01*
X126495119Y-96585715D01*
X126590357Y-96633334D01*
X126637976Y-96728572D01*
X126637976Y-97252381D01*
X127114166Y-97252381D02*
X127114166Y-96585715D01*
X127114166Y-96680953D02*
X127161785Y-96633334D01*
X127257023Y-96585715D01*
X127399880Y-96585715D01*
X127495119Y-96633334D01*
X127542738Y-96728572D01*
X127542738Y-97252381D01*
X127542738Y-96728572D02*
X127590357Y-96633334D01*
X127685595Y-96585715D01*
X127828452Y-96585715D01*
X127923690Y-96633334D01*
X127971309Y-96728572D01*
X127971309Y-97252381D01*
X129209404Y-96871429D02*
X129971309Y-96871429D01*
X129590357Y-97252381D02*
X129590357Y-96490477D01*
X131161785Y-96204762D02*
X130304642Y-97490477D01*
X131495119Y-96871429D02*
X132257023Y-96871429D01*
X133685595Y-96252381D02*
X133780833Y-96252381D01*
X133876071Y-96300001D01*
X133923690Y-96347620D01*
X133971309Y-96442858D01*
X134018928Y-96633334D01*
X134018928Y-96871429D01*
X133971309Y-97061905D01*
X133923690Y-97157143D01*
X133876071Y-97204762D01*
X133780833Y-97252381D01*
X133685595Y-97252381D01*
X133590357Y-97204762D01*
X133542738Y-97157143D01*
X133495119Y-97061905D01*
X133447500Y-96871429D01*
X133447500Y-96633334D01*
X133495119Y-96442858D01*
X133542738Y-96347620D01*
X133590357Y-96300001D01*
X133685595Y-96252381D01*
X134447500Y-97157143D02*
X134495119Y-97204762D01*
X134447500Y-97252381D01*
X134399880Y-97204762D01*
X134447500Y-97157143D01*
X134447500Y-97252381D01*
X135447500Y-97252381D02*
X134876071Y-97252381D01*
X135161785Y-97252381D02*
X135161785Y-96252381D01*
X135066547Y-96395239D01*
X134971309Y-96490477D01*
X134876071Y-96538096D01*
X136066547Y-96252381D02*
X136161785Y-96252381D01*
X136257023Y-96300001D01*
X136304642Y-96347620D01*
X136352261Y-96442858D01*
X136399880Y-96633334D01*
X136399880Y-96871429D01*
X136352261Y-97061905D01*
X136304642Y-97157143D01*
X136257023Y-97204762D01*
X136161785Y-97252381D01*
X136066547Y-97252381D01*
X135971309Y-97204762D01*
X135923690Y-97157143D01*
X135876071Y-97061905D01*
X135828452Y-96871429D01*
X135828452Y-96633334D01*
X135876071Y-96442858D01*
X135923690Y-96347620D01*
X135971309Y-96300001D01*
X136066547Y-96252381D01*
X123050000Y-98100001D02*
X119650000Y-98100001D01*
X123050000Y-100000000D02*
X123050000Y-97513580D01*
X119650000Y-100000000D02*
X119650000Y-97513580D01*
X119650000Y-98100001D02*
X120776504Y-97513580D01*
X119650000Y-98100001D02*
X120776504Y-98686422D01*
X123050000Y-98100001D02*
X121923496Y-97513580D01*
X123050000Y-98100001D02*
X121923496Y-98686422D01*
D11*
X119650000Y-100000000D02*
X123050000Y-100000000D01*
X146000000Y-107300000D02*
X146000000Y-109000000D01*
X147600000Y-102500000D02*
X146800000Y-102500000D01*
X146000000Y-101700000D02*
G75*
G03*
X146800000Y-102500000I800000J0D01*
G01*
X123650000Y-103300000D02*
X124175000Y-103300000D01*
X100000000Y-101700000D02*
X100000000Y-100000000D01*
X146000000Y-107300000D02*
G75*
G02*
X146800000Y-106500000I800000J0D01*
G01*
X100000000Y-107300000D02*
X100000000Y-109000000D01*
X98400000Y-102500000D02*
X99200000Y-102500000D01*
X123050000Y-100000000D02*
X123050000Y-102700000D01*
X124775000Y-102700000D02*
X124775000Y-100000000D01*
X124775000Y-100000000D02*
X146000000Y-100000000D01*
X118525000Y-103300000D02*
X119050000Y-103300000D01*
X117925000Y-102700000D02*
X117925000Y-100000000D01*
X146000000Y-109000000D02*
X100000000Y-109000000D01*
X100000000Y-100000000D02*
X117925000Y-100000000D01*
X123650000Y-103300000D02*
G75*
G02*
X123050000Y-102700000I0J600000D01*
G01*
X146000000Y-101700000D02*
X146000000Y-100000000D01*
X119650000Y-102700000D02*
X119650000Y-100000000D01*
X100000000Y-107300000D02*
G75*
G03*
X99200000Y-106500000I-800000J0D01*
G01*
X118525000Y-103300000D02*
G75*
G02*
X117925000Y-102700000I0J600000D01*
G01*
X119650000Y-102700000D02*
G75*
G02*
X119050000Y-103300000I-600000J0D01*
G01*
X98400000Y-106500000D02*
X98400000Y-102500000D01*
X147600000Y-106500000D02*
X146800000Y-106500000D01*
X147600000Y-102500000D02*
X147600000Y-106500000D01*
X100000000Y-101700000D02*
G75*
G02*
X99200000Y-102500000I-800000J0D01*
G01*
X98400000Y-106500000D02*
X99200000Y-106500000D01*
X124775000Y-102700000D02*
G75*
G02*
X124175000Y-103300000I-600000J0D01*
G01*
M02*
