M48
; DRILL file {KiCad 5.1.5-52549c5~84~ubuntu18.04.1} date Fr 24 Jan 2020 09:52:25 CET
; FORMAT={-:-/ absolute / inch / decimal}
; #@! TF.CreationDate,2020-01-24T09:52:25+01:00
; #@! TF.GenerationSoftware,Kicad,Pcbnew,5.1.5-52549c5~84~ubuntu18.04.1
FMAT,2
INCH
T1C0.0157
%
G90
G05
T1
X4.0512Y-4.2402
X4.0866Y-4.0197
X4.0866Y-4.1457
X4.1233Y-4.0992
X4.1315Y-4.0601
X4.21Y-3.9616
X4.2874Y-4.248
X4.359Y-4.0869
X4.377Y-4.252
X4.3989Y-4.0653
X4.427Y-4.147
X4.4488Y-4.0157
X4.5041Y-4.167
X4.54Y-4.1184
X4.5696Y-4.0148
X4.5697Y-4.0618
X4.6156Y-4.1634
X4.653Y-4.1191
X4.6929Y-4.0906
X4.7776Y-4.1732
X4.8996Y-4.1526
X4.9348Y-4.1238
X4.967Y-4.2031
X4.9921Y-3.9616
X5.1299Y-4.0591
X5.1299Y-4.1024
X5.1772Y-4.0591
X5.1772Y-4.1024
X5.2244Y-4.0591
X5.2244Y-4.1024
X5.3563Y-4.2047
X5.372Y-4.0531
X5.4311Y-4.0512
X5.4508Y-4.1535
X5.4724Y-4.0197
X3.9567Y-3.9724
X3.9567Y-4.2559
X5.7283Y-3.9724
X5.7283Y-4.2559
T0
M30
