G04 #@! TF.GenerationSoftware,KiCad,Pcbnew,5.1.5-52549c5~84~ubuntu18.04.1*
G04 #@! TF.CreationDate,2020-01-27T16:02:12+01:00*
G04 #@! TF.ProjectId,double-oh,646f7562-6c65-42d6-9f68-2e6b69636164,rev?*
G04 #@! TF.SameCoordinates,Original*
G04 #@! TF.FileFunction,Legend,Bot*
G04 #@! TF.FilePolarity,Positive*
%FSLAX46Y46*%
G04 Gerber Fmt 4.6, Leading zero omitted, Abs format (unit mm)*
G04 Created by KiCad (PCBNEW 5.1.5-52549c5~84~ubuntu18.04.1) date 2020-01-27 16:02:12*
%MOMM*%
%LPD*%
G04 APERTURE LIST*
%ADD10C,0.150000*%
G04 APERTURE END LIST*
D10*
X128380952Y-108361904D02*
X128380952Y-107561904D01*
X128190476Y-107561904D01*
X128076190Y-107600000D01*
X128000000Y-107676190D01*
X127961904Y-107752380D01*
X127923809Y-107904761D01*
X127923809Y-108019047D01*
X127961904Y-108171428D01*
X128000000Y-108247619D01*
X128076190Y-108323809D01*
X128190476Y-108361904D01*
X128380952Y-108361904D01*
X127466666Y-108361904D02*
X127542857Y-108323809D01*
X127580952Y-108285714D01*
X127619047Y-108209523D01*
X127619047Y-107980952D01*
X127580952Y-107904761D01*
X127542857Y-107866666D01*
X127466666Y-107828571D01*
X127352380Y-107828571D01*
X127276190Y-107866666D01*
X127238095Y-107904761D01*
X127200000Y-107980952D01*
X127200000Y-108209523D01*
X127238095Y-108285714D01*
X127276190Y-108323809D01*
X127352380Y-108361904D01*
X127466666Y-108361904D01*
X126514285Y-107828571D02*
X126514285Y-108361904D01*
X126857142Y-107828571D02*
X126857142Y-108247619D01*
X126819047Y-108323809D01*
X126742857Y-108361904D01*
X126628571Y-108361904D01*
X126552380Y-108323809D01*
X126514285Y-108285714D01*
X126133333Y-108361904D02*
X126133333Y-107561904D01*
X126133333Y-107866666D02*
X126057142Y-107828571D01*
X125904761Y-107828571D01*
X125828571Y-107866666D01*
X125790476Y-107904761D01*
X125752380Y-107980952D01*
X125752380Y-108209523D01*
X125790476Y-108285714D01*
X125828571Y-108323809D01*
X125904761Y-108361904D01*
X126057142Y-108361904D01*
X126133333Y-108323809D01*
X125295238Y-108361904D02*
X125371428Y-108323809D01*
X125409523Y-108247619D01*
X125409523Y-107561904D01*
X124685714Y-108323809D02*
X124761904Y-108361904D01*
X124914285Y-108361904D01*
X124990476Y-108323809D01*
X125028571Y-108247619D01*
X125028571Y-107942857D01*
X124990476Y-107866666D01*
X124914285Y-107828571D01*
X124761904Y-107828571D01*
X124685714Y-107866666D01*
X124647619Y-107942857D01*
X124647619Y-108019047D01*
X125028571Y-108095238D01*
X124304761Y-108057142D02*
X123695238Y-108057142D01*
X123161904Y-107561904D02*
X123009523Y-107561904D01*
X122933333Y-107600000D01*
X122857142Y-107676190D01*
X122819047Y-107828571D01*
X122819047Y-108095238D01*
X122857142Y-108247619D01*
X122933333Y-108323809D01*
X123009523Y-108361904D01*
X123161904Y-108361904D01*
X123238095Y-108323809D01*
X123314285Y-108247619D01*
X123352380Y-108095238D01*
X123352380Y-107828571D01*
X123314285Y-107676190D01*
X123238095Y-107600000D01*
X123161904Y-107561904D01*
X122476190Y-108361904D02*
X122476190Y-107561904D01*
X122133333Y-108361904D02*
X122133333Y-107942857D01*
X122171428Y-107866666D01*
X122247619Y-107828571D01*
X122361904Y-107828571D01*
X122438095Y-107866666D01*
X122476190Y-107904761D01*
X121219047Y-107828571D02*
X121028571Y-108361904D01*
X120838095Y-107828571D01*
X120571428Y-107638095D02*
X120533333Y-107600000D01*
X120457142Y-107561904D01*
X120266666Y-107561904D01*
X120190476Y-107600000D01*
X120152380Y-107638095D01*
X120114285Y-107714285D01*
X120114285Y-107790476D01*
X120152380Y-107904761D01*
X120609523Y-108361904D01*
X120114285Y-108361904D01*
X119771428Y-108285714D02*
X119733333Y-108323809D01*
X119771428Y-108361904D01*
X119809523Y-108323809D01*
X119771428Y-108285714D01*
X119771428Y-108361904D01*
X118971428Y-108361904D02*
X119428571Y-108361904D01*
X119200000Y-108361904D02*
X119200000Y-107561904D01*
X119276190Y-107676190D01*
X119352380Y-107752380D01*
X119428571Y-107790476D01*
X117447619Y-107523809D02*
X118133333Y-108552380D01*
X116609523Y-107523809D02*
X117295238Y-108552380D01*
X115504761Y-107561904D02*
X115504761Y-108133333D01*
X115542857Y-108247619D01*
X115619047Y-108323809D01*
X115733333Y-108361904D01*
X115809523Y-108361904D01*
X114780952Y-108361904D02*
X114780952Y-107942857D01*
X114819047Y-107866666D01*
X114895238Y-107828571D01*
X115047619Y-107828571D01*
X115123809Y-107866666D01*
X114780952Y-108323809D02*
X114857142Y-108361904D01*
X115047619Y-108361904D01*
X115123809Y-108323809D01*
X115161904Y-108247619D01*
X115161904Y-108171428D01*
X115123809Y-108095238D01*
X115047619Y-108057142D01*
X114857142Y-108057142D01*
X114780952Y-108019047D01*
X114400000Y-107828571D02*
X114400000Y-108361904D01*
X114400000Y-107904761D02*
X114361904Y-107866666D01*
X114285714Y-107828571D01*
X114171428Y-107828571D01*
X114095238Y-107866666D01*
X114057142Y-107942857D01*
X114057142Y-108361904D01*
X113676190Y-108285714D02*
X113638095Y-108323809D01*
X113676190Y-108361904D01*
X113714285Y-108323809D01*
X113676190Y-108285714D01*
X113676190Y-108361904D01*
X112723809Y-107638095D02*
X112685714Y-107600000D01*
X112609523Y-107561904D01*
X112419047Y-107561904D01*
X112342857Y-107600000D01*
X112304761Y-107638095D01*
X112266666Y-107714285D01*
X112266666Y-107790476D01*
X112304761Y-107904761D01*
X112761904Y-108361904D01*
X112266666Y-108361904D01*
X111771428Y-107561904D02*
X111695238Y-107561904D01*
X111619047Y-107600000D01*
X111580952Y-107638095D01*
X111542857Y-107714285D01*
X111504761Y-107866666D01*
X111504761Y-108057142D01*
X111542857Y-108209523D01*
X111580952Y-108285714D01*
X111619047Y-108323809D01*
X111695238Y-108361904D01*
X111771428Y-108361904D01*
X111847619Y-108323809D01*
X111885714Y-108285714D01*
X111923809Y-108209523D01*
X111961904Y-108057142D01*
X111961904Y-107866666D01*
X111923809Y-107714285D01*
X111885714Y-107638095D01*
X111847619Y-107600000D01*
X111771428Y-107561904D01*
X111200000Y-107638095D02*
X111161904Y-107600000D01*
X111085714Y-107561904D01*
X110895238Y-107561904D01*
X110819047Y-107600000D01*
X110780952Y-107638095D01*
X110742857Y-107714285D01*
X110742857Y-107790476D01*
X110780952Y-107904761D01*
X111238095Y-108361904D01*
X110742857Y-108361904D01*
X110247619Y-107561904D02*
X110171428Y-107561904D01*
X110095238Y-107600000D01*
X110057142Y-107638095D01*
X110019047Y-107714285D01*
X109980952Y-107866666D01*
X109980952Y-108057142D01*
X110019047Y-108209523D01*
X110057142Y-108285714D01*
X110095238Y-108323809D01*
X110171428Y-108361904D01*
X110247619Y-108361904D01*
X110323809Y-108323809D01*
X110361904Y-108285714D01*
X110400000Y-108209523D01*
X110438095Y-108057142D01*
X110438095Y-107866666D01*
X110400000Y-107714285D01*
X110361904Y-107638095D01*
X110323809Y-107600000D01*
X110247619Y-107561904D01*
X143979142Y-101377904D02*
X143979142Y-100577904D01*
X143979142Y-100882666D02*
X143902952Y-100844571D01*
X143750571Y-100844571D01*
X143674380Y-100882666D01*
X143636285Y-100920761D01*
X143598190Y-100996952D01*
X143598190Y-101225523D01*
X143636285Y-101301714D01*
X143674380Y-101339809D01*
X143750571Y-101377904D01*
X143902952Y-101377904D01*
X143979142Y-101339809D01*
X143331523Y-100844571D02*
X143141047Y-101377904D01*
X142950571Y-100844571D02*
X143141047Y-101377904D01*
X143217238Y-101568380D01*
X143255333Y-101606476D01*
X143331523Y-101644571D01*
X142074380Y-101339809D02*
X141960095Y-101377904D01*
X141769619Y-101377904D01*
X141693428Y-101339809D01*
X141655333Y-101301714D01*
X141617238Y-101225523D01*
X141617238Y-101149333D01*
X141655333Y-101073142D01*
X141693428Y-101035047D01*
X141769619Y-100996952D01*
X141922000Y-100958857D01*
X141998190Y-100920761D01*
X142036285Y-100882666D01*
X142074380Y-100806476D01*
X142074380Y-100730285D01*
X142036285Y-100654095D01*
X141998190Y-100616000D01*
X141922000Y-100577904D01*
X141731523Y-100577904D01*
X141617238Y-100616000D01*
X141274380Y-100844571D02*
X141274380Y-101644571D01*
X141274380Y-100882666D02*
X141198190Y-100844571D01*
X141045809Y-100844571D01*
X140969619Y-100882666D01*
X140931523Y-100920761D01*
X140893428Y-100996952D01*
X140893428Y-101225523D01*
X140931523Y-101301714D01*
X140969619Y-101339809D01*
X141045809Y-101377904D01*
X141198190Y-101377904D01*
X141274380Y-101339809D01*
X140207714Y-101377904D02*
X140207714Y-100958857D01*
X140245809Y-100882666D01*
X140322000Y-100844571D01*
X140474380Y-100844571D01*
X140550571Y-100882666D01*
X140207714Y-101339809D02*
X140283904Y-101377904D01*
X140474380Y-101377904D01*
X140550571Y-101339809D01*
X140588666Y-101263619D01*
X140588666Y-101187428D01*
X140550571Y-101111238D01*
X140474380Y-101073142D01*
X140283904Y-101073142D01*
X140207714Y-101035047D01*
X139483904Y-101339809D02*
X139560095Y-101377904D01*
X139712476Y-101377904D01*
X139788666Y-101339809D01*
X139826761Y-101301714D01*
X139864857Y-101225523D01*
X139864857Y-100996952D01*
X139826761Y-100920761D01*
X139788666Y-100882666D01*
X139712476Y-100844571D01*
X139560095Y-100844571D01*
X139483904Y-100882666D01*
X138836285Y-101339809D02*
X138912476Y-101377904D01*
X139064857Y-101377904D01*
X139141047Y-101339809D01*
X139179142Y-101263619D01*
X139179142Y-100958857D01*
X139141047Y-100882666D01*
X139064857Y-100844571D01*
X138912476Y-100844571D01*
X138836285Y-100882666D01*
X138798190Y-100958857D01*
X138798190Y-101035047D01*
X139179142Y-101111238D01*
X137579142Y-100958857D02*
X137464857Y-100996952D01*
X137426761Y-101035047D01*
X137388666Y-101111238D01*
X137388666Y-101225523D01*
X137426761Y-101301714D01*
X137464857Y-101339809D01*
X137541047Y-101377904D01*
X137845809Y-101377904D01*
X137845809Y-100577904D01*
X137579142Y-100577904D01*
X137502952Y-100616000D01*
X137464857Y-100654095D01*
X137426761Y-100730285D01*
X137426761Y-100806476D01*
X137464857Y-100882666D01*
X137502952Y-100920761D01*
X137579142Y-100958857D01*
X137845809Y-100958857D01*
X136702952Y-100844571D02*
X136702952Y-101377904D01*
X137045809Y-100844571D02*
X137045809Y-101263619D01*
X137007714Y-101339809D01*
X136931523Y-101377904D01*
X136817238Y-101377904D01*
X136741047Y-101339809D01*
X136702952Y-101301714D01*
X135979142Y-101339809D02*
X136055333Y-101377904D01*
X136207714Y-101377904D01*
X136283904Y-101339809D01*
X136322000Y-101301714D01*
X136360095Y-101225523D01*
X136360095Y-100996952D01*
X136322000Y-100920761D01*
X136283904Y-100882666D01*
X136207714Y-100844571D01*
X136055333Y-100844571D01*
X135979142Y-100882666D01*
X135636285Y-101377904D02*
X135636285Y-100577904D01*
X135560095Y-101073142D02*
X135331523Y-101377904D01*
X135331523Y-100844571D02*
X135636285Y-101149333D01*
X134036285Y-101377904D02*
X134036285Y-100958857D01*
X134074380Y-100882666D01*
X134150571Y-100844571D01*
X134302952Y-100844571D01*
X134379142Y-100882666D01*
X134036285Y-101339809D02*
X134112476Y-101377904D01*
X134302952Y-101377904D01*
X134379142Y-101339809D01*
X134417238Y-101263619D01*
X134417238Y-101187428D01*
X134379142Y-101111238D01*
X134302952Y-101073142D01*
X134112476Y-101073142D01*
X134036285Y-101035047D01*
X133655333Y-100844571D02*
X133655333Y-101377904D01*
X133655333Y-100920761D02*
X133617238Y-100882666D01*
X133541047Y-100844571D01*
X133426761Y-100844571D01*
X133350571Y-100882666D01*
X133312476Y-100958857D01*
X133312476Y-101377904D01*
X132588666Y-101377904D02*
X132588666Y-100577904D01*
X132588666Y-101339809D02*
X132664857Y-101377904D01*
X132817238Y-101377904D01*
X132893428Y-101339809D01*
X132931523Y-101301714D01*
X132969619Y-101225523D01*
X132969619Y-100996952D01*
X132931523Y-100920761D01*
X132893428Y-100882666D01*
X132817238Y-100844571D01*
X132664857Y-100844571D01*
X132588666Y-100882666D01*
X131636285Y-101339809D02*
X131522000Y-101377904D01*
X131331523Y-101377904D01*
X131255333Y-101339809D01*
X131217238Y-101301714D01*
X131179142Y-101225523D01*
X131179142Y-101149333D01*
X131217238Y-101073142D01*
X131255333Y-101035047D01*
X131331523Y-100996952D01*
X131483904Y-100958857D01*
X131560095Y-100920761D01*
X131598190Y-100882666D01*
X131636285Y-100806476D01*
X131636285Y-100730285D01*
X131598190Y-100654095D01*
X131560095Y-100616000D01*
X131483904Y-100577904D01*
X131293428Y-100577904D01*
X131179142Y-100616000D01*
X130836285Y-100844571D02*
X130836285Y-101644571D01*
X130836285Y-100882666D02*
X130760095Y-100844571D01*
X130607714Y-100844571D01*
X130531523Y-100882666D01*
X130493428Y-100920761D01*
X130455333Y-100996952D01*
X130455333Y-101225523D01*
X130493428Y-101301714D01*
X130531523Y-101339809D01*
X130607714Y-101377904D01*
X130760095Y-101377904D01*
X130836285Y-101339809D01*
X129769619Y-101377904D02*
X129769619Y-100958857D01*
X129807714Y-100882666D01*
X129883904Y-100844571D01*
X130036285Y-100844571D01*
X130112476Y-100882666D01*
X129769619Y-101339809D02*
X129845809Y-101377904D01*
X130036285Y-101377904D01*
X130112476Y-101339809D01*
X130150571Y-101263619D01*
X130150571Y-101187428D01*
X130112476Y-101111238D01*
X130036285Y-101073142D01*
X129845809Y-101073142D01*
X129769619Y-101035047D01*
X129502952Y-100844571D02*
X129198190Y-100844571D01*
X129388666Y-100577904D02*
X129388666Y-101263619D01*
X129350571Y-101339809D01*
X129274380Y-101377904D01*
X129198190Y-101377904D01*
X129007714Y-100844571D02*
X128588666Y-100844571D01*
X129007714Y-101377904D01*
X128588666Y-101377904D01*
X144982904Y-103917952D02*
X145021000Y-103879857D01*
X145097190Y-103841761D01*
X145173380Y-103841761D01*
X145249571Y-103879857D01*
X145287666Y-103917952D01*
X145325761Y-103994142D01*
X145325761Y-104070333D01*
X145287666Y-104146523D01*
X145249571Y-104184619D01*
X145173380Y-104222714D01*
X145097190Y-104222714D01*
X145021000Y-104184619D01*
X144982904Y-104146523D01*
X144982904Y-103841761D02*
X144982904Y-104146523D01*
X144944809Y-104184619D01*
X144906714Y-104184619D01*
X144830523Y-104146523D01*
X144792428Y-104070333D01*
X144792428Y-103879857D01*
X144868619Y-103765571D01*
X144982904Y-103689380D01*
X145135285Y-103651285D01*
X145287666Y-103689380D01*
X145401952Y-103765571D01*
X145478142Y-103879857D01*
X145516238Y-104032238D01*
X145478142Y-104184619D01*
X145401952Y-104298904D01*
X145287666Y-104375095D01*
X145135285Y-104413190D01*
X144982904Y-104375095D01*
X144868619Y-104298904D01*
X144449571Y-104298904D02*
X144449571Y-103498904D01*
X144106714Y-104298904D02*
X144106714Y-103879857D01*
X144144809Y-103803666D01*
X144221000Y-103765571D01*
X144335285Y-103765571D01*
X144411476Y-103803666D01*
X144449571Y-103841761D01*
X143421000Y-104260809D02*
X143497190Y-104298904D01*
X143649571Y-104298904D01*
X143725761Y-104260809D01*
X143763857Y-104184619D01*
X143763857Y-103879857D01*
X143725761Y-103803666D01*
X143649571Y-103765571D01*
X143497190Y-103765571D01*
X143421000Y-103803666D01*
X143382904Y-103879857D01*
X143382904Y-103956047D01*
X143763857Y-104032238D01*
X143116238Y-103765571D02*
X142925761Y-104298904D01*
X142735285Y-103765571D02*
X142925761Y-104298904D01*
X143001952Y-104489380D01*
X143040047Y-104527476D01*
X143116238Y-104565571D01*
X142468619Y-104260809D02*
X142392428Y-104298904D01*
X142240047Y-104298904D01*
X142163857Y-104260809D01*
X142125761Y-104184619D01*
X142125761Y-104146523D01*
X142163857Y-104070333D01*
X142240047Y-104032238D01*
X142354333Y-104032238D01*
X142430523Y-103994142D01*
X142468619Y-103917952D01*
X142468619Y-103879857D01*
X142430523Y-103803666D01*
X142354333Y-103765571D01*
X142240047Y-103765571D01*
X142163857Y-103803666D01*
X141782904Y-103765571D02*
X141782904Y-104565571D01*
X141782904Y-103803666D02*
X141706714Y-103765571D01*
X141554333Y-103765571D01*
X141478142Y-103803666D01*
X141440047Y-103841761D01*
X141401952Y-103917952D01*
X141401952Y-104146523D01*
X141440047Y-104222714D01*
X141478142Y-104260809D01*
X141554333Y-104298904D01*
X141706714Y-104298904D01*
X141782904Y-104260809D01*
X140716238Y-104298904D02*
X140716238Y-103879857D01*
X140754333Y-103803666D01*
X140830523Y-103765571D01*
X140982904Y-103765571D01*
X141059095Y-103803666D01*
X140716238Y-104260809D02*
X140792428Y-104298904D01*
X140982904Y-104298904D01*
X141059095Y-104260809D01*
X141097190Y-104184619D01*
X141097190Y-104108428D01*
X141059095Y-104032238D01*
X140982904Y-103994142D01*
X140792428Y-103994142D01*
X140716238Y-103956047D01*
X139992428Y-104260809D02*
X140068619Y-104298904D01*
X140221000Y-104298904D01*
X140297190Y-104260809D01*
X140335285Y-104222714D01*
X140373380Y-104146523D01*
X140373380Y-103917952D01*
X140335285Y-103841761D01*
X140297190Y-103803666D01*
X140221000Y-103765571D01*
X140068619Y-103765571D01*
X139992428Y-103803666D01*
X139344809Y-104260809D02*
X139421000Y-104298904D01*
X139573380Y-104298904D01*
X139649571Y-104260809D01*
X139687666Y-104184619D01*
X139687666Y-103879857D01*
X139649571Y-103803666D01*
X139573380Y-103765571D01*
X139421000Y-103765571D01*
X139344809Y-103803666D01*
X139306714Y-103879857D01*
X139306714Y-103956047D01*
X139687666Y-104032238D01*
X138963857Y-104298904D02*
X138963857Y-103498904D01*
X138963857Y-103803666D02*
X138887666Y-103765571D01*
X138735285Y-103765571D01*
X138659095Y-103803666D01*
X138621000Y-103841761D01*
X138582904Y-103917952D01*
X138582904Y-104146523D01*
X138621000Y-104222714D01*
X138659095Y-104260809D01*
X138735285Y-104298904D01*
X138887666Y-104298904D01*
X138963857Y-104260809D01*
X137897190Y-103765571D02*
X137897190Y-104298904D01*
X138240047Y-103765571D02*
X138240047Y-104184619D01*
X138201952Y-104260809D01*
X138125761Y-104298904D01*
X138011476Y-104298904D01*
X137935285Y-104260809D01*
X137897190Y-104222714D01*
X137173380Y-104260809D02*
X137249571Y-104298904D01*
X137401952Y-104298904D01*
X137478142Y-104260809D01*
X137516238Y-104222714D01*
X137554333Y-104146523D01*
X137554333Y-103917952D01*
X137516238Y-103841761D01*
X137478142Y-103803666D01*
X137401952Y-103765571D01*
X137249571Y-103765571D01*
X137173380Y-103803666D01*
X136830523Y-104298904D02*
X136830523Y-103498904D01*
X136754333Y-103994142D02*
X136525761Y-104298904D01*
X136525761Y-103765571D02*
X136830523Y-104070333D01*
M02*
