G04 #@! TF.GenerationSoftware,KiCad,Pcbnew,(5.1.6)-1*
G04 #@! TF.CreationDate,2020-09-29T15:04:04+02:00*
G04 #@! TF.ProjectId,double-oh,646f7562-6c65-42d6-9f68-2e6b69636164,rev?*
G04 #@! TF.SameCoordinates,Original*
G04 #@! TF.FileFunction,Soldermask,Top*
G04 #@! TF.FilePolarity,Negative*
%FSLAX46Y46*%
G04 Gerber Fmt 4.6, Leading zero omitted, Abs format (unit mm)*
G04 Created by KiCad (PCBNEW (5.1.6)-1) date 2020-09-29 15:04:04*
%MOMM*%
%LPD*%
G01*
G04 APERTURE LIST*
%ADD10C,0.101600*%
G04 APERTURE END LIST*
D10*
G36*
X145951000Y-108951000D02*
G01*
X144249000Y-108951000D01*
X144249000Y-107249000D01*
X145951000Y-107249000D01*
X145951000Y-108951000D01*
G37*
G36*
X101751000Y-108951000D02*
G01*
X100049000Y-108951000D01*
X100049000Y-107249000D01*
X101751000Y-107249000D01*
X101751000Y-108951000D01*
G37*
G36*
X120255355Y-103600083D02*
G01*
X120260029Y-103601501D01*
X120264330Y-103603800D01*
X120270702Y-103609029D01*
X120291076Y-103622643D01*
X120313715Y-103632020D01*
X120337749Y-103636800D01*
X120362253Y-103636800D01*
X120386286Y-103632019D01*
X120408925Y-103622642D01*
X120429298Y-103609029D01*
X120435670Y-103603800D01*
X120439971Y-103601501D01*
X120444645Y-103600083D01*
X120455641Y-103599000D01*
X120744359Y-103599000D01*
X120755355Y-103600083D01*
X120760029Y-103601501D01*
X120764330Y-103603800D01*
X120770702Y-103609029D01*
X120791076Y-103622643D01*
X120813715Y-103632020D01*
X120837749Y-103636800D01*
X120862253Y-103636800D01*
X120886286Y-103632019D01*
X120908925Y-103622642D01*
X120929298Y-103609029D01*
X120935670Y-103603800D01*
X120939971Y-103601501D01*
X120944645Y-103600083D01*
X120955641Y-103599000D01*
X121244359Y-103599000D01*
X121255355Y-103600083D01*
X121260029Y-103601501D01*
X121264330Y-103603800D01*
X121270702Y-103609029D01*
X121291076Y-103622643D01*
X121313715Y-103632020D01*
X121337749Y-103636800D01*
X121362253Y-103636800D01*
X121386286Y-103632019D01*
X121408925Y-103622642D01*
X121429298Y-103609029D01*
X121435670Y-103603800D01*
X121439971Y-103601501D01*
X121444645Y-103600083D01*
X121455641Y-103599000D01*
X121744359Y-103599000D01*
X121755355Y-103600083D01*
X121760029Y-103601501D01*
X121764330Y-103603800D01*
X121770702Y-103609029D01*
X121791076Y-103622643D01*
X121813715Y-103632020D01*
X121837749Y-103636800D01*
X121862253Y-103636800D01*
X121886286Y-103632019D01*
X121908925Y-103622642D01*
X121929298Y-103609029D01*
X121935670Y-103603800D01*
X121939971Y-103601501D01*
X121944645Y-103600083D01*
X121955641Y-103599000D01*
X122244359Y-103599000D01*
X122255355Y-103600083D01*
X122260029Y-103601501D01*
X122264330Y-103603800D01*
X122270702Y-103609029D01*
X122291076Y-103622643D01*
X122313715Y-103632020D01*
X122337749Y-103636800D01*
X122362253Y-103636800D01*
X122386286Y-103632019D01*
X122408925Y-103622642D01*
X122429298Y-103609029D01*
X122435670Y-103603800D01*
X122439971Y-103601501D01*
X122444645Y-103600083D01*
X122455641Y-103599000D01*
X122744359Y-103599000D01*
X122755355Y-103600083D01*
X122760029Y-103601501D01*
X122764331Y-103603800D01*
X122768104Y-103606896D01*
X122771200Y-103610669D01*
X122773499Y-103614971D01*
X122774917Y-103619645D01*
X122776000Y-103630641D01*
X122776000Y-104449001D01*
X122778402Y-104473387D01*
X122785515Y-104496836D01*
X122797066Y-104518447D01*
X122812611Y-104537389D01*
X122831553Y-104552934D01*
X122853164Y-104564485D01*
X122876613Y-104571598D01*
X122900999Y-104574000D01*
X123719359Y-104574000D01*
X123730355Y-104575083D01*
X123735029Y-104576501D01*
X123739331Y-104578800D01*
X123743104Y-104581896D01*
X123746200Y-104585669D01*
X123748499Y-104589971D01*
X123749917Y-104594645D01*
X123751000Y-104605641D01*
X123751000Y-104894359D01*
X123749917Y-104905355D01*
X123748499Y-104910029D01*
X123746200Y-104914330D01*
X123740971Y-104920702D01*
X123727357Y-104941076D01*
X123717980Y-104963715D01*
X123713200Y-104987749D01*
X123713200Y-105012253D01*
X123717981Y-105036286D01*
X123727358Y-105058925D01*
X123740971Y-105079298D01*
X123746200Y-105085670D01*
X123748499Y-105089971D01*
X123749917Y-105094645D01*
X123751000Y-105105641D01*
X123751000Y-105394359D01*
X123749917Y-105405355D01*
X123748499Y-105410029D01*
X123746200Y-105414330D01*
X123740971Y-105420702D01*
X123727357Y-105441076D01*
X123717980Y-105463715D01*
X123713200Y-105487749D01*
X123713200Y-105512253D01*
X123717981Y-105536286D01*
X123727358Y-105558925D01*
X123740971Y-105579298D01*
X123746200Y-105585670D01*
X123748499Y-105589971D01*
X123749917Y-105594645D01*
X123751000Y-105605641D01*
X123751000Y-105894359D01*
X123749917Y-105905355D01*
X123748499Y-105910029D01*
X123746200Y-105914330D01*
X123740971Y-105920702D01*
X123727357Y-105941076D01*
X123717980Y-105963715D01*
X123713200Y-105987749D01*
X123713200Y-106012253D01*
X123717981Y-106036286D01*
X123727358Y-106058925D01*
X123740971Y-106079298D01*
X123746200Y-106085670D01*
X123748499Y-106089971D01*
X123749917Y-106094645D01*
X123751000Y-106105641D01*
X123751000Y-106394359D01*
X123749917Y-106405355D01*
X123748499Y-106410029D01*
X123746200Y-106414330D01*
X123740971Y-106420702D01*
X123727357Y-106441076D01*
X123717980Y-106463715D01*
X123713200Y-106487749D01*
X123713200Y-106512253D01*
X123717981Y-106536286D01*
X123727358Y-106558925D01*
X123740971Y-106579298D01*
X123746200Y-106585670D01*
X123748499Y-106589971D01*
X123749917Y-106594645D01*
X123751000Y-106605641D01*
X123751000Y-106894359D01*
X123749917Y-106905355D01*
X123748499Y-106910029D01*
X123746200Y-106914330D01*
X123740971Y-106920702D01*
X123727357Y-106941076D01*
X123717980Y-106963715D01*
X123713200Y-106987749D01*
X123713200Y-107012253D01*
X123717981Y-107036286D01*
X123727358Y-107058925D01*
X123740971Y-107079298D01*
X123746200Y-107085670D01*
X123748499Y-107089971D01*
X123749917Y-107094645D01*
X123751000Y-107105641D01*
X123751000Y-107394359D01*
X123749917Y-107405355D01*
X123748499Y-107410029D01*
X123746200Y-107414331D01*
X123743104Y-107418104D01*
X123739331Y-107421200D01*
X123735029Y-107423499D01*
X123730355Y-107424917D01*
X123719359Y-107426000D01*
X122900999Y-107426000D01*
X122876613Y-107428402D01*
X122853164Y-107435515D01*
X122831553Y-107447066D01*
X122812611Y-107462611D01*
X122797066Y-107481553D01*
X122785515Y-107503164D01*
X122778402Y-107526613D01*
X122776000Y-107550999D01*
X122776000Y-108369359D01*
X122774917Y-108380355D01*
X122773499Y-108385029D01*
X122771200Y-108389331D01*
X122768104Y-108393104D01*
X122764331Y-108396200D01*
X122760029Y-108398499D01*
X122755355Y-108399917D01*
X122744359Y-108401000D01*
X122455641Y-108401000D01*
X122444645Y-108399917D01*
X122439971Y-108398499D01*
X122435670Y-108396200D01*
X122429298Y-108390971D01*
X122408924Y-108377357D01*
X122386285Y-108367980D01*
X122362251Y-108363200D01*
X122337747Y-108363200D01*
X122313714Y-108367981D01*
X122291075Y-108377358D01*
X122270702Y-108390971D01*
X122264330Y-108396200D01*
X122260029Y-108398499D01*
X122255355Y-108399917D01*
X122244359Y-108401000D01*
X121955641Y-108401000D01*
X121944645Y-108399917D01*
X121939971Y-108398499D01*
X121935670Y-108396200D01*
X121929298Y-108390971D01*
X121908924Y-108377357D01*
X121886285Y-108367980D01*
X121862251Y-108363200D01*
X121837747Y-108363200D01*
X121813714Y-108367981D01*
X121791075Y-108377358D01*
X121770702Y-108390971D01*
X121764330Y-108396200D01*
X121760029Y-108398499D01*
X121755355Y-108399917D01*
X121744359Y-108401000D01*
X121455641Y-108401000D01*
X121444645Y-108399917D01*
X121439971Y-108398499D01*
X121435670Y-108396200D01*
X121429298Y-108390971D01*
X121408924Y-108377357D01*
X121386285Y-108367980D01*
X121362251Y-108363200D01*
X121337747Y-108363200D01*
X121313714Y-108367981D01*
X121291075Y-108377358D01*
X121270702Y-108390971D01*
X121264330Y-108396200D01*
X121260029Y-108398499D01*
X121255355Y-108399917D01*
X121244359Y-108401000D01*
X120955641Y-108401000D01*
X120944645Y-108399917D01*
X120939971Y-108398499D01*
X120935670Y-108396200D01*
X120929298Y-108390971D01*
X120908924Y-108377357D01*
X120886285Y-108367980D01*
X120862251Y-108363200D01*
X120837747Y-108363200D01*
X120813714Y-108367981D01*
X120791075Y-108377358D01*
X120770702Y-108390971D01*
X120764330Y-108396200D01*
X120760029Y-108398499D01*
X120755355Y-108399917D01*
X120744359Y-108401000D01*
X120455641Y-108401000D01*
X120444645Y-108399917D01*
X120439971Y-108398499D01*
X120435670Y-108396200D01*
X120429298Y-108390971D01*
X120408924Y-108377357D01*
X120386285Y-108367980D01*
X120362251Y-108363200D01*
X120337747Y-108363200D01*
X120313714Y-108367981D01*
X120291075Y-108377358D01*
X120270702Y-108390971D01*
X120264330Y-108396200D01*
X120260029Y-108398499D01*
X120255355Y-108399917D01*
X120244359Y-108401000D01*
X119955641Y-108401000D01*
X119944645Y-108399917D01*
X119939971Y-108398499D01*
X119935669Y-108396200D01*
X119931896Y-108393104D01*
X119928800Y-108389331D01*
X119926501Y-108385029D01*
X119925083Y-108380355D01*
X119924000Y-108369359D01*
X119924000Y-107550999D01*
X119921598Y-107526613D01*
X119914485Y-107503164D01*
X119902934Y-107481553D01*
X119887389Y-107462611D01*
X119868447Y-107447066D01*
X119846836Y-107435515D01*
X119823387Y-107428402D01*
X119799001Y-107426000D01*
X118980641Y-107426000D01*
X118969645Y-107424917D01*
X118964971Y-107423499D01*
X118960669Y-107421200D01*
X118956896Y-107418104D01*
X118953800Y-107414331D01*
X118951501Y-107410029D01*
X118950083Y-107405355D01*
X118949000Y-107394359D01*
X118949000Y-107105641D01*
X118950083Y-107094645D01*
X118951501Y-107089971D01*
X118953800Y-107085670D01*
X118959029Y-107079298D01*
X118972643Y-107058924D01*
X118982020Y-107036285D01*
X118986800Y-107012251D01*
X118986800Y-106987747D01*
X118982019Y-106963714D01*
X118972642Y-106941075D01*
X118959029Y-106920702D01*
X118953800Y-106914330D01*
X118951501Y-106910029D01*
X118950083Y-106905355D01*
X118949000Y-106894359D01*
X118949000Y-106605641D01*
X118950083Y-106594645D01*
X118951501Y-106589971D01*
X118953800Y-106585670D01*
X118959029Y-106579298D01*
X118972643Y-106558924D01*
X118982020Y-106536285D01*
X118986800Y-106512251D01*
X118986800Y-106487747D01*
X118982019Y-106463714D01*
X118972642Y-106441075D01*
X118959029Y-106420702D01*
X118953800Y-106414330D01*
X118951501Y-106410029D01*
X118950083Y-106405355D01*
X118949000Y-106394359D01*
X118949000Y-106105641D01*
X118950083Y-106094645D01*
X118951501Y-106089971D01*
X118953800Y-106085670D01*
X118959029Y-106079298D01*
X118972643Y-106058924D01*
X118982020Y-106036285D01*
X118986800Y-106012251D01*
X118986800Y-105987747D01*
X118982019Y-105963714D01*
X118972642Y-105941075D01*
X118959029Y-105920702D01*
X118953800Y-105914330D01*
X118951501Y-105910029D01*
X118950083Y-105905355D01*
X118949000Y-105894359D01*
X118949000Y-105605641D01*
X118950083Y-105594645D01*
X118951501Y-105589971D01*
X118953800Y-105585670D01*
X118959029Y-105579298D01*
X118972643Y-105558924D01*
X118982020Y-105536285D01*
X118986800Y-105512251D01*
X118986800Y-105487747D01*
X118982019Y-105463714D01*
X118972642Y-105441075D01*
X118959029Y-105420702D01*
X118953800Y-105414330D01*
X118951501Y-105410029D01*
X118950083Y-105405355D01*
X118949000Y-105394359D01*
X118949000Y-105105641D01*
X118950083Y-105094645D01*
X118951501Y-105089971D01*
X118953800Y-105085670D01*
X118959029Y-105079298D01*
X118972643Y-105058924D01*
X118982020Y-105036285D01*
X118986800Y-105012251D01*
X118986800Y-104987747D01*
X118982019Y-104963714D01*
X118972642Y-104941075D01*
X118959029Y-104920702D01*
X118953800Y-104914330D01*
X118951501Y-104910029D01*
X118950083Y-104905355D01*
X118949000Y-104894359D01*
X118949000Y-104605641D01*
X118950083Y-104594645D01*
X118951501Y-104589971D01*
X118953800Y-104585669D01*
X118956896Y-104581896D01*
X118960669Y-104578800D01*
X118964971Y-104576501D01*
X118969645Y-104575083D01*
X118980641Y-104574000D01*
X119799001Y-104574000D01*
X119823387Y-104571598D01*
X119846836Y-104564485D01*
X119868447Y-104552934D01*
X119887389Y-104537389D01*
X119902934Y-104518447D01*
X119914485Y-104496836D01*
X119921598Y-104473387D01*
X119924000Y-104449001D01*
X119924000Y-103630641D01*
X119925083Y-103619645D01*
X119926501Y-103614971D01*
X119928800Y-103610669D01*
X119931896Y-103606896D01*
X119935669Y-103603800D01*
X119939971Y-103601501D01*
X119944645Y-103600083D01*
X119955641Y-103599000D01*
X120244359Y-103599000D01*
X120255355Y-103600083D01*
G37*
G36*
X105136749Y-106469113D02*
G01*
X105161253Y-106469113D01*
X105170354Y-106467303D01*
X105195886Y-106486238D01*
X105223779Y-106501147D01*
X105255017Y-106526783D01*
X105280654Y-106558023D01*
X105299704Y-106593662D01*
X105311435Y-106632332D01*
X105316000Y-106678688D01*
X105316000Y-108154912D01*
X105311435Y-108201268D01*
X105299704Y-108239938D01*
X105280654Y-108275577D01*
X105255017Y-108306817D01*
X105223777Y-108332454D01*
X105188138Y-108351504D01*
X105149468Y-108363235D01*
X105103112Y-108367800D01*
X104451888Y-108367800D01*
X104405532Y-108363235D01*
X104366862Y-108351504D01*
X104331223Y-108332454D01*
X104299983Y-108306817D01*
X104274346Y-108275577D01*
X104255296Y-108239938D01*
X104243565Y-108201268D01*
X104239000Y-108154912D01*
X104239000Y-106678688D01*
X104243565Y-106632332D01*
X104255296Y-106593662D01*
X104274346Y-106558023D01*
X104299983Y-106526783D01*
X104331223Y-106501146D01*
X104366862Y-106482096D01*
X104405532Y-106470365D01*
X104451888Y-106465800D01*
X105103110Y-106465800D01*
X105136749Y-106469113D01*
G37*
G36*
X106165515Y-106388636D02*
G01*
X106177066Y-106410247D01*
X106192611Y-106429189D01*
X106211553Y-106444734D01*
X106233164Y-106456285D01*
X106256613Y-106463398D01*
X106280999Y-106465800D01*
X106840612Y-106465800D01*
X106886968Y-106470365D01*
X106925638Y-106482096D01*
X106961277Y-106501146D01*
X106992517Y-106526783D01*
X107018154Y-106558023D01*
X107037204Y-106593662D01*
X107048935Y-106632332D01*
X107053500Y-106678688D01*
X107053500Y-108154912D01*
X107048935Y-108201268D01*
X107037204Y-108239938D01*
X107018154Y-108275577D01*
X106992517Y-108306817D01*
X106961277Y-108332454D01*
X106925638Y-108351504D01*
X106886968Y-108363235D01*
X106840612Y-108367800D01*
X106189388Y-108367800D01*
X106143032Y-108363235D01*
X106104362Y-108351504D01*
X106068723Y-108332454D01*
X106037483Y-108306817D01*
X106011846Y-108275577D01*
X105992796Y-108239938D01*
X105981065Y-108201268D01*
X105976500Y-108154912D01*
X105976500Y-106678688D01*
X105981065Y-106632332D01*
X105992796Y-106593662D01*
X106011846Y-106558023D01*
X106037483Y-106526783D01*
X106068721Y-106501147D01*
X106096614Y-106486238D01*
X106116988Y-106472624D01*
X106134315Y-106455297D01*
X106147929Y-106434923D01*
X106157306Y-106412284D01*
X106162086Y-106388250D01*
X106162086Y-106377332D01*
X106165515Y-106388636D01*
G37*
G36*
X110314938Y-107634716D02*
G01*
X110335557Y-107640971D01*
X110354553Y-107651124D01*
X110371208Y-107664792D01*
X110384876Y-107681447D01*
X110395029Y-107700443D01*
X110401284Y-107721062D01*
X110404000Y-107748640D01*
X110404000Y-108207360D01*
X110401284Y-108234938D01*
X110395029Y-108255557D01*
X110384876Y-108274553D01*
X110371208Y-108291208D01*
X110354553Y-108304876D01*
X110335557Y-108315029D01*
X110314938Y-108321284D01*
X110287360Y-108324000D01*
X109778640Y-108324000D01*
X109751062Y-108321284D01*
X109730443Y-108315029D01*
X109711447Y-108304876D01*
X109694792Y-108291208D01*
X109681124Y-108274553D01*
X109670971Y-108255557D01*
X109664716Y-108234938D01*
X109662000Y-108207360D01*
X109662000Y-107748640D01*
X109664716Y-107721062D01*
X109670971Y-107700443D01*
X109681124Y-107681447D01*
X109694792Y-107664792D01*
X109711447Y-107651124D01*
X109730443Y-107640971D01*
X109751062Y-107634716D01*
X109778640Y-107632000D01*
X110287360Y-107632000D01*
X110314938Y-107634716D01*
G37*
G36*
X109298938Y-107611716D02*
G01*
X109319557Y-107617971D01*
X109338553Y-107628124D01*
X109355208Y-107641792D01*
X109368876Y-107658447D01*
X109379029Y-107677443D01*
X109385284Y-107698062D01*
X109388000Y-107725640D01*
X109388000Y-108184360D01*
X109385284Y-108211938D01*
X109379029Y-108232557D01*
X109368876Y-108251553D01*
X109355208Y-108268208D01*
X109338553Y-108281876D01*
X109319557Y-108292029D01*
X109298938Y-108298284D01*
X109271360Y-108301000D01*
X108762640Y-108301000D01*
X108735062Y-108298284D01*
X108714443Y-108292029D01*
X108695447Y-108281876D01*
X108678792Y-108268208D01*
X108665124Y-108251553D01*
X108654971Y-108232557D01*
X108648716Y-108211938D01*
X108646000Y-108184360D01*
X108646000Y-107725640D01*
X108648716Y-107698062D01*
X108654971Y-107677443D01*
X108665124Y-107658447D01*
X108678792Y-107641792D01*
X108695447Y-107628124D01*
X108714443Y-107617971D01*
X108735062Y-107611716D01*
X108762640Y-107609000D01*
X109271360Y-107609000D01*
X109298938Y-107611716D01*
G37*
G36*
X108282938Y-107611716D02*
G01*
X108303557Y-107617971D01*
X108322553Y-107628124D01*
X108339208Y-107641792D01*
X108352876Y-107658447D01*
X108363029Y-107677443D01*
X108369284Y-107698062D01*
X108372000Y-107725640D01*
X108372000Y-108184360D01*
X108369284Y-108211938D01*
X108363029Y-108232557D01*
X108352876Y-108251553D01*
X108339208Y-108268208D01*
X108322553Y-108281876D01*
X108303557Y-108292029D01*
X108282938Y-108298284D01*
X108255360Y-108301000D01*
X107746640Y-108301000D01*
X107719062Y-108298284D01*
X107698443Y-108292029D01*
X107679447Y-108281876D01*
X107662792Y-108268208D01*
X107649124Y-108251553D01*
X107638971Y-108232557D01*
X107632716Y-108211938D01*
X107630000Y-108184360D01*
X107630000Y-107725640D01*
X107632716Y-107698062D01*
X107638971Y-107677443D01*
X107649124Y-107658447D01*
X107662792Y-107641792D01*
X107679447Y-107628124D01*
X107698443Y-107617971D01*
X107719062Y-107611716D01*
X107746640Y-107609000D01*
X108255360Y-107609000D01*
X108282938Y-107611716D01*
G37*
G36*
X128905355Y-100300083D02*
G01*
X128910029Y-100301501D01*
X128914330Y-100303800D01*
X128920702Y-100309029D01*
X128941076Y-100322643D01*
X128963715Y-100332020D01*
X128987749Y-100336800D01*
X129012253Y-100336800D01*
X129036286Y-100332019D01*
X129058925Y-100322642D01*
X129079298Y-100309029D01*
X129085670Y-100303800D01*
X129089971Y-100301501D01*
X129094645Y-100300083D01*
X129105641Y-100299000D01*
X129394359Y-100299000D01*
X129405355Y-100300083D01*
X129410029Y-100301501D01*
X129414330Y-100303800D01*
X129420702Y-100309029D01*
X129441076Y-100322643D01*
X129463715Y-100332020D01*
X129487749Y-100336800D01*
X129512253Y-100336800D01*
X129536286Y-100332019D01*
X129558925Y-100322642D01*
X129579298Y-100309029D01*
X129585670Y-100303800D01*
X129589971Y-100301501D01*
X129594645Y-100300083D01*
X129605641Y-100299000D01*
X129894359Y-100299000D01*
X129905355Y-100300083D01*
X129910029Y-100301501D01*
X129914330Y-100303800D01*
X129920702Y-100309029D01*
X129941076Y-100322643D01*
X129963715Y-100332020D01*
X129987749Y-100336800D01*
X130012253Y-100336800D01*
X130036286Y-100332019D01*
X130058925Y-100322642D01*
X130079298Y-100309029D01*
X130085670Y-100303800D01*
X130089971Y-100301501D01*
X130094645Y-100300083D01*
X130105641Y-100299000D01*
X130394359Y-100299000D01*
X130405355Y-100300083D01*
X130410029Y-100301501D01*
X130414330Y-100303800D01*
X130420702Y-100309029D01*
X130441076Y-100322643D01*
X130463715Y-100332020D01*
X130487749Y-100336800D01*
X130512253Y-100336800D01*
X130536286Y-100332019D01*
X130558925Y-100322642D01*
X130579298Y-100309029D01*
X130585670Y-100303800D01*
X130589971Y-100301501D01*
X130594645Y-100300083D01*
X130605641Y-100299000D01*
X130894359Y-100299000D01*
X130905355Y-100300083D01*
X130910029Y-100301501D01*
X130914330Y-100303800D01*
X130920702Y-100309029D01*
X130941076Y-100322643D01*
X130963715Y-100332020D01*
X130987749Y-100336800D01*
X131012253Y-100336800D01*
X131036286Y-100332019D01*
X131058925Y-100322642D01*
X131079298Y-100309029D01*
X131085670Y-100303800D01*
X131089971Y-100301501D01*
X131094645Y-100300083D01*
X131105641Y-100299000D01*
X131394359Y-100299000D01*
X131405355Y-100300083D01*
X131410029Y-100301501D01*
X131414330Y-100303800D01*
X131420702Y-100309029D01*
X131441076Y-100322643D01*
X131463715Y-100332020D01*
X131487749Y-100336800D01*
X131512253Y-100336800D01*
X131536286Y-100332019D01*
X131558925Y-100322642D01*
X131579298Y-100309029D01*
X131585670Y-100303800D01*
X131589971Y-100301501D01*
X131594645Y-100300083D01*
X131605641Y-100299000D01*
X131894359Y-100299000D01*
X131905355Y-100300083D01*
X131910029Y-100301501D01*
X131914330Y-100303800D01*
X131920702Y-100309029D01*
X131941076Y-100322643D01*
X131963715Y-100332020D01*
X131987749Y-100336800D01*
X132012253Y-100336800D01*
X132036286Y-100332019D01*
X132058925Y-100322642D01*
X132079298Y-100309029D01*
X132085670Y-100303800D01*
X132089971Y-100301501D01*
X132094645Y-100300083D01*
X132105641Y-100299000D01*
X132394359Y-100299000D01*
X132405355Y-100300083D01*
X132410029Y-100301501D01*
X132414330Y-100303800D01*
X132420702Y-100309029D01*
X132441076Y-100322643D01*
X132463715Y-100332020D01*
X132487749Y-100336800D01*
X132512253Y-100336800D01*
X132536286Y-100332019D01*
X132558925Y-100322642D01*
X132579298Y-100309029D01*
X132585670Y-100303800D01*
X132589971Y-100301501D01*
X132594645Y-100300083D01*
X132605641Y-100299000D01*
X132894359Y-100299000D01*
X132905355Y-100300083D01*
X132910029Y-100301501D01*
X132914330Y-100303800D01*
X132920702Y-100309029D01*
X132941076Y-100322643D01*
X132963715Y-100332020D01*
X132987749Y-100336800D01*
X133012253Y-100336800D01*
X133036286Y-100332019D01*
X133058925Y-100322642D01*
X133079298Y-100309029D01*
X133085670Y-100303800D01*
X133089971Y-100301501D01*
X133094645Y-100300083D01*
X133105641Y-100299000D01*
X133394359Y-100299000D01*
X133405355Y-100300083D01*
X133410029Y-100301501D01*
X133414330Y-100303800D01*
X133420702Y-100309029D01*
X133441076Y-100322643D01*
X133463715Y-100332020D01*
X133487749Y-100336800D01*
X133512253Y-100336800D01*
X133536286Y-100332019D01*
X133558925Y-100322642D01*
X133579298Y-100309029D01*
X133585670Y-100303800D01*
X133589971Y-100301501D01*
X133594645Y-100300083D01*
X133605641Y-100299000D01*
X133894359Y-100299000D01*
X133905355Y-100300083D01*
X133910029Y-100301501D01*
X133914330Y-100303800D01*
X133920702Y-100309029D01*
X133941076Y-100322643D01*
X133963715Y-100332020D01*
X133987749Y-100336800D01*
X134012253Y-100336800D01*
X134036286Y-100332019D01*
X134058925Y-100322642D01*
X134079298Y-100309029D01*
X134085670Y-100303800D01*
X134089971Y-100301501D01*
X134094645Y-100300083D01*
X134105641Y-100299000D01*
X134394359Y-100299000D01*
X134405355Y-100300083D01*
X134410029Y-100301501D01*
X134414331Y-100303800D01*
X134418104Y-100306896D01*
X134421200Y-100310669D01*
X134423499Y-100314971D01*
X134424917Y-100319645D01*
X134426000Y-100330641D01*
X134426000Y-101149001D01*
X134428402Y-101173387D01*
X134435515Y-101196836D01*
X134447066Y-101218447D01*
X134462611Y-101237389D01*
X134481553Y-101252934D01*
X134503164Y-101264485D01*
X134526613Y-101271598D01*
X134550999Y-101274000D01*
X135369359Y-101274000D01*
X135380355Y-101275083D01*
X135385029Y-101276501D01*
X135389331Y-101278800D01*
X135393104Y-101281896D01*
X135396200Y-101285669D01*
X135398499Y-101289971D01*
X135399917Y-101294645D01*
X135401000Y-101305641D01*
X135401000Y-101594359D01*
X135399917Y-101605355D01*
X135398499Y-101610029D01*
X135396200Y-101614330D01*
X135390971Y-101620702D01*
X135377357Y-101641076D01*
X135367980Y-101663715D01*
X135363200Y-101687749D01*
X135363200Y-101712253D01*
X135367981Y-101736286D01*
X135377358Y-101758925D01*
X135390971Y-101779298D01*
X135396200Y-101785670D01*
X135398499Y-101789971D01*
X135399917Y-101794645D01*
X135401000Y-101805641D01*
X135401000Y-102094359D01*
X135399917Y-102105355D01*
X135398499Y-102110029D01*
X135396200Y-102114330D01*
X135390971Y-102120702D01*
X135377357Y-102141076D01*
X135367980Y-102163715D01*
X135363200Y-102187749D01*
X135363200Y-102212253D01*
X135367981Y-102236286D01*
X135377358Y-102258925D01*
X135390971Y-102279298D01*
X135396200Y-102285670D01*
X135398499Y-102289971D01*
X135399917Y-102294645D01*
X135401000Y-102305641D01*
X135401000Y-102594359D01*
X135399917Y-102605355D01*
X135398499Y-102610029D01*
X135396200Y-102614330D01*
X135390971Y-102620702D01*
X135377357Y-102641076D01*
X135367980Y-102663715D01*
X135363200Y-102687749D01*
X135363200Y-102712253D01*
X135367981Y-102736286D01*
X135377358Y-102758925D01*
X135390971Y-102779298D01*
X135396200Y-102785670D01*
X135398499Y-102789971D01*
X135399917Y-102794645D01*
X135401000Y-102805641D01*
X135401000Y-103094359D01*
X135399917Y-103105355D01*
X135398499Y-103110029D01*
X135396200Y-103114330D01*
X135390971Y-103120702D01*
X135377357Y-103141076D01*
X135367980Y-103163715D01*
X135363200Y-103187749D01*
X135363200Y-103212253D01*
X135367981Y-103236286D01*
X135377358Y-103258925D01*
X135390971Y-103279298D01*
X135396200Y-103285670D01*
X135398499Y-103289971D01*
X135399917Y-103294645D01*
X135401000Y-103305641D01*
X135401000Y-103594359D01*
X135399917Y-103605355D01*
X135398499Y-103610029D01*
X135396200Y-103614330D01*
X135390971Y-103620702D01*
X135377357Y-103641076D01*
X135367980Y-103663715D01*
X135363200Y-103687749D01*
X135363200Y-103712253D01*
X135367981Y-103736286D01*
X135377358Y-103758925D01*
X135390971Y-103779298D01*
X135396200Y-103785670D01*
X135398499Y-103789971D01*
X135399917Y-103794645D01*
X135401000Y-103805641D01*
X135401000Y-104094359D01*
X135399917Y-104105355D01*
X135398499Y-104110029D01*
X135396200Y-104114330D01*
X135390971Y-104120702D01*
X135377357Y-104141076D01*
X135367980Y-104163715D01*
X135363200Y-104187749D01*
X135363200Y-104212253D01*
X135367981Y-104236286D01*
X135377358Y-104258925D01*
X135390971Y-104279298D01*
X135396200Y-104285670D01*
X135398499Y-104289971D01*
X135399917Y-104294645D01*
X135401000Y-104305641D01*
X135401000Y-104594359D01*
X135399917Y-104605355D01*
X135398499Y-104610029D01*
X135396200Y-104614330D01*
X135390971Y-104620702D01*
X135377357Y-104641076D01*
X135367980Y-104663715D01*
X135363200Y-104687749D01*
X135363200Y-104712253D01*
X135367981Y-104736286D01*
X135377358Y-104758925D01*
X135390971Y-104779298D01*
X135396200Y-104785670D01*
X135398499Y-104789971D01*
X135399917Y-104794645D01*
X135401000Y-104805641D01*
X135401000Y-105094359D01*
X135399917Y-105105355D01*
X135398499Y-105110029D01*
X135396200Y-105114330D01*
X135390971Y-105120702D01*
X135377357Y-105141076D01*
X135367980Y-105163715D01*
X135363200Y-105187749D01*
X135363200Y-105212253D01*
X135367981Y-105236286D01*
X135377358Y-105258925D01*
X135390971Y-105279298D01*
X135396200Y-105285670D01*
X135398499Y-105289971D01*
X135399917Y-105294645D01*
X135401000Y-105305641D01*
X135401000Y-105594359D01*
X135399917Y-105605355D01*
X135398499Y-105610029D01*
X135396200Y-105614330D01*
X135390971Y-105620702D01*
X135377357Y-105641076D01*
X135367980Y-105663715D01*
X135363200Y-105687749D01*
X135363200Y-105712253D01*
X135367981Y-105736286D01*
X135377358Y-105758925D01*
X135390971Y-105779298D01*
X135396200Y-105785670D01*
X135398499Y-105789971D01*
X135399917Y-105794645D01*
X135401000Y-105805641D01*
X135401000Y-106094359D01*
X135399917Y-106105355D01*
X135398499Y-106110029D01*
X135396200Y-106114330D01*
X135390971Y-106120702D01*
X135377357Y-106141076D01*
X135367980Y-106163715D01*
X135363200Y-106187749D01*
X135363200Y-106212253D01*
X135367981Y-106236286D01*
X135377358Y-106258925D01*
X135390971Y-106279298D01*
X135396200Y-106285670D01*
X135398499Y-106289971D01*
X135399917Y-106294645D01*
X135401000Y-106305641D01*
X135401000Y-106594359D01*
X135399917Y-106605355D01*
X135398499Y-106610029D01*
X135396200Y-106614330D01*
X135390971Y-106620702D01*
X135377357Y-106641076D01*
X135367980Y-106663715D01*
X135363200Y-106687749D01*
X135363200Y-106712253D01*
X135367981Y-106736286D01*
X135377358Y-106758925D01*
X135390971Y-106779298D01*
X135396200Y-106785670D01*
X135398499Y-106789971D01*
X135399917Y-106794645D01*
X135401000Y-106805641D01*
X135401000Y-107094359D01*
X135399917Y-107105355D01*
X135398499Y-107110029D01*
X135396200Y-107114331D01*
X135393104Y-107118104D01*
X135389331Y-107121200D01*
X135385029Y-107123499D01*
X135380355Y-107124917D01*
X135369359Y-107126000D01*
X134550999Y-107126000D01*
X134526613Y-107128402D01*
X134503164Y-107135515D01*
X134481553Y-107147066D01*
X134462611Y-107162611D01*
X134447066Y-107181553D01*
X134435515Y-107203164D01*
X134428402Y-107226613D01*
X134426000Y-107250999D01*
X134426000Y-108069359D01*
X134424917Y-108080355D01*
X134423499Y-108085029D01*
X134421200Y-108089331D01*
X134418104Y-108093104D01*
X134414331Y-108096200D01*
X134410029Y-108098499D01*
X134405355Y-108099917D01*
X134394359Y-108101000D01*
X134105641Y-108101000D01*
X134094645Y-108099917D01*
X134089971Y-108098499D01*
X134085670Y-108096200D01*
X134079298Y-108090971D01*
X134058924Y-108077357D01*
X134036285Y-108067980D01*
X134012251Y-108063200D01*
X133987747Y-108063200D01*
X133963714Y-108067981D01*
X133941075Y-108077358D01*
X133920702Y-108090971D01*
X133914330Y-108096200D01*
X133910029Y-108098499D01*
X133905355Y-108099917D01*
X133894359Y-108101000D01*
X133605641Y-108101000D01*
X133594645Y-108099917D01*
X133589971Y-108098499D01*
X133585670Y-108096200D01*
X133579298Y-108090971D01*
X133558924Y-108077357D01*
X133536285Y-108067980D01*
X133512251Y-108063200D01*
X133487747Y-108063200D01*
X133463714Y-108067981D01*
X133441075Y-108077358D01*
X133420702Y-108090971D01*
X133414330Y-108096200D01*
X133410029Y-108098499D01*
X133405355Y-108099917D01*
X133394359Y-108101000D01*
X133105641Y-108101000D01*
X133094645Y-108099917D01*
X133089971Y-108098499D01*
X133085670Y-108096200D01*
X133079298Y-108090971D01*
X133058924Y-108077357D01*
X133036285Y-108067980D01*
X133012251Y-108063200D01*
X132987747Y-108063200D01*
X132963714Y-108067981D01*
X132941075Y-108077358D01*
X132920702Y-108090971D01*
X132914330Y-108096200D01*
X132910029Y-108098499D01*
X132905355Y-108099917D01*
X132894359Y-108101000D01*
X132605641Y-108101000D01*
X132594645Y-108099917D01*
X132589971Y-108098499D01*
X132585670Y-108096200D01*
X132579298Y-108090971D01*
X132558924Y-108077357D01*
X132536285Y-108067980D01*
X132512251Y-108063200D01*
X132487747Y-108063200D01*
X132463714Y-108067981D01*
X132441075Y-108077358D01*
X132420702Y-108090971D01*
X132414330Y-108096200D01*
X132410029Y-108098499D01*
X132405355Y-108099917D01*
X132394359Y-108101000D01*
X132105641Y-108101000D01*
X132094645Y-108099917D01*
X132089971Y-108098499D01*
X132085670Y-108096200D01*
X132079298Y-108090971D01*
X132058924Y-108077357D01*
X132036285Y-108067980D01*
X132012251Y-108063200D01*
X131987747Y-108063200D01*
X131963714Y-108067981D01*
X131941075Y-108077358D01*
X131920702Y-108090971D01*
X131914330Y-108096200D01*
X131910029Y-108098499D01*
X131905355Y-108099917D01*
X131894359Y-108101000D01*
X131605641Y-108101000D01*
X131594645Y-108099917D01*
X131589971Y-108098499D01*
X131585670Y-108096200D01*
X131579298Y-108090971D01*
X131558924Y-108077357D01*
X131536285Y-108067980D01*
X131512251Y-108063200D01*
X131487747Y-108063200D01*
X131463714Y-108067981D01*
X131441075Y-108077358D01*
X131420702Y-108090971D01*
X131414330Y-108096200D01*
X131410029Y-108098499D01*
X131405355Y-108099917D01*
X131394359Y-108101000D01*
X131105641Y-108101000D01*
X131094645Y-108099917D01*
X131089971Y-108098499D01*
X131085670Y-108096200D01*
X131079298Y-108090971D01*
X131058924Y-108077357D01*
X131036285Y-108067980D01*
X131012251Y-108063200D01*
X130987747Y-108063200D01*
X130963714Y-108067981D01*
X130941075Y-108077358D01*
X130920702Y-108090971D01*
X130914330Y-108096200D01*
X130910029Y-108098499D01*
X130905355Y-108099917D01*
X130894359Y-108101000D01*
X130605641Y-108101000D01*
X130594645Y-108099917D01*
X130589971Y-108098499D01*
X130585670Y-108096200D01*
X130579298Y-108090971D01*
X130558924Y-108077357D01*
X130536285Y-108067980D01*
X130512251Y-108063200D01*
X130487747Y-108063200D01*
X130463714Y-108067981D01*
X130441075Y-108077358D01*
X130420702Y-108090971D01*
X130414330Y-108096200D01*
X130410029Y-108098499D01*
X130405355Y-108099917D01*
X130394359Y-108101000D01*
X130105641Y-108101000D01*
X130094645Y-108099917D01*
X130089971Y-108098499D01*
X130085670Y-108096200D01*
X130079298Y-108090971D01*
X130058924Y-108077357D01*
X130036285Y-108067980D01*
X130012251Y-108063200D01*
X129987747Y-108063200D01*
X129963714Y-108067981D01*
X129941075Y-108077358D01*
X129920702Y-108090971D01*
X129914330Y-108096200D01*
X129910029Y-108098499D01*
X129905355Y-108099917D01*
X129894359Y-108101000D01*
X129605641Y-108101000D01*
X129594645Y-108099917D01*
X129589971Y-108098499D01*
X129585670Y-108096200D01*
X129579298Y-108090971D01*
X129558924Y-108077357D01*
X129536285Y-108067980D01*
X129512251Y-108063200D01*
X129487747Y-108063200D01*
X129463714Y-108067981D01*
X129441075Y-108077358D01*
X129420702Y-108090971D01*
X129414330Y-108096200D01*
X129410029Y-108098499D01*
X129405355Y-108099917D01*
X129394359Y-108101000D01*
X129105641Y-108101000D01*
X129094645Y-108099917D01*
X129089971Y-108098499D01*
X129085670Y-108096200D01*
X129079298Y-108090971D01*
X129058924Y-108077357D01*
X129036285Y-108067980D01*
X129012251Y-108063200D01*
X128987747Y-108063200D01*
X128963714Y-108067981D01*
X128941075Y-108077358D01*
X128920702Y-108090971D01*
X128914330Y-108096200D01*
X128910029Y-108098499D01*
X128905355Y-108099917D01*
X128894359Y-108101000D01*
X128605641Y-108101000D01*
X128594645Y-108099917D01*
X128589971Y-108098499D01*
X128585669Y-108096200D01*
X128581896Y-108093104D01*
X128578800Y-108089331D01*
X128576501Y-108085029D01*
X128575083Y-108080355D01*
X128574000Y-108069359D01*
X128574000Y-107250999D01*
X128571598Y-107226613D01*
X128564485Y-107203164D01*
X128552934Y-107181553D01*
X128537389Y-107162611D01*
X128518447Y-107147066D01*
X128496836Y-107135515D01*
X128473387Y-107128402D01*
X128449001Y-107126000D01*
X127630641Y-107126000D01*
X127619645Y-107124917D01*
X127614971Y-107123499D01*
X127610669Y-107121200D01*
X127606896Y-107118104D01*
X127603800Y-107114331D01*
X127601501Y-107110029D01*
X127600083Y-107105355D01*
X127599000Y-107094359D01*
X127599000Y-106805641D01*
X127600083Y-106794645D01*
X127601501Y-106789971D01*
X127603800Y-106785670D01*
X127609029Y-106779298D01*
X127622643Y-106758924D01*
X127632020Y-106736285D01*
X127636800Y-106712251D01*
X127636800Y-106687747D01*
X127632019Y-106663714D01*
X127622642Y-106641075D01*
X127609029Y-106620702D01*
X127603800Y-106614330D01*
X127601501Y-106610029D01*
X127600083Y-106605355D01*
X127599000Y-106594359D01*
X127599000Y-106305641D01*
X127600083Y-106294645D01*
X127601501Y-106289971D01*
X127603800Y-106285670D01*
X127609029Y-106279298D01*
X127622643Y-106258924D01*
X127632020Y-106236285D01*
X127636800Y-106212251D01*
X127636800Y-106187747D01*
X127632019Y-106163714D01*
X127622642Y-106141075D01*
X127609029Y-106120702D01*
X127603800Y-106114330D01*
X127601501Y-106110029D01*
X127600083Y-106105355D01*
X127599000Y-106094359D01*
X127599000Y-105805641D01*
X127600083Y-105794645D01*
X127601501Y-105789971D01*
X127603800Y-105785670D01*
X127609029Y-105779298D01*
X127622643Y-105758924D01*
X127632020Y-105736285D01*
X127636800Y-105712251D01*
X127636800Y-105687747D01*
X127632019Y-105663714D01*
X127622642Y-105641075D01*
X127609029Y-105620702D01*
X127603800Y-105614330D01*
X127601501Y-105610029D01*
X127600083Y-105605355D01*
X127599000Y-105594359D01*
X127599000Y-105305641D01*
X127600083Y-105294645D01*
X127601501Y-105289971D01*
X127603800Y-105285670D01*
X127609029Y-105279298D01*
X127622643Y-105258924D01*
X127632020Y-105236285D01*
X127636800Y-105212251D01*
X127636800Y-105187747D01*
X127632019Y-105163714D01*
X127622642Y-105141075D01*
X127609029Y-105120702D01*
X127603800Y-105114330D01*
X127601501Y-105110029D01*
X127600083Y-105105355D01*
X127599000Y-105094359D01*
X127599000Y-104805641D01*
X127600083Y-104794645D01*
X127601501Y-104789971D01*
X127603800Y-104785670D01*
X127609029Y-104779298D01*
X127622643Y-104758924D01*
X127632020Y-104736285D01*
X127636800Y-104712251D01*
X127636800Y-104687747D01*
X127632019Y-104663714D01*
X127622642Y-104641075D01*
X127609029Y-104620702D01*
X127603800Y-104614330D01*
X127601501Y-104610029D01*
X127600083Y-104605355D01*
X127599000Y-104594359D01*
X127599000Y-104305641D01*
X127600083Y-104294645D01*
X127601501Y-104289971D01*
X127603800Y-104285670D01*
X127609029Y-104279298D01*
X127622643Y-104258924D01*
X127632020Y-104236285D01*
X127636800Y-104212251D01*
X127636800Y-104187747D01*
X127632019Y-104163714D01*
X127622642Y-104141075D01*
X127609029Y-104120702D01*
X127603800Y-104114330D01*
X127601501Y-104110029D01*
X127600083Y-104105355D01*
X127599000Y-104094359D01*
X127599000Y-103805641D01*
X127600083Y-103794645D01*
X127601501Y-103789971D01*
X127603800Y-103785670D01*
X127609029Y-103779298D01*
X127622643Y-103758924D01*
X127632020Y-103736285D01*
X127636800Y-103712251D01*
X127636800Y-103687747D01*
X127632019Y-103663714D01*
X127622642Y-103641075D01*
X127609029Y-103620702D01*
X127603800Y-103614330D01*
X127601501Y-103610029D01*
X127600083Y-103605355D01*
X127599000Y-103594359D01*
X127599000Y-103305641D01*
X127600083Y-103294645D01*
X127601501Y-103289971D01*
X127603800Y-103285670D01*
X127609029Y-103279298D01*
X127622643Y-103258924D01*
X127632020Y-103236285D01*
X127636800Y-103212251D01*
X127636800Y-103187747D01*
X127632019Y-103163714D01*
X127622642Y-103141075D01*
X127609029Y-103120702D01*
X127603800Y-103114330D01*
X127601501Y-103110029D01*
X127600083Y-103105355D01*
X127599000Y-103094359D01*
X127599000Y-102805641D01*
X127600083Y-102794645D01*
X127601501Y-102789971D01*
X127603800Y-102785670D01*
X127609029Y-102779298D01*
X127622643Y-102758924D01*
X127632020Y-102736285D01*
X127636800Y-102712251D01*
X127636800Y-102687747D01*
X127632019Y-102663714D01*
X127622642Y-102641075D01*
X127609029Y-102620702D01*
X127603800Y-102614330D01*
X127601501Y-102610029D01*
X127600083Y-102605355D01*
X127599000Y-102594359D01*
X127599000Y-102305641D01*
X127600083Y-102294645D01*
X127601501Y-102289971D01*
X127603800Y-102285670D01*
X127609029Y-102279298D01*
X127622643Y-102258924D01*
X127632020Y-102236285D01*
X127636800Y-102212251D01*
X127636800Y-102187747D01*
X127632019Y-102163714D01*
X127622642Y-102141075D01*
X127609029Y-102120702D01*
X127603800Y-102114330D01*
X127601501Y-102110029D01*
X127600083Y-102105355D01*
X127599000Y-102094359D01*
X127599000Y-101805641D01*
X127600083Y-101794645D01*
X127601501Y-101789971D01*
X127603800Y-101785670D01*
X127609029Y-101779298D01*
X127622643Y-101758924D01*
X127632020Y-101736285D01*
X127636800Y-101712251D01*
X127636800Y-101687749D01*
X128463200Y-101687749D01*
X128463200Y-101712253D01*
X128467981Y-101736286D01*
X128477358Y-101758925D01*
X128490971Y-101779298D01*
X128496200Y-101785670D01*
X128498499Y-101789971D01*
X128499917Y-101794645D01*
X128501000Y-101805641D01*
X128501000Y-102094359D01*
X128499917Y-102105355D01*
X128498499Y-102110029D01*
X128496200Y-102114330D01*
X128490971Y-102120702D01*
X128477357Y-102141076D01*
X128467980Y-102163715D01*
X128463200Y-102187749D01*
X128463200Y-102212253D01*
X128467981Y-102236286D01*
X128477358Y-102258925D01*
X128490971Y-102279298D01*
X128496200Y-102285670D01*
X128498499Y-102289971D01*
X128499917Y-102294645D01*
X128501000Y-102305641D01*
X128501000Y-102594359D01*
X128499917Y-102605355D01*
X128498499Y-102610029D01*
X128496200Y-102614330D01*
X128490971Y-102620702D01*
X128477357Y-102641076D01*
X128467980Y-102663715D01*
X128463200Y-102687749D01*
X128463200Y-102712253D01*
X128467981Y-102736286D01*
X128477358Y-102758925D01*
X128490971Y-102779298D01*
X128496200Y-102785670D01*
X128498499Y-102789971D01*
X128499917Y-102794645D01*
X128501000Y-102805641D01*
X128501000Y-103094359D01*
X128499917Y-103105355D01*
X128498499Y-103110029D01*
X128496200Y-103114330D01*
X128490971Y-103120702D01*
X128477357Y-103141076D01*
X128467980Y-103163715D01*
X128463200Y-103187749D01*
X128463200Y-103212253D01*
X128467981Y-103236286D01*
X128477358Y-103258925D01*
X128490971Y-103279298D01*
X128496200Y-103285670D01*
X128498499Y-103289971D01*
X128499917Y-103294645D01*
X128501000Y-103305641D01*
X128501000Y-103594359D01*
X128499917Y-103605355D01*
X128498499Y-103610029D01*
X128496200Y-103614330D01*
X128490971Y-103620702D01*
X128477357Y-103641076D01*
X128467980Y-103663715D01*
X128463200Y-103687749D01*
X128463200Y-103712253D01*
X128467981Y-103736286D01*
X128477358Y-103758925D01*
X128490971Y-103779298D01*
X128496200Y-103785670D01*
X128498499Y-103789971D01*
X128499917Y-103794645D01*
X128501000Y-103805641D01*
X128501000Y-104094359D01*
X128499917Y-104105355D01*
X128498499Y-104110029D01*
X128496200Y-104114330D01*
X128490971Y-104120702D01*
X128477357Y-104141076D01*
X128467980Y-104163715D01*
X128463200Y-104187749D01*
X128463200Y-104212253D01*
X128467981Y-104236286D01*
X128477358Y-104258925D01*
X128490971Y-104279298D01*
X128496200Y-104285670D01*
X128498499Y-104289971D01*
X128499917Y-104294645D01*
X128501000Y-104305641D01*
X128501000Y-104594359D01*
X128499917Y-104605355D01*
X128498499Y-104610029D01*
X128496200Y-104614330D01*
X128490971Y-104620702D01*
X128477357Y-104641076D01*
X128467980Y-104663715D01*
X128463200Y-104687749D01*
X128463200Y-104712253D01*
X128467981Y-104736286D01*
X128477358Y-104758925D01*
X128490971Y-104779298D01*
X128496200Y-104785670D01*
X128498499Y-104789971D01*
X128499917Y-104794645D01*
X128501000Y-104805641D01*
X128501000Y-105094359D01*
X128499917Y-105105355D01*
X128498499Y-105110029D01*
X128496200Y-105114330D01*
X128490971Y-105120702D01*
X128477357Y-105141076D01*
X128467980Y-105163715D01*
X128463200Y-105187749D01*
X128463200Y-105212253D01*
X128467981Y-105236286D01*
X128477358Y-105258925D01*
X128490971Y-105279298D01*
X128496200Y-105285670D01*
X128498499Y-105289971D01*
X128499917Y-105294645D01*
X128501000Y-105305641D01*
X128501000Y-105594359D01*
X128499917Y-105605355D01*
X128498499Y-105610029D01*
X128496200Y-105614330D01*
X128490971Y-105620702D01*
X128477357Y-105641076D01*
X128467980Y-105663715D01*
X128463200Y-105687749D01*
X128463200Y-105712253D01*
X128467981Y-105736286D01*
X128477358Y-105758925D01*
X128490971Y-105779298D01*
X128496200Y-105785670D01*
X128498499Y-105789971D01*
X128499917Y-105794645D01*
X128501000Y-105805641D01*
X128501000Y-106094359D01*
X128499917Y-106105355D01*
X128498499Y-106110029D01*
X128496200Y-106114330D01*
X128490971Y-106120702D01*
X128477357Y-106141076D01*
X128467980Y-106163715D01*
X128463200Y-106187749D01*
X128463200Y-106212253D01*
X128467981Y-106236286D01*
X128477358Y-106258925D01*
X128490971Y-106279298D01*
X128496200Y-106285670D01*
X128498499Y-106289971D01*
X128499917Y-106294645D01*
X128501000Y-106305641D01*
X128501000Y-106594359D01*
X128499917Y-106605355D01*
X128498499Y-106610029D01*
X128496200Y-106614330D01*
X128490971Y-106620702D01*
X128477357Y-106641076D01*
X128467980Y-106663715D01*
X128463200Y-106687749D01*
X128463200Y-106712253D01*
X128467981Y-106736286D01*
X128477358Y-106758925D01*
X128490971Y-106779298D01*
X128496200Y-106785670D01*
X128498499Y-106789971D01*
X128499917Y-106794645D01*
X128501000Y-106805641D01*
X128501000Y-107074001D01*
X128503402Y-107098387D01*
X128510515Y-107121836D01*
X128522066Y-107143447D01*
X128537611Y-107162389D01*
X128556553Y-107177934D01*
X128578164Y-107189485D01*
X128601613Y-107196598D01*
X128625999Y-107199000D01*
X128894359Y-107199000D01*
X128905355Y-107200083D01*
X128910029Y-107201501D01*
X128914330Y-107203800D01*
X128920702Y-107209029D01*
X128941076Y-107222643D01*
X128963715Y-107232020D01*
X128987749Y-107236800D01*
X129012253Y-107236800D01*
X129036286Y-107232019D01*
X129058925Y-107222642D01*
X129079298Y-107209029D01*
X129085670Y-107203800D01*
X129089971Y-107201501D01*
X129094645Y-107200083D01*
X129105641Y-107199000D01*
X129394359Y-107199000D01*
X129405355Y-107200083D01*
X129410029Y-107201501D01*
X129414330Y-107203800D01*
X129420702Y-107209029D01*
X129441076Y-107222643D01*
X129463715Y-107232020D01*
X129487749Y-107236800D01*
X129512253Y-107236800D01*
X129536286Y-107232019D01*
X129558925Y-107222642D01*
X129579298Y-107209029D01*
X129585670Y-107203800D01*
X129589971Y-107201501D01*
X129594645Y-107200083D01*
X129605641Y-107199000D01*
X129894359Y-107199000D01*
X129905355Y-107200083D01*
X129910029Y-107201501D01*
X129914330Y-107203800D01*
X129920702Y-107209029D01*
X129941076Y-107222643D01*
X129963715Y-107232020D01*
X129987749Y-107236800D01*
X130012253Y-107236800D01*
X130036286Y-107232019D01*
X130058925Y-107222642D01*
X130079298Y-107209029D01*
X130085670Y-107203800D01*
X130089971Y-107201501D01*
X130094645Y-107200083D01*
X130105641Y-107199000D01*
X130394359Y-107199000D01*
X130405355Y-107200083D01*
X130410029Y-107201501D01*
X130414330Y-107203800D01*
X130420702Y-107209029D01*
X130441076Y-107222643D01*
X130463715Y-107232020D01*
X130487749Y-107236800D01*
X130512253Y-107236800D01*
X130536286Y-107232019D01*
X130558925Y-107222642D01*
X130579298Y-107209029D01*
X130585670Y-107203800D01*
X130589971Y-107201501D01*
X130594645Y-107200083D01*
X130605641Y-107199000D01*
X130894359Y-107199000D01*
X130905355Y-107200083D01*
X130910029Y-107201501D01*
X130914330Y-107203800D01*
X130920702Y-107209029D01*
X130941076Y-107222643D01*
X130963715Y-107232020D01*
X130987749Y-107236800D01*
X131012253Y-107236800D01*
X131036286Y-107232019D01*
X131058925Y-107222642D01*
X131079298Y-107209029D01*
X131085670Y-107203800D01*
X131089971Y-107201501D01*
X131094645Y-107200083D01*
X131105641Y-107199000D01*
X131394359Y-107199000D01*
X131405355Y-107200083D01*
X131410029Y-107201501D01*
X131414330Y-107203800D01*
X131420702Y-107209029D01*
X131441076Y-107222643D01*
X131463715Y-107232020D01*
X131487749Y-107236800D01*
X131512253Y-107236800D01*
X131536286Y-107232019D01*
X131558925Y-107222642D01*
X131579298Y-107209029D01*
X131585670Y-107203800D01*
X131589971Y-107201501D01*
X131594645Y-107200083D01*
X131605641Y-107199000D01*
X131894359Y-107199000D01*
X131905355Y-107200083D01*
X131910029Y-107201501D01*
X131914330Y-107203800D01*
X131920702Y-107209029D01*
X131941076Y-107222643D01*
X131963715Y-107232020D01*
X131987749Y-107236800D01*
X132012253Y-107236800D01*
X132036286Y-107232019D01*
X132058925Y-107222642D01*
X132079298Y-107209029D01*
X132085670Y-107203800D01*
X132089971Y-107201501D01*
X132094645Y-107200083D01*
X132105641Y-107199000D01*
X132394359Y-107199000D01*
X132405355Y-107200083D01*
X132410029Y-107201501D01*
X132414330Y-107203800D01*
X132420702Y-107209029D01*
X132441076Y-107222643D01*
X132463715Y-107232020D01*
X132487749Y-107236800D01*
X132512253Y-107236800D01*
X132536286Y-107232019D01*
X132558925Y-107222642D01*
X132579298Y-107209029D01*
X132585670Y-107203800D01*
X132589971Y-107201501D01*
X132594645Y-107200083D01*
X132605641Y-107199000D01*
X132894359Y-107199000D01*
X132905355Y-107200083D01*
X132910029Y-107201501D01*
X132914330Y-107203800D01*
X132920702Y-107209029D01*
X132941076Y-107222643D01*
X132963715Y-107232020D01*
X132987749Y-107236800D01*
X133012253Y-107236800D01*
X133036286Y-107232019D01*
X133058925Y-107222642D01*
X133079298Y-107209029D01*
X133085670Y-107203800D01*
X133089971Y-107201501D01*
X133094645Y-107200083D01*
X133105641Y-107199000D01*
X133394359Y-107199000D01*
X133405355Y-107200083D01*
X133410029Y-107201501D01*
X133414330Y-107203800D01*
X133420702Y-107209029D01*
X133441076Y-107222643D01*
X133463715Y-107232020D01*
X133487749Y-107236800D01*
X133512253Y-107236800D01*
X133536286Y-107232019D01*
X133558925Y-107222642D01*
X133579298Y-107209029D01*
X133585670Y-107203800D01*
X133589971Y-107201501D01*
X133594645Y-107200083D01*
X133605641Y-107199000D01*
X133894359Y-107199000D01*
X133905355Y-107200083D01*
X133910029Y-107201501D01*
X133914330Y-107203800D01*
X133920702Y-107209029D01*
X133941076Y-107222643D01*
X133963715Y-107232020D01*
X133987749Y-107236800D01*
X134012253Y-107236800D01*
X134036286Y-107232019D01*
X134058925Y-107222642D01*
X134079298Y-107209029D01*
X134085670Y-107203800D01*
X134089971Y-107201501D01*
X134094645Y-107200083D01*
X134105641Y-107199000D01*
X134374001Y-107199000D01*
X134398387Y-107196598D01*
X134421836Y-107189485D01*
X134443447Y-107177934D01*
X134462389Y-107162389D01*
X134477934Y-107143447D01*
X134489485Y-107121836D01*
X134496598Y-107098387D01*
X134499000Y-107074001D01*
X134499000Y-106805641D01*
X134500083Y-106794645D01*
X134501501Y-106789971D01*
X134503800Y-106785670D01*
X134509029Y-106779298D01*
X134522643Y-106758924D01*
X134532020Y-106736285D01*
X134536800Y-106712251D01*
X134536800Y-106687747D01*
X134532019Y-106663714D01*
X134522642Y-106641075D01*
X134509029Y-106620702D01*
X134503800Y-106614330D01*
X134501501Y-106610029D01*
X134500083Y-106605355D01*
X134499000Y-106594359D01*
X134499000Y-106305641D01*
X134500083Y-106294645D01*
X134501501Y-106289971D01*
X134503800Y-106285670D01*
X134509029Y-106279298D01*
X134522643Y-106258924D01*
X134532020Y-106236285D01*
X134536800Y-106212251D01*
X134536800Y-106187747D01*
X134532019Y-106163714D01*
X134522642Y-106141075D01*
X134509029Y-106120702D01*
X134503800Y-106114330D01*
X134501501Y-106110029D01*
X134500083Y-106105355D01*
X134499000Y-106094359D01*
X134499000Y-105805641D01*
X134500083Y-105794645D01*
X134501501Y-105789971D01*
X134503800Y-105785670D01*
X134509029Y-105779298D01*
X134522643Y-105758924D01*
X134532020Y-105736285D01*
X134536800Y-105712251D01*
X134536800Y-105687747D01*
X134532019Y-105663714D01*
X134522642Y-105641075D01*
X134509029Y-105620702D01*
X134503800Y-105614330D01*
X134501501Y-105610029D01*
X134500083Y-105605355D01*
X134499000Y-105594359D01*
X134499000Y-105305641D01*
X134500083Y-105294645D01*
X134501501Y-105289971D01*
X134503800Y-105285670D01*
X134509029Y-105279298D01*
X134522643Y-105258924D01*
X134532020Y-105236285D01*
X134536800Y-105212251D01*
X134536800Y-105187747D01*
X134532019Y-105163714D01*
X134522642Y-105141075D01*
X134509029Y-105120702D01*
X134503800Y-105114330D01*
X134501501Y-105110029D01*
X134500083Y-105105355D01*
X134499000Y-105094359D01*
X134499000Y-104805641D01*
X134500083Y-104794645D01*
X134501501Y-104789971D01*
X134503800Y-104785670D01*
X134509029Y-104779298D01*
X134522643Y-104758924D01*
X134532020Y-104736285D01*
X134536800Y-104712251D01*
X134536800Y-104687747D01*
X134532019Y-104663714D01*
X134522642Y-104641075D01*
X134509029Y-104620702D01*
X134503800Y-104614330D01*
X134501501Y-104610029D01*
X134500083Y-104605355D01*
X134499000Y-104594359D01*
X134499000Y-104305641D01*
X134500083Y-104294645D01*
X134501501Y-104289971D01*
X134503800Y-104285670D01*
X134509029Y-104279298D01*
X134522643Y-104258924D01*
X134532020Y-104236285D01*
X134536800Y-104212251D01*
X134536800Y-104187747D01*
X134532019Y-104163714D01*
X134522642Y-104141075D01*
X134509029Y-104120702D01*
X134503800Y-104114330D01*
X134501501Y-104110029D01*
X134500083Y-104105355D01*
X134499000Y-104094359D01*
X134499000Y-103805641D01*
X134500083Y-103794645D01*
X134501501Y-103789971D01*
X134503800Y-103785670D01*
X134509029Y-103779298D01*
X134522643Y-103758924D01*
X134532020Y-103736285D01*
X134536800Y-103712251D01*
X134536800Y-103687747D01*
X134532019Y-103663714D01*
X134522642Y-103641075D01*
X134509029Y-103620702D01*
X134503800Y-103614330D01*
X134501501Y-103610029D01*
X134500083Y-103605355D01*
X134499000Y-103594359D01*
X134499000Y-103305641D01*
X134500083Y-103294645D01*
X134501501Y-103289971D01*
X134503800Y-103285670D01*
X134509029Y-103279298D01*
X134522643Y-103258924D01*
X134532020Y-103236285D01*
X134536800Y-103212251D01*
X134536800Y-103187747D01*
X134532019Y-103163714D01*
X134522642Y-103141075D01*
X134509029Y-103120702D01*
X134503800Y-103114330D01*
X134501501Y-103110029D01*
X134500083Y-103105355D01*
X134499000Y-103094359D01*
X134499000Y-102805641D01*
X134500083Y-102794645D01*
X134501501Y-102789971D01*
X134503800Y-102785670D01*
X134509029Y-102779298D01*
X134522643Y-102758924D01*
X134532020Y-102736285D01*
X134536800Y-102712251D01*
X134536800Y-102687747D01*
X134532019Y-102663714D01*
X134522642Y-102641075D01*
X134509029Y-102620702D01*
X134503800Y-102614330D01*
X134501501Y-102610029D01*
X134500083Y-102605355D01*
X134499000Y-102594359D01*
X134499000Y-102305641D01*
X134500083Y-102294645D01*
X134501501Y-102289971D01*
X134503800Y-102285670D01*
X134509029Y-102279298D01*
X134522643Y-102258924D01*
X134532020Y-102236285D01*
X134536800Y-102212251D01*
X134536800Y-102187747D01*
X134532019Y-102163714D01*
X134522642Y-102141075D01*
X134509029Y-102120702D01*
X134503800Y-102114330D01*
X134501501Y-102110029D01*
X134500083Y-102105355D01*
X134499000Y-102094359D01*
X134499000Y-101805641D01*
X134500083Y-101794645D01*
X134501501Y-101789971D01*
X134503800Y-101785670D01*
X134509029Y-101779298D01*
X134522643Y-101758924D01*
X134532020Y-101736285D01*
X134536800Y-101712251D01*
X134536800Y-101687747D01*
X134532019Y-101663714D01*
X134522642Y-101641075D01*
X134509029Y-101620702D01*
X134503800Y-101614330D01*
X134501501Y-101610029D01*
X134500083Y-101605355D01*
X134499000Y-101594359D01*
X134499000Y-101325999D01*
X134496598Y-101301613D01*
X134489485Y-101278164D01*
X134477934Y-101256553D01*
X134462389Y-101237611D01*
X134443447Y-101222066D01*
X134421836Y-101210515D01*
X134398387Y-101203402D01*
X134374001Y-101201000D01*
X134105641Y-101201000D01*
X134094645Y-101199917D01*
X134089971Y-101198499D01*
X134085670Y-101196200D01*
X134079298Y-101190971D01*
X134058924Y-101177357D01*
X134036285Y-101167980D01*
X134012251Y-101163200D01*
X133987747Y-101163200D01*
X133963714Y-101167981D01*
X133941075Y-101177358D01*
X133920702Y-101190971D01*
X133914330Y-101196200D01*
X133910029Y-101198499D01*
X133905355Y-101199917D01*
X133894359Y-101201000D01*
X133605641Y-101201000D01*
X133594645Y-101199917D01*
X133589971Y-101198499D01*
X133585670Y-101196200D01*
X133579298Y-101190971D01*
X133558924Y-101177357D01*
X133536285Y-101167980D01*
X133512251Y-101163200D01*
X133487747Y-101163200D01*
X133463714Y-101167981D01*
X133441075Y-101177358D01*
X133420702Y-101190971D01*
X133414330Y-101196200D01*
X133410029Y-101198499D01*
X133405355Y-101199917D01*
X133394359Y-101201000D01*
X133105641Y-101201000D01*
X133094645Y-101199917D01*
X133089971Y-101198499D01*
X133085670Y-101196200D01*
X133079298Y-101190971D01*
X133058924Y-101177357D01*
X133036285Y-101167980D01*
X133012251Y-101163200D01*
X132987747Y-101163200D01*
X132963714Y-101167981D01*
X132941075Y-101177358D01*
X132920702Y-101190971D01*
X132914330Y-101196200D01*
X132910029Y-101198499D01*
X132905355Y-101199917D01*
X132894359Y-101201000D01*
X132605641Y-101201000D01*
X132594645Y-101199917D01*
X132589971Y-101198499D01*
X132585670Y-101196200D01*
X132579298Y-101190971D01*
X132558924Y-101177357D01*
X132536285Y-101167980D01*
X132512251Y-101163200D01*
X132487747Y-101163200D01*
X132463714Y-101167981D01*
X132441075Y-101177358D01*
X132420702Y-101190971D01*
X132414330Y-101196200D01*
X132410029Y-101198499D01*
X132405355Y-101199917D01*
X132394359Y-101201000D01*
X132105641Y-101201000D01*
X132094645Y-101199917D01*
X132089971Y-101198499D01*
X132085670Y-101196200D01*
X132079298Y-101190971D01*
X132058924Y-101177357D01*
X132036285Y-101167980D01*
X132012251Y-101163200D01*
X131987747Y-101163200D01*
X131963714Y-101167981D01*
X131941075Y-101177358D01*
X131920702Y-101190971D01*
X131914330Y-101196200D01*
X131910029Y-101198499D01*
X131905355Y-101199917D01*
X131894359Y-101201000D01*
X131605641Y-101201000D01*
X131594645Y-101199917D01*
X131589971Y-101198499D01*
X131585670Y-101196200D01*
X131579298Y-101190971D01*
X131558924Y-101177357D01*
X131536285Y-101167980D01*
X131512251Y-101163200D01*
X131487747Y-101163200D01*
X131463714Y-101167981D01*
X131441075Y-101177358D01*
X131420702Y-101190971D01*
X131414330Y-101196200D01*
X131410029Y-101198499D01*
X131405355Y-101199917D01*
X131394359Y-101201000D01*
X131105641Y-101201000D01*
X131094645Y-101199917D01*
X131089971Y-101198499D01*
X131085670Y-101196200D01*
X131079298Y-101190971D01*
X131058924Y-101177357D01*
X131036285Y-101167980D01*
X131012251Y-101163200D01*
X130987747Y-101163200D01*
X130963714Y-101167981D01*
X130941075Y-101177358D01*
X130920702Y-101190971D01*
X130914330Y-101196200D01*
X130910029Y-101198499D01*
X130905355Y-101199917D01*
X130894359Y-101201000D01*
X130605641Y-101201000D01*
X130594645Y-101199917D01*
X130589971Y-101198499D01*
X130585670Y-101196200D01*
X130579298Y-101190971D01*
X130558924Y-101177357D01*
X130536285Y-101167980D01*
X130512251Y-101163200D01*
X130487747Y-101163200D01*
X130463714Y-101167981D01*
X130441075Y-101177358D01*
X130420702Y-101190971D01*
X130414330Y-101196200D01*
X130410029Y-101198499D01*
X130405355Y-101199917D01*
X130394359Y-101201000D01*
X130105641Y-101201000D01*
X130094645Y-101199917D01*
X130089971Y-101198499D01*
X130085670Y-101196200D01*
X130079298Y-101190971D01*
X130058924Y-101177357D01*
X130036285Y-101167980D01*
X130012251Y-101163200D01*
X129987747Y-101163200D01*
X129963714Y-101167981D01*
X129941075Y-101177358D01*
X129920702Y-101190971D01*
X129914330Y-101196200D01*
X129910029Y-101198499D01*
X129905355Y-101199917D01*
X129894359Y-101201000D01*
X129605641Y-101201000D01*
X129594645Y-101199917D01*
X129589971Y-101198499D01*
X129585670Y-101196200D01*
X129579298Y-101190971D01*
X129558924Y-101177357D01*
X129536285Y-101167980D01*
X129512251Y-101163200D01*
X129487747Y-101163200D01*
X129463714Y-101167981D01*
X129441075Y-101177358D01*
X129420702Y-101190971D01*
X129414330Y-101196200D01*
X129410029Y-101198499D01*
X129405355Y-101199917D01*
X129394359Y-101201000D01*
X129105641Y-101201000D01*
X129094645Y-101199917D01*
X129089971Y-101198499D01*
X129085670Y-101196200D01*
X129079298Y-101190971D01*
X129058924Y-101177357D01*
X129036285Y-101167980D01*
X129012251Y-101163200D01*
X128987747Y-101163200D01*
X128963714Y-101167981D01*
X128941075Y-101177358D01*
X128920702Y-101190971D01*
X128914330Y-101196200D01*
X128910029Y-101198499D01*
X128905355Y-101199917D01*
X128894359Y-101201000D01*
X128625999Y-101201000D01*
X128601613Y-101203402D01*
X128578164Y-101210515D01*
X128556553Y-101222066D01*
X128537611Y-101237611D01*
X128522066Y-101256553D01*
X128510515Y-101278164D01*
X128503402Y-101301613D01*
X128501000Y-101325999D01*
X128501000Y-101594359D01*
X128499917Y-101605355D01*
X128498499Y-101610029D01*
X128496200Y-101614330D01*
X128490971Y-101620702D01*
X128477357Y-101641076D01*
X128467980Y-101663715D01*
X128463200Y-101687749D01*
X127636800Y-101687749D01*
X127636800Y-101687747D01*
X127632019Y-101663714D01*
X127622642Y-101641075D01*
X127609029Y-101620702D01*
X127603800Y-101614330D01*
X127601501Y-101610029D01*
X127600083Y-101605355D01*
X127599000Y-101594359D01*
X127599000Y-101305641D01*
X127600083Y-101294645D01*
X127601501Y-101289971D01*
X127603800Y-101285669D01*
X127606896Y-101281896D01*
X127610669Y-101278800D01*
X127614971Y-101276501D01*
X127619645Y-101275083D01*
X127630641Y-101274000D01*
X128449001Y-101274000D01*
X128473387Y-101271598D01*
X128496836Y-101264485D01*
X128518447Y-101252934D01*
X128537389Y-101237389D01*
X128552934Y-101218447D01*
X128564485Y-101196836D01*
X128571598Y-101173387D01*
X128574000Y-101149001D01*
X128574000Y-100330641D01*
X128575083Y-100319645D01*
X128576501Y-100314971D01*
X128578800Y-100310669D01*
X128581896Y-100306896D01*
X128585669Y-100303800D01*
X128589971Y-100301501D01*
X128594645Y-100300083D01*
X128605641Y-100299000D01*
X128894359Y-100299000D01*
X128905355Y-100300083D01*
G37*
G36*
X133301990Y-102350760D02*
G01*
X133313266Y-102354181D01*
X133323670Y-102359742D01*
X133332781Y-102367219D01*
X133340258Y-102376330D01*
X133345819Y-102386734D01*
X133349240Y-102398010D01*
X133351000Y-102415884D01*
X133351000Y-105984113D01*
X133349240Y-106001990D01*
X133345819Y-106013266D01*
X133340258Y-106023670D01*
X133332781Y-106032781D01*
X133323670Y-106040258D01*
X133313266Y-106045819D01*
X133301990Y-106049240D01*
X133284116Y-106051000D01*
X129715884Y-106051000D01*
X129698010Y-106049240D01*
X129686734Y-106045819D01*
X129676330Y-106040258D01*
X129667219Y-106032781D01*
X129659742Y-106023670D01*
X129654181Y-106013266D01*
X129650760Y-106001990D01*
X129649000Y-105984113D01*
X129649000Y-102415884D01*
X129650760Y-102398010D01*
X129654181Y-102386734D01*
X129659742Y-102376330D01*
X129667219Y-102367219D01*
X129676330Y-102359742D01*
X129686734Y-102354181D01*
X129698010Y-102350760D01*
X129715884Y-102349000D01*
X133284116Y-102349000D01*
X133301990Y-102350760D01*
G37*
G36*
X116466938Y-107331716D02*
G01*
X116487557Y-107337971D01*
X116506553Y-107348124D01*
X116523208Y-107361792D01*
X116536876Y-107378447D01*
X116547029Y-107397443D01*
X116553284Y-107418062D01*
X116556000Y-107445640D01*
X116556000Y-107954360D01*
X116553284Y-107981938D01*
X116547029Y-108002557D01*
X116536876Y-108021553D01*
X116523208Y-108038208D01*
X116506553Y-108051876D01*
X116487557Y-108062029D01*
X116466938Y-108068284D01*
X116439360Y-108071000D01*
X115980640Y-108071000D01*
X115953062Y-108068284D01*
X115932443Y-108062029D01*
X115913447Y-108051876D01*
X115896792Y-108038208D01*
X115883124Y-108021553D01*
X115872971Y-108002557D01*
X115866716Y-107981938D01*
X115864000Y-107954360D01*
X115864000Y-107445640D01*
X115866716Y-107418062D01*
X115872971Y-107397443D01*
X115883124Y-107378447D01*
X115896792Y-107361792D01*
X115913447Y-107348124D01*
X115932443Y-107337971D01*
X115953062Y-107331716D01*
X115980640Y-107329000D01*
X116439360Y-107329000D01*
X116466938Y-107331716D01*
G37*
G36*
X117471938Y-107331716D02*
G01*
X117492557Y-107337971D01*
X117511553Y-107348124D01*
X117528208Y-107361792D01*
X117541876Y-107378447D01*
X117552029Y-107397443D01*
X117558284Y-107418062D01*
X117561000Y-107445640D01*
X117561000Y-107954360D01*
X117558284Y-107981938D01*
X117552029Y-108002557D01*
X117541876Y-108021553D01*
X117528208Y-108038208D01*
X117511553Y-108051876D01*
X117492557Y-108062029D01*
X117471938Y-108068284D01*
X117444360Y-108071000D01*
X116985640Y-108071000D01*
X116958062Y-108068284D01*
X116937443Y-108062029D01*
X116918447Y-108051876D01*
X116901792Y-108038208D01*
X116888124Y-108021553D01*
X116877971Y-108002557D01*
X116871716Y-107981938D01*
X116869000Y-107954360D01*
X116869000Y-107445640D01*
X116871716Y-107418062D01*
X116877971Y-107397443D01*
X116888124Y-107378447D01*
X116901792Y-107361792D01*
X116918447Y-107348124D01*
X116937443Y-107337971D01*
X116958062Y-107331716D01*
X116985640Y-107329000D01*
X117444360Y-107329000D01*
X117471938Y-107331716D01*
G37*
G36*
X114480938Y-107331716D02*
G01*
X114501557Y-107337971D01*
X114520553Y-107348124D01*
X114537208Y-107361792D01*
X114550876Y-107378447D01*
X114561029Y-107397443D01*
X114567284Y-107418062D01*
X114570000Y-107445640D01*
X114570000Y-107954360D01*
X114567284Y-107981938D01*
X114561029Y-108002557D01*
X114550876Y-108021553D01*
X114537208Y-108038208D01*
X114520553Y-108051876D01*
X114501557Y-108062029D01*
X114480938Y-108068284D01*
X114453360Y-108071000D01*
X113994640Y-108071000D01*
X113967062Y-108068284D01*
X113946443Y-108062029D01*
X113927447Y-108051876D01*
X113910792Y-108038208D01*
X113897124Y-108021553D01*
X113886971Y-108002557D01*
X113880716Y-107981938D01*
X113878000Y-107954360D01*
X113878000Y-107445640D01*
X113880716Y-107418062D01*
X113886971Y-107397443D01*
X113897124Y-107378447D01*
X113910792Y-107361792D01*
X113927447Y-107348124D01*
X113946443Y-107337971D01*
X113967062Y-107331716D01*
X113994640Y-107329000D01*
X114453360Y-107329000D01*
X114480938Y-107331716D01*
G37*
G36*
X113510938Y-107331716D02*
G01*
X113531557Y-107337971D01*
X113550553Y-107348124D01*
X113567208Y-107361792D01*
X113580876Y-107378447D01*
X113591029Y-107397443D01*
X113597284Y-107418062D01*
X113600000Y-107445640D01*
X113600000Y-107954360D01*
X113597284Y-107981938D01*
X113591029Y-108002557D01*
X113580876Y-108021553D01*
X113567208Y-108038208D01*
X113550553Y-108051876D01*
X113531557Y-108062029D01*
X113510938Y-108068284D01*
X113483360Y-108071000D01*
X113024640Y-108071000D01*
X112997062Y-108068284D01*
X112976443Y-108062029D01*
X112957447Y-108051876D01*
X112940792Y-108038208D01*
X112927124Y-108021553D01*
X112916971Y-108002557D01*
X112910716Y-107981938D01*
X112908000Y-107954360D01*
X112908000Y-107445640D01*
X112910716Y-107418062D01*
X112916971Y-107397443D01*
X112927124Y-107378447D01*
X112940792Y-107361792D01*
X112957447Y-107348124D01*
X112976443Y-107337971D01*
X112997062Y-107331716D01*
X113024640Y-107329000D01*
X113483360Y-107329000D01*
X113510938Y-107331716D01*
G37*
G36*
X118441938Y-107331716D02*
G01*
X118462557Y-107337971D01*
X118481553Y-107348124D01*
X118498208Y-107361792D01*
X118511876Y-107378447D01*
X118522029Y-107397443D01*
X118528284Y-107418062D01*
X118531000Y-107445640D01*
X118531000Y-107954360D01*
X118528284Y-107981938D01*
X118522029Y-108002557D01*
X118511876Y-108021553D01*
X118498208Y-108038208D01*
X118481553Y-108051876D01*
X118462557Y-108062029D01*
X118441938Y-108068284D01*
X118414360Y-108071000D01*
X117955640Y-108071000D01*
X117928062Y-108068284D01*
X117907443Y-108062029D01*
X117888447Y-108051876D01*
X117871792Y-108038208D01*
X117858124Y-108021553D01*
X117847971Y-108002557D01*
X117841716Y-107981938D01*
X117839000Y-107954360D01*
X117839000Y-107445640D01*
X117841716Y-107418062D01*
X117847971Y-107397443D01*
X117858124Y-107378447D01*
X117871792Y-107361792D01*
X117888447Y-107348124D01*
X117907443Y-107337971D01*
X117928062Y-107331716D01*
X117955640Y-107329000D01*
X118414360Y-107329000D01*
X118441938Y-107331716D01*
G37*
G36*
X115496938Y-107331716D02*
G01*
X115517557Y-107337971D01*
X115536553Y-107348124D01*
X115553208Y-107361792D01*
X115566876Y-107378447D01*
X115577029Y-107397443D01*
X115583284Y-107418062D01*
X115586000Y-107445640D01*
X115586000Y-107954360D01*
X115583284Y-107981938D01*
X115577029Y-108002557D01*
X115566876Y-108021553D01*
X115553208Y-108038208D01*
X115536553Y-108051876D01*
X115517557Y-108062029D01*
X115496938Y-108068284D01*
X115469360Y-108071000D01*
X115010640Y-108071000D01*
X114983062Y-108068284D01*
X114962443Y-108062029D01*
X114943447Y-108051876D01*
X114926792Y-108038208D01*
X114913124Y-108021553D01*
X114902971Y-108002557D01*
X114896716Y-107981938D01*
X114894000Y-107954360D01*
X114894000Y-107445640D01*
X114896716Y-107418062D01*
X114902971Y-107397443D01*
X114913124Y-107378447D01*
X114926792Y-107361792D01*
X114943447Y-107348124D01*
X114962443Y-107337971D01*
X114983062Y-107331716D01*
X115010640Y-107329000D01*
X115469360Y-107329000D01*
X115496938Y-107331716D01*
G37*
G36*
X139979591Y-106853085D02*
G01*
X140013569Y-106863393D01*
X140044890Y-106880134D01*
X140072339Y-106902661D01*
X140094866Y-106930110D01*
X140111607Y-106961431D01*
X140121915Y-106995409D01*
X140126000Y-107036890D01*
X140126000Y-107638110D01*
X140121915Y-107679591D01*
X140111607Y-107713569D01*
X140094866Y-107744890D01*
X140072339Y-107772339D01*
X140044890Y-107794866D01*
X140013569Y-107811607D01*
X139979591Y-107821915D01*
X139938110Y-107826000D01*
X139261890Y-107826000D01*
X139220409Y-107821915D01*
X139186431Y-107811607D01*
X139155110Y-107794866D01*
X139127661Y-107772339D01*
X139105134Y-107744890D01*
X139088393Y-107713569D01*
X139078085Y-107679591D01*
X139074000Y-107638110D01*
X139074000Y-107036890D01*
X139078085Y-106995409D01*
X139088393Y-106961431D01*
X139105134Y-106930110D01*
X139127661Y-106902661D01*
X139155110Y-106880134D01*
X139186431Y-106863393D01*
X139220409Y-106853085D01*
X139261890Y-106849000D01*
X139938110Y-106849000D01*
X139979591Y-106853085D01*
G37*
G36*
X138581938Y-107026716D02*
G01*
X138602557Y-107032971D01*
X138621553Y-107043124D01*
X138638208Y-107056792D01*
X138651876Y-107073447D01*
X138662029Y-107092443D01*
X138668284Y-107113062D01*
X138671000Y-107140640D01*
X138671000Y-107599360D01*
X138668284Y-107626938D01*
X138662029Y-107647557D01*
X138651876Y-107666553D01*
X138638208Y-107683208D01*
X138621553Y-107696876D01*
X138602557Y-107707029D01*
X138581938Y-107713284D01*
X138554360Y-107716000D01*
X138045640Y-107716000D01*
X138018062Y-107713284D01*
X137997443Y-107707029D01*
X137978447Y-107696876D01*
X137961792Y-107683208D01*
X137948124Y-107666553D01*
X137937971Y-107647557D01*
X137931716Y-107626938D01*
X137929000Y-107599360D01*
X137929000Y-107140640D01*
X137931716Y-107113062D01*
X137937971Y-107092443D01*
X137948124Y-107073447D01*
X137961792Y-107056792D01*
X137978447Y-107043124D01*
X137997443Y-107032971D01*
X138018062Y-107026716D01*
X138045640Y-107024000D01*
X138554360Y-107024000D01*
X138581938Y-107026716D01*
G37*
G36*
X137281938Y-107026716D02*
G01*
X137302557Y-107032971D01*
X137321553Y-107043124D01*
X137338208Y-107056792D01*
X137351876Y-107073447D01*
X137362029Y-107092443D01*
X137368284Y-107113062D01*
X137371000Y-107140640D01*
X137371000Y-107599360D01*
X137368284Y-107626938D01*
X137362029Y-107647557D01*
X137351876Y-107666553D01*
X137338208Y-107683208D01*
X137321553Y-107696876D01*
X137302557Y-107707029D01*
X137281938Y-107713284D01*
X137254360Y-107716000D01*
X136745640Y-107716000D01*
X136718062Y-107713284D01*
X136697443Y-107707029D01*
X136678447Y-107696876D01*
X136661792Y-107683208D01*
X136648124Y-107666553D01*
X136637971Y-107647557D01*
X136631716Y-107626938D01*
X136629000Y-107599360D01*
X136629000Y-107140640D01*
X136631716Y-107113062D01*
X136637971Y-107092443D01*
X136648124Y-107073447D01*
X136661792Y-107056792D01*
X136678447Y-107043124D01*
X136697443Y-107032971D01*
X136718062Y-107026716D01*
X136745640Y-107024000D01*
X137254360Y-107024000D01*
X137281938Y-107026716D01*
G37*
G36*
X110314938Y-106664716D02*
G01*
X110335557Y-106670971D01*
X110354553Y-106681124D01*
X110371208Y-106694792D01*
X110384876Y-106711447D01*
X110395029Y-106730443D01*
X110401284Y-106751062D01*
X110404000Y-106778640D01*
X110404000Y-107237360D01*
X110401284Y-107264938D01*
X110395029Y-107285557D01*
X110384876Y-107304553D01*
X110371208Y-107321208D01*
X110354553Y-107334876D01*
X110335557Y-107345029D01*
X110314938Y-107351284D01*
X110287360Y-107354000D01*
X109778640Y-107354000D01*
X109751062Y-107351284D01*
X109730443Y-107345029D01*
X109711447Y-107334876D01*
X109694792Y-107321208D01*
X109681124Y-107304553D01*
X109670971Y-107285557D01*
X109664716Y-107264938D01*
X109662000Y-107237360D01*
X109662000Y-106778640D01*
X109664716Y-106751062D01*
X109670971Y-106730443D01*
X109681124Y-106711447D01*
X109694792Y-106694792D01*
X109711447Y-106681124D01*
X109730443Y-106670971D01*
X109751062Y-106664716D01*
X109778640Y-106662000D01*
X110287360Y-106662000D01*
X110314938Y-106664716D01*
G37*
G36*
X109298938Y-106641716D02*
G01*
X109319557Y-106647971D01*
X109338553Y-106658124D01*
X109355208Y-106671792D01*
X109368876Y-106688447D01*
X109379029Y-106707443D01*
X109385284Y-106728062D01*
X109388000Y-106755640D01*
X109388000Y-107214360D01*
X109385284Y-107241938D01*
X109379029Y-107262557D01*
X109368876Y-107281553D01*
X109355208Y-107298208D01*
X109338553Y-107311876D01*
X109319557Y-107322029D01*
X109298938Y-107328284D01*
X109271360Y-107331000D01*
X108762640Y-107331000D01*
X108735062Y-107328284D01*
X108714443Y-107322029D01*
X108695447Y-107311876D01*
X108678792Y-107298208D01*
X108665124Y-107281553D01*
X108654971Y-107262557D01*
X108648716Y-107241938D01*
X108646000Y-107214360D01*
X108646000Y-106755640D01*
X108648716Y-106728062D01*
X108654971Y-106707443D01*
X108665124Y-106688447D01*
X108678792Y-106671792D01*
X108695447Y-106658124D01*
X108714443Y-106647971D01*
X108735062Y-106641716D01*
X108762640Y-106639000D01*
X109271360Y-106639000D01*
X109298938Y-106641716D01*
G37*
G36*
X108282938Y-106641716D02*
G01*
X108303557Y-106647971D01*
X108322553Y-106658124D01*
X108339208Y-106671792D01*
X108352876Y-106688447D01*
X108363029Y-106707443D01*
X108369284Y-106728062D01*
X108372000Y-106755640D01*
X108372000Y-107214360D01*
X108369284Y-107241938D01*
X108363029Y-107262557D01*
X108352876Y-107281553D01*
X108339208Y-107298208D01*
X108322553Y-107311876D01*
X108303557Y-107322029D01*
X108282938Y-107328284D01*
X108255360Y-107331000D01*
X107746640Y-107331000D01*
X107719062Y-107328284D01*
X107698443Y-107322029D01*
X107679447Y-107311876D01*
X107662792Y-107298208D01*
X107649124Y-107281553D01*
X107638971Y-107262557D01*
X107632716Y-107241938D01*
X107630000Y-107214360D01*
X107630000Y-106755640D01*
X107632716Y-106728062D01*
X107638971Y-106707443D01*
X107649124Y-106688447D01*
X107662792Y-106671792D01*
X107679447Y-106658124D01*
X107698443Y-106647971D01*
X107719062Y-106641716D01*
X107746640Y-106639000D01*
X108255360Y-106639000D01*
X108282938Y-106641716D01*
G37*
G36*
X111836938Y-105473716D02*
G01*
X111857557Y-105479971D01*
X111876553Y-105490124D01*
X111893208Y-105503792D01*
X111906876Y-105520447D01*
X111917029Y-105539443D01*
X111923284Y-105560062D01*
X111926000Y-105587640D01*
X111926000Y-106096360D01*
X111923284Y-106123938D01*
X111917029Y-106144557D01*
X111906876Y-106163553D01*
X111893208Y-106180208D01*
X111867315Y-106201456D01*
X111866643Y-106201906D01*
X111849322Y-106219240D01*
X111847600Y-106221819D01*
X111839260Y-106218368D01*
X111803021Y-106213000D01*
X111564979Y-106213000D01*
X111540593Y-106215402D01*
X111517144Y-106222515D01*
X111495533Y-106234066D01*
X111476591Y-106249611D01*
X111461046Y-106268553D01*
X111449495Y-106290164D01*
X111442382Y-106313613D01*
X111439980Y-106337999D01*
X111442382Y-106362385D01*
X111449495Y-106385834D01*
X111461046Y-106407445D01*
X111476591Y-106426387D01*
X111486762Y-106433933D01*
X111486038Y-106434816D01*
X111512208Y-106456292D01*
X111525876Y-106472947D01*
X111536029Y-106491943D01*
X111542284Y-106512562D01*
X111545000Y-106540140D01*
X111545000Y-107048860D01*
X111542284Y-107076438D01*
X111536029Y-107097057D01*
X111525876Y-107116053D01*
X111512208Y-107132708D01*
X111495553Y-107146376D01*
X111476557Y-107156529D01*
X111455938Y-107162784D01*
X111428360Y-107165500D01*
X110969640Y-107165500D01*
X110942062Y-107162784D01*
X110921443Y-107156529D01*
X110902447Y-107146376D01*
X110885792Y-107132708D01*
X110872124Y-107116053D01*
X110861971Y-107097057D01*
X110855716Y-107076438D01*
X110853000Y-107048860D01*
X110853000Y-106540140D01*
X110855716Y-106512562D01*
X110861971Y-106491943D01*
X110872124Y-106472947D01*
X110885792Y-106456292D01*
X110902447Y-106442624D01*
X110921443Y-106432471D01*
X110942062Y-106426216D01*
X110969640Y-106423500D01*
X111214021Y-106423500D01*
X111238407Y-106421098D01*
X111261856Y-106413985D01*
X111283467Y-106402434D01*
X111302409Y-106386889D01*
X111317954Y-106367947D01*
X111329505Y-106346336D01*
X111336618Y-106322887D01*
X111339020Y-106298501D01*
X111336618Y-106274115D01*
X111329505Y-106250666D01*
X111317954Y-106229055D01*
X111302409Y-106210113D01*
X111292238Y-106202567D01*
X111292962Y-106201684D01*
X111266792Y-106180208D01*
X111253124Y-106163553D01*
X111242971Y-106144557D01*
X111236716Y-106123938D01*
X111234000Y-106096360D01*
X111234000Y-105587640D01*
X111236716Y-105560062D01*
X111242971Y-105539443D01*
X111253124Y-105520447D01*
X111266792Y-105503792D01*
X111283447Y-105490124D01*
X111302443Y-105479971D01*
X111323062Y-105473716D01*
X111350640Y-105471000D01*
X111809360Y-105471000D01*
X111836938Y-105473716D01*
G37*
G36*
X112806938Y-105473716D02*
G01*
X112827557Y-105479971D01*
X112846553Y-105490124D01*
X112863208Y-105503792D01*
X112876876Y-105520447D01*
X112887029Y-105539443D01*
X112893284Y-105560062D01*
X112896000Y-105587640D01*
X112896000Y-106096360D01*
X112893284Y-106123938D01*
X112887029Y-106144557D01*
X112876876Y-106163553D01*
X112863208Y-106180208D01*
X112846553Y-106193876D01*
X112827557Y-106204029D01*
X112806938Y-106210284D01*
X112779360Y-106213000D01*
X112534979Y-106213000D01*
X112510593Y-106215402D01*
X112487144Y-106222515D01*
X112465533Y-106234066D01*
X112446591Y-106249611D01*
X112431046Y-106268553D01*
X112419495Y-106290164D01*
X112412382Y-106313613D01*
X112409980Y-106337999D01*
X112412382Y-106362385D01*
X112419495Y-106385834D01*
X112431046Y-106407445D01*
X112446591Y-106426387D01*
X112456762Y-106433933D01*
X112456038Y-106434816D01*
X112482208Y-106456292D01*
X112495876Y-106472947D01*
X112506029Y-106491943D01*
X112512284Y-106512562D01*
X112515000Y-106540140D01*
X112515000Y-107048860D01*
X112512284Y-107076438D01*
X112506029Y-107097057D01*
X112495876Y-107116053D01*
X112482208Y-107132708D01*
X112465553Y-107146376D01*
X112446557Y-107156529D01*
X112425938Y-107162784D01*
X112398360Y-107165500D01*
X111939640Y-107165500D01*
X111912062Y-107162784D01*
X111891443Y-107156529D01*
X111872447Y-107146376D01*
X111855792Y-107132708D01*
X111842124Y-107116053D01*
X111831971Y-107097057D01*
X111825716Y-107076438D01*
X111823000Y-107048860D01*
X111823000Y-106540140D01*
X111825716Y-106512562D01*
X111831971Y-106491943D01*
X111842124Y-106472947D01*
X111855792Y-106456292D01*
X111881685Y-106435044D01*
X111882357Y-106434594D01*
X111899678Y-106417260D01*
X111901400Y-106414681D01*
X111909740Y-106418132D01*
X111945979Y-106423500D01*
X112184021Y-106423500D01*
X112208407Y-106421098D01*
X112231856Y-106413985D01*
X112253467Y-106402434D01*
X112272409Y-106386889D01*
X112287954Y-106367947D01*
X112299505Y-106346336D01*
X112306618Y-106322887D01*
X112309020Y-106298501D01*
X112306618Y-106274115D01*
X112299505Y-106250666D01*
X112287954Y-106229055D01*
X112272409Y-106210113D01*
X112262238Y-106202567D01*
X112262962Y-106201684D01*
X112236792Y-106180208D01*
X112223124Y-106163553D01*
X112212971Y-106144557D01*
X112206716Y-106123938D01*
X112204000Y-106096360D01*
X112204000Y-105587640D01*
X112206716Y-105560062D01*
X112212971Y-105539443D01*
X112223124Y-105520447D01*
X112236792Y-105503792D01*
X112253447Y-105490124D01*
X112272443Y-105479971D01*
X112293062Y-105473716D01*
X112320640Y-105471000D01*
X112779360Y-105471000D01*
X112806938Y-105473716D01*
G37*
G36*
X115591938Y-106131716D02*
G01*
X115612557Y-106137971D01*
X115631553Y-106148124D01*
X115648208Y-106161792D01*
X115661876Y-106178447D01*
X115672029Y-106197443D01*
X115678284Y-106218062D01*
X115681000Y-106245640D01*
X115681000Y-106754360D01*
X115678284Y-106781938D01*
X115672029Y-106802557D01*
X115661876Y-106821553D01*
X115648208Y-106838208D01*
X115631553Y-106851876D01*
X115612557Y-106862029D01*
X115591938Y-106868284D01*
X115564360Y-106871000D01*
X115105640Y-106871000D01*
X115078062Y-106868284D01*
X115057443Y-106862029D01*
X115038447Y-106851876D01*
X115021792Y-106838208D01*
X115008124Y-106821553D01*
X114997971Y-106802557D01*
X114991716Y-106781938D01*
X114989000Y-106754360D01*
X114989000Y-106245640D01*
X114991716Y-106218062D01*
X114997971Y-106197443D01*
X115008124Y-106178447D01*
X115021792Y-106161792D01*
X115038447Y-106148124D01*
X115057443Y-106137971D01*
X115078062Y-106131716D01*
X115105640Y-106129000D01*
X115564360Y-106129000D01*
X115591938Y-106131716D01*
G37*
G36*
X114621938Y-106131716D02*
G01*
X114642557Y-106137971D01*
X114661553Y-106148124D01*
X114678208Y-106161792D01*
X114691876Y-106178447D01*
X114702029Y-106197443D01*
X114708284Y-106218062D01*
X114711000Y-106245640D01*
X114711000Y-106754360D01*
X114708284Y-106781938D01*
X114702029Y-106802557D01*
X114691876Y-106821553D01*
X114678208Y-106838208D01*
X114661553Y-106851876D01*
X114642557Y-106862029D01*
X114621938Y-106868284D01*
X114594360Y-106871000D01*
X114135640Y-106871000D01*
X114108062Y-106868284D01*
X114087443Y-106862029D01*
X114068447Y-106851876D01*
X114051792Y-106838208D01*
X114038124Y-106821553D01*
X114027971Y-106802557D01*
X114021716Y-106781938D01*
X114019000Y-106754360D01*
X114019000Y-106245640D01*
X114021716Y-106218062D01*
X114027971Y-106197443D01*
X114038124Y-106178447D01*
X114051792Y-106161792D01*
X114068447Y-106148124D01*
X114087443Y-106137971D01*
X114108062Y-106131716D01*
X114135640Y-106129000D01*
X114594360Y-106129000D01*
X114621938Y-106131716D01*
G37*
G36*
X138581938Y-106056716D02*
G01*
X138602557Y-106062971D01*
X138621553Y-106073124D01*
X138638208Y-106086792D01*
X138651876Y-106103447D01*
X138662029Y-106122443D01*
X138668284Y-106143062D01*
X138671000Y-106170640D01*
X138671000Y-106629360D01*
X138668284Y-106656938D01*
X138662029Y-106677557D01*
X138651876Y-106696553D01*
X138638208Y-106713208D01*
X138621553Y-106726876D01*
X138602557Y-106737029D01*
X138581938Y-106743284D01*
X138554360Y-106746000D01*
X138045640Y-106746000D01*
X138018062Y-106743284D01*
X137997443Y-106737029D01*
X137978447Y-106726876D01*
X137961792Y-106713208D01*
X137948124Y-106696553D01*
X137937971Y-106677557D01*
X137931716Y-106656938D01*
X137929000Y-106629360D01*
X137929000Y-106170640D01*
X137931716Y-106143062D01*
X137937971Y-106122443D01*
X137948124Y-106103447D01*
X137961792Y-106086792D01*
X137978447Y-106073124D01*
X137997443Y-106062971D01*
X138018062Y-106056716D01*
X138045640Y-106054000D01*
X138554360Y-106054000D01*
X138581938Y-106056716D01*
G37*
G36*
X137281938Y-106056716D02*
G01*
X137302557Y-106062971D01*
X137321553Y-106073124D01*
X137338208Y-106086792D01*
X137351876Y-106103447D01*
X137362029Y-106122443D01*
X137368284Y-106143062D01*
X137371000Y-106170640D01*
X137371000Y-106629360D01*
X137368284Y-106656938D01*
X137362029Y-106677557D01*
X137351876Y-106696553D01*
X137338208Y-106713208D01*
X137321553Y-106726876D01*
X137302557Y-106737029D01*
X137281938Y-106743284D01*
X137254360Y-106746000D01*
X136745640Y-106746000D01*
X136718062Y-106743284D01*
X136697443Y-106737029D01*
X136678447Y-106726876D01*
X136661792Y-106713208D01*
X136648124Y-106696553D01*
X136637971Y-106677557D01*
X136631716Y-106656938D01*
X136629000Y-106629360D01*
X136629000Y-106170640D01*
X136631716Y-106143062D01*
X136637971Y-106122443D01*
X136648124Y-106103447D01*
X136661792Y-106086792D01*
X136678447Y-106073124D01*
X136697443Y-106062971D01*
X136718062Y-106056716D01*
X136745640Y-106054000D01*
X137254360Y-106054000D01*
X137281938Y-106056716D01*
G37*
G36*
X143901000Y-106583000D02*
G01*
X142199000Y-106583000D01*
X142199000Y-105481000D01*
X143901000Y-105481000D01*
X143901000Y-106583000D01*
G37*
G36*
X103052000Y-106387000D02*
G01*
X102250000Y-106387000D01*
X102250000Y-105835000D01*
X103052000Y-105835000D01*
X103052000Y-106387000D01*
G37*
G36*
X106156000Y-102924001D02*
G01*
X106158402Y-102948387D01*
X106165515Y-102971836D01*
X106177066Y-102993447D01*
X106192611Y-103012389D01*
X106211553Y-103027934D01*
X106233164Y-103039485D01*
X106256613Y-103046598D01*
X106280999Y-103049000D01*
X106609689Y-103049000D01*
X106612066Y-103053447D01*
X106627611Y-103072389D01*
X106646553Y-103087934D01*
X106668164Y-103099485D01*
X106691613Y-103106598D01*
X106715999Y-103109000D01*
X107666000Y-103109000D01*
X107666000Y-105491000D01*
X106715999Y-105491000D01*
X106691613Y-105493402D01*
X106668164Y-105500515D01*
X106646553Y-105512066D01*
X106627611Y-105527611D01*
X106612066Y-105546553D01*
X106609689Y-105551000D01*
X106280999Y-105551000D01*
X106256613Y-105553402D01*
X106233164Y-105560515D01*
X106211553Y-105572066D01*
X106192611Y-105587611D01*
X106177066Y-105606553D01*
X106165515Y-105628164D01*
X106158402Y-105651613D01*
X106156000Y-105675999D01*
X106156000Y-106336562D01*
X106147928Y-106317074D01*
X106134314Y-106296700D01*
X106116987Y-106279373D01*
X106096613Y-106265759D01*
X106073974Y-106256382D01*
X106037689Y-106251000D01*
X105274000Y-106251000D01*
X105274000Y-105675999D01*
X105271598Y-105651613D01*
X105264485Y-105628164D01*
X105252934Y-105606553D01*
X105237389Y-105587611D01*
X105218447Y-105572066D01*
X105196836Y-105560515D01*
X105173387Y-105553402D01*
X105149001Y-105551000D01*
X104820311Y-105551000D01*
X104817934Y-105546553D01*
X104802389Y-105527611D01*
X104783447Y-105512066D01*
X104761836Y-105500515D01*
X104738387Y-105493402D01*
X104714001Y-105491000D01*
X103764000Y-105491000D01*
X103764000Y-103109000D01*
X104714001Y-103109000D01*
X104738387Y-103106598D01*
X104761836Y-103099485D01*
X104783447Y-103087934D01*
X104802389Y-103072389D01*
X104817934Y-103053447D01*
X104820311Y-103049000D01*
X105149001Y-103049000D01*
X105173387Y-103046598D01*
X105196836Y-103039485D01*
X105218447Y-103027934D01*
X105237389Y-103012389D01*
X105252934Y-102993447D01*
X105264485Y-102971836D01*
X105271598Y-102948387D01*
X105274000Y-102924001D01*
X105274000Y-102349000D01*
X106156000Y-102349000D01*
X106156000Y-102924001D01*
G37*
G36*
X117471938Y-105531716D02*
G01*
X117492557Y-105537971D01*
X117511553Y-105548124D01*
X117528208Y-105561792D01*
X117541876Y-105578447D01*
X117552029Y-105597443D01*
X117558284Y-105618062D01*
X117561000Y-105645640D01*
X117561000Y-106154360D01*
X117558284Y-106181938D01*
X117552029Y-106202557D01*
X117541876Y-106221553D01*
X117528208Y-106238208D01*
X117511553Y-106251876D01*
X117492557Y-106262029D01*
X117471938Y-106268284D01*
X117444360Y-106271000D01*
X116985640Y-106271000D01*
X116958062Y-106268284D01*
X116937443Y-106262029D01*
X116918447Y-106251876D01*
X116901792Y-106238208D01*
X116888124Y-106221553D01*
X116877971Y-106202557D01*
X116871716Y-106181938D01*
X116869000Y-106154360D01*
X116869000Y-105645640D01*
X116871716Y-105618062D01*
X116877971Y-105597443D01*
X116888124Y-105578447D01*
X116901792Y-105561792D01*
X116918447Y-105548124D01*
X116937443Y-105537971D01*
X116958062Y-105531716D01*
X116985640Y-105529000D01*
X117444360Y-105529000D01*
X117471938Y-105531716D01*
G37*
G36*
X118441938Y-105531716D02*
G01*
X118462557Y-105537971D01*
X118481553Y-105548124D01*
X118498208Y-105561792D01*
X118511876Y-105578447D01*
X118522029Y-105597443D01*
X118528284Y-105618062D01*
X118531000Y-105645640D01*
X118531000Y-106154360D01*
X118528284Y-106181938D01*
X118522029Y-106202557D01*
X118511876Y-106221553D01*
X118498208Y-106238208D01*
X118481553Y-106251876D01*
X118462557Y-106262029D01*
X118441938Y-106268284D01*
X118414360Y-106271000D01*
X117955640Y-106271000D01*
X117928062Y-106268284D01*
X117907443Y-106262029D01*
X117888447Y-106251876D01*
X117871792Y-106238208D01*
X117858124Y-106221553D01*
X117847971Y-106202557D01*
X117841716Y-106181938D01*
X117839000Y-106154360D01*
X117839000Y-105645640D01*
X117841716Y-105618062D01*
X117847971Y-105597443D01*
X117858124Y-105578447D01*
X117871792Y-105561792D01*
X117888447Y-105548124D01*
X117907443Y-105537971D01*
X117928062Y-105531716D01*
X117955640Y-105529000D01*
X118414360Y-105529000D01*
X118441938Y-105531716D01*
G37*
G36*
X139979591Y-105278085D02*
G01*
X140013569Y-105288393D01*
X140044890Y-105305134D01*
X140072339Y-105327661D01*
X140094866Y-105355110D01*
X140111607Y-105386431D01*
X140121915Y-105420409D01*
X140126000Y-105461890D01*
X140126000Y-106063110D01*
X140121915Y-106104591D01*
X140111607Y-106138569D01*
X140094866Y-106169890D01*
X140072339Y-106197339D01*
X140044890Y-106219866D01*
X140013569Y-106236607D01*
X139979591Y-106246915D01*
X139938110Y-106251000D01*
X139261890Y-106251000D01*
X139220409Y-106246915D01*
X139186431Y-106236607D01*
X139155110Y-106219866D01*
X139127661Y-106197339D01*
X139105134Y-106169890D01*
X139088393Y-106138569D01*
X139078085Y-106104591D01*
X139074000Y-106063110D01*
X139074000Y-105461890D01*
X139078085Y-105420409D01*
X139088393Y-105386431D01*
X139105134Y-105355110D01*
X139127661Y-105327661D01*
X139155110Y-105305134D01*
X139186431Y-105288393D01*
X139220409Y-105278085D01*
X139261890Y-105274000D01*
X139938110Y-105274000D01*
X139979591Y-105278085D01*
G37*
G36*
X99710766Y-104612821D02*
G01*
X99847257Y-104669358D01*
X99970097Y-104751437D01*
X100074563Y-104855903D01*
X100156641Y-104978741D01*
X100210115Y-105107837D01*
X100221666Y-105129447D01*
X100237212Y-105148389D01*
X100256154Y-105163934D01*
X100277765Y-105175485D01*
X100301214Y-105182598D01*
X100325599Y-105185000D01*
X101052000Y-105185000D01*
X101052000Y-105737000D01*
X100191555Y-105737000D01*
X100167169Y-105739402D01*
X100143720Y-105746515D01*
X100122109Y-105758066D01*
X100103167Y-105773611D01*
X100087622Y-105792553D01*
X100074563Y-105812097D01*
X99970097Y-105916563D01*
X99847257Y-105998642D01*
X99710766Y-106055179D01*
X99565870Y-106084000D01*
X99418130Y-106084000D01*
X99273234Y-106055179D01*
X99136743Y-105998642D01*
X99013903Y-105916563D01*
X98909437Y-105812097D01*
X98827358Y-105689257D01*
X98770821Y-105552766D01*
X98742000Y-105407870D01*
X98742000Y-105260130D01*
X98770821Y-105115234D01*
X98827358Y-104978743D01*
X98909437Y-104855903D01*
X99013903Y-104751437D01*
X99136743Y-104669358D01*
X99273234Y-104612821D01*
X99418130Y-104584000D01*
X99565870Y-104584000D01*
X99710766Y-104612821D01*
G37*
G36*
X108938938Y-105219716D02*
G01*
X108959557Y-105225971D01*
X108978553Y-105236124D01*
X108995208Y-105249792D01*
X109008876Y-105266447D01*
X109019029Y-105285443D01*
X109025284Y-105306062D01*
X109028000Y-105333640D01*
X109028000Y-105842360D01*
X109025284Y-105869938D01*
X109019029Y-105890557D01*
X109008876Y-105909553D01*
X108995208Y-105926208D01*
X108978553Y-105939876D01*
X108959557Y-105950029D01*
X108938938Y-105956284D01*
X108911360Y-105959000D01*
X108452640Y-105959000D01*
X108425062Y-105956284D01*
X108404443Y-105950029D01*
X108385447Y-105939876D01*
X108368792Y-105926208D01*
X108355124Y-105909553D01*
X108344971Y-105890557D01*
X108338716Y-105869938D01*
X108336000Y-105842360D01*
X108336000Y-105333640D01*
X108338716Y-105306062D01*
X108344971Y-105285443D01*
X108355124Y-105266447D01*
X108368792Y-105249792D01*
X108385447Y-105236124D01*
X108404443Y-105225971D01*
X108425062Y-105219716D01*
X108452640Y-105217000D01*
X108911360Y-105217000D01*
X108938938Y-105219716D01*
G37*
G36*
X109908938Y-105219716D02*
G01*
X109929557Y-105225971D01*
X109948553Y-105236124D01*
X109965208Y-105249792D01*
X109978876Y-105266447D01*
X109989029Y-105285443D01*
X109995284Y-105306062D01*
X109998000Y-105333640D01*
X109998000Y-105842360D01*
X109995284Y-105869938D01*
X109989029Y-105890557D01*
X109978876Y-105909553D01*
X109965208Y-105926208D01*
X109948553Y-105939876D01*
X109929557Y-105950029D01*
X109908938Y-105956284D01*
X109881360Y-105959000D01*
X109422640Y-105959000D01*
X109395062Y-105956284D01*
X109374443Y-105950029D01*
X109355447Y-105939876D01*
X109338792Y-105926208D01*
X109325124Y-105909553D01*
X109314971Y-105890557D01*
X109308716Y-105869938D01*
X109306000Y-105842360D01*
X109306000Y-105333640D01*
X109308716Y-105306062D01*
X109314971Y-105285443D01*
X109325124Y-105266447D01*
X109338792Y-105249792D01*
X109355447Y-105236124D01*
X109374443Y-105225971D01*
X109395062Y-105219716D01*
X109422640Y-105217000D01*
X109881360Y-105217000D01*
X109908938Y-105219716D01*
G37*
G36*
X114621938Y-104631716D02*
G01*
X114642557Y-104637971D01*
X114661553Y-104648124D01*
X114678208Y-104661792D01*
X114691876Y-104678447D01*
X114702029Y-104697443D01*
X114708284Y-104718062D01*
X114711000Y-104745640D01*
X114711000Y-105254360D01*
X114708284Y-105281938D01*
X114702029Y-105302557D01*
X114691876Y-105321553D01*
X114678208Y-105338208D01*
X114661553Y-105351876D01*
X114642557Y-105362029D01*
X114621938Y-105368284D01*
X114594360Y-105371000D01*
X114135640Y-105371000D01*
X114108062Y-105368284D01*
X114087443Y-105362029D01*
X114068447Y-105351876D01*
X114051792Y-105338208D01*
X114038124Y-105321553D01*
X114027971Y-105302557D01*
X114021716Y-105281938D01*
X114019000Y-105254360D01*
X114019000Y-104745640D01*
X114021716Y-104718062D01*
X114027971Y-104697443D01*
X114038124Y-104678447D01*
X114051792Y-104661792D01*
X114068447Y-104648124D01*
X114087443Y-104637971D01*
X114108062Y-104631716D01*
X114135640Y-104629000D01*
X114594360Y-104629000D01*
X114621938Y-104631716D01*
G37*
G36*
X115591938Y-104631716D02*
G01*
X115612557Y-104637971D01*
X115631553Y-104648124D01*
X115648208Y-104661792D01*
X115661876Y-104678447D01*
X115672029Y-104697443D01*
X115678284Y-104718062D01*
X115681000Y-104745640D01*
X115681000Y-105254360D01*
X115678284Y-105281938D01*
X115672029Y-105302557D01*
X115661876Y-105321553D01*
X115648208Y-105338208D01*
X115631553Y-105351876D01*
X115612557Y-105362029D01*
X115591938Y-105368284D01*
X115564360Y-105371000D01*
X115105640Y-105371000D01*
X115078062Y-105368284D01*
X115057443Y-105362029D01*
X115038447Y-105351876D01*
X115021792Y-105338208D01*
X115008124Y-105321553D01*
X114997971Y-105302557D01*
X114991716Y-105281938D01*
X114989000Y-105254360D01*
X114989000Y-104745640D01*
X114991716Y-104718062D01*
X114997971Y-104697443D01*
X115008124Y-104678447D01*
X115021792Y-104661792D01*
X115038447Y-104648124D01*
X115057443Y-104637971D01*
X115078062Y-104631716D01*
X115105640Y-104629000D01*
X115564360Y-104629000D01*
X115591938Y-104631716D01*
G37*
G36*
X112737000Y-105211000D02*
G01*
X112185000Y-105211000D01*
X112185000Y-104409000D01*
X112737000Y-104409000D01*
X112737000Y-105211000D01*
G37*
G36*
X111437000Y-105211000D02*
G01*
X110885000Y-105211000D01*
X110885000Y-104409000D01*
X111437000Y-104409000D01*
X111437000Y-105211000D01*
G37*
G36*
X103052000Y-105087000D02*
G01*
X102250000Y-105087000D01*
X102250000Y-104535000D01*
X103052000Y-104535000D01*
X103052000Y-105087000D01*
G37*
G36*
X108915938Y-104076716D02*
G01*
X108936557Y-104082971D01*
X108955553Y-104093124D01*
X108972208Y-104106792D01*
X108985876Y-104123447D01*
X108996029Y-104142443D01*
X109002284Y-104163062D01*
X109005000Y-104190640D01*
X109005000Y-104699360D01*
X109002284Y-104726938D01*
X108996029Y-104747557D01*
X108985876Y-104766553D01*
X108972208Y-104783208D01*
X108955553Y-104796876D01*
X108936557Y-104807029D01*
X108915938Y-104813284D01*
X108888360Y-104816000D01*
X108429640Y-104816000D01*
X108402062Y-104813284D01*
X108381443Y-104807029D01*
X108362447Y-104796876D01*
X108345792Y-104783208D01*
X108332124Y-104766553D01*
X108321971Y-104747557D01*
X108315716Y-104726938D01*
X108313000Y-104699360D01*
X108313000Y-104190640D01*
X108315716Y-104163062D01*
X108321971Y-104142443D01*
X108332124Y-104123447D01*
X108345792Y-104106792D01*
X108362447Y-104093124D01*
X108381443Y-104082971D01*
X108402062Y-104076716D01*
X108429640Y-104074000D01*
X108888360Y-104074000D01*
X108915938Y-104076716D01*
G37*
G36*
X109885938Y-104076716D02*
G01*
X109906557Y-104082971D01*
X109925553Y-104093124D01*
X109942208Y-104106792D01*
X109955876Y-104123447D01*
X109966029Y-104142443D01*
X109972284Y-104163062D01*
X109975000Y-104190640D01*
X109975000Y-104699360D01*
X109972284Y-104726938D01*
X109966029Y-104747557D01*
X109955876Y-104766553D01*
X109942208Y-104783208D01*
X109925553Y-104796876D01*
X109906557Y-104807029D01*
X109885938Y-104813284D01*
X109858360Y-104816000D01*
X109399640Y-104816000D01*
X109372062Y-104813284D01*
X109351443Y-104807029D01*
X109332447Y-104796876D01*
X109315792Y-104783208D01*
X109302124Y-104766553D01*
X109291971Y-104747557D01*
X109285716Y-104726938D01*
X109283000Y-104699360D01*
X109283000Y-104190640D01*
X109285716Y-104163062D01*
X109291971Y-104142443D01*
X109302124Y-104123447D01*
X109315792Y-104106792D01*
X109332447Y-104093124D01*
X109351443Y-104082971D01*
X109372062Y-104076716D01*
X109399640Y-104074000D01*
X109858360Y-104074000D01*
X109885938Y-104076716D01*
G37*
G36*
X139281938Y-103941716D02*
G01*
X139302557Y-103947971D01*
X139321553Y-103958124D01*
X139338208Y-103971792D01*
X139351876Y-103988447D01*
X139362029Y-104007443D01*
X139368284Y-104028062D01*
X139371000Y-104055640D01*
X139371000Y-104514360D01*
X139368284Y-104541938D01*
X139362029Y-104562557D01*
X139351876Y-104581553D01*
X139338208Y-104598208D01*
X139321553Y-104611876D01*
X139302557Y-104622029D01*
X139281938Y-104628284D01*
X139254360Y-104631000D01*
X138745640Y-104631000D01*
X138718062Y-104628284D01*
X138697443Y-104622029D01*
X138678447Y-104611876D01*
X138661792Y-104598208D01*
X138648124Y-104581553D01*
X138637971Y-104562557D01*
X138631716Y-104541938D01*
X138629000Y-104514360D01*
X138629000Y-104055640D01*
X138631716Y-104028062D01*
X138637971Y-104007443D01*
X138648124Y-103988447D01*
X138661792Y-103971792D01*
X138678447Y-103958124D01*
X138697443Y-103947971D01*
X138718062Y-103941716D01*
X138745640Y-103939000D01*
X139254360Y-103939000D01*
X139281938Y-103941716D01*
G37*
G36*
X146700766Y-102834821D02*
G01*
X146837257Y-102891358D01*
X146960097Y-102973437D01*
X147064563Y-103077903D01*
X147146642Y-103200743D01*
X147203179Y-103337234D01*
X147232000Y-103482130D01*
X147232000Y-103629870D01*
X147203179Y-103774766D01*
X147146642Y-103911257D01*
X147064563Y-104034097D01*
X146960097Y-104138563D01*
X146837257Y-104220642D01*
X146700766Y-104277179D01*
X146555870Y-104306000D01*
X146408130Y-104306000D01*
X146263234Y-104277179D01*
X146126743Y-104220642D01*
X146003903Y-104138563D01*
X145899437Y-104034097D01*
X145817358Y-103911257D01*
X145760821Y-103774766D01*
X145732000Y-103629870D01*
X145732000Y-103482130D01*
X145760821Y-103337234D01*
X145817358Y-103200743D01*
X145899437Y-103077903D01*
X146003903Y-102973437D01*
X146126743Y-102891358D01*
X146263234Y-102834821D01*
X146408130Y-102806000D01*
X146555870Y-102806000D01*
X146700766Y-102834821D01*
G37*
G36*
X138001000Y-104226000D02*
G01*
X136199000Y-104226000D01*
X136199000Y-103474000D01*
X138001000Y-103474000D01*
X138001000Y-104226000D01*
G37*
G36*
X102392938Y-103187716D02*
G01*
X102413557Y-103193971D01*
X102432553Y-103204124D01*
X102449208Y-103217792D01*
X102462876Y-103234447D01*
X102473029Y-103253443D01*
X102479284Y-103274062D01*
X102482000Y-103301640D01*
X102482000Y-103810360D01*
X102479284Y-103837938D01*
X102473029Y-103858557D01*
X102462876Y-103877553D01*
X102449208Y-103894208D01*
X102432553Y-103907876D01*
X102413557Y-103918029D01*
X102392938Y-103924284D01*
X102365360Y-103927000D01*
X101906640Y-103927000D01*
X101879062Y-103924284D01*
X101858443Y-103918029D01*
X101839447Y-103907876D01*
X101822792Y-103894208D01*
X101809124Y-103877553D01*
X101798971Y-103858557D01*
X101792716Y-103837938D01*
X101790000Y-103810360D01*
X101790000Y-103301640D01*
X101792716Y-103274062D01*
X101798971Y-103253443D01*
X101809124Y-103234447D01*
X101822792Y-103217792D01*
X101839447Y-103204124D01*
X101858443Y-103193971D01*
X101879062Y-103187716D01*
X101906640Y-103185000D01*
X102365360Y-103185000D01*
X102392938Y-103187716D01*
G37*
G36*
X101422938Y-103187716D02*
G01*
X101443557Y-103193971D01*
X101462553Y-103204124D01*
X101479208Y-103217792D01*
X101492876Y-103234447D01*
X101503029Y-103253443D01*
X101509284Y-103274062D01*
X101512000Y-103301640D01*
X101512000Y-103810360D01*
X101509284Y-103837938D01*
X101503029Y-103858557D01*
X101492876Y-103877553D01*
X101479208Y-103894208D01*
X101462553Y-103907876D01*
X101443557Y-103918029D01*
X101422938Y-103924284D01*
X101395360Y-103927000D01*
X100936640Y-103927000D01*
X100909062Y-103924284D01*
X100888443Y-103918029D01*
X100869447Y-103907876D01*
X100852792Y-103894208D01*
X100839124Y-103877553D01*
X100828971Y-103858557D01*
X100822716Y-103837938D01*
X100820000Y-103810360D01*
X100820000Y-103301640D01*
X100822716Y-103274062D01*
X100828971Y-103253443D01*
X100839124Y-103234447D01*
X100852792Y-103217792D01*
X100869447Y-103204124D01*
X100888443Y-103193971D01*
X100909062Y-103187716D01*
X100936640Y-103185000D01*
X101395360Y-103185000D01*
X101422938Y-103187716D01*
G37*
G36*
X139281938Y-102971716D02*
G01*
X139302557Y-102977971D01*
X139321553Y-102988124D01*
X139338208Y-103001792D01*
X139351876Y-103018447D01*
X139362029Y-103037443D01*
X139368284Y-103058062D01*
X139371000Y-103085640D01*
X139371000Y-103544360D01*
X139368284Y-103571938D01*
X139362029Y-103592557D01*
X139351876Y-103611553D01*
X139338208Y-103628208D01*
X139321553Y-103641876D01*
X139302557Y-103652029D01*
X139281938Y-103658284D01*
X139254360Y-103661000D01*
X138745640Y-103661000D01*
X138718062Y-103658284D01*
X138697443Y-103652029D01*
X138678447Y-103641876D01*
X138661792Y-103628208D01*
X138648124Y-103611553D01*
X138637971Y-103592557D01*
X138631716Y-103571938D01*
X138629000Y-103544360D01*
X138629000Y-103085640D01*
X138631716Y-103058062D01*
X138637971Y-103037443D01*
X138648124Y-103018447D01*
X138661792Y-103001792D01*
X138678447Y-102988124D01*
X138697443Y-102977971D01*
X138718062Y-102971716D01*
X138745640Y-102969000D01*
X139254360Y-102969000D01*
X139281938Y-102971716D01*
G37*
G36*
X110314938Y-102941716D02*
G01*
X110335557Y-102947971D01*
X110354553Y-102958124D01*
X110371208Y-102971792D01*
X110384876Y-102988447D01*
X110395029Y-103007443D01*
X110401284Y-103028062D01*
X110404000Y-103055640D01*
X110404000Y-103514360D01*
X110401284Y-103541938D01*
X110395029Y-103562557D01*
X110384876Y-103581553D01*
X110371208Y-103598208D01*
X110354553Y-103611876D01*
X110335557Y-103622029D01*
X110314938Y-103628284D01*
X110287360Y-103631000D01*
X109778640Y-103631000D01*
X109751062Y-103628284D01*
X109730443Y-103622029D01*
X109711447Y-103611876D01*
X109694792Y-103598208D01*
X109681124Y-103581553D01*
X109670971Y-103562557D01*
X109664716Y-103541938D01*
X109662000Y-103514360D01*
X109662000Y-103055640D01*
X109664716Y-103028062D01*
X109670971Y-103007443D01*
X109681124Y-102988447D01*
X109694792Y-102971792D01*
X109711447Y-102958124D01*
X109730443Y-102947971D01*
X109751062Y-102941716D01*
X109778640Y-102939000D01*
X110287360Y-102939000D01*
X110314938Y-102941716D01*
G37*
G36*
X114331000Y-103326000D02*
G01*
X113169000Y-103326000D01*
X113169000Y-100674000D01*
X114331000Y-100674000D01*
X114331000Y-103326000D01*
G37*
G36*
X116531000Y-103326000D02*
G01*
X115369000Y-103326000D01*
X115369000Y-102574000D01*
X116531000Y-102574000D01*
X116531000Y-103326000D01*
G37*
G36*
X112087000Y-103211000D02*
G01*
X111535000Y-103211000D01*
X111535000Y-102409000D01*
X112087000Y-102409000D01*
X112087000Y-103211000D01*
G37*
G36*
X143901000Y-103051000D02*
G01*
X142199000Y-103051000D01*
X142199000Y-101949000D01*
X143901000Y-101949000D01*
X143901000Y-103051000D01*
G37*
G36*
X125881938Y-102141716D02*
G01*
X125902557Y-102147971D01*
X125921553Y-102158124D01*
X125938208Y-102171792D01*
X125951876Y-102188447D01*
X125962029Y-102207443D01*
X125968284Y-102228062D01*
X125971000Y-102255640D01*
X125971000Y-102714360D01*
X125968284Y-102741938D01*
X125962029Y-102762557D01*
X125951876Y-102781553D01*
X125938208Y-102798208D01*
X125921553Y-102811876D01*
X125902557Y-102822029D01*
X125881938Y-102828284D01*
X125854360Y-102831000D01*
X125345640Y-102831000D01*
X125318062Y-102828284D01*
X125297443Y-102822029D01*
X125278447Y-102811876D01*
X125261792Y-102798208D01*
X125248124Y-102781553D01*
X125237971Y-102762557D01*
X125231716Y-102741938D01*
X125229000Y-102714360D01*
X125229000Y-102255640D01*
X125231716Y-102228062D01*
X125237971Y-102207443D01*
X125248124Y-102188447D01*
X125261792Y-102171792D01*
X125278447Y-102158124D01*
X125297443Y-102147971D01*
X125318062Y-102141716D01*
X125345640Y-102139000D01*
X125854360Y-102139000D01*
X125881938Y-102141716D01*
G37*
G36*
X127081938Y-102141716D02*
G01*
X127102557Y-102147971D01*
X127121553Y-102158124D01*
X127138208Y-102171792D01*
X127151876Y-102188447D01*
X127162029Y-102207443D01*
X127168284Y-102228062D01*
X127171000Y-102255640D01*
X127171000Y-102714360D01*
X127168284Y-102741938D01*
X127162029Y-102762557D01*
X127151876Y-102781553D01*
X127138208Y-102798208D01*
X127121553Y-102811876D01*
X127102557Y-102822029D01*
X127081938Y-102828284D01*
X127054360Y-102831000D01*
X126545640Y-102831000D01*
X126518062Y-102828284D01*
X126497443Y-102822029D01*
X126478447Y-102811876D01*
X126461792Y-102798208D01*
X126448124Y-102781553D01*
X126437971Y-102762557D01*
X126431716Y-102741938D01*
X126429000Y-102714360D01*
X126429000Y-102255640D01*
X126431716Y-102228062D01*
X126437971Y-102207443D01*
X126448124Y-102188447D01*
X126461792Y-102171792D01*
X126478447Y-102158124D01*
X126497443Y-102147971D01*
X126518062Y-102141716D01*
X126545640Y-102139000D01*
X127054360Y-102139000D01*
X127081938Y-102141716D01*
G37*
G36*
X100891938Y-102044716D02*
G01*
X100912557Y-102050971D01*
X100931553Y-102061124D01*
X100948208Y-102074792D01*
X100961876Y-102091447D01*
X100972029Y-102110443D01*
X100978284Y-102131062D01*
X100981000Y-102158640D01*
X100981000Y-102667360D01*
X100978284Y-102694938D01*
X100972029Y-102715557D01*
X100961876Y-102734553D01*
X100948208Y-102751208D01*
X100931553Y-102764876D01*
X100912557Y-102775029D01*
X100891938Y-102781284D01*
X100864360Y-102784000D01*
X100405640Y-102784000D01*
X100378062Y-102781284D01*
X100357443Y-102775029D01*
X100338447Y-102764876D01*
X100321792Y-102751208D01*
X100308124Y-102734553D01*
X100297971Y-102715557D01*
X100291716Y-102694938D01*
X100289000Y-102667360D01*
X100289000Y-102158640D01*
X100291716Y-102131062D01*
X100297971Y-102110443D01*
X100308124Y-102091447D01*
X100321792Y-102074792D01*
X100338447Y-102061124D01*
X100357443Y-102050971D01*
X100378062Y-102044716D01*
X100405640Y-102042000D01*
X100864360Y-102042000D01*
X100891938Y-102044716D01*
G37*
G36*
X101861938Y-102044716D02*
G01*
X101882557Y-102050971D01*
X101901553Y-102061124D01*
X101918208Y-102074792D01*
X101931876Y-102091447D01*
X101942029Y-102110443D01*
X101948284Y-102131062D01*
X101951000Y-102158640D01*
X101951000Y-102667360D01*
X101948284Y-102694938D01*
X101942029Y-102715557D01*
X101931876Y-102734553D01*
X101918208Y-102751208D01*
X101901553Y-102764876D01*
X101882557Y-102775029D01*
X101861938Y-102781284D01*
X101834360Y-102784000D01*
X101375640Y-102784000D01*
X101348062Y-102781284D01*
X101327443Y-102775029D01*
X101308447Y-102764876D01*
X101291792Y-102751208D01*
X101278124Y-102734553D01*
X101267971Y-102715557D01*
X101261716Y-102694938D01*
X101259000Y-102667360D01*
X101259000Y-102158640D01*
X101261716Y-102131062D01*
X101267971Y-102110443D01*
X101278124Y-102091447D01*
X101291792Y-102074792D01*
X101308447Y-102061124D01*
X101327443Y-102050971D01*
X101348062Y-102044716D01*
X101375640Y-102042000D01*
X101834360Y-102042000D01*
X101861938Y-102044716D01*
G37*
G36*
X122901000Y-102751000D02*
G01*
X119799000Y-102751000D01*
X119799000Y-99949000D01*
X122901000Y-99949000D01*
X122901000Y-102751000D01*
G37*
G36*
X110314938Y-101971716D02*
G01*
X110335557Y-101977971D01*
X110354553Y-101988124D01*
X110371208Y-102001792D01*
X110384876Y-102018447D01*
X110395029Y-102037443D01*
X110401284Y-102058062D01*
X110404000Y-102085640D01*
X110404000Y-102544360D01*
X110401284Y-102571938D01*
X110395029Y-102592557D01*
X110384876Y-102611553D01*
X110371208Y-102628208D01*
X110354553Y-102641876D01*
X110335557Y-102652029D01*
X110314938Y-102658284D01*
X110287360Y-102661000D01*
X109778640Y-102661000D01*
X109751062Y-102658284D01*
X109730443Y-102652029D01*
X109711447Y-102641876D01*
X109694792Y-102628208D01*
X109681124Y-102611553D01*
X109670971Y-102592557D01*
X109664716Y-102571938D01*
X109662000Y-102544360D01*
X109662000Y-102085640D01*
X109664716Y-102058062D01*
X109670971Y-102037443D01*
X109681124Y-102018447D01*
X109694792Y-102001792D01*
X109711447Y-101988124D01*
X109730443Y-101977971D01*
X109751062Y-101971716D01*
X109778640Y-101969000D01*
X110287360Y-101969000D01*
X110314938Y-101971716D01*
G37*
G36*
X138001000Y-102326000D02*
G01*
X136199000Y-102326000D01*
X136199000Y-101574000D01*
X138001000Y-101574000D01*
X138001000Y-102326000D01*
G37*
G36*
X103581938Y-101541716D02*
G01*
X103602557Y-101547971D01*
X103621553Y-101558124D01*
X103638208Y-101571792D01*
X103651876Y-101588447D01*
X103662029Y-101607443D01*
X103668284Y-101628062D01*
X103671000Y-101655640D01*
X103671000Y-102114360D01*
X103668284Y-102141938D01*
X103662029Y-102162557D01*
X103651876Y-102181553D01*
X103638208Y-102198208D01*
X103621553Y-102211876D01*
X103602557Y-102222029D01*
X103581938Y-102228284D01*
X103554360Y-102231000D01*
X103045640Y-102231000D01*
X103018062Y-102228284D01*
X102997443Y-102222029D01*
X102978447Y-102211876D01*
X102961792Y-102198208D01*
X102948124Y-102181553D01*
X102937971Y-102162557D01*
X102931716Y-102141938D01*
X102929000Y-102114360D01*
X102929000Y-101655640D01*
X102931716Y-101628062D01*
X102937971Y-101607443D01*
X102948124Y-101588447D01*
X102961792Y-101571792D01*
X102978447Y-101558124D01*
X102997443Y-101547971D01*
X103018062Y-101541716D01*
X103045640Y-101539000D01*
X103554360Y-101539000D01*
X103581938Y-101541716D01*
G37*
G36*
X109298938Y-101538716D02*
G01*
X109319557Y-101544971D01*
X109338553Y-101555124D01*
X109355208Y-101568792D01*
X109368876Y-101585447D01*
X109379029Y-101604443D01*
X109385284Y-101625062D01*
X109388000Y-101652640D01*
X109388000Y-102111360D01*
X109385284Y-102138938D01*
X109379029Y-102159557D01*
X109368876Y-102178553D01*
X109355208Y-102195208D01*
X109338553Y-102208876D01*
X109319557Y-102219029D01*
X109298938Y-102225284D01*
X109271360Y-102228000D01*
X108762640Y-102228000D01*
X108735062Y-102225284D01*
X108714443Y-102219029D01*
X108695447Y-102208876D01*
X108678792Y-102195208D01*
X108665124Y-102178553D01*
X108654971Y-102159557D01*
X108648716Y-102138938D01*
X108646000Y-102111360D01*
X108646000Y-101652640D01*
X108648716Y-101625062D01*
X108654971Y-101604443D01*
X108665124Y-101585447D01*
X108678792Y-101568792D01*
X108695447Y-101555124D01*
X108714443Y-101544971D01*
X108735062Y-101538716D01*
X108762640Y-101536000D01*
X109271360Y-101536000D01*
X109298938Y-101538716D01*
G37*
G36*
X108282938Y-101538716D02*
G01*
X108303557Y-101544971D01*
X108322553Y-101555124D01*
X108339208Y-101568792D01*
X108352876Y-101585447D01*
X108363029Y-101604443D01*
X108369284Y-101625062D01*
X108372000Y-101652640D01*
X108372000Y-102111360D01*
X108369284Y-102138938D01*
X108363029Y-102159557D01*
X108352876Y-102178553D01*
X108339208Y-102195208D01*
X108322553Y-102208876D01*
X108303557Y-102219029D01*
X108282938Y-102225284D01*
X108255360Y-102228000D01*
X107746640Y-102228000D01*
X107719062Y-102225284D01*
X107698443Y-102219029D01*
X107679447Y-102208876D01*
X107662792Y-102195208D01*
X107649124Y-102178553D01*
X107638971Y-102159557D01*
X107632716Y-102138938D01*
X107630000Y-102111360D01*
X107630000Y-101652640D01*
X107632716Y-101625062D01*
X107638971Y-101604443D01*
X107649124Y-101585447D01*
X107662792Y-101568792D01*
X107679447Y-101555124D01*
X107698443Y-101544971D01*
X107719062Y-101538716D01*
X107746640Y-101536000D01*
X108255360Y-101536000D01*
X108282938Y-101538716D01*
G37*
G36*
X105149468Y-100153565D02*
G01*
X105188138Y-100165296D01*
X105223777Y-100184346D01*
X105255017Y-100209983D01*
X105280654Y-100241223D01*
X105299704Y-100276862D01*
X105311435Y-100315532D01*
X105316000Y-100361888D01*
X105316000Y-101838112D01*
X105311435Y-101884468D01*
X105299704Y-101923138D01*
X105280654Y-101958777D01*
X105255017Y-101990017D01*
X105223777Y-102015654D01*
X105188138Y-102034704D01*
X105149468Y-102046435D01*
X105103112Y-102051000D01*
X104451888Y-102051000D01*
X104405532Y-102046435D01*
X104366862Y-102034704D01*
X104331223Y-102015654D01*
X104299983Y-101990017D01*
X104274346Y-101958777D01*
X104255296Y-101923138D01*
X104243565Y-101884468D01*
X104239000Y-101838112D01*
X104239000Y-100361888D01*
X104243565Y-100315532D01*
X104255296Y-100276862D01*
X104274346Y-100241223D01*
X104299983Y-100209983D01*
X104331223Y-100184346D01*
X104366862Y-100165296D01*
X104405532Y-100153565D01*
X104451888Y-100149000D01*
X105103112Y-100149000D01*
X105149468Y-100153565D01*
G37*
G36*
X106886968Y-100153565D02*
G01*
X106925638Y-100165296D01*
X106961277Y-100184346D01*
X106992517Y-100209983D01*
X107018154Y-100241223D01*
X107037204Y-100276862D01*
X107048935Y-100315532D01*
X107053500Y-100361888D01*
X107053500Y-101838112D01*
X107048935Y-101884468D01*
X107037204Y-101923138D01*
X107018154Y-101958777D01*
X106992517Y-101990017D01*
X106961277Y-102015654D01*
X106925638Y-102034704D01*
X106886968Y-102046435D01*
X106840612Y-102051000D01*
X106189388Y-102051000D01*
X106143032Y-102046435D01*
X106104362Y-102034704D01*
X106068723Y-102015654D01*
X106037483Y-101990017D01*
X106011846Y-101958777D01*
X105992796Y-101923138D01*
X105981065Y-101884468D01*
X105976500Y-101838112D01*
X105976500Y-100361888D01*
X105981065Y-100315532D01*
X105992796Y-100276862D01*
X106011846Y-100241223D01*
X106037483Y-100209983D01*
X106068723Y-100184346D01*
X106104362Y-100165296D01*
X106143032Y-100153565D01*
X106189388Y-100149000D01*
X106840612Y-100149000D01*
X106886968Y-100153565D01*
G37*
G36*
X125881938Y-101171716D02*
G01*
X125902557Y-101177971D01*
X125921553Y-101188124D01*
X125938208Y-101201792D01*
X125951876Y-101218447D01*
X125962029Y-101237443D01*
X125968284Y-101258062D01*
X125971000Y-101285640D01*
X125971000Y-101744360D01*
X125968284Y-101771938D01*
X125962029Y-101792557D01*
X125951876Y-101811553D01*
X125938208Y-101828208D01*
X125921553Y-101841876D01*
X125902557Y-101852029D01*
X125881938Y-101858284D01*
X125854360Y-101861000D01*
X125345640Y-101861000D01*
X125318062Y-101858284D01*
X125297443Y-101852029D01*
X125278447Y-101841876D01*
X125261792Y-101828208D01*
X125248124Y-101811553D01*
X125237971Y-101792557D01*
X125231716Y-101771938D01*
X125229000Y-101744360D01*
X125229000Y-101285640D01*
X125231716Y-101258062D01*
X125237971Y-101237443D01*
X125248124Y-101218447D01*
X125261792Y-101201792D01*
X125278447Y-101188124D01*
X125297443Y-101177971D01*
X125318062Y-101171716D01*
X125345640Y-101169000D01*
X125854360Y-101169000D01*
X125881938Y-101171716D01*
G37*
G36*
X127081938Y-101171716D02*
G01*
X127102557Y-101177971D01*
X127121553Y-101188124D01*
X127138208Y-101201792D01*
X127151876Y-101218447D01*
X127162029Y-101237443D01*
X127168284Y-101258062D01*
X127171000Y-101285640D01*
X127171000Y-101744360D01*
X127168284Y-101771938D01*
X127162029Y-101792557D01*
X127151876Y-101811553D01*
X127138208Y-101828208D01*
X127121553Y-101841876D01*
X127102557Y-101852029D01*
X127081938Y-101858284D01*
X127054360Y-101861000D01*
X126545640Y-101861000D01*
X126518062Y-101858284D01*
X126497443Y-101852029D01*
X126478447Y-101841876D01*
X126461792Y-101828208D01*
X126448124Y-101811553D01*
X126437971Y-101792557D01*
X126431716Y-101771938D01*
X126429000Y-101744360D01*
X126429000Y-101285640D01*
X126431716Y-101258062D01*
X126437971Y-101237443D01*
X126448124Y-101218447D01*
X126461792Y-101201792D01*
X126478447Y-101188124D01*
X126497443Y-101177971D01*
X126518062Y-101171716D01*
X126545640Y-101169000D01*
X127054360Y-101169000D01*
X127081938Y-101171716D01*
G37*
G36*
X145951000Y-101751000D02*
G01*
X144249000Y-101751000D01*
X144249000Y-100049000D01*
X145951000Y-100049000D01*
X145951000Y-101751000D01*
G37*
G36*
X101751000Y-101751000D02*
G01*
X100049000Y-101751000D01*
X100049000Y-100049000D01*
X101751000Y-100049000D01*
X101751000Y-101751000D01*
G37*
G36*
X111582938Y-100774716D02*
G01*
X111603557Y-100780971D01*
X111622553Y-100791124D01*
X111639208Y-100804792D01*
X111652876Y-100821447D01*
X111663029Y-100840443D01*
X111669284Y-100861062D01*
X111672000Y-100888640D01*
X111672000Y-101397360D01*
X111669284Y-101424938D01*
X111663029Y-101445557D01*
X111652876Y-101464553D01*
X111639208Y-101481208D01*
X111622553Y-101494876D01*
X111603557Y-101505029D01*
X111582938Y-101511284D01*
X111555360Y-101514000D01*
X111096640Y-101514000D01*
X111069062Y-101511284D01*
X111048443Y-101505029D01*
X111029447Y-101494876D01*
X111012792Y-101481208D01*
X110999124Y-101464553D01*
X110988971Y-101445557D01*
X110982716Y-101424938D01*
X110980000Y-101397360D01*
X110980000Y-100888640D01*
X110982716Y-100861062D01*
X110988971Y-100840443D01*
X110999124Y-100821447D01*
X111012792Y-100804792D01*
X111029447Y-100791124D01*
X111048443Y-100780971D01*
X111069062Y-100774716D01*
X111096640Y-100772000D01*
X111555360Y-100772000D01*
X111582938Y-100774716D01*
G37*
G36*
X112552938Y-100774716D02*
G01*
X112573557Y-100780971D01*
X112592553Y-100791124D01*
X112609208Y-100804792D01*
X112622876Y-100821447D01*
X112633029Y-100840443D01*
X112639284Y-100861062D01*
X112642000Y-100888640D01*
X112642000Y-101397360D01*
X112639284Y-101424938D01*
X112633029Y-101445557D01*
X112622876Y-101464553D01*
X112609208Y-101481208D01*
X112592553Y-101494876D01*
X112573557Y-101505029D01*
X112552938Y-101511284D01*
X112525360Y-101514000D01*
X112066640Y-101514000D01*
X112039062Y-101511284D01*
X112018443Y-101505029D01*
X111999447Y-101494876D01*
X111982792Y-101481208D01*
X111969124Y-101464553D01*
X111958971Y-101445557D01*
X111952716Y-101424938D01*
X111950000Y-101397360D01*
X111950000Y-100888640D01*
X111952716Y-100861062D01*
X111958971Y-100840443D01*
X111969124Y-100821447D01*
X111982792Y-100804792D01*
X111999447Y-100791124D01*
X112018443Y-100780971D01*
X112039062Y-100774716D01*
X112066640Y-100772000D01*
X112525360Y-100772000D01*
X112552938Y-100774716D01*
G37*
G36*
X116531000Y-101426000D02*
G01*
X115369000Y-101426000D01*
X115369000Y-100674000D01*
X116531000Y-100674000D01*
X116531000Y-101426000D01*
G37*
G36*
X103581938Y-100571716D02*
G01*
X103602557Y-100577971D01*
X103621553Y-100588124D01*
X103638208Y-100601792D01*
X103651876Y-100618447D01*
X103662029Y-100637443D01*
X103668284Y-100658062D01*
X103671000Y-100685640D01*
X103671000Y-101144360D01*
X103668284Y-101171938D01*
X103662029Y-101192557D01*
X103651876Y-101211553D01*
X103638208Y-101228208D01*
X103621553Y-101241876D01*
X103602557Y-101252029D01*
X103581938Y-101258284D01*
X103554360Y-101261000D01*
X103045640Y-101261000D01*
X103018062Y-101258284D01*
X102997443Y-101252029D01*
X102978447Y-101241876D01*
X102961792Y-101228208D01*
X102948124Y-101211553D01*
X102937971Y-101192557D01*
X102931716Y-101171938D01*
X102929000Y-101144360D01*
X102929000Y-100685640D01*
X102931716Y-100658062D01*
X102937971Y-100637443D01*
X102948124Y-100618447D01*
X102961792Y-100601792D01*
X102978447Y-100588124D01*
X102997443Y-100577971D01*
X103018062Y-100571716D01*
X103045640Y-100569000D01*
X103554360Y-100569000D01*
X103581938Y-100571716D01*
G37*
G36*
X109298938Y-100568716D02*
G01*
X109319557Y-100574971D01*
X109338553Y-100585124D01*
X109355208Y-100598792D01*
X109368876Y-100615447D01*
X109379029Y-100634443D01*
X109385284Y-100655062D01*
X109388000Y-100682640D01*
X109388000Y-101141360D01*
X109385284Y-101168938D01*
X109379029Y-101189557D01*
X109368876Y-101208553D01*
X109355208Y-101225208D01*
X109338553Y-101238876D01*
X109319557Y-101249029D01*
X109298938Y-101255284D01*
X109271360Y-101258000D01*
X108762640Y-101258000D01*
X108735062Y-101255284D01*
X108714443Y-101249029D01*
X108695447Y-101238876D01*
X108678792Y-101225208D01*
X108665124Y-101208553D01*
X108654971Y-101189557D01*
X108648716Y-101168938D01*
X108646000Y-101141360D01*
X108646000Y-100682640D01*
X108648716Y-100655062D01*
X108654971Y-100634443D01*
X108665124Y-100615447D01*
X108678792Y-100598792D01*
X108695447Y-100585124D01*
X108714443Y-100574971D01*
X108735062Y-100568716D01*
X108762640Y-100566000D01*
X109271360Y-100566000D01*
X109298938Y-100568716D01*
G37*
G36*
X108282938Y-100568716D02*
G01*
X108303557Y-100574971D01*
X108322553Y-100585124D01*
X108339208Y-100598792D01*
X108352876Y-100615447D01*
X108363029Y-100634443D01*
X108369284Y-100655062D01*
X108372000Y-100682640D01*
X108372000Y-101141360D01*
X108369284Y-101168938D01*
X108363029Y-101189557D01*
X108352876Y-101208553D01*
X108339208Y-101225208D01*
X108322553Y-101238876D01*
X108303557Y-101249029D01*
X108282938Y-101255284D01*
X108255360Y-101258000D01*
X107746640Y-101258000D01*
X107719062Y-101255284D01*
X107698443Y-101249029D01*
X107679447Y-101238876D01*
X107662792Y-101225208D01*
X107649124Y-101208553D01*
X107638971Y-101189557D01*
X107632716Y-101168938D01*
X107630000Y-101141360D01*
X107630000Y-100682640D01*
X107632716Y-100655062D01*
X107638971Y-100634443D01*
X107649124Y-100615447D01*
X107662792Y-100598792D01*
X107679447Y-100585124D01*
X107698443Y-100574971D01*
X107719062Y-100568716D01*
X107746640Y-100566000D01*
X108255360Y-100566000D01*
X108282938Y-100568716D01*
G37*
G36*
X137438670Y-100512803D02*
G01*
X137450377Y-100516355D01*
X137469577Y-100526617D01*
X137492216Y-100535994D01*
X137516249Y-100540774D01*
X137540753Y-100540774D01*
X137564786Y-100535993D01*
X137587423Y-100526617D01*
X137606623Y-100516355D01*
X137618330Y-100512803D01*
X137636638Y-100511000D01*
X138060362Y-100511000D01*
X138078670Y-100512803D01*
X138090375Y-100516354D01*
X138101165Y-100522121D01*
X138110619Y-100529881D01*
X138118379Y-100539335D01*
X138124146Y-100550125D01*
X138127697Y-100561830D01*
X138129500Y-100580138D01*
X138129500Y-100943862D01*
X138127697Y-100962170D01*
X138124146Y-100973875D01*
X138118379Y-100984665D01*
X138110619Y-100994119D01*
X138101165Y-101001879D01*
X138090375Y-101007646D01*
X138078670Y-101011197D01*
X138060362Y-101013000D01*
X137636638Y-101013000D01*
X137618330Y-101011197D01*
X137606623Y-101007645D01*
X137587423Y-100997383D01*
X137564784Y-100988006D01*
X137540751Y-100983226D01*
X137516247Y-100983226D01*
X137492214Y-100988007D01*
X137469577Y-100997383D01*
X137450377Y-101007645D01*
X137438670Y-101011197D01*
X137420362Y-101013000D01*
X136996638Y-101013000D01*
X136978330Y-101011197D01*
X136966625Y-101007646D01*
X136955835Y-101001879D01*
X136946381Y-100994119D01*
X136938621Y-100984665D01*
X136932854Y-100973875D01*
X136929303Y-100962170D01*
X136927500Y-100943862D01*
X136927500Y-100580138D01*
X136929303Y-100561830D01*
X136932854Y-100550125D01*
X136938621Y-100539335D01*
X136946381Y-100529881D01*
X136955835Y-100522121D01*
X136966625Y-100516354D01*
X136978330Y-100512803D01*
X136996638Y-100511000D01*
X137420362Y-100511000D01*
X137438670Y-100512803D01*
G37*
M02*
