G04 #@! TF.GenerationSoftware,KiCad,Pcbnew,5.1.5-52549c5~84~ubuntu18.04.1*
G04 #@! TF.CreationDate,2020-01-24T09:52:22+01:00*
G04 #@! TF.ProjectId,double-oh,646f7562-6c65-42d6-9f68-2e6b69636164,rev?*
G04 #@! TF.SameCoordinates,Original*
G04 #@! TF.FileFunction,Soldermask,Top*
G04 #@! TF.FilePolarity,Negative*
%FSLAX46Y46*%
G04 Gerber Fmt 4.6, Leading zero omitted, Abs format (unit mm)*
G04 Created by KiCad (PCBNEW 5.1.5-52549c5~84~ubuntu18.04.1) date 2020-01-24 09:52:22*
%MOMM*%
%LPD*%
G04 APERTURE LIST*
%ADD10C,0.101600*%
G04 APERTURE END LIST*
D10*
G36*
X145951000Y-108951000D02*
G01*
X145049000Y-108951000D01*
X145049000Y-107249000D01*
X145951000Y-107249000D01*
X145951000Y-108951000D01*
G37*
G36*
X100951000Y-108951000D02*
G01*
X100049000Y-108951000D01*
X100049000Y-107249000D01*
X100951000Y-107249000D01*
X100951000Y-108951000D01*
G37*
G36*
X107084468Y-107603565D02*
G01*
X107123138Y-107615296D01*
X107158777Y-107634346D01*
X107190017Y-107659983D01*
X107215654Y-107691223D01*
X107234704Y-107726862D01*
X107246435Y-107765532D01*
X107251000Y-107811888D01*
X107251000Y-108463112D01*
X107246435Y-108509468D01*
X107234704Y-108548138D01*
X107215654Y-108583777D01*
X107190017Y-108615017D01*
X107158777Y-108640654D01*
X107123138Y-108659704D01*
X107084468Y-108671435D01*
X107038112Y-108676000D01*
X105961888Y-108676000D01*
X105915532Y-108671435D01*
X105876862Y-108659704D01*
X105841223Y-108640654D01*
X105809983Y-108615017D01*
X105784346Y-108583777D01*
X105765296Y-108548138D01*
X105753565Y-108509468D01*
X105749000Y-108463112D01*
X105749000Y-107811888D01*
X105753565Y-107765532D01*
X105765296Y-107726862D01*
X105784346Y-107691223D01*
X105809983Y-107659983D01*
X105841223Y-107634346D01*
X105876862Y-107615296D01*
X105915532Y-107603565D01*
X105961888Y-107599000D01*
X107038112Y-107599000D01*
X107084468Y-107603565D01*
G37*
G36*
X120255355Y-103600083D02*
G01*
X120260029Y-103601501D01*
X120264330Y-103603800D01*
X120270702Y-103609029D01*
X120291076Y-103622643D01*
X120313715Y-103632020D01*
X120337749Y-103636800D01*
X120362253Y-103636800D01*
X120386286Y-103632019D01*
X120408925Y-103622642D01*
X120429298Y-103609029D01*
X120435670Y-103603800D01*
X120439971Y-103601501D01*
X120444645Y-103600083D01*
X120455641Y-103599000D01*
X120744359Y-103599000D01*
X120755355Y-103600083D01*
X120760029Y-103601501D01*
X120764330Y-103603800D01*
X120770702Y-103609029D01*
X120791076Y-103622643D01*
X120813715Y-103632020D01*
X120837749Y-103636800D01*
X120862253Y-103636800D01*
X120886286Y-103632019D01*
X120908925Y-103622642D01*
X120929298Y-103609029D01*
X120935670Y-103603800D01*
X120939971Y-103601501D01*
X120944645Y-103600083D01*
X120955641Y-103599000D01*
X121244359Y-103599000D01*
X121255355Y-103600083D01*
X121260029Y-103601501D01*
X121264330Y-103603800D01*
X121270702Y-103609029D01*
X121291076Y-103622643D01*
X121313715Y-103632020D01*
X121337749Y-103636800D01*
X121362253Y-103636800D01*
X121386286Y-103632019D01*
X121408925Y-103622642D01*
X121429298Y-103609029D01*
X121435670Y-103603800D01*
X121439971Y-103601501D01*
X121444645Y-103600083D01*
X121455641Y-103599000D01*
X121744359Y-103599000D01*
X121755355Y-103600083D01*
X121760029Y-103601501D01*
X121764330Y-103603800D01*
X121770702Y-103609029D01*
X121791076Y-103622643D01*
X121813715Y-103632020D01*
X121837749Y-103636800D01*
X121862253Y-103636800D01*
X121886286Y-103632019D01*
X121908925Y-103622642D01*
X121929298Y-103609029D01*
X121935670Y-103603800D01*
X121939971Y-103601501D01*
X121944645Y-103600083D01*
X121955641Y-103599000D01*
X122244359Y-103599000D01*
X122255355Y-103600083D01*
X122260029Y-103601501D01*
X122264330Y-103603800D01*
X122270702Y-103609029D01*
X122291076Y-103622643D01*
X122313715Y-103632020D01*
X122337749Y-103636800D01*
X122362253Y-103636800D01*
X122386286Y-103632019D01*
X122408925Y-103622642D01*
X122429298Y-103609029D01*
X122435670Y-103603800D01*
X122439971Y-103601501D01*
X122444645Y-103600083D01*
X122455641Y-103599000D01*
X122744359Y-103599000D01*
X122755355Y-103600083D01*
X122760029Y-103601501D01*
X122764331Y-103603800D01*
X122768104Y-103606896D01*
X122771200Y-103610669D01*
X122773499Y-103614971D01*
X122774917Y-103619645D01*
X122776000Y-103630641D01*
X122776000Y-104449001D01*
X122778402Y-104473387D01*
X122785515Y-104496836D01*
X122797066Y-104518447D01*
X122812611Y-104537389D01*
X122831553Y-104552934D01*
X122853164Y-104564485D01*
X122876613Y-104571598D01*
X122900999Y-104574000D01*
X123719359Y-104574000D01*
X123730355Y-104575083D01*
X123735029Y-104576501D01*
X123739331Y-104578800D01*
X123743104Y-104581896D01*
X123746200Y-104585669D01*
X123748499Y-104589971D01*
X123749917Y-104594645D01*
X123751000Y-104605641D01*
X123751000Y-104894359D01*
X123749917Y-104905355D01*
X123748499Y-104910029D01*
X123746200Y-104914330D01*
X123740971Y-104920702D01*
X123727357Y-104941076D01*
X123717980Y-104963715D01*
X123713200Y-104987749D01*
X123713200Y-105012253D01*
X123717981Y-105036286D01*
X123727358Y-105058925D01*
X123740971Y-105079298D01*
X123746200Y-105085670D01*
X123748499Y-105089971D01*
X123749917Y-105094645D01*
X123751000Y-105105641D01*
X123751000Y-105394359D01*
X123749917Y-105405355D01*
X123748499Y-105410029D01*
X123746200Y-105414330D01*
X123740971Y-105420702D01*
X123727357Y-105441076D01*
X123717980Y-105463715D01*
X123713200Y-105487749D01*
X123713200Y-105512253D01*
X123717981Y-105536286D01*
X123727358Y-105558925D01*
X123740971Y-105579298D01*
X123746200Y-105585670D01*
X123748499Y-105589971D01*
X123749917Y-105594645D01*
X123751000Y-105605641D01*
X123751000Y-105894359D01*
X123749917Y-105905355D01*
X123748499Y-105910029D01*
X123746200Y-105914330D01*
X123740971Y-105920702D01*
X123727357Y-105941076D01*
X123717980Y-105963715D01*
X123713200Y-105987749D01*
X123713200Y-106012253D01*
X123717981Y-106036286D01*
X123727358Y-106058925D01*
X123740971Y-106079298D01*
X123746200Y-106085670D01*
X123748499Y-106089971D01*
X123749917Y-106094645D01*
X123751000Y-106105641D01*
X123751000Y-106394359D01*
X123749917Y-106405355D01*
X123748499Y-106410029D01*
X123746200Y-106414330D01*
X123740971Y-106420702D01*
X123727357Y-106441076D01*
X123717980Y-106463715D01*
X123713200Y-106487749D01*
X123713200Y-106512253D01*
X123717981Y-106536286D01*
X123727358Y-106558925D01*
X123740971Y-106579298D01*
X123746200Y-106585670D01*
X123748499Y-106589971D01*
X123749917Y-106594645D01*
X123751000Y-106605641D01*
X123751000Y-106894359D01*
X123749917Y-106905355D01*
X123748499Y-106910029D01*
X123746200Y-106914330D01*
X123740971Y-106920702D01*
X123727357Y-106941076D01*
X123717980Y-106963715D01*
X123713200Y-106987749D01*
X123713200Y-107012253D01*
X123717981Y-107036286D01*
X123727358Y-107058925D01*
X123740971Y-107079298D01*
X123746200Y-107085670D01*
X123748499Y-107089971D01*
X123749917Y-107094645D01*
X123751000Y-107105641D01*
X123751000Y-107394359D01*
X123749917Y-107405355D01*
X123748499Y-107410029D01*
X123746200Y-107414331D01*
X123743104Y-107418104D01*
X123739331Y-107421200D01*
X123735029Y-107423499D01*
X123730355Y-107424917D01*
X123719359Y-107426000D01*
X122900999Y-107426000D01*
X122876613Y-107428402D01*
X122853164Y-107435515D01*
X122831553Y-107447066D01*
X122812611Y-107462611D01*
X122797066Y-107481553D01*
X122785515Y-107503164D01*
X122778402Y-107526613D01*
X122776000Y-107550999D01*
X122776000Y-108369359D01*
X122774917Y-108380355D01*
X122773499Y-108385029D01*
X122771200Y-108389331D01*
X122768104Y-108393104D01*
X122764331Y-108396200D01*
X122760029Y-108398499D01*
X122755355Y-108399917D01*
X122744359Y-108401000D01*
X122455641Y-108401000D01*
X122444645Y-108399917D01*
X122439971Y-108398499D01*
X122435670Y-108396200D01*
X122429298Y-108390971D01*
X122408924Y-108377357D01*
X122386285Y-108367980D01*
X122362251Y-108363200D01*
X122337747Y-108363200D01*
X122313714Y-108367981D01*
X122291075Y-108377358D01*
X122270702Y-108390971D01*
X122264330Y-108396200D01*
X122260029Y-108398499D01*
X122255355Y-108399917D01*
X122244359Y-108401000D01*
X121955641Y-108401000D01*
X121944645Y-108399917D01*
X121939971Y-108398499D01*
X121935670Y-108396200D01*
X121929298Y-108390971D01*
X121908924Y-108377357D01*
X121886285Y-108367980D01*
X121862251Y-108363200D01*
X121837747Y-108363200D01*
X121813714Y-108367981D01*
X121791075Y-108377358D01*
X121770702Y-108390971D01*
X121764330Y-108396200D01*
X121760029Y-108398499D01*
X121755355Y-108399917D01*
X121744359Y-108401000D01*
X121455641Y-108401000D01*
X121444645Y-108399917D01*
X121439971Y-108398499D01*
X121435670Y-108396200D01*
X121429298Y-108390971D01*
X121408924Y-108377357D01*
X121386285Y-108367980D01*
X121362251Y-108363200D01*
X121337747Y-108363200D01*
X121313714Y-108367981D01*
X121291075Y-108377358D01*
X121270702Y-108390971D01*
X121264330Y-108396200D01*
X121260029Y-108398499D01*
X121255355Y-108399917D01*
X121244359Y-108401000D01*
X120955641Y-108401000D01*
X120944645Y-108399917D01*
X120939971Y-108398499D01*
X120935670Y-108396200D01*
X120929298Y-108390971D01*
X120908924Y-108377357D01*
X120886285Y-108367980D01*
X120862251Y-108363200D01*
X120837747Y-108363200D01*
X120813714Y-108367981D01*
X120791075Y-108377358D01*
X120770702Y-108390971D01*
X120764330Y-108396200D01*
X120760029Y-108398499D01*
X120755355Y-108399917D01*
X120744359Y-108401000D01*
X120455641Y-108401000D01*
X120444645Y-108399917D01*
X120439971Y-108398499D01*
X120435670Y-108396200D01*
X120429298Y-108390971D01*
X120408924Y-108377357D01*
X120386285Y-108367980D01*
X120362251Y-108363200D01*
X120337747Y-108363200D01*
X120313714Y-108367981D01*
X120291075Y-108377358D01*
X120270702Y-108390971D01*
X120264330Y-108396200D01*
X120260029Y-108398499D01*
X120255355Y-108399917D01*
X120244359Y-108401000D01*
X119955641Y-108401000D01*
X119944645Y-108399917D01*
X119939971Y-108398499D01*
X119935669Y-108396200D01*
X119931896Y-108393104D01*
X119928800Y-108389331D01*
X119926501Y-108385029D01*
X119925083Y-108380355D01*
X119924000Y-108369359D01*
X119924000Y-107550999D01*
X119921598Y-107526613D01*
X119914485Y-107503164D01*
X119902934Y-107481553D01*
X119887389Y-107462611D01*
X119868447Y-107447066D01*
X119846836Y-107435515D01*
X119823387Y-107428402D01*
X119799001Y-107426000D01*
X118980641Y-107426000D01*
X118969645Y-107424917D01*
X118964971Y-107423499D01*
X118960669Y-107421200D01*
X118956896Y-107418104D01*
X118953800Y-107414331D01*
X118951501Y-107410029D01*
X118950083Y-107405355D01*
X118949000Y-107394359D01*
X118949000Y-107105641D01*
X118950083Y-107094645D01*
X118951501Y-107089971D01*
X118953800Y-107085670D01*
X118959029Y-107079298D01*
X118972643Y-107058924D01*
X118982020Y-107036285D01*
X118986800Y-107012251D01*
X118986800Y-106987747D01*
X118982019Y-106963714D01*
X118972642Y-106941075D01*
X118959029Y-106920702D01*
X118953800Y-106914330D01*
X118951501Y-106910029D01*
X118950083Y-106905355D01*
X118949000Y-106894359D01*
X118949000Y-106605641D01*
X118950083Y-106594645D01*
X118951501Y-106589971D01*
X118953800Y-106585670D01*
X118959029Y-106579298D01*
X118972643Y-106558924D01*
X118982020Y-106536285D01*
X118986800Y-106512251D01*
X118986800Y-106487747D01*
X118982019Y-106463714D01*
X118972642Y-106441075D01*
X118959029Y-106420702D01*
X118953800Y-106414330D01*
X118951501Y-106410029D01*
X118950083Y-106405355D01*
X118949000Y-106394359D01*
X118949000Y-106105641D01*
X118950083Y-106094645D01*
X118951501Y-106089971D01*
X118953800Y-106085670D01*
X118959029Y-106079298D01*
X118972643Y-106058924D01*
X118982020Y-106036285D01*
X118986800Y-106012251D01*
X118986800Y-105987747D01*
X118982019Y-105963714D01*
X118972642Y-105941075D01*
X118959029Y-105920702D01*
X118953800Y-105914330D01*
X118951501Y-105910029D01*
X118950083Y-105905355D01*
X118949000Y-105894359D01*
X118949000Y-105605641D01*
X118950083Y-105594645D01*
X118951501Y-105589971D01*
X118953800Y-105585670D01*
X118959029Y-105579298D01*
X118972643Y-105558924D01*
X118982020Y-105536285D01*
X118986800Y-105512251D01*
X118986800Y-105487747D01*
X118982019Y-105463714D01*
X118972642Y-105441075D01*
X118959029Y-105420702D01*
X118953800Y-105414330D01*
X118951501Y-105410029D01*
X118950083Y-105405355D01*
X118949000Y-105394359D01*
X118949000Y-105105641D01*
X118950083Y-105094645D01*
X118951501Y-105089971D01*
X118953800Y-105085670D01*
X118959029Y-105079298D01*
X118972643Y-105058924D01*
X118982020Y-105036285D01*
X118986800Y-105012251D01*
X118986800Y-104987747D01*
X118982019Y-104963714D01*
X118972642Y-104941075D01*
X118959029Y-104920702D01*
X118953800Y-104914330D01*
X118951501Y-104910029D01*
X118950083Y-104905355D01*
X118949000Y-104894359D01*
X118949000Y-104605641D01*
X118950083Y-104594645D01*
X118951501Y-104589971D01*
X118953800Y-104585669D01*
X118956896Y-104581896D01*
X118960669Y-104578800D01*
X118964971Y-104576501D01*
X118969645Y-104575083D01*
X118980641Y-104574000D01*
X119799001Y-104574000D01*
X119823387Y-104571598D01*
X119846836Y-104564485D01*
X119868447Y-104552934D01*
X119887389Y-104537389D01*
X119902934Y-104518447D01*
X119914485Y-104496836D01*
X119921598Y-104473387D01*
X119924000Y-104449001D01*
X119924000Y-103630641D01*
X119925083Y-103619645D01*
X119926501Y-103614971D01*
X119928800Y-103610669D01*
X119931896Y-103606896D01*
X119935669Y-103603800D01*
X119939971Y-103601501D01*
X119944645Y-103600083D01*
X119955641Y-103599000D01*
X120244359Y-103599000D01*
X120255355Y-103600083D01*
G37*
G36*
X128905355Y-100300083D02*
G01*
X128910029Y-100301501D01*
X128914330Y-100303800D01*
X128920702Y-100309029D01*
X128941076Y-100322643D01*
X128963715Y-100332020D01*
X128987749Y-100336800D01*
X129012253Y-100336800D01*
X129036286Y-100332019D01*
X129058925Y-100322642D01*
X129079298Y-100309029D01*
X129085670Y-100303800D01*
X129089971Y-100301501D01*
X129094645Y-100300083D01*
X129105641Y-100299000D01*
X129394359Y-100299000D01*
X129405355Y-100300083D01*
X129410029Y-100301501D01*
X129414330Y-100303800D01*
X129420702Y-100309029D01*
X129441076Y-100322643D01*
X129463715Y-100332020D01*
X129487749Y-100336800D01*
X129512253Y-100336800D01*
X129536286Y-100332019D01*
X129558925Y-100322642D01*
X129579298Y-100309029D01*
X129585670Y-100303800D01*
X129589971Y-100301501D01*
X129594645Y-100300083D01*
X129605641Y-100299000D01*
X129894359Y-100299000D01*
X129905355Y-100300083D01*
X129910029Y-100301501D01*
X129914330Y-100303800D01*
X129920702Y-100309029D01*
X129941076Y-100322643D01*
X129963715Y-100332020D01*
X129987749Y-100336800D01*
X130012253Y-100336800D01*
X130036286Y-100332019D01*
X130058925Y-100322642D01*
X130079298Y-100309029D01*
X130085670Y-100303800D01*
X130089971Y-100301501D01*
X130094645Y-100300083D01*
X130105641Y-100299000D01*
X130394359Y-100299000D01*
X130405355Y-100300083D01*
X130410029Y-100301501D01*
X130414330Y-100303800D01*
X130420702Y-100309029D01*
X130441076Y-100322643D01*
X130463715Y-100332020D01*
X130487749Y-100336800D01*
X130512253Y-100336800D01*
X130536286Y-100332019D01*
X130558925Y-100322642D01*
X130579298Y-100309029D01*
X130585670Y-100303800D01*
X130589971Y-100301501D01*
X130594645Y-100300083D01*
X130605641Y-100299000D01*
X130894359Y-100299000D01*
X130905355Y-100300083D01*
X130910029Y-100301501D01*
X130914330Y-100303800D01*
X130920702Y-100309029D01*
X130941076Y-100322643D01*
X130963715Y-100332020D01*
X130987749Y-100336800D01*
X131012253Y-100336800D01*
X131036286Y-100332019D01*
X131058925Y-100322642D01*
X131079298Y-100309029D01*
X131085670Y-100303800D01*
X131089971Y-100301501D01*
X131094645Y-100300083D01*
X131105641Y-100299000D01*
X131394359Y-100299000D01*
X131405355Y-100300083D01*
X131410029Y-100301501D01*
X131414330Y-100303800D01*
X131420702Y-100309029D01*
X131441076Y-100322643D01*
X131463715Y-100332020D01*
X131487749Y-100336800D01*
X131512253Y-100336800D01*
X131536286Y-100332019D01*
X131558925Y-100322642D01*
X131579298Y-100309029D01*
X131585670Y-100303800D01*
X131589971Y-100301501D01*
X131594645Y-100300083D01*
X131605641Y-100299000D01*
X131894359Y-100299000D01*
X131905355Y-100300083D01*
X131910029Y-100301501D01*
X131914330Y-100303800D01*
X131920702Y-100309029D01*
X131941076Y-100322643D01*
X131963715Y-100332020D01*
X131987749Y-100336800D01*
X132012253Y-100336800D01*
X132036286Y-100332019D01*
X132058925Y-100322642D01*
X132079298Y-100309029D01*
X132085670Y-100303800D01*
X132089971Y-100301501D01*
X132094645Y-100300083D01*
X132105641Y-100299000D01*
X132394359Y-100299000D01*
X132405355Y-100300083D01*
X132410029Y-100301501D01*
X132414330Y-100303800D01*
X132420702Y-100309029D01*
X132441076Y-100322643D01*
X132463715Y-100332020D01*
X132487749Y-100336800D01*
X132512253Y-100336800D01*
X132536286Y-100332019D01*
X132558925Y-100322642D01*
X132579298Y-100309029D01*
X132585670Y-100303800D01*
X132589971Y-100301501D01*
X132594645Y-100300083D01*
X132605641Y-100299000D01*
X132894359Y-100299000D01*
X132905355Y-100300083D01*
X132910029Y-100301501D01*
X132914330Y-100303800D01*
X132920702Y-100309029D01*
X132941076Y-100322643D01*
X132963715Y-100332020D01*
X132987749Y-100336800D01*
X133012253Y-100336800D01*
X133036286Y-100332019D01*
X133058925Y-100322642D01*
X133079298Y-100309029D01*
X133085670Y-100303800D01*
X133089971Y-100301501D01*
X133094645Y-100300083D01*
X133105641Y-100299000D01*
X133394359Y-100299000D01*
X133405355Y-100300083D01*
X133410029Y-100301501D01*
X133414330Y-100303800D01*
X133420702Y-100309029D01*
X133441076Y-100322643D01*
X133463715Y-100332020D01*
X133487749Y-100336800D01*
X133512253Y-100336800D01*
X133536286Y-100332019D01*
X133558925Y-100322642D01*
X133579298Y-100309029D01*
X133585670Y-100303800D01*
X133589971Y-100301501D01*
X133594645Y-100300083D01*
X133605641Y-100299000D01*
X133894359Y-100299000D01*
X133905355Y-100300083D01*
X133910029Y-100301501D01*
X133914330Y-100303800D01*
X133920702Y-100309029D01*
X133941076Y-100322643D01*
X133963715Y-100332020D01*
X133987749Y-100336800D01*
X134012253Y-100336800D01*
X134036286Y-100332019D01*
X134058925Y-100322642D01*
X134079298Y-100309029D01*
X134085670Y-100303800D01*
X134089971Y-100301501D01*
X134094645Y-100300083D01*
X134105641Y-100299000D01*
X134394359Y-100299000D01*
X134405355Y-100300083D01*
X134410029Y-100301501D01*
X134414331Y-100303800D01*
X134418104Y-100306896D01*
X134421200Y-100310669D01*
X134423499Y-100314971D01*
X134424917Y-100319645D01*
X134426000Y-100330641D01*
X134426000Y-101149001D01*
X134428402Y-101173387D01*
X134435515Y-101196836D01*
X134447066Y-101218447D01*
X134462611Y-101237389D01*
X134481553Y-101252934D01*
X134503164Y-101264485D01*
X134526613Y-101271598D01*
X134550999Y-101274000D01*
X135369359Y-101274000D01*
X135380355Y-101275083D01*
X135385029Y-101276501D01*
X135389331Y-101278800D01*
X135393104Y-101281896D01*
X135396200Y-101285669D01*
X135398499Y-101289971D01*
X135399917Y-101294645D01*
X135401000Y-101305641D01*
X135401000Y-101594359D01*
X135399917Y-101605355D01*
X135398499Y-101610029D01*
X135396200Y-101614330D01*
X135390971Y-101620702D01*
X135377357Y-101641076D01*
X135367980Y-101663715D01*
X135363200Y-101687749D01*
X135363200Y-101712253D01*
X135367981Y-101736286D01*
X135377358Y-101758925D01*
X135390971Y-101779298D01*
X135396200Y-101785670D01*
X135398499Y-101789971D01*
X135399917Y-101794645D01*
X135401000Y-101805641D01*
X135401000Y-102094359D01*
X135399917Y-102105355D01*
X135398499Y-102110029D01*
X135396200Y-102114330D01*
X135390971Y-102120702D01*
X135377357Y-102141076D01*
X135367980Y-102163715D01*
X135363200Y-102187749D01*
X135363200Y-102212253D01*
X135367981Y-102236286D01*
X135377358Y-102258925D01*
X135390971Y-102279298D01*
X135396200Y-102285670D01*
X135398499Y-102289971D01*
X135399917Y-102294645D01*
X135401000Y-102305641D01*
X135401000Y-102594359D01*
X135399917Y-102605355D01*
X135398499Y-102610029D01*
X135396200Y-102614330D01*
X135390971Y-102620702D01*
X135377357Y-102641076D01*
X135367980Y-102663715D01*
X135363200Y-102687749D01*
X135363200Y-102712253D01*
X135367981Y-102736286D01*
X135377358Y-102758925D01*
X135390971Y-102779298D01*
X135396200Y-102785670D01*
X135398499Y-102789971D01*
X135399917Y-102794645D01*
X135401000Y-102805641D01*
X135401000Y-103094359D01*
X135399917Y-103105355D01*
X135398499Y-103110029D01*
X135396200Y-103114330D01*
X135390971Y-103120702D01*
X135377357Y-103141076D01*
X135367980Y-103163715D01*
X135363200Y-103187749D01*
X135363200Y-103212253D01*
X135367981Y-103236286D01*
X135377358Y-103258925D01*
X135390971Y-103279298D01*
X135396200Y-103285670D01*
X135398499Y-103289971D01*
X135399917Y-103294645D01*
X135401000Y-103305641D01*
X135401000Y-103594359D01*
X135399917Y-103605355D01*
X135398499Y-103610029D01*
X135396200Y-103614330D01*
X135390971Y-103620702D01*
X135377357Y-103641076D01*
X135367980Y-103663715D01*
X135363200Y-103687749D01*
X135363200Y-103712253D01*
X135367981Y-103736286D01*
X135377358Y-103758925D01*
X135390971Y-103779298D01*
X135396200Y-103785670D01*
X135398499Y-103789971D01*
X135399917Y-103794645D01*
X135401000Y-103805641D01*
X135401000Y-104094359D01*
X135399917Y-104105355D01*
X135398499Y-104110029D01*
X135396200Y-104114330D01*
X135390971Y-104120702D01*
X135377357Y-104141076D01*
X135367980Y-104163715D01*
X135363200Y-104187749D01*
X135363200Y-104212253D01*
X135367981Y-104236286D01*
X135377358Y-104258925D01*
X135390971Y-104279298D01*
X135396200Y-104285670D01*
X135398499Y-104289971D01*
X135399917Y-104294645D01*
X135401000Y-104305641D01*
X135401000Y-104594359D01*
X135399917Y-104605355D01*
X135398499Y-104610029D01*
X135396200Y-104614330D01*
X135390971Y-104620702D01*
X135377357Y-104641076D01*
X135367980Y-104663715D01*
X135363200Y-104687749D01*
X135363200Y-104712253D01*
X135367981Y-104736286D01*
X135377358Y-104758925D01*
X135390971Y-104779298D01*
X135396200Y-104785670D01*
X135398499Y-104789971D01*
X135399917Y-104794645D01*
X135401000Y-104805641D01*
X135401000Y-105094359D01*
X135399917Y-105105355D01*
X135398499Y-105110029D01*
X135396200Y-105114330D01*
X135390971Y-105120702D01*
X135377357Y-105141076D01*
X135367980Y-105163715D01*
X135363200Y-105187749D01*
X135363200Y-105212253D01*
X135367981Y-105236286D01*
X135377358Y-105258925D01*
X135390971Y-105279298D01*
X135396200Y-105285670D01*
X135398499Y-105289971D01*
X135399917Y-105294645D01*
X135401000Y-105305641D01*
X135401000Y-105594359D01*
X135399917Y-105605355D01*
X135398499Y-105610029D01*
X135396200Y-105614330D01*
X135390971Y-105620702D01*
X135377357Y-105641076D01*
X135367980Y-105663715D01*
X135363200Y-105687749D01*
X135363200Y-105712253D01*
X135367981Y-105736286D01*
X135377358Y-105758925D01*
X135390971Y-105779298D01*
X135396200Y-105785670D01*
X135398499Y-105789971D01*
X135399917Y-105794645D01*
X135401000Y-105805641D01*
X135401000Y-106094359D01*
X135399917Y-106105355D01*
X135398499Y-106110029D01*
X135396200Y-106114330D01*
X135390971Y-106120702D01*
X135377357Y-106141076D01*
X135367980Y-106163715D01*
X135363200Y-106187749D01*
X135363200Y-106212253D01*
X135367981Y-106236286D01*
X135377358Y-106258925D01*
X135390971Y-106279298D01*
X135396200Y-106285670D01*
X135398499Y-106289971D01*
X135399917Y-106294645D01*
X135401000Y-106305641D01*
X135401000Y-106594359D01*
X135399917Y-106605355D01*
X135398499Y-106610029D01*
X135396200Y-106614330D01*
X135390971Y-106620702D01*
X135377357Y-106641076D01*
X135367980Y-106663715D01*
X135363200Y-106687749D01*
X135363200Y-106712253D01*
X135367981Y-106736286D01*
X135377358Y-106758925D01*
X135390971Y-106779298D01*
X135396200Y-106785670D01*
X135398499Y-106789971D01*
X135399917Y-106794645D01*
X135401000Y-106805641D01*
X135401000Y-107094359D01*
X135399917Y-107105355D01*
X135398499Y-107110029D01*
X135396200Y-107114331D01*
X135393104Y-107118104D01*
X135389331Y-107121200D01*
X135385029Y-107123499D01*
X135380355Y-107124917D01*
X135369359Y-107126000D01*
X134550999Y-107126000D01*
X134526613Y-107128402D01*
X134503164Y-107135515D01*
X134481553Y-107147066D01*
X134462611Y-107162611D01*
X134447066Y-107181553D01*
X134435515Y-107203164D01*
X134428402Y-107226613D01*
X134426000Y-107250999D01*
X134426000Y-108069359D01*
X134424917Y-108080355D01*
X134423499Y-108085029D01*
X134421200Y-108089331D01*
X134418104Y-108093104D01*
X134414331Y-108096200D01*
X134410029Y-108098499D01*
X134405355Y-108099917D01*
X134394359Y-108101000D01*
X134105641Y-108101000D01*
X134094645Y-108099917D01*
X134089971Y-108098499D01*
X134085670Y-108096200D01*
X134079298Y-108090971D01*
X134058924Y-108077357D01*
X134036285Y-108067980D01*
X134012251Y-108063200D01*
X133987747Y-108063200D01*
X133963714Y-108067981D01*
X133941075Y-108077358D01*
X133920702Y-108090971D01*
X133914330Y-108096200D01*
X133910029Y-108098499D01*
X133905355Y-108099917D01*
X133894359Y-108101000D01*
X133605641Y-108101000D01*
X133594645Y-108099917D01*
X133589971Y-108098499D01*
X133585670Y-108096200D01*
X133579298Y-108090971D01*
X133558924Y-108077357D01*
X133536285Y-108067980D01*
X133512251Y-108063200D01*
X133487747Y-108063200D01*
X133463714Y-108067981D01*
X133441075Y-108077358D01*
X133420702Y-108090971D01*
X133414330Y-108096200D01*
X133410029Y-108098499D01*
X133405355Y-108099917D01*
X133394359Y-108101000D01*
X133105641Y-108101000D01*
X133094645Y-108099917D01*
X133089971Y-108098499D01*
X133085670Y-108096200D01*
X133079298Y-108090971D01*
X133058924Y-108077357D01*
X133036285Y-108067980D01*
X133012251Y-108063200D01*
X132987747Y-108063200D01*
X132963714Y-108067981D01*
X132941075Y-108077358D01*
X132920702Y-108090971D01*
X132914330Y-108096200D01*
X132910029Y-108098499D01*
X132905355Y-108099917D01*
X132894359Y-108101000D01*
X132605641Y-108101000D01*
X132594645Y-108099917D01*
X132589971Y-108098499D01*
X132585670Y-108096200D01*
X132579298Y-108090971D01*
X132558924Y-108077357D01*
X132536285Y-108067980D01*
X132512251Y-108063200D01*
X132487747Y-108063200D01*
X132463714Y-108067981D01*
X132441075Y-108077358D01*
X132420702Y-108090971D01*
X132414330Y-108096200D01*
X132410029Y-108098499D01*
X132405355Y-108099917D01*
X132394359Y-108101000D01*
X132105641Y-108101000D01*
X132094645Y-108099917D01*
X132089971Y-108098499D01*
X132085670Y-108096200D01*
X132079298Y-108090971D01*
X132058924Y-108077357D01*
X132036285Y-108067980D01*
X132012251Y-108063200D01*
X131987747Y-108063200D01*
X131963714Y-108067981D01*
X131941075Y-108077358D01*
X131920702Y-108090971D01*
X131914330Y-108096200D01*
X131910029Y-108098499D01*
X131905355Y-108099917D01*
X131894359Y-108101000D01*
X131605641Y-108101000D01*
X131594645Y-108099917D01*
X131589971Y-108098499D01*
X131585670Y-108096200D01*
X131579298Y-108090971D01*
X131558924Y-108077357D01*
X131536285Y-108067980D01*
X131512251Y-108063200D01*
X131487747Y-108063200D01*
X131463714Y-108067981D01*
X131441075Y-108077358D01*
X131420702Y-108090971D01*
X131414330Y-108096200D01*
X131410029Y-108098499D01*
X131405355Y-108099917D01*
X131394359Y-108101000D01*
X131105641Y-108101000D01*
X131094645Y-108099917D01*
X131089971Y-108098499D01*
X131085670Y-108096200D01*
X131079298Y-108090971D01*
X131058924Y-108077357D01*
X131036285Y-108067980D01*
X131012251Y-108063200D01*
X130987747Y-108063200D01*
X130963714Y-108067981D01*
X130941075Y-108077358D01*
X130920702Y-108090971D01*
X130914330Y-108096200D01*
X130910029Y-108098499D01*
X130905355Y-108099917D01*
X130894359Y-108101000D01*
X130605641Y-108101000D01*
X130594645Y-108099917D01*
X130589971Y-108098499D01*
X130585670Y-108096200D01*
X130579298Y-108090971D01*
X130558924Y-108077357D01*
X130536285Y-108067980D01*
X130512251Y-108063200D01*
X130487747Y-108063200D01*
X130463714Y-108067981D01*
X130441075Y-108077358D01*
X130420702Y-108090971D01*
X130414330Y-108096200D01*
X130410029Y-108098499D01*
X130405355Y-108099917D01*
X130394359Y-108101000D01*
X130105641Y-108101000D01*
X130094645Y-108099917D01*
X130089971Y-108098499D01*
X130085670Y-108096200D01*
X130079298Y-108090971D01*
X130058924Y-108077357D01*
X130036285Y-108067980D01*
X130012251Y-108063200D01*
X129987747Y-108063200D01*
X129963714Y-108067981D01*
X129941075Y-108077358D01*
X129920702Y-108090971D01*
X129914330Y-108096200D01*
X129910029Y-108098499D01*
X129905355Y-108099917D01*
X129894359Y-108101000D01*
X129605641Y-108101000D01*
X129594645Y-108099917D01*
X129589971Y-108098499D01*
X129585670Y-108096200D01*
X129579298Y-108090971D01*
X129558924Y-108077357D01*
X129536285Y-108067980D01*
X129512251Y-108063200D01*
X129487747Y-108063200D01*
X129463714Y-108067981D01*
X129441075Y-108077358D01*
X129420702Y-108090971D01*
X129414330Y-108096200D01*
X129410029Y-108098499D01*
X129405355Y-108099917D01*
X129394359Y-108101000D01*
X129105641Y-108101000D01*
X129094645Y-108099917D01*
X129089971Y-108098499D01*
X129085670Y-108096200D01*
X129079298Y-108090971D01*
X129058924Y-108077357D01*
X129036285Y-108067980D01*
X129012251Y-108063200D01*
X128987747Y-108063200D01*
X128963714Y-108067981D01*
X128941075Y-108077358D01*
X128920702Y-108090971D01*
X128914330Y-108096200D01*
X128910029Y-108098499D01*
X128905355Y-108099917D01*
X128894359Y-108101000D01*
X128605641Y-108101000D01*
X128594645Y-108099917D01*
X128589971Y-108098499D01*
X128585669Y-108096200D01*
X128581896Y-108093104D01*
X128578800Y-108089331D01*
X128576501Y-108085029D01*
X128575083Y-108080355D01*
X128574000Y-108069359D01*
X128574000Y-107250999D01*
X128571598Y-107226613D01*
X128564485Y-107203164D01*
X128552934Y-107181553D01*
X128537389Y-107162611D01*
X128518447Y-107147066D01*
X128496836Y-107135515D01*
X128473387Y-107128402D01*
X128449001Y-107126000D01*
X127630641Y-107126000D01*
X127619645Y-107124917D01*
X127614971Y-107123499D01*
X127610669Y-107121200D01*
X127606896Y-107118104D01*
X127603800Y-107114331D01*
X127601501Y-107110029D01*
X127600083Y-107105355D01*
X127599000Y-107094359D01*
X127599000Y-106805641D01*
X127600083Y-106794645D01*
X127601501Y-106789971D01*
X127603800Y-106785670D01*
X127609029Y-106779298D01*
X127622643Y-106758924D01*
X127632020Y-106736285D01*
X127636800Y-106712251D01*
X127636800Y-106687747D01*
X127632019Y-106663714D01*
X127622642Y-106641075D01*
X127609029Y-106620702D01*
X127603800Y-106614330D01*
X127601501Y-106610029D01*
X127600083Y-106605355D01*
X127599000Y-106594359D01*
X127599000Y-106305641D01*
X127600083Y-106294645D01*
X127601501Y-106289971D01*
X127603800Y-106285670D01*
X127609029Y-106279298D01*
X127622643Y-106258924D01*
X127632020Y-106236285D01*
X127636800Y-106212251D01*
X127636800Y-106187747D01*
X127632019Y-106163714D01*
X127622642Y-106141075D01*
X127609029Y-106120702D01*
X127603800Y-106114330D01*
X127601501Y-106110029D01*
X127600083Y-106105355D01*
X127599000Y-106094359D01*
X127599000Y-105805641D01*
X127600083Y-105794645D01*
X127601501Y-105789971D01*
X127603800Y-105785670D01*
X127609029Y-105779298D01*
X127622643Y-105758924D01*
X127632020Y-105736285D01*
X127636800Y-105712251D01*
X127636800Y-105687747D01*
X127632019Y-105663714D01*
X127622642Y-105641075D01*
X127609029Y-105620702D01*
X127603800Y-105614330D01*
X127601501Y-105610029D01*
X127600083Y-105605355D01*
X127599000Y-105594359D01*
X127599000Y-105305641D01*
X127600083Y-105294645D01*
X127601501Y-105289971D01*
X127603800Y-105285670D01*
X127609029Y-105279298D01*
X127622643Y-105258924D01*
X127632020Y-105236285D01*
X127636800Y-105212251D01*
X127636800Y-105187747D01*
X127632019Y-105163714D01*
X127622642Y-105141075D01*
X127609029Y-105120702D01*
X127603800Y-105114330D01*
X127601501Y-105110029D01*
X127600083Y-105105355D01*
X127599000Y-105094359D01*
X127599000Y-104805641D01*
X127600083Y-104794645D01*
X127601501Y-104789971D01*
X127603800Y-104785670D01*
X127609029Y-104779298D01*
X127622643Y-104758924D01*
X127632020Y-104736285D01*
X127636800Y-104712251D01*
X127636800Y-104687747D01*
X127632019Y-104663714D01*
X127622642Y-104641075D01*
X127609029Y-104620702D01*
X127603800Y-104614330D01*
X127601501Y-104610029D01*
X127600083Y-104605355D01*
X127599000Y-104594359D01*
X127599000Y-104305641D01*
X127600083Y-104294645D01*
X127601501Y-104289971D01*
X127603800Y-104285670D01*
X127609029Y-104279298D01*
X127622643Y-104258924D01*
X127632020Y-104236285D01*
X127636800Y-104212251D01*
X127636800Y-104187747D01*
X127632019Y-104163714D01*
X127622642Y-104141075D01*
X127609029Y-104120702D01*
X127603800Y-104114330D01*
X127601501Y-104110029D01*
X127600083Y-104105355D01*
X127599000Y-104094359D01*
X127599000Y-103805641D01*
X127600083Y-103794645D01*
X127601501Y-103789971D01*
X127603800Y-103785670D01*
X127609029Y-103779298D01*
X127622643Y-103758924D01*
X127632020Y-103736285D01*
X127636800Y-103712251D01*
X127636800Y-103687747D01*
X127632019Y-103663714D01*
X127622642Y-103641075D01*
X127609029Y-103620702D01*
X127603800Y-103614330D01*
X127601501Y-103610029D01*
X127600083Y-103605355D01*
X127599000Y-103594359D01*
X127599000Y-103305641D01*
X127600083Y-103294645D01*
X127601501Y-103289971D01*
X127603800Y-103285670D01*
X127609029Y-103279298D01*
X127622643Y-103258924D01*
X127632020Y-103236285D01*
X127636800Y-103212251D01*
X127636800Y-103187747D01*
X127632019Y-103163714D01*
X127622642Y-103141075D01*
X127609029Y-103120702D01*
X127603800Y-103114330D01*
X127601501Y-103110029D01*
X127600083Y-103105355D01*
X127599000Y-103094359D01*
X127599000Y-102805641D01*
X127600083Y-102794645D01*
X127601501Y-102789971D01*
X127603800Y-102785670D01*
X127609029Y-102779298D01*
X127622643Y-102758924D01*
X127632020Y-102736285D01*
X127636800Y-102712251D01*
X127636800Y-102687747D01*
X127632019Y-102663714D01*
X127622642Y-102641075D01*
X127609029Y-102620702D01*
X127603800Y-102614330D01*
X127601501Y-102610029D01*
X127600083Y-102605355D01*
X127599000Y-102594359D01*
X127599000Y-102305641D01*
X127600083Y-102294645D01*
X127601501Y-102289971D01*
X127603800Y-102285670D01*
X127609029Y-102279298D01*
X127622643Y-102258924D01*
X127632020Y-102236285D01*
X127636800Y-102212251D01*
X127636800Y-102187747D01*
X127632019Y-102163714D01*
X127622642Y-102141075D01*
X127609029Y-102120702D01*
X127603800Y-102114330D01*
X127601501Y-102110029D01*
X127600083Y-102105355D01*
X127599000Y-102094359D01*
X127599000Y-101805641D01*
X127600083Y-101794645D01*
X127601501Y-101789971D01*
X127603800Y-101785670D01*
X127609029Y-101779298D01*
X127622643Y-101758924D01*
X127632020Y-101736285D01*
X127636800Y-101712251D01*
X127636800Y-101687749D01*
X128463200Y-101687749D01*
X128463200Y-101712253D01*
X128467981Y-101736286D01*
X128477358Y-101758925D01*
X128490971Y-101779298D01*
X128496200Y-101785670D01*
X128498499Y-101789971D01*
X128499917Y-101794645D01*
X128501000Y-101805641D01*
X128501000Y-102094359D01*
X128499917Y-102105355D01*
X128498499Y-102110029D01*
X128496200Y-102114330D01*
X128490971Y-102120702D01*
X128477357Y-102141076D01*
X128467980Y-102163715D01*
X128463200Y-102187749D01*
X128463200Y-102212253D01*
X128467981Y-102236286D01*
X128477358Y-102258925D01*
X128490971Y-102279298D01*
X128496200Y-102285670D01*
X128498499Y-102289971D01*
X128499917Y-102294645D01*
X128501000Y-102305641D01*
X128501000Y-102594359D01*
X128499917Y-102605355D01*
X128498499Y-102610029D01*
X128496200Y-102614330D01*
X128490971Y-102620702D01*
X128477357Y-102641076D01*
X128467980Y-102663715D01*
X128463200Y-102687749D01*
X128463200Y-102712253D01*
X128467981Y-102736286D01*
X128477358Y-102758925D01*
X128490971Y-102779298D01*
X128496200Y-102785670D01*
X128498499Y-102789971D01*
X128499917Y-102794645D01*
X128501000Y-102805641D01*
X128501000Y-103094359D01*
X128499917Y-103105355D01*
X128498499Y-103110029D01*
X128496200Y-103114330D01*
X128490971Y-103120702D01*
X128477357Y-103141076D01*
X128467980Y-103163715D01*
X128463200Y-103187749D01*
X128463200Y-103212253D01*
X128467981Y-103236286D01*
X128477358Y-103258925D01*
X128490971Y-103279298D01*
X128496200Y-103285670D01*
X128498499Y-103289971D01*
X128499917Y-103294645D01*
X128501000Y-103305641D01*
X128501000Y-103594359D01*
X128499917Y-103605355D01*
X128498499Y-103610029D01*
X128496200Y-103614330D01*
X128490971Y-103620702D01*
X128477357Y-103641076D01*
X128467980Y-103663715D01*
X128463200Y-103687749D01*
X128463200Y-103712253D01*
X128467981Y-103736286D01*
X128477358Y-103758925D01*
X128490971Y-103779298D01*
X128496200Y-103785670D01*
X128498499Y-103789971D01*
X128499917Y-103794645D01*
X128501000Y-103805641D01*
X128501000Y-104094359D01*
X128499917Y-104105355D01*
X128498499Y-104110029D01*
X128496200Y-104114330D01*
X128490971Y-104120702D01*
X128477357Y-104141076D01*
X128467980Y-104163715D01*
X128463200Y-104187749D01*
X128463200Y-104212253D01*
X128467981Y-104236286D01*
X128477358Y-104258925D01*
X128490971Y-104279298D01*
X128496200Y-104285670D01*
X128498499Y-104289971D01*
X128499917Y-104294645D01*
X128501000Y-104305641D01*
X128501000Y-104594359D01*
X128499917Y-104605355D01*
X128498499Y-104610029D01*
X128496200Y-104614330D01*
X128490971Y-104620702D01*
X128477357Y-104641076D01*
X128467980Y-104663715D01*
X128463200Y-104687749D01*
X128463200Y-104712253D01*
X128467981Y-104736286D01*
X128477358Y-104758925D01*
X128490971Y-104779298D01*
X128496200Y-104785670D01*
X128498499Y-104789971D01*
X128499917Y-104794645D01*
X128501000Y-104805641D01*
X128501000Y-105094359D01*
X128499917Y-105105355D01*
X128498499Y-105110029D01*
X128496200Y-105114330D01*
X128490971Y-105120702D01*
X128477357Y-105141076D01*
X128467980Y-105163715D01*
X128463200Y-105187749D01*
X128463200Y-105212253D01*
X128467981Y-105236286D01*
X128477358Y-105258925D01*
X128490971Y-105279298D01*
X128496200Y-105285670D01*
X128498499Y-105289971D01*
X128499917Y-105294645D01*
X128501000Y-105305641D01*
X128501000Y-105594359D01*
X128499917Y-105605355D01*
X128498499Y-105610029D01*
X128496200Y-105614330D01*
X128490971Y-105620702D01*
X128477357Y-105641076D01*
X128467980Y-105663715D01*
X128463200Y-105687749D01*
X128463200Y-105712253D01*
X128467981Y-105736286D01*
X128477358Y-105758925D01*
X128490971Y-105779298D01*
X128496200Y-105785670D01*
X128498499Y-105789971D01*
X128499917Y-105794645D01*
X128501000Y-105805641D01*
X128501000Y-106094359D01*
X128499917Y-106105355D01*
X128498499Y-106110029D01*
X128496200Y-106114330D01*
X128490971Y-106120702D01*
X128477357Y-106141076D01*
X128467980Y-106163715D01*
X128463200Y-106187749D01*
X128463200Y-106212253D01*
X128467981Y-106236286D01*
X128477358Y-106258925D01*
X128490971Y-106279298D01*
X128496200Y-106285670D01*
X128498499Y-106289971D01*
X128499917Y-106294645D01*
X128501000Y-106305641D01*
X128501000Y-106594359D01*
X128499917Y-106605355D01*
X128498499Y-106610029D01*
X128496200Y-106614330D01*
X128490971Y-106620702D01*
X128477357Y-106641076D01*
X128467980Y-106663715D01*
X128463200Y-106687749D01*
X128463200Y-106712253D01*
X128467981Y-106736286D01*
X128477358Y-106758925D01*
X128490971Y-106779298D01*
X128496200Y-106785670D01*
X128498499Y-106789971D01*
X128499917Y-106794645D01*
X128501000Y-106805641D01*
X128501000Y-107074001D01*
X128503402Y-107098387D01*
X128510515Y-107121836D01*
X128522066Y-107143447D01*
X128537611Y-107162389D01*
X128556553Y-107177934D01*
X128578164Y-107189485D01*
X128601613Y-107196598D01*
X128625999Y-107199000D01*
X128894359Y-107199000D01*
X128905355Y-107200083D01*
X128910029Y-107201501D01*
X128914330Y-107203800D01*
X128920702Y-107209029D01*
X128941076Y-107222643D01*
X128963715Y-107232020D01*
X128987749Y-107236800D01*
X129012253Y-107236800D01*
X129036286Y-107232019D01*
X129058925Y-107222642D01*
X129079298Y-107209029D01*
X129085670Y-107203800D01*
X129089971Y-107201501D01*
X129094645Y-107200083D01*
X129105641Y-107199000D01*
X129394359Y-107199000D01*
X129405355Y-107200083D01*
X129410029Y-107201501D01*
X129414330Y-107203800D01*
X129420702Y-107209029D01*
X129441076Y-107222643D01*
X129463715Y-107232020D01*
X129487749Y-107236800D01*
X129512253Y-107236800D01*
X129536286Y-107232019D01*
X129558925Y-107222642D01*
X129579298Y-107209029D01*
X129585670Y-107203800D01*
X129589971Y-107201501D01*
X129594645Y-107200083D01*
X129605641Y-107199000D01*
X129894359Y-107199000D01*
X129905355Y-107200083D01*
X129910029Y-107201501D01*
X129914330Y-107203800D01*
X129920702Y-107209029D01*
X129941076Y-107222643D01*
X129963715Y-107232020D01*
X129987749Y-107236800D01*
X130012253Y-107236800D01*
X130036286Y-107232019D01*
X130058925Y-107222642D01*
X130079298Y-107209029D01*
X130085670Y-107203800D01*
X130089971Y-107201501D01*
X130094645Y-107200083D01*
X130105641Y-107199000D01*
X130394359Y-107199000D01*
X130405355Y-107200083D01*
X130410029Y-107201501D01*
X130414330Y-107203800D01*
X130420702Y-107209029D01*
X130441076Y-107222643D01*
X130463715Y-107232020D01*
X130487749Y-107236800D01*
X130512253Y-107236800D01*
X130536286Y-107232019D01*
X130558925Y-107222642D01*
X130579298Y-107209029D01*
X130585670Y-107203800D01*
X130589971Y-107201501D01*
X130594645Y-107200083D01*
X130605641Y-107199000D01*
X130894359Y-107199000D01*
X130905355Y-107200083D01*
X130910029Y-107201501D01*
X130914330Y-107203800D01*
X130920702Y-107209029D01*
X130941076Y-107222643D01*
X130963715Y-107232020D01*
X130987749Y-107236800D01*
X131012253Y-107236800D01*
X131036286Y-107232019D01*
X131058925Y-107222642D01*
X131079298Y-107209029D01*
X131085670Y-107203800D01*
X131089971Y-107201501D01*
X131094645Y-107200083D01*
X131105641Y-107199000D01*
X131394359Y-107199000D01*
X131405355Y-107200083D01*
X131410029Y-107201501D01*
X131414330Y-107203800D01*
X131420702Y-107209029D01*
X131441076Y-107222643D01*
X131463715Y-107232020D01*
X131487749Y-107236800D01*
X131512253Y-107236800D01*
X131536286Y-107232019D01*
X131558925Y-107222642D01*
X131579298Y-107209029D01*
X131585670Y-107203800D01*
X131589971Y-107201501D01*
X131594645Y-107200083D01*
X131605641Y-107199000D01*
X131894359Y-107199000D01*
X131905355Y-107200083D01*
X131910029Y-107201501D01*
X131914330Y-107203800D01*
X131920702Y-107209029D01*
X131941076Y-107222643D01*
X131963715Y-107232020D01*
X131987749Y-107236800D01*
X132012253Y-107236800D01*
X132036286Y-107232019D01*
X132058925Y-107222642D01*
X132079298Y-107209029D01*
X132085670Y-107203800D01*
X132089971Y-107201501D01*
X132094645Y-107200083D01*
X132105641Y-107199000D01*
X132394359Y-107199000D01*
X132405355Y-107200083D01*
X132410029Y-107201501D01*
X132414330Y-107203800D01*
X132420702Y-107209029D01*
X132441076Y-107222643D01*
X132463715Y-107232020D01*
X132487749Y-107236800D01*
X132512253Y-107236800D01*
X132536286Y-107232019D01*
X132558925Y-107222642D01*
X132579298Y-107209029D01*
X132585670Y-107203800D01*
X132589971Y-107201501D01*
X132594645Y-107200083D01*
X132605641Y-107199000D01*
X132894359Y-107199000D01*
X132905355Y-107200083D01*
X132910029Y-107201501D01*
X132914330Y-107203800D01*
X132920702Y-107209029D01*
X132941076Y-107222643D01*
X132963715Y-107232020D01*
X132987749Y-107236800D01*
X133012253Y-107236800D01*
X133036286Y-107232019D01*
X133058925Y-107222642D01*
X133079298Y-107209029D01*
X133085670Y-107203800D01*
X133089971Y-107201501D01*
X133094645Y-107200083D01*
X133105641Y-107199000D01*
X133394359Y-107199000D01*
X133405355Y-107200083D01*
X133410029Y-107201501D01*
X133414330Y-107203800D01*
X133420702Y-107209029D01*
X133441076Y-107222643D01*
X133463715Y-107232020D01*
X133487749Y-107236800D01*
X133512253Y-107236800D01*
X133536286Y-107232019D01*
X133558925Y-107222642D01*
X133579298Y-107209029D01*
X133585670Y-107203800D01*
X133589971Y-107201501D01*
X133594645Y-107200083D01*
X133605641Y-107199000D01*
X133894359Y-107199000D01*
X133905355Y-107200083D01*
X133910029Y-107201501D01*
X133914330Y-107203800D01*
X133920702Y-107209029D01*
X133941076Y-107222643D01*
X133963715Y-107232020D01*
X133987749Y-107236800D01*
X134012253Y-107236800D01*
X134036286Y-107232019D01*
X134058925Y-107222642D01*
X134079298Y-107209029D01*
X134085670Y-107203800D01*
X134089971Y-107201501D01*
X134094645Y-107200083D01*
X134105641Y-107199000D01*
X134374001Y-107199000D01*
X134398387Y-107196598D01*
X134421836Y-107189485D01*
X134443447Y-107177934D01*
X134462389Y-107162389D01*
X134477934Y-107143447D01*
X134489485Y-107121836D01*
X134496598Y-107098387D01*
X134499000Y-107074001D01*
X134499000Y-106805641D01*
X134500083Y-106794645D01*
X134501501Y-106789971D01*
X134503800Y-106785670D01*
X134509029Y-106779298D01*
X134522643Y-106758924D01*
X134532020Y-106736285D01*
X134536800Y-106712251D01*
X134536800Y-106687747D01*
X134532019Y-106663714D01*
X134522642Y-106641075D01*
X134509029Y-106620702D01*
X134503800Y-106614330D01*
X134501501Y-106610029D01*
X134500083Y-106605355D01*
X134499000Y-106594359D01*
X134499000Y-106305641D01*
X134500083Y-106294645D01*
X134501501Y-106289971D01*
X134503800Y-106285670D01*
X134509029Y-106279298D01*
X134522643Y-106258924D01*
X134532020Y-106236285D01*
X134536800Y-106212251D01*
X134536800Y-106187747D01*
X134532019Y-106163714D01*
X134522642Y-106141075D01*
X134509029Y-106120702D01*
X134503800Y-106114330D01*
X134501501Y-106110029D01*
X134500083Y-106105355D01*
X134499000Y-106094359D01*
X134499000Y-105805641D01*
X134500083Y-105794645D01*
X134501501Y-105789971D01*
X134503800Y-105785670D01*
X134509029Y-105779298D01*
X134522643Y-105758924D01*
X134532020Y-105736285D01*
X134536800Y-105712251D01*
X134536800Y-105687747D01*
X134532019Y-105663714D01*
X134522642Y-105641075D01*
X134509029Y-105620702D01*
X134503800Y-105614330D01*
X134501501Y-105610029D01*
X134500083Y-105605355D01*
X134499000Y-105594359D01*
X134499000Y-105305641D01*
X134500083Y-105294645D01*
X134501501Y-105289971D01*
X134503800Y-105285670D01*
X134509029Y-105279298D01*
X134522643Y-105258924D01*
X134532020Y-105236285D01*
X134536800Y-105212251D01*
X134536800Y-105187747D01*
X134532019Y-105163714D01*
X134522642Y-105141075D01*
X134509029Y-105120702D01*
X134503800Y-105114330D01*
X134501501Y-105110029D01*
X134500083Y-105105355D01*
X134499000Y-105094359D01*
X134499000Y-104805641D01*
X134500083Y-104794645D01*
X134501501Y-104789971D01*
X134503800Y-104785670D01*
X134509029Y-104779298D01*
X134522643Y-104758924D01*
X134532020Y-104736285D01*
X134536800Y-104712251D01*
X134536800Y-104687747D01*
X134532019Y-104663714D01*
X134522642Y-104641075D01*
X134509029Y-104620702D01*
X134503800Y-104614330D01*
X134501501Y-104610029D01*
X134500083Y-104605355D01*
X134499000Y-104594359D01*
X134499000Y-104305641D01*
X134500083Y-104294645D01*
X134501501Y-104289971D01*
X134503800Y-104285670D01*
X134509029Y-104279298D01*
X134522643Y-104258924D01*
X134532020Y-104236285D01*
X134536800Y-104212251D01*
X134536800Y-104187747D01*
X134532019Y-104163714D01*
X134522642Y-104141075D01*
X134509029Y-104120702D01*
X134503800Y-104114330D01*
X134501501Y-104110029D01*
X134500083Y-104105355D01*
X134499000Y-104094359D01*
X134499000Y-103805641D01*
X134500083Y-103794645D01*
X134501501Y-103789971D01*
X134503800Y-103785670D01*
X134509029Y-103779298D01*
X134522643Y-103758924D01*
X134532020Y-103736285D01*
X134536800Y-103712251D01*
X134536800Y-103687747D01*
X134532019Y-103663714D01*
X134522642Y-103641075D01*
X134509029Y-103620702D01*
X134503800Y-103614330D01*
X134501501Y-103610029D01*
X134500083Y-103605355D01*
X134499000Y-103594359D01*
X134499000Y-103305641D01*
X134500083Y-103294645D01*
X134501501Y-103289971D01*
X134503800Y-103285670D01*
X134509029Y-103279298D01*
X134522643Y-103258924D01*
X134532020Y-103236285D01*
X134536800Y-103212251D01*
X134536800Y-103187747D01*
X134532019Y-103163714D01*
X134522642Y-103141075D01*
X134509029Y-103120702D01*
X134503800Y-103114330D01*
X134501501Y-103110029D01*
X134500083Y-103105355D01*
X134499000Y-103094359D01*
X134499000Y-102805641D01*
X134500083Y-102794645D01*
X134501501Y-102789971D01*
X134503800Y-102785670D01*
X134509029Y-102779298D01*
X134522643Y-102758924D01*
X134532020Y-102736285D01*
X134536800Y-102712251D01*
X134536800Y-102687747D01*
X134532019Y-102663714D01*
X134522642Y-102641075D01*
X134509029Y-102620702D01*
X134503800Y-102614330D01*
X134501501Y-102610029D01*
X134500083Y-102605355D01*
X134499000Y-102594359D01*
X134499000Y-102305641D01*
X134500083Y-102294645D01*
X134501501Y-102289971D01*
X134503800Y-102285670D01*
X134509029Y-102279298D01*
X134522643Y-102258924D01*
X134532020Y-102236285D01*
X134536800Y-102212251D01*
X134536800Y-102187747D01*
X134532019Y-102163714D01*
X134522642Y-102141075D01*
X134509029Y-102120702D01*
X134503800Y-102114330D01*
X134501501Y-102110029D01*
X134500083Y-102105355D01*
X134499000Y-102094359D01*
X134499000Y-101805641D01*
X134500083Y-101794645D01*
X134501501Y-101789971D01*
X134503800Y-101785670D01*
X134509029Y-101779298D01*
X134522643Y-101758924D01*
X134532020Y-101736285D01*
X134536800Y-101712251D01*
X134536800Y-101687747D01*
X134532019Y-101663714D01*
X134522642Y-101641075D01*
X134509029Y-101620702D01*
X134503800Y-101614330D01*
X134501501Y-101610029D01*
X134500083Y-101605355D01*
X134499000Y-101594359D01*
X134499000Y-101325999D01*
X134496598Y-101301613D01*
X134489485Y-101278164D01*
X134477934Y-101256553D01*
X134462389Y-101237611D01*
X134443447Y-101222066D01*
X134421836Y-101210515D01*
X134398387Y-101203402D01*
X134374001Y-101201000D01*
X134105641Y-101201000D01*
X134094645Y-101199917D01*
X134089971Y-101198499D01*
X134085670Y-101196200D01*
X134079298Y-101190971D01*
X134058924Y-101177357D01*
X134036285Y-101167980D01*
X134012251Y-101163200D01*
X133987747Y-101163200D01*
X133963714Y-101167981D01*
X133941075Y-101177358D01*
X133920702Y-101190971D01*
X133914330Y-101196200D01*
X133910029Y-101198499D01*
X133905355Y-101199917D01*
X133894359Y-101201000D01*
X133605641Y-101201000D01*
X133594645Y-101199917D01*
X133589971Y-101198499D01*
X133585670Y-101196200D01*
X133579298Y-101190971D01*
X133558924Y-101177357D01*
X133536285Y-101167980D01*
X133512251Y-101163200D01*
X133487747Y-101163200D01*
X133463714Y-101167981D01*
X133441075Y-101177358D01*
X133420702Y-101190971D01*
X133414330Y-101196200D01*
X133410029Y-101198499D01*
X133405355Y-101199917D01*
X133394359Y-101201000D01*
X133105641Y-101201000D01*
X133094645Y-101199917D01*
X133089971Y-101198499D01*
X133085670Y-101196200D01*
X133079298Y-101190971D01*
X133058924Y-101177357D01*
X133036285Y-101167980D01*
X133012251Y-101163200D01*
X132987747Y-101163200D01*
X132963714Y-101167981D01*
X132941075Y-101177358D01*
X132920702Y-101190971D01*
X132914330Y-101196200D01*
X132910029Y-101198499D01*
X132905355Y-101199917D01*
X132894359Y-101201000D01*
X132605641Y-101201000D01*
X132594645Y-101199917D01*
X132589971Y-101198499D01*
X132585670Y-101196200D01*
X132579298Y-101190971D01*
X132558924Y-101177357D01*
X132536285Y-101167980D01*
X132512251Y-101163200D01*
X132487747Y-101163200D01*
X132463714Y-101167981D01*
X132441075Y-101177358D01*
X132420702Y-101190971D01*
X132414330Y-101196200D01*
X132410029Y-101198499D01*
X132405355Y-101199917D01*
X132394359Y-101201000D01*
X132105641Y-101201000D01*
X132094645Y-101199917D01*
X132089971Y-101198499D01*
X132085670Y-101196200D01*
X132079298Y-101190971D01*
X132058924Y-101177357D01*
X132036285Y-101167980D01*
X132012251Y-101163200D01*
X131987747Y-101163200D01*
X131963714Y-101167981D01*
X131941075Y-101177358D01*
X131920702Y-101190971D01*
X131914330Y-101196200D01*
X131910029Y-101198499D01*
X131905355Y-101199917D01*
X131894359Y-101201000D01*
X131605641Y-101201000D01*
X131594645Y-101199917D01*
X131589971Y-101198499D01*
X131585670Y-101196200D01*
X131579298Y-101190971D01*
X131558924Y-101177357D01*
X131536285Y-101167980D01*
X131512251Y-101163200D01*
X131487747Y-101163200D01*
X131463714Y-101167981D01*
X131441075Y-101177358D01*
X131420702Y-101190971D01*
X131414330Y-101196200D01*
X131410029Y-101198499D01*
X131405355Y-101199917D01*
X131394359Y-101201000D01*
X131105641Y-101201000D01*
X131094645Y-101199917D01*
X131089971Y-101198499D01*
X131085670Y-101196200D01*
X131079298Y-101190971D01*
X131058924Y-101177357D01*
X131036285Y-101167980D01*
X131012251Y-101163200D01*
X130987747Y-101163200D01*
X130963714Y-101167981D01*
X130941075Y-101177358D01*
X130920702Y-101190971D01*
X130914330Y-101196200D01*
X130910029Y-101198499D01*
X130905355Y-101199917D01*
X130894359Y-101201000D01*
X130605641Y-101201000D01*
X130594645Y-101199917D01*
X130589971Y-101198499D01*
X130585670Y-101196200D01*
X130579298Y-101190971D01*
X130558924Y-101177357D01*
X130536285Y-101167980D01*
X130512251Y-101163200D01*
X130487747Y-101163200D01*
X130463714Y-101167981D01*
X130441075Y-101177358D01*
X130420702Y-101190971D01*
X130414330Y-101196200D01*
X130410029Y-101198499D01*
X130405355Y-101199917D01*
X130394359Y-101201000D01*
X130105641Y-101201000D01*
X130094645Y-101199917D01*
X130089971Y-101198499D01*
X130085670Y-101196200D01*
X130079298Y-101190971D01*
X130058924Y-101177357D01*
X130036285Y-101167980D01*
X130012251Y-101163200D01*
X129987747Y-101163200D01*
X129963714Y-101167981D01*
X129941075Y-101177358D01*
X129920702Y-101190971D01*
X129914330Y-101196200D01*
X129910029Y-101198499D01*
X129905355Y-101199917D01*
X129894359Y-101201000D01*
X129605641Y-101201000D01*
X129594645Y-101199917D01*
X129589971Y-101198499D01*
X129585670Y-101196200D01*
X129579298Y-101190971D01*
X129558924Y-101177357D01*
X129536285Y-101167980D01*
X129512251Y-101163200D01*
X129487747Y-101163200D01*
X129463714Y-101167981D01*
X129441075Y-101177358D01*
X129420702Y-101190971D01*
X129414330Y-101196200D01*
X129410029Y-101198499D01*
X129405355Y-101199917D01*
X129394359Y-101201000D01*
X129105641Y-101201000D01*
X129094645Y-101199917D01*
X129089971Y-101198499D01*
X129085670Y-101196200D01*
X129079298Y-101190971D01*
X129058924Y-101177357D01*
X129036285Y-101167980D01*
X129012251Y-101163200D01*
X128987747Y-101163200D01*
X128963714Y-101167981D01*
X128941075Y-101177358D01*
X128920702Y-101190971D01*
X128914330Y-101196200D01*
X128910029Y-101198499D01*
X128905355Y-101199917D01*
X128894359Y-101201000D01*
X128625999Y-101201000D01*
X128601613Y-101203402D01*
X128578164Y-101210515D01*
X128556553Y-101222066D01*
X128537611Y-101237611D01*
X128522066Y-101256553D01*
X128510515Y-101278164D01*
X128503402Y-101301613D01*
X128501000Y-101325999D01*
X128501000Y-101594359D01*
X128499917Y-101605355D01*
X128498499Y-101610029D01*
X128496200Y-101614330D01*
X128490971Y-101620702D01*
X128477357Y-101641076D01*
X128467980Y-101663715D01*
X128463200Y-101687749D01*
X127636800Y-101687749D01*
X127636800Y-101687747D01*
X127632019Y-101663714D01*
X127622642Y-101641075D01*
X127609029Y-101620702D01*
X127603800Y-101614330D01*
X127601501Y-101610029D01*
X127600083Y-101605355D01*
X127599000Y-101594359D01*
X127599000Y-101305641D01*
X127600083Y-101294645D01*
X127601501Y-101289971D01*
X127603800Y-101285669D01*
X127606896Y-101281896D01*
X127610669Y-101278800D01*
X127614971Y-101276501D01*
X127619645Y-101275083D01*
X127630641Y-101274000D01*
X128449001Y-101274000D01*
X128473387Y-101271598D01*
X128496836Y-101264485D01*
X128518447Y-101252934D01*
X128537389Y-101237389D01*
X128552934Y-101218447D01*
X128564485Y-101196836D01*
X128571598Y-101173387D01*
X128574000Y-101149001D01*
X128574000Y-100330641D01*
X128575083Y-100319645D01*
X128576501Y-100314971D01*
X128578800Y-100310669D01*
X128581896Y-100306896D01*
X128585669Y-100303800D01*
X128589971Y-100301501D01*
X128594645Y-100300083D01*
X128605641Y-100299000D01*
X128894359Y-100299000D01*
X128905355Y-100300083D01*
G37*
G36*
X133301990Y-102350760D02*
G01*
X133313266Y-102354181D01*
X133323670Y-102359742D01*
X133332781Y-102367219D01*
X133340258Y-102376330D01*
X133345819Y-102386734D01*
X133349240Y-102398010D01*
X133351000Y-102415884D01*
X133351000Y-105984113D01*
X133349240Y-106001990D01*
X133345819Y-106013266D01*
X133340258Y-106023670D01*
X133332781Y-106032781D01*
X133323670Y-106040258D01*
X133313266Y-106045819D01*
X133301990Y-106049240D01*
X133284116Y-106051000D01*
X129715884Y-106051000D01*
X129698010Y-106049240D01*
X129686734Y-106045819D01*
X129676330Y-106040258D01*
X129667219Y-106032781D01*
X129659742Y-106023670D01*
X129654181Y-106013266D01*
X129650760Y-106001990D01*
X129649000Y-105984113D01*
X129649000Y-102415884D01*
X129650760Y-102398010D01*
X129654181Y-102386734D01*
X129659742Y-102376330D01*
X129667219Y-102367219D01*
X129676330Y-102359742D01*
X129686734Y-102354181D01*
X129698010Y-102350760D01*
X129715884Y-102349000D01*
X133284116Y-102349000D01*
X133301990Y-102350760D01*
G37*
G36*
X114156938Y-107331716D02*
G01*
X114177557Y-107337971D01*
X114196553Y-107348124D01*
X114213208Y-107361792D01*
X114226876Y-107378447D01*
X114237029Y-107397443D01*
X114243284Y-107418062D01*
X114246000Y-107445640D01*
X114246000Y-107954360D01*
X114243284Y-107981938D01*
X114237029Y-108002557D01*
X114226876Y-108021553D01*
X114213208Y-108038208D01*
X114196553Y-108051876D01*
X114177557Y-108062029D01*
X114156938Y-108068284D01*
X114129360Y-108071000D01*
X113670640Y-108071000D01*
X113643062Y-108068284D01*
X113622443Y-108062029D01*
X113603447Y-108051876D01*
X113586792Y-108038208D01*
X113573124Y-108021553D01*
X113562971Y-108002557D01*
X113556716Y-107981938D01*
X113554000Y-107954360D01*
X113554000Y-107445640D01*
X113556716Y-107418062D01*
X113562971Y-107397443D01*
X113573124Y-107378447D01*
X113586792Y-107361792D01*
X113603447Y-107348124D01*
X113622443Y-107337971D01*
X113643062Y-107331716D01*
X113670640Y-107329000D01*
X114129360Y-107329000D01*
X114156938Y-107331716D01*
G37*
G36*
X118441938Y-107331716D02*
G01*
X118462557Y-107337971D01*
X118481553Y-107348124D01*
X118498208Y-107361792D01*
X118511876Y-107378447D01*
X118522029Y-107397443D01*
X118528284Y-107418062D01*
X118531000Y-107445640D01*
X118531000Y-107954360D01*
X118528284Y-107981938D01*
X118522029Y-108002557D01*
X118511876Y-108021553D01*
X118498208Y-108038208D01*
X118481553Y-108051876D01*
X118462557Y-108062029D01*
X118441938Y-108068284D01*
X118414360Y-108071000D01*
X117955640Y-108071000D01*
X117928062Y-108068284D01*
X117907443Y-108062029D01*
X117888447Y-108051876D01*
X117871792Y-108038208D01*
X117858124Y-108021553D01*
X117847971Y-108002557D01*
X117841716Y-107981938D01*
X117839000Y-107954360D01*
X117839000Y-107445640D01*
X117841716Y-107418062D01*
X117847971Y-107397443D01*
X117858124Y-107378447D01*
X117871792Y-107361792D01*
X117888447Y-107348124D01*
X117907443Y-107337971D01*
X117928062Y-107331716D01*
X117955640Y-107329000D01*
X118414360Y-107329000D01*
X118441938Y-107331716D01*
G37*
G36*
X117471938Y-107331716D02*
G01*
X117492557Y-107337971D01*
X117511553Y-107348124D01*
X117528208Y-107361792D01*
X117541876Y-107378447D01*
X117552029Y-107397443D01*
X117558284Y-107418062D01*
X117561000Y-107445640D01*
X117561000Y-107954360D01*
X117558284Y-107981938D01*
X117552029Y-108002557D01*
X117541876Y-108021553D01*
X117528208Y-108038208D01*
X117511553Y-108051876D01*
X117492557Y-108062029D01*
X117471938Y-108068284D01*
X117444360Y-108071000D01*
X116985640Y-108071000D01*
X116958062Y-108068284D01*
X116937443Y-108062029D01*
X116918447Y-108051876D01*
X116901792Y-108038208D01*
X116888124Y-108021553D01*
X116877971Y-108002557D01*
X116871716Y-107981938D01*
X116869000Y-107954360D01*
X116869000Y-107445640D01*
X116871716Y-107418062D01*
X116877971Y-107397443D01*
X116888124Y-107378447D01*
X116901792Y-107361792D01*
X116918447Y-107348124D01*
X116937443Y-107337971D01*
X116958062Y-107331716D01*
X116985640Y-107329000D01*
X117444360Y-107329000D01*
X117471938Y-107331716D01*
G37*
G36*
X116256938Y-107331716D02*
G01*
X116277557Y-107337971D01*
X116296553Y-107348124D01*
X116313208Y-107361792D01*
X116326876Y-107378447D01*
X116337029Y-107397443D01*
X116343284Y-107418062D01*
X116346000Y-107445640D01*
X116346000Y-107954360D01*
X116343284Y-107981938D01*
X116337029Y-108002557D01*
X116326876Y-108021553D01*
X116313208Y-108038208D01*
X116296553Y-108051876D01*
X116277557Y-108062029D01*
X116256938Y-108068284D01*
X116229360Y-108071000D01*
X115770640Y-108071000D01*
X115743062Y-108068284D01*
X115722443Y-108062029D01*
X115703447Y-108051876D01*
X115686792Y-108038208D01*
X115673124Y-108021553D01*
X115662971Y-108002557D01*
X115656716Y-107981938D01*
X115654000Y-107954360D01*
X115654000Y-107445640D01*
X115656716Y-107418062D01*
X115662971Y-107397443D01*
X115673124Y-107378447D01*
X115686792Y-107361792D01*
X115703447Y-107348124D01*
X115722443Y-107337971D01*
X115743062Y-107331716D01*
X115770640Y-107329000D01*
X116229360Y-107329000D01*
X116256938Y-107331716D01*
G37*
G36*
X115286938Y-107331716D02*
G01*
X115307557Y-107337971D01*
X115326553Y-107348124D01*
X115343208Y-107361792D01*
X115356876Y-107378447D01*
X115367029Y-107397443D01*
X115373284Y-107418062D01*
X115376000Y-107445640D01*
X115376000Y-107954360D01*
X115373284Y-107981938D01*
X115367029Y-108002557D01*
X115356876Y-108021553D01*
X115343208Y-108038208D01*
X115326553Y-108051876D01*
X115307557Y-108062029D01*
X115286938Y-108068284D01*
X115259360Y-108071000D01*
X114800640Y-108071000D01*
X114773062Y-108068284D01*
X114752443Y-108062029D01*
X114733447Y-108051876D01*
X114716792Y-108038208D01*
X114703124Y-108021553D01*
X114692971Y-108002557D01*
X114686716Y-107981938D01*
X114684000Y-107954360D01*
X114684000Y-107445640D01*
X114686716Y-107418062D01*
X114692971Y-107397443D01*
X114703124Y-107378447D01*
X114716792Y-107361792D01*
X114733447Y-107348124D01*
X114752443Y-107337971D01*
X114773062Y-107331716D01*
X114800640Y-107329000D01*
X115259360Y-107329000D01*
X115286938Y-107331716D01*
G37*
G36*
X113186938Y-107331716D02*
G01*
X113207557Y-107337971D01*
X113226553Y-107348124D01*
X113243208Y-107361792D01*
X113256876Y-107378447D01*
X113267029Y-107397443D01*
X113273284Y-107418062D01*
X113276000Y-107445640D01*
X113276000Y-107954360D01*
X113273284Y-107981938D01*
X113267029Y-108002557D01*
X113256876Y-108021553D01*
X113243208Y-108038208D01*
X113226553Y-108051876D01*
X113207557Y-108062029D01*
X113186938Y-108068284D01*
X113159360Y-108071000D01*
X112700640Y-108071000D01*
X112673062Y-108068284D01*
X112652443Y-108062029D01*
X112633447Y-108051876D01*
X112616792Y-108038208D01*
X112603124Y-108021553D01*
X112592971Y-108002557D01*
X112586716Y-107981938D01*
X112584000Y-107954360D01*
X112584000Y-107445640D01*
X112586716Y-107418062D01*
X112592971Y-107397443D01*
X112603124Y-107378447D01*
X112616792Y-107361792D01*
X112633447Y-107348124D01*
X112652443Y-107337971D01*
X112673062Y-107331716D01*
X112700640Y-107329000D01*
X113159360Y-107329000D01*
X113186938Y-107331716D01*
G37*
G36*
X139979591Y-106853085D02*
G01*
X140013569Y-106863393D01*
X140044890Y-106880134D01*
X140072339Y-106902661D01*
X140094866Y-106930110D01*
X140111607Y-106961431D01*
X140121915Y-106995409D01*
X140126000Y-107036890D01*
X140126000Y-107638110D01*
X140121915Y-107679591D01*
X140111607Y-107713569D01*
X140094866Y-107744890D01*
X140072339Y-107772339D01*
X140044890Y-107794866D01*
X140013569Y-107811607D01*
X139979591Y-107821915D01*
X139938110Y-107826000D01*
X139261890Y-107826000D01*
X139220409Y-107821915D01*
X139186431Y-107811607D01*
X139155110Y-107794866D01*
X139127661Y-107772339D01*
X139105134Y-107744890D01*
X139088393Y-107713569D01*
X139078085Y-107679591D01*
X139074000Y-107638110D01*
X139074000Y-107036890D01*
X139078085Y-106995409D01*
X139088393Y-106961431D01*
X139105134Y-106930110D01*
X139127661Y-106902661D01*
X139155110Y-106880134D01*
X139186431Y-106863393D01*
X139220409Y-106853085D01*
X139261890Y-106849000D01*
X139938110Y-106849000D01*
X139979591Y-106853085D01*
G37*
G36*
X137281938Y-107026716D02*
G01*
X137302557Y-107032971D01*
X137321553Y-107043124D01*
X137338208Y-107056792D01*
X137351876Y-107073447D01*
X137362029Y-107092443D01*
X137368284Y-107113062D01*
X137371000Y-107140640D01*
X137371000Y-107599360D01*
X137368284Y-107626938D01*
X137362029Y-107647557D01*
X137351876Y-107666553D01*
X137338208Y-107683208D01*
X137321553Y-107696876D01*
X137302557Y-107707029D01*
X137281938Y-107713284D01*
X137254360Y-107716000D01*
X136745640Y-107716000D01*
X136718062Y-107713284D01*
X136697443Y-107707029D01*
X136678447Y-107696876D01*
X136661792Y-107683208D01*
X136648124Y-107666553D01*
X136637971Y-107647557D01*
X136631716Y-107626938D01*
X136629000Y-107599360D01*
X136629000Y-107140640D01*
X136631716Y-107113062D01*
X136637971Y-107092443D01*
X136648124Y-107073447D01*
X136661792Y-107056792D01*
X136678447Y-107043124D01*
X136697443Y-107032971D01*
X136718062Y-107026716D01*
X136745640Y-107024000D01*
X137254360Y-107024000D01*
X137281938Y-107026716D01*
G37*
G36*
X138581938Y-107026716D02*
G01*
X138602557Y-107032971D01*
X138621553Y-107043124D01*
X138638208Y-107056792D01*
X138651876Y-107073447D01*
X138662029Y-107092443D01*
X138668284Y-107113062D01*
X138671000Y-107140640D01*
X138671000Y-107599360D01*
X138668284Y-107626938D01*
X138662029Y-107647557D01*
X138651876Y-107666553D01*
X138638208Y-107683208D01*
X138621553Y-107696876D01*
X138602557Y-107707029D01*
X138581938Y-107713284D01*
X138554360Y-107716000D01*
X138045640Y-107716000D01*
X138018062Y-107713284D01*
X137997443Y-107707029D01*
X137978447Y-107696876D01*
X137961792Y-107683208D01*
X137948124Y-107666553D01*
X137937971Y-107647557D01*
X137931716Y-107626938D01*
X137929000Y-107599360D01*
X137929000Y-107140640D01*
X137931716Y-107113062D01*
X137937971Y-107092443D01*
X137948124Y-107073447D01*
X137961792Y-107056792D01*
X137978447Y-107043124D01*
X137997443Y-107032971D01*
X138018062Y-107026716D01*
X138045640Y-107024000D01*
X138554360Y-107024000D01*
X138581938Y-107026716D01*
G37*
G36*
X108371938Y-106731716D02*
G01*
X108392557Y-106737971D01*
X108411553Y-106748124D01*
X108428208Y-106761792D01*
X108441876Y-106778447D01*
X108452029Y-106797443D01*
X108458284Y-106818062D01*
X108461000Y-106845640D01*
X108461000Y-107354360D01*
X108458284Y-107381938D01*
X108452029Y-107402557D01*
X108441876Y-107421553D01*
X108428208Y-107438208D01*
X108411553Y-107451876D01*
X108392557Y-107462029D01*
X108371938Y-107468284D01*
X108344360Y-107471000D01*
X107885640Y-107471000D01*
X107858062Y-107468284D01*
X107837443Y-107462029D01*
X107818447Y-107451876D01*
X107801792Y-107438208D01*
X107788124Y-107421553D01*
X107777971Y-107402557D01*
X107771716Y-107381938D01*
X107769000Y-107354360D01*
X107769000Y-106845640D01*
X107771716Y-106818062D01*
X107777971Y-106797443D01*
X107788124Y-106778447D01*
X107801792Y-106761792D01*
X107818447Y-106748124D01*
X107837443Y-106737971D01*
X107858062Y-106731716D01*
X107885640Y-106729000D01*
X108344360Y-106729000D01*
X108371938Y-106731716D01*
G37*
G36*
X109341938Y-106731716D02*
G01*
X109362557Y-106737971D01*
X109381553Y-106748124D01*
X109398208Y-106761792D01*
X109411876Y-106778447D01*
X109422029Y-106797443D01*
X109428284Y-106818062D01*
X109431000Y-106845640D01*
X109431000Y-107354360D01*
X109428284Y-107381938D01*
X109422029Y-107402557D01*
X109411876Y-107421553D01*
X109398208Y-107438208D01*
X109381553Y-107451876D01*
X109362557Y-107462029D01*
X109341938Y-107468284D01*
X109314360Y-107471000D01*
X108855640Y-107471000D01*
X108828062Y-107468284D01*
X108807443Y-107462029D01*
X108788447Y-107451876D01*
X108771792Y-107438208D01*
X108758124Y-107421553D01*
X108747971Y-107402557D01*
X108741716Y-107381938D01*
X108739000Y-107354360D01*
X108739000Y-106845640D01*
X108741716Y-106818062D01*
X108747971Y-106797443D01*
X108758124Y-106778447D01*
X108771792Y-106761792D01*
X108788447Y-106748124D01*
X108807443Y-106737971D01*
X108828062Y-106731716D01*
X108855640Y-106729000D01*
X109314360Y-106729000D01*
X109341938Y-106731716D01*
G37*
G36*
X105107938Y-106364716D02*
G01*
X105128557Y-106370971D01*
X105147553Y-106381124D01*
X105164208Y-106394792D01*
X105177876Y-106411447D01*
X105188029Y-106430443D01*
X105194284Y-106451062D01*
X105197000Y-106478640D01*
X105197000Y-106937360D01*
X105194284Y-106964938D01*
X105188029Y-106985557D01*
X105177876Y-107004553D01*
X105164208Y-107021208D01*
X105147553Y-107034876D01*
X105128557Y-107045029D01*
X105107938Y-107051284D01*
X105080360Y-107054000D01*
X104571640Y-107054000D01*
X104544062Y-107051284D01*
X104523443Y-107045029D01*
X104504447Y-107034876D01*
X104487792Y-107021208D01*
X104474124Y-107004553D01*
X104463971Y-106985557D01*
X104457716Y-106964938D01*
X104455000Y-106937360D01*
X104455000Y-106478640D01*
X104457716Y-106451062D01*
X104463971Y-106430443D01*
X104474124Y-106411447D01*
X104487792Y-106394792D01*
X104504447Y-106381124D01*
X104523443Y-106370971D01*
X104544062Y-106364716D01*
X104571640Y-106362000D01*
X105080360Y-106362000D01*
X105107938Y-106364716D01*
G37*
G36*
X103251000Y-107051000D02*
G01*
X102249000Y-107051000D01*
X102249000Y-106149000D01*
X103251000Y-106149000D01*
X103251000Y-107051000D01*
G37*
G36*
X107084468Y-105728565D02*
G01*
X107123138Y-105740296D01*
X107158777Y-105759346D01*
X107190017Y-105784983D01*
X107215654Y-105816223D01*
X107234704Y-105851862D01*
X107246435Y-105890532D01*
X107251000Y-105936888D01*
X107251000Y-106588112D01*
X107246435Y-106634468D01*
X107234704Y-106673138D01*
X107215654Y-106708777D01*
X107190017Y-106740017D01*
X107158777Y-106765654D01*
X107123138Y-106784704D01*
X107084468Y-106796435D01*
X107038112Y-106801000D01*
X105961888Y-106801000D01*
X105915532Y-106796435D01*
X105876862Y-106784704D01*
X105841223Y-106765654D01*
X105809983Y-106740017D01*
X105784346Y-106708777D01*
X105765296Y-106673138D01*
X105753565Y-106634468D01*
X105749000Y-106588112D01*
X105749000Y-105936888D01*
X105753565Y-105890532D01*
X105765296Y-105851862D01*
X105784346Y-105816223D01*
X105809983Y-105784983D01*
X105841223Y-105759346D01*
X105876862Y-105740296D01*
X105915532Y-105728565D01*
X105961888Y-105724000D01*
X107038112Y-105724000D01*
X107084468Y-105728565D01*
G37*
G36*
X138581938Y-106056716D02*
G01*
X138602557Y-106062971D01*
X138621553Y-106073124D01*
X138638208Y-106086792D01*
X138651876Y-106103447D01*
X138662029Y-106122443D01*
X138668284Y-106143062D01*
X138671000Y-106170640D01*
X138671000Y-106629360D01*
X138668284Y-106656938D01*
X138662029Y-106677557D01*
X138651876Y-106696553D01*
X138638208Y-106713208D01*
X138621553Y-106726876D01*
X138602557Y-106737029D01*
X138581938Y-106743284D01*
X138554360Y-106746000D01*
X138045640Y-106746000D01*
X138018062Y-106743284D01*
X137997443Y-106737029D01*
X137978447Y-106726876D01*
X137961792Y-106713208D01*
X137948124Y-106696553D01*
X137937971Y-106677557D01*
X137931716Y-106656938D01*
X137929000Y-106629360D01*
X137929000Y-106170640D01*
X137931716Y-106143062D01*
X137937971Y-106122443D01*
X137948124Y-106103447D01*
X137961792Y-106086792D01*
X137978447Y-106073124D01*
X137997443Y-106062971D01*
X138018062Y-106056716D01*
X138045640Y-106054000D01*
X138554360Y-106054000D01*
X138581938Y-106056716D01*
G37*
G36*
X137281938Y-106056716D02*
G01*
X137302557Y-106062971D01*
X137321553Y-106073124D01*
X137338208Y-106086792D01*
X137351876Y-106103447D01*
X137362029Y-106122443D01*
X137368284Y-106143062D01*
X137371000Y-106170640D01*
X137371000Y-106629360D01*
X137368284Y-106656938D01*
X137362029Y-106677557D01*
X137351876Y-106696553D01*
X137338208Y-106713208D01*
X137321553Y-106726876D01*
X137302557Y-106737029D01*
X137281938Y-106743284D01*
X137254360Y-106746000D01*
X136745640Y-106746000D01*
X136718062Y-106743284D01*
X136697443Y-106737029D01*
X136678447Y-106726876D01*
X136661792Y-106713208D01*
X136648124Y-106696553D01*
X136637971Y-106677557D01*
X136631716Y-106656938D01*
X136629000Y-106629360D01*
X136629000Y-106170640D01*
X136631716Y-106143062D01*
X136637971Y-106122443D01*
X136648124Y-106103447D01*
X136661792Y-106086792D01*
X136678447Y-106073124D01*
X136697443Y-106062971D01*
X136718062Y-106056716D01*
X136745640Y-106054000D01*
X137254360Y-106054000D01*
X137281938Y-106056716D01*
G37*
G36*
X115591938Y-105981716D02*
G01*
X115612557Y-105987971D01*
X115631553Y-105998124D01*
X115648208Y-106011792D01*
X115661876Y-106028447D01*
X115672029Y-106047443D01*
X115678284Y-106068062D01*
X115681000Y-106095640D01*
X115681000Y-106604360D01*
X115678284Y-106631938D01*
X115672029Y-106652557D01*
X115661876Y-106671553D01*
X115648208Y-106688208D01*
X115631553Y-106701876D01*
X115612557Y-106712029D01*
X115591938Y-106718284D01*
X115564360Y-106721000D01*
X115105640Y-106721000D01*
X115078062Y-106718284D01*
X115057443Y-106712029D01*
X115038447Y-106701876D01*
X115021792Y-106688208D01*
X115008124Y-106671553D01*
X114997971Y-106652557D01*
X114991716Y-106631938D01*
X114989000Y-106604360D01*
X114989000Y-106095640D01*
X114991716Y-106068062D01*
X114997971Y-106047443D01*
X115008124Y-106028447D01*
X115021792Y-106011792D01*
X115038447Y-105998124D01*
X115057443Y-105987971D01*
X115078062Y-105981716D01*
X115105640Y-105979000D01*
X115564360Y-105979000D01*
X115591938Y-105981716D01*
G37*
G36*
X117471938Y-105981716D02*
G01*
X117492557Y-105987971D01*
X117511553Y-105998124D01*
X117528208Y-106011792D01*
X117541876Y-106028447D01*
X117552029Y-106047443D01*
X117558284Y-106068062D01*
X117561000Y-106095640D01*
X117561000Y-106604360D01*
X117558284Y-106631938D01*
X117552029Y-106652557D01*
X117541876Y-106671553D01*
X117528208Y-106688208D01*
X117511553Y-106701876D01*
X117492557Y-106712029D01*
X117471938Y-106718284D01*
X117444360Y-106721000D01*
X116985640Y-106721000D01*
X116958062Y-106718284D01*
X116937443Y-106712029D01*
X116918447Y-106701876D01*
X116901792Y-106688208D01*
X116888124Y-106671553D01*
X116877971Y-106652557D01*
X116871716Y-106631938D01*
X116869000Y-106604360D01*
X116869000Y-106095640D01*
X116871716Y-106068062D01*
X116877971Y-106047443D01*
X116888124Y-106028447D01*
X116901792Y-106011792D01*
X116918447Y-105998124D01*
X116937443Y-105987971D01*
X116958062Y-105981716D01*
X116985640Y-105979000D01*
X117444360Y-105979000D01*
X117471938Y-105981716D01*
G37*
G36*
X118441938Y-105981716D02*
G01*
X118462557Y-105987971D01*
X118481553Y-105998124D01*
X118498208Y-106011792D01*
X118511876Y-106028447D01*
X118522029Y-106047443D01*
X118528284Y-106068062D01*
X118531000Y-106095640D01*
X118531000Y-106604360D01*
X118528284Y-106631938D01*
X118522029Y-106652557D01*
X118511876Y-106671553D01*
X118498208Y-106688208D01*
X118481553Y-106701876D01*
X118462557Y-106712029D01*
X118441938Y-106718284D01*
X118414360Y-106721000D01*
X117955640Y-106721000D01*
X117928062Y-106718284D01*
X117907443Y-106712029D01*
X117888447Y-106701876D01*
X117871792Y-106688208D01*
X117858124Y-106671553D01*
X117847971Y-106652557D01*
X117841716Y-106631938D01*
X117839000Y-106604360D01*
X117839000Y-106095640D01*
X117841716Y-106068062D01*
X117847971Y-106047443D01*
X117858124Y-106028447D01*
X117871792Y-106011792D01*
X117888447Y-105998124D01*
X117907443Y-105987971D01*
X117928062Y-105981716D01*
X117955640Y-105979000D01*
X118414360Y-105979000D01*
X118441938Y-105981716D01*
G37*
G36*
X114621938Y-105981716D02*
G01*
X114642557Y-105987971D01*
X114661553Y-105998124D01*
X114678208Y-106011792D01*
X114691876Y-106028447D01*
X114702029Y-106047443D01*
X114708284Y-106068062D01*
X114711000Y-106095640D01*
X114711000Y-106604360D01*
X114708284Y-106631938D01*
X114702029Y-106652557D01*
X114691876Y-106671553D01*
X114678208Y-106688208D01*
X114661553Y-106701876D01*
X114642557Y-106712029D01*
X114621938Y-106718284D01*
X114594360Y-106721000D01*
X114135640Y-106721000D01*
X114108062Y-106718284D01*
X114087443Y-106712029D01*
X114068447Y-106701876D01*
X114051792Y-106688208D01*
X114038124Y-106671553D01*
X114027971Y-106652557D01*
X114021716Y-106631938D01*
X114019000Y-106604360D01*
X114019000Y-106095640D01*
X114021716Y-106068062D01*
X114027971Y-106047443D01*
X114038124Y-106028447D01*
X114051792Y-106011792D01*
X114068447Y-105998124D01*
X114087443Y-105987971D01*
X114108062Y-105981716D01*
X114135640Y-105979000D01*
X114594360Y-105979000D01*
X114621938Y-105981716D01*
G37*
G36*
X111074938Y-105981716D02*
G01*
X111095557Y-105987971D01*
X111114553Y-105998124D01*
X111131208Y-106011792D01*
X111144876Y-106028447D01*
X111155029Y-106047443D01*
X111161284Y-106068062D01*
X111164000Y-106095640D01*
X111164000Y-106604360D01*
X111161284Y-106631938D01*
X111155029Y-106652557D01*
X111144876Y-106671553D01*
X111131208Y-106688208D01*
X111114553Y-106701876D01*
X111095557Y-106712029D01*
X111074938Y-106718284D01*
X111047360Y-106721000D01*
X110588640Y-106721000D01*
X110561062Y-106718284D01*
X110540443Y-106712029D01*
X110521447Y-106701876D01*
X110504792Y-106688208D01*
X110491124Y-106671553D01*
X110480971Y-106652557D01*
X110474716Y-106631938D01*
X110472000Y-106604360D01*
X110472000Y-106095640D01*
X110474716Y-106068062D01*
X110480971Y-106047443D01*
X110491124Y-106028447D01*
X110504792Y-106011792D01*
X110521447Y-105998124D01*
X110540443Y-105987971D01*
X110561062Y-105981716D01*
X110588640Y-105979000D01*
X111047360Y-105979000D01*
X111074938Y-105981716D01*
G37*
G36*
X112044938Y-105981716D02*
G01*
X112065557Y-105987971D01*
X112084553Y-105998124D01*
X112101208Y-106011792D01*
X112114876Y-106028447D01*
X112125029Y-106047443D01*
X112131284Y-106068062D01*
X112134000Y-106095640D01*
X112134000Y-106604360D01*
X112131284Y-106631938D01*
X112125029Y-106652557D01*
X112114876Y-106671553D01*
X112101208Y-106688208D01*
X112084553Y-106701876D01*
X112065557Y-106712029D01*
X112044938Y-106718284D01*
X112017360Y-106721000D01*
X111558640Y-106721000D01*
X111531062Y-106718284D01*
X111510443Y-106712029D01*
X111491447Y-106701876D01*
X111474792Y-106688208D01*
X111461124Y-106671553D01*
X111450971Y-106652557D01*
X111444716Y-106631938D01*
X111442000Y-106604360D01*
X111442000Y-106095640D01*
X111444716Y-106068062D01*
X111450971Y-106047443D01*
X111461124Y-106028447D01*
X111474792Y-106011792D01*
X111491447Y-105998124D01*
X111510443Y-105987971D01*
X111531062Y-105981716D01*
X111558640Y-105979000D01*
X112017360Y-105979000D01*
X112044938Y-105981716D01*
G37*
G36*
X143901000Y-106583000D02*
G01*
X142199000Y-106583000D01*
X142199000Y-105681000D01*
X143901000Y-105681000D01*
X143901000Y-106583000D01*
G37*
G36*
X108371938Y-105731716D02*
G01*
X108392557Y-105737971D01*
X108411553Y-105748124D01*
X108428208Y-105761792D01*
X108441876Y-105778447D01*
X108452029Y-105797443D01*
X108458284Y-105818062D01*
X108461000Y-105845640D01*
X108461000Y-106354360D01*
X108458284Y-106381938D01*
X108452029Y-106402557D01*
X108441876Y-106421553D01*
X108428208Y-106438208D01*
X108411553Y-106451876D01*
X108392557Y-106462029D01*
X108371938Y-106468284D01*
X108344360Y-106471000D01*
X107885640Y-106471000D01*
X107858062Y-106468284D01*
X107837443Y-106462029D01*
X107818447Y-106451876D01*
X107801792Y-106438208D01*
X107788124Y-106421553D01*
X107777971Y-106402557D01*
X107771716Y-106381938D01*
X107769000Y-106354360D01*
X107769000Y-105845640D01*
X107771716Y-105818062D01*
X107777971Y-105797443D01*
X107788124Y-105778447D01*
X107801792Y-105761792D01*
X107818447Y-105748124D01*
X107837443Y-105737971D01*
X107858062Y-105731716D01*
X107885640Y-105729000D01*
X108344360Y-105729000D01*
X108371938Y-105731716D01*
G37*
G36*
X109341938Y-105731716D02*
G01*
X109362557Y-105737971D01*
X109381553Y-105748124D01*
X109398208Y-105761792D01*
X109411876Y-105778447D01*
X109422029Y-105797443D01*
X109428284Y-105818062D01*
X109431000Y-105845640D01*
X109431000Y-106354360D01*
X109428284Y-106381938D01*
X109422029Y-106402557D01*
X109411876Y-106421553D01*
X109398208Y-106438208D01*
X109381553Y-106451876D01*
X109362557Y-106462029D01*
X109341938Y-106468284D01*
X109314360Y-106471000D01*
X108855640Y-106471000D01*
X108828062Y-106468284D01*
X108807443Y-106462029D01*
X108788447Y-106451876D01*
X108771792Y-106438208D01*
X108758124Y-106421553D01*
X108747971Y-106402557D01*
X108741716Y-106381938D01*
X108739000Y-106354360D01*
X108739000Y-105845640D01*
X108741716Y-105818062D01*
X108747971Y-105797443D01*
X108758124Y-105778447D01*
X108771792Y-105761792D01*
X108788447Y-105748124D01*
X108807443Y-105737971D01*
X108828062Y-105731716D01*
X108855640Y-105729000D01*
X109314360Y-105729000D01*
X109341938Y-105731716D01*
G37*
G36*
X139979591Y-105278085D02*
G01*
X140013569Y-105288393D01*
X140044890Y-105305134D01*
X140072339Y-105327661D01*
X140094866Y-105355110D01*
X140111607Y-105386431D01*
X140121915Y-105420409D01*
X140126000Y-105461890D01*
X140126000Y-106063110D01*
X140121915Y-106104591D01*
X140111607Y-106138569D01*
X140094866Y-106169890D01*
X140072339Y-106197339D01*
X140044890Y-106219866D01*
X140013569Y-106236607D01*
X139979591Y-106246915D01*
X139938110Y-106251000D01*
X139261890Y-106251000D01*
X139220409Y-106246915D01*
X139186431Y-106236607D01*
X139155110Y-106219866D01*
X139127661Y-106197339D01*
X139105134Y-106169890D01*
X139088393Y-106138569D01*
X139078085Y-106104591D01*
X139074000Y-106063110D01*
X139074000Y-105461890D01*
X139078085Y-105420409D01*
X139088393Y-105386431D01*
X139105134Y-105355110D01*
X139127661Y-105327661D01*
X139155110Y-105305134D01*
X139186431Y-105288393D01*
X139220409Y-105278085D01*
X139261890Y-105274000D01*
X139938110Y-105274000D01*
X139979591Y-105278085D01*
G37*
G36*
X101251000Y-106101000D02*
G01*
X100249000Y-106101000D01*
X100249000Y-105199000D01*
X101251000Y-105199000D01*
X101251000Y-106101000D01*
G37*
G36*
X105107938Y-105394716D02*
G01*
X105128557Y-105400971D01*
X105147553Y-105411124D01*
X105164208Y-105424792D01*
X105177876Y-105441447D01*
X105188029Y-105460443D01*
X105194284Y-105481062D01*
X105197000Y-105508640D01*
X105197000Y-105967360D01*
X105194284Y-105994938D01*
X105188029Y-106015557D01*
X105177876Y-106034553D01*
X105164208Y-106051208D01*
X105147553Y-106064876D01*
X105128557Y-106075029D01*
X105107938Y-106081284D01*
X105080360Y-106084000D01*
X104571640Y-106084000D01*
X104544062Y-106081284D01*
X104523443Y-106075029D01*
X104504447Y-106064876D01*
X104487792Y-106051208D01*
X104474124Y-106034553D01*
X104463971Y-106015557D01*
X104457716Y-105994938D01*
X104455000Y-105967360D01*
X104455000Y-105508640D01*
X104457716Y-105481062D01*
X104463971Y-105460443D01*
X104474124Y-105441447D01*
X104487792Y-105424792D01*
X104504447Y-105411124D01*
X104523443Y-105400971D01*
X104544062Y-105394716D01*
X104571640Y-105392000D01*
X105080360Y-105392000D01*
X105107938Y-105394716D01*
G37*
G36*
X112044938Y-104965716D02*
G01*
X112065557Y-104971971D01*
X112084553Y-104982124D01*
X112101208Y-104995792D01*
X112114876Y-105012447D01*
X112125029Y-105031443D01*
X112131284Y-105052062D01*
X112134000Y-105079640D01*
X112134000Y-105588360D01*
X112131284Y-105615938D01*
X112125029Y-105636557D01*
X112114876Y-105655553D01*
X112101208Y-105672208D01*
X112084553Y-105685876D01*
X112065557Y-105696029D01*
X112044938Y-105702284D01*
X112017360Y-105705000D01*
X111558640Y-105705000D01*
X111531062Y-105702284D01*
X111510443Y-105696029D01*
X111491447Y-105685876D01*
X111474792Y-105672208D01*
X111461124Y-105655553D01*
X111450971Y-105636557D01*
X111444716Y-105615938D01*
X111442000Y-105588360D01*
X111442000Y-105079640D01*
X111444716Y-105052062D01*
X111450971Y-105031443D01*
X111461124Y-105012447D01*
X111474792Y-104995792D01*
X111491447Y-104982124D01*
X111510443Y-104971971D01*
X111531062Y-104965716D01*
X111558640Y-104963000D01*
X112017360Y-104963000D01*
X112044938Y-104965716D01*
G37*
G36*
X111074938Y-104965716D02*
G01*
X111095557Y-104971971D01*
X111114553Y-104982124D01*
X111131208Y-104995792D01*
X111144876Y-105012447D01*
X111155029Y-105031443D01*
X111161284Y-105052062D01*
X111164000Y-105079640D01*
X111164000Y-105588360D01*
X111161284Y-105615938D01*
X111155029Y-105636557D01*
X111144876Y-105655553D01*
X111131208Y-105672208D01*
X111114553Y-105685876D01*
X111095557Y-105696029D01*
X111074938Y-105702284D01*
X111047360Y-105705000D01*
X110588640Y-105705000D01*
X110561062Y-105702284D01*
X110540443Y-105696029D01*
X110521447Y-105685876D01*
X110504792Y-105672208D01*
X110491124Y-105655553D01*
X110480971Y-105636557D01*
X110474716Y-105615938D01*
X110472000Y-105588360D01*
X110472000Y-105079640D01*
X110474716Y-105052062D01*
X110480971Y-105031443D01*
X110491124Y-105012447D01*
X110504792Y-104995792D01*
X110521447Y-104982124D01*
X110540443Y-104971971D01*
X110561062Y-104965716D01*
X110588640Y-104963000D01*
X111047360Y-104963000D01*
X111074938Y-104965716D01*
G37*
G36*
X117471938Y-104631716D02*
G01*
X117492557Y-104637971D01*
X117511553Y-104648124D01*
X117528208Y-104661792D01*
X117541876Y-104678447D01*
X117552029Y-104697443D01*
X117558284Y-104718062D01*
X117561000Y-104745640D01*
X117561000Y-105254360D01*
X117558284Y-105281938D01*
X117552029Y-105302557D01*
X117541876Y-105321553D01*
X117528208Y-105338208D01*
X117511553Y-105351876D01*
X117492557Y-105362029D01*
X117471938Y-105368284D01*
X117444360Y-105371000D01*
X116985640Y-105371000D01*
X116958062Y-105368284D01*
X116937443Y-105362029D01*
X116918447Y-105351876D01*
X116901792Y-105338208D01*
X116888124Y-105321553D01*
X116877971Y-105302557D01*
X116871716Y-105281938D01*
X116869000Y-105254360D01*
X116869000Y-104745640D01*
X116871716Y-104718062D01*
X116877971Y-104697443D01*
X116888124Y-104678447D01*
X116901792Y-104661792D01*
X116918447Y-104648124D01*
X116937443Y-104637971D01*
X116958062Y-104631716D01*
X116985640Y-104629000D01*
X117444360Y-104629000D01*
X117471938Y-104631716D01*
G37*
G36*
X118441938Y-104631716D02*
G01*
X118462557Y-104637971D01*
X118481553Y-104648124D01*
X118498208Y-104661792D01*
X118511876Y-104678447D01*
X118522029Y-104697443D01*
X118528284Y-104718062D01*
X118531000Y-104745640D01*
X118531000Y-105254360D01*
X118528284Y-105281938D01*
X118522029Y-105302557D01*
X118511876Y-105321553D01*
X118498208Y-105338208D01*
X118481553Y-105351876D01*
X118462557Y-105362029D01*
X118441938Y-105368284D01*
X118414360Y-105371000D01*
X117955640Y-105371000D01*
X117928062Y-105368284D01*
X117907443Y-105362029D01*
X117888447Y-105351876D01*
X117871792Y-105338208D01*
X117858124Y-105321553D01*
X117847971Y-105302557D01*
X117841716Y-105281938D01*
X117839000Y-105254360D01*
X117839000Y-104745640D01*
X117841716Y-104718062D01*
X117847971Y-104697443D01*
X117858124Y-104678447D01*
X117871792Y-104661792D01*
X117888447Y-104648124D01*
X117907443Y-104637971D01*
X117928062Y-104631716D01*
X117955640Y-104629000D01*
X118414360Y-104629000D01*
X118441938Y-104631716D01*
G37*
G36*
X115591938Y-104631716D02*
G01*
X115612557Y-104637971D01*
X115631553Y-104648124D01*
X115648208Y-104661792D01*
X115661876Y-104678447D01*
X115672029Y-104697443D01*
X115678284Y-104718062D01*
X115681000Y-104745640D01*
X115681000Y-105254360D01*
X115678284Y-105281938D01*
X115672029Y-105302557D01*
X115661876Y-105321553D01*
X115648208Y-105338208D01*
X115631553Y-105351876D01*
X115612557Y-105362029D01*
X115591938Y-105368284D01*
X115564360Y-105371000D01*
X115105640Y-105371000D01*
X115078062Y-105368284D01*
X115057443Y-105362029D01*
X115038447Y-105351876D01*
X115021792Y-105338208D01*
X115008124Y-105321553D01*
X114997971Y-105302557D01*
X114991716Y-105281938D01*
X114989000Y-105254360D01*
X114989000Y-104745640D01*
X114991716Y-104718062D01*
X114997971Y-104697443D01*
X115008124Y-104678447D01*
X115021792Y-104661792D01*
X115038447Y-104648124D01*
X115057443Y-104637971D01*
X115078062Y-104631716D01*
X115105640Y-104629000D01*
X115564360Y-104629000D01*
X115591938Y-104631716D01*
G37*
G36*
X114621938Y-104631716D02*
G01*
X114642557Y-104637971D01*
X114661553Y-104648124D01*
X114678208Y-104661792D01*
X114691876Y-104678447D01*
X114702029Y-104697443D01*
X114708284Y-104718062D01*
X114711000Y-104745640D01*
X114711000Y-105254360D01*
X114708284Y-105281938D01*
X114702029Y-105302557D01*
X114691876Y-105321553D01*
X114678208Y-105338208D01*
X114661553Y-105351876D01*
X114642557Y-105362029D01*
X114621938Y-105368284D01*
X114594360Y-105371000D01*
X114135640Y-105371000D01*
X114108062Y-105368284D01*
X114087443Y-105362029D01*
X114068447Y-105351876D01*
X114051792Y-105338208D01*
X114038124Y-105321553D01*
X114027971Y-105302557D01*
X114021716Y-105281938D01*
X114019000Y-105254360D01*
X114019000Y-104745640D01*
X114021716Y-104718062D01*
X114027971Y-104697443D01*
X114038124Y-104678447D01*
X114051792Y-104661792D01*
X114068447Y-104648124D01*
X114087443Y-104637971D01*
X114108062Y-104631716D01*
X114135640Y-104629000D01*
X114594360Y-104629000D01*
X114621938Y-104631716D01*
G37*
G36*
X108301000Y-102599001D02*
G01*
X108303402Y-102623387D01*
X108310515Y-102646836D01*
X108322066Y-102668447D01*
X108337611Y-102687389D01*
X108356553Y-102702934D01*
X108378164Y-102714485D01*
X108401613Y-102721598D01*
X108425999Y-102724000D01*
X109294359Y-102724000D01*
X109305355Y-102725083D01*
X109310029Y-102726501D01*
X109314331Y-102728800D01*
X109318104Y-102731896D01*
X109321200Y-102735669D01*
X109323499Y-102739971D01*
X109324917Y-102744645D01*
X109326000Y-102755641D01*
X109326000Y-103044359D01*
X109324917Y-103055355D01*
X109323499Y-103060029D01*
X109321200Y-103064330D01*
X109315971Y-103070702D01*
X109302357Y-103091076D01*
X109292980Y-103113715D01*
X109288200Y-103137749D01*
X109288200Y-103162253D01*
X109292981Y-103186286D01*
X109302358Y-103208925D01*
X109315971Y-103229298D01*
X109321200Y-103235670D01*
X109323499Y-103239971D01*
X109324917Y-103244645D01*
X109326000Y-103255641D01*
X109326000Y-103544359D01*
X109324917Y-103555355D01*
X109323499Y-103560029D01*
X109321200Y-103564330D01*
X109315971Y-103570702D01*
X109302357Y-103591076D01*
X109292980Y-103613715D01*
X109288200Y-103637749D01*
X109288200Y-103662253D01*
X109292981Y-103686286D01*
X109302358Y-103708925D01*
X109315971Y-103729298D01*
X109321200Y-103735670D01*
X109323499Y-103739971D01*
X109324917Y-103744645D01*
X109326000Y-103755641D01*
X109326000Y-104044359D01*
X109324917Y-104055355D01*
X109323499Y-104060029D01*
X109321200Y-104064330D01*
X109315971Y-104070702D01*
X109302357Y-104091076D01*
X109292980Y-104113715D01*
X109288200Y-104137749D01*
X109288200Y-104162253D01*
X109292981Y-104186286D01*
X109302358Y-104208925D01*
X109315971Y-104229298D01*
X109321200Y-104235670D01*
X109323499Y-104239971D01*
X109324917Y-104244645D01*
X109326000Y-104255641D01*
X109326000Y-104544359D01*
X109324917Y-104555355D01*
X109323499Y-104560029D01*
X109321200Y-104564330D01*
X109315971Y-104570702D01*
X109302357Y-104591076D01*
X109292980Y-104613715D01*
X109288200Y-104637749D01*
X109288200Y-104662253D01*
X109292981Y-104686286D01*
X109302358Y-104708925D01*
X109315971Y-104729298D01*
X109321200Y-104735670D01*
X109323499Y-104739971D01*
X109324917Y-104744645D01*
X109326000Y-104755641D01*
X109326000Y-105044359D01*
X109324917Y-105055355D01*
X109323499Y-105060029D01*
X109321200Y-105064331D01*
X109318104Y-105068104D01*
X109314331Y-105071200D01*
X109310029Y-105073499D01*
X109305355Y-105074917D01*
X109294359Y-105076000D01*
X108425999Y-105076000D01*
X108401613Y-105078402D01*
X108378164Y-105085515D01*
X108356553Y-105097066D01*
X108337611Y-105112611D01*
X108322066Y-105131553D01*
X108310515Y-105153164D01*
X108303402Y-105176613D01*
X108301000Y-105200999D01*
X108301000Y-105201000D01*
X106499000Y-105201000D01*
X106499000Y-105200999D01*
X106496598Y-105176613D01*
X106489485Y-105153164D01*
X106477934Y-105131553D01*
X106462389Y-105112611D01*
X106443447Y-105097066D01*
X106421836Y-105085515D01*
X106398387Y-105078402D01*
X106374001Y-105076000D01*
X105505641Y-105076000D01*
X105494645Y-105074917D01*
X105489971Y-105073499D01*
X105485669Y-105071200D01*
X105481896Y-105068104D01*
X105478800Y-105064331D01*
X105476501Y-105060029D01*
X105475083Y-105055355D01*
X105474000Y-105044359D01*
X105474000Y-104755641D01*
X105475083Y-104744645D01*
X105476501Y-104739971D01*
X105478800Y-104735670D01*
X105484029Y-104729298D01*
X105497643Y-104708924D01*
X105507020Y-104686285D01*
X105511800Y-104662251D01*
X105511800Y-104637747D01*
X105507019Y-104613714D01*
X105497642Y-104591075D01*
X105484029Y-104570702D01*
X105478800Y-104564330D01*
X105476501Y-104560029D01*
X105475083Y-104555355D01*
X105474000Y-104544359D01*
X105474000Y-104255641D01*
X105475083Y-104244645D01*
X105476501Y-104239971D01*
X105478800Y-104235670D01*
X105484029Y-104229298D01*
X105497643Y-104208924D01*
X105507020Y-104186285D01*
X105511800Y-104162251D01*
X105511800Y-104137747D01*
X105507019Y-104113714D01*
X105497642Y-104091075D01*
X105484029Y-104070702D01*
X105478800Y-104064330D01*
X105476501Y-104060029D01*
X105475083Y-104055355D01*
X105474000Y-104044359D01*
X105474000Y-103755641D01*
X105475083Y-103744645D01*
X105476501Y-103739971D01*
X105478800Y-103735670D01*
X105484029Y-103729298D01*
X105497643Y-103708924D01*
X105507020Y-103686285D01*
X105511800Y-103662251D01*
X105511800Y-103637747D01*
X105507019Y-103613714D01*
X105497642Y-103591075D01*
X105484029Y-103570702D01*
X105478800Y-103564330D01*
X105476501Y-103560029D01*
X105475083Y-103555355D01*
X105474000Y-103544359D01*
X105474000Y-103255641D01*
X105475083Y-103244645D01*
X105476501Y-103239971D01*
X105478800Y-103235670D01*
X105484029Y-103229298D01*
X105497643Y-103208924D01*
X105507020Y-103186285D01*
X105511800Y-103162251D01*
X105511800Y-103137747D01*
X105507019Y-103113714D01*
X105497642Y-103091075D01*
X105484029Y-103070702D01*
X105478800Y-103064330D01*
X105476501Y-103060029D01*
X105475083Y-103055355D01*
X105474000Y-103044359D01*
X105474000Y-102755641D01*
X105475083Y-102744645D01*
X105476501Y-102739971D01*
X105478800Y-102735669D01*
X105481896Y-102731896D01*
X105485669Y-102728800D01*
X105489971Y-102726501D01*
X105494645Y-102725083D01*
X105505641Y-102724000D01*
X106374001Y-102724000D01*
X106398387Y-102721598D01*
X106421836Y-102714485D01*
X106443447Y-102702934D01*
X106462389Y-102687389D01*
X106477934Y-102668447D01*
X106489485Y-102646836D01*
X106496598Y-102623387D01*
X106499000Y-102599001D01*
X106499000Y-102599000D01*
X108301000Y-102599000D01*
X108301000Y-102599001D01*
G37*
G36*
X103251000Y-105151000D02*
G01*
X102249000Y-105151000D01*
X102249000Y-104249000D01*
X103251000Y-104249000D01*
X103251000Y-105151000D01*
G37*
G36*
X139281938Y-103941716D02*
G01*
X139302557Y-103947971D01*
X139321553Y-103958124D01*
X139338208Y-103971792D01*
X139351876Y-103988447D01*
X139362029Y-104007443D01*
X139368284Y-104028062D01*
X139371000Y-104055640D01*
X139371000Y-104514360D01*
X139368284Y-104541938D01*
X139362029Y-104562557D01*
X139351876Y-104581553D01*
X139338208Y-104598208D01*
X139321553Y-104611876D01*
X139302557Y-104622029D01*
X139281938Y-104628284D01*
X139254360Y-104631000D01*
X138745640Y-104631000D01*
X138718062Y-104628284D01*
X138697443Y-104622029D01*
X138678447Y-104611876D01*
X138661792Y-104598208D01*
X138648124Y-104581553D01*
X138637971Y-104562557D01*
X138631716Y-104541938D01*
X138629000Y-104514360D01*
X138629000Y-104055640D01*
X138631716Y-104028062D01*
X138637971Y-104007443D01*
X138648124Y-103988447D01*
X138661792Y-103971792D01*
X138678447Y-103958124D01*
X138697443Y-103947971D01*
X138718062Y-103941716D01*
X138745640Y-103939000D01*
X139254360Y-103939000D01*
X139281938Y-103941716D01*
G37*
G36*
X138001000Y-104226000D02*
G01*
X136199000Y-104226000D01*
X136199000Y-103474000D01*
X138001000Y-103474000D01*
X138001000Y-104226000D01*
G37*
G36*
X117471938Y-103431716D02*
G01*
X117492557Y-103437971D01*
X117511553Y-103448124D01*
X117528208Y-103461792D01*
X117541876Y-103478447D01*
X117552029Y-103497443D01*
X117558284Y-103518062D01*
X117561000Y-103545640D01*
X117561000Y-104054360D01*
X117558284Y-104081938D01*
X117552029Y-104102557D01*
X117541876Y-104121553D01*
X117528208Y-104138208D01*
X117511553Y-104151876D01*
X117492557Y-104162029D01*
X117471938Y-104168284D01*
X117444360Y-104171000D01*
X116985640Y-104171000D01*
X116958062Y-104168284D01*
X116937443Y-104162029D01*
X116918447Y-104151876D01*
X116901792Y-104138208D01*
X116888124Y-104121553D01*
X116877971Y-104102557D01*
X116871716Y-104081938D01*
X116869000Y-104054360D01*
X116869000Y-103545640D01*
X116871716Y-103518062D01*
X116877971Y-103497443D01*
X116888124Y-103478447D01*
X116901792Y-103461792D01*
X116918447Y-103448124D01*
X116937443Y-103437971D01*
X116958062Y-103431716D01*
X116985640Y-103429000D01*
X117444360Y-103429000D01*
X117471938Y-103431716D01*
G37*
G36*
X118441938Y-103431716D02*
G01*
X118462557Y-103437971D01*
X118481553Y-103448124D01*
X118498208Y-103461792D01*
X118511876Y-103478447D01*
X118522029Y-103497443D01*
X118528284Y-103518062D01*
X118531000Y-103545640D01*
X118531000Y-104054360D01*
X118528284Y-104081938D01*
X118522029Y-104102557D01*
X118511876Y-104121553D01*
X118498208Y-104138208D01*
X118481553Y-104151876D01*
X118462557Y-104162029D01*
X118441938Y-104168284D01*
X118414360Y-104171000D01*
X117955640Y-104171000D01*
X117928062Y-104168284D01*
X117907443Y-104162029D01*
X117888447Y-104151876D01*
X117871792Y-104138208D01*
X117858124Y-104121553D01*
X117847971Y-104102557D01*
X117841716Y-104081938D01*
X117839000Y-104054360D01*
X117839000Y-103545640D01*
X117841716Y-103518062D01*
X117847971Y-103497443D01*
X117858124Y-103478447D01*
X117871792Y-103461792D01*
X117888447Y-103448124D01*
X117907443Y-103437971D01*
X117928062Y-103431716D01*
X117955640Y-103429000D01*
X118414360Y-103429000D01*
X118441938Y-103431716D01*
G37*
G36*
X139281938Y-102971716D02*
G01*
X139302557Y-102977971D01*
X139321553Y-102988124D01*
X139338208Y-103001792D01*
X139351876Y-103018447D01*
X139362029Y-103037443D01*
X139368284Y-103058062D01*
X139371000Y-103085640D01*
X139371000Y-103544360D01*
X139368284Y-103571938D01*
X139362029Y-103592557D01*
X139351876Y-103611553D01*
X139338208Y-103628208D01*
X139321553Y-103641876D01*
X139302557Y-103652029D01*
X139281938Y-103658284D01*
X139254360Y-103661000D01*
X138745640Y-103661000D01*
X138718062Y-103658284D01*
X138697443Y-103652029D01*
X138678447Y-103641876D01*
X138661792Y-103628208D01*
X138648124Y-103611553D01*
X138637971Y-103592557D01*
X138631716Y-103571938D01*
X138629000Y-103544360D01*
X138629000Y-103085640D01*
X138631716Y-103058062D01*
X138637971Y-103037443D01*
X138648124Y-103018447D01*
X138661792Y-103001792D01*
X138678447Y-102988124D01*
X138697443Y-102977971D01*
X138718062Y-102971716D01*
X138745640Y-102969000D01*
X139254360Y-102969000D01*
X139281938Y-102971716D01*
G37*
G36*
X114331000Y-103326000D02*
G01*
X113169000Y-103326000D01*
X113169000Y-100674000D01*
X114331000Y-100674000D01*
X114331000Y-103326000D01*
G37*
G36*
X103201000Y-103326000D02*
G01*
X102499000Y-103326000D01*
X102499000Y-102774000D01*
X103201000Y-102774000D01*
X103201000Y-103326000D01*
G37*
G36*
X116531000Y-103326000D02*
G01*
X115369000Y-103326000D01*
X115369000Y-102574000D01*
X116531000Y-102574000D01*
X116531000Y-103326000D01*
G37*
G36*
X101101000Y-103326000D02*
G01*
X100399000Y-103326000D01*
X100399000Y-102774000D01*
X101101000Y-102774000D01*
X101101000Y-103326000D01*
G37*
G36*
X111481938Y-102541716D02*
G01*
X111502557Y-102547971D01*
X111521553Y-102558124D01*
X111538208Y-102571792D01*
X111551876Y-102588447D01*
X111562029Y-102607443D01*
X111568284Y-102628062D01*
X111571000Y-102655640D01*
X111571000Y-103114360D01*
X111568284Y-103141938D01*
X111562029Y-103162557D01*
X111551876Y-103181553D01*
X111538208Y-103198208D01*
X111521553Y-103211876D01*
X111502557Y-103222029D01*
X111481938Y-103228284D01*
X111454360Y-103231000D01*
X110945640Y-103231000D01*
X110918062Y-103228284D01*
X110897443Y-103222029D01*
X110878447Y-103211876D01*
X110861792Y-103198208D01*
X110848124Y-103181553D01*
X110837971Y-103162557D01*
X110831716Y-103141938D01*
X110829000Y-103114360D01*
X110829000Y-102655640D01*
X110831716Y-102628062D01*
X110837971Y-102607443D01*
X110848124Y-102588447D01*
X110861792Y-102571792D01*
X110878447Y-102558124D01*
X110897443Y-102547971D01*
X110918062Y-102541716D01*
X110945640Y-102539000D01*
X111454360Y-102539000D01*
X111481938Y-102541716D01*
G37*
G36*
X143901000Y-102851000D02*
G01*
X142199000Y-102851000D01*
X142199000Y-101949000D01*
X143901000Y-101949000D01*
X143901000Y-102851000D01*
G37*
G36*
X125881938Y-102141716D02*
G01*
X125902557Y-102147971D01*
X125921553Y-102158124D01*
X125938208Y-102171792D01*
X125951876Y-102188447D01*
X125962029Y-102207443D01*
X125968284Y-102228062D01*
X125971000Y-102255640D01*
X125971000Y-102714360D01*
X125968284Y-102741938D01*
X125962029Y-102762557D01*
X125951876Y-102781553D01*
X125938208Y-102798208D01*
X125921553Y-102811876D01*
X125902557Y-102822029D01*
X125881938Y-102828284D01*
X125854360Y-102831000D01*
X125345640Y-102831000D01*
X125318062Y-102828284D01*
X125297443Y-102822029D01*
X125278447Y-102811876D01*
X125261792Y-102798208D01*
X125248124Y-102781553D01*
X125237971Y-102762557D01*
X125231716Y-102741938D01*
X125229000Y-102714360D01*
X125229000Y-102255640D01*
X125231716Y-102228062D01*
X125237971Y-102207443D01*
X125248124Y-102188447D01*
X125261792Y-102171792D01*
X125278447Y-102158124D01*
X125297443Y-102147971D01*
X125318062Y-102141716D01*
X125345640Y-102139000D01*
X125854360Y-102139000D01*
X125881938Y-102141716D01*
G37*
G36*
X127081938Y-102141716D02*
G01*
X127102557Y-102147971D01*
X127121553Y-102158124D01*
X127138208Y-102171792D01*
X127151876Y-102188447D01*
X127162029Y-102207443D01*
X127168284Y-102228062D01*
X127171000Y-102255640D01*
X127171000Y-102714360D01*
X127168284Y-102741938D01*
X127162029Y-102762557D01*
X127151876Y-102781553D01*
X127138208Y-102798208D01*
X127121553Y-102811876D01*
X127102557Y-102822029D01*
X127081938Y-102828284D01*
X127054360Y-102831000D01*
X126545640Y-102831000D01*
X126518062Y-102828284D01*
X126497443Y-102822029D01*
X126478447Y-102811876D01*
X126461792Y-102798208D01*
X126448124Y-102781553D01*
X126437971Y-102762557D01*
X126431716Y-102741938D01*
X126429000Y-102714360D01*
X126429000Y-102255640D01*
X126431716Y-102228062D01*
X126437971Y-102207443D01*
X126448124Y-102188447D01*
X126461792Y-102171792D01*
X126478447Y-102158124D01*
X126497443Y-102147971D01*
X126518062Y-102141716D01*
X126545640Y-102139000D01*
X127054360Y-102139000D01*
X127081938Y-102141716D01*
G37*
G36*
X122901000Y-102751000D02*
G01*
X119799000Y-102751000D01*
X119799000Y-99949000D01*
X122901000Y-99949000D01*
X122901000Y-102751000D01*
G37*
G36*
X138001000Y-102326000D02*
G01*
X136199000Y-102326000D01*
X136199000Y-101574000D01*
X138001000Y-101574000D01*
X138001000Y-102326000D01*
G37*
G36*
X111481938Y-101571716D02*
G01*
X111502557Y-101577971D01*
X111521553Y-101588124D01*
X111538208Y-101601792D01*
X111551876Y-101618447D01*
X111562029Y-101637443D01*
X111568284Y-101658062D01*
X111571000Y-101685640D01*
X111571000Y-102144360D01*
X111568284Y-102171938D01*
X111562029Y-102192557D01*
X111551876Y-102211553D01*
X111538208Y-102228208D01*
X111521553Y-102241876D01*
X111502557Y-102252029D01*
X111481938Y-102258284D01*
X111454360Y-102261000D01*
X110945640Y-102261000D01*
X110918062Y-102258284D01*
X110897443Y-102252029D01*
X110878447Y-102241876D01*
X110861792Y-102228208D01*
X110848124Y-102211553D01*
X110837971Y-102192557D01*
X110831716Y-102171938D01*
X110829000Y-102144360D01*
X110829000Y-101685640D01*
X110831716Y-101658062D01*
X110837971Y-101637443D01*
X110848124Y-101618447D01*
X110861792Y-101601792D01*
X110878447Y-101588124D01*
X110897443Y-101577971D01*
X110918062Y-101571716D01*
X110945640Y-101569000D01*
X111454360Y-101569000D01*
X111481938Y-101571716D01*
G37*
G36*
X110009468Y-100453565D02*
G01*
X110048138Y-100465296D01*
X110083777Y-100484346D01*
X110115017Y-100509983D01*
X110140654Y-100541223D01*
X110159704Y-100576862D01*
X110171435Y-100615532D01*
X110176000Y-100661888D01*
X110176000Y-101738112D01*
X110171435Y-101784468D01*
X110159704Y-101823138D01*
X110140654Y-101858777D01*
X110115017Y-101890017D01*
X110083777Y-101915654D01*
X110048138Y-101934704D01*
X110009468Y-101946435D01*
X109963112Y-101951000D01*
X109311888Y-101951000D01*
X109265532Y-101946435D01*
X109226862Y-101934704D01*
X109191223Y-101915654D01*
X109159983Y-101890017D01*
X109134346Y-101858777D01*
X109115296Y-101823138D01*
X109103565Y-101784468D01*
X109099000Y-101738112D01*
X109099000Y-100661888D01*
X109103565Y-100615532D01*
X109115296Y-100576862D01*
X109134346Y-100541223D01*
X109159983Y-100509983D01*
X109191223Y-100484346D01*
X109226862Y-100465296D01*
X109265532Y-100453565D01*
X109311888Y-100449000D01*
X109963112Y-100449000D01*
X110009468Y-100453565D01*
G37*
G36*
X108134468Y-100453565D02*
G01*
X108173138Y-100465296D01*
X108208777Y-100484346D01*
X108240017Y-100509983D01*
X108265654Y-100541223D01*
X108284704Y-100576862D01*
X108296435Y-100615532D01*
X108301000Y-100661888D01*
X108301000Y-101738112D01*
X108296435Y-101784468D01*
X108284704Y-101823138D01*
X108265654Y-101858777D01*
X108240017Y-101890017D01*
X108208777Y-101915654D01*
X108173138Y-101934704D01*
X108134468Y-101946435D01*
X108088112Y-101951000D01*
X107436888Y-101951000D01*
X107390532Y-101946435D01*
X107351862Y-101934704D01*
X107316223Y-101915654D01*
X107284983Y-101890017D01*
X107259346Y-101858777D01*
X107240296Y-101823138D01*
X107228565Y-101784468D01*
X107224000Y-101738112D01*
X107224000Y-100661888D01*
X107228565Y-100615532D01*
X107240296Y-100576862D01*
X107259346Y-100541223D01*
X107284983Y-100509983D01*
X107316223Y-100484346D01*
X107351862Y-100465296D01*
X107390532Y-100453565D01*
X107436888Y-100449000D01*
X108088112Y-100449000D01*
X108134468Y-100453565D01*
G37*
G36*
X105281938Y-101241716D02*
G01*
X105302557Y-101247971D01*
X105321553Y-101258124D01*
X105338208Y-101271792D01*
X105351876Y-101288447D01*
X105362029Y-101307443D01*
X105368284Y-101328062D01*
X105371000Y-101355640D01*
X105371000Y-101814360D01*
X105368284Y-101841938D01*
X105362029Y-101862557D01*
X105351876Y-101881553D01*
X105338208Y-101898208D01*
X105321553Y-101911876D01*
X105302557Y-101922029D01*
X105281938Y-101928284D01*
X105254360Y-101931000D01*
X104745640Y-101931000D01*
X104718062Y-101928284D01*
X104697443Y-101922029D01*
X104678447Y-101911876D01*
X104661792Y-101898208D01*
X104648124Y-101881553D01*
X104637971Y-101862557D01*
X104631716Y-101841938D01*
X104629000Y-101814360D01*
X104629000Y-101355640D01*
X104631716Y-101328062D01*
X104637971Y-101307443D01*
X104648124Y-101288447D01*
X104661792Y-101271792D01*
X104678447Y-101258124D01*
X104697443Y-101247971D01*
X104718062Y-101241716D01*
X104745640Y-101239000D01*
X105254360Y-101239000D01*
X105281938Y-101241716D01*
G37*
G36*
X106381938Y-101241716D02*
G01*
X106402557Y-101247971D01*
X106421553Y-101258124D01*
X106438208Y-101271792D01*
X106451876Y-101288447D01*
X106462029Y-101307443D01*
X106468284Y-101328062D01*
X106471000Y-101355640D01*
X106471000Y-101814360D01*
X106468284Y-101841938D01*
X106462029Y-101862557D01*
X106451876Y-101881553D01*
X106438208Y-101898208D01*
X106421553Y-101911876D01*
X106402557Y-101922029D01*
X106381938Y-101928284D01*
X106354360Y-101931000D01*
X105845640Y-101931000D01*
X105818062Y-101928284D01*
X105797443Y-101922029D01*
X105778447Y-101911876D01*
X105761792Y-101898208D01*
X105748124Y-101881553D01*
X105737971Y-101862557D01*
X105731716Y-101841938D01*
X105729000Y-101814360D01*
X105729000Y-101355640D01*
X105731716Y-101328062D01*
X105737971Y-101307443D01*
X105748124Y-101288447D01*
X105761792Y-101271792D01*
X105778447Y-101258124D01*
X105797443Y-101247971D01*
X105818062Y-101241716D01*
X105845640Y-101239000D01*
X106354360Y-101239000D01*
X106381938Y-101241716D01*
G37*
G36*
X102371938Y-101131716D02*
G01*
X102392557Y-101137971D01*
X102411553Y-101148124D01*
X102428208Y-101161792D01*
X102441876Y-101178447D01*
X102452029Y-101197443D01*
X102458284Y-101218062D01*
X102461000Y-101245640D01*
X102461000Y-101754360D01*
X102458284Y-101781938D01*
X102452029Y-101802557D01*
X102441876Y-101821553D01*
X102428208Y-101838208D01*
X102411553Y-101851876D01*
X102392557Y-101862029D01*
X102371938Y-101868284D01*
X102344360Y-101871000D01*
X101885640Y-101871000D01*
X101858062Y-101868284D01*
X101837443Y-101862029D01*
X101818447Y-101851876D01*
X101801792Y-101838208D01*
X101788124Y-101821553D01*
X101777971Y-101802557D01*
X101771716Y-101781938D01*
X101769000Y-101754360D01*
X101769000Y-101245640D01*
X101771716Y-101218062D01*
X101777971Y-101197443D01*
X101788124Y-101178447D01*
X101801792Y-101161792D01*
X101818447Y-101148124D01*
X101837443Y-101137971D01*
X101858062Y-101131716D01*
X101885640Y-101129000D01*
X102344360Y-101129000D01*
X102371938Y-101131716D01*
G37*
G36*
X103341938Y-101131716D02*
G01*
X103362557Y-101137971D01*
X103381553Y-101148124D01*
X103398208Y-101161792D01*
X103411876Y-101178447D01*
X103422029Y-101197443D01*
X103428284Y-101218062D01*
X103431000Y-101245640D01*
X103431000Y-101754360D01*
X103428284Y-101781938D01*
X103422029Y-101802557D01*
X103411876Y-101821553D01*
X103398208Y-101838208D01*
X103381553Y-101851876D01*
X103362557Y-101862029D01*
X103341938Y-101868284D01*
X103314360Y-101871000D01*
X102855640Y-101871000D01*
X102828062Y-101868284D01*
X102807443Y-101862029D01*
X102788447Y-101851876D01*
X102771792Y-101838208D01*
X102758124Y-101821553D01*
X102747971Y-101802557D01*
X102741716Y-101781938D01*
X102739000Y-101754360D01*
X102739000Y-101245640D01*
X102741716Y-101218062D01*
X102747971Y-101197443D01*
X102758124Y-101178447D01*
X102771792Y-101161792D01*
X102788447Y-101148124D01*
X102807443Y-101137971D01*
X102828062Y-101131716D01*
X102855640Y-101129000D01*
X103314360Y-101129000D01*
X103341938Y-101131716D01*
G37*
G36*
X125881938Y-101171716D02*
G01*
X125902557Y-101177971D01*
X125921553Y-101188124D01*
X125938208Y-101201792D01*
X125951876Y-101218447D01*
X125962029Y-101237443D01*
X125968284Y-101258062D01*
X125971000Y-101285640D01*
X125971000Y-101744360D01*
X125968284Y-101771938D01*
X125962029Y-101792557D01*
X125951876Y-101811553D01*
X125938208Y-101828208D01*
X125921553Y-101841876D01*
X125902557Y-101852029D01*
X125881938Y-101858284D01*
X125854360Y-101861000D01*
X125345640Y-101861000D01*
X125318062Y-101858284D01*
X125297443Y-101852029D01*
X125278447Y-101841876D01*
X125261792Y-101828208D01*
X125248124Y-101811553D01*
X125237971Y-101792557D01*
X125231716Y-101771938D01*
X125229000Y-101744360D01*
X125229000Y-101285640D01*
X125231716Y-101258062D01*
X125237971Y-101237443D01*
X125248124Y-101218447D01*
X125261792Y-101201792D01*
X125278447Y-101188124D01*
X125297443Y-101177971D01*
X125318062Y-101171716D01*
X125345640Y-101169000D01*
X125854360Y-101169000D01*
X125881938Y-101171716D01*
G37*
G36*
X127081938Y-101171716D02*
G01*
X127102557Y-101177971D01*
X127121553Y-101188124D01*
X127138208Y-101201792D01*
X127151876Y-101218447D01*
X127162029Y-101237443D01*
X127168284Y-101258062D01*
X127171000Y-101285640D01*
X127171000Y-101744360D01*
X127168284Y-101771938D01*
X127162029Y-101792557D01*
X127151876Y-101811553D01*
X127138208Y-101828208D01*
X127121553Y-101841876D01*
X127102557Y-101852029D01*
X127081938Y-101858284D01*
X127054360Y-101861000D01*
X126545640Y-101861000D01*
X126518062Y-101858284D01*
X126497443Y-101852029D01*
X126478447Y-101841876D01*
X126461792Y-101828208D01*
X126448124Y-101811553D01*
X126437971Y-101792557D01*
X126431716Y-101771938D01*
X126429000Y-101744360D01*
X126429000Y-101285640D01*
X126431716Y-101258062D01*
X126437971Y-101237443D01*
X126448124Y-101218447D01*
X126461792Y-101201792D01*
X126478447Y-101188124D01*
X126497443Y-101177971D01*
X126518062Y-101171716D01*
X126545640Y-101169000D01*
X127054360Y-101169000D01*
X127081938Y-101171716D01*
G37*
G36*
X145951000Y-101751000D02*
G01*
X145049000Y-101751000D01*
X145049000Y-100049000D01*
X145951000Y-100049000D01*
X145951000Y-101751000D01*
G37*
G36*
X100951000Y-101751000D02*
G01*
X100049000Y-101751000D01*
X100049000Y-100049000D01*
X100951000Y-100049000D01*
X100951000Y-101751000D01*
G37*
G36*
X116531000Y-101426000D02*
G01*
X115369000Y-101426000D01*
X115369000Y-100674000D01*
X116531000Y-100674000D01*
X116531000Y-101426000D01*
G37*
G36*
X106381938Y-100271716D02*
G01*
X106402557Y-100277971D01*
X106421553Y-100288124D01*
X106438208Y-100301792D01*
X106451876Y-100318447D01*
X106462029Y-100337443D01*
X106468284Y-100358062D01*
X106471000Y-100385640D01*
X106471000Y-100844360D01*
X106468284Y-100871938D01*
X106462029Y-100892557D01*
X106451876Y-100911553D01*
X106438208Y-100928208D01*
X106421553Y-100941876D01*
X106402557Y-100952029D01*
X106381938Y-100958284D01*
X106354360Y-100961000D01*
X105845640Y-100961000D01*
X105818062Y-100958284D01*
X105797443Y-100952029D01*
X105778447Y-100941876D01*
X105761792Y-100928208D01*
X105748124Y-100911553D01*
X105737971Y-100892557D01*
X105731716Y-100871938D01*
X105729000Y-100844360D01*
X105729000Y-100385640D01*
X105731716Y-100358062D01*
X105737971Y-100337443D01*
X105748124Y-100318447D01*
X105761792Y-100301792D01*
X105778447Y-100288124D01*
X105797443Y-100277971D01*
X105818062Y-100271716D01*
X105845640Y-100269000D01*
X106354360Y-100269000D01*
X106381938Y-100271716D01*
G37*
G36*
X105281938Y-100271716D02*
G01*
X105302557Y-100277971D01*
X105321553Y-100288124D01*
X105338208Y-100301792D01*
X105351876Y-100318447D01*
X105362029Y-100337443D01*
X105368284Y-100358062D01*
X105371000Y-100385640D01*
X105371000Y-100844360D01*
X105368284Y-100871938D01*
X105362029Y-100892557D01*
X105351876Y-100911553D01*
X105338208Y-100928208D01*
X105321553Y-100941876D01*
X105302557Y-100952029D01*
X105281938Y-100958284D01*
X105254360Y-100961000D01*
X104745640Y-100961000D01*
X104718062Y-100958284D01*
X104697443Y-100952029D01*
X104678447Y-100941876D01*
X104661792Y-100928208D01*
X104648124Y-100911553D01*
X104637971Y-100892557D01*
X104631716Y-100871938D01*
X104629000Y-100844360D01*
X104629000Y-100385640D01*
X104631716Y-100358062D01*
X104637971Y-100337443D01*
X104648124Y-100318447D01*
X104661792Y-100301792D01*
X104678447Y-100288124D01*
X104697443Y-100277971D01*
X104718062Y-100271716D01*
X104745640Y-100269000D01*
X105254360Y-100269000D01*
X105281938Y-100271716D01*
G37*
G36*
X136660170Y-100450803D02*
G01*
X136671877Y-100454355D01*
X136691077Y-100464617D01*
X136713716Y-100473994D01*
X136737749Y-100478774D01*
X136762253Y-100478774D01*
X136786286Y-100473993D01*
X136808923Y-100464617D01*
X136828123Y-100454355D01*
X136839830Y-100450803D01*
X136858138Y-100449000D01*
X137281862Y-100449000D01*
X137300170Y-100450803D01*
X137311875Y-100454354D01*
X137322665Y-100460121D01*
X137332119Y-100467881D01*
X137339879Y-100477335D01*
X137345646Y-100488125D01*
X137349197Y-100499830D01*
X137351000Y-100518138D01*
X137351000Y-100881862D01*
X137349197Y-100900170D01*
X137345646Y-100911875D01*
X137339879Y-100922665D01*
X137332119Y-100932119D01*
X137322665Y-100939879D01*
X137311875Y-100945646D01*
X137300170Y-100949197D01*
X137281862Y-100951000D01*
X136858138Y-100951000D01*
X136839830Y-100949197D01*
X136828123Y-100945645D01*
X136808923Y-100935383D01*
X136786284Y-100926006D01*
X136762251Y-100921226D01*
X136737747Y-100921226D01*
X136713714Y-100926007D01*
X136691077Y-100935383D01*
X136671877Y-100945645D01*
X136660170Y-100949197D01*
X136641862Y-100951000D01*
X136218138Y-100951000D01*
X136199830Y-100949197D01*
X136188125Y-100945646D01*
X136177335Y-100939879D01*
X136167881Y-100932119D01*
X136160121Y-100922665D01*
X136154354Y-100911875D01*
X136150803Y-100900170D01*
X136149000Y-100881862D01*
X136149000Y-100518138D01*
X136150803Y-100499830D01*
X136154354Y-100488125D01*
X136160121Y-100477335D01*
X136167881Y-100467881D01*
X136177335Y-100460121D01*
X136188125Y-100454354D01*
X136199830Y-100450803D01*
X136218138Y-100449000D01*
X136641862Y-100449000D01*
X136660170Y-100450803D01*
G37*
M02*
