G04 #@! TF.GenerationSoftware,KiCad,Pcbnew,(5.1.6)-1*
G04 #@! TF.CreationDate,2020-09-29T15:04:04+02:00*
G04 #@! TF.ProjectId,double-oh,646f7562-6c65-42d6-9f68-2e6b69636164,rev?*
G04 #@! TF.SameCoordinates,Original*
G04 #@! TF.FileFunction,Legend,Top*
G04 #@! TF.FilePolarity,Positive*
%FSLAX46Y46*%
G04 Gerber Fmt 4.6, Leading zero omitted, Abs format (unit mm)*
G04 Created by KiCad (PCBNEW (5.1.6)-1) date 2020-09-29 15:04:04*
%MOMM*%
%LPD*%
G01*
G04 APERTURE LIST*
%ADD10C,0.200000*%
%ADD11C,0.120000*%
%ADD12C,0.100000*%
G04 APERTURE END LIST*
D10*
X123250000Y-103700000D02*
G75*
G03*
X123250000Y-103700000I-100000J0D01*
G01*
X127600000Y-107600000D02*
G75*
G03*
X127600000Y-107600000I-100000J0D01*
G01*
D11*
X105456422Y-106706800D02*
X105973578Y-106706800D01*
X105456422Y-108126800D02*
X105973578Y-108126800D01*
X105456422Y-101810000D02*
X105973578Y-101810000D01*
X105456422Y-100390000D02*
X105973578Y-100390000D01*
X135940000Y-102200000D02*
X135940000Y-103600000D01*
X138260000Y-103600000D02*
X138260000Y-101700000D01*
X107315000Y-105800000D02*
X107715000Y-105800000D01*
X104115000Y-102700000D02*
X104115000Y-102800000D01*
X104915000Y-102700000D02*
X104115000Y-102700000D01*
X107315000Y-102700000D02*
X106515000Y-102700000D01*
X107315000Y-102800000D02*
X107315000Y-102700000D01*
X104115000Y-105900000D02*
X104115000Y-105800000D01*
X104915000Y-105900000D02*
X104115000Y-105900000D01*
X107315000Y-105900000D02*
X107315000Y-105800000D01*
X106515000Y-105900000D02*
X107315000Y-105900000D01*
D12*
X100080000Y-102413000D02*
G75*
G03*
X100080000Y-102413000I-50000J0D01*
G01*
D11*
X102331000Y-104301000D02*
X100921000Y-104301000D01*
X100921000Y-106621000D02*
X102951000Y-106621000D01*
X100921000Y-106621000D02*
X100921000Y-105961000D01*
X100921000Y-104961000D02*
X100921000Y-104301000D01*
X112971000Y-104490000D02*
X112971000Y-103080000D01*
X110651000Y-103080000D02*
X110651000Y-105110000D01*
X110651000Y-103080000D02*
X111311000Y-103080000D01*
X112311000Y-103080000D02*
X112971000Y-103080000D01*
D12*
X113205000Y-105842000D02*
G75*
G03*
X113205000Y-105842000I-50000J0D01*
G01*
D11*
X113950000Y-103610000D02*
X115750000Y-103610000D01*
X115750000Y-100390000D02*
X113300000Y-100390000D01*
X140110000Y-106387221D02*
X140110000Y-106712779D01*
X139090000Y-106387221D02*
X139090000Y-106712779D01*
X127890000Y-101065000D02*
X127890000Y-100590000D01*
X127890000Y-100590000D02*
X128365000Y-100590000D01*
X135110000Y-107335000D02*
X135110000Y-107810000D01*
X135110000Y-107810000D02*
X134635000Y-107810000D01*
X135110000Y-101065000D02*
X135110000Y-100590000D01*
X135110000Y-100590000D02*
X134635000Y-100590000D01*
X127890000Y-107335000D02*
X127890000Y-107810000D01*
X123460000Y-107635000D02*
X123460000Y-108110000D01*
X123460000Y-108110000D02*
X122985000Y-108110000D01*
X119240000Y-104365000D02*
X119240000Y-103890000D01*
X119240000Y-103890000D02*
X119715000Y-103890000D01*
X119240000Y-107635000D02*
X119240000Y-108110000D01*
X119240000Y-108110000D02*
X119715000Y-108110000D01*
X123460000Y-104365000D02*
X123460000Y-103890000D01*
D12*
X112699000Y-107700000D02*
G75*
G03*
X112699000Y-107700000I-50000J0D01*
G01*
M02*
