M48
; DRILL file {KiCad (5.1.6)-1} date 09/29/20 15:04:06
; FORMAT={-:-/ absolute / metric / decimal}
; #@! TF.CreationDate,2020-09-29T15:04:06+02:00
; #@! TF.GenerationSoftware,Kicad,Pcbnew,(5.1.6)-1
FMAT,2
METRIC
T1C0.400
%
G90
G05
T1
X101.482Y-104.609
X102.7Y-100.7
X102.9Y-107.7
X103.239Y-104.001
X105.3Y-103.576
X105.3Y-105.1
X105.715Y-104.345
X106.1Y-103.576
X106.1Y-105.1
X107.366Y-100.625
X108.763Y-103.937
X110.1Y-101.3
X110.6Y-105.9
X111.161Y-103.7
X111.43Y-108.196
X112.446Y-104.064
X112.646Y-101.548
X114.404Y-105.841
X116.002Y-102.032
X117.215Y-106.9
X117.3Y-105.1
X120.574Y-105.27
X120.574Y-106.731
X121.35Y-106.0
X122.098Y-105.27
X122.098Y-106.731
X125.0Y-106.25
X125.625Y-105.375
X126.625Y-107.75
X126.8Y-100.625
X127.875Y-107.75
X130.293Y-105.279
X130.3Y-103.1
X130.3Y-104.2
X131.5Y-103.1
X131.5Y-104.2
X131.5Y-105.279
X132.7Y-103.1
X132.7Y-104.2
X132.707Y-105.279
X135.75Y-107.302
X136.005Y-106.096
X136.45Y-102.95
X137.655Y-102.925
X138.45Y-105.5
X139.0Y-102.1
X145.1Y-100.9
X145.1Y-108.1
X100.9Y-108.1
X100.9Y-100.9
T0
M30
