G04 #@! TF.GenerationSoftware,KiCad,Pcbnew,(5.1.10)-1*
G04 #@! TF.CreationDate,2021-07-08T16:07:52-07:00*
G04 #@! TF.ProjectId,panelized,70616e65-6c69-47a6-9564-2e6b69636164,rev?*
G04 #@! TF.SameCoordinates,Original*
G04 #@! TF.FileFunction,Copper,L2,Bot*
G04 #@! TF.FilePolarity,Positive*
%FSLAX46Y46*%
G04 Gerber Fmt 4.6, Leading zero omitted, Abs format (unit mm)*
G04 Created by KiCad (PCBNEW (5.1.10)-1) date 2021-07-08 16:07:52*
%MOMM*%
%LPD*%
G01*
G04 APERTURE LIST*
G04 #@! TA.AperFunction,ComponentPad*
%ADD10R,1.600000X1.600000*%
G04 #@! TD*
G04 #@! TA.AperFunction,ViaPad*
%ADD11C,0.800000*%
G04 #@! TD*
G04 #@! TA.AperFunction,ViaPad*
%ADD12C,0.700000*%
G04 #@! TD*
G04 #@! TA.AperFunction,Conductor*
%ADD13C,0.400000*%
G04 #@! TD*
G04 #@! TA.AperFunction,Conductor*
%ADD14C,0.200000*%
G04 #@! TD*
G04 #@! TA.AperFunction,Conductor*
%ADD15C,0.250000*%
G04 #@! TD*
G04 #@! TA.AperFunction,Conductor*
%ADD16C,0.800000*%
G04 #@! TD*
G04 #@! TA.AperFunction,Conductor*
%ADD17C,0.254000*%
G04 #@! TD*
G04 #@! TA.AperFunction,Conductor*
%ADD18C,0.101600*%
G04 #@! TD*
G04 APERTURE END LIST*
D10*
X100900000Y-112900000D03*
X100900000Y-120100000D03*
X145100000Y-112900000D03*
X145100000Y-120100000D03*
X145100000Y-108100000D03*
X145100000Y-100900000D03*
X100900000Y-108100000D03*
X100900000Y-100900000D03*
D11*
X117600000Y-105300000D03*
X110600000Y-103200000D03*
X110600000Y-115200000D03*
X117600000Y-117300000D03*
X113500000Y-106200000D03*
X113500000Y-118200000D03*
D12*
X130100000Y-102450000D03*
X133100000Y-102450000D03*
D11*
X132100000Y-102450000D03*
X131100000Y-102450000D03*
X130600000Y-103250000D03*
D12*
X130100000Y-104050000D03*
D11*
X130600000Y-104850000D03*
X132600000Y-104850000D03*
D12*
X133100000Y-104050000D03*
D11*
X131600000Y-103250000D03*
X132600000Y-103250000D03*
X132100000Y-104050000D03*
X131100000Y-104050000D03*
X131600000Y-104850000D03*
D12*
X121350000Y-106000000D03*
D11*
X138450000Y-105500000D03*
X112500000Y-102200000D03*
X102700000Y-101500000D03*
X114900000Y-106400000D03*
X109800000Y-105600000D03*
X138800000Y-101900002D03*
X106400000Y-105100000D03*
X120850000Y-105200000D03*
D12*
X120400000Y-106000000D03*
D11*
X120850000Y-106800000D03*
X121850000Y-106800000D03*
D12*
X122300000Y-106000000D03*
D11*
X121850000Y-105200000D03*
D12*
X121350000Y-118000000D03*
D11*
X131600000Y-116850000D03*
X106400000Y-117100000D03*
X132600000Y-116850000D03*
D12*
X122300000Y-118000000D03*
D11*
X112500000Y-114200000D03*
X121850000Y-118800000D03*
X138450000Y-117500000D03*
X121850000Y-117200000D03*
X131600000Y-115250000D03*
X132600000Y-115250000D03*
D12*
X130100000Y-114450000D03*
D11*
X131100000Y-114450000D03*
X130600000Y-116850000D03*
D12*
X133100000Y-116050000D03*
D11*
X130600000Y-115250000D03*
X120850000Y-117200000D03*
X109800000Y-117600000D03*
X132100000Y-116050000D03*
D12*
X130100000Y-116050000D03*
D11*
X132100000Y-114450000D03*
D12*
X133100000Y-114450000D03*
D11*
X131100000Y-116050000D03*
X102700000Y-113500000D03*
X138800000Y-113900002D03*
X114900000Y-118400000D03*
D12*
X120400000Y-118000000D03*
D11*
X120850000Y-118800000D03*
X127969987Y-104019978D03*
X135425000Y-102650000D03*
X127600000Y-101250000D03*
X105800000Y-100700000D03*
X127600000Y-113250000D03*
X105800000Y-112700000D03*
X127969987Y-116019978D03*
X135425000Y-114650000D03*
X127725000Y-107000000D03*
X137655500Y-103350000D03*
X137655500Y-115350000D03*
X127725000Y-119000000D03*
X102775000Y-108100000D03*
X126075000Y-105550000D03*
X126075000Y-117550000D03*
X102775000Y-120100000D03*
X111430000Y-108196168D03*
X135550000Y-106075000D03*
X111430000Y-120196168D03*
X135550000Y-118075000D03*
X107304268Y-102187195D03*
X107400000Y-104500000D03*
X107304268Y-114187195D03*
X107400000Y-116500000D03*
X111600000Y-104000000D03*
X107900000Y-103100000D03*
X111600000Y-116000000D03*
X107900000Y-115100000D03*
X136025000Y-107075000D03*
X126075000Y-107650000D03*
X136025000Y-119075000D03*
X126075000Y-119650000D03*
D13*
X114400000Y-103200000D02*
X110600000Y-103200000D01*
X116500000Y-105300000D02*
X117600000Y-105300000D01*
X116500000Y-105300000D02*
X114400000Y-103200000D01*
X114400000Y-115200000D02*
X110600000Y-115200000D01*
X116500000Y-117300000D02*
X114400000Y-115200000D01*
X116500000Y-117300000D02*
X117600000Y-117300000D01*
X113100001Y-106599999D02*
X113500000Y-106200000D01*
X102400001Y-106599999D02*
X113100001Y-106599999D01*
X100900000Y-108100000D02*
X102400001Y-106599999D01*
X102400001Y-118599999D02*
X113100001Y-118599999D01*
X113100001Y-118599999D02*
X113500000Y-118200000D01*
X100900000Y-120100000D02*
X102400001Y-118599999D01*
D14*
X138800000Y-105150000D02*
X138450000Y-105500000D01*
X138800000Y-101900002D02*
X138800000Y-105150000D01*
D15*
X106900000Y-105600000D02*
X106400000Y-105100000D01*
X109800000Y-105600000D02*
X106900000Y-105600000D01*
D16*
X144850000Y-108100000D02*
X145500000Y-108100000D01*
X138800000Y-108100000D02*
X144850000Y-108100000D01*
D15*
X138450000Y-105500000D02*
X138450000Y-107750000D01*
X138450000Y-107750000D02*
X138800000Y-108100000D01*
X106900000Y-117600000D02*
X106400000Y-117100000D01*
D14*
X138800000Y-117150000D02*
X138450000Y-117500000D01*
X138800000Y-113900002D02*
X138800000Y-117150000D01*
D15*
X109800000Y-117600000D02*
X106900000Y-117600000D01*
X138450000Y-119750000D02*
X138800000Y-120100000D01*
D16*
X138800000Y-120100000D02*
X144850000Y-120100000D01*
X144850000Y-120100000D02*
X145500000Y-120100000D01*
D15*
X138450000Y-117500000D02*
X138450000Y-119750000D01*
D13*
X135425000Y-101450000D02*
X135425000Y-102650000D01*
X134725000Y-100750000D02*
X135425000Y-101450000D01*
X128100000Y-100750000D02*
X128250000Y-100750000D01*
X127600000Y-101250000D02*
X128100000Y-100750000D01*
X128250000Y-100750000D02*
X134725000Y-100750000D01*
X127350000Y-101250000D02*
X127600000Y-101250000D01*
X114800000Y-100700000D02*
X118100000Y-104000000D01*
X124600000Y-104000000D02*
X127350000Y-101250000D01*
X118100000Y-104000000D02*
X124600000Y-104000000D01*
X105800000Y-100700000D02*
X114800000Y-100700000D01*
X127969987Y-104019978D02*
X127969987Y-101619987D01*
X127969987Y-101619987D02*
X127600000Y-101250000D01*
X114800000Y-112700000D02*
X118100000Y-116000000D01*
X128250000Y-112750000D02*
X134725000Y-112750000D01*
X124600000Y-116000000D02*
X127350000Y-113250000D01*
X105800000Y-112700000D02*
X114800000Y-112700000D01*
X127969987Y-116019978D02*
X127969987Y-113619987D01*
X134725000Y-112750000D02*
X135425000Y-113450000D01*
X128100000Y-112750000D02*
X128250000Y-112750000D01*
X127600000Y-113250000D02*
X128100000Y-112750000D01*
X127350000Y-113250000D02*
X127600000Y-113250000D01*
X127969987Y-113619987D02*
X127600000Y-113250000D01*
X135425000Y-113450000D02*
X135425000Y-114650000D01*
X118100000Y-116000000D02*
X124600000Y-116000000D01*
D14*
X128325000Y-107400000D02*
X134350000Y-107400000D01*
X128125000Y-107400000D02*
X128325000Y-107400000D01*
X127725000Y-107000000D02*
X128125000Y-107400000D01*
X134750000Y-107000000D02*
X134750000Y-105825000D01*
X134350000Y-107400000D02*
X134750000Y-107000000D01*
X134750000Y-105825000D02*
X135225000Y-105350000D01*
X135225000Y-105350000D02*
X136450000Y-105350000D01*
X137655500Y-104144500D02*
X137655500Y-103350000D01*
X136450000Y-105350000D02*
X137655500Y-104144500D01*
X128125000Y-119400000D02*
X128325000Y-119400000D01*
X127725000Y-119000000D02*
X128125000Y-119400000D01*
X134350000Y-119400000D02*
X134750000Y-119000000D01*
X137655500Y-116144500D02*
X137655500Y-115350000D01*
X136450000Y-117350000D02*
X137655500Y-116144500D01*
X128325000Y-119400000D02*
X134350000Y-119400000D01*
X134750000Y-119000000D02*
X134750000Y-117825000D01*
X134750000Y-117825000D02*
X135225000Y-117350000D01*
X135225000Y-117350000D02*
X136450000Y-117350000D01*
D15*
X126075000Y-105550000D02*
X123800000Y-107825000D01*
X112425000Y-107825000D02*
X112071167Y-107471167D01*
X112071167Y-107471167D02*
X103403833Y-107471167D01*
X103403833Y-107471167D02*
X102775000Y-108100000D01*
X123800000Y-107825000D02*
X112425000Y-107825000D01*
X126075000Y-117550000D02*
X123800000Y-119825000D01*
X123800000Y-119825000D02*
X112425000Y-119825000D01*
X112071167Y-119471167D02*
X103403833Y-119471167D01*
X112425000Y-119825000D02*
X112071167Y-119471167D01*
X103403833Y-119471167D02*
X102775000Y-120100000D01*
X111430000Y-108196168D02*
X111583832Y-108350000D01*
X136325000Y-106075000D02*
X135550000Y-106075000D01*
X136950000Y-107300000D02*
X136950000Y-106700000D01*
X136950000Y-106700000D02*
X136325000Y-106075000D01*
X111583832Y-108350000D02*
X135900000Y-108350000D01*
X135900000Y-108350000D02*
X136950000Y-107300000D01*
X111430000Y-120196168D02*
X111583832Y-120350000D01*
X111583832Y-120350000D02*
X135900000Y-120350000D01*
X136325000Y-118075000D02*
X135550000Y-118075000D01*
X136950000Y-119300000D02*
X136950000Y-118700000D01*
X136950000Y-118700000D02*
X136325000Y-118075000D01*
X135900000Y-120350000D02*
X136950000Y-119300000D01*
X107400000Y-104500000D02*
X107400000Y-103800000D01*
X107400000Y-103800000D02*
X107100000Y-103500000D01*
X107100000Y-103500000D02*
X107100000Y-102391463D01*
X107100000Y-102391463D02*
X107304268Y-102187195D01*
X107100000Y-115500000D02*
X107100000Y-114391463D01*
X107400000Y-115800000D02*
X107100000Y-115500000D01*
X107400000Y-116500000D02*
X107400000Y-115800000D01*
X107100000Y-114391463D02*
X107304268Y-114187195D01*
D13*
X111600000Y-104000000D02*
X108800000Y-104000000D01*
X108800000Y-104000000D02*
X107900000Y-103100000D01*
X111600000Y-116000000D02*
X108800000Y-116000000D01*
X108800000Y-116000000D02*
X107900000Y-115100000D01*
D14*
X126050000Y-107675000D02*
X126075000Y-107650000D01*
X126275000Y-107850000D02*
X126075000Y-107650000D01*
X136025000Y-107075000D02*
X135250000Y-107850000D01*
X135250000Y-107850000D02*
X126275000Y-107850000D01*
X126050000Y-119675000D02*
X126075000Y-119650000D01*
X126275000Y-119850000D02*
X126075000Y-119650000D01*
X135250000Y-119850000D02*
X126275000Y-119850000D01*
X136025000Y-119075000D02*
X135250000Y-119850000D01*
D17*
X105052859Y-100473357D02*
X105023000Y-100623472D01*
X105023000Y-100776528D01*
X105052859Y-100926643D01*
X105111431Y-101068048D01*
X105196464Y-101195309D01*
X105304691Y-101303536D01*
X105431952Y-101388569D01*
X105573357Y-101447141D01*
X105723472Y-101477000D01*
X105876528Y-101477000D01*
X106026643Y-101447141D01*
X106168048Y-101388569D01*
X106295309Y-101303536D01*
X106321845Y-101277000D01*
X114560999Y-101277000D01*
X117671961Y-104387962D01*
X117690026Y-104409974D01*
X117777885Y-104482079D01*
X117878124Y-104535657D01*
X117922782Y-104549204D01*
X117986888Y-104568651D01*
X118044886Y-104574363D01*
X118071664Y-104577000D01*
X118071669Y-104577000D01*
X118100000Y-104579790D01*
X118128331Y-104577000D01*
X124571669Y-104577000D01*
X124600000Y-104579790D01*
X124628331Y-104577000D01*
X124628336Y-104577000D01*
X124658045Y-104574074D01*
X124713111Y-104568651D01*
X124765168Y-104552859D01*
X124821876Y-104535657D01*
X124922115Y-104482079D01*
X125009974Y-104409974D01*
X125028039Y-104387962D01*
X127392988Y-102023013D01*
X127392987Y-103498133D01*
X127366451Y-103524669D01*
X127281418Y-103651930D01*
X127222846Y-103793335D01*
X127192987Y-103943450D01*
X127192987Y-104096506D01*
X127222846Y-104246621D01*
X127281418Y-104388026D01*
X127366451Y-104515287D01*
X127474678Y-104623514D01*
X127601939Y-104708547D01*
X127743344Y-104767119D01*
X127893459Y-104796978D01*
X128046515Y-104796978D01*
X128196630Y-104767119D01*
X128338035Y-104708547D01*
X128465296Y-104623514D01*
X128573523Y-104515287D01*
X128658556Y-104388026D01*
X128717128Y-104246621D01*
X128746987Y-104096506D01*
X128746987Y-103943450D01*
X128717128Y-103793335D01*
X128658556Y-103651930D01*
X128573523Y-103524669D01*
X128546987Y-103498133D01*
X128546987Y-101648326D01*
X128549778Y-101619987D01*
X128538638Y-101506875D01*
X128512789Y-101421665D01*
X128505644Y-101398111D01*
X128467635Y-101327000D01*
X134485999Y-101327000D01*
X134848000Y-101689001D01*
X134848001Y-102128154D01*
X134821464Y-102154691D01*
X134736431Y-102281952D01*
X134677859Y-102423357D01*
X134648000Y-102573472D01*
X134648000Y-102726528D01*
X134677859Y-102876643D01*
X134736431Y-103018048D01*
X134821464Y-103145309D01*
X134929691Y-103253536D01*
X135056952Y-103338569D01*
X135198357Y-103397141D01*
X135348472Y-103427000D01*
X135501528Y-103427000D01*
X135651643Y-103397141D01*
X135793048Y-103338569D01*
X135920309Y-103253536D01*
X136028536Y-103145309D01*
X136113569Y-103018048D01*
X136172141Y-102876643D01*
X136202000Y-102726528D01*
X136202000Y-102573472D01*
X136172141Y-102423357D01*
X136113569Y-102281952D01*
X136028536Y-102154691D01*
X136002000Y-102128155D01*
X136002000Y-101478328D01*
X136004790Y-101449999D01*
X136002000Y-101421670D01*
X136002000Y-101421664D01*
X135993650Y-101336888D01*
X135960657Y-101228124D01*
X135907079Y-101127885D01*
X135834974Y-101040026D01*
X135812963Y-101021962D01*
X135193001Y-100402000D01*
X138862000Y-100402000D01*
X138862000Y-108598000D01*
X136361934Y-108598000D01*
X137287538Y-107672397D01*
X137306684Y-107656684D01*
X137326973Y-107631963D01*
X137369416Y-107580246D01*
X137373037Y-107573472D01*
X137416031Y-107493036D01*
X137444736Y-107398409D01*
X137452000Y-107324653D01*
X137452000Y-107324644D01*
X137454427Y-107300001D01*
X137452000Y-107275358D01*
X137452000Y-106724642D01*
X137454427Y-106699999D01*
X137452000Y-106675356D01*
X137452000Y-106675347D01*
X137444736Y-106601591D01*
X137416031Y-106506964D01*
X137369417Y-106419755D01*
X137306684Y-106343316D01*
X137287538Y-106327603D01*
X136711189Y-105751255D01*
X136716289Y-105748529D01*
X136788921Y-105688921D01*
X136803855Y-105670724D01*
X137976229Y-104498351D01*
X137994421Y-104483421D01*
X138054029Y-104410789D01*
X138098322Y-104327923D01*
X138125597Y-104238008D01*
X138132500Y-104167923D01*
X138132500Y-104167914D01*
X138134806Y-104144501D01*
X138132500Y-104121088D01*
X138132500Y-103965770D01*
X138150809Y-103953536D01*
X138259036Y-103845309D01*
X138344069Y-103718048D01*
X138402641Y-103576643D01*
X138432500Y-103426528D01*
X138432500Y-103273472D01*
X138402641Y-103123357D01*
X138344069Y-102981952D01*
X138259036Y-102854691D01*
X138150809Y-102746464D01*
X138023548Y-102661431D01*
X137882143Y-102602859D01*
X137732028Y-102573000D01*
X137578972Y-102573000D01*
X137428857Y-102602859D01*
X137287452Y-102661431D01*
X137160191Y-102746464D01*
X137051964Y-102854691D01*
X136966931Y-102981952D01*
X136908359Y-103123357D01*
X136878500Y-103273472D01*
X136878500Y-103426528D01*
X136908359Y-103576643D01*
X136966931Y-103718048D01*
X137051964Y-103845309D01*
X137160191Y-103953536D01*
X137167201Y-103958220D01*
X136252421Y-104873000D01*
X135248414Y-104873000D01*
X135224999Y-104870694D01*
X135201584Y-104873000D01*
X135201577Y-104873000D01*
X135140338Y-104879032D01*
X135131491Y-104879903D01*
X135104216Y-104888177D01*
X135041577Y-104907178D01*
X134958711Y-104951471D01*
X134940970Y-104966031D01*
X134905295Y-104995309D01*
X134886079Y-105011079D01*
X134871149Y-105029271D01*
X134429271Y-105471150D01*
X134411080Y-105486079D01*
X134351472Y-105558711D01*
X134340258Y-105579691D01*
X134307178Y-105641578D01*
X134279903Y-105731493D01*
X134270694Y-105825000D01*
X134273001Y-105848425D01*
X134273000Y-106802420D01*
X134152421Y-106923000D01*
X128501906Y-106923000D01*
X128472141Y-106773357D01*
X128413569Y-106631952D01*
X128328536Y-106504691D01*
X128220309Y-106396464D01*
X128093048Y-106311431D01*
X127951643Y-106252859D01*
X127801528Y-106223000D01*
X127648472Y-106223000D01*
X127498357Y-106252859D01*
X127356952Y-106311431D01*
X127229691Y-106396464D01*
X127121464Y-106504691D01*
X127036431Y-106631952D01*
X126977859Y-106773357D01*
X126948000Y-106923472D01*
X126948000Y-107076528D01*
X126977859Y-107226643D01*
X127036431Y-107368048D01*
X127039740Y-107373000D01*
X126801282Y-107373000D01*
X126763569Y-107281952D01*
X126678536Y-107154691D01*
X126570309Y-107046464D01*
X126443048Y-106961431D01*
X126301643Y-106902859D01*
X126151528Y-106873000D01*
X125998472Y-106873000D01*
X125848357Y-106902859D01*
X125706952Y-106961431D01*
X125579691Y-107046464D01*
X125471464Y-107154691D01*
X125386431Y-107281952D01*
X125327859Y-107423357D01*
X125298000Y-107573472D01*
X125298000Y-107726528D01*
X125322162Y-107848000D01*
X124486934Y-107848000D01*
X126007936Y-106327000D01*
X126151528Y-106327000D01*
X126301643Y-106297141D01*
X126443048Y-106238569D01*
X126570309Y-106153536D01*
X126678536Y-106045309D01*
X126763569Y-105918048D01*
X126822141Y-105776643D01*
X126852000Y-105626528D01*
X126852000Y-105473472D01*
X126822141Y-105323357D01*
X126763569Y-105181952D01*
X126678536Y-105054691D01*
X126570309Y-104946464D01*
X126443048Y-104861431D01*
X126301643Y-104802859D01*
X126151528Y-104773000D01*
X125998472Y-104773000D01*
X125848357Y-104802859D01*
X125706952Y-104861431D01*
X125579691Y-104946464D01*
X125471464Y-105054691D01*
X125386431Y-105181952D01*
X125327859Y-105323357D01*
X125298000Y-105473472D01*
X125298000Y-105617064D01*
X123592066Y-107323000D01*
X112632935Y-107323000D01*
X112486933Y-107176999D01*
X113071670Y-107176999D01*
X113100001Y-107179789D01*
X113128332Y-107176999D01*
X113128337Y-107176999D01*
X113158046Y-107174073D01*
X113213112Y-107168650D01*
X113259127Y-107154691D01*
X113321877Y-107135656D01*
X113422116Y-107082078D01*
X113509975Y-107009973D01*
X113528040Y-106987961D01*
X113539001Y-106977000D01*
X113576528Y-106977000D01*
X113726643Y-106947141D01*
X113868048Y-106888569D01*
X113995309Y-106803536D01*
X114103536Y-106695309D01*
X114188569Y-106568048D01*
X114247141Y-106426643D01*
X114277000Y-106276528D01*
X114277000Y-106123472D01*
X114247141Y-105973357D01*
X114188569Y-105831952D01*
X114103536Y-105704691D01*
X113995309Y-105596464D01*
X113868048Y-105511431D01*
X113726643Y-105452859D01*
X113576528Y-105423000D01*
X113423472Y-105423000D01*
X113273357Y-105452859D01*
X113131952Y-105511431D01*
X113004691Y-105596464D01*
X112896464Y-105704691D01*
X112811431Y-105831952D01*
X112752859Y-105973357D01*
X112742985Y-106022999D01*
X102428332Y-106022999D01*
X102400001Y-106020209D01*
X102371670Y-106022999D01*
X102371665Y-106022999D01*
X102344887Y-106025636D01*
X102286889Y-106031348D01*
X102234829Y-106047141D01*
X102178125Y-106064342D01*
X102077886Y-106117920D01*
X101990027Y-106190025D01*
X101971964Y-106212035D01*
X101810999Y-106373000D01*
X101286740Y-106373000D01*
X101325751Y-102427000D01*
X102300000Y-102427000D01*
X102324776Y-102424560D01*
X102348601Y-102417333D01*
X102370557Y-102405597D01*
X102389803Y-102389803D01*
X102405597Y-102370557D01*
X102417333Y-102348601D01*
X102424560Y-102324776D01*
X102427000Y-102300000D01*
X102427000Y-102110667D01*
X106527268Y-102110667D01*
X106527268Y-102263723D01*
X106557127Y-102413838D01*
X106598001Y-102512516D01*
X106598000Y-103475357D01*
X106595573Y-103500000D01*
X106598000Y-103524643D01*
X106598000Y-103524652D01*
X106605264Y-103598408D01*
X106633969Y-103693035D01*
X106680583Y-103780245D01*
X106743316Y-103856684D01*
X106762468Y-103872402D01*
X106845611Y-103955545D01*
X106796464Y-104004691D01*
X106711431Y-104131952D01*
X106652859Y-104273357D01*
X106623000Y-104423472D01*
X106623000Y-104576528D01*
X106652859Y-104726643D01*
X106711431Y-104868048D01*
X106796464Y-104995309D01*
X106904691Y-105103536D01*
X107031952Y-105188569D01*
X107173357Y-105247141D01*
X107323472Y-105277000D01*
X107476528Y-105277000D01*
X107626643Y-105247141D01*
X107768048Y-105188569D01*
X107895309Y-105103536D01*
X108003536Y-104995309D01*
X108088569Y-104868048D01*
X108147141Y-104726643D01*
X108177000Y-104576528D01*
X108177000Y-104423472D01*
X108147141Y-104273357D01*
X108088569Y-104131952D01*
X108033432Y-104049434D01*
X108371965Y-104387967D01*
X108390026Y-104409974D01*
X108412033Y-104428035D01*
X108412035Y-104428037D01*
X108431980Y-104444405D01*
X108477885Y-104482079D01*
X108578124Y-104535657D01*
X108686888Y-104568650D01*
X108771664Y-104577000D01*
X108771670Y-104577000D01*
X108799999Y-104579790D01*
X108828328Y-104577000D01*
X111078155Y-104577000D01*
X111104691Y-104603536D01*
X111231952Y-104688569D01*
X111373357Y-104747141D01*
X111523472Y-104777000D01*
X111676528Y-104777000D01*
X111826643Y-104747141D01*
X111968048Y-104688569D01*
X112095309Y-104603536D01*
X112203536Y-104495309D01*
X112288569Y-104368048D01*
X112347141Y-104226643D01*
X112377000Y-104076528D01*
X112377000Y-103923472D01*
X112347866Y-103777000D01*
X114160999Y-103777000D01*
X116071961Y-105687962D01*
X116090026Y-105709974D01*
X116177885Y-105782079D01*
X116278124Y-105835657D01*
X116386888Y-105868650D01*
X116471664Y-105877000D01*
X116471670Y-105877000D01*
X116499999Y-105879790D01*
X116528328Y-105877000D01*
X117078155Y-105877000D01*
X117104691Y-105903536D01*
X117231952Y-105988569D01*
X117373357Y-106047141D01*
X117523472Y-106077000D01*
X117676528Y-106077000D01*
X117826643Y-106047141D01*
X117968048Y-105988569D01*
X118095309Y-105903536D01*
X118203536Y-105795309D01*
X118288569Y-105668048D01*
X118347141Y-105526643D01*
X118377000Y-105376528D01*
X118377000Y-105223472D01*
X118347141Y-105073357D01*
X118288569Y-104931952D01*
X118203536Y-104804691D01*
X118095309Y-104696464D01*
X117968048Y-104611431D01*
X117826643Y-104552859D01*
X117676528Y-104523000D01*
X117523472Y-104523000D01*
X117373357Y-104552859D01*
X117231952Y-104611431D01*
X117104691Y-104696464D01*
X117078155Y-104723000D01*
X116739001Y-104723000D01*
X114828039Y-102812038D01*
X114809974Y-102790026D01*
X114722115Y-102717921D01*
X114621876Y-102664343D01*
X114557770Y-102644897D01*
X114513111Y-102631349D01*
X114458045Y-102625926D01*
X114428336Y-102623000D01*
X114428331Y-102623000D01*
X114400000Y-102620210D01*
X114371669Y-102623000D01*
X111121845Y-102623000D01*
X111095309Y-102596464D01*
X110968048Y-102511431D01*
X110826643Y-102452859D01*
X110676528Y-102423000D01*
X110523472Y-102423000D01*
X110373357Y-102452859D01*
X110231952Y-102511431D01*
X110104691Y-102596464D01*
X109996464Y-102704691D01*
X109911431Y-102831952D01*
X109852859Y-102973357D01*
X109823000Y-103123472D01*
X109823000Y-103276528D01*
X109852134Y-103423000D01*
X109039002Y-103423000D01*
X108677000Y-103060999D01*
X108677000Y-103023472D01*
X108647141Y-102873357D01*
X108588569Y-102731952D01*
X108503536Y-102604691D01*
X108395309Y-102496464D01*
X108268048Y-102411431D01*
X108126643Y-102352859D01*
X108065940Y-102340785D01*
X108081268Y-102263723D01*
X108081268Y-102110667D01*
X108051409Y-101960552D01*
X107992837Y-101819147D01*
X107907804Y-101691886D01*
X107799577Y-101583659D01*
X107672316Y-101498626D01*
X107530911Y-101440054D01*
X107380796Y-101410195D01*
X107227740Y-101410195D01*
X107077625Y-101440054D01*
X106936220Y-101498626D01*
X106808959Y-101583659D01*
X106700732Y-101691886D01*
X106615699Y-101819147D01*
X106557127Y-101960552D01*
X106527268Y-102110667D01*
X102427000Y-102110667D01*
X102427000Y-100402000D01*
X105082416Y-100402000D01*
X105052859Y-100473357D01*
G04 #@! TA.AperFunction,Conductor*
D18*
G36*
X105052859Y-100473357D02*
G01*
X105023000Y-100623472D01*
X105023000Y-100776528D01*
X105052859Y-100926643D01*
X105111431Y-101068048D01*
X105196464Y-101195309D01*
X105304691Y-101303536D01*
X105431952Y-101388569D01*
X105573357Y-101447141D01*
X105723472Y-101477000D01*
X105876528Y-101477000D01*
X106026643Y-101447141D01*
X106168048Y-101388569D01*
X106295309Y-101303536D01*
X106321845Y-101277000D01*
X114560999Y-101277000D01*
X117671961Y-104387962D01*
X117690026Y-104409974D01*
X117777885Y-104482079D01*
X117878124Y-104535657D01*
X117922782Y-104549204D01*
X117986888Y-104568651D01*
X118044886Y-104574363D01*
X118071664Y-104577000D01*
X118071669Y-104577000D01*
X118100000Y-104579790D01*
X118128331Y-104577000D01*
X124571669Y-104577000D01*
X124600000Y-104579790D01*
X124628331Y-104577000D01*
X124628336Y-104577000D01*
X124658045Y-104574074D01*
X124713111Y-104568651D01*
X124765168Y-104552859D01*
X124821876Y-104535657D01*
X124922115Y-104482079D01*
X125009974Y-104409974D01*
X125028039Y-104387962D01*
X127392988Y-102023013D01*
X127392987Y-103498133D01*
X127366451Y-103524669D01*
X127281418Y-103651930D01*
X127222846Y-103793335D01*
X127192987Y-103943450D01*
X127192987Y-104096506D01*
X127222846Y-104246621D01*
X127281418Y-104388026D01*
X127366451Y-104515287D01*
X127474678Y-104623514D01*
X127601939Y-104708547D01*
X127743344Y-104767119D01*
X127893459Y-104796978D01*
X128046515Y-104796978D01*
X128196630Y-104767119D01*
X128338035Y-104708547D01*
X128465296Y-104623514D01*
X128573523Y-104515287D01*
X128658556Y-104388026D01*
X128717128Y-104246621D01*
X128746987Y-104096506D01*
X128746987Y-103943450D01*
X128717128Y-103793335D01*
X128658556Y-103651930D01*
X128573523Y-103524669D01*
X128546987Y-103498133D01*
X128546987Y-101648326D01*
X128549778Y-101619987D01*
X128538638Y-101506875D01*
X128512789Y-101421665D01*
X128505644Y-101398111D01*
X128467635Y-101327000D01*
X134485999Y-101327000D01*
X134848000Y-101689001D01*
X134848001Y-102128154D01*
X134821464Y-102154691D01*
X134736431Y-102281952D01*
X134677859Y-102423357D01*
X134648000Y-102573472D01*
X134648000Y-102726528D01*
X134677859Y-102876643D01*
X134736431Y-103018048D01*
X134821464Y-103145309D01*
X134929691Y-103253536D01*
X135056952Y-103338569D01*
X135198357Y-103397141D01*
X135348472Y-103427000D01*
X135501528Y-103427000D01*
X135651643Y-103397141D01*
X135793048Y-103338569D01*
X135920309Y-103253536D01*
X136028536Y-103145309D01*
X136113569Y-103018048D01*
X136172141Y-102876643D01*
X136202000Y-102726528D01*
X136202000Y-102573472D01*
X136172141Y-102423357D01*
X136113569Y-102281952D01*
X136028536Y-102154691D01*
X136002000Y-102128155D01*
X136002000Y-101478328D01*
X136004790Y-101449999D01*
X136002000Y-101421670D01*
X136002000Y-101421664D01*
X135993650Y-101336888D01*
X135960657Y-101228124D01*
X135907079Y-101127885D01*
X135834974Y-101040026D01*
X135812963Y-101021962D01*
X135193001Y-100402000D01*
X138862000Y-100402000D01*
X138862000Y-108598000D01*
X136361934Y-108598000D01*
X137287538Y-107672397D01*
X137306684Y-107656684D01*
X137326973Y-107631963D01*
X137369416Y-107580246D01*
X137373037Y-107573472D01*
X137416031Y-107493036D01*
X137444736Y-107398409D01*
X137452000Y-107324653D01*
X137452000Y-107324644D01*
X137454427Y-107300001D01*
X137452000Y-107275358D01*
X137452000Y-106724642D01*
X137454427Y-106699999D01*
X137452000Y-106675356D01*
X137452000Y-106675347D01*
X137444736Y-106601591D01*
X137416031Y-106506964D01*
X137369417Y-106419755D01*
X137306684Y-106343316D01*
X137287538Y-106327603D01*
X136711189Y-105751255D01*
X136716289Y-105748529D01*
X136788921Y-105688921D01*
X136803855Y-105670724D01*
X137976229Y-104498351D01*
X137994421Y-104483421D01*
X138054029Y-104410789D01*
X138098322Y-104327923D01*
X138125597Y-104238008D01*
X138132500Y-104167923D01*
X138132500Y-104167914D01*
X138134806Y-104144501D01*
X138132500Y-104121088D01*
X138132500Y-103965770D01*
X138150809Y-103953536D01*
X138259036Y-103845309D01*
X138344069Y-103718048D01*
X138402641Y-103576643D01*
X138432500Y-103426528D01*
X138432500Y-103273472D01*
X138402641Y-103123357D01*
X138344069Y-102981952D01*
X138259036Y-102854691D01*
X138150809Y-102746464D01*
X138023548Y-102661431D01*
X137882143Y-102602859D01*
X137732028Y-102573000D01*
X137578972Y-102573000D01*
X137428857Y-102602859D01*
X137287452Y-102661431D01*
X137160191Y-102746464D01*
X137051964Y-102854691D01*
X136966931Y-102981952D01*
X136908359Y-103123357D01*
X136878500Y-103273472D01*
X136878500Y-103426528D01*
X136908359Y-103576643D01*
X136966931Y-103718048D01*
X137051964Y-103845309D01*
X137160191Y-103953536D01*
X137167201Y-103958220D01*
X136252421Y-104873000D01*
X135248414Y-104873000D01*
X135224999Y-104870694D01*
X135201584Y-104873000D01*
X135201577Y-104873000D01*
X135140338Y-104879032D01*
X135131491Y-104879903D01*
X135104216Y-104888177D01*
X135041577Y-104907178D01*
X134958711Y-104951471D01*
X134940970Y-104966031D01*
X134905295Y-104995309D01*
X134886079Y-105011079D01*
X134871149Y-105029271D01*
X134429271Y-105471150D01*
X134411080Y-105486079D01*
X134351472Y-105558711D01*
X134340258Y-105579691D01*
X134307178Y-105641578D01*
X134279903Y-105731493D01*
X134270694Y-105825000D01*
X134273001Y-105848425D01*
X134273000Y-106802420D01*
X134152421Y-106923000D01*
X128501906Y-106923000D01*
X128472141Y-106773357D01*
X128413569Y-106631952D01*
X128328536Y-106504691D01*
X128220309Y-106396464D01*
X128093048Y-106311431D01*
X127951643Y-106252859D01*
X127801528Y-106223000D01*
X127648472Y-106223000D01*
X127498357Y-106252859D01*
X127356952Y-106311431D01*
X127229691Y-106396464D01*
X127121464Y-106504691D01*
X127036431Y-106631952D01*
X126977859Y-106773357D01*
X126948000Y-106923472D01*
X126948000Y-107076528D01*
X126977859Y-107226643D01*
X127036431Y-107368048D01*
X127039740Y-107373000D01*
X126801282Y-107373000D01*
X126763569Y-107281952D01*
X126678536Y-107154691D01*
X126570309Y-107046464D01*
X126443048Y-106961431D01*
X126301643Y-106902859D01*
X126151528Y-106873000D01*
X125998472Y-106873000D01*
X125848357Y-106902859D01*
X125706952Y-106961431D01*
X125579691Y-107046464D01*
X125471464Y-107154691D01*
X125386431Y-107281952D01*
X125327859Y-107423357D01*
X125298000Y-107573472D01*
X125298000Y-107726528D01*
X125322162Y-107848000D01*
X124486934Y-107848000D01*
X126007936Y-106327000D01*
X126151528Y-106327000D01*
X126301643Y-106297141D01*
X126443048Y-106238569D01*
X126570309Y-106153536D01*
X126678536Y-106045309D01*
X126763569Y-105918048D01*
X126822141Y-105776643D01*
X126852000Y-105626528D01*
X126852000Y-105473472D01*
X126822141Y-105323357D01*
X126763569Y-105181952D01*
X126678536Y-105054691D01*
X126570309Y-104946464D01*
X126443048Y-104861431D01*
X126301643Y-104802859D01*
X126151528Y-104773000D01*
X125998472Y-104773000D01*
X125848357Y-104802859D01*
X125706952Y-104861431D01*
X125579691Y-104946464D01*
X125471464Y-105054691D01*
X125386431Y-105181952D01*
X125327859Y-105323357D01*
X125298000Y-105473472D01*
X125298000Y-105617064D01*
X123592066Y-107323000D01*
X112632935Y-107323000D01*
X112486933Y-107176999D01*
X113071670Y-107176999D01*
X113100001Y-107179789D01*
X113128332Y-107176999D01*
X113128337Y-107176999D01*
X113158046Y-107174073D01*
X113213112Y-107168650D01*
X113259127Y-107154691D01*
X113321877Y-107135656D01*
X113422116Y-107082078D01*
X113509975Y-107009973D01*
X113528040Y-106987961D01*
X113539001Y-106977000D01*
X113576528Y-106977000D01*
X113726643Y-106947141D01*
X113868048Y-106888569D01*
X113995309Y-106803536D01*
X114103536Y-106695309D01*
X114188569Y-106568048D01*
X114247141Y-106426643D01*
X114277000Y-106276528D01*
X114277000Y-106123472D01*
X114247141Y-105973357D01*
X114188569Y-105831952D01*
X114103536Y-105704691D01*
X113995309Y-105596464D01*
X113868048Y-105511431D01*
X113726643Y-105452859D01*
X113576528Y-105423000D01*
X113423472Y-105423000D01*
X113273357Y-105452859D01*
X113131952Y-105511431D01*
X113004691Y-105596464D01*
X112896464Y-105704691D01*
X112811431Y-105831952D01*
X112752859Y-105973357D01*
X112742985Y-106022999D01*
X102428332Y-106022999D01*
X102400001Y-106020209D01*
X102371670Y-106022999D01*
X102371665Y-106022999D01*
X102344887Y-106025636D01*
X102286889Y-106031348D01*
X102234829Y-106047141D01*
X102178125Y-106064342D01*
X102077886Y-106117920D01*
X101990027Y-106190025D01*
X101971964Y-106212035D01*
X101810999Y-106373000D01*
X101286740Y-106373000D01*
X101325751Y-102427000D01*
X102300000Y-102427000D01*
X102324776Y-102424560D01*
X102348601Y-102417333D01*
X102370557Y-102405597D01*
X102389803Y-102389803D01*
X102405597Y-102370557D01*
X102417333Y-102348601D01*
X102424560Y-102324776D01*
X102427000Y-102300000D01*
X102427000Y-102110667D01*
X106527268Y-102110667D01*
X106527268Y-102263723D01*
X106557127Y-102413838D01*
X106598001Y-102512516D01*
X106598000Y-103475357D01*
X106595573Y-103500000D01*
X106598000Y-103524643D01*
X106598000Y-103524652D01*
X106605264Y-103598408D01*
X106633969Y-103693035D01*
X106680583Y-103780245D01*
X106743316Y-103856684D01*
X106762468Y-103872402D01*
X106845611Y-103955545D01*
X106796464Y-104004691D01*
X106711431Y-104131952D01*
X106652859Y-104273357D01*
X106623000Y-104423472D01*
X106623000Y-104576528D01*
X106652859Y-104726643D01*
X106711431Y-104868048D01*
X106796464Y-104995309D01*
X106904691Y-105103536D01*
X107031952Y-105188569D01*
X107173357Y-105247141D01*
X107323472Y-105277000D01*
X107476528Y-105277000D01*
X107626643Y-105247141D01*
X107768048Y-105188569D01*
X107895309Y-105103536D01*
X108003536Y-104995309D01*
X108088569Y-104868048D01*
X108147141Y-104726643D01*
X108177000Y-104576528D01*
X108177000Y-104423472D01*
X108147141Y-104273357D01*
X108088569Y-104131952D01*
X108033432Y-104049434D01*
X108371965Y-104387967D01*
X108390026Y-104409974D01*
X108412033Y-104428035D01*
X108412035Y-104428037D01*
X108431980Y-104444405D01*
X108477885Y-104482079D01*
X108578124Y-104535657D01*
X108686888Y-104568650D01*
X108771664Y-104577000D01*
X108771670Y-104577000D01*
X108799999Y-104579790D01*
X108828328Y-104577000D01*
X111078155Y-104577000D01*
X111104691Y-104603536D01*
X111231952Y-104688569D01*
X111373357Y-104747141D01*
X111523472Y-104777000D01*
X111676528Y-104777000D01*
X111826643Y-104747141D01*
X111968048Y-104688569D01*
X112095309Y-104603536D01*
X112203536Y-104495309D01*
X112288569Y-104368048D01*
X112347141Y-104226643D01*
X112377000Y-104076528D01*
X112377000Y-103923472D01*
X112347866Y-103777000D01*
X114160999Y-103777000D01*
X116071961Y-105687962D01*
X116090026Y-105709974D01*
X116177885Y-105782079D01*
X116278124Y-105835657D01*
X116386888Y-105868650D01*
X116471664Y-105877000D01*
X116471670Y-105877000D01*
X116499999Y-105879790D01*
X116528328Y-105877000D01*
X117078155Y-105877000D01*
X117104691Y-105903536D01*
X117231952Y-105988569D01*
X117373357Y-106047141D01*
X117523472Y-106077000D01*
X117676528Y-106077000D01*
X117826643Y-106047141D01*
X117968048Y-105988569D01*
X118095309Y-105903536D01*
X118203536Y-105795309D01*
X118288569Y-105668048D01*
X118347141Y-105526643D01*
X118377000Y-105376528D01*
X118377000Y-105223472D01*
X118347141Y-105073357D01*
X118288569Y-104931952D01*
X118203536Y-104804691D01*
X118095309Y-104696464D01*
X117968048Y-104611431D01*
X117826643Y-104552859D01*
X117676528Y-104523000D01*
X117523472Y-104523000D01*
X117373357Y-104552859D01*
X117231952Y-104611431D01*
X117104691Y-104696464D01*
X117078155Y-104723000D01*
X116739001Y-104723000D01*
X114828039Y-102812038D01*
X114809974Y-102790026D01*
X114722115Y-102717921D01*
X114621876Y-102664343D01*
X114557770Y-102644897D01*
X114513111Y-102631349D01*
X114458045Y-102625926D01*
X114428336Y-102623000D01*
X114428331Y-102623000D01*
X114400000Y-102620210D01*
X114371669Y-102623000D01*
X111121845Y-102623000D01*
X111095309Y-102596464D01*
X110968048Y-102511431D01*
X110826643Y-102452859D01*
X110676528Y-102423000D01*
X110523472Y-102423000D01*
X110373357Y-102452859D01*
X110231952Y-102511431D01*
X110104691Y-102596464D01*
X109996464Y-102704691D01*
X109911431Y-102831952D01*
X109852859Y-102973357D01*
X109823000Y-103123472D01*
X109823000Y-103276528D01*
X109852134Y-103423000D01*
X109039002Y-103423000D01*
X108677000Y-103060999D01*
X108677000Y-103023472D01*
X108647141Y-102873357D01*
X108588569Y-102731952D01*
X108503536Y-102604691D01*
X108395309Y-102496464D01*
X108268048Y-102411431D01*
X108126643Y-102352859D01*
X108065940Y-102340785D01*
X108081268Y-102263723D01*
X108081268Y-102110667D01*
X108051409Y-101960552D01*
X107992837Y-101819147D01*
X107907804Y-101691886D01*
X107799577Y-101583659D01*
X107672316Y-101498626D01*
X107530911Y-101440054D01*
X107380796Y-101410195D01*
X107227740Y-101410195D01*
X107077625Y-101440054D01*
X106936220Y-101498626D01*
X106808959Y-101583659D01*
X106700732Y-101691886D01*
X106615699Y-101819147D01*
X106557127Y-101960552D01*
X106527268Y-102110667D01*
X102427000Y-102110667D01*
X102427000Y-100402000D01*
X105082416Y-100402000D01*
X105052859Y-100473357D01*
G37*
G04 #@! TD.AperFunction*
D17*
X105052859Y-112473357D02*
X105023000Y-112623472D01*
X105023000Y-112776528D01*
X105052859Y-112926643D01*
X105111431Y-113068048D01*
X105196464Y-113195309D01*
X105304691Y-113303536D01*
X105431952Y-113388569D01*
X105573357Y-113447141D01*
X105723472Y-113477000D01*
X105876528Y-113477000D01*
X106026643Y-113447141D01*
X106168048Y-113388569D01*
X106295309Y-113303536D01*
X106321845Y-113277000D01*
X114560999Y-113277000D01*
X117671961Y-116387962D01*
X117690026Y-116409974D01*
X117777885Y-116482079D01*
X117878124Y-116535657D01*
X117922782Y-116549204D01*
X117986888Y-116568651D01*
X118044886Y-116574363D01*
X118071664Y-116577000D01*
X118071669Y-116577000D01*
X118100000Y-116579790D01*
X118128331Y-116577000D01*
X124571669Y-116577000D01*
X124600000Y-116579790D01*
X124628331Y-116577000D01*
X124628336Y-116577000D01*
X124658045Y-116574074D01*
X124713111Y-116568651D01*
X124765168Y-116552859D01*
X124821876Y-116535657D01*
X124922115Y-116482079D01*
X125009974Y-116409974D01*
X125028039Y-116387962D01*
X127392988Y-114023013D01*
X127392987Y-115498133D01*
X127366451Y-115524669D01*
X127281418Y-115651930D01*
X127222846Y-115793335D01*
X127192987Y-115943450D01*
X127192987Y-116096506D01*
X127222846Y-116246621D01*
X127281418Y-116388026D01*
X127366451Y-116515287D01*
X127474678Y-116623514D01*
X127601939Y-116708547D01*
X127743344Y-116767119D01*
X127893459Y-116796978D01*
X128046515Y-116796978D01*
X128196630Y-116767119D01*
X128338035Y-116708547D01*
X128465296Y-116623514D01*
X128573523Y-116515287D01*
X128658556Y-116388026D01*
X128717128Y-116246621D01*
X128746987Y-116096506D01*
X128746987Y-115943450D01*
X128717128Y-115793335D01*
X128658556Y-115651930D01*
X128573523Y-115524669D01*
X128546987Y-115498133D01*
X128546987Y-113648326D01*
X128549778Y-113619987D01*
X128538638Y-113506875D01*
X128512789Y-113421665D01*
X128505644Y-113398111D01*
X128467635Y-113327000D01*
X134485999Y-113327000D01*
X134848000Y-113689001D01*
X134848001Y-114128154D01*
X134821464Y-114154691D01*
X134736431Y-114281952D01*
X134677859Y-114423357D01*
X134648000Y-114573472D01*
X134648000Y-114726528D01*
X134677859Y-114876643D01*
X134736431Y-115018048D01*
X134821464Y-115145309D01*
X134929691Y-115253536D01*
X135056952Y-115338569D01*
X135198357Y-115397141D01*
X135348472Y-115427000D01*
X135501528Y-115427000D01*
X135651643Y-115397141D01*
X135793048Y-115338569D01*
X135920309Y-115253536D01*
X136028536Y-115145309D01*
X136113569Y-115018048D01*
X136172141Y-114876643D01*
X136202000Y-114726528D01*
X136202000Y-114573472D01*
X136172141Y-114423357D01*
X136113569Y-114281952D01*
X136028536Y-114154691D01*
X136002000Y-114128155D01*
X136002000Y-113478328D01*
X136004790Y-113449999D01*
X136002000Y-113421670D01*
X136002000Y-113421664D01*
X135993650Y-113336888D01*
X135960657Y-113228124D01*
X135907079Y-113127885D01*
X135834974Y-113040026D01*
X135812963Y-113021962D01*
X135193001Y-112402000D01*
X138862000Y-112402000D01*
X138862000Y-120598000D01*
X136361934Y-120598000D01*
X137287538Y-119672397D01*
X137306684Y-119656684D01*
X137326973Y-119631963D01*
X137369416Y-119580246D01*
X137373037Y-119573472D01*
X137416031Y-119493036D01*
X137444736Y-119398409D01*
X137452000Y-119324653D01*
X137452000Y-119324644D01*
X137454427Y-119300001D01*
X137452000Y-119275358D01*
X137452000Y-118724642D01*
X137454427Y-118699999D01*
X137452000Y-118675356D01*
X137452000Y-118675347D01*
X137444736Y-118601591D01*
X137416031Y-118506964D01*
X137369417Y-118419755D01*
X137306684Y-118343316D01*
X137287538Y-118327603D01*
X136711189Y-117751255D01*
X136716289Y-117748529D01*
X136788921Y-117688921D01*
X136803855Y-117670724D01*
X137976229Y-116498351D01*
X137994421Y-116483421D01*
X138054029Y-116410789D01*
X138098322Y-116327923D01*
X138125597Y-116238008D01*
X138132500Y-116167923D01*
X138132500Y-116167914D01*
X138134806Y-116144501D01*
X138132500Y-116121088D01*
X138132500Y-115965770D01*
X138150809Y-115953536D01*
X138259036Y-115845309D01*
X138344069Y-115718048D01*
X138402641Y-115576643D01*
X138432500Y-115426528D01*
X138432500Y-115273472D01*
X138402641Y-115123357D01*
X138344069Y-114981952D01*
X138259036Y-114854691D01*
X138150809Y-114746464D01*
X138023548Y-114661431D01*
X137882143Y-114602859D01*
X137732028Y-114573000D01*
X137578972Y-114573000D01*
X137428857Y-114602859D01*
X137287452Y-114661431D01*
X137160191Y-114746464D01*
X137051964Y-114854691D01*
X136966931Y-114981952D01*
X136908359Y-115123357D01*
X136878500Y-115273472D01*
X136878500Y-115426528D01*
X136908359Y-115576643D01*
X136966931Y-115718048D01*
X137051964Y-115845309D01*
X137160191Y-115953536D01*
X137167201Y-115958220D01*
X136252421Y-116873000D01*
X135248414Y-116873000D01*
X135224999Y-116870694D01*
X135201584Y-116873000D01*
X135201577Y-116873000D01*
X135140338Y-116879032D01*
X135131491Y-116879903D01*
X135104216Y-116888177D01*
X135041577Y-116907178D01*
X134958711Y-116951471D01*
X134940970Y-116966031D01*
X134905295Y-116995309D01*
X134886079Y-117011079D01*
X134871149Y-117029271D01*
X134429271Y-117471150D01*
X134411080Y-117486079D01*
X134351472Y-117558711D01*
X134340258Y-117579691D01*
X134307178Y-117641578D01*
X134279903Y-117731493D01*
X134270694Y-117825000D01*
X134273001Y-117848425D01*
X134273000Y-118802420D01*
X134152421Y-118923000D01*
X128501906Y-118923000D01*
X128472141Y-118773357D01*
X128413569Y-118631952D01*
X128328536Y-118504691D01*
X128220309Y-118396464D01*
X128093048Y-118311431D01*
X127951643Y-118252859D01*
X127801528Y-118223000D01*
X127648472Y-118223000D01*
X127498357Y-118252859D01*
X127356952Y-118311431D01*
X127229691Y-118396464D01*
X127121464Y-118504691D01*
X127036431Y-118631952D01*
X126977859Y-118773357D01*
X126948000Y-118923472D01*
X126948000Y-119076528D01*
X126977859Y-119226643D01*
X127036431Y-119368048D01*
X127039740Y-119373000D01*
X126801282Y-119373000D01*
X126763569Y-119281952D01*
X126678536Y-119154691D01*
X126570309Y-119046464D01*
X126443048Y-118961431D01*
X126301643Y-118902859D01*
X126151528Y-118873000D01*
X125998472Y-118873000D01*
X125848357Y-118902859D01*
X125706952Y-118961431D01*
X125579691Y-119046464D01*
X125471464Y-119154691D01*
X125386431Y-119281952D01*
X125327859Y-119423357D01*
X125298000Y-119573472D01*
X125298000Y-119726528D01*
X125322162Y-119848000D01*
X124486934Y-119848000D01*
X126007936Y-118327000D01*
X126151528Y-118327000D01*
X126301643Y-118297141D01*
X126443048Y-118238569D01*
X126570309Y-118153536D01*
X126678536Y-118045309D01*
X126763569Y-117918048D01*
X126822141Y-117776643D01*
X126852000Y-117626528D01*
X126852000Y-117473472D01*
X126822141Y-117323357D01*
X126763569Y-117181952D01*
X126678536Y-117054691D01*
X126570309Y-116946464D01*
X126443048Y-116861431D01*
X126301643Y-116802859D01*
X126151528Y-116773000D01*
X125998472Y-116773000D01*
X125848357Y-116802859D01*
X125706952Y-116861431D01*
X125579691Y-116946464D01*
X125471464Y-117054691D01*
X125386431Y-117181952D01*
X125327859Y-117323357D01*
X125298000Y-117473472D01*
X125298000Y-117617064D01*
X123592066Y-119323000D01*
X112632935Y-119323000D01*
X112486933Y-119176999D01*
X113071670Y-119176999D01*
X113100001Y-119179789D01*
X113128332Y-119176999D01*
X113128337Y-119176999D01*
X113158046Y-119174073D01*
X113213112Y-119168650D01*
X113259127Y-119154691D01*
X113321877Y-119135656D01*
X113422116Y-119082078D01*
X113509975Y-119009973D01*
X113528040Y-118987961D01*
X113539001Y-118977000D01*
X113576528Y-118977000D01*
X113726643Y-118947141D01*
X113868048Y-118888569D01*
X113995309Y-118803536D01*
X114103536Y-118695309D01*
X114188569Y-118568048D01*
X114247141Y-118426643D01*
X114277000Y-118276528D01*
X114277000Y-118123472D01*
X114247141Y-117973357D01*
X114188569Y-117831952D01*
X114103536Y-117704691D01*
X113995309Y-117596464D01*
X113868048Y-117511431D01*
X113726643Y-117452859D01*
X113576528Y-117423000D01*
X113423472Y-117423000D01*
X113273357Y-117452859D01*
X113131952Y-117511431D01*
X113004691Y-117596464D01*
X112896464Y-117704691D01*
X112811431Y-117831952D01*
X112752859Y-117973357D01*
X112742985Y-118022999D01*
X102428332Y-118022999D01*
X102400001Y-118020209D01*
X102371670Y-118022999D01*
X102371665Y-118022999D01*
X102344887Y-118025636D01*
X102286889Y-118031348D01*
X102234829Y-118047141D01*
X102178125Y-118064342D01*
X102077886Y-118117920D01*
X101990027Y-118190025D01*
X101971964Y-118212035D01*
X101810999Y-118373000D01*
X101286740Y-118373000D01*
X101325751Y-114427000D01*
X102300000Y-114427000D01*
X102324776Y-114424560D01*
X102348601Y-114417333D01*
X102370557Y-114405597D01*
X102389803Y-114389803D01*
X102405597Y-114370557D01*
X102417333Y-114348601D01*
X102424560Y-114324776D01*
X102427000Y-114300000D01*
X102427000Y-114110667D01*
X106527268Y-114110667D01*
X106527268Y-114263723D01*
X106557127Y-114413838D01*
X106598001Y-114512516D01*
X106598000Y-115475357D01*
X106595573Y-115500000D01*
X106598000Y-115524643D01*
X106598000Y-115524652D01*
X106605264Y-115598408D01*
X106633969Y-115693035D01*
X106680583Y-115780245D01*
X106743316Y-115856684D01*
X106762468Y-115872402D01*
X106845611Y-115955545D01*
X106796464Y-116004691D01*
X106711431Y-116131952D01*
X106652859Y-116273357D01*
X106623000Y-116423472D01*
X106623000Y-116576528D01*
X106652859Y-116726643D01*
X106711431Y-116868048D01*
X106796464Y-116995309D01*
X106904691Y-117103536D01*
X107031952Y-117188569D01*
X107173357Y-117247141D01*
X107323472Y-117277000D01*
X107476528Y-117277000D01*
X107626643Y-117247141D01*
X107768048Y-117188569D01*
X107895309Y-117103536D01*
X108003536Y-116995309D01*
X108088569Y-116868048D01*
X108147141Y-116726643D01*
X108177000Y-116576528D01*
X108177000Y-116423472D01*
X108147141Y-116273357D01*
X108088569Y-116131952D01*
X108033432Y-116049434D01*
X108371965Y-116387967D01*
X108390026Y-116409974D01*
X108412033Y-116428035D01*
X108412035Y-116428037D01*
X108431980Y-116444405D01*
X108477885Y-116482079D01*
X108578124Y-116535657D01*
X108686888Y-116568650D01*
X108771664Y-116577000D01*
X108771670Y-116577000D01*
X108799999Y-116579790D01*
X108828328Y-116577000D01*
X111078155Y-116577000D01*
X111104691Y-116603536D01*
X111231952Y-116688569D01*
X111373357Y-116747141D01*
X111523472Y-116777000D01*
X111676528Y-116777000D01*
X111826643Y-116747141D01*
X111968048Y-116688569D01*
X112095309Y-116603536D01*
X112203536Y-116495309D01*
X112288569Y-116368048D01*
X112347141Y-116226643D01*
X112377000Y-116076528D01*
X112377000Y-115923472D01*
X112347866Y-115777000D01*
X114160999Y-115777000D01*
X116071961Y-117687962D01*
X116090026Y-117709974D01*
X116177885Y-117782079D01*
X116278124Y-117835657D01*
X116386888Y-117868650D01*
X116471664Y-117877000D01*
X116471670Y-117877000D01*
X116499999Y-117879790D01*
X116528328Y-117877000D01*
X117078155Y-117877000D01*
X117104691Y-117903536D01*
X117231952Y-117988569D01*
X117373357Y-118047141D01*
X117523472Y-118077000D01*
X117676528Y-118077000D01*
X117826643Y-118047141D01*
X117968048Y-117988569D01*
X118095309Y-117903536D01*
X118203536Y-117795309D01*
X118288569Y-117668048D01*
X118347141Y-117526643D01*
X118377000Y-117376528D01*
X118377000Y-117223472D01*
X118347141Y-117073357D01*
X118288569Y-116931952D01*
X118203536Y-116804691D01*
X118095309Y-116696464D01*
X117968048Y-116611431D01*
X117826643Y-116552859D01*
X117676528Y-116523000D01*
X117523472Y-116523000D01*
X117373357Y-116552859D01*
X117231952Y-116611431D01*
X117104691Y-116696464D01*
X117078155Y-116723000D01*
X116739001Y-116723000D01*
X114828039Y-114812038D01*
X114809974Y-114790026D01*
X114722115Y-114717921D01*
X114621876Y-114664343D01*
X114557770Y-114644897D01*
X114513111Y-114631349D01*
X114458045Y-114625926D01*
X114428336Y-114623000D01*
X114428331Y-114623000D01*
X114400000Y-114620210D01*
X114371669Y-114623000D01*
X111121845Y-114623000D01*
X111095309Y-114596464D01*
X110968048Y-114511431D01*
X110826643Y-114452859D01*
X110676528Y-114423000D01*
X110523472Y-114423000D01*
X110373357Y-114452859D01*
X110231952Y-114511431D01*
X110104691Y-114596464D01*
X109996464Y-114704691D01*
X109911431Y-114831952D01*
X109852859Y-114973357D01*
X109823000Y-115123472D01*
X109823000Y-115276528D01*
X109852134Y-115423000D01*
X109039002Y-115423000D01*
X108677000Y-115060999D01*
X108677000Y-115023472D01*
X108647141Y-114873357D01*
X108588569Y-114731952D01*
X108503536Y-114604691D01*
X108395309Y-114496464D01*
X108268048Y-114411431D01*
X108126643Y-114352859D01*
X108065940Y-114340785D01*
X108081268Y-114263723D01*
X108081268Y-114110667D01*
X108051409Y-113960552D01*
X107992837Y-113819147D01*
X107907804Y-113691886D01*
X107799577Y-113583659D01*
X107672316Y-113498626D01*
X107530911Y-113440054D01*
X107380796Y-113410195D01*
X107227740Y-113410195D01*
X107077625Y-113440054D01*
X106936220Y-113498626D01*
X106808959Y-113583659D01*
X106700732Y-113691886D01*
X106615699Y-113819147D01*
X106557127Y-113960552D01*
X106527268Y-114110667D01*
X102427000Y-114110667D01*
X102427000Y-112402000D01*
X105082416Y-112402000D01*
X105052859Y-112473357D01*
G04 #@! TA.AperFunction,Conductor*
D18*
G36*
X105052859Y-112473357D02*
G01*
X105023000Y-112623472D01*
X105023000Y-112776528D01*
X105052859Y-112926643D01*
X105111431Y-113068048D01*
X105196464Y-113195309D01*
X105304691Y-113303536D01*
X105431952Y-113388569D01*
X105573357Y-113447141D01*
X105723472Y-113477000D01*
X105876528Y-113477000D01*
X106026643Y-113447141D01*
X106168048Y-113388569D01*
X106295309Y-113303536D01*
X106321845Y-113277000D01*
X114560999Y-113277000D01*
X117671961Y-116387962D01*
X117690026Y-116409974D01*
X117777885Y-116482079D01*
X117878124Y-116535657D01*
X117922782Y-116549204D01*
X117986888Y-116568651D01*
X118044886Y-116574363D01*
X118071664Y-116577000D01*
X118071669Y-116577000D01*
X118100000Y-116579790D01*
X118128331Y-116577000D01*
X124571669Y-116577000D01*
X124600000Y-116579790D01*
X124628331Y-116577000D01*
X124628336Y-116577000D01*
X124658045Y-116574074D01*
X124713111Y-116568651D01*
X124765168Y-116552859D01*
X124821876Y-116535657D01*
X124922115Y-116482079D01*
X125009974Y-116409974D01*
X125028039Y-116387962D01*
X127392988Y-114023013D01*
X127392987Y-115498133D01*
X127366451Y-115524669D01*
X127281418Y-115651930D01*
X127222846Y-115793335D01*
X127192987Y-115943450D01*
X127192987Y-116096506D01*
X127222846Y-116246621D01*
X127281418Y-116388026D01*
X127366451Y-116515287D01*
X127474678Y-116623514D01*
X127601939Y-116708547D01*
X127743344Y-116767119D01*
X127893459Y-116796978D01*
X128046515Y-116796978D01*
X128196630Y-116767119D01*
X128338035Y-116708547D01*
X128465296Y-116623514D01*
X128573523Y-116515287D01*
X128658556Y-116388026D01*
X128717128Y-116246621D01*
X128746987Y-116096506D01*
X128746987Y-115943450D01*
X128717128Y-115793335D01*
X128658556Y-115651930D01*
X128573523Y-115524669D01*
X128546987Y-115498133D01*
X128546987Y-113648326D01*
X128549778Y-113619987D01*
X128538638Y-113506875D01*
X128512789Y-113421665D01*
X128505644Y-113398111D01*
X128467635Y-113327000D01*
X134485999Y-113327000D01*
X134848000Y-113689001D01*
X134848001Y-114128154D01*
X134821464Y-114154691D01*
X134736431Y-114281952D01*
X134677859Y-114423357D01*
X134648000Y-114573472D01*
X134648000Y-114726528D01*
X134677859Y-114876643D01*
X134736431Y-115018048D01*
X134821464Y-115145309D01*
X134929691Y-115253536D01*
X135056952Y-115338569D01*
X135198357Y-115397141D01*
X135348472Y-115427000D01*
X135501528Y-115427000D01*
X135651643Y-115397141D01*
X135793048Y-115338569D01*
X135920309Y-115253536D01*
X136028536Y-115145309D01*
X136113569Y-115018048D01*
X136172141Y-114876643D01*
X136202000Y-114726528D01*
X136202000Y-114573472D01*
X136172141Y-114423357D01*
X136113569Y-114281952D01*
X136028536Y-114154691D01*
X136002000Y-114128155D01*
X136002000Y-113478328D01*
X136004790Y-113449999D01*
X136002000Y-113421670D01*
X136002000Y-113421664D01*
X135993650Y-113336888D01*
X135960657Y-113228124D01*
X135907079Y-113127885D01*
X135834974Y-113040026D01*
X135812963Y-113021962D01*
X135193001Y-112402000D01*
X138862000Y-112402000D01*
X138862000Y-120598000D01*
X136361934Y-120598000D01*
X137287538Y-119672397D01*
X137306684Y-119656684D01*
X137326973Y-119631963D01*
X137369416Y-119580246D01*
X137373037Y-119573472D01*
X137416031Y-119493036D01*
X137444736Y-119398409D01*
X137452000Y-119324653D01*
X137452000Y-119324644D01*
X137454427Y-119300001D01*
X137452000Y-119275358D01*
X137452000Y-118724642D01*
X137454427Y-118699999D01*
X137452000Y-118675356D01*
X137452000Y-118675347D01*
X137444736Y-118601591D01*
X137416031Y-118506964D01*
X137369417Y-118419755D01*
X137306684Y-118343316D01*
X137287538Y-118327603D01*
X136711189Y-117751255D01*
X136716289Y-117748529D01*
X136788921Y-117688921D01*
X136803855Y-117670724D01*
X137976229Y-116498351D01*
X137994421Y-116483421D01*
X138054029Y-116410789D01*
X138098322Y-116327923D01*
X138125597Y-116238008D01*
X138132500Y-116167923D01*
X138132500Y-116167914D01*
X138134806Y-116144501D01*
X138132500Y-116121088D01*
X138132500Y-115965770D01*
X138150809Y-115953536D01*
X138259036Y-115845309D01*
X138344069Y-115718048D01*
X138402641Y-115576643D01*
X138432500Y-115426528D01*
X138432500Y-115273472D01*
X138402641Y-115123357D01*
X138344069Y-114981952D01*
X138259036Y-114854691D01*
X138150809Y-114746464D01*
X138023548Y-114661431D01*
X137882143Y-114602859D01*
X137732028Y-114573000D01*
X137578972Y-114573000D01*
X137428857Y-114602859D01*
X137287452Y-114661431D01*
X137160191Y-114746464D01*
X137051964Y-114854691D01*
X136966931Y-114981952D01*
X136908359Y-115123357D01*
X136878500Y-115273472D01*
X136878500Y-115426528D01*
X136908359Y-115576643D01*
X136966931Y-115718048D01*
X137051964Y-115845309D01*
X137160191Y-115953536D01*
X137167201Y-115958220D01*
X136252421Y-116873000D01*
X135248414Y-116873000D01*
X135224999Y-116870694D01*
X135201584Y-116873000D01*
X135201577Y-116873000D01*
X135140338Y-116879032D01*
X135131491Y-116879903D01*
X135104216Y-116888177D01*
X135041577Y-116907178D01*
X134958711Y-116951471D01*
X134940970Y-116966031D01*
X134905295Y-116995309D01*
X134886079Y-117011079D01*
X134871149Y-117029271D01*
X134429271Y-117471150D01*
X134411080Y-117486079D01*
X134351472Y-117558711D01*
X134340258Y-117579691D01*
X134307178Y-117641578D01*
X134279903Y-117731493D01*
X134270694Y-117825000D01*
X134273001Y-117848425D01*
X134273000Y-118802420D01*
X134152421Y-118923000D01*
X128501906Y-118923000D01*
X128472141Y-118773357D01*
X128413569Y-118631952D01*
X128328536Y-118504691D01*
X128220309Y-118396464D01*
X128093048Y-118311431D01*
X127951643Y-118252859D01*
X127801528Y-118223000D01*
X127648472Y-118223000D01*
X127498357Y-118252859D01*
X127356952Y-118311431D01*
X127229691Y-118396464D01*
X127121464Y-118504691D01*
X127036431Y-118631952D01*
X126977859Y-118773357D01*
X126948000Y-118923472D01*
X126948000Y-119076528D01*
X126977859Y-119226643D01*
X127036431Y-119368048D01*
X127039740Y-119373000D01*
X126801282Y-119373000D01*
X126763569Y-119281952D01*
X126678536Y-119154691D01*
X126570309Y-119046464D01*
X126443048Y-118961431D01*
X126301643Y-118902859D01*
X126151528Y-118873000D01*
X125998472Y-118873000D01*
X125848357Y-118902859D01*
X125706952Y-118961431D01*
X125579691Y-119046464D01*
X125471464Y-119154691D01*
X125386431Y-119281952D01*
X125327859Y-119423357D01*
X125298000Y-119573472D01*
X125298000Y-119726528D01*
X125322162Y-119848000D01*
X124486934Y-119848000D01*
X126007936Y-118327000D01*
X126151528Y-118327000D01*
X126301643Y-118297141D01*
X126443048Y-118238569D01*
X126570309Y-118153536D01*
X126678536Y-118045309D01*
X126763569Y-117918048D01*
X126822141Y-117776643D01*
X126852000Y-117626528D01*
X126852000Y-117473472D01*
X126822141Y-117323357D01*
X126763569Y-117181952D01*
X126678536Y-117054691D01*
X126570309Y-116946464D01*
X126443048Y-116861431D01*
X126301643Y-116802859D01*
X126151528Y-116773000D01*
X125998472Y-116773000D01*
X125848357Y-116802859D01*
X125706952Y-116861431D01*
X125579691Y-116946464D01*
X125471464Y-117054691D01*
X125386431Y-117181952D01*
X125327859Y-117323357D01*
X125298000Y-117473472D01*
X125298000Y-117617064D01*
X123592066Y-119323000D01*
X112632935Y-119323000D01*
X112486933Y-119176999D01*
X113071670Y-119176999D01*
X113100001Y-119179789D01*
X113128332Y-119176999D01*
X113128337Y-119176999D01*
X113158046Y-119174073D01*
X113213112Y-119168650D01*
X113259127Y-119154691D01*
X113321877Y-119135656D01*
X113422116Y-119082078D01*
X113509975Y-119009973D01*
X113528040Y-118987961D01*
X113539001Y-118977000D01*
X113576528Y-118977000D01*
X113726643Y-118947141D01*
X113868048Y-118888569D01*
X113995309Y-118803536D01*
X114103536Y-118695309D01*
X114188569Y-118568048D01*
X114247141Y-118426643D01*
X114277000Y-118276528D01*
X114277000Y-118123472D01*
X114247141Y-117973357D01*
X114188569Y-117831952D01*
X114103536Y-117704691D01*
X113995309Y-117596464D01*
X113868048Y-117511431D01*
X113726643Y-117452859D01*
X113576528Y-117423000D01*
X113423472Y-117423000D01*
X113273357Y-117452859D01*
X113131952Y-117511431D01*
X113004691Y-117596464D01*
X112896464Y-117704691D01*
X112811431Y-117831952D01*
X112752859Y-117973357D01*
X112742985Y-118022999D01*
X102428332Y-118022999D01*
X102400001Y-118020209D01*
X102371670Y-118022999D01*
X102371665Y-118022999D01*
X102344887Y-118025636D01*
X102286889Y-118031348D01*
X102234829Y-118047141D01*
X102178125Y-118064342D01*
X102077886Y-118117920D01*
X101990027Y-118190025D01*
X101971964Y-118212035D01*
X101810999Y-118373000D01*
X101286740Y-118373000D01*
X101325751Y-114427000D01*
X102300000Y-114427000D01*
X102324776Y-114424560D01*
X102348601Y-114417333D01*
X102370557Y-114405597D01*
X102389803Y-114389803D01*
X102405597Y-114370557D01*
X102417333Y-114348601D01*
X102424560Y-114324776D01*
X102427000Y-114300000D01*
X102427000Y-114110667D01*
X106527268Y-114110667D01*
X106527268Y-114263723D01*
X106557127Y-114413838D01*
X106598001Y-114512516D01*
X106598000Y-115475357D01*
X106595573Y-115500000D01*
X106598000Y-115524643D01*
X106598000Y-115524652D01*
X106605264Y-115598408D01*
X106633969Y-115693035D01*
X106680583Y-115780245D01*
X106743316Y-115856684D01*
X106762468Y-115872402D01*
X106845611Y-115955545D01*
X106796464Y-116004691D01*
X106711431Y-116131952D01*
X106652859Y-116273357D01*
X106623000Y-116423472D01*
X106623000Y-116576528D01*
X106652859Y-116726643D01*
X106711431Y-116868048D01*
X106796464Y-116995309D01*
X106904691Y-117103536D01*
X107031952Y-117188569D01*
X107173357Y-117247141D01*
X107323472Y-117277000D01*
X107476528Y-117277000D01*
X107626643Y-117247141D01*
X107768048Y-117188569D01*
X107895309Y-117103536D01*
X108003536Y-116995309D01*
X108088569Y-116868048D01*
X108147141Y-116726643D01*
X108177000Y-116576528D01*
X108177000Y-116423472D01*
X108147141Y-116273357D01*
X108088569Y-116131952D01*
X108033432Y-116049434D01*
X108371965Y-116387967D01*
X108390026Y-116409974D01*
X108412033Y-116428035D01*
X108412035Y-116428037D01*
X108431980Y-116444405D01*
X108477885Y-116482079D01*
X108578124Y-116535657D01*
X108686888Y-116568650D01*
X108771664Y-116577000D01*
X108771670Y-116577000D01*
X108799999Y-116579790D01*
X108828328Y-116577000D01*
X111078155Y-116577000D01*
X111104691Y-116603536D01*
X111231952Y-116688569D01*
X111373357Y-116747141D01*
X111523472Y-116777000D01*
X111676528Y-116777000D01*
X111826643Y-116747141D01*
X111968048Y-116688569D01*
X112095309Y-116603536D01*
X112203536Y-116495309D01*
X112288569Y-116368048D01*
X112347141Y-116226643D01*
X112377000Y-116076528D01*
X112377000Y-115923472D01*
X112347866Y-115777000D01*
X114160999Y-115777000D01*
X116071961Y-117687962D01*
X116090026Y-117709974D01*
X116177885Y-117782079D01*
X116278124Y-117835657D01*
X116386888Y-117868650D01*
X116471664Y-117877000D01*
X116471670Y-117877000D01*
X116499999Y-117879790D01*
X116528328Y-117877000D01*
X117078155Y-117877000D01*
X117104691Y-117903536D01*
X117231952Y-117988569D01*
X117373357Y-118047141D01*
X117523472Y-118077000D01*
X117676528Y-118077000D01*
X117826643Y-118047141D01*
X117968048Y-117988569D01*
X118095309Y-117903536D01*
X118203536Y-117795309D01*
X118288569Y-117668048D01*
X118347141Y-117526643D01*
X118377000Y-117376528D01*
X118377000Y-117223472D01*
X118347141Y-117073357D01*
X118288569Y-116931952D01*
X118203536Y-116804691D01*
X118095309Y-116696464D01*
X117968048Y-116611431D01*
X117826643Y-116552859D01*
X117676528Y-116523000D01*
X117523472Y-116523000D01*
X117373357Y-116552859D01*
X117231952Y-116611431D01*
X117104691Y-116696464D01*
X117078155Y-116723000D01*
X116739001Y-116723000D01*
X114828039Y-114812038D01*
X114809974Y-114790026D01*
X114722115Y-114717921D01*
X114621876Y-114664343D01*
X114557770Y-114644897D01*
X114513111Y-114631349D01*
X114458045Y-114625926D01*
X114428336Y-114623000D01*
X114428331Y-114623000D01*
X114400000Y-114620210D01*
X114371669Y-114623000D01*
X111121845Y-114623000D01*
X111095309Y-114596464D01*
X110968048Y-114511431D01*
X110826643Y-114452859D01*
X110676528Y-114423000D01*
X110523472Y-114423000D01*
X110373357Y-114452859D01*
X110231952Y-114511431D01*
X110104691Y-114596464D01*
X109996464Y-114704691D01*
X109911431Y-114831952D01*
X109852859Y-114973357D01*
X109823000Y-115123472D01*
X109823000Y-115276528D01*
X109852134Y-115423000D01*
X109039002Y-115423000D01*
X108677000Y-115060999D01*
X108677000Y-115023472D01*
X108647141Y-114873357D01*
X108588569Y-114731952D01*
X108503536Y-114604691D01*
X108395309Y-114496464D01*
X108268048Y-114411431D01*
X108126643Y-114352859D01*
X108065940Y-114340785D01*
X108081268Y-114263723D01*
X108081268Y-114110667D01*
X108051409Y-113960552D01*
X107992837Y-113819147D01*
X107907804Y-113691886D01*
X107799577Y-113583659D01*
X107672316Y-113498626D01*
X107530911Y-113440054D01*
X107380796Y-113410195D01*
X107227740Y-113410195D01*
X107077625Y-113440054D01*
X106936220Y-113498626D01*
X106808959Y-113583659D01*
X106700732Y-113691886D01*
X106615699Y-113819147D01*
X106557127Y-113960552D01*
X106527268Y-114110667D01*
X102427000Y-114110667D01*
X102427000Y-112402000D01*
X105082416Y-112402000D01*
X105052859Y-112473357D01*
G37*
G04 #@! TD.AperFunction*
M02*
