M48
; DRILL file {KiCad (5.1.9)-1} date 04/28/21 18:49:10
; FORMAT={-:-/ absolute / metric / decimal}
; #@! TF.CreationDate,2021-04-28T18:49:10-07:00
; #@! TF.GenerationSoftware,Kicad,Pcbnew,(5.1.9)-1
; #@! TF.FileFunction,NonPlated,1,2,NPTH
FMAT,2
METRIC
T1C0.500
%
G90
G05
T1
X98.1Y-102.5
X98.1Y-103.5
X98.1Y-104.5
X98.1Y-105.5
X98.1Y-106.5
X98.1Y-114.5
X98.1Y-115.5
X98.1Y-116.5
X98.1Y-117.5
X98.1Y-118.5
X147.85Y-102.5
X147.85Y-103.5
X147.85Y-104.5
X147.85Y-105.5
X147.85Y-106.5
X147.85Y-114.5
X147.85Y-115.5
X147.85Y-116.5
X147.85Y-117.5
X147.85Y-118.5
T0
M30
