G04 #@! TF.GenerationSoftware,KiCad,Pcbnew,(5.1.6)-1*
G04 #@! TF.CreationDate,2020-08-02T19:24:28+02:00*
G04 #@! TF.ProjectId,panelized,70616e65-6c69-47a6-9564-2e6b69636164,rev?*
G04 #@! TF.SameCoordinates,Original*
G04 #@! TF.FileFunction,Legend,Top*
G04 #@! TF.FilePolarity,Positive*
%FSLAX46Y46*%
G04 Gerber Fmt 4.6, Leading zero omitted, Abs format (unit mm)*
G04 Created by KiCad (PCBNEW (5.1.6)-1) date 2020-08-02 19:24:28*
%MOMM*%
%LPD*%
G01*
G04 APERTURE LIST*
%ADD10C,0.200000*%
%ADD11C,0.120000*%
%ADD12C,0.100000*%
G04 APERTURE END LIST*
D10*
X123250000Y-115700000D02*
G75*
G03*
X123250000Y-115700000I-100000J0D01*
G01*
X127600000Y-119600000D02*
G75*
G03*
X127600000Y-119600000I-100000J0D01*
G01*
X123250000Y-103700000D02*
G75*
G03*
X123250000Y-103700000I-100000J0D01*
G01*
X127600000Y-107600000D02*
G75*
G03*
X127600000Y-107600000I-100000J0D01*
G01*
D11*
X105456422Y-114107000D02*
X105973578Y-114107000D01*
X105456422Y-112687000D02*
X105973578Y-112687000D01*
X105456422Y-120203000D02*
X105973578Y-120203000D01*
X105456422Y-118783000D02*
X105973578Y-118783000D01*
X106515000Y-118045000D02*
X107315000Y-118045000D01*
X107315000Y-118045000D02*
X107315000Y-117945000D01*
X104915000Y-118045000D02*
X104115000Y-118045000D01*
X104115000Y-118045000D02*
X104115000Y-117945000D01*
X107315000Y-114945000D02*
X107315000Y-114845000D01*
X107315000Y-114845000D02*
X106515000Y-114845000D01*
X104915000Y-114845000D02*
X104115000Y-114845000D01*
X104115000Y-114845000D02*
X104115000Y-114945000D01*
X107315000Y-117945000D02*
X107715000Y-117945000D01*
D12*
X113205000Y-117842000D02*
G75*
G03*
X113205000Y-117842000I-50000J0D01*
G01*
D11*
X102331000Y-116301000D02*
X100921000Y-116301000D01*
X100921000Y-118621000D02*
X102951000Y-118621000D01*
X100921000Y-118621000D02*
X100921000Y-117961000D01*
X100921000Y-116961000D02*
X100921000Y-116301000D01*
X140110000Y-118387221D02*
X140110000Y-118712779D01*
X139090000Y-118387221D02*
X139090000Y-118712779D01*
X113950000Y-115610000D02*
X115750000Y-115610000D01*
X115750000Y-112390000D02*
X113300000Y-112390000D01*
X112971000Y-116490000D02*
X112971000Y-115080000D01*
X110651000Y-115080000D02*
X110651000Y-117110000D01*
X110651000Y-115080000D02*
X111311000Y-115080000D01*
X112311000Y-115080000D02*
X112971000Y-115080000D01*
X123460000Y-116365000D02*
X123460000Y-115890000D01*
X119240000Y-120110000D02*
X119715000Y-120110000D01*
X119240000Y-119635000D02*
X119240000Y-120110000D01*
X119240000Y-115890000D02*
X119715000Y-115890000D01*
X119240000Y-116365000D02*
X119240000Y-115890000D01*
X123460000Y-120110000D02*
X122985000Y-120110000D01*
X123460000Y-119635000D02*
X123460000Y-120110000D01*
X127890000Y-119335000D02*
X127890000Y-119810000D01*
X135110000Y-112590000D02*
X134635000Y-112590000D01*
X135110000Y-113065000D02*
X135110000Y-112590000D01*
X135110000Y-119810000D02*
X134635000Y-119810000D01*
X135110000Y-119335000D02*
X135110000Y-119810000D01*
X127890000Y-112590000D02*
X128365000Y-112590000D01*
X127890000Y-113065000D02*
X127890000Y-112590000D01*
D12*
X112699000Y-119700000D02*
G75*
G03*
X112699000Y-119700000I-50000J0D01*
G01*
D11*
X138260000Y-115600000D02*
X138260000Y-113700000D01*
X135940000Y-114200000D02*
X135940000Y-115600000D01*
D12*
X100080000Y-114413000D02*
G75*
G03*
X100080000Y-114413000I-50000J0D01*
G01*
D11*
X105456422Y-102107000D02*
X105973578Y-102107000D01*
X105456422Y-100687000D02*
X105973578Y-100687000D01*
X105456422Y-108203000D02*
X105973578Y-108203000D01*
X105456422Y-106783000D02*
X105973578Y-106783000D01*
X106515000Y-106045000D02*
X107315000Y-106045000D01*
X107315000Y-106045000D02*
X107315000Y-105945000D01*
X104915000Y-106045000D02*
X104115000Y-106045000D01*
X104115000Y-106045000D02*
X104115000Y-105945000D01*
X107315000Y-102945000D02*
X107315000Y-102845000D01*
X107315000Y-102845000D02*
X106515000Y-102845000D01*
X104915000Y-102845000D02*
X104115000Y-102845000D01*
X104115000Y-102845000D02*
X104115000Y-102945000D01*
X107315000Y-105945000D02*
X107715000Y-105945000D01*
D12*
X113205000Y-105842000D02*
G75*
G03*
X113205000Y-105842000I-50000J0D01*
G01*
D11*
X102331000Y-104301000D02*
X100921000Y-104301000D01*
X100921000Y-106621000D02*
X102951000Y-106621000D01*
X100921000Y-106621000D02*
X100921000Y-105961000D01*
X100921000Y-104961000D02*
X100921000Y-104301000D01*
X140110000Y-106387221D02*
X140110000Y-106712779D01*
X139090000Y-106387221D02*
X139090000Y-106712779D01*
X113950000Y-103610000D02*
X115750000Y-103610000D01*
X115750000Y-100390000D02*
X113300000Y-100390000D01*
X112971000Y-104490000D02*
X112971000Y-103080000D01*
X110651000Y-103080000D02*
X110651000Y-105110000D01*
X110651000Y-103080000D02*
X111311000Y-103080000D01*
X112311000Y-103080000D02*
X112971000Y-103080000D01*
X123460000Y-104365000D02*
X123460000Y-103890000D01*
X119240000Y-108110000D02*
X119715000Y-108110000D01*
X119240000Y-107635000D02*
X119240000Y-108110000D01*
X119240000Y-103890000D02*
X119715000Y-103890000D01*
X119240000Y-104365000D02*
X119240000Y-103890000D01*
X123460000Y-108110000D02*
X122985000Y-108110000D01*
X123460000Y-107635000D02*
X123460000Y-108110000D01*
X127890000Y-107335000D02*
X127890000Y-107810000D01*
X135110000Y-100590000D02*
X134635000Y-100590000D01*
X135110000Y-101065000D02*
X135110000Y-100590000D01*
X135110000Y-107810000D02*
X134635000Y-107810000D01*
X135110000Y-107335000D02*
X135110000Y-107810000D01*
X127890000Y-100590000D02*
X128365000Y-100590000D01*
X127890000Y-101065000D02*
X127890000Y-100590000D01*
D12*
X112699000Y-107700000D02*
G75*
G03*
X112699000Y-107700000I-50000J0D01*
G01*
D11*
X138260000Y-103600000D02*
X138260000Y-101700000D01*
X135940000Y-102200000D02*
X135940000Y-103600000D01*
D12*
X100080000Y-102413000D02*
G75*
G03*
X100080000Y-102413000I-50000J0D01*
G01*
M02*
