G04 #@! TF.GenerationSoftware,KiCad,Pcbnew,(5.1.9)-1*
G04 #@! TF.CreationDate,2021-04-28T18:48:57-07:00*
G04 #@! TF.ProjectId,panelized,70616e65-6c69-47a6-9564-2e6b69636164,rev?*
G04 #@! TF.SameCoordinates,Original*
G04 #@! TF.FileFunction,Profile,NP*
%FSLAX46Y46*%
G04 Gerber Fmt 4.6, Leading zero omitted, Abs format (unit mm)*
G04 Created by KiCad (PCBNEW (5.1.9)-1) date 2021-04-28 18:48:57*
%MOMM*%
%LPD*%
G01*
G04 APERTURE LIST*
G04 #@! TA.AperFunction,Profile*
%ADD10C,0.050000*%
G04 #@! TD*
G04 APERTURE END LIST*
D10*
X147600000Y-114500000D02*
X146800000Y-114500000D01*
X118525000Y-115300000D02*
X119050000Y-115300000D01*
X119650000Y-114700000D02*
X119650000Y-112000000D01*
X124775000Y-114700000D02*
X124775000Y-112000000D01*
X119650000Y-112000000D02*
X123050000Y-112000000D01*
X124775000Y-114700000D02*
G75*
G02*
X124175000Y-115300000I-600000J0D01*
G01*
X100000000Y-113700000D02*
X100000000Y-112000000D01*
X146000000Y-119300000D02*
X146000000Y-121000000D01*
X146000000Y-113700000D02*
G75*
G03*
X146800000Y-114500000I800000J0D01*
G01*
X123650000Y-115300000D02*
X124175000Y-115300000D01*
X98400000Y-118500000D02*
X99200000Y-118500000D01*
X100000000Y-112000000D02*
X117925000Y-112000000D01*
X98400000Y-114500000D02*
X99200000Y-114500000D01*
X100000000Y-119300000D02*
X100000000Y-121000000D01*
X117925000Y-114700000D02*
X117925000Y-112000000D01*
X123650000Y-115300000D02*
G75*
G02*
X123050000Y-114700000I0J600000D01*
G01*
X118525000Y-115300000D02*
G75*
G02*
X117925000Y-114700000I0J600000D01*
G01*
X100000000Y-119300000D02*
G75*
G03*
X99200000Y-118500000I-800000J0D01*
G01*
X124775000Y-112000000D02*
X146000000Y-112000000D01*
X146000000Y-113700000D02*
X146000000Y-112000000D01*
X146000000Y-119300000D02*
G75*
G02*
X146800000Y-118500000I800000J0D01*
G01*
X123050000Y-112000000D02*
X123050000Y-114700000D01*
X146000000Y-121000000D02*
X100000000Y-121000000D01*
X147600000Y-118500000D02*
X146800000Y-118500000D01*
X100000000Y-113700000D02*
G75*
G02*
X99200000Y-114500000I-800000J0D01*
G01*
X119650000Y-114700000D02*
G75*
G02*
X119050000Y-115300000I-600000J0D01*
G01*
X147600000Y-102500000D02*
X146800000Y-102500000D01*
X118525000Y-103300000D02*
X119050000Y-103300000D01*
X119650000Y-102700000D02*
X119650000Y-100000000D01*
X124775000Y-102700000D02*
X124775000Y-100000000D01*
X119650000Y-100000000D02*
X123050000Y-100000000D01*
X124775000Y-102700000D02*
G75*
G02*
X124175000Y-103300000I-600000J0D01*
G01*
X100000000Y-101700000D02*
X100000000Y-100000000D01*
X146000000Y-107300000D02*
X146000000Y-109000000D01*
X146000000Y-101700000D02*
G75*
G03*
X146800000Y-102500000I800000J0D01*
G01*
X123650000Y-103300000D02*
X124175000Y-103300000D01*
X98400000Y-106500000D02*
X99200000Y-106500000D01*
X100000000Y-100000000D02*
X117925000Y-100000000D01*
X98400000Y-102500000D02*
X99200000Y-102500000D01*
X100000000Y-107300000D02*
X100000000Y-109000000D01*
X117925000Y-102700000D02*
X117925000Y-100000000D01*
X123650000Y-103300000D02*
G75*
G02*
X123050000Y-102700000I0J600000D01*
G01*
X118525000Y-103300000D02*
G75*
G02*
X117925000Y-102700000I0J600000D01*
G01*
X100000000Y-107300000D02*
G75*
G03*
X99200000Y-106500000I-800000J0D01*
G01*
X124775000Y-100000000D02*
X146000000Y-100000000D01*
X146000000Y-101700000D02*
X146000000Y-100000000D01*
X146000000Y-107300000D02*
G75*
G02*
X146800000Y-106500000I800000J0D01*
G01*
X123050000Y-100000000D02*
X123050000Y-102700000D01*
X146000000Y-109000000D02*
X100000000Y-109000000D01*
X147600000Y-106500000D02*
X146800000Y-106500000D01*
X100000000Y-101700000D02*
G75*
G02*
X99200000Y-102500000I-800000J0D01*
G01*
X119650000Y-102700000D02*
G75*
G02*
X119050000Y-103300000I-600000J0D01*
G01*
X98400000Y-121000000D02*
X98400000Y-118500000D01*
X88400000Y-121000000D02*
X98400000Y-121000000D01*
X88400000Y-100000000D02*
X88400000Y-121000000D01*
X98400000Y-100000000D02*
X88400000Y-100000000D01*
X98400000Y-102500000D02*
X98400000Y-100000000D01*
X147600000Y-100000000D02*
X147600000Y-102500000D01*
X157600000Y-100000000D02*
X147600000Y-100000000D01*
X157600000Y-121000000D02*
X157600000Y-100000000D01*
X147600000Y-121000000D02*
X157600000Y-121000000D01*
X147600000Y-118500000D02*
X147600000Y-121000000D01*
X147600000Y-106500000D02*
X147600000Y-114500000D01*
X98400000Y-114500000D02*
X98400000Y-106500000D01*
M02*
