G04 #@! TF.GenerationSoftware,KiCad,Pcbnew,(5.1.6)-1*
G04 #@! TF.CreationDate,2020-07-19T16:15:24+02:00*
G04 #@! TF.ProjectId,panelized,70616e65-6c69-47a6-9564-2e6b69636164,rev?*
G04 #@! TF.SameCoordinates,Original*
G04 #@! TF.FileFunction,Copper,L2,Bot*
G04 #@! TF.FilePolarity,Positive*
%FSLAX46Y46*%
G04 Gerber Fmt 4.6, Leading zero omitted, Abs format (unit mm)*
G04 Created by KiCad (PCBNEW (5.1.6)-1) date 2020-07-19 16:15:24*
%MOMM*%
%LPD*%
G01*
G04 APERTURE LIST*
G04 #@! TA.AperFunction,ComponentPad*
%ADD10R,1.600000X1.600000*%
G04 #@! TD*
G04 #@! TA.AperFunction,ViaPad*
%ADD11C,0.800000*%
G04 #@! TD*
G04 #@! TA.AperFunction,Conductor*
%ADD12C,0.250000*%
G04 #@! TD*
G04 #@! TA.AperFunction,Conductor*
%ADD13C,0.800000*%
G04 #@! TD*
G04 #@! TA.AperFunction,Conductor*
%ADD14C,0.254000*%
G04 #@! TD*
G04 APERTURE END LIST*
D10*
X100900000Y-112900000D03*
X100900000Y-120100000D03*
X145100000Y-120100000D03*
X145100000Y-112900000D03*
X100900000Y-100900000D03*
X100900000Y-108100000D03*
X145100000Y-108100000D03*
X145100000Y-100900000D03*
D11*
X111176000Y-103683000D03*
X116002000Y-102032000D03*
X115314976Y-104606155D03*
X110922000Y-101397000D03*
X114404012Y-105841302D03*
X105715000Y-104445000D03*
X101481883Y-104608660D03*
X132700000Y-103100000D03*
X117235023Y-105750000D03*
X106100000Y-105200000D03*
X130300000Y-103100000D03*
X131500000Y-104200000D03*
X102540000Y-102413000D03*
X132700000Y-104200000D03*
X139000000Y-102100000D03*
X110600000Y-105900000D03*
X105300000Y-105200000D03*
X121350000Y-106000000D03*
X131500000Y-103100000D03*
X130300000Y-104200000D03*
X112573000Y-102032000D03*
X138450000Y-105500000D03*
X126800000Y-100625000D03*
X110033000Y-101905000D03*
X107366000Y-100625010D03*
X137950000Y-102900000D03*
X126625000Y-107750000D03*
X136450000Y-102950000D03*
X125000000Y-106249998D03*
X102900000Y-107700000D03*
X125625000Y-105375000D03*
X111430000Y-108196168D03*
X136050000Y-107302500D03*
X108763000Y-103937000D03*
X112446000Y-103937000D03*
X103214998Y-103556000D03*
X127875000Y-107750000D03*
X135959579Y-105915726D03*
X111176000Y-115683000D03*
X116002000Y-114032000D03*
X115314976Y-116606155D03*
X110922000Y-113397000D03*
X114404012Y-117841302D03*
X105715000Y-116445000D03*
X101481883Y-116608660D03*
X132700000Y-115100000D03*
X117235023Y-117750000D03*
X106100000Y-117200000D03*
X130300000Y-115100000D03*
X131500000Y-116200000D03*
X102540000Y-114413000D03*
X132700000Y-116200000D03*
X139000000Y-114100000D03*
X110600000Y-117900000D03*
X105300000Y-117200000D03*
X121350000Y-118000000D03*
X131500000Y-115100000D03*
X130300000Y-116200000D03*
X112573000Y-114032000D03*
X138450000Y-117500000D03*
X126800000Y-112625000D03*
X110033000Y-113905000D03*
X107366000Y-112625010D03*
X137950000Y-114900000D03*
X126625000Y-119750000D03*
X136450000Y-114950000D03*
X125000000Y-118249998D03*
X102900000Y-119700000D03*
X125625000Y-117375000D03*
X111430000Y-120196168D03*
X136050000Y-119302500D03*
X108763000Y-115937000D03*
X112446000Y-115937000D03*
X103214998Y-115556000D03*
X127875000Y-119750000D03*
X135959579Y-117915726D03*
D12*
X116002000Y-103848000D02*
X116002000Y-102597685D01*
X115714975Y-104206156D02*
X115314976Y-104606155D01*
X116002000Y-102597685D02*
X116002000Y-102032000D01*
X115950000Y-103900000D02*
X116002000Y-103848000D01*
X115950000Y-103971131D02*
X115714975Y-104206156D01*
X116002000Y-102032000D02*
X115276999Y-101306999D01*
X111557000Y-103111042D02*
X111176000Y-103492042D01*
X115950000Y-103900000D02*
X115950000Y-103971131D01*
X111557000Y-101942824D02*
X111557000Y-103111042D01*
X112192825Y-101306999D02*
X111557000Y-101942824D01*
X115276999Y-101306999D02*
X112192825Y-101306999D01*
X111176000Y-103492042D02*
X111176000Y-103683000D01*
X102888001Y-101687999D02*
X102191999Y-101687999D01*
X100500000Y-103379998D02*
X100500000Y-107050000D01*
X110414000Y-102794000D02*
X103994002Y-102794000D01*
X110922000Y-101397000D02*
X110922000Y-102286000D01*
X110922000Y-102286000D02*
X110414000Y-102794000D01*
X102191999Y-101687999D02*
X100500000Y-103379998D01*
X100500000Y-107050000D02*
X100500000Y-108100000D01*
X103994002Y-102794000D02*
X102888001Y-101687999D01*
X130900000Y-103600000D02*
X131500000Y-104200000D01*
X135450000Y-102050000D02*
X138173002Y-102050000D01*
X138173002Y-102050000D02*
X138900000Y-102776998D01*
D13*
X138800000Y-108100000D02*
X144850000Y-108100000D01*
D12*
X131500000Y-104200000D02*
X133300000Y-104200000D01*
X138223002Y-102100000D02*
X138173002Y-102050000D01*
X139000000Y-102100000D02*
X138223002Y-102100000D01*
X138900000Y-102776998D02*
X138900000Y-105050000D01*
X117235023Y-105750000D02*
X114495314Y-105750000D01*
X114371292Y-105841302D02*
X114404012Y-105841302D01*
X114495314Y-105750000D02*
X114404012Y-105841302D01*
X138450000Y-107750000D02*
X138800000Y-108100000D01*
X138450000Y-105500000D02*
X138450000Y-107750000D01*
X138900000Y-105050000D02*
X138450000Y-105500000D01*
X112605000Y-102000000D02*
X112573000Y-102032000D01*
X103030996Y-104445000D02*
X102489997Y-103904001D01*
X117485023Y-106000000D02*
X117235023Y-105750000D01*
X113000000Y-102000000D02*
X112605000Y-102000000D01*
X110641302Y-105858698D02*
X110600000Y-105900000D01*
X110641302Y-105841302D02*
X110641302Y-105858698D01*
X105715000Y-104445000D02*
X103030996Y-104445000D01*
X114404012Y-103404012D02*
X114404012Y-105841302D01*
D13*
X144850000Y-108100000D02*
X145500000Y-108100000D01*
D12*
X114404012Y-105841302D02*
X110641302Y-105841302D01*
X130182000Y-104318000D02*
X130300000Y-104200000D01*
X102489997Y-102463003D02*
X102540000Y-102413000D01*
X123032000Y-104318000D02*
X130182000Y-104318000D01*
X121350000Y-106000000D02*
X117485023Y-106000000D01*
X110641302Y-105841302D02*
X107111302Y-105841302D01*
X113000000Y-102000000D02*
X114404012Y-103404012D01*
X133300000Y-104200000D02*
X135450000Y-102050000D01*
X102489997Y-103904001D02*
X102489997Y-102463003D01*
X107111302Y-105841302D02*
X105715000Y-104445000D01*
X114204980Y-105674990D02*
X114371292Y-105841302D01*
X121350000Y-106000000D02*
X123032000Y-104318000D01*
X118214361Y-103750000D02*
X117272000Y-102807639D01*
X117272000Y-100889002D02*
X116872001Y-100489003D01*
X107502007Y-100489003D02*
X107366000Y-100625010D01*
X116872001Y-100489003D02*
X107502007Y-100489003D01*
X109467315Y-101905000D02*
X110033000Y-101905000D01*
X108080305Y-101905000D02*
X109467315Y-101905000D01*
X107366000Y-101190695D02*
X108080305Y-101905000D01*
X107366000Y-100625010D02*
X107366000Y-101190695D01*
X124600000Y-103750000D02*
X118214361Y-103750000D01*
X117272000Y-102807639D02*
X117272000Y-100889002D01*
X126800000Y-101500000D02*
X124600000Y-103750000D01*
X126800000Y-100625000D02*
X126800000Y-101500000D01*
X133850000Y-107000000D02*
X127375000Y-107000000D01*
X137950000Y-102900000D02*
X133850000Y-107000000D01*
X127375000Y-107000000D02*
X127024999Y-107350001D01*
X127024999Y-107350001D02*
X126625000Y-107750000D01*
X133150002Y-106249998D02*
X125565685Y-106249998D01*
X136450000Y-102950000D02*
X133150002Y-106249998D01*
X125565685Y-106249998D02*
X125000000Y-106249998D01*
X103324001Y-107275999D02*
X111720999Y-107275999D01*
X122048996Y-108128000D02*
X124801996Y-105375000D01*
X125059315Y-105375000D02*
X125625000Y-105375000D01*
X102900000Y-107700000D02*
X103324001Y-107275999D01*
X124801996Y-105375000D02*
X125059315Y-105375000D01*
X112573000Y-108128000D02*
X122048996Y-108128000D01*
X111720999Y-107275999D02*
X112573000Y-108128000D01*
X136050000Y-107302500D02*
X134756333Y-108596167D01*
X111829999Y-108596167D02*
X111430000Y-108196168D01*
X134756333Y-108596167D02*
X111829999Y-108596167D01*
X112046001Y-104336999D02*
X112446000Y-103937000D01*
X108363001Y-103537001D02*
X103233997Y-103537001D01*
X109234001Y-104408001D02*
X111974999Y-104408001D01*
X108763000Y-103937000D02*
X108363001Y-103537001D01*
X103233997Y-103537001D02*
X103214998Y-103556000D01*
X111974999Y-104408001D02*
X112046001Y-104336999D01*
X108763000Y-103937000D02*
X109234001Y-104408001D01*
X134125305Y-107750000D02*
X127875000Y-107750000D01*
X135959579Y-105915726D02*
X134125305Y-107750000D01*
X116002000Y-115848000D02*
X116002000Y-114597685D01*
X115714975Y-116206156D02*
X115314976Y-116606155D01*
X116002000Y-114597685D02*
X116002000Y-114032000D01*
X115950000Y-115900000D02*
X116002000Y-115848000D01*
X115950000Y-115971131D02*
X115714975Y-116206156D01*
X116002000Y-114032000D02*
X115276999Y-113306999D01*
X111557000Y-115111042D02*
X111176000Y-115492042D01*
X115950000Y-115900000D02*
X115950000Y-115971131D01*
X111557000Y-113942824D02*
X111557000Y-115111042D01*
X112192825Y-113306999D02*
X111557000Y-113942824D01*
X115276999Y-113306999D02*
X112192825Y-113306999D01*
X111176000Y-115492042D02*
X111176000Y-115683000D01*
X102888001Y-113687999D02*
X102191999Y-113687999D01*
X100500000Y-115379998D02*
X100500000Y-119050000D01*
X110414000Y-114794000D02*
X103994002Y-114794000D01*
X110922000Y-113397000D02*
X110922000Y-114286000D01*
X110922000Y-114286000D02*
X110414000Y-114794000D01*
X102191999Y-113687999D02*
X100500000Y-115379998D01*
X100500000Y-119050000D02*
X100500000Y-120100000D01*
X103994002Y-114794000D02*
X102888001Y-113687999D01*
X130900000Y-115600000D02*
X131500000Y-116200000D01*
X135450000Y-114050000D02*
X138173002Y-114050000D01*
X138173002Y-114050000D02*
X138900000Y-114776998D01*
D13*
X138800000Y-120100000D02*
X144850000Y-120100000D01*
D12*
X131500000Y-116200000D02*
X133300000Y-116200000D01*
X138223002Y-114100000D02*
X138173002Y-114050000D01*
X139000000Y-114100000D02*
X138223002Y-114100000D01*
X138900000Y-114776998D02*
X138900000Y-117050000D01*
X117235023Y-117750000D02*
X114495314Y-117750000D01*
X114371292Y-117841302D02*
X114404012Y-117841302D01*
X114495314Y-117750000D02*
X114404012Y-117841302D01*
X138450000Y-119750000D02*
X138800000Y-120100000D01*
X138450000Y-117500000D02*
X138450000Y-119750000D01*
X138900000Y-117050000D02*
X138450000Y-117500000D01*
X112605000Y-114000000D02*
X112573000Y-114032000D01*
X103030996Y-116445000D02*
X102489997Y-115904001D01*
X117485023Y-118000000D02*
X117235023Y-117750000D01*
X113000000Y-114000000D02*
X112605000Y-114000000D01*
X110641302Y-117858698D02*
X110600000Y-117900000D01*
X110641302Y-117841302D02*
X110641302Y-117858698D01*
X105715000Y-116445000D02*
X103030996Y-116445000D01*
X114404012Y-115404012D02*
X114404012Y-117841302D01*
D13*
X144850000Y-120100000D02*
X145500000Y-120100000D01*
D12*
X114404012Y-117841302D02*
X110641302Y-117841302D01*
X130182000Y-116318000D02*
X130300000Y-116200000D01*
X102489997Y-114463003D02*
X102540000Y-114413000D01*
X123032000Y-116318000D02*
X130182000Y-116318000D01*
X121350000Y-118000000D02*
X117485023Y-118000000D01*
X110641302Y-117841302D02*
X107111302Y-117841302D01*
X113000000Y-114000000D02*
X114404012Y-115404012D01*
X133300000Y-116200000D02*
X135450000Y-114050000D01*
X102489997Y-115904001D02*
X102489997Y-114463003D01*
X107111302Y-117841302D02*
X105715000Y-116445000D01*
X114204980Y-117674990D02*
X114371292Y-117841302D01*
X121350000Y-118000000D02*
X123032000Y-116318000D01*
X118214361Y-115750000D02*
X117272000Y-114807639D01*
X117272000Y-112889002D02*
X116872001Y-112489003D01*
X107502007Y-112489003D02*
X107366000Y-112625010D01*
X116872001Y-112489003D02*
X107502007Y-112489003D01*
X109467315Y-113905000D02*
X110033000Y-113905000D01*
X108080305Y-113905000D02*
X109467315Y-113905000D01*
X107366000Y-113190695D02*
X108080305Y-113905000D01*
X107366000Y-112625010D02*
X107366000Y-113190695D01*
X124600000Y-115750000D02*
X118214361Y-115750000D01*
X117272000Y-114807639D02*
X117272000Y-112889002D01*
X126800000Y-113500000D02*
X124600000Y-115750000D01*
X126800000Y-112625000D02*
X126800000Y-113500000D01*
X133850000Y-119000000D02*
X127375000Y-119000000D01*
X137950000Y-114900000D02*
X133850000Y-119000000D01*
X127375000Y-119000000D02*
X127024999Y-119350001D01*
X127024999Y-119350001D02*
X126625000Y-119750000D01*
X133150002Y-118249998D02*
X125565685Y-118249998D01*
X136450000Y-114950000D02*
X133150002Y-118249998D01*
X125565685Y-118249998D02*
X125000000Y-118249998D01*
X103324001Y-119275999D02*
X111720999Y-119275999D01*
X122048996Y-120128000D02*
X124801996Y-117375000D01*
X125059315Y-117375000D02*
X125625000Y-117375000D01*
X102900000Y-119700000D02*
X103324001Y-119275999D01*
X124801996Y-117375000D02*
X125059315Y-117375000D01*
X112573000Y-120128000D02*
X122048996Y-120128000D01*
X111720999Y-119275999D02*
X112573000Y-120128000D01*
X136050000Y-119302500D02*
X134756333Y-120596167D01*
X111829999Y-120596167D02*
X111430000Y-120196168D01*
X134756333Y-120596167D02*
X111829999Y-120596167D01*
X112046001Y-116336999D02*
X112446000Y-115937000D01*
X108363001Y-115537001D02*
X103233997Y-115537001D01*
X109234001Y-116408001D02*
X111974999Y-116408001D01*
X108763000Y-115937000D02*
X108363001Y-115537001D01*
X103233997Y-115537001D02*
X103214998Y-115556000D01*
X111974999Y-116408001D02*
X112046001Y-116336999D01*
X108763000Y-115937000D02*
X109234001Y-116408001D01*
X134125305Y-119750000D02*
X127875000Y-119750000D01*
X135959579Y-117915726D02*
X134125305Y-119750000D01*
D14*
G36*
X138862000Y-108598000D02*
G01*
X135464434Y-108598000D01*
X135982935Y-108079500D01*
X136126528Y-108079500D01*
X136276643Y-108049641D01*
X136418048Y-107991069D01*
X136545309Y-107906036D01*
X136653536Y-107797809D01*
X136738569Y-107670548D01*
X136797141Y-107529143D01*
X136827000Y-107379028D01*
X136827000Y-107225972D01*
X136797141Y-107075857D01*
X136738569Y-106934452D01*
X136653536Y-106807191D01*
X136545309Y-106698964D01*
X136418048Y-106613931D01*
X136353327Y-106587123D01*
X136454888Y-106519262D01*
X136563115Y-106411035D01*
X136648148Y-106283774D01*
X136706720Y-106142369D01*
X136736579Y-105992254D01*
X136736579Y-105839198D01*
X136706720Y-105689083D01*
X136648148Y-105547678D01*
X136563115Y-105420417D01*
X136454888Y-105312190D01*
X136330715Y-105229220D01*
X137882936Y-103677000D01*
X138026528Y-103677000D01*
X138176643Y-103647141D01*
X138318048Y-103588569D01*
X138445309Y-103503536D01*
X138553536Y-103395309D01*
X138638569Y-103268048D01*
X138697141Y-103126643D01*
X138727000Y-102976528D01*
X138727000Y-102823472D01*
X138697141Y-102673357D01*
X138638569Y-102531952D01*
X138553536Y-102404691D01*
X138445309Y-102296464D01*
X138318048Y-102211431D01*
X138176643Y-102152859D01*
X138026528Y-102123000D01*
X137873472Y-102123000D01*
X137723357Y-102152859D01*
X137581952Y-102211431D01*
X137454691Y-102296464D01*
X137346464Y-102404691D01*
X137261431Y-102531952D01*
X137202859Y-102673357D01*
X137194285Y-102716462D01*
X137138569Y-102581952D01*
X137053536Y-102454691D01*
X136945309Y-102346464D01*
X136818048Y-102261431D01*
X136676643Y-102202859D01*
X136526528Y-102173000D01*
X136373472Y-102173000D01*
X136223357Y-102202859D01*
X136081952Y-102261431D01*
X135954691Y-102346464D01*
X135846464Y-102454691D01*
X135761431Y-102581952D01*
X135702859Y-102723357D01*
X135673000Y-102873472D01*
X135673000Y-103017065D01*
X132942068Y-105747998D01*
X126310262Y-105747998D01*
X126313569Y-105743048D01*
X126372141Y-105601643D01*
X126402000Y-105451528D01*
X126402000Y-105298472D01*
X126372141Y-105148357D01*
X126313569Y-105006952D01*
X126228536Y-104879691D01*
X126120309Y-104771464D01*
X125993048Y-104686431D01*
X125851643Y-104627859D01*
X125701528Y-104598000D01*
X125548472Y-104598000D01*
X125398357Y-104627859D01*
X125256952Y-104686431D01*
X125129691Y-104771464D01*
X125028155Y-104873000D01*
X124826639Y-104873000D01*
X124801996Y-104870573D01*
X124777353Y-104873000D01*
X124777343Y-104873000D01*
X124703587Y-104880264D01*
X124608960Y-104908969D01*
X124521751Y-104955583D01*
X124445312Y-105018316D01*
X124429599Y-105037462D01*
X121841062Y-107626000D01*
X112780935Y-107626000D01*
X112093400Y-106938466D01*
X112077683Y-106919315D01*
X112001244Y-106856582D01*
X111914035Y-106809968D01*
X111819408Y-106781263D01*
X111745652Y-106773999D01*
X111745642Y-106773999D01*
X111720999Y-106771572D01*
X111696356Y-106773999D01*
X107747000Y-106773999D01*
X107747000Y-106477000D01*
X107744560Y-106452224D01*
X107737333Y-106428399D01*
X107725597Y-106406443D01*
X107709803Y-106387197D01*
X107690557Y-106371403D01*
X107668601Y-106359667D01*
X107644776Y-106352440D01*
X107620000Y-106350000D01*
X103937000Y-106350000D01*
X103912224Y-106352440D01*
X103888399Y-106359667D01*
X103866443Y-106371403D01*
X103847197Y-106387197D01*
X103831403Y-106406443D01*
X103819667Y-106428399D01*
X103812440Y-106452224D01*
X103810000Y-106477000D01*
X103810000Y-106773999D01*
X103348644Y-106773999D01*
X103324001Y-106771572D01*
X103299358Y-106773999D01*
X103299348Y-106773999D01*
X103225592Y-106781263D01*
X103130965Y-106809968D01*
X103043756Y-106856582D01*
X102967317Y-106919315D01*
X102964293Y-106923000D01*
X102823472Y-106923000D01*
X102673357Y-106952859D01*
X102531952Y-107011431D01*
X102404691Y-107096464D01*
X102296464Y-107204691D01*
X102211431Y-107331952D01*
X102152859Y-107473357D01*
X102123000Y-107623472D01*
X102123000Y-107776528D01*
X102152859Y-107926643D01*
X102211431Y-108068048D01*
X102296464Y-108195309D01*
X102404691Y-108303536D01*
X102531952Y-108388569D01*
X102673357Y-108447141D01*
X102823472Y-108477000D01*
X102976528Y-108477000D01*
X103126643Y-108447141D01*
X103268048Y-108388569D01*
X103395309Y-108303536D01*
X103503536Y-108195309D01*
X103588569Y-108068048D01*
X103647141Y-107926643D01*
X103676707Y-107777999D01*
X103810000Y-107777999D01*
X103810000Y-108598000D01*
X102078824Y-108598000D01*
X102078824Y-107300000D01*
X102071545Y-107226095D01*
X102049988Y-107155030D01*
X102014981Y-107089537D01*
X101967869Y-107032131D01*
X101910463Y-106985019D01*
X101844970Y-106950012D01*
X101773905Y-106928455D01*
X101700000Y-106921176D01*
X101270000Y-106921176D01*
X101270000Y-103319932D01*
X102399934Y-102189999D01*
X102680067Y-102189999D01*
X103269067Y-102779000D01*
X103138470Y-102779000D01*
X102988355Y-102808859D01*
X102846950Y-102867431D01*
X102719689Y-102952464D01*
X102611462Y-103060691D01*
X102526429Y-103187952D01*
X102467857Y-103329357D01*
X102437998Y-103479472D01*
X102437998Y-103632528D01*
X102467857Y-103782643D01*
X102526429Y-103924048D01*
X102611462Y-104051309D01*
X102719689Y-104159536D01*
X102846950Y-104244569D01*
X102988355Y-104303141D01*
X103138470Y-104333000D01*
X103291526Y-104333000D01*
X103441641Y-104303141D01*
X103583046Y-104244569D01*
X103710307Y-104159536D01*
X103818534Y-104051309D01*
X103826758Y-104039001D01*
X107991067Y-104039001D01*
X108015859Y-104163643D01*
X108074431Y-104305048D01*
X108159464Y-104432309D01*
X108267691Y-104540536D01*
X108394952Y-104625569D01*
X108536357Y-104684141D01*
X108686472Y-104714000D01*
X108830065Y-104714000D01*
X108861604Y-104745539D01*
X108877317Y-104764685D01*
X108953756Y-104827418D01*
X109040965Y-104874032D01*
X109135592Y-104902737D01*
X109209348Y-104910001D01*
X109209357Y-104910001D01*
X109234000Y-104912428D01*
X109258643Y-104910001D01*
X111950356Y-104910001D01*
X111974999Y-104912428D01*
X111999642Y-104910001D01*
X111999652Y-104910001D01*
X112073408Y-104902737D01*
X112168035Y-104874032D01*
X112255244Y-104827418D01*
X112331683Y-104764685D01*
X112347401Y-104745533D01*
X112378934Y-104714000D01*
X112522528Y-104714000D01*
X112672643Y-104684141D01*
X112814048Y-104625569D01*
X112941309Y-104540536D01*
X113049536Y-104432309D01*
X113134569Y-104305048D01*
X113193141Y-104163643D01*
X113223000Y-104013528D01*
X113223000Y-103860472D01*
X113193141Y-103710357D01*
X113134569Y-103568952D01*
X113049536Y-103441691D01*
X112941309Y-103333464D01*
X112814048Y-103248431D01*
X112672643Y-103189859D01*
X112522528Y-103160000D01*
X112369472Y-103160000D01*
X112219357Y-103189859D01*
X112077952Y-103248431D01*
X112030241Y-103280311D01*
X112051736Y-103209451D01*
X112059000Y-103135695D01*
X112059000Y-103135686D01*
X112061427Y-103111043D01*
X112059000Y-103086400D01*
X112059000Y-102150758D01*
X112400760Y-101808999D01*
X115069065Y-101808999D01*
X115225000Y-101964934D01*
X115225000Y-102108528D01*
X115254859Y-102258643D01*
X115313431Y-102400048D01*
X115398464Y-102527309D01*
X115500001Y-102628846D01*
X115500000Y-103676972D01*
X115483969Y-103706965D01*
X115475146Y-103736051D01*
X115382042Y-103829155D01*
X115238448Y-103829155D01*
X115088333Y-103859014D01*
X114946928Y-103917586D01*
X114819667Y-104002619D01*
X114711440Y-104110846D01*
X114626407Y-104238107D01*
X114567835Y-104379512D01*
X114537976Y-104529627D01*
X114537976Y-104682683D01*
X114567835Y-104832798D01*
X114626407Y-104974203D01*
X114711440Y-105101464D01*
X114819667Y-105209691D01*
X114946928Y-105294724D01*
X115088333Y-105353296D01*
X115238448Y-105383155D01*
X115391504Y-105383155D01*
X115541619Y-105353296D01*
X115683024Y-105294724D01*
X115810285Y-105209691D01*
X115918512Y-105101464D01*
X116003545Y-104974203D01*
X116062117Y-104832798D01*
X116091976Y-104682683D01*
X116091976Y-104539089D01*
X116287532Y-104343533D01*
X116306684Y-104327815D01*
X116369417Y-104251376D01*
X116387660Y-104217246D01*
X116416031Y-104164168D01*
X116434160Y-104104403D01*
X116468031Y-104041036D01*
X116496736Y-103946409D01*
X116504000Y-103872653D01*
X116504000Y-103872644D01*
X116506427Y-103848001D01*
X116504000Y-103823358D01*
X116504000Y-102628845D01*
X116605536Y-102527309D01*
X116690569Y-102400048D01*
X116749141Y-102258643D01*
X116770000Y-102153773D01*
X116770000Y-102782996D01*
X116767573Y-102807639D01*
X116770000Y-102832282D01*
X116770000Y-102832291D01*
X116777264Y-102906047D01*
X116805969Y-103000674D01*
X116852583Y-103087884D01*
X116915316Y-103164323D01*
X116934467Y-103180040D01*
X117841968Y-104087543D01*
X117857677Y-104106684D01*
X117876817Y-104122392D01*
X117876825Y-104122400D01*
X117934115Y-104169417D01*
X117967812Y-104187428D01*
X118021325Y-104216031D01*
X118115952Y-104244736D01*
X118189708Y-104252000D01*
X118189718Y-104252000D01*
X118214361Y-104254427D01*
X118239004Y-104252000D01*
X124578185Y-104252000D01*
X124605667Y-104254395D01*
X124651905Y-104249316D01*
X124698409Y-104244736D01*
X124701138Y-104243908D01*
X124703961Y-104243598D01*
X124748343Y-104229589D01*
X124793036Y-104216031D01*
X124795549Y-104214688D01*
X124798260Y-104213832D01*
X124839082Y-104191419D01*
X124880245Y-104169417D01*
X124882447Y-104167610D01*
X124884940Y-104166241D01*
X124920657Y-104136251D01*
X124956684Y-104106684D01*
X124974189Y-104085355D01*
X127139721Y-101870606D01*
X127156684Y-101856684D01*
X127174192Y-101835351D01*
X127176168Y-101833330D01*
X127189844Y-101816279D01*
X127219417Y-101780245D01*
X127220757Y-101777737D01*
X127222539Y-101775516D01*
X127244064Y-101734134D01*
X127266031Y-101693036D01*
X127266857Y-101690314D01*
X127268170Y-101687789D01*
X127281198Y-101643036D01*
X127294736Y-101598409D01*
X127295015Y-101595576D01*
X127295810Y-101592845D01*
X127299852Y-101546460D01*
X127302000Y-101524653D01*
X127302000Y-101521815D01*
X127304395Y-101494333D01*
X127302000Y-101472527D01*
X127302000Y-101221845D01*
X127403536Y-101120309D01*
X127488569Y-100993048D01*
X127547141Y-100851643D01*
X127577000Y-100701528D01*
X127577000Y-100548472D01*
X127547866Y-100402000D01*
X138862000Y-100402000D01*
X138862000Y-108598000D01*
G37*
X138862000Y-108598000D02*
X135464434Y-108598000D01*
X135982935Y-108079500D01*
X136126528Y-108079500D01*
X136276643Y-108049641D01*
X136418048Y-107991069D01*
X136545309Y-107906036D01*
X136653536Y-107797809D01*
X136738569Y-107670548D01*
X136797141Y-107529143D01*
X136827000Y-107379028D01*
X136827000Y-107225972D01*
X136797141Y-107075857D01*
X136738569Y-106934452D01*
X136653536Y-106807191D01*
X136545309Y-106698964D01*
X136418048Y-106613931D01*
X136353327Y-106587123D01*
X136454888Y-106519262D01*
X136563115Y-106411035D01*
X136648148Y-106283774D01*
X136706720Y-106142369D01*
X136736579Y-105992254D01*
X136736579Y-105839198D01*
X136706720Y-105689083D01*
X136648148Y-105547678D01*
X136563115Y-105420417D01*
X136454888Y-105312190D01*
X136330715Y-105229220D01*
X137882936Y-103677000D01*
X138026528Y-103677000D01*
X138176643Y-103647141D01*
X138318048Y-103588569D01*
X138445309Y-103503536D01*
X138553536Y-103395309D01*
X138638569Y-103268048D01*
X138697141Y-103126643D01*
X138727000Y-102976528D01*
X138727000Y-102823472D01*
X138697141Y-102673357D01*
X138638569Y-102531952D01*
X138553536Y-102404691D01*
X138445309Y-102296464D01*
X138318048Y-102211431D01*
X138176643Y-102152859D01*
X138026528Y-102123000D01*
X137873472Y-102123000D01*
X137723357Y-102152859D01*
X137581952Y-102211431D01*
X137454691Y-102296464D01*
X137346464Y-102404691D01*
X137261431Y-102531952D01*
X137202859Y-102673357D01*
X137194285Y-102716462D01*
X137138569Y-102581952D01*
X137053536Y-102454691D01*
X136945309Y-102346464D01*
X136818048Y-102261431D01*
X136676643Y-102202859D01*
X136526528Y-102173000D01*
X136373472Y-102173000D01*
X136223357Y-102202859D01*
X136081952Y-102261431D01*
X135954691Y-102346464D01*
X135846464Y-102454691D01*
X135761431Y-102581952D01*
X135702859Y-102723357D01*
X135673000Y-102873472D01*
X135673000Y-103017065D01*
X132942068Y-105747998D01*
X126310262Y-105747998D01*
X126313569Y-105743048D01*
X126372141Y-105601643D01*
X126402000Y-105451528D01*
X126402000Y-105298472D01*
X126372141Y-105148357D01*
X126313569Y-105006952D01*
X126228536Y-104879691D01*
X126120309Y-104771464D01*
X125993048Y-104686431D01*
X125851643Y-104627859D01*
X125701528Y-104598000D01*
X125548472Y-104598000D01*
X125398357Y-104627859D01*
X125256952Y-104686431D01*
X125129691Y-104771464D01*
X125028155Y-104873000D01*
X124826639Y-104873000D01*
X124801996Y-104870573D01*
X124777353Y-104873000D01*
X124777343Y-104873000D01*
X124703587Y-104880264D01*
X124608960Y-104908969D01*
X124521751Y-104955583D01*
X124445312Y-105018316D01*
X124429599Y-105037462D01*
X121841062Y-107626000D01*
X112780935Y-107626000D01*
X112093400Y-106938466D01*
X112077683Y-106919315D01*
X112001244Y-106856582D01*
X111914035Y-106809968D01*
X111819408Y-106781263D01*
X111745652Y-106773999D01*
X111745642Y-106773999D01*
X111720999Y-106771572D01*
X111696356Y-106773999D01*
X107747000Y-106773999D01*
X107747000Y-106477000D01*
X107744560Y-106452224D01*
X107737333Y-106428399D01*
X107725597Y-106406443D01*
X107709803Y-106387197D01*
X107690557Y-106371403D01*
X107668601Y-106359667D01*
X107644776Y-106352440D01*
X107620000Y-106350000D01*
X103937000Y-106350000D01*
X103912224Y-106352440D01*
X103888399Y-106359667D01*
X103866443Y-106371403D01*
X103847197Y-106387197D01*
X103831403Y-106406443D01*
X103819667Y-106428399D01*
X103812440Y-106452224D01*
X103810000Y-106477000D01*
X103810000Y-106773999D01*
X103348644Y-106773999D01*
X103324001Y-106771572D01*
X103299358Y-106773999D01*
X103299348Y-106773999D01*
X103225592Y-106781263D01*
X103130965Y-106809968D01*
X103043756Y-106856582D01*
X102967317Y-106919315D01*
X102964293Y-106923000D01*
X102823472Y-106923000D01*
X102673357Y-106952859D01*
X102531952Y-107011431D01*
X102404691Y-107096464D01*
X102296464Y-107204691D01*
X102211431Y-107331952D01*
X102152859Y-107473357D01*
X102123000Y-107623472D01*
X102123000Y-107776528D01*
X102152859Y-107926643D01*
X102211431Y-108068048D01*
X102296464Y-108195309D01*
X102404691Y-108303536D01*
X102531952Y-108388569D01*
X102673357Y-108447141D01*
X102823472Y-108477000D01*
X102976528Y-108477000D01*
X103126643Y-108447141D01*
X103268048Y-108388569D01*
X103395309Y-108303536D01*
X103503536Y-108195309D01*
X103588569Y-108068048D01*
X103647141Y-107926643D01*
X103676707Y-107777999D01*
X103810000Y-107777999D01*
X103810000Y-108598000D01*
X102078824Y-108598000D01*
X102078824Y-107300000D01*
X102071545Y-107226095D01*
X102049988Y-107155030D01*
X102014981Y-107089537D01*
X101967869Y-107032131D01*
X101910463Y-106985019D01*
X101844970Y-106950012D01*
X101773905Y-106928455D01*
X101700000Y-106921176D01*
X101270000Y-106921176D01*
X101270000Y-103319932D01*
X102399934Y-102189999D01*
X102680067Y-102189999D01*
X103269067Y-102779000D01*
X103138470Y-102779000D01*
X102988355Y-102808859D01*
X102846950Y-102867431D01*
X102719689Y-102952464D01*
X102611462Y-103060691D01*
X102526429Y-103187952D01*
X102467857Y-103329357D01*
X102437998Y-103479472D01*
X102437998Y-103632528D01*
X102467857Y-103782643D01*
X102526429Y-103924048D01*
X102611462Y-104051309D01*
X102719689Y-104159536D01*
X102846950Y-104244569D01*
X102988355Y-104303141D01*
X103138470Y-104333000D01*
X103291526Y-104333000D01*
X103441641Y-104303141D01*
X103583046Y-104244569D01*
X103710307Y-104159536D01*
X103818534Y-104051309D01*
X103826758Y-104039001D01*
X107991067Y-104039001D01*
X108015859Y-104163643D01*
X108074431Y-104305048D01*
X108159464Y-104432309D01*
X108267691Y-104540536D01*
X108394952Y-104625569D01*
X108536357Y-104684141D01*
X108686472Y-104714000D01*
X108830065Y-104714000D01*
X108861604Y-104745539D01*
X108877317Y-104764685D01*
X108953756Y-104827418D01*
X109040965Y-104874032D01*
X109135592Y-104902737D01*
X109209348Y-104910001D01*
X109209357Y-104910001D01*
X109234000Y-104912428D01*
X109258643Y-104910001D01*
X111950356Y-104910001D01*
X111974999Y-104912428D01*
X111999642Y-104910001D01*
X111999652Y-104910001D01*
X112073408Y-104902737D01*
X112168035Y-104874032D01*
X112255244Y-104827418D01*
X112331683Y-104764685D01*
X112347401Y-104745533D01*
X112378934Y-104714000D01*
X112522528Y-104714000D01*
X112672643Y-104684141D01*
X112814048Y-104625569D01*
X112941309Y-104540536D01*
X113049536Y-104432309D01*
X113134569Y-104305048D01*
X113193141Y-104163643D01*
X113223000Y-104013528D01*
X113223000Y-103860472D01*
X113193141Y-103710357D01*
X113134569Y-103568952D01*
X113049536Y-103441691D01*
X112941309Y-103333464D01*
X112814048Y-103248431D01*
X112672643Y-103189859D01*
X112522528Y-103160000D01*
X112369472Y-103160000D01*
X112219357Y-103189859D01*
X112077952Y-103248431D01*
X112030241Y-103280311D01*
X112051736Y-103209451D01*
X112059000Y-103135695D01*
X112059000Y-103135686D01*
X112061427Y-103111043D01*
X112059000Y-103086400D01*
X112059000Y-102150758D01*
X112400760Y-101808999D01*
X115069065Y-101808999D01*
X115225000Y-101964934D01*
X115225000Y-102108528D01*
X115254859Y-102258643D01*
X115313431Y-102400048D01*
X115398464Y-102527309D01*
X115500001Y-102628846D01*
X115500000Y-103676972D01*
X115483969Y-103706965D01*
X115475146Y-103736051D01*
X115382042Y-103829155D01*
X115238448Y-103829155D01*
X115088333Y-103859014D01*
X114946928Y-103917586D01*
X114819667Y-104002619D01*
X114711440Y-104110846D01*
X114626407Y-104238107D01*
X114567835Y-104379512D01*
X114537976Y-104529627D01*
X114537976Y-104682683D01*
X114567835Y-104832798D01*
X114626407Y-104974203D01*
X114711440Y-105101464D01*
X114819667Y-105209691D01*
X114946928Y-105294724D01*
X115088333Y-105353296D01*
X115238448Y-105383155D01*
X115391504Y-105383155D01*
X115541619Y-105353296D01*
X115683024Y-105294724D01*
X115810285Y-105209691D01*
X115918512Y-105101464D01*
X116003545Y-104974203D01*
X116062117Y-104832798D01*
X116091976Y-104682683D01*
X116091976Y-104539089D01*
X116287532Y-104343533D01*
X116306684Y-104327815D01*
X116369417Y-104251376D01*
X116387660Y-104217246D01*
X116416031Y-104164168D01*
X116434160Y-104104403D01*
X116468031Y-104041036D01*
X116496736Y-103946409D01*
X116504000Y-103872653D01*
X116504000Y-103872644D01*
X116506427Y-103848001D01*
X116504000Y-103823358D01*
X116504000Y-102628845D01*
X116605536Y-102527309D01*
X116690569Y-102400048D01*
X116749141Y-102258643D01*
X116770000Y-102153773D01*
X116770000Y-102782996D01*
X116767573Y-102807639D01*
X116770000Y-102832282D01*
X116770000Y-102832291D01*
X116777264Y-102906047D01*
X116805969Y-103000674D01*
X116852583Y-103087884D01*
X116915316Y-103164323D01*
X116934467Y-103180040D01*
X117841968Y-104087543D01*
X117857677Y-104106684D01*
X117876817Y-104122392D01*
X117876825Y-104122400D01*
X117934115Y-104169417D01*
X117967812Y-104187428D01*
X118021325Y-104216031D01*
X118115952Y-104244736D01*
X118189708Y-104252000D01*
X118189718Y-104252000D01*
X118214361Y-104254427D01*
X118239004Y-104252000D01*
X124578185Y-104252000D01*
X124605667Y-104254395D01*
X124651905Y-104249316D01*
X124698409Y-104244736D01*
X124701138Y-104243908D01*
X124703961Y-104243598D01*
X124748343Y-104229589D01*
X124793036Y-104216031D01*
X124795549Y-104214688D01*
X124798260Y-104213832D01*
X124839082Y-104191419D01*
X124880245Y-104169417D01*
X124882447Y-104167610D01*
X124884940Y-104166241D01*
X124920657Y-104136251D01*
X124956684Y-104106684D01*
X124974189Y-104085355D01*
X127139721Y-101870606D01*
X127156684Y-101856684D01*
X127174192Y-101835351D01*
X127176168Y-101833330D01*
X127189844Y-101816279D01*
X127219417Y-101780245D01*
X127220757Y-101777737D01*
X127222539Y-101775516D01*
X127244064Y-101734134D01*
X127266031Y-101693036D01*
X127266857Y-101690314D01*
X127268170Y-101687789D01*
X127281198Y-101643036D01*
X127294736Y-101598409D01*
X127295015Y-101595576D01*
X127295810Y-101592845D01*
X127299852Y-101546460D01*
X127302000Y-101524653D01*
X127302000Y-101521815D01*
X127304395Y-101494333D01*
X127302000Y-101472527D01*
X127302000Y-101221845D01*
X127403536Y-101120309D01*
X127488569Y-100993048D01*
X127547141Y-100851643D01*
X127577000Y-100701528D01*
X127577000Y-100548472D01*
X127547866Y-100402000D01*
X138862000Y-100402000D01*
X138862000Y-108598000D01*
G36*
X138862000Y-120598000D02*
G01*
X135464434Y-120598000D01*
X135982935Y-120079500D01*
X136126528Y-120079500D01*
X136276643Y-120049641D01*
X136418048Y-119991069D01*
X136545309Y-119906036D01*
X136653536Y-119797809D01*
X136738569Y-119670548D01*
X136797141Y-119529143D01*
X136827000Y-119379028D01*
X136827000Y-119225972D01*
X136797141Y-119075857D01*
X136738569Y-118934452D01*
X136653536Y-118807191D01*
X136545309Y-118698964D01*
X136418048Y-118613931D01*
X136353327Y-118587123D01*
X136454888Y-118519262D01*
X136563115Y-118411035D01*
X136648148Y-118283774D01*
X136706720Y-118142369D01*
X136736579Y-117992254D01*
X136736579Y-117839198D01*
X136706720Y-117689083D01*
X136648148Y-117547678D01*
X136563115Y-117420417D01*
X136454888Y-117312190D01*
X136330715Y-117229220D01*
X137882936Y-115677000D01*
X138026528Y-115677000D01*
X138176643Y-115647141D01*
X138318048Y-115588569D01*
X138445309Y-115503536D01*
X138553536Y-115395309D01*
X138638569Y-115268048D01*
X138697141Y-115126643D01*
X138727000Y-114976528D01*
X138727000Y-114823472D01*
X138697141Y-114673357D01*
X138638569Y-114531952D01*
X138553536Y-114404691D01*
X138445309Y-114296464D01*
X138318048Y-114211431D01*
X138176643Y-114152859D01*
X138026528Y-114123000D01*
X137873472Y-114123000D01*
X137723357Y-114152859D01*
X137581952Y-114211431D01*
X137454691Y-114296464D01*
X137346464Y-114404691D01*
X137261431Y-114531952D01*
X137202859Y-114673357D01*
X137194285Y-114716462D01*
X137138569Y-114581952D01*
X137053536Y-114454691D01*
X136945309Y-114346464D01*
X136818048Y-114261431D01*
X136676643Y-114202859D01*
X136526528Y-114173000D01*
X136373472Y-114173000D01*
X136223357Y-114202859D01*
X136081952Y-114261431D01*
X135954691Y-114346464D01*
X135846464Y-114454691D01*
X135761431Y-114581952D01*
X135702859Y-114723357D01*
X135673000Y-114873472D01*
X135673000Y-115017065D01*
X132942068Y-117747998D01*
X126310262Y-117747998D01*
X126313569Y-117743048D01*
X126372141Y-117601643D01*
X126402000Y-117451528D01*
X126402000Y-117298472D01*
X126372141Y-117148357D01*
X126313569Y-117006952D01*
X126228536Y-116879691D01*
X126120309Y-116771464D01*
X125993048Y-116686431D01*
X125851643Y-116627859D01*
X125701528Y-116598000D01*
X125548472Y-116598000D01*
X125398357Y-116627859D01*
X125256952Y-116686431D01*
X125129691Y-116771464D01*
X125028155Y-116873000D01*
X124826639Y-116873000D01*
X124801996Y-116870573D01*
X124777353Y-116873000D01*
X124777343Y-116873000D01*
X124703587Y-116880264D01*
X124608960Y-116908969D01*
X124521751Y-116955583D01*
X124445312Y-117018316D01*
X124429599Y-117037462D01*
X121841062Y-119626000D01*
X112780935Y-119626000D01*
X112093400Y-118938466D01*
X112077683Y-118919315D01*
X112001244Y-118856582D01*
X111914035Y-118809968D01*
X111819408Y-118781263D01*
X111745652Y-118773999D01*
X111745642Y-118773999D01*
X111720999Y-118771572D01*
X111696356Y-118773999D01*
X107747000Y-118773999D01*
X107747000Y-118477000D01*
X107744560Y-118452224D01*
X107737333Y-118428399D01*
X107725597Y-118406443D01*
X107709803Y-118387197D01*
X107690557Y-118371403D01*
X107668601Y-118359667D01*
X107644776Y-118352440D01*
X107620000Y-118350000D01*
X103937000Y-118350000D01*
X103912224Y-118352440D01*
X103888399Y-118359667D01*
X103866443Y-118371403D01*
X103847197Y-118387197D01*
X103831403Y-118406443D01*
X103819667Y-118428399D01*
X103812440Y-118452224D01*
X103810000Y-118477000D01*
X103810000Y-118773999D01*
X103348644Y-118773999D01*
X103324001Y-118771572D01*
X103299358Y-118773999D01*
X103299348Y-118773999D01*
X103225592Y-118781263D01*
X103130965Y-118809968D01*
X103043756Y-118856582D01*
X102967317Y-118919315D01*
X102964293Y-118923000D01*
X102823472Y-118923000D01*
X102673357Y-118952859D01*
X102531952Y-119011431D01*
X102404691Y-119096464D01*
X102296464Y-119204691D01*
X102211431Y-119331952D01*
X102152859Y-119473357D01*
X102123000Y-119623472D01*
X102123000Y-119776528D01*
X102152859Y-119926643D01*
X102211431Y-120068048D01*
X102296464Y-120195309D01*
X102404691Y-120303536D01*
X102531952Y-120388569D01*
X102673357Y-120447141D01*
X102823472Y-120477000D01*
X102976528Y-120477000D01*
X103126643Y-120447141D01*
X103268048Y-120388569D01*
X103395309Y-120303536D01*
X103503536Y-120195309D01*
X103588569Y-120068048D01*
X103647141Y-119926643D01*
X103676707Y-119777999D01*
X103810000Y-119777999D01*
X103810000Y-120598000D01*
X102078824Y-120598000D01*
X102078824Y-119300000D01*
X102071545Y-119226095D01*
X102049988Y-119155030D01*
X102014981Y-119089537D01*
X101967869Y-119032131D01*
X101910463Y-118985019D01*
X101844970Y-118950012D01*
X101773905Y-118928455D01*
X101700000Y-118921176D01*
X101270000Y-118921176D01*
X101270000Y-115319932D01*
X102399934Y-114189999D01*
X102680067Y-114189999D01*
X103269067Y-114779000D01*
X103138470Y-114779000D01*
X102988355Y-114808859D01*
X102846950Y-114867431D01*
X102719689Y-114952464D01*
X102611462Y-115060691D01*
X102526429Y-115187952D01*
X102467857Y-115329357D01*
X102437998Y-115479472D01*
X102437998Y-115632528D01*
X102467857Y-115782643D01*
X102526429Y-115924048D01*
X102611462Y-116051309D01*
X102719689Y-116159536D01*
X102846950Y-116244569D01*
X102988355Y-116303141D01*
X103138470Y-116333000D01*
X103291526Y-116333000D01*
X103441641Y-116303141D01*
X103583046Y-116244569D01*
X103710307Y-116159536D01*
X103818534Y-116051309D01*
X103826758Y-116039001D01*
X107991067Y-116039001D01*
X108015859Y-116163643D01*
X108074431Y-116305048D01*
X108159464Y-116432309D01*
X108267691Y-116540536D01*
X108394952Y-116625569D01*
X108536357Y-116684141D01*
X108686472Y-116714000D01*
X108830065Y-116714000D01*
X108861604Y-116745539D01*
X108877317Y-116764685D01*
X108953756Y-116827418D01*
X109040965Y-116874032D01*
X109135592Y-116902737D01*
X109209348Y-116910001D01*
X109209357Y-116910001D01*
X109234000Y-116912428D01*
X109258643Y-116910001D01*
X111950356Y-116910001D01*
X111974999Y-116912428D01*
X111999642Y-116910001D01*
X111999652Y-116910001D01*
X112073408Y-116902737D01*
X112168035Y-116874032D01*
X112255244Y-116827418D01*
X112331683Y-116764685D01*
X112347401Y-116745533D01*
X112378934Y-116714000D01*
X112522528Y-116714000D01*
X112672643Y-116684141D01*
X112814048Y-116625569D01*
X112941309Y-116540536D01*
X113049536Y-116432309D01*
X113134569Y-116305048D01*
X113193141Y-116163643D01*
X113223000Y-116013528D01*
X113223000Y-115860472D01*
X113193141Y-115710357D01*
X113134569Y-115568952D01*
X113049536Y-115441691D01*
X112941309Y-115333464D01*
X112814048Y-115248431D01*
X112672643Y-115189859D01*
X112522528Y-115160000D01*
X112369472Y-115160000D01*
X112219357Y-115189859D01*
X112077952Y-115248431D01*
X112030241Y-115280311D01*
X112051736Y-115209451D01*
X112059000Y-115135695D01*
X112059000Y-115135686D01*
X112061427Y-115111043D01*
X112059000Y-115086400D01*
X112059000Y-114150758D01*
X112400760Y-113808999D01*
X115069065Y-113808999D01*
X115225000Y-113964934D01*
X115225000Y-114108528D01*
X115254859Y-114258643D01*
X115313431Y-114400048D01*
X115398464Y-114527309D01*
X115500001Y-114628846D01*
X115500000Y-115676972D01*
X115483969Y-115706965D01*
X115475146Y-115736051D01*
X115382042Y-115829155D01*
X115238448Y-115829155D01*
X115088333Y-115859014D01*
X114946928Y-115917586D01*
X114819667Y-116002619D01*
X114711440Y-116110846D01*
X114626407Y-116238107D01*
X114567835Y-116379512D01*
X114537976Y-116529627D01*
X114537976Y-116682683D01*
X114567835Y-116832798D01*
X114626407Y-116974203D01*
X114711440Y-117101464D01*
X114819667Y-117209691D01*
X114946928Y-117294724D01*
X115088333Y-117353296D01*
X115238448Y-117383155D01*
X115391504Y-117383155D01*
X115541619Y-117353296D01*
X115683024Y-117294724D01*
X115810285Y-117209691D01*
X115918512Y-117101464D01*
X116003545Y-116974203D01*
X116062117Y-116832798D01*
X116091976Y-116682683D01*
X116091976Y-116539089D01*
X116287532Y-116343533D01*
X116306684Y-116327815D01*
X116369417Y-116251376D01*
X116387660Y-116217246D01*
X116416031Y-116164168D01*
X116434160Y-116104403D01*
X116468031Y-116041036D01*
X116496736Y-115946409D01*
X116504000Y-115872653D01*
X116504000Y-115872644D01*
X116506427Y-115848001D01*
X116504000Y-115823358D01*
X116504000Y-114628845D01*
X116605536Y-114527309D01*
X116690569Y-114400048D01*
X116749141Y-114258643D01*
X116770000Y-114153773D01*
X116770000Y-114782996D01*
X116767573Y-114807639D01*
X116770000Y-114832282D01*
X116770000Y-114832291D01*
X116777264Y-114906047D01*
X116805969Y-115000674D01*
X116852583Y-115087884D01*
X116915316Y-115164323D01*
X116934467Y-115180040D01*
X117841968Y-116087543D01*
X117857677Y-116106684D01*
X117876817Y-116122392D01*
X117876825Y-116122400D01*
X117934115Y-116169417D01*
X117967812Y-116187428D01*
X118021325Y-116216031D01*
X118115952Y-116244736D01*
X118189708Y-116252000D01*
X118189718Y-116252000D01*
X118214361Y-116254427D01*
X118239004Y-116252000D01*
X124578185Y-116252000D01*
X124605667Y-116254395D01*
X124651905Y-116249316D01*
X124698409Y-116244736D01*
X124701138Y-116243908D01*
X124703961Y-116243598D01*
X124748343Y-116229589D01*
X124793036Y-116216031D01*
X124795549Y-116214688D01*
X124798260Y-116213832D01*
X124839082Y-116191419D01*
X124880245Y-116169417D01*
X124882447Y-116167610D01*
X124884940Y-116166241D01*
X124920657Y-116136251D01*
X124956684Y-116106684D01*
X124974189Y-116085355D01*
X127139721Y-113870606D01*
X127156684Y-113856684D01*
X127174192Y-113835351D01*
X127176168Y-113833330D01*
X127189844Y-113816279D01*
X127219417Y-113780245D01*
X127220757Y-113777737D01*
X127222539Y-113775516D01*
X127244064Y-113734134D01*
X127266031Y-113693036D01*
X127266857Y-113690314D01*
X127268170Y-113687789D01*
X127281198Y-113643036D01*
X127294736Y-113598409D01*
X127295015Y-113595576D01*
X127295810Y-113592845D01*
X127299852Y-113546460D01*
X127302000Y-113524653D01*
X127302000Y-113521815D01*
X127304395Y-113494333D01*
X127302000Y-113472527D01*
X127302000Y-113221845D01*
X127403536Y-113120309D01*
X127488569Y-112993048D01*
X127547141Y-112851643D01*
X127577000Y-112701528D01*
X127577000Y-112548472D01*
X127547866Y-112402000D01*
X138862000Y-112402000D01*
X138862000Y-120598000D01*
G37*
X138862000Y-120598000D02*
X135464434Y-120598000D01*
X135982935Y-120079500D01*
X136126528Y-120079500D01*
X136276643Y-120049641D01*
X136418048Y-119991069D01*
X136545309Y-119906036D01*
X136653536Y-119797809D01*
X136738569Y-119670548D01*
X136797141Y-119529143D01*
X136827000Y-119379028D01*
X136827000Y-119225972D01*
X136797141Y-119075857D01*
X136738569Y-118934452D01*
X136653536Y-118807191D01*
X136545309Y-118698964D01*
X136418048Y-118613931D01*
X136353327Y-118587123D01*
X136454888Y-118519262D01*
X136563115Y-118411035D01*
X136648148Y-118283774D01*
X136706720Y-118142369D01*
X136736579Y-117992254D01*
X136736579Y-117839198D01*
X136706720Y-117689083D01*
X136648148Y-117547678D01*
X136563115Y-117420417D01*
X136454888Y-117312190D01*
X136330715Y-117229220D01*
X137882936Y-115677000D01*
X138026528Y-115677000D01*
X138176643Y-115647141D01*
X138318048Y-115588569D01*
X138445309Y-115503536D01*
X138553536Y-115395309D01*
X138638569Y-115268048D01*
X138697141Y-115126643D01*
X138727000Y-114976528D01*
X138727000Y-114823472D01*
X138697141Y-114673357D01*
X138638569Y-114531952D01*
X138553536Y-114404691D01*
X138445309Y-114296464D01*
X138318048Y-114211431D01*
X138176643Y-114152859D01*
X138026528Y-114123000D01*
X137873472Y-114123000D01*
X137723357Y-114152859D01*
X137581952Y-114211431D01*
X137454691Y-114296464D01*
X137346464Y-114404691D01*
X137261431Y-114531952D01*
X137202859Y-114673357D01*
X137194285Y-114716462D01*
X137138569Y-114581952D01*
X137053536Y-114454691D01*
X136945309Y-114346464D01*
X136818048Y-114261431D01*
X136676643Y-114202859D01*
X136526528Y-114173000D01*
X136373472Y-114173000D01*
X136223357Y-114202859D01*
X136081952Y-114261431D01*
X135954691Y-114346464D01*
X135846464Y-114454691D01*
X135761431Y-114581952D01*
X135702859Y-114723357D01*
X135673000Y-114873472D01*
X135673000Y-115017065D01*
X132942068Y-117747998D01*
X126310262Y-117747998D01*
X126313569Y-117743048D01*
X126372141Y-117601643D01*
X126402000Y-117451528D01*
X126402000Y-117298472D01*
X126372141Y-117148357D01*
X126313569Y-117006952D01*
X126228536Y-116879691D01*
X126120309Y-116771464D01*
X125993048Y-116686431D01*
X125851643Y-116627859D01*
X125701528Y-116598000D01*
X125548472Y-116598000D01*
X125398357Y-116627859D01*
X125256952Y-116686431D01*
X125129691Y-116771464D01*
X125028155Y-116873000D01*
X124826639Y-116873000D01*
X124801996Y-116870573D01*
X124777353Y-116873000D01*
X124777343Y-116873000D01*
X124703587Y-116880264D01*
X124608960Y-116908969D01*
X124521751Y-116955583D01*
X124445312Y-117018316D01*
X124429599Y-117037462D01*
X121841062Y-119626000D01*
X112780935Y-119626000D01*
X112093400Y-118938466D01*
X112077683Y-118919315D01*
X112001244Y-118856582D01*
X111914035Y-118809968D01*
X111819408Y-118781263D01*
X111745652Y-118773999D01*
X111745642Y-118773999D01*
X111720999Y-118771572D01*
X111696356Y-118773999D01*
X107747000Y-118773999D01*
X107747000Y-118477000D01*
X107744560Y-118452224D01*
X107737333Y-118428399D01*
X107725597Y-118406443D01*
X107709803Y-118387197D01*
X107690557Y-118371403D01*
X107668601Y-118359667D01*
X107644776Y-118352440D01*
X107620000Y-118350000D01*
X103937000Y-118350000D01*
X103912224Y-118352440D01*
X103888399Y-118359667D01*
X103866443Y-118371403D01*
X103847197Y-118387197D01*
X103831403Y-118406443D01*
X103819667Y-118428399D01*
X103812440Y-118452224D01*
X103810000Y-118477000D01*
X103810000Y-118773999D01*
X103348644Y-118773999D01*
X103324001Y-118771572D01*
X103299358Y-118773999D01*
X103299348Y-118773999D01*
X103225592Y-118781263D01*
X103130965Y-118809968D01*
X103043756Y-118856582D01*
X102967317Y-118919315D01*
X102964293Y-118923000D01*
X102823472Y-118923000D01*
X102673357Y-118952859D01*
X102531952Y-119011431D01*
X102404691Y-119096464D01*
X102296464Y-119204691D01*
X102211431Y-119331952D01*
X102152859Y-119473357D01*
X102123000Y-119623472D01*
X102123000Y-119776528D01*
X102152859Y-119926643D01*
X102211431Y-120068048D01*
X102296464Y-120195309D01*
X102404691Y-120303536D01*
X102531952Y-120388569D01*
X102673357Y-120447141D01*
X102823472Y-120477000D01*
X102976528Y-120477000D01*
X103126643Y-120447141D01*
X103268048Y-120388569D01*
X103395309Y-120303536D01*
X103503536Y-120195309D01*
X103588569Y-120068048D01*
X103647141Y-119926643D01*
X103676707Y-119777999D01*
X103810000Y-119777999D01*
X103810000Y-120598000D01*
X102078824Y-120598000D01*
X102078824Y-119300000D01*
X102071545Y-119226095D01*
X102049988Y-119155030D01*
X102014981Y-119089537D01*
X101967869Y-119032131D01*
X101910463Y-118985019D01*
X101844970Y-118950012D01*
X101773905Y-118928455D01*
X101700000Y-118921176D01*
X101270000Y-118921176D01*
X101270000Y-115319932D01*
X102399934Y-114189999D01*
X102680067Y-114189999D01*
X103269067Y-114779000D01*
X103138470Y-114779000D01*
X102988355Y-114808859D01*
X102846950Y-114867431D01*
X102719689Y-114952464D01*
X102611462Y-115060691D01*
X102526429Y-115187952D01*
X102467857Y-115329357D01*
X102437998Y-115479472D01*
X102437998Y-115632528D01*
X102467857Y-115782643D01*
X102526429Y-115924048D01*
X102611462Y-116051309D01*
X102719689Y-116159536D01*
X102846950Y-116244569D01*
X102988355Y-116303141D01*
X103138470Y-116333000D01*
X103291526Y-116333000D01*
X103441641Y-116303141D01*
X103583046Y-116244569D01*
X103710307Y-116159536D01*
X103818534Y-116051309D01*
X103826758Y-116039001D01*
X107991067Y-116039001D01*
X108015859Y-116163643D01*
X108074431Y-116305048D01*
X108159464Y-116432309D01*
X108267691Y-116540536D01*
X108394952Y-116625569D01*
X108536357Y-116684141D01*
X108686472Y-116714000D01*
X108830065Y-116714000D01*
X108861604Y-116745539D01*
X108877317Y-116764685D01*
X108953756Y-116827418D01*
X109040965Y-116874032D01*
X109135592Y-116902737D01*
X109209348Y-116910001D01*
X109209357Y-116910001D01*
X109234000Y-116912428D01*
X109258643Y-116910001D01*
X111950356Y-116910001D01*
X111974999Y-116912428D01*
X111999642Y-116910001D01*
X111999652Y-116910001D01*
X112073408Y-116902737D01*
X112168035Y-116874032D01*
X112255244Y-116827418D01*
X112331683Y-116764685D01*
X112347401Y-116745533D01*
X112378934Y-116714000D01*
X112522528Y-116714000D01*
X112672643Y-116684141D01*
X112814048Y-116625569D01*
X112941309Y-116540536D01*
X113049536Y-116432309D01*
X113134569Y-116305048D01*
X113193141Y-116163643D01*
X113223000Y-116013528D01*
X113223000Y-115860472D01*
X113193141Y-115710357D01*
X113134569Y-115568952D01*
X113049536Y-115441691D01*
X112941309Y-115333464D01*
X112814048Y-115248431D01*
X112672643Y-115189859D01*
X112522528Y-115160000D01*
X112369472Y-115160000D01*
X112219357Y-115189859D01*
X112077952Y-115248431D01*
X112030241Y-115280311D01*
X112051736Y-115209451D01*
X112059000Y-115135695D01*
X112059000Y-115135686D01*
X112061427Y-115111043D01*
X112059000Y-115086400D01*
X112059000Y-114150758D01*
X112400760Y-113808999D01*
X115069065Y-113808999D01*
X115225000Y-113964934D01*
X115225000Y-114108528D01*
X115254859Y-114258643D01*
X115313431Y-114400048D01*
X115398464Y-114527309D01*
X115500001Y-114628846D01*
X115500000Y-115676972D01*
X115483969Y-115706965D01*
X115475146Y-115736051D01*
X115382042Y-115829155D01*
X115238448Y-115829155D01*
X115088333Y-115859014D01*
X114946928Y-115917586D01*
X114819667Y-116002619D01*
X114711440Y-116110846D01*
X114626407Y-116238107D01*
X114567835Y-116379512D01*
X114537976Y-116529627D01*
X114537976Y-116682683D01*
X114567835Y-116832798D01*
X114626407Y-116974203D01*
X114711440Y-117101464D01*
X114819667Y-117209691D01*
X114946928Y-117294724D01*
X115088333Y-117353296D01*
X115238448Y-117383155D01*
X115391504Y-117383155D01*
X115541619Y-117353296D01*
X115683024Y-117294724D01*
X115810285Y-117209691D01*
X115918512Y-117101464D01*
X116003545Y-116974203D01*
X116062117Y-116832798D01*
X116091976Y-116682683D01*
X116091976Y-116539089D01*
X116287532Y-116343533D01*
X116306684Y-116327815D01*
X116369417Y-116251376D01*
X116387660Y-116217246D01*
X116416031Y-116164168D01*
X116434160Y-116104403D01*
X116468031Y-116041036D01*
X116496736Y-115946409D01*
X116504000Y-115872653D01*
X116504000Y-115872644D01*
X116506427Y-115848001D01*
X116504000Y-115823358D01*
X116504000Y-114628845D01*
X116605536Y-114527309D01*
X116690569Y-114400048D01*
X116749141Y-114258643D01*
X116770000Y-114153773D01*
X116770000Y-114782996D01*
X116767573Y-114807639D01*
X116770000Y-114832282D01*
X116770000Y-114832291D01*
X116777264Y-114906047D01*
X116805969Y-115000674D01*
X116852583Y-115087884D01*
X116915316Y-115164323D01*
X116934467Y-115180040D01*
X117841968Y-116087543D01*
X117857677Y-116106684D01*
X117876817Y-116122392D01*
X117876825Y-116122400D01*
X117934115Y-116169417D01*
X117967812Y-116187428D01*
X118021325Y-116216031D01*
X118115952Y-116244736D01*
X118189708Y-116252000D01*
X118189718Y-116252000D01*
X118214361Y-116254427D01*
X118239004Y-116252000D01*
X124578185Y-116252000D01*
X124605667Y-116254395D01*
X124651905Y-116249316D01*
X124698409Y-116244736D01*
X124701138Y-116243908D01*
X124703961Y-116243598D01*
X124748343Y-116229589D01*
X124793036Y-116216031D01*
X124795549Y-116214688D01*
X124798260Y-116213832D01*
X124839082Y-116191419D01*
X124880245Y-116169417D01*
X124882447Y-116167610D01*
X124884940Y-116166241D01*
X124920657Y-116136251D01*
X124956684Y-116106684D01*
X124974189Y-116085355D01*
X127139721Y-113870606D01*
X127156684Y-113856684D01*
X127174192Y-113835351D01*
X127176168Y-113833330D01*
X127189844Y-113816279D01*
X127219417Y-113780245D01*
X127220757Y-113777737D01*
X127222539Y-113775516D01*
X127244064Y-113734134D01*
X127266031Y-113693036D01*
X127266857Y-113690314D01*
X127268170Y-113687789D01*
X127281198Y-113643036D01*
X127294736Y-113598409D01*
X127295015Y-113595576D01*
X127295810Y-113592845D01*
X127299852Y-113546460D01*
X127302000Y-113524653D01*
X127302000Y-113521815D01*
X127304395Y-113494333D01*
X127302000Y-113472527D01*
X127302000Y-113221845D01*
X127403536Y-113120309D01*
X127488569Y-112993048D01*
X127547141Y-112851643D01*
X127577000Y-112701528D01*
X127577000Y-112548472D01*
X127547866Y-112402000D01*
X138862000Y-112402000D01*
X138862000Y-120598000D01*
M02*
