G04 #@! TF.GenerationSoftware,KiCad,Pcbnew,(5.1.10)-1*
G04 #@! TF.CreationDate,2021-07-08T16:07:52-07:00*
G04 #@! TF.ProjectId,panelized,70616e65-6c69-47a6-9564-2e6b69636164,rev?*
G04 #@! TF.SameCoordinates,Original*
G04 #@! TF.FileFunction,Paste,Top*
G04 #@! TF.FilePolarity,Positive*
%FSLAX46Y46*%
G04 Gerber Fmt 4.6, Leading zero omitted, Abs format (unit mm)*
G04 Created by KiCad (PCBNEW (5.1.10)-1) date 2021-07-08 16:07:52*
%MOMM*%
%LPD*%
G01*
G04 APERTURE LIST*
%ADD10R,0.400000X0.650000*%
%ADD11R,0.700000X0.450000*%
%ADD12R,0.400000X0.350000*%
%ADD13R,0.250000X1.600000*%
%ADD14R,1.600000X1.000000*%
%ADD15R,1.060000X0.650000*%
%ADD16R,0.450000X0.700000*%
G04 APERTURE END LIST*
G36*
G01*
X129350000Y-119400000D02*
X129350000Y-119700000D01*
G75*
G02*
X129200000Y-119850000I-150000J0D01*
G01*
X128700000Y-119850000D01*
G75*
G02*
X128550000Y-119700000I0J150000D01*
G01*
X128550000Y-119400000D01*
G75*
G02*
X128700000Y-119250000I150000J0D01*
G01*
X129200000Y-119250000D01*
G75*
G02*
X129350000Y-119400000I0J-150000D01*
G01*
G37*
G36*
G01*
X130750000Y-119400000D02*
X130750000Y-119700000D01*
G75*
G02*
X130600000Y-119850000I-150000J0D01*
G01*
X130100000Y-119850000D01*
G75*
G02*
X129950000Y-119700000I0J150000D01*
G01*
X129950000Y-119400000D01*
G75*
G02*
X130100000Y-119250000I150000J0D01*
G01*
X130600000Y-119250000D01*
G75*
G02*
X130750000Y-119400000I0J-150000D01*
G01*
G37*
G36*
G01*
X113759000Y-116572500D02*
X113759000Y-116227500D01*
G75*
G02*
X113906500Y-116080000I147500J0D01*
G01*
X114201500Y-116080000D01*
G75*
G02*
X114349000Y-116227500I0J-147500D01*
G01*
X114349000Y-116572500D01*
G75*
G02*
X114201500Y-116720000I-147500J0D01*
G01*
X113906500Y-116720000D01*
G75*
G02*
X113759000Y-116572500I0J147500D01*
G01*
G37*
G36*
G01*
X114729000Y-116572500D02*
X114729000Y-116227500D01*
G75*
G02*
X114876500Y-116080000I147500J0D01*
G01*
X115171500Y-116080000D01*
G75*
G02*
X115319000Y-116227500I0J-147500D01*
G01*
X115319000Y-116572500D01*
G75*
G02*
X115171500Y-116720000I-147500J0D01*
G01*
X114876500Y-116720000D01*
G75*
G02*
X114729000Y-116572500I0J147500D01*
G01*
G37*
G36*
G01*
X129375000Y-118500000D02*
X129275000Y-118500000D01*
G75*
G02*
X129225000Y-118450000I0J50000D01*
G01*
X129225000Y-117750000D01*
G75*
G02*
X129275000Y-117700000I50000J0D01*
G01*
X129375000Y-117700000D01*
G75*
G02*
X129425000Y-117750000I0J-50000D01*
G01*
X129425000Y-118450000D01*
G75*
G02*
X129375000Y-118500000I-50000J0D01*
G01*
G37*
G36*
G01*
X129725000Y-118500000D02*
X129625000Y-118500000D01*
G75*
G02*
X129575000Y-118450000I0J50000D01*
G01*
X129575000Y-117750000D01*
G75*
G02*
X129625000Y-117700000I50000J0D01*
G01*
X129725000Y-117700000D01*
G75*
G02*
X129775000Y-117750000I0J-50000D01*
G01*
X129775000Y-118450000D01*
G75*
G02*
X129725000Y-118500000I-50000J0D01*
G01*
G37*
G36*
G01*
X130075000Y-118500000D02*
X129975000Y-118500000D01*
G75*
G02*
X129925000Y-118450000I0J50000D01*
G01*
X129925000Y-117750000D01*
G75*
G02*
X129975000Y-117700000I50000J0D01*
G01*
X130075000Y-117700000D01*
G75*
G02*
X130125000Y-117750000I0J-50000D01*
G01*
X130125000Y-118450000D01*
G75*
G02*
X130075000Y-118500000I-50000J0D01*
G01*
G37*
G36*
G01*
X130425000Y-118500000D02*
X130325000Y-118500000D01*
G75*
G02*
X130275000Y-118450000I0J50000D01*
G01*
X130275000Y-117750000D01*
G75*
G02*
X130325000Y-117700000I50000J0D01*
G01*
X130425000Y-117700000D01*
G75*
G02*
X130475000Y-117750000I0J-50000D01*
G01*
X130475000Y-118450000D01*
G75*
G02*
X130425000Y-118500000I-50000J0D01*
G01*
G37*
G36*
G01*
X130775000Y-118500000D02*
X130675000Y-118500000D01*
G75*
G02*
X130625000Y-118450000I0J50000D01*
G01*
X130625000Y-117750000D01*
G75*
G02*
X130675000Y-117700000I50000J0D01*
G01*
X130775000Y-117700000D01*
G75*
G02*
X130825000Y-117750000I0J-50000D01*
G01*
X130825000Y-118450000D01*
G75*
G02*
X130775000Y-118500000I-50000J0D01*
G01*
G37*
G36*
G01*
X131125000Y-118500000D02*
X131025000Y-118500000D01*
G75*
G02*
X130975000Y-118450000I0J50000D01*
G01*
X130975000Y-117750000D01*
G75*
G02*
X131025000Y-117700000I50000J0D01*
G01*
X131125000Y-117700000D01*
G75*
G02*
X131175000Y-117750000I0J-50000D01*
G01*
X131175000Y-118450000D01*
G75*
G02*
X131125000Y-118500000I-50000J0D01*
G01*
G37*
G36*
G01*
X131475000Y-118500000D02*
X131375000Y-118500000D01*
G75*
G02*
X131325000Y-118450000I0J50000D01*
G01*
X131325000Y-117750000D01*
G75*
G02*
X131375000Y-117700000I50000J0D01*
G01*
X131475000Y-117700000D01*
G75*
G02*
X131525000Y-117750000I0J-50000D01*
G01*
X131525000Y-118450000D01*
G75*
G02*
X131475000Y-118500000I-50000J0D01*
G01*
G37*
G36*
G01*
X131825000Y-118500000D02*
X131725000Y-118500000D01*
G75*
G02*
X131675000Y-118450000I0J50000D01*
G01*
X131675000Y-117750000D01*
G75*
G02*
X131725000Y-117700000I50000J0D01*
G01*
X131825000Y-117700000D01*
G75*
G02*
X131875000Y-117750000I0J-50000D01*
G01*
X131875000Y-118450000D01*
G75*
G02*
X131825000Y-118500000I-50000J0D01*
G01*
G37*
G36*
G01*
X132175000Y-118500000D02*
X132075000Y-118500000D01*
G75*
G02*
X132025000Y-118450000I0J50000D01*
G01*
X132025000Y-117750000D01*
G75*
G02*
X132075000Y-117700000I50000J0D01*
G01*
X132175000Y-117700000D01*
G75*
G02*
X132225000Y-117750000I0J-50000D01*
G01*
X132225000Y-118450000D01*
G75*
G02*
X132175000Y-118500000I-50000J0D01*
G01*
G37*
G36*
G01*
X132525000Y-118500000D02*
X132425000Y-118500000D01*
G75*
G02*
X132375000Y-118450000I0J50000D01*
G01*
X132375000Y-117750000D01*
G75*
G02*
X132425000Y-117700000I50000J0D01*
G01*
X132525000Y-117700000D01*
G75*
G02*
X132575000Y-117750000I0J-50000D01*
G01*
X132575000Y-118450000D01*
G75*
G02*
X132525000Y-118500000I-50000J0D01*
G01*
G37*
G36*
G01*
X132875000Y-118500000D02*
X132775000Y-118500000D01*
G75*
G02*
X132725000Y-118450000I0J50000D01*
G01*
X132725000Y-117750000D01*
G75*
G02*
X132775000Y-117700000I50000J0D01*
G01*
X132875000Y-117700000D01*
G75*
G02*
X132925000Y-117750000I0J-50000D01*
G01*
X132925000Y-118450000D01*
G75*
G02*
X132875000Y-118500000I-50000J0D01*
G01*
G37*
G36*
G01*
X133225000Y-118500000D02*
X133125000Y-118500000D01*
G75*
G02*
X133075000Y-118450000I0J50000D01*
G01*
X133075000Y-117750000D01*
G75*
G02*
X133125000Y-117700000I50000J0D01*
G01*
X133225000Y-117700000D01*
G75*
G02*
X133275000Y-117750000I0J-50000D01*
G01*
X133275000Y-118450000D01*
G75*
G02*
X133225000Y-118500000I-50000J0D01*
G01*
G37*
G36*
G01*
X133575000Y-118500000D02*
X133475000Y-118500000D01*
G75*
G02*
X133425000Y-118450000I0J50000D01*
G01*
X133425000Y-117750000D01*
G75*
G02*
X133475000Y-117700000I50000J0D01*
G01*
X133575000Y-117700000D01*
G75*
G02*
X133625000Y-117750000I0J-50000D01*
G01*
X133625000Y-118450000D01*
G75*
G02*
X133575000Y-118500000I-50000J0D01*
G01*
G37*
G36*
G01*
X133925000Y-118500000D02*
X133825000Y-118500000D01*
G75*
G02*
X133775000Y-118450000I0J50000D01*
G01*
X133775000Y-117750000D01*
G75*
G02*
X133825000Y-117700000I50000J0D01*
G01*
X133925000Y-117700000D01*
G75*
G02*
X133975000Y-117750000I0J-50000D01*
G01*
X133975000Y-118450000D01*
G75*
G02*
X133925000Y-118500000I-50000J0D01*
G01*
G37*
G36*
G01*
X134400000Y-117325000D02*
X133700000Y-117325000D01*
G75*
G02*
X133650000Y-117275000I0J50000D01*
G01*
X133650000Y-117175000D01*
G75*
G02*
X133700000Y-117125000I50000J0D01*
G01*
X134400000Y-117125000D01*
G75*
G02*
X134450000Y-117175000I0J-50000D01*
G01*
X134450000Y-117275000D01*
G75*
G02*
X134400000Y-117325000I-50000J0D01*
G01*
G37*
G36*
G01*
X134400000Y-116975000D02*
X133700000Y-116975000D01*
G75*
G02*
X133650000Y-116925000I0J50000D01*
G01*
X133650000Y-116825000D01*
G75*
G02*
X133700000Y-116775000I50000J0D01*
G01*
X134400000Y-116775000D01*
G75*
G02*
X134450000Y-116825000I0J-50000D01*
G01*
X134450000Y-116925000D01*
G75*
G02*
X134400000Y-116975000I-50000J0D01*
G01*
G37*
G36*
G01*
X134400000Y-116625000D02*
X133700000Y-116625000D01*
G75*
G02*
X133650000Y-116575000I0J50000D01*
G01*
X133650000Y-116475000D01*
G75*
G02*
X133700000Y-116425000I50000J0D01*
G01*
X134400000Y-116425000D01*
G75*
G02*
X134450000Y-116475000I0J-50000D01*
G01*
X134450000Y-116575000D01*
G75*
G02*
X134400000Y-116625000I-50000J0D01*
G01*
G37*
G36*
G01*
X134400000Y-116275000D02*
X133700000Y-116275000D01*
G75*
G02*
X133650000Y-116225000I0J50000D01*
G01*
X133650000Y-116125000D01*
G75*
G02*
X133700000Y-116075000I50000J0D01*
G01*
X134400000Y-116075000D01*
G75*
G02*
X134450000Y-116125000I0J-50000D01*
G01*
X134450000Y-116225000D01*
G75*
G02*
X134400000Y-116275000I-50000J0D01*
G01*
G37*
G36*
G01*
X134400000Y-115925000D02*
X133700000Y-115925000D01*
G75*
G02*
X133650000Y-115875000I0J50000D01*
G01*
X133650000Y-115775000D01*
G75*
G02*
X133700000Y-115725000I50000J0D01*
G01*
X134400000Y-115725000D01*
G75*
G02*
X134450000Y-115775000I0J-50000D01*
G01*
X134450000Y-115875000D01*
G75*
G02*
X134400000Y-115925000I-50000J0D01*
G01*
G37*
G36*
G01*
X134400000Y-115575000D02*
X133700000Y-115575000D01*
G75*
G02*
X133650000Y-115525000I0J50000D01*
G01*
X133650000Y-115425000D01*
G75*
G02*
X133700000Y-115375000I50000J0D01*
G01*
X134400000Y-115375000D01*
G75*
G02*
X134450000Y-115425000I0J-50000D01*
G01*
X134450000Y-115525000D01*
G75*
G02*
X134400000Y-115575000I-50000J0D01*
G01*
G37*
G36*
G01*
X134400000Y-115225000D02*
X133700000Y-115225000D01*
G75*
G02*
X133650000Y-115175000I0J50000D01*
G01*
X133650000Y-115075000D01*
G75*
G02*
X133700000Y-115025000I50000J0D01*
G01*
X134400000Y-115025000D01*
G75*
G02*
X134450000Y-115075000I0J-50000D01*
G01*
X134450000Y-115175000D01*
G75*
G02*
X134400000Y-115225000I-50000J0D01*
G01*
G37*
G36*
G01*
X134400000Y-114875000D02*
X133700000Y-114875000D01*
G75*
G02*
X133650000Y-114825000I0J50000D01*
G01*
X133650000Y-114725000D01*
G75*
G02*
X133700000Y-114675000I50000J0D01*
G01*
X134400000Y-114675000D01*
G75*
G02*
X134450000Y-114725000I0J-50000D01*
G01*
X134450000Y-114825000D01*
G75*
G02*
X134400000Y-114875000I-50000J0D01*
G01*
G37*
G36*
G01*
X134400000Y-114525000D02*
X133700000Y-114525000D01*
G75*
G02*
X133650000Y-114475000I0J50000D01*
G01*
X133650000Y-114375000D01*
G75*
G02*
X133700000Y-114325000I50000J0D01*
G01*
X134400000Y-114325000D01*
G75*
G02*
X134450000Y-114375000I0J-50000D01*
G01*
X134450000Y-114475000D01*
G75*
G02*
X134400000Y-114525000I-50000J0D01*
G01*
G37*
G36*
G01*
X134400000Y-114175000D02*
X133700000Y-114175000D01*
G75*
G02*
X133650000Y-114125000I0J50000D01*
G01*
X133650000Y-114025000D01*
G75*
G02*
X133700000Y-113975000I50000J0D01*
G01*
X134400000Y-113975000D01*
G75*
G02*
X134450000Y-114025000I0J-50000D01*
G01*
X134450000Y-114125000D01*
G75*
G02*
X134400000Y-114175000I-50000J0D01*
G01*
G37*
G36*
G01*
X133925000Y-113600000D02*
X133825000Y-113600000D01*
G75*
G02*
X133775000Y-113550000I0J50000D01*
G01*
X133775000Y-112850000D01*
G75*
G02*
X133825000Y-112800000I50000J0D01*
G01*
X133925000Y-112800000D01*
G75*
G02*
X133975000Y-112850000I0J-50000D01*
G01*
X133975000Y-113550000D01*
G75*
G02*
X133925000Y-113600000I-50000J0D01*
G01*
G37*
G36*
G01*
X133575000Y-113600000D02*
X133475000Y-113600000D01*
G75*
G02*
X133425000Y-113550000I0J50000D01*
G01*
X133425000Y-112850000D01*
G75*
G02*
X133475000Y-112800000I50000J0D01*
G01*
X133575000Y-112800000D01*
G75*
G02*
X133625000Y-112850000I0J-50000D01*
G01*
X133625000Y-113550000D01*
G75*
G02*
X133575000Y-113600000I-50000J0D01*
G01*
G37*
G36*
G01*
X133225000Y-113600000D02*
X133125000Y-113600000D01*
G75*
G02*
X133075000Y-113550000I0J50000D01*
G01*
X133075000Y-112850000D01*
G75*
G02*
X133125000Y-112800000I50000J0D01*
G01*
X133225000Y-112800000D01*
G75*
G02*
X133275000Y-112850000I0J-50000D01*
G01*
X133275000Y-113550000D01*
G75*
G02*
X133225000Y-113600000I-50000J0D01*
G01*
G37*
G36*
G01*
X132875000Y-113600000D02*
X132775000Y-113600000D01*
G75*
G02*
X132725000Y-113550000I0J50000D01*
G01*
X132725000Y-112850000D01*
G75*
G02*
X132775000Y-112800000I50000J0D01*
G01*
X132875000Y-112800000D01*
G75*
G02*
X132925000Y-112850000I0J-50000D01*
G01*
X132925000Y-113550000D01*
G75*
G02*
X132875000Y-113600000I-50000J0D01*
G01*
G37*
G36*
G01*
X132525000Y-113600000D02*
X132425000Y-113600000D01*
G75*
G02*
X132375000Y-113550000I0J50000D01*
G01*
X132375000Y-112850000D01*
G75*
G02*
X132425000Y-112800000I50000J0D01*
G01*
X132525000Y-112800000D01*
G75*
G02*
X132575000Y-112850000I0J-50000D01*
G01*
X132575000Y-113550000D01*
G75*
G02*
X132525000Y-113600000I-50000J0D01*
G01*
G37*
G36*
G01*
X132175000Y-113600000D02*
X132075000Y-113600000D01*
G75*
G02*
X132025000Y-113550000I0J50000D01*
G01*
X132025000Y-112850000D01*
G75*
G02*
X132075000Y-112800000I50000J0D01*
G01*
X132175000Y-112800000D01*
G75*
G02*
X132225000Y-112850000I0J-50000D01*
G01*
X132225000Y-113550000D01*
G75*
G02*
X132175000Y-113600000I-50000J0D01*
G01*
G37*
G36*
G01*
X131825000Y-113600000D02*
X131725000Y-113600000D01*
G75*
G02*
X131675000Y-113550000I0J50000D01*
G01*
X131675000Y-112850000D01*
G75*
G02*
X131725000Y-112800000I50000J0D01*
G01*
X131825000Y-112800000D01*
G75*
G02*
X131875000Y-112850000I0J-50000D01*
G01*
X131875000Y-113550000D01*
G75*
G02*
X131825000Y-113600000I-50000J0D01*
G01*
G37*
G36*
G01*
X131475000Y-113600000D02*
X131375000Y-113600000D01*
G75*
G02*
X131325000Y-113550000I0J50000D01*
G01*
X131325000Y-112850000D01*
G75*
G02*
X131375000Y-112800000I50000J0D01*
G01*
X131475000Y-112800000D01*
G75*
G02*
X131525000Y-112850000I0J-50000D01*
G01*
X131525000Y-113550000D01*
G75*
G02*
X131475000Y-113600000I-50000J0D01*
G01*
G37*
G36*
G01*
X131125000Y-113600000D02*
X131025000Y-113600000D01*
G75*
G02*
X130975000Y-113550000I0J50000D01*
G01*
X130975000Y-112850000D01*
G75*
G02*
X131025000Y-112800000I50000J0D01*
G01*
X131125000Y-112800000D01*
G75*
G02*
X131175000Y-112850000I0J-50000D01*
G01*
X131175000Y-113550000D01*
G75*
G02*
X131125000Y-113600000I-50000J0D01*
G01*
G37*
G36*
G01*
X130775000Y-113600000D02*
X130675000Y-113600000D01*
G75*
G02*
X130625000Y-113550000I0J50000D01*
G01*
X130625000Y-112850000D01*
G75*
G02*
X130675000Y-112800000I50000J0D01*
G01*
X130775000Y-112800000D01*
G75*
G02*
X130825000Y-112850000I0J-50000D01*
G01*
X130825000Y-113550000D01*
G75*
G02*
X130775000Y-113600000I-50000J0D01*
G01*
G37*
G36*
G01*
X130425000Y-113600000D02*
X130325000Y-113600000D01*
G75*
G02*
X130275000Y-113550000I0J50000D01*
G01*
X130275000Y-112850000D01*
G75*
G02*
X130325000Y-112800000I50000J0D01*
G01*
X130425000Y-112800000D01*
G75*
G02*
X130475000Y-112850000I0J-50000D01*
G01*
X130475000Y-113550000D01*
G75*
G02*
X130425000Y-113600000I-50000J0D01*
G01*
G37*
G36*
G01*
X130075000Y-113600000D02*
X129975000Y-113600000D01*
G75*
G02*
X129925000Y-113550000I0J50000D01*
G01*
X129925000Y-112850000D01*
G75*
G02*
X129975000Y-112800000I50000J0D01*
G01*
X130075000Y-112800000D01*
G75*
G02*
X130125000Y-112850000I0J-50000D01*
G01*
X130125000Y-113550000D01*
G75*
G02*
X130075000Y-113600000I-50000J0D01*
G01*
G37*
G36*
G01*
X129725000Y-113600000D02*
X129625000Y-113600000D01*
G75*
G02*
X129575000Y-113550000I0J50000D01*
G01*
X129575000Y-112850000D01*
G75*
G02*
X129625000Y-112800000I50000J0D01*
G01*
X129725000Y-112800000D01*
G75*
G02*
X129775000Y-112850000I0J-50000D01*
G01*
X129775000Y-113550000D01*
G75*
G02*
X129725000Y-113600000I-50000J0D01*
G01*
G37*
G36*
G01*
X129375000Y-113600000D02*
X129275000Y-113600000D01*
G75*
G02*
X129225000Y-113550000I0J50000D01*
G01*
X129225000Y-112850000D01*
G75*
G02*
X129275000Y-112800000I50000J0D01*
G01*
X129375000Y-112800000D01*
G75*
G02*
X129425000Y-112850000I0J-50000D01*
G01*
X129425000Y-113550000D01*
G75*
G02*
X129375000Y-113600000I-50000J0D01*
G01*
G37*
G36*
G01*
X129500000Y-114175000D02*
X128800000Y-114175000D01*
G75*
G02*
X128750000Y-114125000I0J50000D01*
G01*
X128750000Y-114025000D01*
G75*
G02*
X128800000Y-113975000I50000J0D01*
G01*
X129500000Y-113975000D01*
G75*
G02*
X129550000Y-114025000I0J-50000D01*
G01*
X129550000Y-114125000D01*
G75*
G02*
X129500000Y-114175000I-50000J0D01*
G01*
G37*
G36*
G01*
X129500000Y-114525000D02*
X128800000Y-114525000D01*
G75*
G02*
X128750000Y-114475000I0J50000D01*
G01*
X128750000Y-114375000D01*
G75*
G02*
X128800000Y-114325000I50000J0D01*
G01*
X129500000Y-114325000D01*
G75*
G02*
X129550000Y-114375000I0J-50000D01*
G01*
X129550000Y-114475000D01*
G75*
G02*
X129500000Y-114525000I-50000J0D01*
G01*
G37*
G36*
G01*
X129500000Y-114875000D02*
X128800000Y-114875000D01*
G75*
G02*
X128750000Y-114825000I0J50000D01*
G01*
X128750000Y-114725000D01*
G75*
G02*
X128800000Y-114675000I50000J0D01*
G01*
X129500000Y-114675000D01*
G75*
G02*
X129550000Y-114725000I0J-50000D01*
G01*
X129550000Y-114825000D01*
G75*
G02*
X129500000Y-114875000I-50000J0D01*
G01*
G37*
G36*
G01*
X129500000Y-115225000D02*
X128800000Y-115225000D01*
G75*
G02*
X128750000Y-115175000I0J50000D01*
G01*
X128750000Y-115075000D01*
G75*
G02*
X128800000Y-115025000I50000J0D01*
G01*
X129500000Y-115025000D01*
G75*
G02*
X129550000Y-115075000I0J-50000D01*
G01*
X129550000Y-115175000D01*
G75*
G02*
X129500000Y-115225000I-50000J0D01*
G01*
G37*
G36*
G01*
X129500000Y-115575000D02*
X128800000Y-115575000D01*
G75*
G02*
X128750000Y-115525000I0J50000D01*
G01*
X128750000Y-115425000D01*
G75*
G02*
X128800000Y-115375000I50000J0D01*
G01*
X129500000Y-115375000D01*
G75*
G02*
X129550000Y-115425000I0J-50000D01*
G01*
X129550000Y-115525000D01*
G75*
G02*
X129500000Y-115575000I-50000J0D01*
G01*
G37*
G36*
G01*
X129500000Y-115925000D02*
X128800000Y-115925000D01*
G75*
G02*
X128750000Y-115875000I0J50000D01*
G01*
X128750000Y-115775000D01*
G75*
G02*
X128800000Y-115725000I50000J0D01*
G01*
X129500000Y-115725000D01*
G75*
G02*
X129550000Y-115775000I0J-50000D01*
G01*
X129550000Y-115875000D01*
G75*
G02*
X129500000Y-115925000I-50000J0D01*
G01*
G37*
G36*
G01*
X129500000Y-116275000D02*
X128800000Y-116275000D01*
G75*
G02*
X128750000Y-116225000I0J50000D01*
G01*
X128750000Y-116125000D01*
G75*
G02*
X128800000Y-116075000I50000J0D01*
G01*
X129500000Y-116075000D01*
G75*
G02*
X129550000Y-116125000I0J-50000D01*
G01*
X129550000Y-116225000D01*
G75*
G02*
X129500000Y-116275000I-50000J0D01*
G01*
G37*
G36*
G01*
X129500000Y-116625000D02*
X128800000Y-116625000D01*
G75*
G02*
X128750000Y-116575000I0J50000D01*
G01*
X128750000Y-116475000D01*
G75*
G02*
X128800000Y-116425000I50000J0D01*
G01*
X129500000Y-116425000D01*
G75*
G02*
X129550000Y-116475000I0J-50000D01*
G01*
X129550000Y-116575000D01*
G75*
G02*
X129500000Y-116625000I-50000J0D01*
G01*
G37*
G36*
G01*
X129500000Y-116975000D02*
X128800000Y-116975000D01*
G75*
G02*
X128750000Y-116925000I0J50000D01*
G01*
X128750000Y-116825000D01*
G75*
G02*
X128800000Y-116775000I50000J0D01*
G01*
X129500000Y-116775000D01*
G75*
G02*
X129550000Y-116825000I0J-50000D01*
G01*
X129550000Y-116925000D01*
G75*
G02*
X129500000Y-116975000I-50000J0D01*
G01*
G37*
G36*
G01*
X129500000Y-117325000D02*
X128800000Y-117325000D01*
G75*
G02*
X128750000Y-117275000I0J50000D01*
G01*
X128750000Y-117175000D01*
G75*
G02*
X128800000Y-117125000I50000J0D01*
G01*
X129500000Y-117125000D01*
G75*
G02*
X129550000Y-117175000I0J-50000D01*
G01*
X129550000Y-117275000D01*
G75*
G02*
X129500000Y-117325000I-50000J0D01*
G01*
G37*
G36*
G01*
X130617500Y-117375000D02*
X130122500Y-117375000D01*
G75*
G02*
X129875000Y-117127500I0J247500D01*
G01*
X129875000Y-116632500D01*
G75*
G02*
X130122500Y-116385000I247500J0D01*
G01*
X130617500Y-116385000D01*
G75*
G02*
X130865000Y-116632500I0J-247500D01*
G01*
X130865000Y-117127500D01*
G75*
G02*
X130617500Y-117375000I-247500J0D01*
G01*
G37*
G36*
G01*
X131847500Y-117375000D02*
X131352500Y-117375000D01*
G75*
G02*
X131105000Y-117127500I0J247500D01*
G01*
X131105000Y-116632500D01*
G75*
G02*
X131352500Y-116385000I247500J0D01*
G01*
X131847500Y-116385000D01*
G75*
G02*
X132095000Y-116632500I0J-247500D01*
G01*
X132095000Y-117127500D01*
G75*
G02*
X131847500Y-117375000I-247500J0D01*
G01*
G37*
G36*
G01*
X133077500Y-117375000D02*
X132582500Y-117375000D01*
G75*
G02*
X132335000Y-117127500I0J247500D01*
G01*
X132335000Y-116632500D01*
G75*
G02*
X132582500Y-116385000I247500J0D01*
G01*
X133077500Y-116385000D01*
G75*
G02*
X133325000Y-116632500I0J-247500D01*
G01*
X133325000Y-117127500D01*
G75*
G02*
X133077500Y-117375000I-247500J0D01*
G01*
G37*
G36*
G01*
X130617500Y-116145000D02*
X130122500Y-116145000D01*
G75*
G02*
X129875000Y-115897500I0J247500D01*
G01*
X129875000Y-115402500D01*
G75*
G02*
X130122500Y-115155000I247500J0D01*
G01*
X130617500Y-115155000D01*
G75*
G02*
X130865000Y-115402500I0J-247500D01*
G01*
X130865000Y-115897500D01*
G75*
G02*
X130617500Y-116145000I-247500J0D01*
G01*
G37*
G36*
G01*
X131847500Y-116145000D02*
X131352500Y-116145000D01*
G75*
G02*
X131105000Y-115897500I0J247500D01*
G01*
X131105000Y-115402500D01*
G75*
G02*
X131352500Y-115155000I247500J0D01*
G01*
X131847500Y-115155000D01*
G75*
G02*
X132095000Y-115402500I0J-247500D01*
G01*
X132095000Y-115897500D01*
G75*
G02*
X131847500Y-116145000I-247500J0D01*
G01*
G37*
G36*
G01*
X133077500Y-116145000D02*
X132582500Y-116145000D01*
G75*
G02*
X132335000Y-115897500I0J247500D01*
G01*
X132335000Y-115402500D01*
G75*
G02*
X132582500Y-115155000I247500J0D01*
G01*
X133077500Y-115155000D01*
G75*
G02*
X133325000Y-115402500I0J-247500D01*
G01*
X133325000Y-115897500D01*
G75*
G02*
X133077500Y-116145000I-247500J0D01*
G01*
G37*
G36*
G01*
X130617500Y-114915000D02*
X130122500Y-114915000D01*
G75*
G02*
X129875000Y-114667500I0J247500D01*
G01*
X129875000Y-114172500D01*
G75*
G02*
X130122500Y-113925000I247500J0D01*
G01*
X130617500Y-113925000D01*
G75*
G02*
X130865000Y-114172500I0J-247500D01*
G01*
X130865000Y-114667500D01*
G75*
G02*
X130617500Y-114915000I-247500J0D01*
G01*
G37*
G36*
G01*
X131847500Y-114915000D02*
X131352500Y-114915000D01*
G75*
G02*
X131105000Y-114667500I0J247500D01*
G01*
X131105000Y-114172500D01*
G75*
G02*
X131352500Y-113925000I247500J0D01*
G01*
X131847500Y-113925000D01*
G75*
G02*
X132095000Y-114172500I0J-247500D01*
G01*
X132095000Y-114667500D01*
G75*
G02*
X131847500Y-114915000I-247500J0D01*
G01*
G37*
G36*
G01*
X133077500Y-114915000D02*
X132582500Y-114915000D01*
G75*
G02*
X132335000Y-114667500I0J247500D01*
G01*
X132335000Y-114172500D01*
G75*
G02*
X132582500Y-113925000I247500J0D01*
G01*
X133077500Y-113925000D01*
G75*
G02*
X133325000Y-114172500I0J-247500D01*
G01*
X133325000Y-114667500D01*
G75*
G02*
X133077500Y-114915000I-247500J0D01*
G01*
G37*
D10*
X137750000Y-116300000D03*
X136450000Y-116300000D03*
X137100000Y-114400000D03*
X137100000Y-116300000D03*
X136450000Y-114400000D03*
X137750000Y-114400000D03*
G36*
G01*
X136827500Y-119075000D02*
X137172500Y-119075000D01*
G75*
G02*
X137320000Y-119222500I0J-147500D01*
G01*
X137320000Y-119517500D01*
G75*
G02*
X137172500Y-119665000I-147500J0D01*
G01*
X136827500Y-119665000D01*
G75*
G02*
X136680000Y-119517500I0J147500D01*
G01*
X136680000Y-119222500D01*
G75*
G02*
X136827500Y-119075000I147500J0D01*
G01*
G37*
G36*
G01*
X136827500Y-118105000D02*
X137172500Y-118105000D01*
G75*
G02*
X137320000Y-118252500I0J-147500D01*
G01*
X137320000Y-118547500D01*
G75*
G02*
X137172500Y-118695000I-147500J0D01*
G01*
X136827500Y-118695000D01*
G75*
G02*
X136680000Y-118547500I0J147500D01*
G01*
X136680000Y-118252500D01*
G75*
G02*
X136827500Y-118105000I147500J0D01*
G01*
G37*
G36*
G01*
X116172500Y-117910000D02*
X115827500Y-117910000D01*
G75*
G02*
X115680000Y-117762500I0J147500D01*
G01*
X115680000Y-117467500D01*
G75*
G02*
X115827500Y-117320000I147500J0D01*
G01*
X116172500Y-117320000D01*
G75*
G02*
X116320000Y-117467500I0J-147500D01*
G01*
X116320000Y-117762500D01*
G75*
G02*
X116172500Y-117910000I-147500J0D01*
G01*
G37*
G36*
G01*
X116172500Y-118880000D02*
X115827500Y-118880000D01*
G75*
G02*
X115680000Y-118732500I0J147500D01*
G01*
X115680000Y-118437500D01*
G75*
G02*
X115827500Y-118290000I147500J0D01*
G01*
X116172500Y-118290000D01*
G75*
G02*
X116320000Y-118437500I0J-147500D01*
G01*
X116320000Y-118732500D01*
G75*
G02*
X116172500Y-118880000I-147500J0D01*
G01*
G37*
G36*
G01*
X138127500Y-119075000D02*
X138472500Y-119075000D01*
G75*
G02*
X138620000Y-119222500I0J-147500D01*
G01*
X138620000Y-119517500D01*
G75*
G02*
X138472500Y-119665000I-147500J0D01*
G01*
X138127500Y-119665000D01*
G75*
G02*
X137980000Y-119517500I0J147500D01*
G01*
X137980000Y-119222500D01*
G75*
G02*
X138127500Y-119075000I147500J0D01*
G01*
G37*
G36*
G01*
X138127500Y-118105000D02*
X138472500Y-118105000D01*
G75*
G02*
X138620000Y-118252500I0J-147500D01*
G01*
X138620000Y-118547500D01*
G75*
G02*
X138472500Y-118695000I-147500J0D01*
G01*
X138127500Y-118695000D01*
G75*
G02*
X137980000Y-118547500I0J147500D01*
G01*
X137980000Y-118252500D01*
G75*
G02*
X138127500Y-118105000I147500J0D01*
G01*
G37*
G36*
G01*
X121724999Y-116825000D02*
X122275001Y-116825000D01*
G75*
G02*
X122525000Y-117074999I0J-249999D01*
G01*
X122525000Y-117625001D01*
G75*
G02*
X122275001Y-117875000I-249999J0D01*
G01*
X121724999Y-117875000D01*
G75*
G02*
X121475000Y-117625001I0J249999D01*
G01*
X121475000Y-117074999D01*
G75*
G02*
X121724999Y-116825000I249999J0D01*
G01*
G37*
G36*
G01*
X120424999Y-116825000D02*
X120975001Y-116825000D01*
G75*
G02*
X121225000Y-117074999I0J-249999D01*
G01*
X121225000Y-117625001D01*
G75*
G02*
X120975001Y-117875000I-249999J0D01*
G01*
X120424999Y-117875000D01*
G75*
G02*
X120175000Y-117625001I0J249999D01*
G01*
X120175000Y-117074999D01*
G75*
G02*
X120424999Y-116825000I249999J0D01*
G01*
G37*
G36*
G01*
X121724999Y-118125000D02*
X122275001Y-118125000D01*
G75*
G02*
X122525000Y-118374999I0J-249999D01*
G01*
X122525000Y-118925001D01*
G75*
G02*
X122275001Y-119175000I-249999J0D01*
G01*
X121724999Y-119175000D01*
G75*
G02*
X121475000Y-118925001I0J249999D01*
G01*
X121475000Y-118374999D01*
G75*
G02*
X121724999Y-118125000I249999J0D01*
G01*
G37*
G36*
G01*
X120424999Y-118125000D02*
X120975001Y-118125000D01*
G75*
G02*
X121225000Y-118374999I0J-249999D01*
G01*
X121225000Y-118925001D01*
G75*
G02*
X120975001Y-119175000I-249999J0D01*
G01*
X120424999Y-119175000D01*
G75*
G02*
X120175000Y-118925001I0J249999D01*
G01*
X120175000Y-118374999D01*
G75*
G02*
X120424999Y-118125000I249999J0D01*
G01*
G37*
G36*
G01*
X122537500Y-115650000D02*
X122662500Y-115650000D01*
G75*
G02*
X122725000Y-115712500I0J-62500D01*
G01*
X122725000Y-116412500D01*
G75*
G02*
X122662500Y-116475000I-62500J0D01*
G01*
X122537500Y-116475000D01*
G75*
G02*
X122475000Y-116412500I0J62500D01*
G01*
X122475000Y-115712500D01*
G75*
G02*
X122537500Y-115650000I62500J0D01*
G01*
G37*
G36*
G01*
X122037500Y-115650000D02*
X122162500Y-115650000D01*
G75*
G02*
X122225000Y-115712500I0J-62500D01*
G01*
X122225000Y-116412500D01*
G75*
G02*
X122162500Y-116475000I-62500J0D01*
G01*
X122037500Y-116475000D01*
G75*
G02*
X121975000Y-116412500I0J62500D01*
G01*
X121975000Y-115712500D01*
G75*
G02*
X122037500Y-115650000I62500J0D01*
G01*
G37*
G36*
G01*
X121537500Y-115650000D02*
X121662500Y-115650000D01*
G75*
G02*
X121725000Y-115712500I0J-62500D01*
G01*
X121725000Y-116412500D01*
G75*
G02*
X121662500Y-116475000I-62500J0D01*
G01*
X121537500Y-116475000D01*
G75*
G02*
X121475000Y-116412500I0J62500D01*
G01*
X121475000Y-115712500D01*
G75*
G02*
X121537500Y-115650000I62500J0D01*
G01*
G37*
G36*
G01*
X121037500Y-115650000D02*
X121162500Y-115650000D01*
G75*
G02*
X121225000Y-115712500I0J-62500D01*
G01*
X121225000Y-116412500D01*
G75*
G02*
X121162500Y-116475000I-62500J0D01*
G01*
X121037500Y-116475000D01*
G75*
G02*
X120975000Y-116412500I0J62500D01*
G01*
X120975000Y-115712500D01*
G75*
G02*
X121037500Y-115650000I62500J0D01*
G01*
G37*
G36*
G01*
X120537500Y-115650000D02*
X120662500Y-115650000D01*
G75*
G02*
X120725000Y-115712500I0J-62500D01*
G01*
X120725000Y-116412500D01*
G75*
G02*
X120662500Y-116475000I-62500J0D01*
G01*
X120537500Y-116475000D01*
G75*
G02*
X120475000Y-116412500I0J62500D01*
G01*
X120475000Y-115712500D01*
G75*
G02*
X120537500Y-115650000I62500J0D01*
G01*
G37*
G36*
G01*
X120037500Y-115650000D02*
X120162500Y-115650000D01*
G75*
G02*
X120225000Y-115712500I0J-62500D01*
G01*
X120225000Y-116412500D01*
G75*
G02*
X120162500Y-116475000I-62500J0D01*
G01*
X120037500Y-116475000D01*
G75*
G02*
X119975000Y-116412500I0J62500D01*
G01*
X119975000Y-115712500D01*
G75*
G02*
X120037500Y-115650000I62500J0D01*
G01*
G37*
G36*
G01*
X119062500Y-116625000D02*
X119762500Y-116625000D01*
G75*
G02*
X119825000Y-116687500I0J-62500D01*
G01*
X119825000Y-116812500D01*
G75*
G02*
X119762500Y-116875000I-62500J0D01*
G01*
X119062500Y-116875000D01*
G75*
G02*
X119000000Y-116812500I0J62500D01*
G01*
X119000000Y-116687500D01*
G75*
G02*
X119062500Y-116625000I62500J0D01*
G01*
G37*
G36*
G01*
X119062500Y-117125000D02*
X119762500Y-117125000D01*
G75*
G02*
X119825000Y-117187500I0J-62500D01*
G01*
X119825000Y-117312500D01*
G75*
G02*
X119762500Y-117375000I-62500J0D01*
G01*
X119062500Y-117375000D01*
G75*
G02*
X119000000Y-117312500I0J62500D01*
G01*
X119000000Y-117187500D01*
G75*
G02*
X119062500Y-117125000I62500J0D01*
G01*
G37*
G36*
G01*
X119062500Y-117625000D02*
X119762500Y-117625000D01*
G75*
G02*
X119825000Y-117687500I0J-62500D01*
G01*
X119825000Y-117812500D01*
G75*
G02*
X119762500Y-117875000I-62500J0D01*
G01*
X119062500Y-117875000D01*
G75*
G02*
X119000000Y-117812500I0J62500D01*
G01*
X119000000Y-117687500D01*
G75*
G02*
X119062500Y-117625000I62500J0D01*
G01*
G37*
G36*
G01*
X119062500Y-118125000D02*
X119762500Y-118125000D01*
G75*
G02*
X119825000Y-118187500I0J-62500D01*
G01*
X119825000Y-118312500D01*
G75*
G02*
X119762500Y-118375000I-62500J0D01*
G01*
X119062500Y-118375000D01*
G75*
G02*
X119000000Y-118312500I0J62500D01*
G01*
X119000000Y-118187500D01*
G75*
G02*
X119062500Y-118125000I62500J0D01*
G01*
G37*
G36*
G01*
X119062500Y-118625000D02*
X119762500Y-118625000D01*
G75*
G02*
X119825000Y-118687500I0J-62500D01*
G01*
X119825000Y-118812500D01*
G75*
G02*
X119762500Y-118875000I-62500J0D01*
G01*
X119062500Y-118875000D01*
G75*
G02*
X119000000Y-118812500I0J62500D01*
G01*
X119000000Y-118687500D01*
G75*
G02*
X119062500Y-118625000I62500J0D01*
G01*
G37*
G36*
G01*
X119062500Y-119125000D02*
X119762500Y-119125000D01*
G75*
G02*
X119825000Y-119187500I0J-62500D01*
G01*
X119825000Y-119312500D01*
G75*
G02*
X119762500Y-119375000I-62500J0D01*
G01*
X119062500Y-119375000D01*
G75*
G02*
X119000000Y-119312500I0J62500D01*
G01*
X119000000Y-119187500D01*
G75*
G02*
X119062500Y-119125000I62500J0D01*
G01*
G37*
G36*
G01*
X120037500Y-119525000D02*
X120162500Y-119525000D01*
G75*
G02*
X120225000Y-119587500I0J-62500D01*
G01*
X120225000Y-120287500D01*
G75*
G02*
X120162500Y-120350000I-62500J0D01*
G01*
X120037500Y-120350000D01*
G75*
G02*
X119975000Y-120287500I0J62500D01*
G01*
X119975000Y-119587500D01*
G75*
G02*
X120037500Y-119525000I62500J0D01*
G01*
G37*
G36*
G01*
X120537500Y-119525000D02*
X120662500Y-119525000D01*
G75*
G02*
X120725000Y-119587500I0J-62500D01*
G01*
X120725000Y-120287500D01*
G75*
G02*
X120662500Y-120350000I-62500J0D01*
G01*
X120537500Y-120350000D01*
G75*
G02*
X120475000Y-120287500I0J62500D01*
G01*
X120475000Y-119587500D01*
G75*
G02*
X120537500Y-119525000I62500J0D01*
G01*
G37*
G36*
G01*
X121037500Y-119525000D02*
X121162500Y-119525000D01*
G75*
G02*
X121225000Y-119587500I0J-62500D01*
G01*
X121225000Y-120287500D01*
G75*
G02*
X121162500Y-120350000I-62500J0D01*
G01*
X121037500Y-120350000D01*
G75*
G02*
X120975000Y-120287500I0J62500D01*
G01*
X120975000Y-119587500D01*
G75*
G02*
X121037500Y-119525000I62500J0D01*
G01*
G37*
G36*
G01*
X121537500Y-119525000D02*
X121662500Y-119525000D01*
G75*
G02*
X121725000Y-119587500I0J-62500D01*
G01*
X121725000Y-120287500D01*
G75*
G02*
X121662500Y-120350000I-62500J0D01*
G01*
X121537500Y-120350000D01*
G75*
G02*
X121475000Y-120287500I0J62500D01*
G01*
X121475000Y-119587500D01*
G75*
G02*
X121537500Y-119525000I62500J0D01*
G01*
G37*
G36*
G01*
X122037500Y-119525000D02*
X122162500Y-119525000D01*
G75*
G02*
X122225000Y-119587500I0J-62500D01*
G01*
X122225000Y-120287500D01*
G75*
G02*
X122162500Y-120350000I-62500J0D01*
G01*
X122037500Y-120350000D01*
G75*
G02*
X121975000Y-120287500I0J62500D01*
G01*
X121975000Y-119587500D01*
G75*
G02*
X122037500Y-119525000I62500J0D01*
G01*
G37*
G36*
G01*
X122537500Y-119525000D02*
X122662500Y-119525000D01*
G75*
G02*
X122725000Y-119587500I0J-62500D01*
G01*
X122725000Y-120287500D01*
G75*
G02*
X122662500Y-120350000I-62500J0D01*
G01*
X122537500Y-120350000D01*
G75*
G02*
X122475000Y-120287500I0J62500D01*
G01*
X122475000Y-119587500D01*
G75*
G02*
X122537500Y-119525000I62500J0D01*
G01*
G37*
G36*
G01*
X122937500Y-119125000D02*
X123637500Y-119125000D01*
G75*
G02*
X123700000Y-119187500I0J-62500D01*
G01*
X123700000Y-119312500D01*
G75*
G02*
X123637500Y-119375000I-62500J0D01*
G01*
X122937500Y-119375000D01*
G75*
G02*
X122875000Y-119312500I0J62500D01*
G01*
X122875000Y-119187500D01*
G75*
G02*
X122937500Y-119125000I62500J0D01*
G01*
G37*
G36*
G01*
X122937500Y-118625000D02*
X123637500Y-118625000D01*
G75*
G02*
X123700000Y-118687500I0J-62500D01*
G01*
X123700000Y-118812500D01*
G75*
G02*
X123637500Y-118875000I-62500J0D01*
G01*
X122937500Y-118875000D01*
G75*
G02*
X122875000Y-118812500I0J62500D01*
G01*
X122875000Y-118687500D01*
G75*
G02*
X122937500Y-118625000I62500J0D01*
G01*
G37*
G36*
G01*
X122937500Y-118125000D02*
X123637500Y-118125000D01*
G75*
G02*
X123700000Y-118187500I0J-62500D01*
G01*
X123700000Y-118312500D01*
G75*
G02*
X123637500Y-118375000I-62500J0D01*
G01*
X122937500Y-118375000D01*
G75*
G02*
X122875000Y-118312500I0J62500D01*
G01*
X122875000Y-118187500D01*
G75*
G02*
X122937500Y-118125000I62500J0D01*
G01*
G37*
G36*
G01*
X122937500Y-117625000D02*
X123637500Y-117625000D01*
G75*
G02*
X123700000Y-117687500I0J-62500D01*
G01*
X123700000Y-117812500D01*
G75*
G02*
X123637500Y-117875000I-62500J0D01*
G01*
X122937500Y-117875000D01*
G75*
G02*
X122875000Y-117812500I0J62500D01*
G01*
X122875000Y-117687500D01*
G75*
G02*
X122937500Y-117625000I62500J0D01*
G01*
G37*
G36*
G01*
X122937500Y-117125000D02*
X123637500Y-117125000D01*
G75*
G02*
X123700000Y-117187500I0J-62500D01*
G01*
X123700000Y-117312500D01*
G75*
G02*
X123637500Y-117375000I-62500J0D01*
G01*
X122937500Y-117375000D01*
G75*
G02*
X122875000Y-117312500I0J62500D01*
G01*
X122875000Y-117187500D01*
G75*
G02*
X122937500Y-117125000I62500J0D01*
G01*
G37*
G36*
G01*
X122937500Y-116625000D02*
X123637500Y-116625000D01*
G75*
G02*
X123700000Y-116687500I0J-62500D01*
G01*
X123700000Y-116812500D01*
G75*
G02*
X123637500Y-116875000I-62500J0D01*
G01*
X122937500Y-116875000D01*
G75*
G02*
X122875000Y-116812500I0J62500D01*
G01*
X122875000Y-116687500D01*
G75*
G02*
X122937500Y-116625000I62500J0D01*
G01*
G37*
D11*
X100651000Y-117461000D03*
X102651000Y-116811000D03*
X102651000Y-118111000D03*
G36*
G01*
X101685000Y-114610500D02*
X101685000Y-114265500D01*
G75*
G02*
X101832500Y-114118000I147500J0D01*
G01*
X102127500Y-114118000D01*
G75*
G02*
X102275000Y-114265500I0J-147500D01*
G01*
X102275000Y-114610500D01*
G75*
G02*
X102127500Y-114758000I-147500J0D01*
G01*
X101832500Y-114758000D01*
G75*
G02*
X101685000Y-114610500I0J147500D01*
G01*
G37*
G36*
G01*
X100715000Y-114610500D02*
X100715000Y-114265500D01*
G75*
G02*
X100862500Y-114118000I147500J0D01*
G01*
X101157500Y-114118000D01*
G75*
G02*
X101305000Y-114265500I0J-147500D01*
G01*
X101305000Y-114610500D01*
G75*
G02*
X101157500Y-114758000I-147500J0D01*
G01*
X100862500Y-114758000D01*
G75*
G02*
X100715000Y-114610500I0J147500D01*
G01*
G37*
G36*
G01*
X104640000Y-113785000D02*
X104640000Y-113415000D01*
G75*
G02*
X104775000Y-113280000I135000J0D01*
G01*
X105045000Y-113280000D01*
G75*
G02*
X105180000Y-113415000I0J-135000D01*
G01*
X105180000Y-113785000D01*
G75*
G02*
X105045000Y-113920000I-135000J0D01*
G01*
X104775000Y-113920000D01*
G75*
G02*
X104640000Y-113785000I0J135000D01*
G01*
G37*
G36*
G01*
X103620000Y-113785000D02*
X103620000Y-113415000D01*
G75*
G02*
X103755000Y-113280000I135000J0D01*
G01*
X104025000Y-113280000D01*
G75*
G02*
X104160000Y-113415000I0J-135000D01*
G01*
X104160000Y-113785000D01*
G75*
G02*
X104025000Y-113920000I-135000J0D01*
G01*
X103755000Y-113920000D01*
G75*
G02*
X103620000Y-113785000I0J135000D01*
G01*
G37*
G36*
G01*
X109100000Y-115770000D02*
X109100000Y-115430000D01*
G75*
G02*
X109240000Y-115290000I140000J0D01*
G01*
X109520000Y-115290000D01*
G75*
G02*
X109660000Y-115430000I0J-140000D01*
G01*
X109660000Y-115770000D01*
G75*
G02*
X109520000Y-115910000I-140000J0D01*
G01*
X109240000Y-115910000D01*
G75*
G02*
X109100000Y-115770000I0J140000D01*
G01*
G37*
G36*
G01*
X108140000Y-115770000D02*
X108140000Y-115430000D01*
G75*
G02*
X108280000Y-115290000I140000J0D01*
G01*
X108560000Y-115290000D01*
G75*
G02*
X108700000Y-115430000I0J-140000D01*
G01*
X108700000Y-115770000D01*
G75*
G02*
X108560000Y-115910000I-140000J0D01*
G01*
X108280000Y-115910000D01*
G75*
G02*
X108140000Y-115770000I0J140000D01*
G01*
G37*
D12*
X108400000Y-114300000D03*
X108400000Y-113700000D03*
G36*
G01*
X109449902Y-114500000D02*
X108950098Y-114500000D01*
G75*
G02*
X108850000Y-114399902I0J100098D01*
G01*
X108850000Y-113600098D01*
G75*
G02*
X108950098Y-113500000I100098J0D01*
G01*
X109449902Y-113500000D01*
G75*
G02*
X109550000Y-113600098I0J-100098D01*
G01*
X109550000Y-114399902D01*
G75*
G02*
X109449902Y-114500000I-100098J0D01*
G01*
G37*
D13*
X109200000Y-114000000D03*
G36*
G01*
X109100000Y-116770000D02*
X109100000Y-116430000D01*
G75*
G02*
X109240000Y-116290000I140000J0D01*
G01*
X109520000Y-116290000D01*
G75*
G02*
X109660000Y-116430000I0J-140000D01*
G01*
X109660000Y-116770000D01*
G75*
G02*
X109520000Y-116910000I-140000J0D01*
G01*
X109240000Y-116910000D01*
G75*
G02*
X109100000Y-116770000I0J140000D01*
G01*
G37*
G36*
G01*
X108140000Y-116770000D02*
X108140000Y-116430000D01*
G75*
G02*
X108280000Y-116290000I140000J0D01*
G01*
X108560000Y-116290000D01*
G75*
G02*
X108700000Y-116430000I0J-140000D01*
G01*
X108700000Y-116770000D01*
G75*
G02*
X108560000Y-116910000I-140000J0D01*
G01*
X108280000Y-116910000D01*
G75*
G02*
X108140000Y-116770000I0J140000D01*
G01*
G37*
G36*
G01*
X109385000Y-119260000D02*
X109015000Y-119260000D01*
G75*
G02*
X108880000Y-119125000I0J135000D01*
G01*
X108880000Y-118855000D01*
G75*
G02*
X109015000Y-118720000I135000J0D01*
G01*
X109385000Y-118720000D01*
G75*
G02*
X109520000Y-118855000I0J-135000D01*
G01*
X109520000Y-119125000D01*
G75*
G02*
X109385000Y-119260000I-135000J0D01*
G01*
G37*
G36*
G01*
X109385000Y-120280000D02*
X109015000Y-120280000D01*
G75*
G02*
X108880000Y-120145000I0J135000D01*
G01*
X108880000Y-119875000D01*
G75*
G02*
X109015000Y-119740000I135000J0D01*
G01*
X109385000Y-119740000D01*
G75*
G02*
X109520000Y-119875000I0J-135000D01*
G01*
X109520000Y-120145000D01*
G75*
G02*
X109385000Y-120280000I-135000J0D01*
G01*
G37*
D14*
X143050000Y-118032000D03*
X143050000Y-114500000D03*
G36*
G01*
X104830000Y-119500000D02*
X105170000Y-119500000D01*
G75*
G02*
X105310000Y-119640000I0J-140000D01*
G01*
X105310000Y-119920000D01*
G75*
G02*
X105170000Y-120060000I-140000J0D01*
G01*
X104830000Y-120060000D01*
G75*
G02*
X104690000Y-119920000I0J140000D01*
G01*
X104690000Y-119640000D01*
G75*
G02*
X104830000Y-119500000I140000J0D01*
G01*
G37*
G36*
G01*
X104830000Y-118540000D02*
X105170000Y-118540000D01*
G75*
G02*
X105310000Y-118680000I0J-140000D01*
G01*
X105310000Y-118960000D01*
G75*
G02*
X105170000Y-119100000I-140000J0D01*
G01*
X104830000Y-119100000D01*
G75*
G02*
X104690000Y-118960000I0J140000D01*
G01*
X104690000Y-118680000D01*
G75*
G02*
X104830000Y-118540000I140000J0D01*
G01*
G37*
G36*
G01*
X102930000Y-115100000D02*
X103270000Y-115100000D01*
G75*
G02*
X103410000Y-115240000I0J-140000D01*
G01*
X103410000Y-115520000D01*
G75*
G02*
X103270000Y-115660000I-140000J0D01*
G01*
X102930000Y-115660000D01*
G75*
G02*
X102790000Y-115520000I0J140000D01*
G01*
X102790000Y-115240000D01*
G75*
G02*
X102930000Y-115100000I140000J0D01*
G01*
G37*
G36*
G01*
X102930000Y-114140000D02*
X103270000Y-114140000D01*
G75*
G02*
X103410000Y-114280000I0J-140000D01*
G01*
X103410000Y-114560000D01*
G75*
G02*
X103270000Y-114700000I-140000J0D01*
G01*
X102930000Y-114700000D01*
G75*
G02*
X102790000Y-114560000I0J140000D01*
G01*
X102790000Y-114280000D01*
G75*
G02*
X102930000Y-114140000I140000J0D01*
G01*
G37*
G36*
G01*
X105040000Y-117585000D02*
X105040000Y-117215000D01*
G75*
G02*
X105175000Y-117080000I135000J0D01*
G01*
X105445000Y-117080000D01*
G75*
G02*
X105580000Y-117215000I0J-135000D01*
G01*
X105580000Y-117585000D01*
G75*
G02*
X105445000Y-117720000I-135000J0D01*
G01*
X105175000Y-117720000D01*
G75*
G02*
X105040000Y-117585000I0J135000D01*
G01*
G37*
G36*
G01*
X104020000Y-117585000D02*
X104020000Y-117215000D01*
G75*
G02*
X104155000Y-117080000I135000J0D01*
G01*
X104425000Y-117080000D01*
G75*
G02*
X104560000Y-117215000I0J-135000D01*
G01*
X104560000Y-117585000D01*
G75*
G02*
X104425000Y-117720000I-135000J0D01*
G01*
X104155000Y-117720000D01*
G75*
G02*
X104020000Y-117585000I0J135000D01*
G01*
G37*
G36*
G01*
X112391000Y-112970500D02*
X112391000Y-113315500D01*
G75*
G02*
X112243500Y-113463000I-147500J0D01*
G01*
X111948500Y-113463000D01*
G75*
G02*
X111801000Y-113315500I0J147500D01*
G01*
X111801000Y-112970500D01*
G75*
G02*
X111948500Y-112823000I147500J0D01*
G01*
X112243500Y-112823000D01*
G75*
G02*
X112391000Y-112970500I0J-147500D01*
G01*
G37*
G36*
G01*
X111421000Y-112970500D02*
X111421000Y-113315500D01*
G75*
G02*
X111273500Y-113463000I-147500J0D01*
G01*
X110978500Y-113463000D01*
G75*
G02*
X110831000Y-113315500I0J147500D01*
G01*
X110831000Y-112970500D01*
G75*
G02*
X110978500Y-112823000I147500J0D01*
G01*
X111273500Y-112823000D01*
G75*
G02*
X111421000Y-112970500I0J-147500D01*
G01*
G37*
D15*
X113550000Y-113050000D03*
X113550000Y-114000000D03*
X113550000Y-114950000D03*
X115750000Y-114950000D03*
X115750000Y-113050000D03*
G36*
G01*
X139172500Y-115610000D02*
X138827500Y-115610000D01*
G75*
G02*
X138680000Y-115462500I0J147500D01*
G01*
X138680000Y-115167500D01*
G75*
G02*
X138827500Y-115020000I147500J0D01*
G01*
X139172500Y-115020000D01*
G75*
G02*
X139320000Y-115167500I0J-147500D01*
G01*
X139320000Y-115462500D01*
G75*
G02*
X139172500Y-115610000I-147500J0D01*
G01*
G37*
G36*
G01*
X139172500Y-116580000D02*
X138827500Y-116580000D01*
G75*
G02*
X138680000Y-116432500I0J147500D01*
G01*
X138680000Y-116137500D01*
G75*
G02*
X138827500Y-115990000I147500J0D01*
G01*
X139172500Y-115990000D01*
G75*
G02*
X139320000Y-116137500I0J-147500D01*
G01*
X139320000Y-116432500D01*
G75*
G02*
X139172500Y-116580000I-147500J0D01*
G01*
G37*
G36*
G01*
X116927500Y-113020000D02*
X117272500Y-113020000D01*
G75*
G02*
X117420000Y-113167500I0J-147500D01*
G01*
X117420000Y-113462500D01*
G75*
G02*
X117272500Y-113610000I-147500J0D01*
G01*
X116927500Y-113610000D01*
G75*
G02*
X116780000Y-113462500I0J147500D01*
G01*
X116780000Y-113167500D01*
G75*
G02*
X116927500Y-113020000I147500J0D01*
G01*
G37*
G36*
G01*
X116927500Y-113990000D02*
X117272500Y-113990000D01*
G75*
G02*
X117420000Y-114137500I0J-147500D01*
G01*
X117420000Y-114432500D01*
G75*
G02*
X117272500Y-114580000I-147500J0D01*
G01*
X116927500Y-114580000D01*
G75*
G02*
X116780000Y-114432500I0J147500D01*
G01*
X116780000Y-114137500D01*
G75*
G02*
X116927500Y-113990000I147500J0D01*
G01*
G37*
G36*
G01*
X103715000Y-119540000D02*
X104085000Y-119540000D01*
G75*
G02*
X104220000Y-119675000I0J-135000D01*
G01*
X104220000Y-119945000D01*
G75*
G02*
X104085000Y-120080000I-135000J0D01*
G01*
X103715000Y-120080000D01*
G75*
G02*
X103580000Y-119945000I0J135000D01*
G01*
X103580000Y-119675000D01*
G75*
G02*
X103715000Y-119540000I135000J0D01*
G01*
G37*
G36*
G01*
X103715000Y-118520000D02*
X104085000Y-118520000D01*
G75*
G02*
X104220000Y-118655000I0J-135000D01*
G01*
X104220000Y-118925000D01*
G75*
G02*
X104085000Y-119060000I-135000J0D01*
G01*
X103715000Y-119060000D01*
G75*
G02*
X103580000Y-118925000I0J135000D01*
G01*
X103580000Y-118655000D01*
G75*
G02*
X103715000Y-118520000I135000J0D01*
G01*
G37*
G36*
G01*
X117890000Y-119872500D02*
X117890000Y-119527500D01*
G75*
G02*
X118037500Y-119380000I147500J0D01*
G01*
X118332500Y-119380000D01*
G75*
G02*
X118480000Y-119527500I0J-147500D01*
G01*
X118480000Y-119872500D01*
G75*
G02*
X118332500Y-120020000I-147500J0D01*
G01*
X118037500Y-120020000D01*
G75*
G02*
X117890000Y-119872500I0J147500D01*
G01*
G37*
G36*
G01*
X116920000Y-119872500D02*
X116920000Y-119527500D01*
G75*
G02*
X117067500Y-119380000I147500J0D01*
G01*
X117362500Y-119380000D01*
G75*
G02*
X117510000Y-119527500I0J-147500D01*
G01*
X117510000Y-119872500D01*
G75*
G02*
X117362500Y-120020000I-147500J0D01*
G01*
X117067500Y-120020000D01*
G75*
G02*
X116920000Y-119872500I0J147500D01*
G01*
G37*
G36*
G01*
X108025000Y-119600000D02*
X108175000Y-119600000D01*
G75*
G02*
X108225000Y-119650000I0J-50000D01*
G01*
X108225000Y-120200000D01*
G75*
G02*
X108175000Y-120250000I-50000J0D01*
G01*
X108025000Y-120250000D01*
G75*
G02*
X107975000Y-120200000I0J50000D01*
G01*
X107975000Y-119650000D01*
G75*
G02*
X108025000Y-119600000I50000J0D01*
G01*
G37*
G36*
G01*
X107525000Y-119600000D02*
X107675000Y-119600000D01*
G75*
G02*
X107725000Y-119650000I0J-50000D01*
G01*
X107725000Y-120200000D01*
G75*
G02*
X107675000Y-120250000I-50000J0D01*
G01*
X107525000Y-120250000D01*
G75*
G02*
X107475000Y-120200000I0J50000D01*
G01*
X107475000Y-119650000D01*
G75*
G02*
X107525000Y-119600000I50000J0D01*
G01*
G37*
G36*
G01*
X107025000Y-119600000D02*
X107175000Y-119600000D01*
G75*
G02*
X107225000Y-119650000I0J-50000D01*
G01*
X107225000Y-120200000D01*
G75*
G02*
X107175000Y-120250000I-50000J0D01*
G01*
X107025000Y-120250000D01*
G75*
G02*
X106975000Y-120200000I0J50000D01*
G01*
X106975000Y-119650000D01*
G75*
G02*
X107025000Y-119600000I50000J0D01*
G01*
G37*
G36*
G01*
X106525000Y-119600000D02*
X106675000Y-119600000D01*
G75*
G02*
X106725000Y-119650000I0J-50000D01*
G01*
X106725000Y-120200000D01*
G75*
G02*
X106675000Y-120250000I-50000J0D01*
G01*
X106525000Y-120250000D01*
G75*
G02*
X106475000Y-120200000I0J50000D01*
G01*
X106475000Y-119650000D01*
G75*
G02*
X106525000Y-119600000I50000J0D01*
G01*
G37*
G36*
G01*
X106025000Y-119600000D02*
X106175000Y-119600000D01*
G75*
G02*
X106225000Y-119650000I0J-50000D01*
G01*
X106225000Y-120200000D01*
G75*
G02*
X106175000Y-120250000I-50000J0D01*
G01*
X106025000Y-120250000D01*
G75*
G02*
X105975000Y-120200000I0J50000D01*
G01*
X105975000Y-119650000D01*
G75*
G02*
X106025000Y-119600000I50000J0D01*
G01*
G37*
G36*
G01*
X106025000Y-118350000D02*
X106175000Y-118350000D01*
G75*
G02*
X106225000Y-118400000I0J-50000D01*
G01*
X106225000Y-118950000D01*
G75*
G02*
X106175000Y-119000000I-50000J0D01*
G01*
X106025000Y-119000000D01*
G75*
G02*
X105975000Y-118950000I0J50000D01*
G01*
X105975000Y-118400000D01*
G75*
G02*
X106025000Y-118350000I50000J0D01*
G01*
G37*
G36*
G01*
X106525000Y-118350000D02*
X106675000Y-118350000D01*
G75*
G02*
X106725000Y-118400000I0J-50000D01*
G01*
X106725000Y-118950000D01*
G75*
G02*
X106675000Y-119000000I-50000J0D01*
G01*
X106525000Y-119000000D01*
G75*
G02*
X106475000Y-118950000I0J50000D01*
G01*
X106475000Y-118400000D01*
G75*
G02*
X106525000Y-118350000I50000J0D01*
G01*
G37*
G36*
G01*
X107025000Y-118350000D02*
X107175000Y-118350000D01*
G75*
G02*
X107225000Y-118400000I0J-50000D01*
G01*
X107225000Y-118950000D01*
G75*
G02*
X107175000Y-119000000I-50000J0D01*
G01*
X107025000Y-119000000D01*
G75*
G02*
X106975000Y-118950000I0J50000D01*
G01*
X106975000Y-118400000D01*
G75*
G02*
X107025000Y-118350000I50000J0D01*
G01*
G37*
G36*
G01*
X107525000Y-118350000D02*
X107675000Y-118350000D01*
G75*
G02*
X107725000Y-118400000I0J-50000D01*
G01*
X107725000Y-118950000D01*
G75*
G02*
X107675000Y-119000000I-50000J0D01*
G01*
X107525000Y-119000000D01*
G75*
G02*
X107475000Y-118950000I0J50000D01*
G01*
X107475000Y-118400000D01*
G75*
G02*
X107525000Y-118350000I50000J0D01*
G01*
G37*
G36*
G01*
X108025000Y-118350000D02*
X108175000Y-118350000D01*
G75*
G02*
X108225000Y-118400000I0J-50000D01*
G01*
X108225000Y-118950000D01*
G75*
G02*
X108175000Y-119000000I-50000J0D01*
G01*
X108025000Y-119000000D01*
G75*
G02*
X107975000Y-118950000I0J50000D01*
G01*
X107975000Y-118400000D01*
G75*
G02*
X108025000Y-118350000I50000J0D01*
G01*
G37*
G36*
G01*
X101300000Y-115430000D02*
X101300000Y-115770000D01*
G75*
G02*
X101160000Y-115910000I-140000J0D01*
G01*
X100880000Y-115910000D01*
G75*
G02*
X100740000Y-115770000I0J140000D01*
G01*
X100740000Y-115430000D01*
G75*
G02*
X100880000Y-115290000I140000J0D01*
G01*
X101160000Y-115290000D01*
G75*
G02*
X101300000Y-115430000I0J-140000D01*
G01*
G37*
G36*
G01*
X102260000Y-115430000D02*
X102260000Y-115770000D01*
G75*
G02*
X102120000Y-115910000I-140000J0D01*
G01*
X101840000Y-115910000D01*
G75*
G02*
X101700000Y-115770000I0J140000D01*
G01*
X101700000Y-115430000D01*
G75*
G02*
X101840000Y-115290000I140000J0D01*
G01*
X102120000Y-115290000D01*
G75*
G02*
X102260000Y-115430000I0J-140000D01*
G01*
G37*
G36*
G01*
X106125000Y-115800000D02*
X106275000Y-115800000D01*
G75*
G02*
X106325000Y-115850000I0J-50000D01*
G01*
X106325000Y-116400000D01*
G75*
G02*
X106275000Y-116450000I-50000J0D01*
G01*
X106125000Y-116450000D01*
G75*
G02*
X106075000Y-116400000I0J50000D01*
G01*
X106075000Y-115850000D01*
G75*
G02*
X106125000Y-115800000I50000J0D01*
G01*
G37*
G36*
G01*
X105625000Y-115800000D02*
X105775000Y-115800000D01*
G75*
G02*
X105825000Y-115850000I0J-50000D01*
G01*
X105825000Y-116400000D01*
G75*
G02*
X105775000Y-116450000I-50000J0D01*
G01*
X105625000Y-116450000D01*
G75*
G02*
X105575000Y-116400000I0J50000D01*
G01*
X105575000Y-115850000D01*
G75*
G02*
X105625000Y-115800000I50000J0D01*
G01*
G37*
G36*
G01*
X105125000Y-115800000D02*
X105275000Y-115800000D01*
G75*
G02*
X105325000Y-115850000I0J-50000D01*
G01*
X105325000Y-116400000D01*
G75*
G02*
X105275000Y-116450000I-50000J0D01*
G01*
X105125000Y-116450000D01*
G75*
G02*
X105075000Y-116400000I0J50000D01*
G01*
X105075000Y-115850000D01*
G75*
G02*
X105125000Y-115800000I50000J0D01*
G01*
G37*
G36*
G01*
X104625000Y-115800000D02*
X104775000Y-115800000D01*
G75*
G02*
X104825000Y-115850000I0J-50000D01*
G01*
X104825000Y-116400000D01*
G75*
G02*
X104775000Y-116450000I-50000J0D01*
G01*
X104625000Y-116450000D01*
G75*
G02*
X104575000Y-116400000I0J50000D01*
G01*
X104575000Y-115850000D01*
G75*
G02*
X104625000Y-115800000I50000J0D01*
G01*
G37*
G36*
G01*
X104125000Y-115800000D02*
X104275000Y-115800000D01*
G75*
G02*
X104325000Y-115850000I0J-50000D01*
G01*
X104325000Y-116400000D01*
G75*
G02*
X104275000Y-116450000I-50000J0D01*
G01*
X104125000Y-116450000D01*
G75*
G02*
X104075000Y-116400000I0J50000D01*
G01*
X104075000Y-115850000D01*
G75*
G02*
X104125000Y-115800000I50000J0D01*
G01*
G37*
G36*
G01*
X104125000Y-114550000D02*
X104275000Y-114550000D01*
G75*
G02*
X104325000Y-114600000I0J-50000D01*
G01*
X104325000Y-115150000D01*
G75*
G02*
X104275000Y-115200000I-50000J0D01*
G01*
X104125000Y-115200000D01*
G75*
G02*
X104075000Y-115150000I0J50000D01*
G01*
X104075000Y-114600000D01*
G75*
G02*
X104125000Y-114550000I50000J0D01*
G01*
G37*
G36*
G01*
X104625000Y-114550000D02*
X104775000Y-114550000D01*
G75*
G02*
X104825000Y-114600000I0J-50000D01*
G01*
X104825000Y-115150000D01*
G75*
G02*
X104775000Y-115200000I-50000J0D01*
G01*
X104625000Y-115200000D01*
G75*
G02*
X104575000Y-115150000I0J50000D01*
G01*
X104575000Y-114600000D01*
G75*
G02*
X104625000Y-114550000I50000J0D01*
G01*
G37*
G36*
G01*
X105125000Y-114550000D02*
X105275000Y-114550000D01*
G75*
G02*
X105325000Y-114600000I0J-50000D01*
G01*
X105325000Y-115150000D01*
G75*
G02*
X105275000Y-115200000I-50000J0D01*
G01*
X105125000Y-115200000D01*
G75*
G02*
X105075000Y-115150000I0J50000D01*
G01*
X105075000Y-114600000D01*
G75*
G02*
X105125000Y-114550000I50000J0D01*
G01*
G37*
G36*
G01*
X105625000Y-114550000D02*
X105775000Y-114550000D01*
G75*
G02*
X105825000Y-114600000I0J-50000D01*
G01*
X105825000Y-115150000D01*
G75*
G02*
X105775000Y-115200000I-50000J0D01*
G01*
X105625000Y-115200000D01*
G75*
G02*
X105575000Y-115150000I0J50000D01*
G01*
X105575000Y-114600000D01*
G75*
G02*
X105625000Y-114550000I50000J0D01*
G01*
G37*
G36*
G01*
X106125000Y-114550000D02*
X106275000Y-114550000D01*
G75*
G02*
X106325000Y-114600000I0J-50000D01*
G01*
X106325000Y-115150000D01*
G75*
G02*
X106275000Y-115200000I-50000J0D01*
G01*
X106125000Y-115200000D01*
G75*
G02*
X106075000Y-115150000I0J50000D01*
G01*
X106075000Y-114600000D01*
G75*
G02*
X106125000Y-114550000I50000J0D01*
G01*
G37*
G36*
G01*
X110027500Y-118713000D02*
X110372500Y-118713000D01*
G75*
G02*
X110520000Y-118860500I0J-147500D01*
G01*
X110520000Y-119155500D01*
G75*
G02*
X110372500Y-119303000I-147500J0D01*
G01*
X110027500Y-119303000D01*
G75*
G02*
X109880000Y-119155500I0J147500D01*
G01*
X109880000Y-118860500D01*
G75*
G02*
X110027500Y-118713000I147500J0D01*
G01*
G37*
G36*
G01*
X110027500Y-119683000D02*
X110372500Y-119683000D01*
G75*
G02*
X110520000Y-119830500I0J-147500D01*
G01*
X110520000Y-120125500D01*
G75*
G02*
X110372500Y-120273000I-147500J0D01*
G01*
X110027500Y-120273000D01*
G75*
G02*
X109880000Y-120125500I0J147500D01*
G01*
X109880000Y-119830500D01*
G75*
G02*
X110027500Y-119683000I147500J0D01*
G01*
G37*
G36*
G01*
X139343750Y-117325000D02*
X139856250Y-117325000D01*
G75*
G02*
X140075000Y-117543750I0J-218750D01*
G01*
X140075000Y-117981250D01*
G75*
G02*
X139856250Y-118200000I-218750J0D01*
G01*
X139343750Y-118200000D01*
G75*
G02*
X139125000Y-117981250I0J218750D01*
G01*
X139125000Y-117543750D01*
G75*
G02*
X139343750Y-117325000I218750J0D01*
G01*
G37*
G36*
G01*
X139343750Y-118900000D02*
X139856250Y-118900000D01*
G75*
G02*
X140075000Y-119118750I0J-218750D01*
G01*
X140075000Y-119556250D01*
G75*
G02*
X139856250Y-119775000I-218750J0D01*
G01*
X139343750Y-119775000D01*
G75*
G02*
X139125000Y-119556250I0J218750D01*
G01*
X139125000Y-119118750D01*
G75*
G02*
X139343750Y-118900000I218750J0D01*
G01*
G37*
G36*
G01*
X118480000Y-118327500D02*
X118480000Y-118672500D01*
G75*
G02*
X118332500Y-118820000I-147500J0D01*
G01*
X118037500Y-118820000D01*
G75*
G02*
X117890000Y-118672500I0J147500D01*
G01*
X117890000Y-118327500D01*
G75*
G02*
X118037500Y-118180000I147500J0D01*
G01*
X118332500Y-118180000D01*
G75*
G02*
X118480000Y-118327500I0J-147500D01*
G01*
G37*
G36*
G01*
X117510000Y-118327500D02*
X117510000Y-118672500D01*
G75*
G02*
X117362500Y-118820000I-147500J0D01*
G01*
X117067500Y-118820000D01*
G75*
G02*
X116920000Y-118672500I0J147500D01*
G01*
X116920000Y-118327500D01*
G75*
G02*
X117067500Y-118180000I147500J0D01*
G01*
X117362500Y-118180000D01*
G75*
G02*
X117510000Y-118327500I0J-147500D01*
G01*
G37*
G36*
G01*
X111890000Y-118672500D02*
X111890000Y-118327500D01*
G75*
G02*
X112037500Y-118180000I147500J0D01*
G01*
X112332500Y-118180000D01*
G75*
G02*
X112480000Y-118327500I0J-147500D01*
G01*
X112480000Y-118672500D01*
G75*
G02*
X112332500Y-118820000I-147500J0D01*
G01*
X112037500Y-118820000D01*
G75*
G02*
X111890000Y-118672500I0J147500D01*
G01*
G37*
G36*
G01*
X110920000Y-118672500D02*
X110920000Y-118327500D01*
G75*
G02*
X111067500Y-118180000I147500J0D01*
G01*
X111362500Y-118180000D01*
G75*
G02*
X111510000Y-118327500I0J-147500D01*
G01*
X111510000Y-118672500D01*
G75*
G02*
X111362500Y-118820000I-147500J0D01*
G01*
X111067500Y-118820000D01*
G75*
G02*
X110920000Y-118672500I0J147500D01*
G01*
G37*
G36*
G01*
X116335000Y-116227500D02*
X116335000Y-116572500D01*
G75*
G02*
X116187500Y-116720000I-147500J0D01*
G01*
X115892500Y-116720000D01*
G75*
G02*
X115745000Y-116572500I0J147500D01*
G01*
X115745000Y-116227500D01*
G75*
G02*
X115892500Y-116080000I147500J0D01*
G01*
X116187500Y-116080000D01*
G75*
G02*
X116335000Y-116227500I0J-147500D01*
G01*
G37*
G36*
G01*
X117305000Y-116227500D02*
X117305000Y-116572500D01*
G75*
G02*
X117157500Y-116720000I-147500J0D01*
G01*
X116862500Y-116720000D01*
G75*
G02*
X116715000Y-116572500I0J147500D01*
G01*
X116715000Y-116227500D01*
G75*
G02*
X116862500Y-116080000I147500J0D01*
G01*
X117157500Y-116080000D01*
G75*
G02*
X117305000Y-116227500I0J-147500D01*
G01*
G37*
G36*
G01*
X126002500Y-114365000D02*
X126347500Y-114365000D01*
G75*
G02*
X126495000Y-114512500I0J-147500D01*
G01*
X126495000Y-114807500D01*
G75*
G02*
X126347500Y-114955000I-147500J0D01*
G01*
X126002500Y-114955000D01*
G75*
G02*
X125855000Y-114807500I0J147500D01*
G01*
X125855000Y-114512500D01*
G75*
G02*
X126002500Y-114365000I147500J0D01*
G01*
G37*
G36*
G01*
X126002500Y-113395000D02*
X126347500Y-113395000D01*
G75*
G02*
X126495000Y-113542500I0J-147500D01*
G01*
X126495000Y-113837500D01*
G75*
G02*
X126347500Y-113985000I-147500J0D01*
G01*
X126002500Y-113985000D01*
G75*
G02*
X125855000Y-113837500I0J147500D01*
G01*
X125855000Y-113542500D01*
G75*
G02*
X126002500Y-113395000I147500J0D01*
G01*
G37*
D16*
X111300000Y-114300000D03*
X111950000Y-116300000D03*
X110650000Y-116300000D03*
G36*
G01*
X126002500Y-115395000D02*
X126347500Y-115395000D01*
G75*
G02*
X126495000Y-115542500I0J-147500D01*
G01*
X126495000Y-115837500D01*
G75*
G02*
X126347500Y-115985000I-147500J0D01*
G01*
X126002500Y-115985000D01*
G75*
G02*
X125855000Y-115837500I0J147500D01*
G01*
X125855000Y-115542500D01*
G75*
G02*
X126002500Y-115395000I147500J0D01*
G01*
G37*
G36*
G01*
X126002500Y-116365000D02*
X126347500Y-116365000D01*
G75*
G02*
X126495000Y-116512500I0J-147500D01*
G01*
X126495000Y-116807500D01*
G75*
G02*
X126347500Y-116955000I-147500J0D01*
G01*
X126002500Y-116955000D01*
G75*
G02*
X125855000Y-116807500I0J147500D01*
G01*
X125855000Y-116512500D01*
G75*
G02*
X126002500Y-116365000I147500J0D01*
G01*
G37*
G36*
G01*
X111510000Y-117327500D02*
X111510000Y-117672500D01*
G75*
G02*
X111362500Y-117820000I-147500J0D01*
G01*
X111067500Y-117820000D01*
G75*
G02*
X110920000Y-117672500I0J147500D01*
G01*
X110920000Y-117327500D01*
G75*
G02*
X111067500Y-117180000I147500J0D01*
G01*
X111362500Y-117180000D01*
G75*
G02*
X111510000Y-117327500I0J-147500D01*
G01*
G37*
G36*
G01*
X112480000Y-117327500D02*
X112480000Y-117672500D01*
G75*
G02*
X112332500Y-117820000I-147500J0D01*
G01*
X112037500Y-117820000D01*
G75*
G02*
X111890000Y-117672500I0J147500D01*
G01*
X111890000Y-117327500D01*
G75*
G02*
X112037500Y-117180000I147500J0D01*
G01*
X112332500Y-117180000D01*
G75*
G02*
X112480000Y-117327500I0J-147500D01*
G01*
G37*
G36*
G01*
X126002500Y-104365000D02*
X126347500Y-104365000D01*
G75*
G02*
X126495000Y-104512500I0J-147500D01*
G01*
X126495000Y-104807500D01*
G75*
G02*
X126347500Y-104955000I-147500J0D01*
G01*
X126002500Y-104955000D01*
G75*
G02*
X125855000Y-104807500I0J147500D01*
G01*
X125855000Y-104512500D01*
G75*
G02*
X126002500Y-104365000I147500J0D01*
G01*
G37*
G36*
G01*
X126002500Y-103395000D02*
X126347500Y-103395000D01*
G75*
G02*
X126495000Y-103542500I0J-147500D01*
G01*
X126495000Y-103837500D01*
G75*
G02*
X126347500Y-103985000I-147500J0D01*
G01*
X126002500Y-103985000D01*
G75*
G02*
X125855000Y-103837500I0J147500D01*
G01*
X125855000Y-103542500D01*
G75*
G02*
X126002500Y-103395000I147500J0D01*
G01*
G37*
G36*
G01*
X112480000Y-105327500D02*
X112480000Y-105672500D01*
G75*
G02*
X112332500Y-105820000I-147500J0D01*
G01*
X112037500Y-105820000D01*
G75*
G02*
X111890000Y-105672500I0J147500D01*
G01*
X111890000Y-105327500D01*
G75*
G02*
X112037500Y-105180000I147500J0D01*
G01*
X112332500Y-105180000D01*
G75*
G02*
X112480000Y-105327500I0J-147500D01*
G01*
G37*
G36*
G01*
X111510000Y-105327500D02*
X111510000Y-105672500D01*
G75*
G02*
X111362500Y-105820000I-147500J0D01*
G01*
X111067500Y-105820000D01*
G75*
G02*
X110920000Y-105672500I0J147500D01*
G01*
X110920000Y-105327500D01*
G75*
G02*
X111067500Y-105180000I147500J0D01*
G01*
X111362500Y-105180000D01*
G75*
G02*
X111510000Y-105327500I0J-147500D01*
G01*
G37*
G36*
G01*
X116927500Y-101990000D02*
X117272500Y-101990000D01*
G75*
G02*
X117420000Y-102137500I0J-147500D01*
G01*
X117420000Y-102432500D01*
G75*
G02*
X117272500Y-102580000I-147500J0D01*
G01*
X116927500Y-102580000D01*
G75*
G02*
X116780000Y-102432500I0J147500D01*
G01*
X116780000Y-102137500D01*
G75*
G02*
X116927500Y-101990000I147500J0D01*
G01*
G37*
G36*
G01*
X116927500Y-101020000D02*
X117272500Y-101020000D01*
G75*
G02*
X117420000Y-101167500I0J-147500D01*
G01*
X117420000Y-101462500D01*
G75*
G02*
X117272500Y-101610000I-147500J0D01*
G01*
X116927500Y-101610000D01*
G75*
G02*
X116780000Y-101462500I0J147500D01*
G01*
X116780000Y-101167500D01*
G75*
G02*
X116927500Y-101020000I147500J0D01*
G01*
G37*
G36*
G01*
X139172500Y-104580000D02*
X138827500Y-104580000D01*
G75*
G02*
X138680000Y-104432500I0J147500D01*
G01*
X138680000Y-104137500D01*
G75*
G02*
X138827500Y-103990000I147500J0D01*
G01*
X139172500Y-103990000D01*
G75*
G02*
X139320000Y-104137500I0J-147500D01*
G01*
X139320000Y-104432500D01*
G75*
G02*
X139172500Y-104580000I-147500J0D01*
G01*
G37*
G36*
G01*
X139172500Y-103610000D02*
X138827500Y-103610000D01*
G75*
G02*
X138680000Y-103462500I0J147500D01*
G01*
X138680000Y-103167500D01*
G75*
G02*
X138827500Y-103020000I147500J0D01*
G01*
X139172500Y-103020000D01*
G75*
G02*
X139320000Y-103167500I0J-147500D01*
G01*
X139320000Y-103462500D01*
G75*
G02*
X139172500Y-103610000I-147500J0D01*
G01*
G37*
G36*
G01*
X117510000Y-106327500D02*
X117510000Y-106672500D01*
G75*
G02*
X117362500Y-106820000I-147500J0D01*
G01*
X117067500Y-106820000D01*
G75*
G02*
X116920000Y-106672500I0J147500D01*
G01*
X116920000Y-106327500D01*
G75*
G02*
X117067500Y-106180000I147500J0D01*
G01*
X117362500Y-106180000D01*
G75*
G02*
X117510000Y-106327500I0J-147500D01*
G01*
G37*
G36*
G01*
X118480000Y-106327500D02*
X118480000Y-106672500D01*
G75*
G02*
X118332500Y-106820000I-147500J0D01*
G01*
X118037500Y-106820000D01*
G75*
G02*
X117890000Y-106672500I0J147500D01*
G01*
X117890000Y-106327500D01*
G75*
G02*
X118037500Y-106180000I147500J0D01*
G01*
X118332500Y-106180000D01*
G75*
G02*
X118480000Y-106327500I0J-147500D01*
G01*
G37*
G36*
G01*
X117305000Y-104227500D02*
X117305000Y-104572500D01*
G75*
G02*
X117157500Y-104720000I-147500J0D01*
G01*
X116862500Y-104720000D01*
G75*
G02*
X116715000Y-104572500I0J147500D01*
G01*
X116715000Y-104227500D01*
G75*
G02*
X116862500Y-104080000I147500J0D01*
G01*
X117157500Y-104080000D01*
G75*
G02*
X117305000Y-104227500I0J-147500D01*
G01*
G37*
G36*
G01*
X116335000Y-104227500D02*
X116335000Y-104572500D01*
G75*
G02*
X116187500Y-104720000I-147500J0D01*
G01*
X115892500Y-104720000D01*
G75*
G02*
X115745000Y-104572500I0J147500D01*
G01*
X115745000Y-104227500D01*
G75*
G02*
X115892500Y-104080000I147500J0D01*
G01*
X116187500Y-104080000D01*
G75*
G02*
X116335000Y-104227500I0J-147500D01*
G01*
G37*
G36*
G01*
X111421000Y-100970500D02*
X111421000Y-101315500D01*
G75*
G02*
X111273500Y-101463000I-147500J0D01*
G01*
X110978500Y-101463000D01*
G75*
G02*
X110831000Y-101315500I0J147500D01*
G01*
X110831000Y-100970500D01*
G75*
G02*
X110978500Y-100823000I147500J0D01*
G01*
X111273500Y-100823000D01*
G75*
G02*
X111421000Y-100970500I0J-147500D01*
G01*
G37*
G36*
G01*
X112391000Y-100970500D02*
X112391000Y-101315500D01*
G75*
G02*
X112243500Y-101463000I-147500J0D01*
G01*
X111948500Y-101463000D01*
G75*
G02*
X111801000Y-101315500I0J147500D01*
G01*
X111801000Y-100970500D01*
G75*
G02*
X111948500Y-100823000I147500J0D01*
G01*
X112243500Y-100823000D01*
G75*
G02*
X112391000Y-100970500I0J-147500D01*
G01*
G37*
D15*
X115750000Y-101050000D03*
X115750000Y-102950000D03*
X113550000Y-102950000D03*
X113550000Y-102000000D03*
X113550000Y-101050000D03*
D16*
X110650000Y-104300000D03*
X111950000Y-104300000D03*
X111300000Y-102300000D03*
G36*
G01*
X126002500Y-101395000D02*
X126347500Y-101395000D01*
G75*
G02*
X126495000Y-101542500I0J-147500D01*
G01*
X126495000Y-101837500D01*
G75*
G02*
X126347500Y-101985000I-147500J0D01*
G01*
X126002500Y-101985000D01*
G75*
G02*
X125855000Y-101837500I0J147500D01*
G01*
X125855000Y-101542500D01*
G75*
G02*
X126002500Y-101395000I147500J0D01*
G01*
G37*
G36*
G01*
X126002500Y-102365000D02*
X126347500Y-102365000D01*
G75*
G02*
X126495000Y-102512500I0J-147500D01*
G01*
X126495000Y-102807500D01*
G75*
G02*
X126347500Y-102955000I-147500J0D01*
G01*
X126002500Y-102955000D01*
G75*
G02*
X125855000Y-102807500I0J147500D01*
G01*
X125855000Y-102512500D01*
G75*
G02*
X126002500Y-102365000I147500J0D01*
G01*
G37*
G36*
G01*
X110920000Y-106672500D02*
X110920000Y-106327500D01*
G75*
G02*
X111067500Y-106180000I147500J0D01*
G01*
X111362500Y-106180000D01*
G75*
G02*
X111510000Y-106327500I0J-147500D01*
G01*
X111510000Y-106672500D01*
G75*
G02*
X111362500Y-106820000I-147500J0D01*
G01*
X111067500Y-106820000D01*
G75*
G02*
X110920000Y-106672500I0J147500D01*
G01*
G37*
G36*
G01*
X111890000Y-106672500D02*
X111890000Y-106327500D01*
G75*
G02*
X112037500Y-106180000I147500J0D01*
G01*
X112332500Y-106180000D01*
G75*
G02*
X112480000Y-106327500I0J-147500D01*
G01*
X112480000Y-106672500D01*
G75*
G02*
X112332500Y-106820000I-147500J0D01*
G01*
X112037500Y-106820000D01*
G75*
G02*
X111890000Y-106672500I0J147500D01*
G01*
G37*
G36*
G01*
X139343750Y-106900000D02*
X139856250Y-106900000D01*
G75*
G02*
X140075000Y-107118750I0J-218750D01*
G01*
X140075000Y-107556250D01*
G75*
G02*
X139856250Y-107775000I-218750J0D01*
G01*
X139343750Y-107775000D01*
G75*
G02*
X139125000Y-107556250I0J218750D01*
G01*
X139125000Y-107118750D01*
G75*
G02*
X139343750Y-106900000I218750J0D01*
G01*
G37*
G36*
G01*
X139343750Y-105325000D02*
X139856250Y-105325000D01*
G75*
G02*
X140075000Y-105543750I0J-218750D01*
G01*
X140075000Y-105981250D01*
G75*
G02*
X139856250Y-106200000I-218750J0D01*
G01*
X139343750Y-106200000D01*
G75*
G02*
X139125000Y-105981250I0J218750D01*
G01*
X139125000Y-105543750D01*
G75*
G02*
X139343750Y-105325000I218750J0D01*
G01*
G37*
G36*
G01*
X110027500Y-107683000D02*
X110372500Y-107683000D01*
G75*
G02*
X110520000Y-107830500I0J-147500D01*
G01*
X110520000Y-108125500D01*
G75*
G02*
X110372500Y-108273000I-147500J0D01*
G01*
X110027500Y-108273000D01*
G75*
G02*
X109880000Y-108125500I0J147500D01*
G01*
X109880000Y-107830500D01*
G75*
G02*
X110027500Y-107683000I147500J0D01*
G01*
G37*
G36*
G01*
X110027500Y-106713000D02*
X110372500Y-106713000D01*
G75*
G02*
X110520000Y-106860500I0J-147500D01*
G01*
X110520000Y-107155500D01*
G75*
G02*
X110372500Y-107303000I-147500J0D01*
G01*
X110027500Y-107303000D01*
G75*
G02*
X109880000Y-107155500I0J147500D01*
G01*
X109880000Y-106860500D01*
G75*
G02*
X110027500Y-106713000I147500J0D01*
G01*
G37*
G36*
G01*
X116920000Y-107872500D02*
X116920000Y-107527500D01*
G75*
G02*
X117067500Y-107380000I147500J0D01*
G01*
X117362500Y-107380000D01*
G75*
G02*
X117510000Y-107527500I0J-147500D01*
G01*
X117510000Y-107872500D01*
G75*
G02*
X117362500Y-108020000I-147500J0D01*
G01*
X117067500Y-108020000D01*
G75*
G02*
X116920000Y-107872500I0J147500D01*
G01*
G37*
G36*
G01*
X117890000Y-107872500D02*
X117890000Y-107527500D01*
G75*
G02*
X118037500Y-107380000I147500J0D01*
G01*
X118332500Y-107380000D01*
G75*
G02*
X118480000Y-107527500I0J-147500D01*
G01*
X118480000Y-107872500D01*
G75*
G02*
X118332500Y-108020000I-147500J0D01*
G01*
X118037500Y-108020000D01*
G75*
G02*
X117890000Y-107872500I0J147500D01*
G01*
G37*
G36*
G01*
X106125000Y-102550000D02*
X106275000Y-102550000D01*
G75*
G02*
X106325000Y-102600000I0J-50000D01*
G01*
X106325000Y-103150000D01*
G75*
G02*
X106275000Y-103200000I-50000J0D01*
G01*
X106125000Y-103200000D01*
G75*
G02*
X106075000Y-103150000I0J50000D01*
G01*
X106075000Y-102600000D01*
G75*
G02*
X106125000Y-102550000I50000J0D01*
G01*
G37*
G36*
G01*
X105625000Y-102550000D02*
X105775000Y-102550000D01*
G75*
G02*
X105825000Y-102600000I0J-50000D01*
G01*
X105825000Y-103150000D01*
G75*
G02*
X105775000Y-103200000I-50000J0D01*
G01*
X105625000Y-103200000D01*
G75*
G02*
X105575000Y-103150000I0J50000D01*
G01*
X105575000Y-102600000D01*
G75*
G02*
X105625000Y-102550000I50000J0D01*
G01*
G37*
G36*
G01*
X105125000Y-102550000D02*
X105275000Y-102550000D01*
G75*
G02*
X105325000Y-102600000I0J-50000D01*
G01*
X105325000Y-103150000D01*
G75*
G02*
X105275000Y-103200000I-50000J0D01*
G01*
X105125000Y-103200000D01*
G75*
G02*
X105075000Y-103150000I0J50000D01*
G01*
X105075000Y-102600000D01*
G75*
G02*
X105125000Y-102550000I50000J0D01*
G01*
G37*
G36*
G01*
X104625000Y-102550000D02*
X104775000Y-102550000D01*
G75*
G02*
X104825000Y-102600000I0J-50000D01*
G01*
X104825000Y-103150000D01*
G75*
G02*
X104775000Y-103200000I-50000J0D01*
G01*
X104625000Y-103200000D01*
G75*
G02*
X104575000Y-103150000I0J50000D01*
G01*
X104575000Y-102600000D01*
G75*
G02*
X104625000Y-102550000I50000J0D01*
G01*
G37*
G36*
G01*
X104125000Y-102550000D02*
X104275000Y-102550000D01*
G75*
G02*
X104325000Y-102600000I0J-50000D01*
G01*
X104325000Y-103150000D01*
G75*
G02*
X104275000Y-103200000I-50000J0D01*
G01*
X104125000Y-103200000D01*
G75*
G02*
X104075000Y-103150000I0J50000D01*
G01*
X104075000Y-102600000D01*
G75*
G02*
X104125000Y-102550000I50000J0D01*
G01*
G37*
G36*
G01*
X104125000Y-103800000D02*
X104275000Y-103800000D01*
G75*
G02*
X104325000Y-103850000I0J-50000D01*
G01*
X104325000Y-104400000D01*
G75*
G02*
X104275000Y-104450000I-50000J0D01*
G01*
X104125000Y-104450000D01*
G75*
G02*
X104075000Y-104400000I0J50000D01*
G01*
X104075000Y-103850000D01*
G75*
G02*
X104125000Y-103800000I50000J0D01*
G01*
G37*
G36*
G01*
X104625000Y-103800000D02*
X104775000Y-103800000D01*
G75*
G02*
X104825000Y-103850000I0J-50000D01*
G01*
X104825000Y-104400000D01*
G75*
G02*
X104775000Y-104450000I-50000J0D01*
G01*
X104625000Y-104450000D01*
G75*
G02*
X104575000Y-104400000I0J50000D01*
G01*
X104575000Y-103850000D01*
G75*
G02*
X104625000Y-103800000I50000J0D01*
G01*
G37*
G36*
G01*
X105125000Y-103800000D02*
X105275000Y-103800000D01*
G75*
G02*
X105325000Y-103850000I0J-50000D01*
G01*
X105325000Y-104400000D01*
G75*
G02*
X105275000Y-104450000I-50000J0D01*
G01*
X105125000Y-104450000D01*
G75*
G02*
X105075000Y-104400000I0J50000D01*
G01*
X105075000Y-103850000D01*
G75*
G02*
X105125000Y-103800000I50000J0D01*
G01*
G37*
G36*
G01*
X105625000Y-103800000D02*
X105775000Y-103800000D01*
G75*
G02*
X105825000Y-103850000I0J-50000D01*
G01*
X105825000Y-104400000D01*
G75*
G02*
X105775000Y-104450000I-50000J0D01*
G01*
X105625000Y-104450000D01*
G75*
G02*
X105575000Y-104400000I0J50000D01*
G01*
X105575000Y-103850000D01*
G75*
G02*
X105625000Y-103800000I50000J0D01*
G01*
G37*
G36*
G01*
X106125000Y-103800000D02*
X106275000Y-103800000D01*
G75*
G02*
X106325000Y-103850000I0J-50000D01*
G01*
X106325000Y-104400000D01*
G75*
G02*
X106275000Y-104450000I-50000J0D01*
G01*
X106125000Y-104450000D01*
G75*
G02*
X106075000Y-104400000I0J50000D01*
G01*
X106075000Y-103850000D01*
G75*
G02*
X106125000Y-103800000I50000J0D01*
G01*
G37*
G36*
G01*
X102260000Y-103430000D02*
X102260000Y-103770000D01*
G75*
G02*
X102120000Y-103910000I-140000J0D01*
G01*
X101840000Y-103910000D01*
G75*
G02*
X101700000Y-103770000I0J140000D01*
G01*
X101700000Y-103430000D01*
G75*
G02*
X101840000Y-103290000I140000J0D01*
G01*
X102120000Y-103290000D01*
G75*
G02*
X102260000Y-103430000I0J-140000D01*
G01*
G37*
G36*
G01*
X101300000Y-103430000D02*
X101300000Y-103770000D01*
G75*
G02*
X101160000Y-103910000I-140000J0D01*
G01*
X100880000Y-103910000D01*
G75*
G02*
X100740000Y-103770000I0J140000D01*
G01*
X100740000Y-103430000D01*
G75*
G02*
X100880000Y-103290000I140000J0D01*
G01*
X101160000Y-103290000D01*
G75*
G02*
X101300000Y-103430000I0J-140000D01*
G01*
G37*
G36*
G01*
X108025000Y-106350000D02*
X108175000Y-106350000D01*
G75*
G02*
X108225000Y-106400000I0J-50000D01*
G01*
X108225000Y-106950000D01*
G75*
G02*
X108175000Y-107000000I-50000J0D01*
G01*
X108025000Y-107000000D01*
G75*
G02*
X107975000Y-106950000I0J50000D01*
G01*
X107975000Y-106400000D01*
G75*
G02*
X108025000Y-106350000I50000J0D01*
G01*
G37*
G36*
G01*
X107525000Y-106350000D02*
X107675000Y-106350000D01*
G75*
G02*
X107725000Y-106400000I0J-50000D01*
G01*
X107725000Y-106950000D01*
G75*
G02*
X107675000Y-107000000I-50000J0D01*
G01*
X107525000Y-107000000D01*
G75*
G02*
X107475000Y-106950000I0J50000D01*
G01*
X107475000Y-106400000D01*
G75*
G02*
X107525000Y-106350000I50000J0D01*
G01*
G37*
G36*
G01*
X107025000Y-106350000D02*
X107175000Y-106350000D01*
G75*
G02*
X107225000Y-106400000I0J-50000D01*
G01*
X107225000Y-106950000D01*
G75*
G02*
X107175000Y-107000000I-50000J0D01*
G01*
X107025000Y-107000000D01*
G75*
G02*
X106975000Y-106950000I0J50000D01*
G01*
X106975000Y-106400000D01*
G75*
G02*
X107025000Y-106350000I50000J0D01*
G01*
G37*
G36*
G01*
X106525000Y-106350000D02*
X106675000Y-106350000D01*
G75*
G02*
X106725000Y-106400000I0J-50000D01*
G01*
X106725000Y-106950000D01*
G75*
G02*
X106675000Y-107000000I-50000J0D01*
G01*
X106525000Y-107000000D01*
G75*
G02*
X106475000Y-106950000I0J50000D01*
G01*
X106475000Y-106400000D01*
G75*
G02*
X106525000Y-106350000I50000J0D01*
G01*
G37*
G36*
G01*
X106025000Y-106350000D02*
X106175000Y-106350000D01*
G75*
G02*
X106225000Y-106400000I0J-50000D01*
G01*
X106225000Y-106950000D01*
G75*
G02*
X106175000Y-107000000I-50000J0D01*
G01*
X106025000Y-107000000D01*
G75*
G02*
X105975000Y-106950000I0J50000D01*
G01*
X105975000Y-106400000D01*
G75*
G02*
X106025000Y-106350000I50000J0D01*
G01*
G37*
G36*
G01*
X106025000Y-107600000D02*
X106175000Y-107600000D01*
G75*
G02*
X106225000Y-107650000I0J-50000D01*
G01*
X106225000Y-108200000D01*
G75*
G02*
X106175000Y-108250000I-50000J0D01*
G01*
X106025000Y-108250000D01*
G75*
G02*
X105975000Y-108200000I0J50000D01*
G01*
X105975000Y-107650000D01*
G75*
G02*
X106025000Y-107600000I50000J0D01*
G01*
G37*
G36*
G01*
X106525000Y-107600000D02*
X106675000Y-107600000D01*
G75*
G02*
X106725000Y-107650000I0J-50000D01*
G01*
X106725000Y-108200000D01*
G75*
G02*
X106675000Y-108250000I-50000J0D01*
G01*
X106525000Y-108250000D01*
G75*
G02*
X106475000Y-108200000I0J50000D01*
G01*
X106475000Y-107650000D01*
G75*
G02*
X106525000Y-107600000I50000J0D01*
G01*
G37*
G36*
G01*
X107025000Y-107600000D02*
X107175000Y-107600000D01*
G75*
G02*
X107225000Y-107650000I0J-50000D01*
G01*
X107225000Y-108200000D01*
G75*
G02*
X107175000Y-108250000I-50000J0D01*
G01*
X107025000Y-108250000D01*
G75*
G02*
X106975000Y-108200000I0J50000D01*
G01*
X106975000Y-107650000D01*
G75*
G02*
X107025000Y-107600000I50000J0D01*
G01*
G37*
G36*
G01*
X107525000Y-107600000D02*
X107675000Y-107600000D01*
G75*
G02*
X107725000Y-107650000I0J-50000D01*
G01*
X107725000Y-108200000D01*
G75*
G02*
X107675000Y-108250000I-50000J0D01*
G01*
X107525000Y-108250000D01*
G75*
G02*
X107475000Y-108200000I0J50000D01*
G01*
X107475000Y-107650000D01*
G75*
G02*
X107525000Y-107600000I50000J0D01*
G01*
G37*
G36*
G01*
X108025000Y-107600000D02*
X108175000Y-107600000D01*
G75*
G02*
X108225000Y-107650000I0J-50000D01*
G01*
X108225000Y-108200000D01*
G75*
G02*
X108175000Y-108250000I-50000J0D01*
G01*
X108025000Y-108250000D01*
G75*
G02*
X107975000Y-108200000I0J50000D01*
G01*
X107975000Y-107650000D01*
G75*
G02*
X108025000Y-107600000I50000J0D01*
G01*
G37*
G36*
G01*
X103715000Y-106520000D02*
X104085000Y-106520000D01*
G75*
G02*
X104220000Y-106655000I0J-135000D01*
G01*
X104220000Y-106925000D01*
G75*
G02*
X104085000Y-107060000I-135000J0D01*
G01*
X103715000Y-107060000D01*
G75*
G02*
X103580000Y-106925000I0J135000D01*
G01*
X103580000Y-106655000D01*
G75*
G02*
X103715000Y-106520000I135000J0D01*
G01*
G37*
G36*
G01*
X103715000Y-107540000D02*
X104085000Y-107540000D01*
G75*
G02*
X104220000Y-107675000I0J-135000D01*
G01*
X104220000Y-107945000D01*
G75*
G02*
X104085000Y-108080000I-135000J0D01*
G01*
X103715000Y-108080000D01*
G75*
G02*
X103580000Y-107945000I0J135000D01*
G01*
X103580000Y-107675000D01*
G75*
G02*
X103715000Y-107540000I135000J0D01*
G01*
G37*
D13*
X109200000Y-102000000D03*
G36*
G01*
X109449902Y-102500000D02*
X108950098Y-102500000D01*
G75*
G02*
X108850000Y-102399902I0J100098D01*
G01*
X108850000Y-101600098D01*
G75*
G02*
X108950098Y-101500000I100098J0D01*
G01*
X109449902Y-101500000D01*
G75*
G02*
X109550000Y-101600098I0J-100098D01*
G01*
X109550000Y-102399902D01*
G75*
G02*
X109449902Y-102500000I-100098J0D01*
G01*
G37*
D12*
X108400000Y-101700000D03*
X108400000Y-102300000D03*
G36*
G01*
X104830000Y-106540000D02*
X105170000Y-106540000D01*
G75*
G02*
X105310000Y-106680000I0J-140000D01*
G01*
X105310000Y-106960000D01*
G75*
G02*
X105170000Y-107100000I-140000J0D01*
G01*
X104830000Y-107100000D01*
G75*
G02*
X104690000Y-106960000I0J140000D01*
G01*
X104690000Y-106680000D01*
G75*
G02*
X104830000Y-106540000I140000J0D01*
G01*
G37*
G36*
G01*
X104830000Y-107500000D02*
X105170000Y-107500000D01*
G75*
G02*
X105310000Y-107640000I0J-140000D01*
G01*
X105310000Y-107920000D01*
G75*
G02*
X105170000Y-108060000I-140000J0D01*
G01*
X104830000Y-108060000D01*
G75*
G02*
X104690000Y-107920000I0J140000D01*
G01*
X104690000Y-107640000D01*
G75*
G02*
X104830000Y-107500000I140000J0D01*
G01*
G37*
G36*
G01*
X109385000Y-108280000D02*
X109015000Y-108280000D01*
G75*
G02*
X108880000Y-108145000I0J135000D01*
G01*
X108880000Y-107875000D01*
G75*
G02*
X109015000Y-107740000I135000J0D01*
G01*
X109385000Y-107740000D01*
G75*
G02*
X109520000Y-107875000I0J-135000D01*
G01*
X109520000Y-108145000D01*
G75*
G02*
X109385000Y-108280000I-135000J0D01*
G01*
G37*
G36*
G01*
X109385000Y-107260000D02*
X109015000Y-107260000D01*
G75*
G02*
X108880000Y-107125000I0J135000D01*
G01*
X108880000Y-106855000D01*
G75*
G02*
X109015000Y-106720000I135000J0D01*
G01*
X109385000Y-106720000D01*
G75*
G02*
X109520000Y-106855000I0J-135000D01*
G01*
X109520000Y-107125000D01*
G75*
G02*
X109385000Y-107260000I-135000J0D01*
G01*
G37*
G36*
G01*
X104020000Y-105585000D02*
X104020000Y-105215000D01*
G75*
G02*
X104155000Y-105080000I135000J0D01*
G01*
X104425000Y-105080000D01*
G75*
G02*
X104560000Y-105215000I0J-135000D01*
G01*
X104560000Y-105585000D01*
G75*
G02*
X104425000Y-105720000I-135000J0D01*
G01*
X104155000Y-105720000D01*
G75*
G02*
X104020000Y-105585000I0J135000D01*
G01*
G37*
G36*
G01*
X105040000Y-105585000D02*
X105040000Y-105215000D01*
G75*
G02*
X105175000Y-105080000I135000J0D01*
G01*
X105445000Y-105080000D01*
G75*
G02*
X105580000Y-105215000I0J-135000D01*
G01*
X105580000Y-105585000D01*
G75*
G02*
X105445000Y-105720000I-135000J0D01*
G01*
X105175000Y-105720000D01*
G75*
G02*
X105040000Y-105585000I0J135000D01*
G01*
G37*
G36*
G01*
X103620000Y-101785000D02*
X103620000Y-101415000D01*
G75*
G02*
X103755000Y-101280000I135000J0D01*
G01*
X104025000Y-101280000D01*
G75*
G02*
X104160000Y-101415000I0J-135000D01*
G01*
X104160000Y-101785000D01*
G75*
G02*
X104025000Y-101920000I-135000J0D01*
G01*
X103755000Y-101920000D01*
G75*
G02*
X103620000Y-101785000I0J135000D01*
G01*
G37*
G36*
G01*
X104640000Y-101785000D02*
X104640000Y-101415000D01*
G75*
G02*
X104775000Y-101280000I135000J0D01*
G01*
X105045000Y-101280000D01*
G75*
G02*
X105180000Y-101415000I0J-135000D01*
G01*
X105180000Y-101785000D01*
G75*
G02*
X105045000Y-101920000I-135000J0D01*
G01*
X104775000Y-101920000D01*
G75*
G02*
X104640000Y-101785000I0J135000D01*
G01*
G37*
G36*
G01*
X108140000Y-104770000D02*
X108140000Y-104430000D01*
G75*
G02*
X108280000Y-104290000I140000J0D01*
G01*
X108560000Y-104290000D01*
G75*
G02*
X108700000Y-104430000I0J-140000D01*
G01*
X108700000Y-104770000D01*
G75*
G02*
X108560000Y-104910000I-140000J0D01*
G01*
X108280000Y-104910000D01*
G75*
G02*
X108140000Y-104770000I0J140000D01*
G01*
G37*
G36*
G01*
X109100000Y-104770000D02*
X109100000Y-104430000D01*
G75*
G02*
X109240000Y-104290000I140000J0D01*
G01*
X109520000Y-104290000D01*
G75*
G02*
X109660000Y-104430000I0J-140000D01*
G01*
X109660000Y-104770000D01*
G75*
G02*
X109520000Y-104910000I-140000J0D01*
G01*
X109240000Y-104910000D01*
G75*
G02*
X109100000Y-104770000I0J140000D01*
G01*
G37*
G36*
G01*
X100715000Y-102610500D02*
X100715000Y-102265500D01*
G75*
G02*
X100862500Y-102118000I147500J0D01*
G01*
X101157500Y-102118000D01*
G75*
G02*
X101305000Y-102265500I0J-147500D01*
G01*
X101305000Y-102610500D01*
G75*
G02*
X101157500Y-102758000I-147500J0D01*
G01*
X100862500Y-102758000D01*
G75*
G02*
X100715000Y-102610500I0J147500D01*
G01*
G37*
G36*
G01*
X101685000Y-102610500D02*
X101685000Y-102265500D01*
G75*
G02*
X101832500Y-102118000I147500J0D01*
G01*
X102127500Y-102118000D01*
G75*
G02*
X102275000Y-102265500I0J-147500D01*
G01*
X102275000Y-102610500D01*
G75*
G02*
X102127500Y-102758000I-147500J0D01*
G01*
X101832500Y-102758000D01*
G75*
G02*
X101685000Y-102610500I0J147500D01*
G01*
G37*
D11*
X102651000Y-106111000D03*
X102651000Y-104811000D03*
X100651000Y-105461000D03*
G36*
G01*
X108140000Y-103770000D02*
X108140000Y-103430000D01*
G75*
G02*
X108280000Y-103290000I140000J0D01*
G01*
X108560000Y-103290000D01*
G75*
G02*
X108700000Y-103430000I0J-140000D01*
G01*
X108700000Y-103770000D01*
G75*
G02*
X108560000Y-103910000I-140000J0D01*
G01*
X108280000Y-103910000D01*
G75*
G02*
X108140000Y-103770000I0J140000D01*
G01*
G37*
G36*
G01*
X109100000Y-103770000D02*
X109100000Y-103430000D01*
G75*
G02*
X109240000Y-103290000I140000J0D01*
G01*
X109520000Y-103290000D01*
G75*
G02*
X109660000Y-103430000I0J-140000D01*
G01*
X109660000Y-103770000D01*
G75*
G02*
X109520000Y-103910000I-140000J0D01*
G01*
X109240000Y-103910000D01*
G75*
G02*
X109100000Y-103770000I0J140000D01*
G01*
G37*
G36*
G01*
X102930000Y-102140000D02*
X103270000Y-102140000D01*
G75*
G02*
X103410000Y-102280000I0J-140000D01*
G01*
X103410000Y-102560000D01*
G75*
G02*
X103270000Y-102700000I-140000J0D01*
G01*
X102930000Y-102700000D01*
G75*
G02*
X102790000Y-102560000I0J140000D01*
G01*
X102790000Y-102280000D01*
G75*
G02*
X102930000Y-102140000I140000J0D01*
G01*
G37*
G36*
G01*
X102930000Y-103100000D02*
X103270000Y-103100000D01*
G75*
G02*
X103410000Y-103240000I0J-140000D01*
G01*
X103410000Y-103520000D01*
G75*
G02*
X103270000Y-103660000I-140000J0D01*
G01*
X102930000Y-103660000D01*
G75*
G02*
X102790000Y-103520000I0J140000D01*
G01*
X102790000Y-103240000D01*
G75*
G02*
X102930000Y-103100000I140000J0D01*
G01*
G37*
D14*
X143050000Y-102500000D03*
X143050000Y-106032000D03*
G36*
G01*
X122937500Y-104625000D02*
X123637500Y-104625000D01*
G75*
G02*
X123700000Y-104687500I0J-62500D01*
G01*
X123700000Y-104812500D01*
G75*
G02*
X123637500Y-104875000I-62500J0D01*
G01*
X122937500Y-104875000D01*
G75*
G02*
X122875000Y-104812500I0J62500D01*
G01*
X122875000Y-104687500D01*
G75*
G02*
X122937500Y-104625000I62500J0D01*
G01*
G37*
G36*
G01*
X122937500Y-105125000D02*
X123637500Y-105125000D01*
G75*
G02*
X123700000Y-105187500I0J-62500D01*
G01*
X123700000Y-105312500D01*
G75*
G02*
X123637500Y-105375000I-62500J0D01*
G01*
X122937500Y-105375000D01*
G75*
G02*
X122875000Y-105312500I0J62500D01*
G01*
X122875000Y-105187500D01*
G75*
G02*
X122937500Y-105125000I62500J0D01*
G01*
G37*
G36*
G01*
X122937500Y-105625000D02*
X123637500Y-105625000D01*
G75*
G02*
X123700000Y-105687500I0J-62500D01*
G01*
X123700000Y-105812500D01*
G75*
G02*
X123637500Y-105875000I-62500J0D01*
G01*
X122937500Y-105875000D01*
G75*
G02*
X122875000Y-105812500I0J62500D01*
G01*
X122875000Y-105687500D01*
G75*
G02*
X122937500Y-105625000I62500J0D01*
G01*
G37*
G36*
G01*
X122937500Y-106125000D02*
X123637500Y-106125000D01*
G75*
G02*
X123700000Y-106187500I0J-62500D01*
G01*
X123700000Y-106312500D01*
G75*
G02*
X123637500Y-106375000I-62500J0D01*
G01*
X122937500Y-106375000D01*
G75*
G02*
X122875000Y-106312500I0J62500D01*
G01*
X122875000Y-106187500D01*
G75*
G02*
X122937500Y-106125000I62500J0D01*
G01*
G37*
G36*
G01*
X122937500Y-106625000D02*
X123637500Y-106625000D01*
G75*
G02*
X123700000Y-106687500I0J-62500D01*
G01*
X123700000Y-106812500D01*
G75*
G02*
X123637500Y-106875000I-62500J0D01*
G01*
X122937500Y-106875000D01*
G75*
G02*
X122875000Y-106812500I0J62500D01*
G01*
X122875000Y-106687500D01*
G75*
G02*
X122937500Y-106625000I62500J0D01*
G01*
G37*
G36*
G01*
X122937500Y-107125000D02*
X123637500Y-107125000D01*
G75*
G02*
X123700000Y-107187500I0J-62500D01*
G01*
X123700000Y-107312500D01*
G75*
G02*
X123637500Y-107375000I-62500J0D01*
G01*
X122937500Y-107375000D01*
G75*
G02*
X122875000Y-107312500I0J62500D01*
G01*
X122875000Y-107187500D01*
G75*
G02*
X122937500Y-107125000I62500J0D01*
G01*
G37*
G36*
G01*
X122537500Y-107525000D02*
X122662500Y-107525000D01*
G75*
G02*
X122725000Y-107587500I0J-62500D01*
G01*
X122725000Y-108287500D01*
G75*
G02*
X122662500Y-108350000I-62500J0D01*
G01*
X122537500Y-108350000D01*
G75*
G02*
X122475000Y-108287500I0J62500D01*
G01*
X122475000Y-107587500D01*
G75*
G02*
X122537500Y-107525000I62500J0D01*
G01*
G37*
G36*
G01*
X122037500Y-107525000D02*
X122162500Y-107525000D01*
G75*
G02*
X122225000Y-107587500I0J-62500D01*
G01*
X122225000Y-108287500D01*
G75*
G02*
X122162500Y-108350000I-62500J0D01*
G01*
X122037500Y-108350000D01*
G75*
G02*
X121975000Y-108287500I0J62500D01*
G01*
X121975000Y-107587500D01*
G75*
G02*
X122037500Y-107525000I62500J0D01*
G01*
G37*
G36*
G01*
X121537500Y-107525000D02*
X121662500Y-107525000D01*
G75*
G02*
X121725000Y-107587500I0J-62500D01*
G01*
X121725000Y-108287500D01*
G75*
G02*
X121662500Y-108350000I-62500J0D01*
G01*
X121537500Y-108350000D01*
G75*
G02*
X121475000Y-108287500I0J62500D01*
G01*
X121475000Y-107587500D01*
G75*
G02*
X121537500Y-107525000I62500J0D01*
G01*
G37*
G36*
G01*
X121037500Y-107525000D02*
X121162500Y-107525000D01*
G75*
G02*
X121225000Y-107587500I0J-62500D01*
G01*
X121225000Y-108287500D01*
G75*
G02*
X121162500Y-108350000I-62500J0D01*
G01*
X121037500Y-108350000D01*
G75*
G02*
X120975000Y-108287500I0J62500D01*
G01*
X120975000Y-107587500D01*
G75*
G02*
X121037500Y-107525000I62500J0D01*
G01*
G37*
G36*
G01*
X120537500Y-107525000D02*
X120662500Y-107525000D01*
G75*
G02*
X120725000Y-107587500I0J-62500D01*
G01*
X120725000Y-108287500D01*
G75*
G02*
X120662500Y-108350000I-62500J0D01*
G01*
X120537500Y-108350000D01*
G75*
G02*
X120475000Y-108287500I0J62500D01*
G01*
X120475000Y-107587500D01*
G75*
G02*
X120537500Y-107525000I62500J0D01*
G01*
G37*
G36*
G01*
X120037500Y-107525000D02*
X120162500Y-107525000D01*
G75*
G02*
X120225000Y-107587500I0J-62500D01*
G01*
X120225000Y-108287500D01*
G75*
G02*
X120162500Y-108350000I-62500J0D01*
G01*
X120037500Y-108350000D01*
G75*
G02*
X119975000Y-108287500I0J62500D01*
G01*
X119975000Y-107587500D01*
G75*
G02*
X120037500Y-107525000I62500J0D01*
G01*
G37*
G36*
G01*
X119062500Y-107125000D02*
X119762500Y-107125000D01*
G75*
G02*
X119825000Y-107187500I0J-62500D01*
G01*
X119825000Y-107312500D01*
G75*
G02*
X119762500Y-107375000I-62500J0D01*
G01*
X119062500Y-107375000D01*
G75*
G02*
X119000000Y-107312500I0J62500D01*
G01*
X119000000Y-107187500D01*
G75*
G02*
X119062500Y-107125000I62500J0D01*
G01*
G37*
G36*
G01*
X119062500Y-106625000D02*
X119762500Y-106625000D01*
G75*
G02*
X119825000Y-106687500I0J-62500D01*
G01*
X119825000Y-106812500D01*
G75*
G02*
X119762500Y-106875000I-62500J0D01*
G01*
X119062500Y-106875000D01*
G75*
G02*
X119000000Y-106812500I0J62500D01*
G01*
X119000000Y-106687500D01*
G75*
G02*
X119062500Y-106625000I62500J0D01*
G01*
G37*
G36*
G01*
X119062500Y-106125000D02*
X119762500Y-106125000D01*
G75*
G02*
X119825000Y-106187500I0J-62500D01*
G01*
X119825000Y-106312500D01*
G75*
G02*
X119762500Y-106375000I-62500J0D01*
G01*
X119062500Y-106375000D01*
G75*
G02*
X119000000Y-106312500I0J62500D01*
G01*
X119000000Y-106187500D01*
G75*
G02*
X119062500Y-106125000I62500J0D01*
G01*
G37*
G36*
G01*
X119062500Y-105625000D02*
X119762500Y-105625000D01*
G75*
G02*
X119825000Y-105687500I0J-62500D01*
G01*
X119825000Y-105812500D01*
G75*
G02*
X119762500Y-105875000I-62500J0D01*
G01*
X119062500Y-105875000D01*
G75*
G02*
X119000000Y-105812500I0J62500D01*
G01*
X119000000Y-105687500D01*
G75*
G02*
X119062500Y-105625000I62500J0D01*
G01*
G37*
G36*
G01*
X119062500Y-105125000D02*
X119762500Y-105125000D01*
G75*
G02*
X119825000Y-105187500I0J-62500D01*
G01*
X119825000Y-105312500D01*
G75*
G02*
X119762500Y-105375000I-62500J0D01*
G01*
X119062500Y-105375000D01*
G75*
G02*
X119000000Y-105312500I0J62500D01*
G01*
X119000000Y-105187500D01*
G75*
G02*
X119062500Y-105125000I62500J0D01*
G01*
G37*
G36*
G01*
X119062500Y-104625000D02*
X119762500Y-104625000D01*
G75*
G02*
X119825000Y-104687500I0J-62500D01*
G01*
X119825000Y-104812500D01*
G75*
G02*
X119762500Y-104875000I-62500J0D01*
G01*
X119062500Y-104875000D01*
G75*
G02*
X119000000Y-104812500I0J62500D01*
G01*
X119000000Y-104687500D01*
G75*
G02*
X119062500Y-104625000I62500J0D01*
G01*
G37*
G36*
G01*
X120037500Y-103650000D02*
X120162500Y-103650000D01*
G75*
G02*
X120225000Y-103712500I0J-62500D01*
G01*
X120225000Y-104412500D01*
G75*
G02*
X120162500Y-104475000I-62500J0D01*
G01*
X120037500Y-104475000D01*
G75*
G02*
X119975000Y-104412500I0J62500D01*
G01*
X119975000Y-103712500D01*
G75*
G02*
X120037500Y-103650000I62500J0D01*
G01*
G37*
G36*
G01*
X120537500Y-103650000D02*
X120662500Y-103650000D01*
G75*
G02*
X120725000Y-103712500I0J-62500D01*
G01*
X120725000Y-104412500D01*
G75*
G02*
X120662500Y-104475000I-62500J0D01*
G01*
X120537500Y-104475000D01*
G75*
G02*
X120475000Y-104412500I0J62500D01*
G01*
X120475000Y-103712500D01*
G75*
G02*
X120537500Y-103650000I62500J0D01*
G01*
G37*
G36*
G01*
X121037500Y-103650000D02*
X121162500Y-103650000D01*
G75*
G02*
X121225000Y-103712500I0J-62500D01*
G01*
X121225000Y-104412500D01*
G75*
G02*
X121162500Y-104475000I-62500J0D01*
G01*
X121037500Y-104475000D01*
G75*
G02*
X120975000Y-104412500I0J62500D01*
G01*
X120975000Y-103712500D01*
G75*
G02*
X121037500Y-103650000I62500J0D01*
G01*
G37*
G36*
G01*
X121537500Y-103650000D02*
X121662500Y-103650000D01*
G75*
G02*
X121725000Y-103712500I0J-62500D01*
G01*
X121725000Y-104412500D01*
G75*
G02*
X121662500Y-104475000I-62500J0D01*
G01*
X121537500Y-104475000D01*
G75*
G02*
X121475000Y-104412500I0J62500D01*
G01*
X121475000Y-103712500D01*
G75*
G02*
X121537500Y-103650000I62500J0D01*
G01*
G37*
G36*
G01*
X122037500Y-103650000D02*
X122162500Y-103650000D01*
G75*
G02*
X122225000Y-103712500I0J-62500D01*
G01*
X122225000Y-104412500D01*
G75*
G02*
X122162500Y-104475000I-62500J0D01*
G01*
X122037500Y-104475000D01*
G75*
G02*
X121975000Y-104412500I0J62500D01*
G01*
X121975000Y-103712500D01*
G75*
G02*
X122037500Y-103650000I62500J0D01*
G01*
G37*
G36*
G01*
X122537500Y-103650000D02*
X122662500Y-103650000D01*
G75*
G02*
X122725000Y-103712500I0J-62500D01*
G01*
X122725000Y-104412500D01*
G75*
G02*
X122662500Y-104475000I-62500J0D01*
G01*
X122537500Y-104475000D01*
G75*
G02*
X122475000Y-104412500I0J62500D01*
G01*
X122475000Y-103712500D01*
G75*
G02*
X122537500Y-103650000I62500J0D01*
G01*
G37*
G36*
G01*
X120424999Y-106125000D02*
X120975001Y-106125000D01*
G75*
G02*
X121225000Y-106374999I0J-249999D01*
G01*
X121225000Y-106925001D01*
G75*
G02*
X120975001Y-107175000I-249999J0D01*
G01*
X120424999Y-107175000D01*
G75*
G02*
X120175000Y-106925001I0J249999D01*
G01*
X120175000Y-106374999D01*
G75*
G02*
X120424999Y-106125000I249999J0D01*
G01*
G37*
G36*
G01*
X121724999Y-106125000D02*
X122275001Y-106125000D01*
G75*
G02*
X122525000Y-106374999I0J-249999D01*
G01*
X122525000Y-106925001D01*
G75*
G02*
X122275001Y-107175000I-249999J0D01*
G01*
X121724999Y-107175000D01*
G75*
G02*
X121475000Y-106925001I0J249999D01*
G01*
X121475000Y-106374999D01*
G75*
G02*
X121724999Y-106125000I249999J0D01*
G01*
G37*
G36*
G01*
X120424999Y-104825000D02*
X120975001Y-104825000D01*
G75*
G02*
X121225000Y-105074999I0J-249999D01*
G01*
X121225000Y-105625001D01*
G75*
G02*
X120975001Y-105875000I-249999J0D01*
G01*
X120424999Y-105875000D01*
G75*
G02*
X120175000Y-105625001I0J249999D01*
G01*
X120175000Y-105074999D01*
G75*
G02*
X120424999Y-104825000I249999J0D01*
G01*
G37*
G36*
G01*
X121724999Y-104825000D02*
X122275001Y-104825000D01*
G75*
G02*
X122525000Y-105074999I0J-249999D01*
G01*
X122525000Y-105625001D01*
G75*
G02*
X122275001Y-105875000I-249999J0D01*
G01*
X121724999Y-105875000D01*
G75*
G02*
X121475000Y-105625001I0J249999D01*
G01*
X121475000Y-105074999D01*
G75*
G02*
X121724999Y-104825000I249999J0D01*
G01*
G37*
G36*
G01*
X138127500Y-106105000D02*
X138472500Y-106105000D01*
G75*
G02*
X138620000Y-106252500I0J-147500D01*
G01*
X138620000Y-106547500D01*
G75*
G02*
X138472500Y-106695000I-147500J0D01*
G01*
X138127500Y-106695000D01*
G75*
G02*
X137980000Y-106547500I0J147500D01*
G01*
X137980000Y-106252500D01*
G75*
G02*
X138127500Y-106105000I147500J0D01*
G01*
G37*
G36*
G01*
X138127500Y-107075000D02*
X138472500Y-107075000D01*
G75*
G02*
X138620000Y-107222500I0J-147500D01*
G01*
X138620000Y-107517500D01*
G75*
G02*
X138472500Y-107665000I-147500J0D01*
G01*
X138127500Y-107665000D01*
G75*
G02*
X137980000Y-107517500I0J147500D01*
G01*
X137980000Y-107222500D01*
G75*
G02*
X138127500Y-107075000I147500J0D01*
G01*
G37*
G36*
G01*
X116172500Y-106880000D02*
X115827500Y-106880000D01*
G75*
G02*
X115680000Y-106732500I0J147500D01*
G01*
X115680000Y-106437500D01*
G75*
G02*
X115827500Y-106290000I147500J0D01*
G01*
X116172500Y-106290000D01*
G75*
G02*
X116320000Y-106437500I0J-147500D01*
G01*
X116320000Y-106732500D01*
G75*
G02*
X116172500Y-106880000I-147500J0D01*
G01*
G37*
G36*
G01*
X116172500Y-105910000D02*
X115827500Y-105910000D01*
G75*
G02*
X115680000Y-105762500I0J147500D01*
G01*
X115680000Y-105467500D01*
G75*
G02*
X115827500Y-105320000I147500J0D01*
G01*
X116172500Y-105320000D01*
G75*
G02*
X116320000Y-105467500I0J-147500D01*
G01*
X116320000Y-105762500D01*
G75*
G02*
X116172500Y-105910000I-147500J0D01*
G01*
G37*
G36*
G01*
X136827500Y-106105000D02*
X137172500Y-106105000D01*
G75*
G02*
X137320000Y-106252500I0J-147500D01*
G01*
X137320000Y-106547500D01*
G75*
G02*
X137172500Y-106695000I-147500J0D01*
G01*
X136827500Y-106695000D01*
G75*
G02*
X136680000Y-106547500I0J147500D01*
G01*
X136680000Y-106252500D01*
G75*
G02*
X136827500Y-106105000I147500J0D01*
G01*
G37*
G36*
G01*
X136827500Y-107075000D02*
X137172500Y-107075000D01*
G75*
G02*
X137320000Y-107222500I0J-147500D01*
G01*
X137320000Y-107517500D01*
G75*
G02*
X137172500Y-107665000I-147500J0D01*
G01*
X136827500Y-107665000D01*
G75*
G02*
X136680000Y-107517500I0J147500D01*
G01*
X136680000Y-107222500D01*
G75*
G02*
X136827500Y-107075000I147500J0D01*
G01*
G37*
G36*
G01*
X114729000Y-104572500D02*
X114729000Y-104227500D01*
G75*
G02*
X114876500Y-104080000I147500J0D01*
G01*
X115171500Y-104080000D01*
G75*
G02*
X115319000Y-104227500I0J-147500D01*
G01*
X115319000Y-104572500D01*
G75*
G02*
X115171500Y-104720000I-147500J0D01*
G01*
X114876500Y-104720000D01*
G75*
G02*
X114729000Y-104572500I0J147500D01*
G01*
G37*
G36*
G01*
X113759000Y-104572500D02*
X113759000Y-104227500D01*
G75*
G02*
X113906500Y-104080000I147500J0D01*
G01*
X114201500Y-104080000D01*
G75*
G02*
X114349000Y-104227500I0J-147500D01*
G01*
X114349000Y-104572500D01*
G75*
G02*
X114201500Y-104720000I-147500J0D01*
G01*
X113906500Y-104720000D01*
G75*
G02*
X113759000Y-104572500I0J147500D01*
G01*
G37*
G36*
G01*
X130750000Y-107400000D02*
X130750000Y-107700000D01*
G75*
G02*
X130600000Y-107850000I-150000J0D01*
G01*
X130100000Y-107850000D01*
G75*
G02*
X129950000Y-107700000I0J150000D01*
G01*
X129950000Y-107400000D01*
G75*
G02*
X130100000Y-107250000I150000J0D01*
G01*
X130600000Y-107250000D01*
G75*
G02*
X130750000Y-107400000I0J-150000D01*
G01*
G37*
G36*
G01*
X129350000Y-107400000D02*
X129350000Y-107700000D01*
G75*
G02*
X129200000Y-107850000I-150000J0D01*
G01*
X128700000Y-107850000D01*
G75*
G02*
X128550000Y-107700000I0J150000D01*
G01*
X128550000Y-107400000D01*
G75*
G02*
X128700000Y-107250000I150000J0D01*
G01*
X129200000Y-107250000D01*
G75*
G02*
X129350000Y-107400000I0J-150000D01*
G01*
G37*
G36*
G01*
X133077500Y-102915000D02*
X132582500Y-102915000D01*
G75*
G02*
X132335000Y-102667500I0J247500D01*
G01*
X132335000Y-102172500D01*
G75*
G02*
X132582500Y-101925000I247500J0D01*
G01*
X133077500Y-101925000D01*
G75*
G02*
X133325000Y-102172500I0J-247500D01*
G01*
X133325000Y-102667500D01*
G75*
G02*
X133077500Y-102915000I-247500J0D01*
G01*
G37*
G36*
G01*
X131847500Y-102915000D02*
X131352500Y-102915000D01*
G75*
G02*
X131105000Y-102667500I0J247500D01*
G01*
X131105000Y-102172500D01*
G75*
G02*
X131352500Y-101925000I247500J0D01*
G01*
X131847500Y-101925000D01*
G75*
G02*
X132095000Y-102172500I0J-247500D01*
G01*
X132095000Y-102667500D01*
G75*
G02*
X131847500Y-102915000I-247500J0D01*
G01*
G37*
G36*
G01*
X130617500Y-102915000D02*
X130122500Y-102915000D01*
G75*
G02*
X129875000Y-102667500I0J247500D01*
G01*
X129875000Y-102172500D01*
G75*
G02*
X130122500Y-101925000I247500J0D01*
G01*
X130617500Y-101925000D01*
G75*
G02*
X130865000Y-102172500I0J-247500D01*
G01*
X130865000Y-102667500D01*
G75*
G02*
X130617500Y-102915000I-247500J0D01*
G01*
G37*
G36*
G01*
X133077500Y-104145000D02*
X132582500Y-104145000D01*
G75*
G02*
X132335000Y-103897500I0J247500D01*
G01*
X132335000Y-103402500D01*
G75*
G02*
X132582500Y-103155000I247500J0D01*
G01*
X133077500Y-103155000D01*
G75*
G02*
X133325000Y-103402500I0J-247500D01*
G01*
X133325000Y-103897500D01*
G75*
G02*
X133077500Y-104145000I-247500J0D01*
G01*
G37*
G36*
G01*
X131847500Y-104145000D02*
X131352500Y-104145000D01*
G75*
G02*
X131105000Y-103897500I0J247500D01*
G01*
X131105000Y-103402500D01*
G75*
G02*
X131352500Y-103155000I247500J0D01*
G01*
X131847500Y-103155000D01*
G75*
G02*
X132095000Y-103402500I0J-247500D01*
G01*
X132095000Y-103897500D01*
G75*
G02*
X131847500Y-104145000I-247500J0D01*
G01*
G37*
G36*
G01*
X130617500Y-104145000D02*
X130122500Y-104145000D01*
G75*
G02*
X129875000Y-103897500I0J247500D01*
G01*
X129875000Y-103402500D01*
G75*
G02*
X130122500Y-103155000I247500J0D01*
G01*
X130617500Y-103155000D01*
G75*
G02*
X130865000Y-103402500I0J-247500D01*
G01*
X130865000Y-103897500D01*
G75*
G02*
X130617500Y-104145000I-247500J0D01*
G01*
G37*
G36*
G01*
X133077500Y-105375000D02*
X132582500Y-105375000D01*
G75*
G02*
X132335000Y-105127500I0J247500D01*
G01*
X132335000Y-104632500D01*
G75*
G02*
X132582500Y-104385000I247500J0D01*
G01*
X133077500Y-104385000D01*
G75*
G02*
X133325000Y-104632500I0J-247500D01*
G01*
X133325000Y-105127500D01*
G75*
G02*
X133077500Y-105375000I-247500J0D01*
G01*
G37*
G36*
G01*
X131847500Y-105375000D02*
X131352500Y-105375000D01*
G75*
G02*
X131105000Y-105127500I0J247500D01*
G01*
X131105000Y-104632500D01*
G75*
G02*
X131352500Y-104385000I247500J0D01*
G01*
X131847500Y-104385000D01*
G75*
G02*
X132095000Y-104632500I0J-247500D01*
G01*
X132095000Y-105127500D01*
G75*
G02*
X131847500Y-105375000I-247500J0D01*
G01*
G37*
G36*
G01*
X130617500Y-105375000D02*
X130122500Y-105375000D01*
G75*
G02*
X129875000Y-105127500I0J247500D01*
G01*
X129875000Y-104632500D01*
G75*
G02*
X130122500Y-104385000I247500J0D01*
G01*
X130617500Y-104385000D01*
G75*
G02*
X130865000Y-104632500I0J-247500D01*
G01*
X130865000Y-105127500D01*
G75*
G02*
X130617500Y-105375000I-247500J0D01*
G01*
G37*
G36*
G01*
X129500000Y-105325000D02*
X128800000Y-105325000D01*
G75*
G02*
X128750000Y-105275000I0J50000D01*
G01*
X128750000Y-105175000D01*
G75*
G02*
X128800000Y-105125000I50000J0D01*
G01*
X129500000Y-105125000D01*
G75*
G02*
X129550000Y-105175000I0J-50000D01*
G01*
X129550000Y-105275000D01*
G75*
G02*
X129500000Y-105325000I-50000J0D01*
G01*
G37*
G36*
G01*
X129500000Y-104975000D02*
X128800000Y-104975000D01*
G75*
G02*
X128750000Y-104925000I0J50000D01*
G01*
X128750000Y-104825000D01*
G75*
G02*
X128800000Y-104775000I50000J0D01*
G01*
X129500000Y-104775000D01*
G75*
G02*
X129550000Y-104825000I0J-50000D01*
G01*
X129550000Y-104925000D01*
G75*
G02*
X129500000Y-104975000I-50000J0D01*
G01*
G37*
G36*
G01*
X129500000Y-104625000D02*
X128800000Y-104625000D01*
G75*
G02*
X128750000Y-104575000I0J50000D01*
G01*
X128750000Y-104475000D01*
G75*
G02*
X128800000Y-104425000I50000J0D01*
G01*
X129500000Y-104425000D01*
G75*
G02*
X129550000Y-104475000I0J-50000D01*
G01*
X129550000Y-104575000D01*
G75*
G02*
X129500000Y-104625000I-50000J0D01*
G01*
G37*
G36*
G01*
X129500000Y-104275000D02*
X128800000Y-104275000D01*
G75*
G02*
X128750000Y-104225000I0J50000D01*
G01*
X128750000Y-104125000D01*
G75*
G02*
X128800000Y-104075000I50000J0D01*
G01*
X129500000Y-104075000D01*
G75*
G02*
X129550000Y-104125000I0J-50000D01*
G01*
X129550000Y-104225000D01*
G75*
G02*
X129500000Y-104275000I-50000J0D01*
G01*
G37*
G36*
G01*
X129500000Y-103925000D02*
X128800000Y-103925000D01*
G75*
G02*
X128750000Y-103875000I0J50000D01*
G01*
X128750000Y-103775000D01*
G75*
G02*
X128800000Y-103725000I50000J0D01*
G01*
X129500000Y-103725000D01*
G75*
G02*
X129550000Y-103775000I0J-50000D01*
G01*
X129550000Y-103875000D01*
G75*
G02*
X129500000Y-103925000I-50000J0D01*
G01*
G37*
G36*
G01*
X129500000Y-103575000D02*
X128800000Y-103575000D01*
G75*
G02*
X128750000Y-103525000I0J50000D01*
G01*
X128750000Y-103425000D01*
G75*
G02*
X128800000Y-103375000I50000J0D01*
G01*
X129500000Y-103375000D01*
G75*
G02*
X129550000Y-103425000I0J-50000D01*
G01*
X129550000Y-103525000D01*
G75*
G02*
X129500000Y-103575000I-50000J0D01*
G01*
G37*
G36*
G01*
X129500000Y-103225000D02*
X128800000Y-103225000D01*
G75*
G02*
X128750000Y-103175000I0J50000D01*
G01*
X128750000Y-103075000D01*
G75*
G02*
X128800000Y-103025000I50000J0D01*
G01*
X129500000Y-103025000D01*
G75*
G02*
X129550000Y-103075000I0J-50000D01*
G01*
X129550000Y-103175000D01*
G75*
G02*
X129500000Y-103225000I-50000J0D01*
G01*
G37*
G36*
G01*
X129500000Y-102875000D02*
X128800000Y-102875000D01*
G75*
G02*
X128750000Y-102825000I0J50000D01*
G01*
X128750000Y-102725000D01*
G75*
G02*
X128800000Y-102675000I50000J0D01*
G01*
X129500000Y-102675000D01*
G75*
G02*
X129550000Y-102725000I0J-50000D01*
G01*
X129550000Y-102825000D01*
G75*
G02*
X129500000Y-102875000I-50000J0D01*
G01*
G37*
G36*
G01*
X129500000Y-102525000D02*
X128800000Y-102525000D01*
G75*
G02*
X128750000Y-102475000I0J50000D01*
G01*
X128750000Y-102375000D01*
G75*
G02*
X128800000Y-102325000I50000J0D01*
G01*
X129500000Y-102325000D01*
G75*
G02*
X129550000Y-102375000I0J-50000D01*
G01*
X129550000Y-102475000D01*
G75*
G02*
X129500000Y-102525000I-50000J0D01*
G01*
G37*
G36*
G01*
X129500000Y-102175000D02*
X128800000Y-102175000D01*
G75*
G02*
X128750000Y-102125000I0J50000D01*
G01*
X128750000Y-102025000D01*
G75*
G02*
X128800000Y-101975000I50000J0D01*
G01*
X129500000Y-101975000D01*
G75*
G02*
X129550000Y-102025000I0J-50000D01*
G01*
X129550000Y-102125000D01*
G75*
G02*
X129500000Y-102175000I-50000J0D01*
G01*
G37*
G36*
G01*
X129375000Y-101600000D02*
X129275000Y-101600000D01*
G75*
G02*
X129225000Y-101550000I0J50000D01*
G01*
X129225000Y-100850000D01*
G75*
G02*
X129275000Y-100800000I50000J0D01*
G01*
X129375000Y-100800000D01*
G75*
G02*
X129425000Y-100850000I0J-50000D01*
G01*
X129425000Y-101550000D01*
G75*
G02*
X129375000Y-101600000I-50000J0D01*
G01*
G37*
G36*
G01*
X129725000Y-101600000D02*
X129625000Y-101600000D01*
G75*
G02*
X129575000Y-101550000I0J50000D01*
G01*
X129575000Y-100850000D01*
G75*
G02*
X129625000Y-100800000I50000J0D01*
G01*
X129725000Y-100800000D01*
G75*
G02*
X129775000Y-100850000I0J-50000D01*
G01*
X129775000Y-101550000D01*
G75*
G02*
X129725000Y-101600000I-50000J0D01*
G01*
G37*
G36*
G01*
X130075000Y-101600000D02*
X129975000Y-101600000D01*
G75*
G02*
X129925000Y-101550000I0J50000D01*
G01*
X129925000Y-100850000D01*
G75*
G02*
X129975000Y-100800000I50000J0D01*
G01*
X130075000Y-100800000D01*
G75*
G02*
X130125000Y-100850000I0J-50000D01*
G01*
X130125000Y-101550000D01*
G75*
G02*
X130075000Y-101600000I-50000J0D01*
G01*
G37*
G36*
G01*
X130425000Y-101600000D02*
X130325000Y-101600000D01*
G75*
G02*
X130275000Y-101550000I0J50000D01*
G01*
X130275000Y-100850000D01*
G75*
G02*
X130325000Y-100800000I50000J0D01*
G01*
X130425000Y-100800000D01*
G75*
G02*
X130475000Y-100850000I0J-50000D01*
G01*
X130475000Y-101550000D01*
G75*
G02*
X130425000Y-101600000I-50000J0D01*
G01*
G37*
G36*
G01*
X130775000Y-101600000D02*
X130675000Y-101600000D01*
G75*
G02*
X130625000Y-101550000I0J50000D01*
G01*
X130625000Y-100850000D01*
G75*
G02*
X130675000Y-100800000I50000J0D01*
G01*
X130775000Y-100800000D01*
G75*
G02*
X130825000Y-100850000I0J-50000D01*
G01*
X130825000Y-101550000D01*
G75*
G02*
X130775000Y-101600000I-50000J0D01*
G01*
G37*
G36*
G01*
X131125000Y-101600000D02*
X131025000Y-101600000D01*
G75*
G02*
X130975000Y-101550000I0J50000D01*
G01*
X130975000Y-100850000D01*
G75*
G02*
X131025000Y-100800000I50000J0D01*
G01*
X131125000Y-100800000D01*
G75*
G02*
X131175000Y-100850000I0J-50000D01*
G01*
X131175000Y-101550000D01*
G75*
G02*
X131125000Y-101600000I-50000J0D01*
G01*
G37*
G36*
G01*
X131475000Y-101600000D02*
X131375000Y-101600000D01*
G75*
G02*
X131325000Y-101550000I0J50000D01*
G01*
X131325000Y-100850000D01*
G75*
G02*
X131375000Y-100800000I50000J0D01*
G01*
X131475000Y-100800000D01*
G75*
G02*
X131525000Y-100850000I0J-50000D01*
G01*
X131525000Y-101550000D01*
G75*
G02*
X131475000Y-101600000I-50000J0D01*
G01*
G37*
G36*
G01*
X131825000Y-101600000D02*
X131725000Y-101600000D01*
G75*
G02*
X131675000Y-101550000I0J50000D01*
G01*
X131675000Y-100850000D01*
G75*
G02*
X131725000Y-100800000I50000J0D01*
G01*
X131825000Y-100800000D01*
G75*
G02*
X131875000Y-100850000I0J-50000D01*
G01*
X131875000Y-101550000D01*
G75*
G02*
X131825000Y-101600000I-50000J0D01*
G01*
G37*
G36*
G01*
X132175000Y-101600000D02*
X132075000Y-101600000D01*
G75*
G02*
X132025000Y-101550000I0J50000D01*
G01*
X132025000Y-100850000D01*
G75*
G02*
X132075000Y-100800000I50000J0D01*
G01*
X132175000Y-100800000D01*
G75*
G02*
X132225000Y-100850000I0J-50000D01*
G01*
X132225000Y-101550000D01*
G75*
G02*
X132175000Y-101600000I-50000J0D01*
G01*
G37*
G36*
G01*
X132525000Y-101600000D02*
X132425000Y-101600000D01*
G75*
G02*
X132375000Y-101550000I0J50000D01*
G01*
X132375000Y-100850000D01*
G75*
G02*
X132425000Y-100800000I50000J0D01*
G01*
X132525000Y-100800000D01*
G75*
G02*
X132575000Y-100850000I0J-50000D01*
G01*
X132575000Y-101550000D01*
G75*
G02*
X132525000Y-101600000I-50000J0D01*
G01*
G37*
G36*
G01*
X132875000Y-101600000D02*
X132775000Y-101600000D01*
G75*
G02*
X132725000Y-101550000I0J50000D01*
G01*
X132725000Y-100850000D01*
G75*
G02*
X132775000Y-100800000I50000J0D01*
G01*
X132875000Y-100800000D01*
G75*
G02*
X132925000Y-100850000I0J-50000D01*
G01*
X132925000Y-101550000D01*
G75*
G02*
X132875000Y-101600000I-50000J0D01*
G01*
G37*
G36*
G01*
X133225000Y-101600000D02*
X133125000Y-101600000D01*
G75*
G02*
X133075000Y-101550000I0J50000D01*
G01*
X133075000Y-100850000D01*
G75*
G02*
X133125000Y-100800000I50000J0D01*
G01*
X133225000Y-100800000D01*
G75*
G02*
X133275000Y-100850000I0J-50000D01*
G01*
X133275000Y-101550000D01*
G75*
G02*
X133225000Y-101600000I-50000J0D01*
G01*
G37*
G36*
G01*
X133575000Y-101600000D02*
X133475000Y-101600000D01*
G75*
G02*
X133425000Y-101550000I0J50000D01*
G01*
X133425000Y-100850000D01*
G75*
G02*
X133475000Y-100800000I50000J0D01*
G01*
X133575000Y-100800000D01*
G75*
G02*
X133625000Y-100850000I0J-50000D01*
G01*
X133625000Y-101550000D01*
G75*
G02*
X133575000Y-101600000I-50000J0D01*
G01*
G37*
G36*
G01*
X133925000Y-101600000D02*
X133825000Y-101600000D01*
G75*
G02*
X133775000Y-101550000I0J50000D01*
G01*
X133775000Y-100850000D01*
G75*
G02*
X133825000Y-100800000I50000J0D01*
G01*
X133925000Y-100800000D01*
G75*
G02*
X133975000Y-100850000I0J-50000D01*
G01*
X133975000Y-101550000D01*
G75*
G02*
X133925000Y-101600000I-50000J0D01*
G01*
G37*
G36*
G01*
X134400000Y-102175000D02*
X133700000Y-102175000D01*
G75*
G02*
X133650000Y-102125000I0J50000D01*
G01*
X133650000Y-102025000D01*
G75*
G02*
X133700000Y-101975000I50000J0D01*
G01*
X134400000Y-101975000D01*
G75*
G02*
X134450000Y-102025000I0J-50000D01*
G01*
X134450000Y-102125000D01*
G75*
G02*
X134400000Y-102175000I-50000J0D01*
G01*
G37*
G36*
G01*
X134400000Y-102525000D02*
X133700000Y-102525000D01*
G75*
G02*
X133650000Y-102475000I0J50000D01*
G01*
X133650000Y-102375000D01*
G75*
G02*
X133700000Y-102325000I50000J0D01*
G01*
X134400000Y-102325000D01*
G75*
G02*
X134450000Y-102375000I0J-50000D01*
G01*
X134450000Y-102475000D01*
G75*
G02*
X134400000Y-102525000I-50000J0D01*
G01*
G37*
G36*
G01*
X134400000Y-102875000D02*
X133700000Y-102875000D01*
G75*
G02*
X133650000Y-102825000I0J50000D01*
G01*
X133650000Y-102725000D01*
G75*
G02*
X133700000Y-102675000I50000J0D01*
G01*
X134400000Y-102675000D01*
G75*
G02*
X134450000Y-102725000I0J-50000D01*
G01*
X134450000Y-102825000D01*
G75*
G02*
X134400000Y-102875000I-50000J0D01*
G01*
G37*
G36*
G01*
X134400000Y-103225000D02*
X133700000Y-103225000D01*
G75*
G02*
X133650000Y-103175000I0J50000D01*
G01*
X133650000Y-103075000D01*
G75*
G02*
X133700000Y-103025000I50000J0D01*
G01*
X134400000Y-103025000D01*
G75*
G02*
X134450000Y-103075000I0J-50000D01*
G01*
X134450000Y-103175000D01*
G75*
G02*
X134400000Y-103225000I-50000J0D01*
G01*
G37*
G36*
G01*
X134400000Y-103575000D02*
X133700000Y-103575000D01*
G75*
G02*
X133650000Y-103525000I0J50000D01*
G01*
X133650000Y-103425000D01*
G75*
G02*
X133700000Y-103375000I50000J0D01*
G01*
X134400000Y-103375000D01*
G75*
G02*
X134450000Y-103425000I0J-50000D01*
G01*
X134450000Y-103525000D01*
G75*
G02*
X134400000Y-103575000I-50000J0D01*
G01*
G37*
G36*
G01*
X134400000Y-103925000D02*
X133700000Y-103925000D01*
G75*
G02*
X133650000Y-103875000I0J50000D01*
G01*
X133650000Y-103775000D01*
G75*
G02*
X133700000Y-103725000I50000J0D01*
G01*
X134400000Y-103725000D01*
G75*
G02*
X134450000Y-103775000I0J-50000D01*
G01*
X134450000Y-103875000D01*
G75*
G02*
X134400000Y-103925000I-50000J0D01*
G01*
G37*
G36*
G01*
X134400000Y-104275000D02*
X133700000Y-104275000D01*
G75*
G02*
X133650000Y-104225000I0J50000D01*
G01*
X133650000Y-104125000D01*
G75*
G02*
X133700000Y-104075000I50000J0D01*
G01*
X134400000Y-104075000D01*
G75*
G02*
X134450000Y-104125000I0J-50000D01*
G01*
X134450000Y-104225000D01*
G75*
G02*
X134400000Y-104275000I-50000J0D01*
G01*
G37*
G36*
G01*
X134400000Y-104625000D02*
X133700000Y-104625000D01*
G75*
G02*
X133650000Y-104575000I0J50000D01*
G01*
X133650000Y-104475000D01*
G75*
G02*
X133700000Y-104425000I50000J0D01*
G01*
X134400000Y-104425000D01*
G75*
G02*
X134450000Y-104475000I0J-50000D01*
G01*
X134450000Y-104575000D01*
G75*
G02*
X134400000Y-104625000I-50000J0D01*
G01*
G37*
G36*
G01*
X134400000Y-104975000D02*
X133700000Y-104975000D01*
G75*
G02*
X133650000Y-104925000I0J50000D01*
G01*
X133650000Y-104825000D01*
G75*
G02*
X133700000Y-104775000I50000J0D01*
G01*
X134400000Y-104775000D01*
G75*
G02*
X134450000Y-104825000I0J-50000D01*
G01*
X134450000Y-104925000D01*
G75*
G02*
X134400000Y-104975000I-50000J0D01*
G01*
G37*
G36*
G01*
X134400000Y-105325000D02*
X133700000Y-105325000D01*
G75*
G02*
X133650000Y-105275000I0J50000D01*
G01*
X133650000Y-105175000D01*
G75*
G02*
X133700000Y-105125000I50000J0D01*
G01*
X134400000Y-105125000D01*
G75*
G02*
X134450000Y-105175000I0J-50000D01*
G01*
X134450000Y-105275000D01*
G75*
G02*
X134400000Y-105325000I-50000J0D01*
G01*
G37*
G36*
G01*
X133925000Y-106500000D02*
X133825000Y-106500000D01*
G75*
G02*
X133775000Y-106450000I0J50000D01*
G01*
X133775000Y-105750000D01*
G75*
G02*
X133825000Y-105700000I50000J0D01*
G01*
X133925000Y-105700000D01*
G75*
G02*
X133975000Y-105750000I0J-50000D01*
G01*
X133975000Y-106450000D01*
G75*
G02*
X133925000Y-106500000I-50000J0D01*
G01*
G37*
G36*
G01*
X133575000Y-106500000D02*
X133475000Y-106500000D01*
G75*
G02*
X133425000Y-106450000I0J50000D01*
G01*
X133425000Y-105750000D01*
G75*
G02*
X133475000Y-105700000I50000J0D01*
G01*
X133575000Y-105700000D01*
G75*
G02*
X133625000Y-105750000I0J-50000D01*
G01*
X133625000Y-106450000D01*
G75*
G02*
X133575000Y-106500000I-50000J0D01*
G01*
G37*
G36*
G01*
X133225000Y-106500000D02*
X133125000Y-106500000D01*
G75*
G02*
X133075000Y-106450000I0J50000D01*
G01*
X133075000Y-105750000D01*
G75*
G02*
X133125000Y-105700000I50000J0D01*
G01*
X133225000Y-105700000D01*
G75*
G02*
X133275000Y-105750000I0J-50000D01*
G01*
X133275000Y-106450000D01*
G75*
G02*
X133225000Y-106500000I-50000J0D01*
G01*
G37*
G36*
G01*
X132875000Y-106500000D02*
X132775000Y-106500000D01*
G75*
G02*
X132725000Y-106450000I0J50000D01*
G01*
X132725000Y-105750000D01*
G75*
G02*
X132775000Y-105700000I50000J0D01*
G01*
X132875000Y-105700000D01*
G75*
G02*
X132925000Y-105750000I0J-50000D01*
G01*
X132925000Y-106450000D01*
G75*
G02*
X132875000Y-106500000I-50000J0D01*
G01*
G37*
G36*
G01*
X132525000Y-106500000D02*
X132425000Y-106500000D01*
G75*
G02*
X132375000Y-106450000I0J50000D01*
G01*
X132375000Y-105750000D01*
G75*
G02*
X132425000Y-105700000I50000J0D01*
G01*
X132525000Y-105700000D01*
G75*
G02*
X132575000Y-105750000I0J-50000D01*
G01*
X132575000Y-106450000D01*
G75*
G02*
X132525000Y-106500000I-50000J0D01*
G01*
G37*
G36*
G01*
X132175000Y-106500000D02*
X132075000Y-106500000D01*
G75*
G02*
X132025000Y-106450000I0J50000D01*
G01*
X132025000Y-105750000D01*
G75*
G02*
X132075000Y-105700000I50000J0D01*
G01*
X132175000Y-105700000D01*
G75*
G02*
X132225000Y-105750000I0J-50000D01*
G01*
X132225000Y-106450000D01*
G75*
G02*
X132175000Y-106500000I-50000J0D01*
G01*
G37*
G36*
G01*
X131825000Y-106500000D02*
X131725000Y-106500000D01*
G75*
G02*
X131675000Y-106450000I0J50000D01*
G01*
X131675000Y-105750000D01*
G75*
G02*
X131725000Y-105700000I50000J0D01*
G01*
X131825000Y-105700000D01*
G75*
G02*
X131875000Y-105750000I0J-50000D01*
G01*
X131875000Y-106450000D01*
G75*
G02*
X131825000Y-106500000I-50000J0D01*
G01*
G37*
G36*
G01*
X131475000Y-106500000D02*
X131375000Y-106500000D01*
G75*
G02*
X131325000Y-106450000I0J50000D01*
G01*
X131325000Y-105750000D01*
G75*
G02*
X131375000Y-105700000I50000J0D01*
G01*
X131475000Y-105700000D01*
G75*
G02*
X131525000Y-105750000I0J-50000D01*
G01*
X131525000Y-106450000D01*
G75*
G02*
X131475000Y-106500000I-50000J0D01*
G01*
G37*
G36*
G01*
X131125000Y-106500000D02*
X131025000Y-106500000D01*
G75*
G02*
X130975000Y-106450000I0J50000D01*
G01*
X130975000Y-105750000D01*
G75*
G02*
X131025000Y-105700000I50000J0D01*
G01*
X131125000Y-105700000D01*
G75*
G02*
X131175000Y-105750000I0J-50000D01*
G01*
X131175000Y-106450000D01*
G75*
G02*
X131125000Y-106500000I-50000J0D01*
G01*
G37*
G36*
G01*
X130775000Y-106500000D02*
X130675000Y-106500000D01*
G75*
G02*
X130625000Y-106450000I0J50000D01*
G01*
X130625000Y-105750000D01*
G75*
G02*
X130675000Y-105700000I50000J0D01*
G01*
X130775000Y-105700000D01*
G75*
G02*
X130825000Y-105750000I0J-50000D01*
G01*
X130825000Y-106450000D01*
G75*
G02*
X130775000Y-106500000I-50000J0D01*
G01*
G37*
G36*
G01*
X130425000Y-106500000D02*
X130325000Y-106500000D01*
G75*
G02*
X130275000Y-106450000I0J50000D01*
G01*
X130275000Y-105750000D01*
G75*
G02*
X130325000Y-105700000I50000J0D01*
G01*
X130425000Y-105700000D01*
G75*
G02*
X130475000Y-105750000I0J-50000D01*
G01*
X130475000Y-106450000D01*
G75*
G02*
X130425000Y-106500000I-50000J0D01*
G01*
G37*
G36*
G01*
X130075000Y-106500000D02*
X129975000Y-106500000D01*
G75*
G02*
X129925000Y-106450000I0J50000D01*
G01*
X129925000Y-105750000D01*
G75*
G02*
X129975000Y-105700000I50000J0D01*
G01*
X130075000Y-105700000D01*
G75*
G02*
X130125000Y-105750000I0J-50000D01*
G01*
X130125000Y-106450000D01*
G75*
G02*
X130075000Y-106500000I-50000J0D01*
G01*
G37*
G36*
G01*
X129725000Y-106500000D02*
X129625000Y-106500000D01*
G75*
G02*
X129575000Y-106450000I0J50000D01*
G01*
X129575000Y-105750000D01*
G75*
G02*
X129625000Y-105700000I50000J0D01*
G01*
X129725000Y-105700000D01*
G75*
G02*
X129775000Y-105750000I0J-50000D01*
G01*
X129775000Y-106450000D01*
G75*
G02*
X129725000Y-106500000I-50000J0D01*
G01*
G37*
G36*
G01*
X129375000Y-106500000D02*
X129275000Y-106500000D01*
G75*
G02*
X129225000Y-106450000I0J50000D01*
G01*
X129225000Y-105750000D01*
G75*
G02*
X129275000Y-105700000I50000J0D01*
G01*
X129375000Y-105700000D01*
G75*
G02*
X129425000Y-105750000I0J-50000D01*
G01*
X129425000Y-106450000D01*
G75*
G02*
X129375000Y-106500000I-50000J0D01*
G01*
G37*
D10*
X137750000Y-102400000D03*
X136450000Y-102400000D03*
X137100000Y-104300000D03*
X137100000Y-102400000D03*
X136450000Y-104300000D03*
X137750000Y-104300000D03*
M02*
