M48
; DRILL file {KiCad (5.1.10)-1} date 07/08/21 15:44:43
; FORMAT={-:-/ absolute / inch / decimal}
; #@! TF.CreationDate,2021-07-08T15:44:43-07:00
; #@! TF.GenerationSoftware,Kicad,Pcbnew,(5.1.10)-1
FMAT,2
INCH
T1C0.0157
T2C0.0197
%
G90
G05
T1
X3.9724Y-3.9724
X3.9724Y-4.2559
X3.9724Y-4.4449
X3.9724Y-4.7283
X4.0433Y-3.9961
X4.0433Y-4.4685
X4.0463Y-4.2559
X4.0463Y-4.7283
X4.1654Y-3.9646
X4.1654Y-4.437
X4.189Y-4.1378
X4.189Y-4.6102
X4.2246Y-4.0231
X4.2246Y-4.4956
X4.2283Y-4.1142
X4.2283Y-4.5866
X4.248Y-4.0591
X4.248Y-4.5315
X4.3228Y-4.1575
X4.3228Y-4.6299
X4.3543Y-4.063
X4.3543Y-4.5354
X4.387Y-4.2597
X4.387Y-4.7321
X4.3937Y-4.0945
X4.3937Y-4.5669
X4.4291Y-4.0236
X4.4291Y-4.4961
X4.4685Y-4.1811
X4.4685Y-4.6535
X4.5236Y-4.189
X4.5236Y-4.6614
X4.6299Y-4.1457
X4.6299Y-4.6181
X4.7402Y-4.1732
X4.7402Y-4.6457
X4.7579Y-4.1417
X4.7579Y-4.2047
X4.7579Y-4.6142
X4.7579Y-4.6772
X4.7776Y-4.1732
X4.7776Y-4.6457
X4.7972Y-4.1417
X4.7972Y-4.2047
X4.7972Y-4.6142
X4.7972Y-4.6772
X4.815Y-4.1732
X4.815Y-4.6457
X4.9636Y-4.1555
X4.9636Y-4.2382
X4.9636Y-4.628
X4.9636Y-4.7106
X5.0236Y-3.9862
X5.0236Y-4.4587
X5.0285Y-4.2126
X5.0285Y-4.685
X5.0382Y-4.0953
X5.0382Y-4.5677
X5.122Y-4.0335
X5.122Y-4.0965
X5.122Y-4.5059
X5.122Y-4.5689
X5.1417Y-4.065
X5.1417Y-4.128
X5.1417Y-4.5374
X5.1417Y-4.6004
X5.1614Y-4.0335
X5.1614Y-4.0965
X5.1614Y-4.5059
X5.1614Y-4.5689
X5.1811Y-4.065
X5.1811Y-4.128
X5.1811Y-4.5374
X5.1811Y-4.6004
X5.2008Y-4.0335
X5.2008Y-4.0965
X5.2008Y-4.5059
X5.2008Y-4.5689
X5.2205Y-4.065
X5.2205Y-4.128
X5.2205Y-4.5374
X5.2205Y-4.6004
X5.2402Y-4.0335
X5.2402Y-4.0965
X5.2402Y-4.5059
X5.2402Y-4.5689
X5.3317Y-4.0413
X5.3317Y-4.5138
X5.3366Y-4.1762
X5.3366Y-4.6486
X5.3553Y-4.2156
X5.3553Y-4.688
X5.4195Y-4.0689
X5.4195Y-4.5413
X5.4508Y-4.1535
X5.4508Y-4.626
X5.4646Y-4.0118
X5.4646Y-4.4843
X5.7126Y-3.9724
X5.7126Y-4.2559
X5.7126Y-4.4449
X5.7126Y-4.7283
T2
X3.8642Y-4.0354
X3.8642Y-4.0748
X3.8642Y-4.1142
X3.8642Y-4.1535
X3.8642Y-4.1929
X3.8642Y-4.5079
X3.8642Y-4.5472
X3.8642Y-4.5866
X3.8642Y-4.626
X3.8642Y-4.6654
X5.8209Y-4.0354
X5.8209Y-4.0748
X5.8209Y-4.1142
X5.8209Y-4.1535
X5.8209Y-4.1929
X5.8209Y-4.5079
X5.8209Y-4.5472
X5.8209Y-4.5866
X5.8209Y-4.626
X5.8209Y-4.6654
T0
M30
