G04 #@! TF.GenerationSoftware,KiCad,Pcbnew,(5.1.6)-1*
G04 #@! TF.CreationDate,2020-08-02T19:24:28+02:00*
G04 #@! TF.ProjectId,panelized,70616e65-6c69-47a6-9564-2e6b69636164,rev?*
G04 #@! TF.SameCoordinates,Original*
G04 #@! TF.FileFunction,Copper,L1,Top*
G04 #@! TF.FilePolarity,Positive*
%FSLAX46Y46*%
G04 Gerber Fmt 4.6, Leading zero omitted, Abs format (unit mm)*
G04 Created by KiCad (PCBNEW (5.1.6)-1) date 2020-08-02 19:24:28*
%MOMM*%
%LPD*%
G01*
G04 APERTURE LIST*
G04 #@! TA.AperFunction,SMDPad,CuDef*
%ADD10R,0.850000X0.280000*%
G04 #@! TD*
G04 #@! TA.AperFunction,SMDPad,CuDef*
%ADD11R,1.650000X2.400000*%
G04 #@! TD*
G04 #@! TA.AperFunction,SMDPad,CuDef*
%ADD12R,0.280000X0.700000*%
G04 #@! TD*
G04 #@! TA.AperFunction,SMDPad,CuDef*
%ADD13R,0.700000X0.450000*%
G04 #@! TD*
G04 #@! TA.AperFunction,ComponentPad*
%ADD14R,1.600000X1.600000*%
G04 #@! TD*
G04 #@! TA.AperFunction,SMDPad,CuDef*
%ADD15R,1.060000X0.650000*%
G04 #@! TD*
G04 #@! TA.AperFunction,SMDPad,CuDef*
%ADD16R,0.450000X0.700000*%
G04 #@! TD*
G04 #@! TA.AperFunction,SMDPad,CuDef*
%ADD17R,0.400000X2.700000*%
G04 #@! TD*
G04 #@! TA.AperFunction,SMDPad,CuDef*
%ADD18R,1.600000X0.800000*%
G04 #@! TD*
G04 #@! TA.AperFunction,SMDPad,CuDef*
%ADD19R,0.400000X0.650000*%
G04 #@! TD*
G04 #@! TA.AperFunction,ViaPad*
%ADD20C,0.800000*%
G04 #@! TD*
G04 #@! TA.AperFunction,Conductor*
%ADD21C,0.250000*%
G04 #@! TD*
G04 #@! TA.AperFunction,Conductor*
%ADD22C,0.800000*%
G04 #@! TD*
G04 APERTURE END LIST*
G04 #@! TA.AperFunction,SMDPad,CuDef*
G36*
G01*
X104290000Y-113853250D02*
X104290000Y-112940750D01*
G75*
G02*
X104533750Y-112697000I243750J0D01*
G01*
X105021250Y-112697000D01*
G75*
G02*
X105265000Y-112940750I0J-243750D01*
G01*
X105265000Y-113853250D01*
G75*
G02*
X105021250Y-114097000I-243750J0D01*
G01*
X104533750Y-114097000D01*
G75*
G02*
X104290000Y-113853250I0J243750D01*
G01*
G37*
G04 #@! TD.AperFunction*
G04 #@! TA.AperFunction,SMDPad,CuDef*
G36*
G01*
X106165000Y-113853250D02*
X106165000Y-112940750D01*
G75*
G02*
X106408750Y-112697000I243750J0D01*
G01*
X106896250Y-112697000D01*
G75*
G02*
X107140000Y-112940750I0J-243750D01*
G01*
X107140000Y-113853250D01*
G75*
G02*
X106896250Y-114097000I-243750J0D01*
G01*
X106408750Y-114097000D01*
G75*
G02*
X106165000Y-113853250I0J243750D01*
G01*
G37*
G04 #@! TD.AperFunction*
G04 #@! TA.AperFunction,SMDPad,CuDef*
G36*
G01*
X104290000Y-119949250D02*
X104290000Y-119036750D01*
G75*
G02*
X104533750Y-118793000I243750J0D01*
G01*
X105021250Y-118793000D01*
G75*
G02*
X105265000Y-119036750I0J-243750D01*
G01*
X105265000Y-119949250D01*
G75*
G02*
X105021250Y-120193000I-243750J0D01*
G01*
X104533750Y-120193000D01*
G75*
G02*
X104290000Y-119949250I0J243750D01*
G01*
G37*
G04 #@! TD.AperFunction*
G04 #@! TA.AperFunction,SMDPad,CuDef*
G36*
G01*
X106165000Y-119949250D02*
X106165000Y-119036750D01*
G75*
G02*
X106408750Y-118793000I243750J0D01*
G01*
X106896250Y-118793000D01*
G75*
G02*
X107140000Y-119036750I0J-243750D01*
G01*
X107140000Y-119949250D01*
G75*
G02*
X106896250Y-120193000I-243750J0D01*
G01*
X106408750Y-120193000D01*
G75*
G02*
X106165000Y-119949250I0J243750D01*
G01*
G37*
G04 #@! TD.AperFunction*
G04 #@! TA.AperFunction,SMDPad,CuDef*
G36*
G01*
X138078500Y-112662000D02*
X138078500Y-112862000D01*
G75*
G02*
X137978500Y-112962000I-100000J0D01*
G01*
X137718500Y-112962000D01*
G75*
G02*
X137618500Y-112862000I0J100000D01*
G01*
X137618500Y-112662000D01*
G75*
G02*
X137718500Y-112562000I100000J0D01*
G01*
X137978500Y-112562000D01*
G75*
G02*
X138078500Y-112662000I0J-100000D01*
G01*
G37*
G04 #@! TD.AperFunction*
G04 #@! TA.AperFunction,SMDPad,CuDef*
G36*
G01*
X137438500Y-112662000D02*
X137438500Y-112862000D01*
G75*
G02*
X137338500Y-112962000I-100000J0D01*
G01*
X137078500Y-112962000D01*
G75*
G02*
X136978500Y-112862000I0J100000D01*
G01*
X136978500Y-112662000D01*
G75*
G02*
X137078500Y-112562000I100000J0D01*
G01*
X137338500Y-112562000D01*
G75*
G02*
X137438500Y-112662000I0J-100000D01*
G01*
G37*
G04 #@! TD.AperFunction*
D10*
X107190000Y-117445000D03*
X107190000Y-116945000D03*
X107190000Y-116445000D03*
X107190000Y-115945000D03*
X107190000Y-115445000D03*
X104240000Y-115445000D03*
X104240000Y-115945000D03*
X104240000Y-116445000D03*
X104240000Y-116945000D03*
X104240000Y-117445000D03*
D11*
X105715000Y-116445000D03*
D12*
X105965000Y-117995000D03*
X105965000Y-114895000D03*
X105465000Y-117995000D03*
X105465000Y-114895000D03*
G04 #@! TA.AperFunction,SMDPad,CuDef*
G36*
G01*
X112845000Y-117669500D02*
X112845000Y-118014500D01*
G75*
G02*
X112697500Y-118162000I-147500J0D01*
G01*
X112402500Y-118162000D01*
G75*
G02*
X112255000Y-118014500I0J147500D01*
G01*
X112255000Y-117669500D01*
G75*
G02*
X112402500Y-117522000I147500J0D01*
G01*
X112697500Y-117522000D01*
G75*
G02*
X112845000Y-117669500I0J-147500D01*
G01*
G37*
G04 #@! TD.AperFunction*
G04 #@! TA.AperFunction,SMDPad,CuDef*
G36*
G01*
X111875000Y-117669500D02*
X111875000Y-118014500D01*
G75*
G02*
X111727500Y-118162000I-147500J0D01*
G01*
X111432500Y-118162000D01*
G75*
G02*
X111285000Y-118014500I0J147500D01*
G01*
X111285000Y-117669500D01*
G75*
G02*
X111432500Y-117522000I147500J0D01*
G01*
X111727500Y-117522000D01*
G75*
G02*
X111875000Y-117669500I0J-147500D01*
G01*
G37*
G04 #@! TD.AperFunction*
D13*
X102651000Y-118111000D03*
X102651000Y-116811000D03*
X100651000Y-117461000D03*
G04 #@! TA.AperFunction,SMDPad,CuDef*
G36*
G01*
X126627500Y-113220000D02*
X126972500Y-113220000D01*
G75*
G02*
X127120000Y-113367500I0J-147500D01*
G01*
X127120000Y-113662500D01*
G75*
G02*
X126972500Y-113810000I-147500J0D01*
G01*
X126627500Y-113810000D01*
G75*
G02*
X126480000Y-113662500I0J147500D01*
G01*
X126480000Y-113367500D01*
G75*
G02*
X126627500Y-113220000I147500J0D01*
G01*
G37*
G04 #@! TD.AperFunction*
G04 #@! TA.AperFunction,SMDPad,CuDef*
G36*
G01*
X126627500Y-114190000D02*
X126972500Y-114190000D01*
G75*
G02*
X127120000Y-114337500I0J-147500D01*
G01*
X127120000Y-114632500D01*
G75*
G02*
X126972500Y-114780000I-147500J0D01*
G01*
X126627500Y-114780000D01*
G75*
G02*
X126480000Y-114632500I0J147500D01*
G01*
X126480000Y-114337500D01*
G75*
G02*
X126627500Y-114190000I147500J0D01*
G01*
G37*
G04 #@! TD.AperFunction*
G04 #@! TA.AperFunction,SMDPad,CuDef*
G36*
G01*
X110904000Y-118967000D02*
X110904000Y-118622000D01*
G75*
G02*
X111051500Y-118474500I147500J0D01*
G01*
X111346500Y-118474500D01*
G75*
G02*
X111494000Y-118622000I0J-147500D01*
G01*
X111494000Y-118967000D01*
G75*
G02*
X111346500Y-119114500I-147500J0D01*
G01*
X111051500Y-119114500D01*
G75*
G02*
X110904000Y-118967000I0J147500D01*
G01*
G37*
G04 #@! TD.AperFunction*
G04 #@! TA.AperFunction,SMDPad,CuDef*
G36*
G01*
X111874000Y-118967000D02*
X111874000Y-118622000D01*
G75*
G02*
X112021500Y-118474500I147500J0D01*
G01*
X112316500Y-118474500D01*
G75*
G02*
X112464000Y-118622000I0J-147500D01*
G01*
X112464000Y-118967000D01*
G75*
G02*
X112316500Y-119114500I-147500J0D01*
G01*
X112021500Y-119114500D01*
G75*
G02*
X111874000Y-118967000I0J147500D01*
G01*
G37*
G04 #@! TD.AperFunction*
G04 #@! TA.AperFunction,SMDPad,CuDef*
G36*
G01*
X109947000Y-117415500D02*
X109947000Y-117760500D01*
G75*
G02*
X109799500Y-117908000I-147500J0D01*
G01*
X109504500Y-117908000D01*
G75*
G02*
X109357000Y-117760500I0J147500D01*
G01*
X109357000Y-117415500D01*
G75*
G02*
X109504500Y-117268000I147500J0D01*
G01*
X109799500Y-117268000D01*
G75*
G02*
X109947000Y-117415500I0J-147500D01*
G01*
G37*
G04 #@! TD.AperFunction*
G04 #@! TA.AperFunction,SMDPad,CuDef*
G36*
G01*
X108977000Y-117415500D02*
X108977000Y-117760500D01*
G75*
G02*
X108829500Y-117908000I-147500J0D01*
G01*
X108534500Y-117908000D01*
G75*
G02*
X108387000Y-117760500I0J147500D01*
G01*
X108387000Y-117415500D01*
G75*
G02*
X108534500Y-117268000I147500J0D01*
G01*
X108829500Y-117268000D01*
G75*
G02*
X108977000Y-117415500I0J-147500D01*
G01*
G37*
G04 #@! TD.AperFunction*
D14*
X145100000Y-112900000D03*
G04 #@! TA.AperFunction,SMDPad,CuDef*
G36*
G01*
X139343750Y-118900000D02*
X139856250Y-118900000D01*
G75*
G02*
X140075000Y-119118750I0J-218750D01*
G01*
X140075000Y-119556250D01*
G75*
G02*
X139856250Y-119775000I-218750J0D01*
G01*
X139343750Y-119775000D01*
G75*
G02*
X139125000Y-119556250I0J218750D01*
G01*
X139125000Y-119118750D01*
G75*
G02*
X139343750Y-118900000I218750J0D01*
G01*
G37*
G04 #@! TD.AperFunction*
G04 #@! TA.AperFunction,SMDPad,CuDef*
G36*
G01*
X139343750Y-117325000D02*
X139856250Y-117325000D01*
G75*
G02*
X140075000Y-117543750I0J-218750D01*
G01*
X140075000Y-117981250D01*
G75*
G02*
X139856250Y-118200000I-218750J0D01*
G01*
X139343750Y-118200000D01*
G75*
G02*
X139125000Y-117981250I0J218750D01*
G01*
X139125000Y-117543750D01*
G75*
G02*
X139343750Y-117325000I218750J0D01*
G01*
G37*
G04 #@! TD.AperFunction*
D15*
X115950000Y-113050000D03*
X115950000Y-114950000D03*
X113750000Y-114950000D03*
X113750000Y-114000000D03*
X113750000Y-113050000D03*
G04 #@! TA.AperFunction,SMDPad,CuDef*
G36*
G01*
X139172500Y-116580000D02*
X138827500Y-116580000D01*
G75*
G02*
X138680000Y-116432500I0J147500D01*
G01*
X138680000Y-116137500D01*
G75*
G02*
X138827500Y-115990000I147500J0D01*
G01*
X139172500Y-115990000D01*
G75*
G02*
X139320000Y-116137500I0J-147500D01*
G01*
X139320000Y-116432500D01*
G75*
G02*
X139172500Y-116580000I-147500J0D01*
G01*
G37*
G04 #@! TD.AperFunction*
G04 #@! TA.AperFunction,SMDPad,CuDef*
G36*
G01*
X139172500Y-115610000D02*
X138827500Y-115610000D01*
G75*
G02*
X138680000Y-115462500I0J147500D01*
G01*
X138680000Y-115167500D01*
G75*
G02*
X138827500Y-115020000I147500J0D01*
G01*
X139172500Y-115020000D01*
G75*
G02*
X139320000Y-115167500I0J-147500D01*
G01*
X139320000Y-115462500D01*
G75*
G02*
X139172500Y-115610000I-147500J0D01*
G01*
G37*
G04 #@! TD.AperFunction*
G04 #@! TA.AperFunction,SMDPad,CuDef*
G36*
G01*
X100871000Y-115728500D02*
X100871000Y-115383500D01*
G75*
G02*
X101018500Y-115236000I147500J0D01*
G01*
X101313500Y-115236000D01*
G75*
G02*
X101461000Y-115383500I0J-147500D01*
G01*
X101461000Y-115728500D01*
G75*
G02*
X101313500Y-115876000I-147500J0D01*
G01*
X101018500Y-115876000D01*
G75*
G02*
X100871000Y-115728500I0J147500D01*
G01*
G37*
G04 #@! TD.AperFunction*
G04 #@! TA.AperFunction,SMDPad,CuDef*
G36*
G01*
X101841000Y-115728500D02*
X101841000Y-115383500D01*
G75*
G02*
X101988500Y-115236000I147500J0D01*
G01*
X102283500Y-115236000D01*
G75*
G02*
X102431000Y-115383500I0J-147500D01*
G01*
X102431000Y-115728500D01*
G75*
G02*
X102283500Y-115876000I-147500J0D01*
G01*
X101988500Y-115876000D01*
G75*
G02*
X101841000Y-115728500I0J147500D01*
G01*
G37*
G04 #@! TD.AperFunction*
G04 #@! TA.AperFunction,SMDPad,CuDef*
G36*
G01*
X111621000Y-112970500D02*
X111621000Y-113315500D01*
G75*
G02*
X111473500Y-113463000I-147500J0D01*
G01*
X111178500Y-113463000D01*
G75*
G02*
X111031000Y-113315500I0J147500D01*
G01*
X111031000Y-112970500D01*
G75*
G02*
X111178500Y-112823000I147500J0D01*
G01*
X111473500Y-112823000D01*
G75*
G02*
X111621000Y-112970500I0J-147500D01*
G01*
G37*
G04 #@! TD.AperFunction*
G04 #@! TA.AperFunction,SMDPad,CuDef*
G36*
G01*
X112591000Y-112970500D02*
X112591000Y-113315500D01*
G75*
G02*
X112443500Y-113463000I-147500J0D01*
G01*
X112148500Y-113463000D01*
G75*
G02*
X112001000Y-113315500I0J147500D01*
G01*
X112001000Y-112970500D01*
G75*
G02*
X112148500Y-112823000I147500J0D01*
G01*
X112443500Y-112823000D01*
G75*
G02*
X112591000Y-112970500I0J-147500D01*
G01*
G37*
G04 #@! TD.AperFunction*
D16*
X111161000Y-116810000D03*
X112461000Y-116810000D03*
X111811000Y-114810000D03*
G04 #@! TA.AperFunction,SMDPad,CuDef*
G36*
G01*
X109860500Y-118713000D02*
X110205500Y-118713000D01*
G75*
G02*
X110353000Y-118860500I0J-147500D01*
G01*
X110353000Y-119155500D01*
G75*
G02*
X110205500Y-119303000I-147500J0D01*
G01*
X109860500Y-119303000D01*
G75*
G02*
X109713000Y-119155500I0J147500D01*
G01*
X109713000Y-118860500D01*
G75*
G02*
X109860500Y-118713000I147500J0D01*
G01*
G37*
G04 #@! TD.AperFunction*
G04 #@! TA.AperFunction,SMDPad,CuDef*
G36*
G01*
X109860500Y-119683000D02*
X110205500Y-119683000D01*
G75*
G02*
X110353000Y-119830500I0J-147500D01*
G01*
X110353000Y-120125500D01*
G75*
G02*
X110205500Y-120273000I-147500J0D01*
G01*
X109860500Y-120273000D01*
G75*
G02*
X109713000Y-120125500I0J147500D01*
G01*
X109713000Y-119830500D01*
G75*
G02*
X109860500Y-119683000I147500J0D01*
G01*
G37*
G04 #@! TD.AperFunction*
D17*
X122650000Y-113350000D03*
X122000000Y-113350000D03*
X120050000Y-113350000D03*
X120700000Y-113350000D03*
X121350000Y-113350000D03*
G04 #@! TA.AperFunction,SMDPad,CuDef*
G36*
G01*
X109189500Y-120250000D02*
X108844500Y-120250000D01*
G75*
G02*
X108697000Y-120102500I0J147500D01*
G01*
X108697000Y-119807500D01*
G75*
G02*
X108844500Y-119660000I147500J0D01*
G01*
X109189500Y-119660000D01*
G75*
G02*
X109337000Y-119807500I0J-147500D01*
G01*
X109337000Y-120102500D01*
G75*
G02*
X109189500Y-120250000I-147500J0D01*
G01*
G37*
G04 #@! TD.AperFunction*
G04 #@! TA.AperFunction,SMDPad,CuDef*
G36*
G01*
X109189500Y-119280000D02*
X108844500Y-119280000D01*
G75*
G02*
X108697000Y-119132500I0J147500D01*
G01*
X108697000Y-118837500D01*
G75*
G02*
X108844500Y-118690000I147500J0D01*
G01*
X109189500Y-118690000D01*
G75*
G02*
X109337000Y-118837500I0J-147500D01*
G01*
X109337000Y-119132500D01*
G75*
G02*
X109189500Y-119280000I-147500J0D01*
G01*
G37*
G04 #@! TD.AperFunction*
D14*
X145100000Y-120100000D03*
G04 #@! TA.AperFunction,SMDPad,CuDef*
G36*
G01*
X115040000Y-118522500D02*
X115040000Y-118177500D01*
G75*
G02*
X115187500Y-118030000I147500J0D01*
G01*
X115482500Y-118030000D01*
G75*
G02*
X115630000Y-118177500I0J-147500D01*
G01*
X115630000Y-118522500D01*
G75*
G02*
X115482500Y-118670000I-147500J0D01*
G01*
X115187500Y-118670000D01*
G75*
G02*
X115040000Y-118522500I0J147500D01*
G01*
G37*
G04 #@! TD.AperFunction*
G04 #@! TA.AperFunction,SMDPad,CuDef*
G36*
G01*
X114070000Y-118522500D02*
X114070000Y-118177500D01*
G75*
G02*
X114217500Y-118030000I147500J0D01*
G01*
X114512500Y-118030000D01*
G75*
G02*
X114660000Y-118177500I0J-147500D01*
G01*
X114660000Y-118522500D01*
G75*
G02*
X114512500Y-118670000I-147500J0D01*
G01*
X114217500Y-118670000D01*
G75*
G02*
X114070000Y-118522500I0J147500D01*
G01*
G37*
G04 #@! TD.AperFunction*
G04 #@! TA.AperFunction,SMDPad,CuDef*
G36*
G01*
X107828500Y-112617000D02*
X108173500Y-112617000D01*
G75*
G02*
X108321000Y-112764500I0J-147500D01*
G01*
X108321000Y-113059500D01*
G75*
G02*
X108173500Y-113207000I-147500J0D01*
G01*
X107828500Y-113207000D01*
G75*
G02*
X107681000Y-113059500I0J147500D01*
G01*
X107681000Y-112764500D01*
G75*
G02*
X107828500Y-112617000I147500J0D01*
G01*
G37*
G04 #@! TD.AperFunction*
G04 #@! TA.AperFunction,SMDPad,CuDef*
G36*
G01*
X107828500Y-113587000D02*
X108173500Y-113587000D01*
G75*
G02*
X108321000Y-113734500I0J-147500D01*
G01*
X108321000Y-114029500D01*
G75*
G02*
X108173500Y-114177000I-147500J0D01*
G01*
X107828500Y-114177000D01*
G75*
G02*
X107681000Y-114029500I0J147500D01*
G01*
X107681000Y-113734500D01*
G75*
G02*
X107828500Y-113587000I147500J0D01*
G01*
G37*
G04 #@! TD.AperFunction*
D18*
X143050000Y-118132000D03*
X143050000Y-114400000D03*
G04 #@! TA.AperFunction,SMDPad,CuDef*
G36*
G01*
X110205500Y-115828000D02*
X109860500Y-115828000D01*
G75*
G02*
X109713000Y-115680500I0J147500D01*
G01*
X109713000Y-115385500D01*
G75*
G02*
X109860500Y-115238000I147500J0D01*
G01*
X110205500Y-115238000D01*
G75*
G02*
X110353000Y-115385500I0J-147500D01*
G01*
X110353000Y-115680500D01*
G75*
G02*
X110205500Y-115828000I-147500J0D01*
G01*
G37*
G04 #@! TD.AperFunction*
G04 #@! TA.AperFunction,SMDPad,CuDef*
G36*
G01*
X110205500Y-114858000D02*
X109860500Y-114858000D01*
G75*
G02*
X109713000Y-114710500I0J147500D01*
G01*
X109713000Y-114415500D01*
G75*
G02*
X109860500Y-114268000I147500J0D01*
G01*
X110205500Y-114268000D01*
G75*
G02*
X110353000Y-114415500I0J-147500D01*
G01*
X110353000Y-114710500D01*
G75*
G02*
X110205500Y-114858000I-147500J0D01*
G01*
G37*
G04 #@! TD.AperFunction*
G04 #@! TA.AperFunction,SMDPad,CuDef*
G36*
G01*
X114070000Y-117172500D02*
X114070000Y-116827500D01*
G75*
G02*
X114217500Y-116680000I147500J0D01*
G01*
X114512500Y-116680000D01*
G75*
G02*
X114660000Y-116827500I0J-147500D01*
G01*
X114660000Y-117172500D01*
G75*
G02*
X114512500Y-117320000I-147500J0D01*
G01*
X114217500Y-117320000D01*
G75*
G02*
X114070000Y-117172500I0J147500D01*
G01*
G37*
G04 #@! TD.AperFunction*
G04 #@! TA.AperFunction,SMDPad,CuDef*
G36*
G01*
X115040000Y-117172500D02*
X115040000Y-116827500D01*
G75*
G02*
X115187500Y-116680000I147500J0D01*
G01*
X115482500Y-116680000D01*
G75*
G02*
X115630000Y-116827500I0J-147500D01*
G01*
X115630000Y-117172500D01*
G75*
G02*
X115482500Y-117320000I-147500J0D01*
G01*
X115187500Y-117320000D01*
G75*
G02*
X115040000Y-117172500I0J147500D01*
G01*
G37*
G04 #@! TD.AperFunction*
D14*
X100900000Y-112900000D03*
G04 #@! TA.AperFunction,SMDPad,CuDef*
G36*
G01*
X120299600Y-116700000D02*
X122400400Y-116700000D01*
G75*
G02*
X122650000Y-116949600I0J-249600D01*
G01*
X122650000Y-119050400D01*
G75*
G02*
X122400400Y-119300000I-249600J0D01*
G01*
X120299600Y-119300000D01*
G75*
G02*
X120050000Y-119050400I0J249600D01*
G01*
X120050000Y-116949600D01*
G75*
G02*
X120299600Y-116700000I249600J0D01*
G01*
G37*
G04 #@! TD.AperFunction*
G04 #@! TA.AperFunction,SMDPad,CuDef*
G36*
G01*
X122537500Y-115650000D02*
X122662500Y-115650000D01*
G75*
G02*
X122725000Y-115712500I0J-62500D01*
G01*
X122725000Y-116412500D01*
G75*
G02*
X122662500Y-116475000I-62500J0D01*
G01*
X122537500Y-116475000D01*
G75*
G02*
X122475000Y-116412500I0J62500D01*
G01*
X122475000Y-115712500D01*
G75*
G02*
X122537500Y-115650000I62500J0D01*
G01*
G37*
G04 #@! TD.AperFunction*
G04 #@! TA.AperFunction,SMDPad,CuDef*
G36*
G01*
X122037500Y-115650000D02*
X122162500Y-115650000D01*
G75*
G02*
X122225000Y-115712500I0J-62500D01*
G01*
X122225000Y-116412500D01*
G75*
G02*
X122162500Y-116475000I-62500J0D01*
G01*
X122037500Y-116475000D01*
G75*
G02*
X121975000Y-116412500I0J62500D01*
G01*
X121975000Y-115712500D01*
G75*
G02*
X122037500Y-115650000I62500J0D01*
G01*
G37*
G04 #@! TD.AperFunction*
G04 #@! TA.AperFunction,SMDPad,CuDef*
G36*
G01*
X121537500Y-115650000D02*
X121662500Y-115650000D01*
G75*
G02*
X121725000Y-115712500I0J-62500D01*
G01*
X121725000Y-116412500D01*
G75*
G02*
X121662500Y-116475000I-62500J0D01*
G01*
X121537500Y-116475000D01*
G75*
G02*
X121475000Y-116412500I0J62500D01*
G01*
X121475000Y-115712500D01*
G75*
G02*
X121537500Y-115650000I62500J0D01*
G01*
G37*
G04 #@! TD.AperFunction*
G04 #@! TA.AperFunction,SMDPad,CuDef*
G36*
G01*
X121037500Y-115650000D02*
X121162500Y-115650000D01*
G75*
G02*
X121225000Y-115712500I0J-62500D01*
G01*
X121225000Y-116412500D01*
G75*
G02*
X121162500Y-116475000I-62500J0D01*
G01*
X121037500Y-116475000D01*
G75*
G02*
X120975000Y-116412500I0J62500D01*
G01*
X120975000Y-115712500D01*
G75*
G02*
X121037500Y-115650000I62500J0D01*
G01*
G37*
G04 #@! TD.AperFunction*
G04 #@! TA.AperFunction,SMDPad,CuDef*
G36*
G01*
X120537500Y-115650000D02*
X120662500Y-115650000D01*
G75*
G02*
X120725000Y-115712500I0J-62500D01*
G01*
X120725000Y-116412500D01*
G75*
G02*
X120662500Y-116475000I-62500J0D01*
G01*
X120537500Y-116475000D01*
G75*
G02*
X120475000Y-116412500I0J62500D01*
G01*
X120475000Y-115712500D01*
G75*
G02*
X120537500Y-115650000I62500J0D01*
G01*
G37*
G04 #@! TD.AperFunction*
G04 #@! TA.AperFunction,SMDPad,CuDef*
G36*
G01*
X120037500Y-115650000D02*
X120162500Y-115650000D01*
G75*
G02*
X120225000Y-115712500I0J-62500D01*
G01*
X120225000Y-116412500D01*
G75*
G02*
X120162500Y-116475000I-62500J0D01*
G01*
X120037500Y-116475000D01*
G75*
G02*
X119975000Y-116412500I0J62500D01*
G01*
X119975000Y-115712500D01*
G75*
G02*
X120037500Y-115650000I62500J0D01*
G01*
G37*
G04 #@! TD.AperFunction*
G04 #@! TA.AperFunction,SMDPad,CuDef*
G36*
G01*
X119062500Y-116625000D02*
X119762500Y-116625000D01*
G75*
G02*
X119825000Y-116687500I0J-62500D01*
G01*
X119825000Y-116812500D01*
G75*
G02*
X119762500Y-116875000I-62500J0D01*
G01*
X119062500Y-116875000D01*
G75*
G02*
X119000000Y-116812500I0J62500D01*
G01*
X119000000Y-116687500D01*
G75*
G02*
X119062500Y-116625000I62500J0D01*
G01*
G37*
G04 #@! TD.AperFunction*
G04 #@! TA.AperFunction,SMDPad,CuDef*
G36*
G01*
X119062500Y-117125000D02*
X119762500Y-117125000D01*
G75*
G02*
X119825000Y-117187500I0J-62500D01*
G01*
X119825000Y-117312500D01*
G75*
G02*
X119762500Y-117375000I-62500J0D01*
G01*
X119062500Y-117375000D01*
G75*
G02*
X119000000Y-117312500I0J62500D01*
G01*
X119000000Y-117187500D01*
G75*
G02*
X119062500Y-117125000I62500J0D01*
G01*
G37*
G04 #@! TD.AperFunction*
G04 #@! TA.AperFunction,SMDPad,CuDef*
G36*
G01*
X119062500Y-117625000D02*
X119762500Y-117625000D01*
G75*
G02*
X119825000Y-117687500I0J-62500D01*
G01*
X119825000Y-117812500D01*
G75*
G02*
X119762500Y-117875000I-62500J0D01*
G01*
X119062500Y-117875000D01*
G75*
G02*
X119000000Y-117812500I0J62500D01*
G01*
X119000000Y-117687500D01*
G75*
G02*
X119062500Y-117625000I62500J0D01*
G01*
G37*
G04 #@! TD.AperFunction*
G04 #@! TA.AperFunction,SMDPad,CuDef*
G36*
G01*
X119062500Y-118125000D02*
X119762500Y-118125000D01*
G75*
G02*
X119825000Y-118187500I0J-62500D01*
G01*
X119825000Y-118312500D01*
G75*
G02*
X119762500Y-118375000I-62500J0D01*
G01*
X119062500Y-118375000D01*
G75*
G02*
X119000000Y-118312500I0J62500D01*
G01*
X119000000Y-118187500D01*
G75*
G02*
X119062500Y-118125000I62500J0D01*
G01*
G37*
G04 #@! TD.AperFunction*
G04 #@! TA.AperFunction,SMDPad,CuDef*
G36*
G01*
X119062500Y-118625000D02*
X119762500Y-118625000D01*
G75*
G02*
X119825000Y-118687500I0J-62500D01*
G01*
X119825000Y-118812500D01*
G75*
G02*
X119762500Y-118875000I-62500J0D01*
G01*
X119062500Y-118875000D01*
G75*
G02*
X119000000Y-118812500I0J62500D01*
G01*
X119000000Y-118687500D01*
G75*
G02*
X119062500Y-118625000I62500J0D01*
G01*
G37*
G04 #@! TD.AperFunction*
G04 #@! TA.AperFunction,SMDPad,CuDef*
G36*
G01*
X119062500Y-119125000D02*
X119762500Y-119125000D01*
G75*
G02*
X119825000Y-119187500I0J-62500D01*
G01*
X119825000Y-119312500D01*
G75*
G02*
X119762500Y-119375000I-62500J0D01*
G01*
X119062500Y-119375000D01*
G75*
G02*
X119000000Y-119312500I0J62500D01*
G01*
X119000000Y-119187500D01*
G75*
G02*
X119062500Y-119125000I62500J0D01*
G01*
G37*
G04 #@! TD.AperFunction*
G04 #@! TA.AperFunction,SMDPad,CuDef*
G36*
G01*
X120037500Y-119525000D02*
X120162500Y-119525000D01*
G75*
G02*
X120225000Y-119587500I0J-62500D01*
G01*
X120225000Y-120287500D01*
G75*
G02*
X120162500Y-120350000I-62500J0D01*
G01*
X120037500Y-120350000D01*
G75*
G02*
X119975000Y-120287500I0J62500D01*
G01*
X119975000Y-119587500D01*
G75*
G02*
X120037500Y-119525000I62500J0D01*
G01*
G37*
G04 #@! TD.AperFunction*
G04 #@! TA.AperFunction,SMDPad,CuDef*
G36*
G01*
X120537500Y-119525000D02*
X120662500Y-119525000D01*
G75*
G02*
X120725000Y-119587500I0J-62500D01*
G01*
X120725000Y-120287500D01*
G75*
G02*
X120662500Y-120350000I-62500J0D01*
G01*
X120537500Y-120350000D01*
G75*
G02*
X120475000Y-120287500I0J62500D01*
G01*
X120475000Y-119587500D01*
G75*
G02*
X120537500Y-119525000I62500J0D01*
G01*
G37*
G04 #@! TD.AperFunction*
G04 #@! TA.AperFunction,SMDPad,CuDef*
G36*
G01*
X121037500Y-119525000D02*
X121162500Y-119525000D01*
G75*
G02*
X121225000Y-119587500I0J-62500D01*
G01*
X121225000Y-120287500D01*
G75*
G02*
X121162500Y-120350000I-62500J0D01*
G01*
X121037500Y-120350000D01*
G75*
G02*
X120975000Y-120287500I0J62500D01*
G01*
X120975000Y-119587500D01*
G75*
G02*
X121037500Y-119525000I62500J0D01*
G01*
G37*
G04 #@! TD.AperFunction*
G04 #@! TA.AperFunction,SMDPad,CuDef*
G36*
G01*
X121537500Y-119525000D02*
X121662500Y-119525000D01*
G75*
G02*
X121725000Y-119587500I0J-62500D01*
G01*
X121725000Y-120287500D01*
G75*
G02*
X121662500Y-120350000I-62500J0D01*
G01*
X121537500Y-120350000D01*
G75*
G02*
X121475000Y-120287500I0J62500D01*
G01*
X121475000Y-119587500D01*
G75*
G02*
X121537500Y-119525000I62500J0D01*
G01*
G37*
G04 #@! TD.AperFunction*
G04 #@! TA.AperFunction,SMDPad,CuDef*
G36*
G01*
X122037500Y-119525000D02*
X122162500Y-119525000D01*
G75*
G02*
X122225000Y-119587500I0J-62500D01*
G01*
X122225000Y-120287500D01*
G75*
G02*
X122162500Y-120350000I-62500J0D01*
G01*
X122037500Y-120350000D01*
G75*
G02*
X121975000Y-120287500I0J62500D01*
G01*
X121975000Y-119587500D01*
G75*
G02*
X122037500Y-119525000I62500J0D01*
G01*
G37*
G04 #@! TD.AperFunction*
G04 #@! TA.AperFunction,SMDPad,CuDef*
G36*
G01*
X122537500Y-119525000D02*
X122662500Y-119525000D01*
G75*
G02*
X122725000Y-119587500I0J-62500D01*
G01*
X122725000Y-120287500D01*
G75*
G02*
X122662500Y-120350000I-62500J0D01*
G01*
X122537500Y-120350000D01*
G75*
G02*
X122475000Y-120287500I0J62500D01*
G01*
X122475000Y-119587500D01*
G75*
G02*
X122537500Y-119525000I62500J0D01*
G01*
G37*
G04 #@! TD.AperFunction*
G04 #@! TA.AperFunction,SMDPad,CuDef*
G36*
G01*
X122937500Y-119125000D02*
X123637500Y-119125000D01*
G75*
G02*
X123700000Y-119187500I0J-62500D01*
G01*
X123700000Y-119312500D01*
G75*
G02*
X123637500Y-119375000I-62500J0D01*
G01*
X122937500Y-119375000D01*
G75*
G02*
X122875000Y-119312500I0J62500D01*
G01*
X122875000Y-119187500D01*
G75*
G02*
X122937500Y-119125000I62500J0D01*
G01*
G37*
G04 #@! TD.AperFunction*
G04 #@! TA.AperFunction,SMDPad,CuDef*
G36*
G01*
X122937500Y-118625000D02*
X123637500Y-118625000D01*
G75*
G02*
X123700000Y-118687500I0J-62500D01*
G01*
X123700000Y-118812500D01*
G75*
G02*
X123637500Y-118875000I-62500J0D01*
G01*
X122937500Y-118875000D01*
G75*
G02*
X122875000Y-118812500I0J62500D01*
G01*
X122875000Y-118687500D01*
G75*
G02*
X122937500Y-118625000I62500J0D01*
G01*
G37*
G04 #@! TD.AperFunction*
G04 #@! TA.AperFunction,SMDPad,CuDef*
G36*
G01*
X122937500Y-118125000D02*
X123637500Y-118125000D01*
G75*
G02*
X123700000Y-118187500I0J-62500D01*
G01*
X123700000Y-118312500D01*
G75*
G02*
X123637500Y-118375000I-62500J0D01*
G01*
X122937500Y-118375000D01*
G75*
G02*
X122875000Y-118312500I0J62500D01*
G01*
X122875000Y-118187500D01*
G75*
G02*
X122937500Y-118125000I62500J0D01*
G01*
G37*
G04 #@! TD.AperFunction*
G04 #@! TA.AperFunction,SMDPad,CuDef*
G36*
G01*
X122937500Y-117625000D02*
X123637500Y-117625000D01*
G75*
G02*
X123700000Y-117687500I0J-62500D01*
G01*
X123700000Y-117812500D01*
G75*
G02*
X123637500Y-117875000I-62500J0D01*
G01*
X122937500Y-117875000D01*
G75*
G02*
X122875000Y-117812500I0J62500D01*
G01*
X122875000Y-117687500D01*
G75*
G02*
X122937500Y-117625000I62500J0D01*
G01*
G37*
G04 #@! TD.AperFunction*
G04 #@! TA.AperFunction,SMDPad,CuDef*
G36*
G01*
X122937500Y-117125000D02*
X123637500Y-117125000D01*
G75*
G02*
X123700000Y-117187500I0J-62500D01*
G01*
X123700000Y-117312500D01*
G75*
G02*
X123637500Y-117375000I-62500J0D01*
G01*
X122937500Y-117375000D01*
G75*
G02*
X122875000Y-117312500I0J62500D01*
G01*
X122875000Y-117187500D01*
G75*
G02*
X122937500Y-117125000I62500J0D01*
G01*
G37*
G04 #@! TD.AperFunction*
G04 #@! TA.AperFunction,SMDPad,CuDef*
G36*
G01*
X122937500Y-116625000D02*
X123637500Y-116625000D01*
G75*
G02*
X123700000Y-116687500I0J-62500D01*
G01*
X123700000Y-116812500D01*
G75*
G02*
X123637500Y-116875000I-62500J0D01*
G01*
X122937500Y-116875000D01*
G75*
G02*
X122875000Y-116812500I0J62500D01*
G01*
X122875000Y-116687500D01*
G75*
G02*
X122937500Y-116625000I62500J0D01*
G01*
G37*
G04 #@! TD.AperFunction*
G04 #@! TA.AperFunction,SMDPad,CuDef*
G36*
G01*
X133130800Y-118000000D02*
X129869200Y-118000000D01*
G75*
G02*
X129700000Y-117830800I0J169200D01*
G01*
X129700000Y-114569200D01*
G75*
G02*
X129869200Y-114400000I169200J0D01*
G01*
X133130800Y-114400000D01*
G75*
G02*
X133300000Y-114569200I0J-169200D01*
G01*
X133300000Y-117830800D01*
G75*
G02*
X133130800Y-118000000I-169200J0D01*
G01*
G37*
G04 #@! TD.AperFunction*
G04 #@! TA.AperFunction,SMDPad,CuDef*
G36*
G01*
X128812500Y-120050000D02*
X128687500Y-120050000D01*
G75*
G02*
X128625000Y-119987500I0J62500D01*
G01*
X128625000Y-119312500D01*
G75*
G02*
X128687500Y-119250000I62500J0D01*
G01*
X128812500Y-119250000D01*
G75*
G02*
X128875000Y-119312500I0J-62500D01*
G01*
X128875000Y-119987500D01*
G75*
G02*
X128812500Y-120050000I-62500J0D01*
G01*
G37*
G04 #@! TD.AperFunction*
G04 #@! TA.AperFunction,SMDPad,CuDef*
G36*
G01*
X129312500Y-120050000D02*
X129187500Y-120050000D01*
G75*
G02*
X129125000Y-119987500I0J62500D01*
G01*
X129125000Y-119312500D01*
G75*
G02*
X129187500Y-119250000I62500J0D01*
G01*
X129312500Y-119250000D01*
G75*
G02*
X129375000Y-119312500I0J-62500D01*
G01*
X129375000Y-119987500D01*
G75*
G02*
X129312500Y-120050000I-62500J0D01*
G01*
G37*
G04 #@! TD.AperFunction*
G04 #@! TA.AperFunction,SMDPad,CuDef*
G36*
G01*
X129812500Y-120050000D02*
X129687500Y-120050000D01*
G75*
G02*
X129625000Y-119987500I0J62500D01*
G01*
X129625000Y-119312500D01*
G75*
G02*
X129687500Y-119250000I62500J0D01*
G01*
X129812500Y-119250000D01*
G75*
G02*
X129875000Y-119312500I0J-62500D01*
G01*
X129875000Y-119987500D01*
G75*
G02*
X129812500Y-120050000I-62500J0D01*
G01*
G37*
G04 #@! TD.AperFunction*
G04 #@! TA.AperFunction,SMDPad,CuDef*
G36*
G01*
X130312500Y-120050000D02*
X130187500Y-120050000D01*
G75*
G02*
X130125000Y-119987500I0J62500D01*
G01*
X130125000Y-119312500D01*
G75*
G02*
X130187500Y-119250000I62500J0D01*
G01*
X130312500Y-119250000D01*
G75*
G02*
X130375000Y-119312500I0J-62500D01*
G01*
X130375000Y-119987500D01*
G75*
G02*
X130312500Y-120050000I-62500J0D01*
G01*
G37*
G04 #@! TD.AperFunction*
G04 #@! TA.AperFunction,SMDPad,CuDef*
G36*
G01*
X130812500Y-120050000D02*
X130687500Y-120050000D01*
G75*
G02*
X130625000Y-119987500I0J62500D01*
G01*
X130625000Y-119312500D01*
G75*
G02*
X130687500Y-119250000I62500J0D01*
G01*
X130812500Y-119250000D01*
G75*
G02*
X130875000Y-119312500I0J-62500D01*
G01*
X130875000Y-119987500D01*
G75*
G02*
X130812500Y-120050000I-62500J0D01*
G01*
G37*
G04 #@! TD.AperFunction*
G04 #@! TA.AperFunction,SMDPad,CuDef*
G36*
G01*
X131312500Y-120050000D02*
X131187500Y-120050000D01*
G75*
G02*
X131125000Y-119987500I0J62500D01*
G01*
X131125000Y-119312500D01*
G75*
G02*
X131187500Y-119250000I62500J0D01*
G01*
X131312500Y-119250000D01*
G75*
G02*
X131375000Y-119312500I0J-62500D01*
G01*
X131375000Y-119987500D01*
G75*
G02*
X131312500Y-120050000I-62500J0D01*
G01*
G37*
G04 #@! TD.AperFunction*
G04 #@! TA.AperFunction,SMDPad,CuDef*
G36*
G01*
X131812500Y-120050000D02*
X131687500Y-120050000D01*
G75*
G02*
X131625000Y-119987500I0J62500D01*
G01*
X131625000Y-119312500D01*
G75*
G02*
X131687500Y-119250000I62500J0D01*
G01*
X131812500Y-119250000D01*
G75*
G02*
X131875000Y-119312500I0J-62500D01*
G01*
X131875000Y-119987500D01*
G75*
G02*
X131812500Y-120050000I-62500J0D01*
G01*
G37*
G04 #@! TD.AperFunction*
G04 #@! TA.AperFunction,SMDPad,CuDef*
G36*
G01*
X132312500Y-120050000D02*
X132187500Y-120050000D01*
G75*
G02*
X132125000Y-119987500I0J62500D01*
G01*
X132125000Y-119312500D01*
G75*
G02*
X132187500Y-119250000I62500J0D01*
G01*
X132312500Y-119250000D01*
G75*
G02*
X132375000Y-119312500I0J-62500D01*
G01*
X132375000Y-119987500D01*
G75*
G02*
X132312500Y-120050000I-62500J0D01*
G01*
G37*
G04 #@! TD.AperFunction*
G04 #@! TA.AperFunction,SMDPad,CuDef*
G36*
G01*
X132812500Y-120050000D02*
X132687500Y-120050000D01*
G75*
G02*
X132625000Y-119987500I0J62500D01*
G01*
X132625000Y-119312500D01*
G75*
G02*
X132687500Y-119250000I62500J0D01*
G01*
X132812500Y-119250000D01*
G75*
G02*
X132875000Y-119312500I0J-62500D01*
G01*
X132875000Y-119987500D01*
G75*
G02*
X132812500Y-120050000I-62500J0D01*
G01*
G37*
G04 #@! TD.AperFunction*
G04 #@! TA.AperFunction,SMDPad,CuDef*
G36*
G01*
X133312500Y-120050000D02*
X133187500Y-120050000D01*
G75*
G02*
X133125000Y-119987500I0J62500D01*
G01*
X133125000Y-119312500D01*
G75*
G02*
X133187500Y-119250000I62500J0D01*
G01*
X133312500Y-119250000D01*
G75*
G02*
X133375000Y-119312500I0J-62500D01*
G01*
X133375000Y-119987500D01*
G75*
G02*
X133312500Y-120050000I-62500J0D01*
G01*
G37*
G04 #@! TD.AperFunction*
G04 #@! TA.AperFunction,SMDPad,CuDef*
G36*
G01*
X133812500Y-120050000D02*
X133687500Y-120050000D01*
G75*
G02*
X133625000Y-119987500I0J62500D01*
G01*
X133625000Y-119312500D01*
G75*
G02*
X133687500Y-119250000I62500J0D01*
G01*
X133812500Y-119250000D01*
G75*
G02*
X133875000Y-119312500I0J-62500D01*
G01*
X133875000Y-119987500D01*
G75*
G02*
X133812500Y-120050000I-62500J0D01*
G01*
G37*
G04 #@! TD.AperFunction*
G04 #@! TA.AperFunction,SMDPad,CuDef*
G36*
G01*
X134312500Y-120050000D02*
X134187500Y-120050000D01*
G75*
G02*
X134125000Y-119987500I0J62500D01*
G01*
X134125000Y-119312500D01*
G75*
G02*
X134187500Y-119250000I62500J0D01*
G01*
X134312500Y-119250000D01*
G75*
G02*
X134375000Y-119312500I0J-62500D01*
G01*
X134375000Y-119987500D01*
G75*
G02*
X134312500Y-120050000I-62500J0D01*
G01*
G37*
G04 #@! TD.AperFunction*
G04 #@! TA.AperFunction,SMDPad,CuDef*
G36*
G01*
X135287500Y-119075000D02*
X134612500Y-119075000D01*
G75*
G02*
X134550000Y-119012500I0J62500D01*
G01*
X134550000Y-118887500D01*
G75*
G02*
X134612500Y-118825000I62500J0D01*
G01*
X135287500Y-118825000D01*
G75*
G02*
X135350000Y-118887500I0J-62500D01*
G01*
X135350000Y-119012500D01*
G75*
G02*
X135287500Y-119075000I-62500J0D01*
G01*
G37*
G04 #@! TD.AperFunction*
G04 #@! TA.AperFunction,SMDPad,CuDef*
G36*
G01*
X135287500Y-118575000D02*
X134612500Y-118575000D01*
G75*
G02*
X134550000Y-118512500I0J62500D01*
G01*
X134550000Y-118387500D01*
G75*
G02*
X134612500Y-118325000I62500J0D01*
G01*
X135287500Y-118325000D01*
G75*
G02*
X135350000Y-118387500I0J-62500D01*
G01*
X135350000Y-118512500D01*
G75*
G02*
X135287500Y-118575000I-62500J0D01*
G01*
G37*
G04 #@! TD.AperFunction*
G04 #@! TA.AperFunction,SMDPad,CuDef*
G36*
G01*
X135287500Y-118075000D02*
X134612500Y-118075000D01*
G75*
G02*
X134550000Y-118012500I0J62500D01*
G01*
X134550000Y-117887500D01*
G75*
G02*
X134612500Y-117825000I62500J0D01*
G01*
X135287500Y-117825000D01*
G75*
G02*
X135350000Y-117887500I0J-62500D01*
G01*
X135350000Y-118012500D01*
G75*
G02*
X135287500Y-118075000I-62500J0D01*
G01*
G37*
G04 #@! TD.AperFunction*
G04 #@! TA.AperFunction,SMDPad,CuDef*
G36*
G01*
X135287500Y-117575000D02*
X134612500Y-117575000D01*
G75*
G02*
X134550000Y-117512500I0J62500D01*
G01*
X134550000Y-117387500D01*
G75*
G02*
X134612500Y-117325000I62500J0D01*
G01*
X135287500Y-117325000D01*
G75*
G02*
X135350000Y-117387500I0J-62500D01*
G01*
X135350000Y-117512500D01*
G75*
G02*
X135287500Y-117575000I-62500J0D01*
G01*
G37*
G04 #@! TD.AperFunction*
G04 #@! TA.AperFunction,SMDPad,CuDef*
G36*
G01*
X135287500Y-117075000D02*
X134612500Y-117075000D01*
G75*
G02*
X134550000Y-117012500I0J62500D01*
G01*
X134550000Y-116887500D01*
G75*
G02*
X134612500Y-116825000I62500J0D01*
G01*
X135287500Y-116825000D01*
G75*
G02*
X135350000Y-116887500I0J-62500D01*
G01*
X135350000Y-117012500D01*
G75*
G02*
X135287500Y-117075000I-62500J0D01*
G01*
G37*
G04 #@! TD.AperFunction*
G04 #@! TA.AperFunction,SMDPad,CuDef*
G36*
G01*
X135287500Y-116575000D02*
X134612500Y-116575000D01*
G75*
G02*
X134550000Y-116512500I0J62500D01*
G01*
X134550000Y-116387500D01*
G75*
G02*
X134612500Y-116325000I62500J0D01*
G01*
X135287500Y-116325000D01*
G75*
G02*
X135350000Y-116387500I0J-62500D01*
G01*
X135350000Y-116512500D01*
G75*
G02*
X135287500Y-116575000I-62500J0D01*
G01*
G37*
G04 #@! TD.AperFunction*
G04 #@! TA.AperFunction,SMDPad,CuDef*
G36*
G01*
X135287500Y-116075000D02*
X134612500Y-116075000D01*
G75*
G02*
X134550000Y-116012500I0J62500D01*
G01*
X134550000Y-115887500D01*
G75*
G02*
X134612500Y-115825000I62500J0D01*
G01*
X135287500Y-115825000D01*
G75*
G02*
X135350000Y-115887500I0J-62500D01*
G01*
X135350000Y-116012500D01*
G75*
G02*
X135287500Y-116075000I-62500J0D01*
G01*
G37*
G04 #@! TD.AperFunction*
G04 #@! TA.AperFunction,SMDPad,CuDef*
G36*
G01*
X135287500Y-115575000D02*
X134612500Y-115575000D01*
G75*
G02*
X134550000Y-115512500I0J62500D01*
G01*
X134550000Y-115387500D01*
G75*
G02*
X134612500Y-115325000I62500J0D01*
G01*
X135287500Y-115325000D01*
G75*
G02*
X135350000Y-115387500I0J-62500D01*
G01*
X135350000Y-115512500D01*
G75*
G02*
X135287500Y-115575000I-62500J0D01*
G01*
G37*
G04 #@! TD.AperFunction*
G04 #@! TA.AperFunction,SMDPad,CuDef*
G36*
G01*
X135287500Y-115075000D02*
X134612500Y-115075000D01*
G75*
G02*
X134550000Y-115012500I0J62500D01*
G01*
X134550000Y-114887500D01*
G75*
G02*
X134612500Y-114825000I62500J0D01*
G01*
X135287500Y-114825000D01*
G75*
G02*
X135350000Y-114887500I0J-62500D01*
G01*
X135350000Y-115012500D01*
G75*
G02*
X135287500Y-115075000I-62500J0D01*
G01*
G37*
G04 #@! TD.AperFunction*
G04 #@! TA.AperFunction,SMDPad,CuDef*
G36*
G01*
X135287500Y-114575000D02*
X134612500Y-114575000D01*
G75*
G02*
X134550000Y-114512500I0J62500D01*
G01*
X134550000Y-114387500D01*
G75*
G02*
X134612500Y-114325000I62500J0D01*
G01*
X135287500Y-114325000D01*
G75*
G02*
X135350000Y-114387500I0J-62500D01*
G01*
X135350000Y-114512500D01*
G75*
G02*
X135287500Y-114575000I-62500J0D01*
G01*
G37*
G04 #@! TD.AperFunction*
G04 #@! TA.AperFunction,SMDPad,CuDef*
G36*
G01*
X135287500Y-114075000D02*
X134612500Y-114075000D01*
G75*
G02*
X134550000Y-114012500I0J62500D01*
G01*
X134550000Y-113887500D01*
G75*
G02*
X134612500Y-113825000I62500J0D01*
G01*
X135287500Y-113825000D01*
G75*
G02*
X135350000Y-113887500I0J-62500D01*
G01*
X135350000Y-114012500D01*
G75*
G02*
X135287500Y-114075000I-62500J0D01*
G01*
G37*
G04 #@! TD.AperFunction*
G04 #@! TA.AperFunction,SMDPad,CuDef*
G36*
G01*
X135287500Y-113575000D02*
X134612500Y-113575000D01*
G75*
G02*
X134550000Y-113512500I0J62500D01*
G01*
X134550000Y-113387500D01*
G75*
G02*
X134612500Y-113325000I62500J0D01*
G01*
X135287500Y-113325000D01*
G75*
G02*
X135350000Y-113387500I0J-62500D01*
G01*
X135350000Y-113512500D01*
G75*
G02*
X135287500Y-113575000I-62500J0D01*
G01*
G37*
G04 #@! TD.AperFunction*
G04 #@! TA.AperFunction,SMDPad,CuDef*
G36*
G01*
X134312500Y-113150000D02*
X134187500Y-113150000D01*
G75*
G02*
X134125000Y-113087500I0J62500D01*
G01*
X134125000Y-112412500D01*
G75*
G02*
X134187500Y-112350000I62500J0D01*
G01*
X134312500Y-112350000D01*
G75*
G02*
X134375000Y-112412500I0J-62500D01*
G01*
X134375000Y-113087500D01*
G75*
G02*
X134312500Y-113150000I-62500J0D01*
G01*
G37*
G04 #@! TD.AperFunction*
G04 #@! TA.AperFunction,SMDPad,CuDef*
G36*
G01*
X133812500Y-113150000D02*
X133687500Y-113150000D01*
G75*
G02*
X133625000Y-113087500I0J62500D01*
G01*
X133625000Y-112412500D01*
G75*
G02*
X133687500Y-112350000I62500J0D01*
G01*
X133812500Y-112350000D01*
G75*
G02*
X133875000Y-112412500I0J-62500D01*
G01*
X133875000Y-113087500D01*
G75*
G02*
X133812500Y-113150000I-62500J0D01*
G01*
G37*
G04 #@! TD.AperFunction*
G04 #@! TA.AperFunction,SMDPad,CuDef*
G36*
G01*
X133312500Y-113150000D02*
X133187500Y-113150000D01*
G75*
G02*
X133125000Y-113087500I0J62500D01*
G01*
X133125000Y-112412500D01*
G75*
G02*
X133187500Y-112350000I62500J0D01*
G01*
X133312500Y-112350000D01*
G75*
G02*
X133375000Y-112412500I0J-62500D01*
G01*
X133375000Y-113087500D01*
G75*
G02*
X133312500Y-113150000I-62500J0D01*
G01*
G37*
G04 #@! TD.AperFunction*
G04 #@! TA.AperFunction,SMDPad,CuDef*
G36*
G01*
X132812500Y-113150000D02*
X132687500Y-113150000D01*
G75*
G02*
X132625000Y-113087500I0J62500D01*
G01*
X132625000Y-112412500D01*
G75*
G02*
X132687500Y-112350000I62500J0D01*
G01*
X132812500Y-112350000D01*
G75*
G02*
X132875000Y-112412500I0J-62500D01*
G01*
X132875000Y-113087500D01*
G75*
G02*
X132812500Y-113150000I-62500J0D01*
G01*
G37*
G04 #@! TD.AperFunction*
G04 #@! TA.AperFunction,SMDPad,CuDef*
G36*
G01*
X132312500Y-113150000D02*
X132187500Y-113150000D01*
G75*
G02*
X132125000Y-113087500I0J62500D01*
G01*
X132125000Y-112412500D01*
G75*
G02*
X132187500Y-112350000I62500J0D01*
G01*
X132312500Y-112350000D01*
G75*
G02*
X132375000Y-112412500I0J-62500D01*
G01*
X132375000Y-113087500D01*
G75*
G02*
X132312500Y-113150000I-62500J0D01*
G01*
G37*
G04 #@! TD.AperFunction*
G04 #@! TA.AperFunction,SMDPad,CuDef*
G36*
G01*
X131812500Y-113150000D02*
X131687500Y-113150000D01*
G75*
G02*
X131625000Y-113087500I0J62500D01*
G01*
X131625000Y-112412500D01*
G75*
G02*
X131687500Y-112350000I62500J0D01*
G01*
X131812500Y-112350000D01*
G75*
G02*
X131875000Y-112412500I0J-62500D01*
G01*
X131875000Y-113087500D01*
G75*
G02*
X131812500Y-113150000I-62500J0D01*
G01*
G37*
G04 #@! TD.AperFunction*
G04 #@! TA.AperFunction,SMDPad,CuDef*
G36*
G01*
X131312500Y-113150000D02*
X131187500Y-113150000D01*
G75*
G02*
X131125000Y-113087500I0J62500D01*
G01*
X131125000Y-112412500D01*
G75*
G02*
X131187500Y-112350000I62500J0D01*
G01*
X131312500Y-112350000D01*
G75*
G02*
X131375000Y-112412500I0J-62500D01*
G01*
X131375000Y-113087500D01*
G75*
G02*
X131312500Y-113150000I-62500J0D01*
G01*
G37*
G04 #@! TD.AperFunction*
G04 #@! TA.AperFunction,SMDPad,CuDef*
G36*
G01*
X130812500Y-113150000D02*
X130687500Y-113150000D01*
G75*
G02*
X130625000Y-113087500I0J62500D01*
G01*
X130625000Y-112412500D01*
G75*
G02*
X130687500Y-112350000I62500J0D01*
G01*
X130812500Y-112350000D01*
G75*
G02*
X130875000Y-112412500I0J-62500D01*
G01*
X130875000Y-113087500D01*
G75*
G02*
X130812500Y-113150000I-62500J0D01*
G01*
G37*
G04 #@! TD.AperFunction*
G04 #@! TA.AperFunction,SMDPad,CuDef*
G36*
G01*
X130312500Y-113150000D02*
X130187500Y-113150000D01*
G75*
G02*
X130125000Y-113087500I0J62500D01*
G01*
X130125000Y-112412500D01*
G75*
G02*
X130187500Y-112350000I62500J0D01*
G01*
X130312500Y-112350000D01*
G75*
G02*
X130375000Y-112412500I0J-62500D01*
G01*
X130375000Y-113087500D01*
G75*
G02*
X130312500Y-113150000I-62500J0D01*
G01*
G37*
G04 #@! TD.AperFunction*
G04 #@! TA.AperFunction,SMDPad,CuDef*
G36*
G01*
X129812500Y-113150000D02*
X129687500Y-113150000D01*
G75*
G02*
X129625000Y-113087500I0J62500D01*
G01*
X129625000Y-112412500D01*
G75*
G02*
X129687500Y-112350000I62500J0D01*
G01*
X129812500Y-112350000D01*
G75*
G02*
X129875000Y-112412500I0J-62500D01*
G01*
X129875000Y-113087500D01*
G75*
G02*
X129812500Y-113150000I-62500J0D01*
G01*
G37*
G04 #@! TD.AperFunction*
G04 #@! TA.AperFunction,SMDPad,CuDef*
G36*
G01*
X129312500Y-113150000D02*
X129187500Y-113150000D01*
G75*
G02*
X129125000Y-113087500I0J62500D01*
G01*
X129125000Y-112412500D01*
G75*
G02*
X129187500Y-112350000I62500J0D01*
G01*
X129312500Y-112350000D01*
G75*
G02*
X129375000Y-112412500I0J-62500D01*
G01*
X129375000Y-113087500D01*
G75*
G02*
X129312500Y-113150000I-62500J0D01*
G01*
G37*
G04 #@! TD.AperFunction*
G04 #@! TA.AperFunction,SMDPad,CuDef*
G36*
G01*
X128812500Y-113150000D02*
X128687500Y-113150000D01*
G75*
G02*
X128625000Y-113087500I0J62500D01*
G01*
X128625000Y-112412500D01*
G75*
G02*
X128687500Y-112350000I62500J0D01*
G01*
X128812500Y-112350000D01*
G75*
G02*
X128875000Y-112412500I0J-62500D01*
G01*
X128875000Y-113087500D01*
G75*
G02*
X128812500Y-113150000I-62500J0D01*
G01*
G37*
G04 #@! TD.AperFunction*
G04 #@! TA.AperFunction,SMDPad,CuDef*
G36*
G01*
X128387500Y-113575000D02*
X127712500Y-113575000D01*
G75*
G02*
X127650000Y-113512500I0J62500D01*
G01*
X127650000Y-113387500D01*
G75*
G02*
X127712500Y-113325000I62500J0D01*
G01*
X128387500Y-113325000D01*
G75*
G02*
X128450000Y-113387500I0J-62500D01*
G01*
X128450000Y-113512500D01*
G75*
G02*
X128387500Y-113575000I-62500J0D01*
G01*
G37*
G04 #@! TD.AperFunction*
G04 #@! TA.AperFunction,SMDPad,CuDef*
G36*
G01*
X128387500Y-114075000D02*
X127712500Y-114075000D01*
G75*
G02*
X127650000Y-114012500I0J62500D01*
G01*
X127650000Y-113887500D01*
G75*
G02*
X127712500Y-113825000I62500J0D01*
G01*
X128387500Y-113825000D01*
G75*
G02*
X128450000Y-113887500I0J-62500D01*
G01*
X128450000Y-114012500D01*
G75*
G02*
X128387500Y-114075000I-62500J0D01*
G01*
G37*
G04 #@! TD.AperFunction*
G04 #@! TA.AperFunction,SMDPad,CuDef*
G36*
G01*
X128387500Y-114575000D02*
X127712500Y-114575000D01*
G75*
G02*
X127650000Y-114512500I0J62500D01*
G01*
X127650000Y-114387500D01*
G75*
G02*
X127712500Y-114325000I62500J0D01*
G01*
X128387500Y-114325000D01*
G75*
G02*
X128450000Y-114387500I0J-62500D01*
G01*
X128450000Y-114512500D01*
G75*
G02*
X128387500Y-114575000I-62500J0D01*
G01*
G37*
G04 #@! TD.AperFunction*
G04 #@! TA.AperFunction,SMDPad,CuDef*
G36*
G01*
X128387500Y-115075000D02*
X127712500Y-115075000D01*
G75*
G02*
X127650000Y-115012500I0J62500D01*
G01*
X127650000Y-114887500D01*
G75*
G02*
X127712500Y-114825000I62500J0D01*
G01*
X128387500Y-114825000D01*
G75*
G02*
X128450000Y-114887500I0J-62500D01*
G01*
X128450000Y-115012500D01*
G75*
G02*
X128387500Y-115075000I-62500J0D01*
G01*
G37*
G04 #@! TD.AperFunction*
G04 #@! TA.AperFunction,SMDPad,CuDef*
G36*
G01*
X128387500Y-115575000D02*
X127712500Y-115575000D01*
G75*
G02*
X127650000Y-115512500I0J62500D01*
G01*
X127650000Y-115387500D01*
G75*
G02*
X127712500Y-115325000I62500J0D01*
G01*
X128387500Y-115325000D01*
G75*
G02*
X128450000Y-115387500I0J-62500D01*
G01*
X128450000Y-115512500D01*
G75*
G02*
X128387500Y-115575000I-62500J0D01*
G01*
G37*
G04 #@! TD.AperFunction*
G04 #@! TA.AperFunction,SMDPad,CuDef*
G36*
G01*
X128387500Y-116075000D02*
X127712500Y-116075000D01*
G75*
G02*
X127650000Y-116012500I0J62500D01*
G01*
X127650000Y-115887500D01*
G75*
G02*
X127712500Y-115825000I62500J0D01*
G01*
X128387500Y-115825000D01*
G75*
G02*
X128450000Y-115887500I0J-62500D01*
G01*
X128450000Y-116012500D01*
G75*
G02*
X128387500Y-116075000I-62500J0D01*
G01*
G37*
G04 #@! TD.AperFunction*
G04 #@! TA.AperFunction,SMDPad,CuDef*
G36*
G01*
X128387500Y-116575000D02*
X127712500Y-116575000D01*
G75*
G02*
X127650000Y-116512500I0J62500D01*
G01*
X127650000Y-116387500D01*
G75*
G02*
X127712500Y-116325000I62500J0D01*
G01*
X128387500Y-116325000D01*
G75*
G02*
X128450000Y-116387500I0J-62500D01*
G01*
X128450000Y-116512500D01*
G75*
G02*
X128387500Y-116575000I-62500J0D01*
G01*
G37*
G04 #@! TD.AperFunction*
G04 #@! TA.AperFunction,SMDPad,CuDef*
G36*
G01*
X128387500Y-117075000D02*
X127712500Y-117075000D01*
G75*
G02*
X127650000Y-117012500I0J62500D01*
G01*
X127650000Y-116887500D01*
G75*
G02*
X127712500Y-116825000I62500J0D01*
G01*
X128387500Y-116825000D01*
G75*
G02*
X128450000Y-116887500I0J-62500D01*
G01*
X128450000Y-117012500D01*
G75*
G02*
X128387500Y-117075000I-62500J0D01*
G01*
G37*
G04 #@! TD.AperFunction*
G04 #@! TA.AperFunction,SMDPad,CuDef*
G36*
G01*
X128387500Y-117575000D02*
X127712500Y-117575000D01*
G75*
G02*
X127650000Y-117512500I0J62500D01*
G01*
X127650000Y-117387500D01*
G75*
G02*
X127712500Y-117325000I62500J0D01*
G01*
X128387500Y-117325000D01*
G75*
G02*
X128450000Y-117387500I0J-62500D01*
G01*
X128450000Y-117512500D01*
G75*
G02*
X128387500Y-117575000I-62500J0D01*
G01*
G37*
G04 #@! TD.AperFunction*
G04 #@! TA.AperFunction,SMDPad,CuDef*
G36*
G01*
X128387500Y-118075000D02*
X127712500Y-118075000D01*
G75*
G02*
X127650000Y-118012500I0J62500D01*
G01*
X127650000Y-117887500D01*
G75*
G02*
X127712500Y-117825000I62500J0D01*
G01*
X128387500Y-117825000D01*
G75*
G02*
X128450000Y-117887500I0J-62500D01*
G01*
X128450000Y-118012500D01*
G75*
G02*
X128387500Y-118075000I-62500J0D01*
G01*
G37*
G04 #@! TD.AperFunction*
G04 #@! TA.AperFunction,SMDPad,CuDef*
G36*
G01*
X128387500Y-118575000D02*
X127712500Y-118575000D01*
G75*
G02*
X127650000Y-118512500I0J62500D01*
G01*
X127650000Y-118387500D01*
G75*
G02*
X127712500Y-118325000I62500J0D01*
G01*
X128387500Y-118325000D01*
G75*
G02*
X128450000Y-118387500I0J-62500D01*
G01*
X128450000Y-118512500D01*
G75*
G02*
X128387500Y-118575000I-62500J0D01*
G01*
G37*
G04 #@! TD.AperFunction*
G04 #@! TA.AperFunction,SMDPad,CuDef*
G36*
G01*
X128387500Y-119075000D02*
X127712500Y-119075000D01*
G75*
G02*
X127650000Y-119012500I0J62500D01*
G01*
X127650000Y-118887500D01*
G75*
G02*
X127712500Y-118825000I62500J0D01*
G01*
X128387500Y-118825000D01*
G75*
G02*
X128450000Y-118887500I0J-62500D01*
G01*
X128450000Y-119012500D01*
G75*
G02*
X128387500Y-119075000I-62500J0D01*
G01*
G37*
G04 #@! TD.AperFunction*
G04 #@! TA.AperFunction,SMDPad,CuDef*
G36*
G01*
X117510000Y-118177500D02*
X117510000Y-118522500D01*
G75*
G02*
X117362500Y-118670000I-147500J0D01*
G01*
X117067500Y-118670000D01*
G75*
G02*
X116920000Y-118522500I0J147500D01*
G01*
X116920000Y-118177500D01*
G75*
G02*
X117067500Y-118030000I147500J0D01*
G01*
X117362500Y-118030000D01*
G75*
G02*
X117510000Y-118177500I0J-147500D01*
G01*
G37*
G04 #@! TD.AperFunction*
G04 #@! TA.AperFunction,SMDPad,CuDef*
G36*
G01*
X118480000Y-118177500D02*
X118480000Y-118522500D01*
G75*
G02*
X118332500Y-118670000I-147500J0D01*
G01*
X118037500Y-118670000D01*
G75*
G02*
X117890000Y-118522500I0J147500D01*
G01*
X117890000Y-118177500D01*
G75*
G02*
X118037500Y-118030000I147500J0D01*
G01*
X118332500Y-118030000D01*
G75*
G02*
X118480000Y-118177500I0J-147500D01*
G01*
G37*
G04 #@! TD.AperFunction*
G04 #@! TA.AperFunction,SMDPad,CuDef*
G36*
G01*
X116920000Y-119872500D02*
X116920000Y-119527500D01*
G75*
G02*
X117067500Y-119380000I147500J0D01*
G01*
X117362500Y-119380000D01*
G75*
G02*
X117510000Y-119527500I0J-147500D01*
G01*
X117510000Y-119872500D01*
G75*
G02*
X117362500Y-120020000I-147500J0D01*
G01*
X117067500Y-120020000D01*
G75*
G02*
X116920000Y-119872500I0J147500D01*
G01*
G37*
G04 #@! TD.AperFunction*
G04 #@! TA.AperFunction,SMDPad,CuDef*
G36*
G01*
X117890000Y-119872500D02*
X117890000Y-119527500D01*
G75*
G02*
X118037500Y-119380000I147500J0D01*
G01*
X118332500Y-119380000D01*
G75*
G02*
X118480000Y-119527500I0J-147500D01*
G01*
X118480000Y-119872500D01*
G75*
G02*
X118332500Y-120020000I-147500J0D01*
G01*
X118037500Y-120020000D01*
G75*
G02*
X117890000Y-119872500I0J147500D01*
G01*
G37*
G04 #@! TD.AperFunction*
G04 #@! TA.AperFunction,SMDPad,CuDef*
G36*
G01*
X108844500Y-112617000D02*
X109189500Y-112617000D01*
G75*
G02*
X109337000Y-112764500I0J-147500D01*
G01*
X109337000Y-113059500D01*
G75*
G02*
X109189500Y-113207000I-147500J0D01*
G01*
X108844500Y-113207000D01*
G75*
G02*
X108697000Y-113059500I0J147500D01*
G01*
X108697000Y-112764500D01*
G75*
G02*
X108844500Y-112617000I147500J0D01*
G01*
G37*
G04 #@! TD.AperFunction*
G04 #@! TA.AperFunction,SMDPad,CuDef*
G36*
G01*
X108844500Y-113587000D02*
X109189500Y-113587000D01*
G75*
G02*
X109337000Y-113734500I0J-147500D01*
G01*
X109337000Y-114029500D01*
G75*
G02*
X109189500Y-114177000I-147500J0D01*
G01*
X108844500Y-114177000D01*
G75*
G02*
X108697000Y-114029500I0J147500D01*
G01*
X108697000Y-113734500D01*
G75*
G02*
X108844500Y-113587000I147500J0D01*
G01*
G37*
G04 #@! TD.AperFunction*
G04 #@! TA.AperFunction,SMDPad,CuDef*
G36*
G01*
X108173500Y-119280000D02*
X107828500Y-119280000D01*
G75*
G02*
X107681000Y-119132500I0J147500D01*
G01*
X107681000Y-118837500D01*
G75*
G02*
X107828500Y-118690000I147500J0D01*
G01*
X108173500Y-118690000D01*
G75*
G02*
X108321000Y-118837500I0J-147500D01*
G01*
X108321000Y-119132500D01*
G75*
G02*
X108173500Y-119280000I-147500J0D01*
G01*
G37*
G04 #@! TD.AperFunction*
G04 #@! TA.AperFunction,SMDPad,CuDef*
G36*
G01*
X108173500Y-120250000D02*
X107828500Y-120250000D01*
G75*
G02*
X107681000Y-120102500I0J147500D01*
G01*
X107681000Y-119807500D01*
G75*
G02*
X107828500Y-119660000I147500J0D01*
G01*
X108173500Y-119660000D01*
G75*
G02*
X108321000Y-119807500I0J-147500D01*
G01*
X108321000Y-120102500D01*
G75*
G02*
X108173500Y-120250000I-147500J0D01*
G01*
G37*
G04 #@! TD.AperFunction*
X100900000Y-120100000D03*
G04 #@! TA.AperFunction,SMDPad,CuDef*
G36*
G01*
X116505000Y-119527500D02*
X116505000Y-119872500D01*
G75*
G02*
X116357500Y-120020000I-147500J0D01*
G01*
X116062500Y-120020000D01*
G75*
G02*
X115915000Y-119872500I0J147500D01*
G01*
X115915000Y-119527500D01*
G75*
G02*
X116062500Y-119380000I147500J0D01*
G01*
X116357500Y-119380000D01*
G75*
G02*
X116505000Y-119527500I0J-147500D01*
G01*
G37*
G04 #@! TD.AperFunction*
G04 #@! TA.AperFunction,SMDPad,CuDef*
G36*
G01*
X115535000Y-119527500D02*
X115535000Y-119872500D01*
G75*
G02*
X115387500Y-120020000I-147500J0D01*
G01*
X115092500Y-120020000D01*
G75*
G02*
X114945000Y-119872500I0J147500D01*
G01*
X114945000Y-119527500D01*
G75*
G02*
X115092500Y-119380000I147500J0D01*
G01*
X115387500Y-119380000D01*
G75*
G02*
X115535000Y-119527500I0J-147500D01*
G01*
G37*
G04 #@! TD.AperFunction*
G04 #@! TA.AperFunction,SMDPad,CuDef*
G36*
G01*
X125427500Y-114190000D02*
X125772500Y-114190000D01*
G75*
G02*
X125920000Y-114337500I0J-147500D01*
G01*
X125920000Y-114632500D01*
G75*
G02*
X125772500Y-114780000I-147500J0D01*
G01*
X125427500Y-114780000D01*
G75*
G02*
X125280000Y-114632500I0J147500D01*
G01*
X125280000Y-114337500D01*
G75*
G02*
X125427500Y-114190000I147500J0D01*
G01*
G37*
G04 #@! TD.AperFunction*
G04 #@! TA.AperFunction,SMDPad,CuDef*
G36*
G01*
X125427500Y-113220000D02*
X125772500Y-113220000D01*
G75*
G02*
X125920000Y-113367500I0J-147500D01*
G01*
X125920000Y-113662500D01*
G75*
G02*
X125772500Y-113810000I-147500J0D01*
G01*
X125427500Y-113810000D01*
G75*
G02*
X125280000Y-113662500I0J147500D01*
G01*
X125280000Y-113367500D01*
G75*
G02*
X125427500Y-113220000I147500J0D01*
G01*
G37*
G04 #@! TD.AperFunction*
G04 #@! TA.AperFunction,SMDPad,CuDef*
G36*
G01*
X136827500Y-118105000D02*
X137172500Y-118105000D01*
G75*
G02*
X137320000Y-118252500I0J-147500D01*
G01*
X137320000Y-118547500D01*
G75*
G02*
X137172500Y-118695000I-147500J0D01*
G01*
X136827500Y-118695000D01*
G75*
G02*
X136680000Y-118547500I0J147500D01*
G01*
X136680000Y-118252500D01*
G75*
G02*
X136827500Y-118105000I147500J0D01*
G01*
G37*
G04 #@! TD.AperFunction*
G04 #@! TA.AperFunction,SMDPad,CuDef*
G36*
G01*
X136827500Y-119075000D02*
X137172500Y-119075000D01*
G75*
G02*
X137320000Y-119222500I0J-147500D01*
G01*
X137320000Y-119517500D01*
G75*
G02*
X137172500Y-119665000I-147500J0D01*
G01*
X136827500Y-119665000D01*
G75*
G02*
X136680000Y-119517500I0J147500D01*
G01*
X136680000Y-119222500D01*
G75*
G02*
X136827500Y-119075000I147500J0D01*
G01*
G37*
G04 #@! TD.AperFunction*
G04 #@! TA.AperFunction,SMDPad,CuDef*
G36*
G01*
X113929000Y-119872500D02*
X113929000Y-119527500D01*
G75*
G02*
X114076500Y-119380000I147500J0D01*
G01*
X114371500Y-119380000D01*
G75*
G02*
X114519000Y-119527500I0J-147500D01*
G01*
X114519000Y-119872500D01*
G75*
G02*
X114371500Y-120020000I-147500J0D01*
G01*
X114076500Y-120020000D01*
G75*
G02*
X113929000Y-119872500I0J147500D01*
G01*
G37*
G04 #@! TD.AperFunction*
G04 #@! TA.AperFunction,SMDPad,CuDef*
G36*
G01*
X112959000Y-119872500D02*
X112959000Y-119527500D01*
G75*
G02*
X113106500Y-119380000I147500J0D01*
G01*
X113401500Y-119380000D01*
G75*
G02*
X113549000Y-119527500I0J-147500D01*
G01*
X113549000Y-119872500D01*
G75*
G02*
X113401500Y-120020000I-147500J0D01*
G01*
X113106500Y-120020000D01*
G75*
G02*
X112959000Y-119872500I0J147500D01*
G01*
G37*
G04 #@! TD.AperFunction*
G04 #@! TA.AperFunction,SMDPad,CuDef*
G36*
G01*
X108364000Y-116617500D02*
X108364000Y-116272500D01*
G75*
G02*
X108511500Y-116125000I147500J0D01*
G01*
X108806500Y-116125000D01*
G75*
G02*
X108954000Y-116272500I0J-147500D01*
G01*
X108954000Y-116617500D01*
G75*
G02*
X108806500Y-116765000I-147500J0D01*
G01*
X108511500Y-116765000D01*
G75*
G02*
X108364000Y-116617500I0J147500D01*
G01*
G37*
G04 #@! TD.AperFunction*
G04 #@! TA.AperFunction,SMDPad,CuDef*
G36*
G01*
X109334000Y-116617500D02*
X109334000Y-116272500D01*
G75*
G02*
X109481500Y-116125000I147500J0D01*
G01*
X109776500Y-116125000D01*
G75*
G02*
X109924000Y-116272500I0J-147500D01*
G01*
X109924000Y-116617500D01*
G75*
G02*
X109776500Y-116765000I-147500J0D01*
G01*
X109481500Y-116765000D01*
G75*
G02*
X109334000Y-116617500I0J147500D01*
G01*
G37*
G04 #@! TD.AperFunction*
D19*
X137750000Y-115850000D03*
X136450000Y-115850000D03*
X137100000Y-113950000D03*
X137100000Y-115850000D03*
X136450000Y-113950000D03*
X137750000Y-113950000D03*
G04 #@! TA.AperFunction,SMDPad,CuDef*
G36*
G01*
X138127500Y-118105000D02*
X138472500Y-118105000D01*
G75*
G02*
X138620000Y-118252500I0J-147500D01*
G01*
X138620000Y-118547500D01*
G75*
G02*
X138472500Y-118695000I-147500J0D01*
G01*
X138127500Y-118695000D01*
G75*
G02*
X137980000Y-118547500I0J147500D01*
G01*
X137980000Y-118252500D01*
G75*
G02*
X138127500Y-118105000I147500J0D01*
G01*
G37*
G04 #@! TD.AperFunction*
G04 #@! TA.AperFunction,SMDPad,CuDef*
G36*
G01*
X138127500Y-119075000D02*
X138472500Y-119075000D01*
G75*
G02*
X138620000Y-119222500I0J-147500D01*
G01*
X138620000Y-119517500D01*
G75*
G02*
X138472500Y-119665000I-147500J0D01*
G01*
X138127500Y-119665000D01*
G75*
G02*
X137980000Y-119517500I0J147500D01*
G01*
X137980000Y-119222500D01*
G75*
G02*
X138127500Y-119075000I147500J0D01*
G01*
G37*
G04 #@! TD.AperFunction*
G04 #@! TA.AperFunction,SMDPad,CuDef*
G36*
G01*
X100340000Y-114585500D02*
X100340000Y-114240500D01*
G75*
G02*
X100487500Y-114093000I147500J0D01*
G01*
X100782500Y-114093000D01*
G75*
G02*
X100930000Y-114240500I0J-147500D01*
G01*
X100930000Y-114585500D01*
G75*
G02*
X100782500Y-114733000I-147500J0D01*
G01*
X100487500Y-114733000D01*
G75*
G02*
X100340000Y-114585500I0J147500D01*
G01*
G37*
G04 #@! TD.AperFunction*
G04 #@! TA.AperFunction,SMDPad,CuDef*
G36*
G01*
X101310000Y-114585500D02*
X101310000Y-114240500D01*
G75*
G02*
X101457500Y-114093000I147500J0D01*
G01*
X101752500Y-114093000D01*
G75*
G02*
X101900000Y-114240500I0J-147500D01*
G01*
X101900000Y-114585500D01*
G75*
G02*
X101752500Y-114733000I-147500J0D01*
G01*
X101457500Y-114733000D01*
G75*
G02*
X101310000Y-114585500I0J147500D01*
G01*
G37*
G04 #@! TD.AperFunction*
G04 #@! TA.AperFunction,SMDPad,CuDef*
G36*
G01*
X104290000Y-101853250D02*
X104290000Y-100940750D01*
G75*
G02*
X104533750Y-100697000I243750J0D01*
G01*
X105021250Y-100697000D01*
G75*
G02*
X105265000Y-100940750I0J-243750D01*
G01*
X105265000Y-101853250D01*
G75*
G02*
X105021250Y-102097000I-243750J0D01*
G01*
X104533750Y-102097000D01*
G75*
G02*
X104290000Y-101853250I0J243750D01*
G01*
G37*
G04 #@! TD.AperFunction*
G04 #@! TA.AperFunction,SMDPad,CuDef*
G36*
G01*
X106165000Y-101853250D02*
X106165000Y-100940750D01*
G75*
G02*
X106408750Y-100697000I243750J0D01*
G01*
X106896250Y-100697000D01*
G75*
G02*
X107140000Y-100940750I0J-243750D01*
G01*
X107140000Y-101853250D01*
G75*
G02*
X106896250Y-102097000I-243750J0D01*
G01*
X106408750Y-102097000D01*
G75*
G02*
X106165000Y-101853250I0J243750D01*
G01*
G37*
G04 #@! TD.AperFunction*
G04 #@! TA.AperFunction,SMDPad,CuDef*
G36*
G01*
X104290000Y-107949250D02*
X104290000Y-107036750D01*
G75*
G02*
X104533750Y-106793000I243750J0D01*
G01*
X105021250Y-106793000D01*
G75*
G02*
X105265000Y-107036750I0J-243750D01*
G01*
X105265000Y-107949250D01*
G75*
G02*
X105021250Y-108193000I-243750J0D01*
G01*
X104533750Y-108193000D01*
G75*
G02*
X104290000Y-107949250I0J243750D01*
G01*
G37*
G04 #@! TD.AperFunction*
G04 #@! TA.AperFunction,SMDPad,CuDef*
G36*
G01*
X106165000Y-107949250D02*
X106165000Y-107036750D01*
G75*
G02*
X106408750Y-106793000I243750J0D01*
G01*
X106896250Y-106793000D01*
G75*
G02*
X107140000Y-107036750I0J-243750D01*
G01*
X107140000Y-107949250D01*
G75*
G02*
X106896250Y-108193000I-243750J0D01*
G01*
X106408750Y-108193000D01*
G75*
G02*
X106165000Y-107949250I0J243750D01*
G01*
G37*
G04 #@! TD.AperFunction*
G04 #@! TA.AperFunction,SMDPad,CuDef*
G36*
G01*
X138078500Y-100662000D02*
X138078500Y-100862000D01*
G75*
G02*
X137978500Y-100962000I-100000J0D01*
G01*
X137718500Y-100962000D01*
G75*
G02*
X137618500Y-100862000I0J100000D01*
G01*
X137618500Y-100662000D01*
G75*
G02*
X137718500Y-100562000I100000J0D01*
G01*
X137978500Y-100562000D01*
G75*
G02*
X138078500Y-100662000I0J-100000D01*
G01*
G37*
G04 #@! TD.AperFunction*
G04 #@! TA.AperFunction,SMDPad,CuDef*
G36*
G01*
X137438500Y-100662000D02*
X137438500Y-100862000D01*
G75*
G02*
X137338500Y-100962000I-100000J0D01*
G01*
X137078500Y-100962000D01*
G75*
G02*
X136978500Y-100862000I0J100000D01*
G01*
X136978500Y-100662000D01*
G75*
G02*
X137078500Y-100562000I100000J0D01*
G01*
X137338500Y-100562000D01*
G75*
G02*
X137438500Y-100662000I0J-100000D01*
G01*
G37*
G04 #@! TD.AperFunction*
D10*
X107190000Y-105445000D03*
X107190000Y-104945000D03*
X107190000Y-104445000D03*
X107190000Y-103945000D03*
X107190000Y-103445000D03*
X104240000Y-103445000D03*
X104240000Y-103945000D03*
X104240000Y-104445000D03*
X104240000Y-104945000D03*
X104240000Y-105445000D03*
D11*
X105715000Y-104445000D03*
D12*
X105965000Y-105995000D03*
X105965000Y-102895000D03*
X105465000Y-105995000D03*
X105465000Y-102895000D03*
G04 #@! TA.AperFunction,SMDPad,CuDef*
G36*
G01*
X112845000Y-105669500D02*
X112845000Y-106014500D01*
G75*
G02*
X112697500Y-106162000I-147500J0D01*
G01*
X112402500Y-106162000D01*
G75*
G02*
X112255000Y-106014500I0J147500D01*
G01*
X112255000Y-105669500D01*
G75*
G02*
X112402500Y-105522000I147500J0D01*
G01*
X112697500Y-105522000D01*
G75*
G02*
X112845000Y-105669500I0J-147500D01*
G01*
G37*
G04 #@! TD.AperFunction*
G04 #@! TA.AperFunction,SMDPad,CuDef*
G36*
G01*
X111875000Y-105669500D02*
X111875000Y-106014500D01*
G75*
G02*
X111727500Y-106162000I-147500J0D01*
G01*
X111432500Y-106162000D01*
G75*
G02*
X111285000Y-106014500I0J147500D01*
G01*
X111285000Y-105669500D01*
G75*
G02*
X111432500Y-105522000I147500J0D01*
G01*
X111727500Y-105522000D01*
G75*
G02*
X111875000Y-105669500I0J-147500D01*
G01*
G37*
G04 #@! TD.AperFunction*
D13*
X102651000Y-106111000D03*
X102651000Y-104811000D03*
X100651000Y-105461000D03*
G04 #@! TA.AperFunction,SMDPad,CuDef*
G36*
G01*
X126627500Y-101220000D02*
X126972500Y-101220000D01*
G75*
G02*
X127120000Y-101367500I0J-147500D01*
G01*
X127120000Y-101662500D01*
G75*
G02*
X126972500Y-101810000I-147500J0D01*
G01*
X126627500Y-101810000D01*
G75*
G02*
X126480000Y-101662500I0J147500D01*
G01*
X126480000Y-101367500D01*
G75*
G02*
X126627500Y-101220000I147500J0D01*
G01*
G37*
G04 #@! TD.AperFunction*
G04 #@! TA.AperFunction,SMDPad,CuDef*
G36*
G01*
X126627500Y-102190000D02*
X126972500Y-102190000D01*
G75*
G02*
X127120000Y-102337500I0J-147500D01*
G01*
X127120000Y-102632500D01*
G75*
G02*
X126972500Y-102780000I-147500J0D01*
G01*
X126627500Y-102780000D01*
G75*
G02*
X126480000Y-102632500I0J147500D01*
G01*
X126480000Y-102337500D01*
G75*
G02*
X126627500Y-102190000I147500J0D01*
G01*
G37*
G04 #@! TD.AperFunction*
G04 #@! TA.AperFunction,SMDPad,CuDef*
G36*
G01*
X110904000Y-106967000D02*
X110904000Y-106622000D01*
G75*
G02*
X111051500Y-106474500I147500J0D01*
G01*
X111346500Y-106474500D01*
G75*
G02*
X111494000Y-106622000I0J-147500D01*
G01*
X111494000Y-106967000D01*
G75*
G02*
X111346500Y-107114500I-147500J0D01*
G01*
X111051500Y-107114500D01*
G75*
G02*
X110904000Y-106967000I0J147500D01*
G01*
G37*
G04 #@! TD.AperFunction*
G04 #@! TA.AperFunction,SMDPad,CuDef*
G36*
G01*
X111874000Y-106967000D02*
X111874000Y-106622000D01*
G75*
G02*
X112021500Y-106474500I147500J0D01*
G01*
X112316500Y-106474500D01*
G75*
G02*
X112464000Y-106622000I0J-147500D01*
G01*
X112464000Y-106967000D01*
G75*
G02*
X112316500Y-107114500I-147500J0D01*
G01*
X112021500Y-107114500D01*
G75*
G02*
X111874000Y-106967000I0J147500D01*
G01*
G37*
G04 #@! TD.AperFunction*
G04 #@! TA.AperFunction,SMDPad,CuDef*
G36*
G01*
X109947000Y-105415500D02*
X109947000Y-105760500D01*
G75*
G02*
X109799500Y-105908000I-147500J0D01*
G01*
X109504500Y-105908000D01*
G75*
G02*
X109357000Y-105760500I0J147500D01*
G01*
X109357000Y-105415500D01*
G75*
G02*
X109504500Y-105268000I147500J0D01*
G01*
X109799500Y-105268000D01*
G75*
G02*
X109947000Y-105415500I0J-147500D01*
G01*
G37*
G04 #@! TD.AperFunction*
G04 #@! TA.AperFunction,SMDPad,CuDef*
G36*
G01*
X108977000Y-105415500D02*
X108977000Y-105760500D01*
G75*
G02*
X108829500Y-105908000I-147500J0D01*
G01*
X108534500Y-105908000D01*
G75*
G02*
X108387000Y-105760500I0J147500D01*
G01*
X108387000Y-105415500D01*
G75*
G02*
X108534500Y-105268000I147500J0D01*
G01*
X108829500Y-105268000D01*
G75*
G02*
X108977000Y-105415500I0J-147500D01*
G01*
G37*
G04 #@! TD.AperFunction*
D14*
X145100000Y-100900000D03*
G04 #@! TA.AperFunction,SMDPad,CuDef*
G36*
G01*
X139343750Y-106900000D02*
X139856250Y-106900000D01*
G75*
G02*
X140075000Y-107118750I0J-218750D01*
G01*
X140075000Y-107556250D01*
G75*
G02*
X139856250Y-107775000I-218750J0D01*
G01*
X139343750Y-107775000D01*
G75*
G02*
X139125000Y-107556250I0J218750D01*
G01*
X139125000Y-107118750D01*
G75*
G02*
X139343750Y-106900000I218750J0D01*
G01*
G37*
G04 #@! TD.AperFunction*
G04 #@! TA.AperFunction,SMDPad,CuDef*
G36*
G01*
X139343750Y-105325000D02*
X139856250Y-105325000D01*
G75*
G02*
X140075000Y-105543750I0J-218750D01*
G01*
X140075000Y-105981250D01*
G75*
G02*
X139856250Y-106200000I-218750J0D01*
G01*
X139343750Y-106200000D01*
G75*
G02*
X139125000Y-105981250I0J218750D01*
G01*
X139125000Y-105543750D01*
G75*
G02*
X139343750Y-105325000I218750J0D01*
G01*
G37*
G04 #@! TD.AperFunction*
D15*
X115950000Y-101050000D03*
X115950000Y-102950000D03*
X113750000Y-102950000D03*
X113750000Y-102000000D03*
X113750000Y-101050000D03*
G04 #@! TA.AperFunction,SMDPad,CuDef*
G36*
G01*
X139172500Y-104580000D02*
X138827500Y-104580000D01*
G75*
G02*
X138680000Y-104432500I0J147500D01*
G01*
X138680000Y-104137500D01*
G75*
G02*
X138827500Y-103990000I147500J0D01*
G01*
X139172500Y-103990000D01*
G75*
G02*
X139320000Y-104137500I0J-147500D01*
G01*
X139320000Y-104432500D01*
G75*
G02*
X139172500Y-104580000I-147500J0D01*
G01*
G37*
G04 #@! TD.AperFunction*
G04 #@! TA.AperFunction,SMDPad,CuDef*
G36*
G01*
X139172500Y-103610000D02*
X138827500Y-103610000D01*
G75*
G02*
X138680000Y-103462500I0J147500D01*
G01*
X138680000Y-103167500D01*
G75*
G02*
X138827500Y-103020000I147500J0D01*
G01*
X139172500Y-103020000D01*
G75*
G02*
X139320000Y-103167500I0J-147500D01*
G01*
X139320000Y-103462500D01*
G75*
G02*
X139172500Y-103610000I-147500J0D01*
G01*
G37*
G04 #@! TD.AperFunction*
G04 #@! TA.AperFunction,SMDPad,CuDef*
G36*
G01*
X100871000Y-103728500D02*
X100871000Y-103383500D01*
G75*
G02*
X101018500Y-103236000I147500J0D01*
G01*
X101313500Y-103236000D01*
G75*
G02*
X101461000Y-103383500I0J-147500D01*
G01*
X101461000Y-103728500D01*
G75*
G02*
X101313500Y-103876000I-147500J0D01*
G01*
X101018500Y-103876000D01*
G75*
G02*
X100871000Y-103728500I0J147500D01*
G01*
G37*
G04 #@! TD.AperFunction*
G04 #@! TA.AperFunction,SMDPad,CuDef*
G36*
G01*
X101841000Y-103728500D02*
X101841000Y-103383500D01*
G75*
G02*
X101988500Y-103236000I147500J0D01*
G01*
X102283500Y-103236000D01*
G75*
G02*
X102431000Y-103383500I0J-147500D01*
G01*
X102431000Y-103728500D01*
G75*
G02*
X102283500Y-103876000I-147500J0D01*
G01*
X101988500Y-103876000D01*
G75*
G02*
X101841000Y-103728500I0J147500D01*
G01*
G37*
G04 #@! TD.AperFunction*
G04 #@! TA.AperFunction,SMDPad,CuDef*
G36*
G01*
X111621000Y-100970500D02*
X111621000Y-101315500D01*
G75*
G02*
X111473500Y-101463000I-147500J0D01*
G01*
X111178500Y-101463000D01*
G75*
G02*
X111031000Y-101315500I0J147500D01*
G01*
X111031000Y-100970500D01*
G75*
G02*
X111178500Y-100823000I147500J0D01*
G01*
X111473500Y-100823000D01*
G75*
G02*
X111621000Y-100970500I0J-147500D01*
G01*
G37*
G04 #@! TD.AperFunction*
G04 #@! TA.AperFunction,SMDPad,CuDef*
G36*
G01*
X112591000Y-100970500D02*
X112591000Y-101315500D01*
G75*
G02*
X112443500Y-101463000I-147500J0D01*
G01*
X112148500Y-101463000D01*
G75*
G02*
X112001000Y-101315500I0J147500D01*
G01*
X112001000Y-100970500D01*
G75*
G02*
X112148500Y-100823000I147500J0D01*
G01*
X112443500Y-100823000D01*
G75*
G02*
X112591000Y-100970500I0J-147500D01*
G01*
G37*
G04 #@! TD.AperFunction*
D16*
X111161000Y-104810000D03*
X112461000Y-104810000D03*
X111811000Y-102810000D03*
G04 #@! TA.AperFunction,SMDPad,CuDef*
G36*
G01*
X109860500Y-106713000D02*
X110205500Y-106713000D01*
G75*
G02*
X110353000Y-106860500I0J-147500D01*
G01*
X110353000Y-107155500D01*
G75*
G02*
X110205500Y-107303000I-147500J0D01*
G01*
X109860500Y-107303000D01*
G75*
G02*
X109713000Y-107155500I0J147500D01*
G01*
X109713000Y-106860500D01*
G75*
G02*
X109860500Y-106713000I147500J0D01*
G01*
G37*
G04 #@! TD.AperFunction*
G04 #@! TA.AperFunction,SMDPad,CuDef*
G36*
G01*
X109860500Y-107683000D02*
X110205500Y-107683000D01*
G75*
G02*
X110353000Y-107830500I0J-147500D01*
G01*
X110353000Y-108125500D01*
G75*
G02*
X110205500Y-108273000I-147500J0D01*
G01*
X109860500Y-108273000D01*
G75*
G02*
X109713000Y-108125500I0J147500D01*
G01*
X109713000Y-107830500D01*
G75*
G02*
X109860500Y-107683000I147500J0D01*
G01*
G37*
G04 #@! TD.AperFunction*
D17*
X122650000Y-101350000D03*
X122000000Y-101350000D03*
X120050000Y-101350000D03*
X120700000Y-101350000D03*
X121350000Y-101350000D03*
G04 #@! TA.AperFunction,SMDPad,CuDef*
G36*
G01*
X109189500Y-108250000D02*
X108844500Y-108250000D01*
G75*
G02*
X108697000Y-108102500I0J147500D01*
G01*
X108697000Y-107807500D01*
G75*
G02*
X108844500Y-107660000I147500J0D01*
G01*
X109189500Y-107660000D01*
G75*
G02*
X109337000Y-107807500I0J-147500D01*
G01*
X109337000Y-108102500D01*
G75*
G02*
X109189500Y-108250000I-147500J0D01*
G01*
G37*
G04 #@! TD.AperFunction*
G04 #@! TA.AperFunction,SMDPad,CuDef*
G36*
G01*
X109189500Y-107280000D02*
X108844500Y-107280000D01*
G75*
G02*
X108697000Y-107132500I0J147500D01*
G01*
X108697000Y-106837500D01*
G75*
G02*
X108844500Y-106690000I147500J0D01*
G01*
X109189500Y-106690000D01*
G75*
G02*
X109337000Y-106837500I0J-147500D01*
G01*
X109337000Y-107132500D01*
G75*
G02*
X109189500Y-107280000I-147500J0D01*
G01*
G37*
G04 #@! TD.AperFunction*
D14*
X145100000Y-108100000D03*
G04 #@! TA.AperFunction,SMDPad,CuDef*
G36*
G01*
X115040000Y-106522500D02*
X115040000Y-106177500D01*
G75*
G02*
X115187500Y-106030000I147500J0D01*
G01*
X115482500Y-106030000D01*
G75*
G02*
X115630000Y-106177500I0J-147500D01*
G01*
X115630000Y-106522500D01*
G75*
G02*
X115482500Y-106670000I-147500J0D01*
G01*
X115187500Y-106670000D01*
G75*
G02*
X115040000Y-106522500I0J147500D01*
G01*
G37*
G04 #@! TD.AperFunction*
G04 #@! TA.AperFunction,SMDPad,CuDef*
G36*
G01*
X114070000Y-106522500D02*
X114070000Y-106177500D01*
G75*
G02*
X114217500Y-106030000I147500J0D01*
G01*
X114512500Y-106030000D01*
G75*
G02*
X114660000Y-106177500I0J-147500D01*
G01*
X114660000Y-106522500D01*
G75*
G02*
X114512500Y-106670000I-147500J0D01*
G01*
X114217500Y-106670000D01*
G75*
G02*
X114070000Y-106522500I0J147500D01*
G01*
G37*
G04 #@! TD.AperFunction*
G04 #@! TA.AperFunction,SMDPad,CuDef*
G36*
G01*
X107828500Y-100617000D02*
X108173500Y-100617000D01*
G75*
G02*
X108321000Y-100764500I0J-147500D01*
G01*
X108321000Y-101059500D01*
G75*
G02*
X108173500Y-101207000I-147500J0D01*
G01*
X107828500Y-101207000D01*
G75*
G02*
X107681000Y-101059500I0J147500D01*
G01*
X107681000Y-100764500D01*
G75*
G02*
X107828500Y-100617000I147500J0D01*
G01*
G37*
G04 #@! TD.AperFunction*
G04 #@! TA.AperFunction,SMDPad,CuDef*
G36*
G01*
X107828500Y-101587000D02*
X108173500Y-101587000D01*
G75*
G02*
X108321000Y-101734500I0J-147500D01*
G01*
X108321000Y-102029500D01*
G75*
G02*
X108173500Y-102177000I-147500J0D01*
G01*
X107828500Y-102177000D01*
G75*
G02*
X107681000Y-102029500I0J147500D01*
G01*
X107681000Y-101734500D01*
G75*
G02*
X107828500Y-101587000I147500J0D01*
G01*
G37*
G04 #@! TD.AperFunction*
D18*
X143050000Y-106132000D03*
X143050000Y-102400000D03*
G04 #@! TA.AperFunction,SMDPad,CuDef*
G36*
G01*
X110205500Y-103828000D02*
X109860500Y-103828000D01*
G75*
G02*
X109713000Y-103680500I0J147500D01*
G01*
X109713000Y-103385500D01*
G75*
G02*
X109860500Y-103238000I147500J0D01*
G01*
X110205500Y-103238000D01*
G75*
G02*
X110353000Y-103385500I0J-147500D01*
G01*
X110353000Y-103680500D01*
G75*
G02*
X110205500Y-103828000I-147500J0D01*
G01*
G37*
G04 #@! TD.AperFunction*
G04 #@! TA.AperFunction,SMDPad,CuDef*
G36*
G01*
X110205500Y-102858000D02*
X109860500Y-102858000D01*
G75*
G02*
X109713000Y-102710500I0J147500D01*
G01*
X109713000Y-102415500D01*
G75*
G02*
X109860500Y-102268000I147500J0D01*
G01*
X110205500Y-102268000D01*
G75*
G02*
X110353000Y-102415500I0J-147500D01*
G01*
X110353000Y-102710500D01*
G75*
G02*
X110205500Y-102858000I-147500J0D01*
G01*
G37*
G04 #@! TD.AperFunction*
G04 #@! TA.AperFunction,SMDPad,CuDef*
G36*
G01*
X114070000Y-105172500D02*
X114070000Y-104827500D01*
G75*
G02*
X114217500Y-104680000I147500J0D01*
G01*
X114512500Y-104680000D01*
G75*
G02*
X114660000Y-104827500I0J-147500D01*
G01*
X114660000Y-105172500D01*
G75*
G02*
X114512500Y-105320000I-147500J0D01*
G01*
X114217500Y-105320000D01*
G75*
G02*
X114070000Y-105172500I0J147500D01*
G01*
G37*
G04 #@! TD.AperFunction*
G04 #@! TA.AperFunction,SMDPad,CuDef*
G36*
G01*
X115040000Y-105172500D02*
X115040000Y-104827500D01*
G75*
G02*
X115187500Y-104680000I147500J0D01*
G01*
X115482500Y-104680000D01*
G75*
G02*
X115630000Y-104827500I0J-147500D01*
G01*
X115630000Y-105172500D01*
G75*
G02*
X115482500Y-105320000I-147500J0D01*
G01*
X115187500Y-105320000D01*
G75*
G02*
X115040000Y-105172500I0J147500D01*
G01*
G37*
G04 #@! TD.AperFunction*
D14*
X100900000Y-100900000D03*
G04 #@! TA.AperFunction,SMDPad,CuDef*
G36*
G01*
X120300000Y-104700000D02*
X122400000Y-104700000D01*
G75*
G02*
X122650000Y-104950000I0J-250000D01*
G01*
X122650000Y-107050000D01*
G75*
G02*
X122400000Y-107300000I-250000J0D01*
G01*
X120300000Y-107300000D01*
G75*
G02*
X120050000Y-107050000I0J250000D01*
G01*
X120050000Y-104950000D01*
G75*
G02*
X120300000Y-104700000I250000J0D01*
G01*
G37*
G04 #@! TD.AperFunction*
G04 #@! TA.AperFunction,SMDPad,CuDef*
G36*
G01*
X122537500Y-103650000D02*
X122662500Y-103650000D01*
G75*
G02*
X122725000Y-103712500I0J-62500D01*
G01*
X122725000Y-104412500D01*
G75*
G02*
X122662500Y-104475000I-62500J0D01*
G01*
X122537500Y-104475000D01*
G75*
G02*
X122475000Y-104412500I0J62500D01*
G01*
X122475000Y-103712500D01*
G75*
G02*
X122537500Y-103650000I62500J0D01*
G01*
G37*
G04 #@! TD.AperFunction*
G04 #@! TA.AperFunction,SMDPad,CuDef*
G36*
G01*
X122037500Y-103650000D02*
X122162500Y-103650000D01*
G75*
G02*
X122225000Y-103712500I0J-62500D01*
G01*
X122225000Y-104412500D01*
G75*
G02*
X122162500Y-104475000I-62500J0D01*
G01*
X122037500Y-104475000D01*
G75*
G02*
X121975000Y-104412500I0J62500D01*
G01*
X121975000Y-103712500D01*
G75*
G02*
X122037500Y-103650000I62500J0D01*
G01*
G37*
G04 #@! TD.AperFunction*
G04 #@! TA.AperFunction,SMDPad,CuDef*
G36*
G01*
X121537500Y-103650000D02*
X121662500Y-103650000D01*
G75*
G02*
X121725000Y-103712500I0J-62500D01*
G01*
X121725000Y-104412500D01*
G75*
G02*
X121662500Y-104475000I-62500J0D01*
G01*
X121537500Y-104475000D01*
G75*
G02*
X121475000Y-104412500I0J62500D01*
G01*
X121475000Y-103712500D01*
G75*
G02*
X121537500Y-103650000I62500J0D01*
G01*
G37*
G04 #@! TD.AperFunction*
G04 #@! TA.AperFunction,SMDPad,CuDef*
G36*
G01*
X121037500Y-103650000D02*
X121162500Y-103650000D01*
G75*
G02*
X121225000Y-103712500I0J-62500D01*
G01*
X121225000Y-104412500D01*
G75*
G02*
X121162500Y-104475000I-62500J0D01*
G01*
X121037500Y-104475000D01*
G75*
G02*
X120975000Y-104412500I0J62500D01*
G01*
X120975000Y-103712500D01*
G75*
G02*
X121037500Y-103650000I62500J0D01*
G01*
G37*
G04 #@! TD.AperFunction*
G04 #@! TA.AperFunction,SMDPad,CuDef*
G36*
G01*
X120537500Y-103650000D02*
X120662500Y-103650000D01*
G75*
G02*
X120725000Y-103712500I0J-62500D01*
G01*
X120725000Y-104412500D01*
G75*
G02*
X120662500Y-104475000I-62500J0D01*
G01*
X120537500Y-104475000D01*
G75*
G02*
X120475000Y-104412500I0J62500D01*
G01*
X120475000Y-103712500D01*
G75*
G02*
X120537500Y-103650000I62500J0D01*
G01*
G37*
G04 #@! TD.AperFunction*
G04 #@! TA.AperFunction,SMDPad,CuDef*
G36*
G01*
X120037500Y-103650000D02*
X120162500Y-103650000D01*
G75*
G02*
X120225000Y-103712500I0J-62500D01*
G01*
X120225000Y-104412500D01*
G75*
G02*
X120162500Y-104475000I-62500J0D01*
G01*
X120037500Y-104475000D01*
G75*
G02*
X119975000Y-104412500I0J62500D01*
G01*
X119975000Y-103712500D01*
G75*
G02*
X120037500Y-103650000I62500J0D01*
G01*
G37*
G04 #@! TD.AperFunction*
G04 #@! TA.AperFunction,SMDPad,CuDef*
G36*
G01*
X119062500Y-104625000D02*
X119762500Y-104625000D01*
G75*
G02*
X119825000Y-104687500I0J-62500D01*
G01*
X119825000Y-104812500D01*
G75*
G02*
X119762500Y-104875000I-62500J0D01*
G01*
X119062500Y-104875000D01*
G75*
G02*
X119000000Y-104812500I0J62500D01*
G01*
X119000000Y-104687500D01*
G75*
G02*
X119062500Y-104625000I62500J0D01*
G01*
G37*
G04 #@! TD.AperFunction*
G04 #@! TA.AperFunction,SMDPad,CuDef*
G36*
G01*
X119062500Y-105125000D02*
X119762500Y-105125000D01*
G75*
G02*
X119825000Y-105187500I0J-62500D01*
G01*
X119825000Y-105312500D01*
G75*
G02*
X119762500Y-105375000I-62500J0D01*
G01*
X119062500Y-105375000D01*
G75*
G02*
X119000000Y-105312500I0J62500D01*
G01*
X119000000Y-105187500D01*
G75*
G02*
X119062500Y-105125000I62500J0D01*
G01*
G37*
G04 #@! TD.AperFunction*
G04 #@! TA.AperFunction,SMDPad,CuDef*
G36*
G01*
X119062500Y-105625000D02*
X119762500Y-105625000D01*
G75*
G02*
X119825000Y-105687500I0J-62500D01*
G01*
X119825000Y-105812500D01*
G75*
G02*
X119762500Y-105875000I-62500J0D01*
G01*
X119062500Y-105875000D01*
G75*
G02*
X119000000Y-105812500I0J62500D01*
G01*
X119000000Y-105687500D01*
G75*
G02*
X119062500Y-105625000I62500J0D01*
G01*
G37*
G04 #@! TD.AperFunction*
G04 #@! TA.AperFunction,SMDPad,CuDef*
G36*
G01*
X119062500Y-106125000D02*
X119762500Y-106125000D01*
G75*
G02*
X119825000Y-106187500I0J-62500D01*
G01*
X119825000Y-106312500D01*
G75*
G02*
X119762500Y-106375000I-62500J0D01*
G01*
X119062500Y-106375000D01*
G75*
G02*
X119000000Y-106312500I0J62500D01*
G01*
X119000000Y-106187500D01*
G75*
G02*
X119062500Y-106125000I62500J0D01*
G01*
G37*
G04 #@! TD.AperFunction*
G04 #@! TA.AperFunction,SMDPad,CuDef*
G36*
G01*
X119062500Y-106625000D02*
X119762500Y-106625000D01*
G75*
G02*
X119825000Y-106687500I0J-62500D01*
G01*
X119825000Y-106812500D01*
G75*
G02*
X119762500Y-106875000I-62500J0D01*
G01*
X119062500Y-106875000D01*
G75*
G02*
X119000000Y-106812500I0J62500D01*
G01*
X119000000Y-106687500D01*
G75*
G02*
X119062500Y-106625000I62500J0D01*
G01*
G37*
G04 #@! TD.AperFunction*
G04 #@! TA.AperFunction,SMDPad,CuDef*
G36*
G01*
X119062500Y-107125000D02*
X119762500Y-107125000D01*
G75*
G02*
X119825000Y-107187500I0J-62500D01*
G01*
X119825000Y-107312500D01*
G75*
G02*
X119762500Y-107375000I-62500J0D01*
G01*
X119062500Y-107375000D01*
G75*
G02*
X119000000Y-107312500I0J62500D01*
G01*
X119000000Y-107187500D01*
G75*
G02*
X119062500Y-107125000I62500J0D01*
G01*
G37*
G04 #@! TD.AperFunction*
G04 #@! TA.AperFunction,SMDPad,CuDef*
G36*
G01*
X120037500Y-107525000D02*
X120162500Y-107525000D01*
G75*
G02*
X120225000Y-107587500I0J-62500D01*
G01*
X120225000Y-108287500D01*
G75*
G02*
X120162500Y-108350000I-62500J0D01*
G01*
X120037500Y-108350000D01*
G75*
G02*
X119975000Y-108287500I0J62500D01*
G01*
X119975000Y-107587500D01*
G75*
G02*
X120037500Y-107525000I62500J0D01*
G01*
G37*
G04 #@! TD.AperFunction*
G04 #@! TA.AperFunction,SMDPad,CuDef*
G36*
G01*
X120537500Y-107525000D02*
X120662500Y-107525000D01*
G75*
G02*
X120725000Y-107587500I0J-62500D01*
G01*
X120725000Y-108287500D01*
G75*
G02*
X120662500Y-108350000I-62500J0D01*
G01*
X120537500Y-108350000D01*
G75*
G02*
X120475000Y-108287500I0J62500D01*
G01*
X120475000Y-107587500D01*
G75*
G02*
X120537500Y-107525000I62500J0D01*
G01*
G37*
G04 #@! TD.AperFunction*
G04 #@! TA.AperFunction,SMDPad,CuDef*
G36*
G01*
X121037500Y-107525000D02*
X121162500Y-107525000D01*
G75*
G02*
X121225000Y-107587500I0J-62500D01*
G01*
X121225000Y-108287500D01*
G75*
G02*
X121162500Y-108350000I-62500J0D01*
G01*
X121037500Y-108350000D01*
G75*
G02*
X120975000Y-108287500I0J62500D01*
G01*
X120975000Y-107587500D01*
G75*
G02*
X121037500Y-107525000I62500J0D01*
G01*
G37*
G04 #@! TD.AperFunction*
G04 #@! TA.AperFunction,SMDPad,CuDef*
G36*
G01*
X121537500Y-107525000D02*
X121662500Y-107525000D01*
G75*
G02*
X121725000Y-107587500I0J-62500D01*
G01*
X121725000Y-108287500D01*
G75*
G02*
X121662500Y-108350000I-62500J0D01*
G01*
X121537500Y-108350000D01*
G75*
G02*
X121475000Y-108287500I0J62500D01*
G01*
X121475000Y-107587500D01*
G75*
G02*
X121537500Y-107525000I62500J0D01*
G01*
G37*
G04 #@! TD.AperFunction*
G04 #@! TA.AperFunction,SMDPad,CuDef*
G36*
G01*
X122037500Y-107525000D02*
X122162500Y-107525000D01*
G75*
G02*
X122225000Y-107587500I0J-62500D01*
G01*
X122225000Y-108287500D01*
G75*
G02*
X122162500Y-108350000I-62500J0D01*
G01*
X122037500Y-108350000D01*
G75*
G02*
X121975000Y-108287500I0J62500D01*
G01*
X121975000Y-107587500D01*
G75*
G02*
X122037500Y-107525000I62500J0D01*
G01*
G37*
G04 #@! TD.AperFunction*
G04 #@! TA.AperFunction,SMDPad,CuDef*
G36*
G01*
X122537500Y-107525000D02*
X122662500Y-107525000D01*
G75*
G02*
X122725000Y-107587500I0J-62500D01*
G01*
X122725000Y-108287500D01*
G75*
G02*
X122662500Y-108350000I-62500J0D01*
G01*
X122537500Y-108350000D01*
G75*
G02*
X122475000Y-108287500I0J62500D01*
G01*
X122475000Y-107587500D01*
G75*
G02*
X122537500Y-107525000I62500J0D01*
G01*
G37*
G04 #@! TD.AperFunction*
G04 #@! TA.AperFunction,SMDPad,CuDef*
G36*
G01*
X122937500Y-107125000D02*
X123637500Y-107125000D01*
G75*
G02*
X123700000Y-107187500I0J-62500D01*
G01*
X123700000Y-107312500D01*
G75*
G02*
X123637500Y-107375000I-62500J0D01*
G01*
X122937500Y-107375000D01*
G75*
G02*
X122875000Y-107312500I0J62500D01*
G01*
X122875000Y-107187500D01*
G75*
G02*
X122937500Y-107125000I62500J0D01*
G01*
G37*
G04 #@! TD.AperFunction*
G04 #@! TA.AperFunction,SMDPad,CuDef*
G36*
G01*
X122937500Y-106625000D02*
X123637500Y-106625000D01*
G75*
G02*
X123700000Y-106687500I0J-62500D01*
G01*
X123700000Y-106812500D01*
G75*
G02*
X123637500Y-106875000I-62500J0D01*
G01*
X122937500Y-106875000D01*
G75*
G02*
X122875000Y-106812500I0J62500D01*
G01*
X122875000Y-106687500D01*
G75*
G02*
X122937500Y-106625000I62500J0D01*
G01*
G37*
G04 #@! TD.AperFunction*
G04 #@! TA.AperFunction,SMDPad,CuDef*
G36*
G01*
X122937500Y-106125000D02*
X123637500Y-106125000D01*
G75*
G02*
X123700000Y-106187500I0J-62500D01*
G01*
X123700000Y-106312500D01*
G75*
G02*
X123637500Y-106375000I-62500J0D01*
G01*
X122937500Y-106375000D01*
G75*
G02*
X122875000Y-106312500I0J62500D01*
G01*
X122875000Y-106187500D01*
G75*
G02*
X122937500Y-106125000I62500J0D01*
G01*
G37*
G04 #@! TD.AperFunction*
G04 #@! TA.AperFunction,SMDPad,CuDef*
G36*
G01*
X122937500Y-105625000D02*
X123637500Y-105625000D01*
G75*
G02*
X123700000Y-105687500I0J-62500D01*
G01*
X123700000Y-105812500D01*
G75*
G02*
X123637500Y-105875000I-62500J0D01*
G01*
X122937500Y-105875000D01*
G75*
G02*
X122875000Y-105812500I0J62500D01*
G01*
X122875000Y-105687500D01*
G75*
G02*
X122937500Y-105625000I62500J0D01*
G01*
G37*
G04 #@! TD.AperFunction*
G04 #@! TA.AperFunction,SMDPad,CuDef*
G36*
G01*
X122937500Y-105125000D02*
X123637500Y-105125000D01*
G75*
G02*
X123700000Y-105187500I0J-62500D01*
G01*
X123700000Y-105312500D01*
G75*
G02*
X123637500Y-105375000I-62500J0D01*
G01*
X122937500Y-105375000D01*
G75*
G02*
X122875000Y-105312500I0J62500D01*
G01*
X122875000Y-105187500D01*
G75*
G02*
X122937500Y-105125000I62500J0D01*
G01*
G37*
G04 #@! TD.AperFunction*
G04 #@! TA.AperFunction,SMDPad,CuDef*
G36*
G01*
X122937500Y-104625000D02*
X123637500Y-104625000D01*
G75*
G02*
X123700000Y-104687500I0J-62500D01*
G01*
X123700000Y-104812500D01*
G75*
G02*
X123637500Y-104875000I-62500J0D01*
G01*
X122937500Y-104875000D01*
G75*
G02*
X122875000Y-104812500I0J62500D01*
G01*
X122875000Y-104687500D01*
G75*
G02*
X122937500Y-104625000I62500J0D01*
G01*
G37*
G04 #@! TD.AperFunction*
G04 #@! TA.AperFunction,SMDPad,CuDef*
G36*
G01*
X133130800Y-106000000D02*
X129869200Y-106000000D01*
G75*
G02*
X129700000Y-105830800I0J169200D01*
G01*
X129700000Y-102569200D01*
G75*
G02*
X129869200Y-102400000I169200J0D01*
G01*
X133130800Y-102400000D01*
G75*
G02*
X133300000Y-102569200I0J-169200D01*
G01*
X133300000Y-105830800D01*
G75*
G02*
X133130800Y-106000000I-169200J0D01*
G01*
G37*
G04 #@! TD.AperFunction*
G04 #@! TA.AperFunction,SMDPad,CuDef*
G36*
G01*
X128812500Y-108050000D02*
X128687500Y-108050000D01*
G75*
G02*
X128625000Y-107987500I0J62500D01*
G01*
X128625000Y-107312500D01*
G75*
G02*
X128687500Y-107250000I62500J0D01*
G01*
X128812500Y-107250000D01*
G75*
G02*
X128875000Y-107312500I0J-62500D01*
G01*
X128875000Y-107987500D01*
G75*
G02*
X128812500Y-108050000I-62500J0D01*
G01*
G37*
G04 #@! TD.AperFunction*
G04 #@! TA.AperFunction,SMDPad,CuDef*
G36*
G01*
X129312500Y-108050000D02*
X129187500Y-108050000D01*
G75*
G02*
X129125000Y-107987500I0J62500D01*
G01*
X129125000Y-107312500D01*
G75*
G02*
X129187500Y-107250000I62500J0D01*
G01*
X129312500Y-107250000D01*
G75*
G02*
X129375000Y-107312500I0J-62500D01*
G01*
X129375000Y-107987500D01*
G75*
G02*
X129312500Y-108050000I-62500J0D01*
G01*
G37*
G04 #@! TD.AperFunction*
G04 #@! TA.AperFunction,SMDPad,CuDef*
G36*
G01*
X129812500Y-108050000D02*
X129687500Y-108050000D01*
G75*
G02*
X129625000Y-107987500I0J62500D01*
G01*
X129625000Y-107312500D01*
G75*
G02*
X129687500Y-107250000I62500J0D01*
G01*
X129812500Y-107250000D01*
G75*
G02*
X129875000Y-107312500I0J-62500D01*
G01*
X129875000Y-107987500D01*
G75*
G02*
X129812500Y-108050000I-62500J0D01*
G01*
G37*
G04 #@! TD.AperFunction*
G04 #@! TA.AperFunction,SMDPad,CuDef*
G36*
G01*
X130312500Y-108050000D02*
X130187500Y-108050000D01*
G75*
G02*
X130125000Y-107987500I0J62500D01*
G01*
X130125000Y-107312500D01*
G75*
G02*
X130187500Y-107250000I62500J0D01*
G01*
X130312500Y-107250000D01*
G75*
G02*
X130375000Y-107312500I0J-62500D01*
G01*
X130375000Y-107987500D01*
G75*
G02*
X130312500Y-108050000I-62500J0D01*
G01*
G37*
G04 #@! TD.AperFunction*
G04 #@! TA.AperFunction,SMDPad,CuDef*
G36*
G01*
X130812500Y-108050000D02*
X130687500Y-108050000D01*
G75*
G02*
X130625000Y-107987500I0J62500D01*
G01*
X130625000Y-107312500D01*
G75*
G02*
X130687500Y-107250000I62500J0D01*
G01*
X130812500Y-107250000D01*
G75*
G02*
X130875000Y-107312500I0J-62500D01*
G01*
X130875000Y-107987500D01*
G75*
G02*
X130812500Y-108050000I-62500J0D01*
G01*
G37*
G04 #@! TD.AperFunction*
G04 #@! TA.AperFunction,SMDPad,CuDef*
G36*
G01*
X131312500Y-108050000D02*
X131187500Y-108050000D01*
G75*
G02*
X131125000Y-107987500I0J62500D01*
G01*
X131125000Y-107312500D01*
G75*
G02*
X131187500Y-107250000I62500J0D01*
G01*
X131312500Y-107250000D01*
G75*
G02*
X131375000Y-107312500I0J-62500D01*
G01*
X131375000Y-107987500D01*
G75*
G02*
X131312500Y-108050000I-62500J0D01*
G01*
G37*
G04 #@! TD.AperFunction*
G04 #@! TA.AperFunction,SMDPad,CuDef*
G36*
G01*
X131812500Y-108050000D02*
X131687500Y-108050000D01*
G75*
G02*
X131625000Y-107987500I0J62500D01*
G01*
X131625000Y-107312500D01*
G75*
G02*
X131687500Y-107250000I62500J0D01*
G01*
X131812500Y-107250000D01*
G75*
G02*
X131875000Y-107312500I0J-62500D01*
G01*
X131875000Y-107987500D01*
G75*
G02*
X131812500Y-108050000I-62500J0D01*
G01*
G37*
G04 #@! TD.AperFunction*
G04 #@! TA.AperFunction,SMDPad,CuDef*
G36*
G01*
X132312500Y-108050000D02*
X132187500Y-108050000D01*
G75*
G02*
X132125000Y-107987500I0J62500D01*
G01*
X132125000Y-107312500D01*
G75*
G02*
X132187500Y-107250000I62500J0D01*
G01*
X132312500Y-107250000D01*
G75*
G02*
X132375000Y-107312500I0J-62500D01*
G01*
X132375000Y-107987500D01*
G75*
G02*
X132312500Y-108050000I-62500J0D01*
G01*
G37*
G04 #@! TD.AperFunction*
G04 #@! TA.AperFunction,SMDPad,CuDef*
G36*
G01*
X132812500Y-108050000D02*
X132687500Y-108050000D01*
G75*
G02*
X132625000Y-107987500I0J62500D01*
G01*
X132625000Y-107312500D01*
G75*
G02*
X132687500Y-107250000I62500J0D01*
G01*
X132812500Y-107250000D01*
G75*
G02*
X132875000Y-107312500I0J-62500D01*
G01*
X132875000Y-107987500D01*
G75*
G02*
X132812500Y-108050000I-62500J0D01*
G01*
G37*
G04 #@! TD.AperFunction*
G04 #@! TA.AperFunction,SMDPad,CuDef*
G36*
G01*
X133312500Y-108050000D02*
X133187500Y-108050000D01*
G75*
G02*
X133125000Y-107987500I0J62500D01*
G01*
X133125000Y-107312500D01*
G75*
G02*
X133187500Y-107250000I62500J0D01*
G01*
X133312500Y-107250000D01*
G75*
G02*
X133375000Y-107312500I0J-62500D01*
G01*
X133375000Y-107987500D01*
G75*
G02*
X133312500Y-108050000I-62500J0D01*
G01*
G37*
G04 #@! TD.AperFunction*
G04 #@! TA.AperFunction,SMDPad,CuDef*
G36*
G01*
X133812500Y-108050000D02*
X133687500Y-108050000D01*
G75*
G02*
X133625000Y-107987500I0J62500D01*
G01*
X133625000Y-107312500D01*
G75*
G02*
X133687500Y-107250000I62500J0D01*
G01*
X133812500Y-107250000D01*
G75*
G02*
X133875000Y-107312500I0J-62500D01*
G01*
X133875000Y-107987500D01*
G75*
G02*
X133812500Y-108050000I-62500J0D01*
G01*
G37*
G04 #@! TD.AperFunction*
G04 #@! TA.AperFunction,SMDPad,CuDef*
G36*
G01*
X134312500Y-108050000D02*
X134187500Y-108050000D01*
G75*
G02*
X134125000Y-107987500I0J62500D01*
G01*
X134125000Y-107312500D01*
G75*
G02*
X134187500Y-107250000I62500J0D01*
G01*
X134312500Y-107250000D01*
G75*
G02*
X134375000Y-107312500I0J-62500D01*
G01*
X134375000Y-107987500D01*
G75*
G02*
X134312500Y-108050000I-62500J0D01*
G01*
G37*
G04 #@! TD.AperFunction*
G04 #@! TA.AperFunction,SMDPad,CuDef*
G36*
G01*
X135287500Y-107075000D02*
X134612500Y-107075000D01*
G75*
G02*
X134550000Y-107012500I0J62500D01*
G01*
X134550000Y-106887500D01*
G75*
G02*
X134612500Y-106825000I62500J0D01*
G01*
X135287500Y-106825000D01*
G75*
G02*
X135350000Y-106887500I0J-62500D01*
G01*
X135350000Y-107012500D01*
G75*
G02*
X135287500Y-107075000I-62500J0D01*
G01*
G37*
G04 #@! TD.AperFunction*
G04 #@! TA.AperFunction,SMDPad,CuDef*
G36*
G01*
X135287500Y-106575000D02*
X134612500Y-106575000D01*
G75*
G02*
X134550000Y-106512500I0J62500D01*
G01*
X134550000Y-106387500D01*
G75*
G02*
X134612500Y-106325000I62500J0D01*
G01*
X135287500Y-106325000D01*
G75*
G02*
X135350000Y-106387500I0J-62500D01*
G01*
X135350000Y-106512500D01*
G75*
G02*
X135287500Y-106575000I-62500J0D01*
G01*
G37*
G04 #@! TD.AperFunction*
G04 #@! TA.AperFunction,SMDPad,CuDef*
G36*
G01*
X135287500Y-106075000D02*
X134612500Y-106075000D01*
G75*
G02*
X134550000Y-106012500I0J62500D01*
G01*
X134550000Y-105887500D01*
G75*
G02*
X134612500Y-105825000I62500J0D01*
G01*
X135287500Y-105825000D01*
G75*
G02*
X135350000Y-105887500I0J-62500D01*
G01*
X135350000Y-106012500D01*
G75*
G02*
X135287500Y-106075000I-62500J0D01*
G01*
G37*
G04 #@! TD.AperFunction*
G04 #@! TA.AperFunction,SMDPad,CuDef*
G36*
G01*
X135287500Y-105575000D02*
X134612500Y-105575000D01*
G75*
G02*
X134550000Y-105512500I0J62500D01*
G01*
X134550000Y-105387500D01*
G75*
G02*
X134612500Y-105325000I62500J0D01*
G01*
X135287500Y-105325000D01*
G75*
G02*
X135350000Y-105387500I0J-62500D01*
G01*
X135350000Y-105512500D01*
G75*
G02*
X135287500Y-105575000I-62500J0D01*
G01*
G37*
G04 #@! TD.AperFunction*
G04 #@! TA.AperFunction,SMDPad,CuDef*
G36*
G01*
X135287500Y-105075000D02*
X134612500Y-105075000D01*
G75*
G02*
X134550000Y-105012500I0J62500D01*
G01*
X134550000Y-104887500D01*
G75*
G02*
X134612500Y-104825000I62500J0D01*
G01*
X135287500Y-104825000D01*
G75*
G02*
X135350000Y-104887500I0J-62500D01*
G01*
X135350000Y-105012500D01*
G75*
G02*
X135287500Y-105075000I-62500J0D01*
G01*
G37*
G04 #@! TD.AperFunction*
G04 #@! TA.AperFunction,SMDPad,CuDef*
G36*
G01*
X135287500Y-104575000D02*
X134612500Y-104575000D01*
G75*
G02*
X134550000Y-104512500I0J62500D01*
G01*
X134550000Y-104387500D01*
G75*
G02*
X134612500Y-104325000I62500J0D01*
G01*
X135287500Y-104325000D01*
G75*
G02*
X135350000Y-104387500I0J-62500D01*
G01*
X135350000Y-104512500D01*
G75*
G02*
X135287500Y-104575000I-62500J0D01*
G01*
G37*
G04 #@! TD.AperFunction*
G04 #@! TA.AperFunction,SMDPad,CuDef*
G36*
G01*
X135287500Y-104075000D02*
X134612500Y-104075000D01*
G75*
G02*
X134550000Y-104012500I0J62500D01*
G01*
X134550000Y-103887500D01*
G75*
G02*
X134612500Y-103825000I62500J0D01*
G01*
X135287500Y-103825000D01*
G75*
G02*
X135350000Y-103887500I0J-62500D01*
G01*
X135350000Y-104012500D01*
G75*
G02*
X135287500Y-104075000I-62500J0D01*
G01*
G37*
G04 #@! TD.AperFunction*
G04 #@! TA.AperFunction,SMDPad,CuDef*
G36*
G01*
X135287500Y-103575000D02*
X134612500Y-103575000D01*
G75*
G02*
X134550000Y-103512500I0J62500D01*
G01*
X134550000Y-103387500D01*
G75*
G02*
X134612500Y-103325000I62500J0D01*
G01*
X135287500Y-103325000D01*
G75*
G02*
X135350000Y-103387500I0J-62500D01*
G01*
X135350000Y-103512500D01*
G75*
G02*
X135287500Y-103575000I-62500J0D01*
G01*
G37*
G04 #@! TD.AperFunction*
G04 #@! TA.AperFunction,SMDPad,CuDef*
G36*
G01*
X135287500Y-103075000D02*
X134612500Y-103075000D01*
G75*
G02*
X134550000Y-103012500I0J62500D01*
G01*
X134550000Y-102887500D01*
G75*
G02*
X134612500Y-102825000I62500J0D01*
G01*
X135287500Y-102825000D01*
G75*
G02*
X135350000Y-102887500I0J-62500D01*
G01*
X135350000Y-103012500D01*
G75*
G02*
X135287500Y-103075000I-62500J0D01*
G01*
G37*
G04 #@! TD.AperFunction*
G04 #@! TA.AperFunction,SMDPad,CuDef*
G36*
G01*
X135287500Y-102575000D02*
X134612500Y-102575000D01*
G75*
G02*
X134550000Y-102512500I0J62500D01*
G01*
X134550000Y-102387500D01*
G75*
G02*
X134612500Y-102325000I62500J0D01*
G01*
X135287500Y-102325000D01*
G75*
G02*
X135350000Y-102387500I0J-62500D01*
G01*
X135350000Y-102512500D01*
G75*
G02*
X135287500Y-102575000I-62500J0D01*
G01*
G37*
G04 #@! TD.AperFunction*
G04 #@! TA.AperFunction,SMDPad,CuDef*
G36*
G01*
X135287500Y-102075000D02*
X134612500Y-102075000D01*
G75*
G02*
X134550000Y-102012500I0J62500D01*
G01*
X134550000Y-101887500D01*
G75*
G02*
X134612500Y-101825000I62500J0D01*
G01*
X135287500Y-101825000D01*
G75*
G02*
X135350000Y-101887500I0J-62500D01*
G01*
X135350000Y-102012500D01*
G75*
G02*
X135287500Y-102075000I-62500J0D01*
G01*
G37*
G04 #@! TD.AperFunction*
G04 #@! TA.AperFunction,SMDPad,CuDef*
G36*
G01*
X135287500Y-101575000D02*
X134612500Y-101575000D01*
G75*
G02*
X134550000Y-101512500I0J62500D01*
G01*
X134550000Y-101387500D01*
G75*
G02*
X134612500Y-101325000I62500J0D01*
G01*
X135287500Y-101325000D01*
G75*
G02*
X135350000Y-101387500I0J-62500D01*
G01*
X135350000Y-101512500D01*
G75*
G02*
X135287500Y-101575000I-62500J0D01*
G01*
G37*
G04 #@! TD.AperFunction*
G04 #@! TA.AperFunction,SMDPad,CuDef*
G36*
G01*
X134312500Y-101150000D02*
X134187500Y-101150000D01*
G75*
G02*
X134125000Y-101087500I0J62500D01*
G01*
X134125000Y-100412500D01*
G75*
G02*
X134187500Y-100350000I62500J0D01*
G01*
X134312500Y-100350000D01*
G75*
G02*
X134375000Y-100412500I0J-62500D01*
G01*
X134375000Y-101087500D01*
G75*
G02*
X134312500Y-101150000I-62500J0D01*
G01*
G37*
G04 #@! TD.AperFunction*
G04 #@! TA.AperFunction,SMDPad,CuDef*
G36*
G01*
X133812500Y-101150000D02*
X133687500Y-101150000D01*
G75*
G02*
X133625000Y-101087500I0J62500D01*
G01*
X133625000Y-100412500D01*
G75*
G02*
X133687500Y-100350000I62500J0D01*
G01*
X133812500Y-100350000D01*
G75*
G02*
X133875000Y-100412500I0J-62500D01*
G01*
X133875000Y-101087500D01*
G75*
G02*
X133812500Y-101150000I-62500J0D01*
G01*
G37*
G04 #@! TD.AperFunction*
G04 #@! TA.AperFunction,SMDPad,CuDef*
G36*
G01*
X133312500Y-101150000D02*
X133187500Y-101150000D01*
G75*
G02*
X133125000Y-101087500I0J62500D01*
G01*
X133125000Y-100412500D01*
G75*
G02*
X133187500Y-100350000I62500J0D01*
G01*
X133312500Y-100350000D01*
G75*
G02*
X133375000Y-100412500I0J-62500D01*
G01*
X133375000Y-101087500D01*
G75*
G02*
X133312500Y-101150000I-62500J0D01*
G01*
G37*
G04 #@! TD.AperFunction*
G04 #@! TA.AperFunction,SMDPad,CuDef*
G36*
G01*
X132812500Y-101150000D02*
X132687500Y-101150000D01*
G75*
G02*
X132625000Y-101087500I0J62500D01*
G01*
X132625000Y-100412500D01*
G75*
G02*
X132687500Y-100350000I62500J0D01*
G01*
X132812500Y-100350000D01*
G75*
G02*
X132875000Y-100412500I0J-62500D01*
G01*
X132875000Y-101087500D01*
G75*
G02*
X132812500Y-101150000I-62500J0D01*
G01*
G37*
G04 #@! TD.AperFunction*
G04 #@! TA.AperFunction,SMDPad,CuDef*
G36*
G01*
X132312500Y-101150000D02*
X132187500Y-101150000D01*
G75*
G02*
X132125000Y-101087500I0J62500D01*
G01*
X132125000Y-100412500D01*
G75*
G02*
X132187500Y-100350000I62500J0D01*
G01*
X132312500Y-100350000D01*
G75*
G02*
X132375000Y-100412500I0J-62500D01*
G01*
X132375000Y-101087500D01*
G75*
G02*
X132312500Y-101150000I-62500J0D01*
G01*
G37*
G04 #@! TD.AperFunction*
G04 #@! TA.AperFunction,SMDPad,CuDef*
G36*
G01*
X131812500Y-101150000D02*
X131687500Y-101150000D01*
G75*
G02*
X131625000Y-101087500I0J62500D01*
G01*
X131625000Y-100412500D01*
G75*
G02*
X131687500Y-100350000I62500J0D01*
G01*
X131812500Y-100350000D01*
G75*
G02*
X131875000Y-100412500I0J-62500D01*
G01*
X131875000Y-101087500D01*
G75*
G02*
X131812500Y-101150000I-62500J0D01*
G01*
G37*
G04 #@! TD.AperFunction*
G04 #@! TA.AperFunction,SMDPad,CuDef*
G36*
G01*
X131312500Y-101150000D02*
X131187500Y-101150000D01*
G75*
G02*
X131125000Y-101087500I0J62500D01*
G01*
X131125000Y-100412500D01*
G75*
G02*
X131187500Y-100350000I62500J0D01*
G01*
X131312500Y-100350000D01*
G75*
G02*
X131375000Y-100412500I0J-62500D01*
G01*
X131375000Y-101087500D01*
G75*
G02*
X131312500Y-101150000I-62500J0D01*
G01*
G37*
G04 #@! TD.AperFunction*
G04 #@! TA.AperFunction,SMDPad,CuDef*
G36*
G01*
X130812500Y-101150000D02*
X130687500Y-101150000D01*
G75*
G02*
X130625000Y-101087500I0J62500D01*
G01*
X130625000Y-100412500D01*
G75*
G02*
X130687500Y-100350000I62500J0D01*
G01*
X130812500Y-100350000D01*
G75*
G02*
X130875000Y-100412500I0J-62500D01*
G01*
X130875000Y-101087500D01*
G75*
G02*
X130812500Y-101150000I-62500J0D01*
G01*
G37*
G04 #@! TD.AperFunction*
G04 #@! TA.AperFunction,SMDPad,CuDef*
G36*
G01*
X130312500Y-101150000D02*
X130187500Y-101150000D01*
G75*
G02*
X130125000Y-101087500I0J62500D01*
G01*
X130125000Y-100412500D01*
G75*
G02*
X130187500Y-100350000I62500J0D01*
G01*
X130312500Y-100350000D01*
G75*
G02*
X130375000Y-100412500I0J-62500D01*
G01*
X130375000Y-101087500D01*
G75*
G02*
X130312500Y-101150000I-62500J0D01*
G01*
G37*
G04 #@! TD.AperFunction*
G04 #@! TA.AperFunction,SMDPad,CuDef*
G36*
G01*
X129812500Y-101150000D02*
X129687500Y-101150000D01*
G75*
G02*
X129625000Y-101087500I0J62500D01*
G01*
X129625000Y-100412500D01*
G75*
G02*
X129687500Y-100350000I62500J0D01*
G01*
X129812500Y-100350000D01*
G75*
G02*
X129875000Y-100412500I0J-62500D01*
G01*
X129875000Y-101087500D01*
G75*
G02*
X129812500Y-101150000I-62500J0D01*
G01*
G37*
G04 #@! TD.AperFunction*
G04 #@! TA.AperFunction,SMDPad,CuDef*
G36*
G01*
X129312500Y-101150000D02*
X129187500Y-101150000D01*
G75*
G02*
X129125000Y-101087500I0J62500D01*
G01*
X129125000Y-100412500D01*
G75*
G02*
X129187500Y-100350000I62500J0D01*
G01*
X129312500Y-100350000D01*
G75*
G02*
X129375000Y-100412500I0J-62500D01*
G01*
X129375000Y-101087500D01*
G75*
G02*
X129312500Y-101150000I-62500J0D01*
G01*
G37*
G04 #@! TD.AperFunction*
G04 #@! TA.AperFunction,SMDPad,CuDef*
G36*
G01*
X128812500Y-101150000D02*
X128687500Y-101150000D01*
G75*
G02*
X128625000Y-101087500I0J62500D01*
G01*
X128625000Y-100412500D01*
G75*
G02*
X128687500Y-100350000I62500J0D01*
G01*
X128812500Y-100350000D01*
G75*
G02*
X128875000Y-100412500I0J-62500D01*
G01*
X128875000Y-101087500D01*
G75*
G02*
X128812500Y-101150000I-62500J0D01*
G01*
G37*
G04 #@! TD.AperFunction*
G04 #@! TA.AperFunction,SMDPad,CuDef*
G36*
G01*
X128387500Y-101575000D02*
X127712500Y-101575000D01*
G75*
G02*
X127650000Y-101512500I0J62500D01*
G01*
X127650000Y-101387500D01*
G75*
G02*
X127712500Y-101325000I62500J0D01*
G01*
X128387500Y-101325000D01*
G75*
G02*
X128450000Y-101387500I0J-62500D01*
G01*
X128450000Y-101512500D01*
G75*
G02*
X128387500Y-101575000I-62500J0D01*
G01*
G37*
G04 #@! TD.AperFunction*
G04 #@! TA.AperFunction,SMDPad,CuDef*
G36*
G01*
X128387500Y-102075000D02*
X127712500Y-102075000D01*
G75*
G02*
X127650000Y-102012500I0J62500D01*
G01*
X127650000Y-101887500D01*
G75*
G02*
X127712500Y-101825000I62500J0D01*
G01*
X128387500Y-101825000D01*
G75*
G02*
X128450000Y-101887500I0J-62500D01*
G01*
X128450000Y-102012500D01*
G75*
G02*
X128387500Y-102075000I-62500J0D01*
G01*
G37*
G04 #@! TD.AperFunction*
G04 #@! TA.AperFunction,SMDPad,CuDef*
G36*
G01*
X128387500Y-102575000D02*
X127712500Y-102575000D01*
G75*
G02*
X127650000Y-102512500I0J62500D01*
G01*
X127650000Y-102387500D01*
G75*
G02*
X127712500Y-102325000I62500J0D01*
G01*
X128387500Y-102325000D01*
G75*
G02*
X128450000Y-102387500I0J-62500D01*
G01*
X128450000Y-102512500D01*
G75*
G02*
X128387500Y-102575000I-62500J0D01*
G01*
G37*
G04 #@! TD.AperFunction*
G04 #@! TA.AperFunction,SMDPad,CuDef*
G36*
G01*
X128387500Y-103075000D02*
X127712500Y-103075000D01*
G75*
G02*
X127650000Y-103012500I0J62500D01*
G01*
X127650000Y-102887500D01*
G75*
G02*
X127712500Y-102825000I62500J0D01*
G01*
X128387500Y-102825000D01*
G75*
G02*
X128450000Y-102887500I0J-62500D01*
G01*
X128450000Y-103012500D01*
G75*
G02*
X128387500Y-103075000I-62500J0D01*
G01*
G37*
G04 #@! TD.AperFunction*
G04 #@! TA.AperFunction,SMDPad,CuDef*
G36*
G01*
X128387500Y-103575000D02*
X127712500Y-103575000D01*
G75*
G02*
X127650000Y-103512500I0J62500D01*
G01*
X127650000Y-103387500D01*
G75*
G02*
X127712500Y-103325000I62500J0D01*
G01*
X128387500Y-103325000D01*
G75*
G02*
X128450000Y-103387500I0J-62500D01*
G01*
X128450000Y-103512500D01*
G75*
G02*
X128387500Y-103575000I-62500J0D01*
G01*
G37*
G04 #@! TD.AperFunction*
G04 #@! TA.AperFunction,SMDPad,CuDef*
G36*
G01*
X128387500Y-104075000D02*
X127712500Y-104075000D01*
G75*
G02*
X127650000Y-104012500I0J62500D01*
G01*
X127650000Y-103887500D01*
G75*
G02*
X127712500Y-103825000I62500J0D01*
G01*
X128387500Y-103825000D01*
G75*
G02*
X128450000Y-103887500I0J-62500D01*
G01*
X128450000Y-104012500D01*
G75*
G02*
X128387500Y-104075000I-62500J0D01*
G01*
G37*
G04 #@! TD.AperFunction*
G04 #@! TA.AperFunction,SMDPad,CuDef*
G36*
G01*
X128387500Y-104575000D02*
X127712500Y-104575000D01*
G75*
G02*
X127650000Y-104512500I0J62500D01*
G01*
X127650000Y-104387500D01*
G75*
G02*
X127712500Y-104325000I62500J0D01*
G01*
X128387500Y-104325000D01*
G75*
G02*
X128450000Y-104387500I0J-62500D01*
G01*
X128450000Y-104512500D01*
G75*
G02*
X128387500Y-104575000I-62500J0D01*
G01*
G37*
G04 #@! TD.AperFunction*
G04 #@! TA.AperFunction,SMDPad,CuDef*
G36*
G01*
X128387500Y-105075000D02*
X127712500Y-105075000D01*
G75*
G02*
X127650000Y-105012500I0J62500D01*
G01*
X127650000Y-104887500D01*
G75*
G02*
X127712500Y-104825000I62500J0D01*
G01*
X128387500Y-104825000D01*
G75*
G02*
X128450000Y-104887500I0J-62500D01*
G01*
X128450000Y-105012500D01*
G75*
G02*
X128387500Y-105075000I-62500J0D01*
G01*
G37*
G04 #@! TD.AperFunction*
G04 #@! TA.AperFunction,SMDPad,CuDef*
G36*
G01*
X128387500Y-105575000D02*
X127712500Y-105575000D01*
G75*
G02*
X127650000Y-105512500I0J62500D01*
G01*
X127650000Y-105387500D01*
G75*
G02*
X127712500Y-105325000I62500J0D01*
G01*
X128387500Y-105325000D01*
G75*
G02*
X128450000Y-105387500I0J-62500D01*
G01*
X128450000Y-105512500D01*
G75*
G02*
X128387500Y-105575000I-62500J0D01*
G01*
G37*
G04 #@! TD.AperFunction*
G04 #@! TA.AperFunction,SMDPad,CuDef*
G36*
G01*
X128387500Y-106075000D02*
X127712500Y-106075000D01*
G75*
G02*
X127650000Y-106012500I0J62500D01*
G01*
X127650000Y-105887500D01*
G75*
G02*
X127712500Y-105825000I62500J0D01*
G01*
X128387500Y-105825000D01*
G75*
G02*
X128450000Y-105887500I0J-62500D01*
G01*
X128450000Y-106012500D01*
G75*
G02*
X128387500Y-106075000I-62500J0D01*
G01*
G37*
G04 #@! TD.AperFunction*
G04 #@! TA.AperFunction,SMDPad,CuDef*
G36*
G01*
X128387500Y-106575000D02*
X127712500Y-106575000D01*
G75*
G02*
X127650000Y-106512500I0J62500D01*
G01*
X127650000Y-106387500D01*
G75*
G02*
X127712500Y-106325000I62500J0D01*
G01*
X128387500Y-106325000D01*
G75*
G02*
X128450000Y-106387500I0J-62500D01*
G01*
X128450000Y-106512500D01*
G75*
G02*
X128387500Y-106575000I-62500J0D01*
G01*
G37*
G04 #@! TD.AperFunction*
G04 #@! TA.AperFunction,SMDPad,CuDef*
G36*
G01*
X128387500Y-107075000D02*
X127712500Y-107075000D01*
G75*
G02*
X127650000Y-107012500I0J62500D01*
G01*
X127650000Y-106887500D01*
G75*
G02*
X127712500Y-106825000I62500J0D01*
G01*
X128387500Y-106825000D01*
G75*
G02*
X128450000Y-106887500I0J-62500D01*
G01*
X128450000Y-107012500D01*
G75*
G02*
X128387500Y-107075000I-62500J0D01*
G01*
G37*
G04 #@! TD.AperFunction*
G04 #@! TA.AperFunction,SMDPad,CuDef*
G36*
G01*
X117510000Y-106177500D02*
X117510000Y-106522500D01*
G75*
G02*
X117362500Y-106670000I-147500J0D01*
G01*
X117067500Y-106670000D01*
G75*
G02*
X116920000Y-106522500I0J147500D01*
G01*
X116920000Y-106177500D01*
G75*
G02*
X117067500Y-106030000I147500J0D01*
G01*
X117362500Y-106030000D01*
G75*
G02*
X117510000Y-106177500I0J-147500D01*
G01*
G37*
G04 #@! TD.AperFunction*
G04 #@! TA.AperFunction,SMDPad,CuDef*
G36*
G01*
X118480000Y-106177500D02*
X118480000Y-106522500D01*
G75*
G02*
X118332500Y-106670000I-147500J0D01*
G01*
X118037500Y-106670000D01*
G75*
G02*
X117890000Y-106522500I0J147500D01*
G01*
X117890000Y-106177500D01*
G75*
G02*
X118037500Y-106030000I147500J0D01*
G01*
X118332500Y-106030000D01*
G75*
G02*
X118480000Y-106177500I0J-147500D01*
G01*
G37*
G04 #@! TD.AperFunction*
G04 #@! TA.AperFunction,SMDPad,CuDef*
G36*
G01*
X116920000Y-107872500D02*
X116920000Y-107527500D01*
G75*
G02*
X117067500Y-107380000I147500J0D01*
G01*
X117362500Y-107380000D01*
G75*
G02*
X117510000Y-107527500I0J-147500D01*
G01*
X117510000Y-107872500D01*
G75*
G02*
X117362500Y-108020000I-147500J0D01*
G01*
X117067500Y-108020000D01*
G75*
G02*
X116920000Y-107872500I0J147500D01*
G01*
G37*
G04 #@! TD.AperFunction*
G04 #@! TA.AperFunction,SMDPad,CuDef*
G36*
G01*
X117890000Y-107872500D02*
X117890000Y-107527500D01*
G75*
G02*
X118037500Y-107380000I147500J0D01*
G01*
X118332500Y-107380000D01*
G75*
G02*
X118480000Y-107527500I0J-147500D01*
G01*
X118480000Y-107872500D01*
G75*
G02*
X118332500Y-108020000I-147500J0D01*
G01*
X118037500Y-108020000D01*
G75*
G02*
X117890000Y-107872500I0J147500D01*
G01*
G37*
G04 #@! TD.AperFunction*
G04 #@! TA.AperFunction,SMDPad,CuDef*
G36*
G01*
X108844500Y-100617000D02*
X109189500Y-100617000D01*
G75*
G02*
X109337000Y-100764500I0J-147500D01*
G01*
X109337000Y-101059500D01*
G75*
G02*
X109189500Y-101207000I-147500J0D01*
G01*
X108844500Y-101207000D01*
G75*
G02*
X108697000Y-101059500I0J147500D01*
G01*
X108697000Y-100764500D01*
G75*
G02*
X108844500Y-100617000I147500J0D01*
G01*
G37*
G04 #@! TD.AperFunction*
G04 #@! TA.AperFunction,SMDPad,CuDef*
G36*
G01*
X108844500Y-101587000D02*
X109189500Y-101587000D01*
G75*
G02*
X109337000Y-101734500I0J-147500D01*
G01*
X109337000Y-102029500D01*
G75*
G02*
X109189500Y-102177000I-147500J0D01*
G01*
X108844500Y-102177000D01*
G75*
G02*
X108697000Y-102029500I0J147500D01*
G01*
X108697000Y-101734500D01*
G75*
G02*
X108844500Y-101587000I147500J0D01*
G01*
G37*
G04 #@! TD.AperFunction*
G04 #@! TA.AperFunction,SMDPad,CuDef*
G36*
G01*
X108173500Y-107280000D02*
X107828500Y-107280000D01*
G75*
G02*
X107681000Y-107132500I0J147500D01*
G01*
X107681000Y-106837500D01*
G75*
G02*
X107828500Y-106690000I147500J0D01*
G01*
X108173500Y-106690000D01*
G75*
G02*
X108321000Y-106837500I0J-147500D01*
G01*
X108321000Y-107132500D01*
G75*
G02*
X108173500Y-107280000I-147500J0D01*
G01*
G37*
G04 #@! TD.AperFunction*
G04 #@! TA.AperFunction,SMDPad,CuDef*
G36*
G01*
X108173500Y-108250000D02*
X107828500Y-108250000D01*
G75*
G02*
X107681000Y-108102500I0J147500D01*
G01*
X107681000Y-107807500D01*
G75*
G02*
X107828500Y-107660000I147500J0D01*
G01*
X108173500Y-107660000D01*
G75*
G02*
X108321000Y-107807500I0J-147500D01*
G01*
X108321000Y-108102500D01*
G75*
G02*
X108173500Y-108250000I-147500J0D01*
G01*
G37*
G04 #@! TD.AperFunction*
X100900000Y-108100000D03*
G04 #@! TA.AperFunction,SMDPad,CuDef*
G36*
G01*
X116505000Y-107527500D02*
X116505000Y-107872500D01*
G75*
G02*
X116357500Y-108020000I-147500J0D01*
G01*
X116062500Y-108020000D01*
G75*
G02*
X115915000Y-107872500I0J147500D01*
G01*
X115915000Y-107527500D01*
G75*
G02*
X116062500Y-107380000I147500J0D01*
G01*
X116357500Y-107380000D01*
G75*
G02*
X116505000Y-107527500I0J-147500D01*
G01*
G37*
G04 #@! TD.AperFunction*
G04 #@! TA.AperFunction,SMDPad,CuDef*
G36*
G01*
X115535000Y-107527500D02*
X115535000Y-107872500D01*
G75*
G02*
X115387500Y-108020000I-147500J0D01*
G01*
X115092500Y-108020000D01*
G75*
G02*
X114945000Y-107872500I0J147500D01*
G01*
X114945000Y-107527500D01*
G75*
G02*
X115092500Y-107380000I147500J0D01*
G01*
X115387500Y-107380000D01*
G75*
G02*
X115535000Y-107527500I0J-147500D01*
G01*
G37*
G04 #@! TD.AperFunction*
G04 #@! TA.AperFunction,SMDPad,CuDef*
G36*
G01*
X125427500Y-102190000D02*
X125772500Y-102190000D01*
G75*
G02*
X125920000Y-102337500I0J-147500D01*
G01*
X125920000Y-102632500D01*
G75*
G02*
X125772500Y-102780000I-147500J0D01*
G01*
X125427500Y-102780000D01*
G75*
G02*
X125280000Y-102632500I0J147500D01*
G01*
X125280000Y-102337500D01*
G75*
G02*
X125427500Y-102190000I147500J0D01*
G01*
G37*
G04 #@! TD.AperFunction*
G04 #@! TA.AperFunction,SMDPad,CuDef*
G36*
G01*
X125427500Y-101220000D02*
X125772500Y-101220000D01*
G75*
G02*
X125920000Y-101367500I0J-147500D01*
G01*
X125920000Y-101662500D01*
G75*
G02*
X125772500Y-101810000I-147500J0D01*
G01*
X125427500Y-101810000D01*
G75*
G02*
X125280000Y-101662500I0J147500D01*
G01*
X125280000Y-101367500D01*
G75*
G02*
X125427500Y-101220000I147500J0D01*
G01*
G37*
G04 #@! TD.AperFunction*
G04 #@! TA.AperFunction,SMDPad,CuDef*
G36*
G01*
X136827500Y-106105000D02*
X137172500Y-106105000D01*
G75*
G02*
X137320000Y-106252500I0J-147500D01*
G01*
X137320000Y-106547500D01*
G75*
G02*
X137172500Y-106695000I-147500J0D01*
G01*
X136827500Y-106695000D01*
G75*
G02*
X136680000Y-106547500I0J147500D01*
G01*
X136680000Y-106252500D01*
G75*
G02*
X136827500Y-106105000I147500J0D01*
G01*
G37*
G04 #@! TD.AperFunction*
G04 #@! TA.AperFunction,SMDPad,CuDef*
G36*
G01*
X136827500Y-107075000D02*
X137172500Y-107075000D01*
G75*
G02*
X137320000Y-107222500I0J-147500D01*
G01*
X137320000Y-107517500D01*
G75*
G02*
X137172500Y-107665000I-147500J0D01*
G01*
X136827500Y-107665000D01*
G75*
G02*
X136680000Y-107517500I0J147500D01*
G01*
X136680000Y-107222500D01*
G75*
G02*
X136827500Y-107075000I147500J0D01*
G01*
G37*
G04 #@! TD.AperFunction*
G04 #@! TA.AperFunction,SMDPad,CuDef*
G36*
G01*
X113929000Y-107872500D02*
X113929000Y-107527500D01*
G75*
G02*
X114076500Y-107380000I147500J0D01*
G01*
X114371500Y-107380000D01*
G75*
G02*
X114519000Y-107527500I0J-147500D01*
G01*
X114519000Y-107872500D01*
G75*
G02*
X114371500Y-108020000I-147500J0D01*
G01*
X114076500Y-108020000D01*
G75*
G02*
X113929000Y-107872500I0J147500D01*
G01*
G37*
G04 #@! TD.AperFunction*
G04 #@! TA.AperFunction,SMDPad,CuDef*
G36*
G01*
X112959000Y-107872500D02*
X112959000Y-107527500D01*
G75*
G02*
X113106500Y-107380000I147500J0D01*
G01*
X113401500Y-107380000D01*
G75*
G02*
X113549000Y-107527500I0J-147500D01*
G01*
X113549000Y-107872500D01*
G75*
G02*
X113401500Y-108020000I-147500J0D01*
G01*
X113106500Y-108020000D01*
G75*
G02*
X112959000Y-107872500I0J147500D01*
G01*
G37*
G04 #@! TD.AperFunction*
G04 #@! TA.AperFunction,SMDPad,CuDef*
G36*
G01*
X108364000Y-104617500D02*
X108364000Y-104272500D01*
G75*
G02*
X108511500Y-104125000I147500J0D01*
G01*
X108806500Y-104125000D01*
G75*
G02*
X108954000Y-104272500I0J-147500D01*
G01*
X108954000Y-104617500D01*
G75*
G02*
X108806500Y-104765000I-147500J0D01*
G01*
X108511500Y-104765000D01*
G75*
G02*
X108364000Y-104617500I0J147500D01*
G01*
G37*
G04 #@! TD.AperFunction*
G04 #@! TA.AperFunction,SMDPad,CuDef*
G36*
G01*
X109334000Y-104617500D02*
X109334000Y-104272500D01*
G75*
G02*
X109481500Y-104125000I147500J0D01*
G01*
X109776500Y-104125000D01*
G75*
G02*
X109924000Y-104272500I0J-147500D01*
G01*
X109924000Y-104617500D01*
G75*
G02*
X109776500Y-104765000I-147500J0D01*
G01*
X109481500Y-104765000D01*
G75*
G02*
X109334000Y-104617500I0J147500D01*
G01*
G37*
G04 #@! TD.AperFunction*
D19*
X137750000Y-103850000D03*
X136450000Y-103850000D03*
X137100000Y-101950000D03*
X137100000Y-103850000D03*
X136450000Y-101950000D03*
X137750000Y-101950000D03*
G04 #@! TA.AperFunction,SMDPad,CuDef*
G36*
G01*
X138127500Y-106105000D02*
X138472500Y-106105000D01*
G75*
G02*
X138620000Y-106252500I0J-147500D01*
G01*
X138620000Y-106547500D01*
G75*
G02*
X138472500Y-106695000I-147500J0D01*
G01*
X138127500Y-106695000D01*
G75*
G02*
X137980000Y-106547500I0J147500D01*
G01*
X137980000Y-106252500D01*
G75*
G02*
X138127500Y-106105000I147500J0D01*
G01*
G37*
G04 #@! TD.AperFunction*
G04 #@! TA.AperFunction,SMDPad,CuDef*
G36*
G01*
X138127500Y-107075000D02*
X138472500Y-107075000D01*
G75*
G02*
X138620000Y-107222500I0J-147500D01*
G01*
X138620000Y-107517500D01*
G75*
G02*
X138472500Y-107665000I-147500J0D01*
G01*
X138127500Y-107665000D01*
G75*
G02*
X137980000Y-107517500I0J147500D01*
G01*
X137980000Y-107222500D01*
G75*
G02*
X138127500Y-107075000I147500J0D01*
G01*
G37*
G04 #@! TD.AperFunction*
G04 #@! TA.AperFunction,SMDPad,CuDef*
G36*
G01*
X100340000Y-102585500D02*
X100340000Y-102240500D01*
G75*
G02*
X100487500Y-102093000I147500J0D01*
G01*
X100782500Y-102093000D01*
G75*
G02*
X100930000Y-102240500I0J-147500D01*
G01*
X100930000Y-102585500D01*
G75*
G02*
X100782500Y-102733000I-147500J0D01*
G01*
X100487500Y-102733000D01*
G75*
G02*
X100340000Y-102585500I0J147500D01*
G01*
G37*
G04 #@! TD.AperFunction*
G04 #@! TA.AperFunction,SMDPad,CuDef*
G36*
G01*
X101310000Y-102585500D02*
X101310000Y-102240500D01*
G75*
G02*
X101457500Y-102093000I147500J0D01*
G01*
X101752500Y-102093000D01*
G75*
G02*
X101900000Y-102240500I0J-147500D01*
G01*
X101900000Y-102585500D01*
G75*
G02*
X101752500Y-102733000I-147500J0D01*
G01*
X101457500Y-102733000D01*
G75*
G02*
X101310000Y-102585500I0J147500D01*
G01*
G37*
G04 #@! TD.AperFunction*
D20*
X116002000Y-102032000D03*
X111176000Y-103683000D03*
X117007500Y-104625000D03*
X115314976Y-104606155D03*
X110922000Y-101397000D03*
X122098000Y-105270500D03*
X132706500Y-105279500D03*
X131500000Y-105279500D03*
X121350000Y-106000000D03*
X131500000Y-103100000D03*
X130300000Y-103100000D03*
X132700000Y-103100000D03*
X120574000Y-105270500D03*
X120574000Y-106731000D03*
X122098000Y-106731000D03*
X130293500Y-105279500D03*
X132700000Y-104200000D03*
X112573000Y-102032000D03*
X117235023Y-105750000D03*
X138450000Y-105500000D03*
X130300000Y-104200000D03*
X114404012Y-105841302D03*
X102540000Y-102413000D03*
X105300000Y-105200000D03*
X106100000Y-105200000D03*
X110600000Y-105900000D03*
X131500000Y-104200000D03*
X105715000Y-104445000D03*
X101481883Y-104608660D03*
X139000000Y-102100000D03*
X126800000Y-100625000D03*
X107366000Y-100625010D03*
X110033000Y-101905000D03*
X126625000Y-107750000D03*
X137655500Y-102924970D03*
X136450000Y-102950000D03*
X125000000Y-106249998D03*
X102900000Y-107700000D03*
X125625000Y-105375000D03*
X111430000Y-108196168D03*
X136004500Y-106096000D03*
X112446000Y-103937000D03*
X108763000Y-103937000D03*
X103214998Y-103556000D03*
X127875000Y-107750000D03*
X135750500Y-107302500D03*
X116002000Y-114032000D03*
X111176000Y-115683000D03*
X117007500Y-116625000D03*
X115314976Y-116606155D03*
X110922000Y-113397000D03*
X122098000Y-117270500D03*
X132706500Y-117279500D03*
X131500000Y-117279500D03*
X121350000Y-118000000D03*
X131500000Y-115100000D03*
X130300000Y-115100000D03*
X132700000Y-115100000D03*
X120574000Y-117270500D03*
X120574000Y-118731000D03*
X122098000Y-118731000D03*
X130293500Y-117279500D03*
X132700000Y-116200000D03*
X112573000Y-114032000D03*
X117235023Y-117750000D03*
X138450000Y-117500000D03*
X130300000Y-116200000D03*
X114404012Y-117841302D03*
X102540000Y-114413000D03*
X105300000Y-117200000D03*
X106100000Y-117200000D03*
X110600000Y-117900000D03*
X131500000Y-116200000D03*
X105715000Y-116445000D03*
X101481883Y-116608660D03*
X139000000Y-114100000D03*
X126800000Y-112625000D03*
X107366000Y-112625010D03*
X110033000Y-113905000D03*
X126625000Y-119750000D03*
X137655500Y-114924970D03*
X136450000Y-114950000D03*
X125000000Y-118249998D03*
X102900000Y-119700000D03*
X125625000Y-117375000D03*
X111430000Y-120196168D03*
X136004500Y-118096000D03*
X112446000Y-115937000D03*
X108763000Y-115937000D03*
X103214998Y-115556000D03*
X127875000Y-119750000D03*
X135750500Y-119302500D03*
D21*
X139969500Y-106132000D02*
X139600000Y-105762500D01*
D22*
X142680500Y-105762500D02*
X139600000Y-105762500D01*
X143050000Y-106132000D02*
X142680500Y-105762500D01*
D21*
X111161000Y-104810000D02*
X111161000Y-103698000D01*
X111161000Y-103698000D02*
X111176000Y-103683000D01*
X119200000Y-103900000D02*
X119200000Y-104537500D01*
X111580000Y-105842000D02*
X111580000Y-105229000D01*
X120050000Y-103050000D02*
X120050000Y-101350000D01*
X119200000Y-103900000D02*
X120050000Y-103050000D01*
X119287500Y-104625000D02*
X119412500Y-104750000D01*
X115335000Y-104626179D02*
X115314976Y-104606155D01*
X115950000Y-102950000D02*
X115950000Y-102084000D01*
X116489995Y-103489995D02*
X115950000Y-102950000D01*
X119200000Y-104537500D02*
X119287500Y-104625000D01*
X115950000Y-102084000D02*
X116002000Y-102032000D01*
X111580000Y-105229000D02*
X111161000Y-104810000D01*
X115335000Y-105000000D02*
X115335000Y-104626179D01*
X116210000Y-107700000D02*
X116210000Y-107380000D01*
X116210000Y-107380000D02*
X116489995Y-107100005D01*
X112169000Y-106606400D02*
X111580000Y-106017400D01*
X118415000Y-105080000D02*
X118415000Y-104625000D01*
X117007500Y-104625000D02*
X116649990Y-104625000D01*
X111580000Y-106017400D02*
X111580000Y-105842000D01*
X116489995Y-104465005D02*
X116489995Y-103489995D01*
X118415000Y-104625000D02*
X119287500Y-104625000D01*
X119412500Y-105250000D02*
X119388000Y-105250000D01*
X119345000Y-105207000D02*
X118542000Y-105207000D01*
X119388000Y-105250000D02*
X119345000Y-105207000D01*
X116649990Y-104625000D02*
X116489995Y-104465005D01*
X112169000Y-106794500D02*
X112169000Y-106606400D01*
X116489995Y-107100005D02*
X116489995Y-104465005D01*
X118542000Y-105207000D02*
X118415000Y-105080000D01*
X118415000Y-104625000D02*
X117007500Y-104625000D01*
X115240000Y-107700000D02*
X114224000Y-107700000D01*
X113679002Y-107021998D02*
X113254000Y-107447000D01*
X113750000Y-101050000D02*
X114530000Y-101050000D01*
X113679002Y-104608998D02*
X113679002Y-107021998D01*
X114644989Y-101164989D02*
X114644989Y-103643011D01*
X114644989Y-103643011D02*
X113679002Y-104608998D01*
X114530000Y-101050000D02*
X114644989Y-101164989D01*
X113254000Y-107447000D02*
X113254000Y-107700000D01*
X111326000Y-101143000D02*
X111326000Y-101858002D01*
X111326000Y-102325000D02*
X111326000Y-101143000D01*
X113750000Y-102950000D02*
X111951000Y-102950000D01*
X112633990Y-108068222D02*
X112910778Y-108345010D01*
X112954000Y-108382000D02*
X116853000Y-108382000D01*
X111811000Y-102810000D02*
X111326000Y-102325000D01*
X111951000Y-102950000D02*
X111811000Y-102810000D01*
X113208000Y-106757768D02*
X112633990Y-107331778D01*
X112910778Y-108345010D02*
X112917010Y-108345010D01*
X112917010Y-108345010D02*
X112954000Y-108382000D01*
X111176000Y-101143000D02*
X110922000Y-101397000D01*
X117215000Y-108020000D02*
X117215000Y-107700000D01*
X113750000Y-102950000D02*
X113750000Y-103901590D01*
X111326000Y-101143000D02*
X111303000Y-101143000D01*
X113750000Y-103901590D02*
X113208000Y-104443590D01*
X111326000Y-101143000D02*
X111176000Y-101143000D01*
X112633990Y-107331778D02*
X112633990Y-108068222D01*
X116853000Y-108382000D02*
X117215000Y-108020000D01*
X113208000Y-104443590D02*
X113208000Y-106757768D01*
X138450000Y-105500000D02*
X138450000Y-106250000D01*
X122100000Y-104062500D02*
X122100000Y-105250000D01*
X117215000Y-105770023D02*
X117235023Y-105750000D01*
X117215000Y-106350000D02*
X117215000Y-105770023D01*
X122100000Y-105250000D02*
X121350000Y-106000000D01*
X122650000Y-102950000D02*
X122650000Y-101350000D01*
X114365000Y-106550000D02*
X114335000Y-106550000D01*
X114365000Y-106550000D02*
X114365000Y-105300000D01*
X122100000Y-103500000D02*
X122650000Y-102950000D01*
X139000000Y-103315000D02*
X139000000Y-102100000D01*
X138450000Y-106250000D02*
X138300000Y-106400000D01*
X122100000Y-104062500D02*
X122100000Y-103500000D01*
X145649990Y-108100000D02*
X145600000Y-108100000D01*
X108039000Y-104945000D02*
X108682000Y-105588000D01*
X110640010Y-100497990D02*
X111669222Y-100497990D01*
X109629000Y-104463232D02*
X109629000Y-104445000D01*
X102540000Y-102413000D02*
X101605000Y-102413000D01*
X110610999Y-106501499D02*
X110610999Y-105910999D01*
X101605000Y-102797000D02*
X101605000Y-102733000D01*
X109017000Y-100912000D02*
X110226000Y-100912000D01*
X105715000Y-104445000D02*
X105715000Y-104815000D01*
X105465000Y-102895000D02*
X105465000Y-104195000D01*
X101166000Y-103556000D02*
X101166000Y-104292777D01*
X101166000Y-104292777D02*
X101481883Y-104608660D01*
X110610999Y-105910999D02*
X110490200Y-105790200D01*
X110490200Y-105790200D02*
X110490200Y-105011200D01*
X105715000Y-104785000D02*
X105300000Y-105200000D01*
X139000000Y-102100000D02*
X139000000Y-101281000D01*
X105715000Y-104445000D02*
X105715000Y-104785000D01*
X112605000Y-102000000D02*
X112573000Y-102032000D01*
X112296000Y-101143000D02*
X112296000Y-101755000D01*
X105465000Y-105995000D02*
X105465000Y-104695000D01*
X107190000Y-104945000D02*
X106215000Y-104945000D01*
X108682000Y-105588000D02*
X108682000Y-105410232D01*
X110904000Y-106794500D02*
X110610999Y-106501499D01*
X101166000Y-103236000D02*
X101605000Y-102797000D01*
X108682000Y-105410232D02*
X109629000Y-104463232D01*
X101605000Y-102733000D02*
X101605000Y-102413000D01*
X104240000Y-104445000D02*
X105715000Y-104445000D01*
X110226000Y-100912000D02*
X110640010Y-100497990D01*
X110610999Y-105910999D02*
X110600000Y-105900000D01*
X111199000Y-106794500D02*
X110904000Y-106794500D01*
X112296000Y-101755000D02*
X112573000Y-102032000D01*
X113750000Y-102000000D02*
X112605000Y-102000000D01*
X105965000Y-102895000D02*
X105965000Y-104195000D01*
X111669222Y-100497990D02*
X112296000Y-101124768D01*
X105715000Y-104815000D02*
X106100000Y-105200000D01*
X105465000Y-104195000D02*
X105715000Y-104445000D01*
X105965000Y-105995000D02*
X106100000Y-105200000D01*
X110490200Y-105011200D02*
X109924000Y-104445000D01*
X106215000Y-104945000D02*
X105715000Y-104445000D01*
X112296000Y-101124768D02*
X112296000Y-101143000D01*
X101166000Y-103556000D02*
X101166000Y-103236000D01*
X109629000Y-103937000D02*
X110033000Y-103533000D01*
X109629000Y-104445000D02*
X109629000Y-103937000D01*
X105465000Y-104695000D02*
X105715000Y-104445000D01*
X107190000Y-104945000D02*
X108039000Y-104945000D01*
X109924000Y-104445000D02*
X109629000Y-104445000D01*
X105965000Y-104195000D02*
X105715000Y-104445000D01*
X139000000Y-101281000D02*
X138481000Y-100762000D01*
X138481000Y-100762000D02*
X137848500Y-100762000D01*
X129050000Y-102001978D02*
X129301978Y-101750000D01*
X107366000Y-100625010D02*
X107366000Y-100683500D01*
X134000000Y-102108200D02*
X134000000Y-103548002D01*
X129175989Y-106524011D02*
X128601978Y-105950000D01*
X135350000Y-103999990D02*
X135350000Y-103950000D01*
X128601978Y-105950000D02*
X128050000Y-105950000D01*
X128450000Y-101450000D02*
X128050000Y-101450000D01*
X129301978Y-106650000D02*
X129750000Y-107098022D01*
X130000000Y-106800000D02*
X130250000Y-107050000D01*
X129050000Y-104716800D02*
X128783200Y-104450000D01*
X129050000Y-106398022D02*
X129050000Y-104716800D01*
X126800000Y-101515000D02*
X126800000Y-100625000D01*
X109063998Y-102563000D02*
X109713000Y-102563000D01*
X108037999Y-103588999D02*
X109063998Y-102563000D01*
X107190000Y-103945000D02*
X107865000Y-103945000D01*
X130250000Y-107050000D02*
X130250000Y-107650000D01*
X135350000Y-103950000D02*
X134950000Y-103950000D01*
X129750000Y-107098022D02*
X129750000Y-107050000D01*
X129050000Y-102001978D02*
X128498022Y-101450000D01*
X128498022Y-104450000D02*
X128450000Y-104450000D01*
X128050000Y-104450000D02*
X128498022Y-104450000D01*
X136775001Y-106175001D02*
X136775001Y-105326979D01*
X137000000Y-106400000D02*
X136775001Y-106175001D01*
X128050000Y-101450000D02*
X126865000Y-101450000D01*
X107652990Y-100912000D02*
X107366000Y-100625010D01*
X108037999Y-103772001D02*
X108037999Y-103588999D01*
X107865000Y-103945000D02*
X108037999Y-103772001D01*
X128450000Y-104450000D02*
X128050000Y-104450000D01*
X110033000Y-102563000D02*
X110033000Y-101905000D01*
X128750000Y-107201978D02*
X129301978Y-106650000D01*
X129301978Y-106650000D02*
X129175989Y-106524011D01*
X134401998Y-103950000D02*
X134950000Y-103950000D01*
X129301978Y-101750000D02*
X133641800Y-101750000D01*
X133641800Y-101750000D02*
X134000000Y-102108200D01*
X134000000Y-103548002D02*
X134401998Y-103950000D01*
X128783200Y-104450000D02*
X128498022Y-104450000D01*
X129175989Y-106524011D02*
X129050000Y-106398022D01*
X129050000Y-104224000D02*
X129050000Y-102001978D01*
X128498022Y-104450000D02*
X128824000Y-104450000D01*
X109713000Y-102563000D02*
X110033000Y-102563000D01*
X128750000Y-107650000D02*
X128750000Y-107201978D01*
X129750000Y-107098022D02*
X129750000Y-107650000D01*
X129750000Y-107050000D02*
X130000000Y-106800000D01*
X136775001Y-105326979D02*
X135448012Y-103999990D01*
X128824000Y-104450000D02*
X129050000Y-104224000D01*
X128498022Y-101450000D02*
X128450000Y-101450000D01*
X126865000Y-101450000D02*
X126800000Y-101515000D01*
X135448012Y-103999990D02*
X135350000Y-103999990D01*
X107366000Y-100683500D02*
X106652500Y-101397000D01*
X108001000Y-100912000D02*
X107652990Y-100912000D01*
X121100000Y-104062500D02*
X121100000Y-103447000D01*
X121100000Y-103447000D02*
X120700000Y-103047000D01*
X120700000Y-103047000D02*
X120700000Y-101350000D01*
X121350000Y-103050000D02*
X121350000Y-101350000D01*
X121600000Y-103300000D02*
X121350000Y-103050000D01*
X121600000Y-104062500D02*
X121600000Y-103300000D01*
X107114500Y-107955000D02*
X106652500Y-107493000D01*
X105627490Y-108518010D02*
X104298160Y-108518010D01*
X103625001Y-105910001D02*
X102651000Y-104936000D01*
X102136000Y-104296000D02*
X102651000Y-104811000D01*
X102651000Y-104936000D02*
X102651000Y-104811000D01*
X109017000Y-107955000D02*
X108001000Y-107955000D01*
X104298160Y-108518010D02*
X103625001Y-107844851D01*
X103625001Y-107844851D02*
X103625001Y-105910001D01*
X106652500Y-107493000D02*
X105627490Y-108518010D01*
X102136000Y-103556000D02*
X102136000Y-104296000D01*
X108001000Y-107955000D02*
X107114500Y-107955000D01*
X134950000Y-101950000D02*
X136450000Y-101950000D01*
X137750000Y-104425000D02*
X137750000Y-103850000D01*
X134250000Y-107650000D02*
X134627501Y-108027501D01*
X137645010Y-107044990D02*
X137645010Y-104529990D01*
X137645010Y-104529990D02*
X137750000Y-104425000D01*
X134250000Y-107201978D02*
X134250000Y-107250000D01*
X134627501Y-108027501D02*
X136637499Y-108027501D01*
X133748022Y-106700000D02*
X134250000Y-107201978D01*
X136637499Y-108027501D02*
X137000000Y-107665000D01*
X134250000Y-107250000D02*
X134250000Y-107650000D01*
X138680000Y-104285000D02*
X138540000Y-104425000D01*
X132750000Y-107100000D02*
X133150000Y-106700000D01*
X132750000Y-107650000D02*
X132750000Y-107100000D01*
X139000000Y-104285000D02*
X138680000Y-104285000D01*
X138540000Y-104425000D02*
X137750000Y-104425000D01*
X137320000Y-107370000D02*
X137645010Y-107044990D01*
X137000000Y-107665000D02*
X137000000Y-107370000D01*
X137000000Y-107370000D02*
X137320000Y-107370000D01*
X133150000Y-106700000D02*
X133748022Y-106700000D01*
X128015000Y-102485000D02*
X128050000Y-102450000D01*
X126781768Y-102485000D02*
X125811768Y-101515000D01*
X126800000Y-102485000D02*
X128015000Y-102485000D01*
X126800000Y-102485000D02*
X126781768Y-102485000D01*
X125811768Y-101515000D02*
X125600000Y-101515000D01*
X123287500Y-106250000D02*
X123884433Y-106250000D01*
X126416000Y-106032002D02*
X126416000Y-103857232D01*
X123884433Y-106250000D02*
X124609432Y-106974999D01*
X127323232Y-102950000D02*
X127650000Y-102950000D01*
X127650000Y-102950000D02*
X128050000Y-102950000D01*
X126416000Y-103857232D02*
X127323232Y-102950000D01*
X125473003Y-106974999D02*
X126416000Y-106032002D01*
X124609432Y-106974999D02*
X125473003Y-106974999D01*
X126866011Y-106435987D02*
X126866011Y-104043632D01*
X127459643Y-103450000D02*
X127650000Y-103450000D01*
X123287500Y-106750000D02*
X123748022Y-106750000D01*
X126866011Y-104043632D02*
X127459643Y-103450000D01*
X124423032Y-107425009D02*
X125876989Y-107425009D01*
X123748022Y-106750000D02*
X124423032Y-107425009D01*
X127650000Y-103450000D02*
X128050000Y-103450000D01*
X125876989Y-107425009D02*
X126866011Y-106435987D01*
X137750000Y-102625000D02*
X137750000Y-102525000D01*
X137750000Y-102525000D02*
X137750000Y-101950000D01*
X137750000Y-102650000D02*
X137750000Y-102625000D01*
X126225001Y-108149999D02*
X126625000Y-107750000D01*
X123287500Y-107250000D02*
X123287500Y-107787500D01*
X137100000Y-103275000D02*
X137750000Y-102650000D01*
X137100000Y-103850000D02*
X137100000Y-103275000D01*
X123287500Y-107787500D02*
X123649999Y-108149999D01*
X123649999Y-108149999D02*
X126225001Y-108149999D01*
X137750000Y-102650000D02*
X137750000Y-102830470D01*
X137750000Y-102830470D02*
X137655500Y-102924970D01*
X137100000Y-101950000D02*
X137100000Y-102407484D01*
X124000002Y-105250000D02*
X125000000Y-106249998D01*
X136450000Y-102950000D02*
X136450000Y-103850000D01*
X136450000Y-103057484D02*
X136450000Y-103850000D01*
X137100000Y-102407484D02*
X136450000Y-103057484D01*
X123287500Y-105250000D02*
X124000002Y-105250000D01*
X100500000Y-100900000D02*
X100500000Y-102278000D01*
X100635000Y-102413000D02*
X100381000Y-102667000D01*
X100500000Y-102278000D02*
X100635000Y-102413000D01*
X100381000Y-105191000D02*
X100651000Y-105461000D01*
X100381000Y-102667000D02*
X100381000Y-105191000D01*
X138332500Y-107337500D02*
X138300000Y-107370000D01*
X129701978Y-108550000D02*
X129250000Y-108098022D01*
X137415000Y-108550000D02*
X129701978Y-108550000D01*
X138300000Y-107370000D02*
X138300000Y-107665000D01*
X138300000Y-107665000D02*
X137415000Y-108550000D01*
X129250000Y-108098022D02*
X129250000Y-108050000D01*
X129250000Y-108050000D02*
X129250000Y-107650000D01*
D22*
X139600000Y-107337500D02*
X138332500Y-107337500D01*
D21*
X125600000Y-102485000D02*
X125600000Y-105350000D01*
X102651000Y-107451000D02*
X102900000Y-107700000D01*
X125600000Y-105350000D02*
X125625000Y-105375000D01*
X102651000Y-106111000D02*
X102651000Y-107451000D01*
X115427184Y-103800000D02*
X115094999Y-103467815D01*
X115548002Y-103800000D02*
X115427184Y-103800000D01*
X115335000Y-106550000D02*
X116039986Y-105845014D01*
X116039986Y-104291984D02*
X115548002Y-103800000D01*
X116039986Y-105845014D02*
X116039986Y-104291984D01*
X115170000Y-101050000D02*
X115950000Y-101050000D01*
X115094999Y-103467815D02*
X115094999Y-101125001D01*
X115094999Y-101125001D02*
X115170000Y-101050000D01*
X104240000Y-106955500D02*
X104240000Y-105445000D01*
X104777500Y-107493000D02*
X104240000Y-106955500D01*
X109652000Y-105588000D02*
X109652000Y-106627000D01*
X109017000Y-106985000D02*
X109337000Y-106985000D01*
X109337000Y-106985000D02*
X109652000Y-106670000D01*
X108001000Y-106985000D02*
X108001000Y-106256000D01*
X109652000Y-106670000D02*
X109652000Y-106627000D01*
X108001000Y-106256000D02*
X107190000Y-105445000D01*
X109652000Y-106627000D02*
X110033000Y-107008000D01*
X109017000Y-106985000D02*
X108001000Y-106985000D01*
X135650500Y-106450000D02*
X136004500Y-106096000D01*
X110264000Y-108128000D02*
X111361832Y-108128000D01*
X111361832Y-108128000D02*
X111430000Y-108196168D01*
X134950000Y-106450000D02*
X135650500Y-106450000D01*
X120600000Y-104062500D02*
X120600000Y-103900000D01*
X120600000Y-103658200D02*
X120472400Y-103530600D01*
X120472400Y-103530600D02*
X120243800Y-103530600D01*
X120600000Y-104062500D02*
X120600000Y-104000000D01*
X120600000Y-104062500D02*
X120600000Y-103658200D01*
X120243800Y-103530600D02*
X120100000Y-103674400D01*
X120100000Y-103674400D02*
X120100000Y-104062500D01*
X103589998Y-103945000D02*
X103489999Y-104044999D01*
X103548000Y-104945000D02*
X103565000Y-104945000D01*
X103603998Y-103945000D02*
X104240000Y-103945000D01*
X112550000Y-104899000D02*
X112461000Y-104810000D01*
X103489999Y-104886999D02*
X103548000Y-104945000D01*
X112446000Y-104795000D02*
X112461000Y-104810000D01*
X112446000Y-103937000D02*
X112446000Y-104795000D01*
X103214998Y-103556000D02*
X103603998Y-103945000D01*
X107190000Y-104445000D02*
X108659000Y-104445000D01*
X112550000Y-105842000D02*
X112550000Y-104899000D01*
X103489999Y-104044999D02*
X103489999Y-104886999D01*
X104240000Y-103945000D02*
X103589998Y-103945000D01*
X108659000Y-104445000D02*
X108659000Y-104041000D01*
X108659000Y-104041000D02*
X108763000Y-103937000D01*
X103565000Y-104945000D02*
X104240000Y-104945000D01*
X104240000Y-101934500D02*
X104777500Y-101397000D01*
X104240000Y-103445000D02*
X104240000Y-101934500D01*
X108001000Y-101882000D02*
X109017000Y-101882000D01*
X108001000Y-101882000D02*
X108001000Y-102634000D01*
X108001000Y-102634000D02*
X107190000Y-103445000D01*
X137146500Y-100700000D02*
X137070000Y-100700000D01*
X137208500Y-100762000D02*
X137146500Y-100700000D01*
X135638000Y-100762000D02*
X137208500Y-100762000D01*
X134950000Y-101450000D02*
X135638000Y-100762000D01*
X126989000Y-108636000D02*
X127875000Y-107750000D01*
X118185000Y-107635000D02*
X118200000Y-107650000D01*
X118185000Y-108020000D02*
X118801000Y-108636000D01*
X118185000Y-107700000D02*
X118185000Y-106350000D01*
X118801000Y-108636000D02*
X126989000Y-108636000D01*
X134950000Y-106950000D02*
X135398000Y-106950000D01*
X118185000Y-107700000D02*
X118185000Y-108020000D01*
X135398000Y-106950000D02*
X135750500Y-107302500D01*
X139969500Y-118132000D02*
X139600000Y-117762500D01*
D22*
X142680500Y-117762500D02*
X139600000Y-117762500D01*
X143050000Y-118132000D02*
X142680500Y-117762500D01*
D21*
X111161000Y-116810000D02*
X111161000Y-115698000D01*
X111161000Y-115698000D02*
X111176000Y-115683000D01*
X119200000Y-115900000D02*
X119200000Y-116537500D01*
X111580000Y-117842000D02*
X111580000Y-117229000D01*
X120050000Y-115050000D02*
X120050000Y-113350000D01*
X119200000Y-115900000D02*
X120050000Y-115050000D01*
X119287500Y-116625000D02*
X119412500Y-116750000D01*
X115335000Y-116626179D02*
X115314976Y-116606155D01*
X115950000Y-114950000D02*
X115950000Y-114084000D01*
X116489995Y-115489995D02*
X115950000Y-114950000D01*
X119200000Y-116537500D02*
X119287500Y-116625000D01*
X115950000Y-114084000D02*
X116002000Y-114032000D01*
X111580000Y-117229000D02*
X111161000Y-116810000D01*
X115335000Y-117000000D02*
X115335000Y-116626179D01*
X116210000Y-119700000D02*
X116210000Y-119380000D01*
X116210000Y-119380000D02*
X116489995Y-119100005D01*
X112169000Y-118606400D02*
X111580000Y-118017400D01*
X118415000Y-117080000D02*
X118415000Y-116625000D01*
X117007500Y-116625000D02*
X116649990Y-116625000D01*
X111580000Y-118017400D02*
X111580000Y-117842000D01*
X116489995Y-116465005D02*
X116489995Y-115489995D01*
X118415000Y-116625000D02*
X119287500Y-116625000D01*
X119412500Y-117250000D02*
X119388000Y-117250000D01*
X119345000Y-117207000D02*
X118542000Y-117207000D01*
X119388000Y-117250000D02*
X119345000Y-117207000D01*
X116649990Y-116625000D02*
X116489995Y-116465005D01*
X112169000Y-118794500D02*
X112169000Y-118606400D01*
X116489995Y-119100005D02*
X116489995Y-116465005D01*
X118542000Y-117207000D02*
X118415000Y-117080000D01*
X118415000Y-116625000D02*
X117007500Y-116625000D01*
X115240000Y-119700000D02*
X114224000Y-119700000D01*
X113679002Y-119021998D02*
X113254000Y-119447000D01*
X113750000Y-113050000D02*
X114530000Y-113050000D01*
X113679002Y-116608998D02*
X113679002Y-119021998D01*
X114644989Y-113164989D02*
X114644989Y-115643011D01*
X114644989Y-115643011D02*
X113679002Y-116608998D01*
X114530000Y-113050000D02*
X114644989Y-113164989D01*
X113254000Y-119447000D02*
X113254000Y-119700000D01*
X111326000Y-113143000D02*
X111326000Y-113858002D01*
X111326000Y-114325000D02*
X111326000Y-113143000D01*
X113750000Y-114950000D02*
X111951000Y-114950000D01*
X112633990Y-120068222D02*
X112910778Y-120345010D01*
X112954000Y-120382000D02*
X116853000Y-120382000D01*
X111811000Y-114810000D02*
X111326000Y-114325000D01*
X111951000Y-114950000D02*
X111811000Y-114810000D01*
X113208000Y-118757768D02*
X112633990Y-119331778D01*
X112910778Y-120345010D02*
X112917010Y-120345010D01*
X112917010Y-120345010D02*
X112954000Y-120382000D01*
X111176000Y-113143000D02*
X110922000Y-113397000D01*
X117215000Y-120020000D02*
X117215000Y-119700000D01*
X113750000Y-114950000D02*
X113750000Y-115901590D01*
X111326000Y-113143000D02*
X111303000Y-113143000D01*
X113750000Y-115901590D02*
X113208000Y-116443590D01*
X111326000Y-113143000D02*
X111176000Y-113143000D01*
X112633990Y-119331778D02*
X112633990Y-120068222D01*
X116853000Y-120382000D02*
X117215000Y-120020000D01*
X113208000Y-116443590D02*
X113208000Y-118757768D01*
X138450000Y-117500000D02*
X138450000Y-118250000D01*
X122100000Y-116062500D02*
X122100000Y-117250000D01*
X117215000Y-117770023D02*
X117235023Y-117750000D01*
X117215000Y-118350000D02*
X117215000Y-117770023D01*
X122100000Y-117250000D02*
X121350000Y-118000000D01*
X122650000Y-114950000D02*
X122650000Y-113350000D01*
X114365000Y-118550000D02*
X114335000Y-118550000D01*
X114365000Y-118550000D02*
X114365000Y-117300000D01*
X122100000Y-115500000D02*
X122650000Y-114950000D01*
X139000000Y-115315000D02*
X139000000Y-114100000D01*
X138450000Y-118250000D02*
X138300000Y-118400000D01*
X122100000Y-116062500D02*
X122100000Y-115500000D01*
X145649990Y-120100000D02*
X145600000Y-120100000D01*
X108039000Y-116945000D02*
X108682000Y-117588000D01*
X110640010Y-112497990D02*
X111669222Y-112497990D01*
X109629000Y-116463232D02*
X109629000Y-116445000D01*
X102540000Y-114413000D02*
X101605000Y-114413000D01*
X110610999Y-118501499D02*
X110610999Y-117910999D01*
X101605000Y-114797000D02*
X101605000Y-114733000D01*
X109017000Y-112912000D02*
X110226000Y-112912000D01*
X105715000Y-116445000D02*
X105715000Y-116815000D01*
X105465000Y-114895000D02*
X105465000Y-116195000D01*
X101166000Y-115556000D02*
X101166000Y-116292777D01*
X101166000Y-116292777D02*
X101481883Y-116608660D01*
X110610999Y-117910999D02*
X110490200Y-117790200D01*
X110490200Y-117790200D02*
X110490200Y-117011200D01*
X105715000Y-116785000D02*
X105300000Y-117200000D01*
X139000000Y-114100000D02*
X139000000Y-113281000D01*
X105715000Y-116445000D02*
X105715000Y-116785000D01*
X112605000Y-114000000D02*
X112573000Y-114032000D01*
X112296000Y-113143000D02*
X112296000Y-113755000D01*
X105465000Y-117995000D02*
X105465000Y-116695000D01*
X107190000Y-116945000D02*
X106215000Y-116945000D01*
X108682000Y-117588000D02*
X108682000Y-117410232D01*
X110904000Y-118794500D02*
X110610999Y-118501499D01*
X101166000Y-115236000D02*
X101605000Y-114797000D01*
X108682000Y-117410232D02*
X109629000Y-116463232D01*
X101605000Y-114733000D02*
X101605000Y-114413000D01*
X104240000Y-116445000D02*
X105715000Y-116445000D01*
X110226000Y-112912000D02*
X110640010Y-112497990D01*
X110610999Y-117910999D02*
X110600000Y-117900000D01*
X111199000Y-118794500D02*
X110904000Y-118794500D01*
X112296000Y-113755000D02*
X112573000Y-114032000D01*
X113750000Y-114000000D02*
X112605000Y-114000000D01*
X105965000Y-114895000D02*
X105965000Y-116195000D01*
X111669222Y-112497990D02*
X112296000Y-113124768D01*
X105715000Y-116815000D02*
X106100000Y-117200000D01*
X105465000Y-116195000D02*
X105715000Y-116445000D01*
X105965000Y-117995000D02*
X106100000Y-117200000D01*
X110490200Y-117011200D02*
X109924000Y-116445000D01*
X106215000Y-116945000D02*
X105715000Y-116445000D01*
X112296000Y-113124768D02*
X112296000Y-113143000D01*
X101166000Y-115556000D02*
X101166000Y-115236000D01*
X109629000Y-115937000D02*
X110033000Y-115533000D01*
X109629000Y-116445000D02*
X109629000Y-115937000D01*
X105465000Y-116695000D02*
X105715000Y-116445000D01*
X107190000Y-116945000D02*
X108039000Y-116945000D01*
X109924000Y-116445000D02*
X109629000Y-116445000D01*
X105965000Y-116195000D02*
X105715000Y-116445000D01*
X139000000Y-113281000D02*
X138481000Y-112762000D01*
X138481000Y-112762000D02*
X137848500Y-112762000D01*
X129050000Y-114001978D02*
X129301978Y-113750000D01*
X107366000Y-112625010D02*
X107366000Y-112683500D01*
X134000000Y-114108200D02*
X134000000Y-115548002D01*
X129175989Y-118524011D02*
X128601978Y-117950000D01*
X135350000Y-115999990D02*
X135350000Y-115950000D01*
X128601978Y-117950000D02*
X128050000Y-117950000D01*
X128450000Y-113450000D02*
X128050000Y-113450000D01*
X129301978Y-118650000D02*
X129750000Y-119098022D01*
X130000000Y-118800000D02*
X130250000Y-119050000D01*
X129050000Y-116716800D02*
X128783200Y-116450000D01*
X129050000Y-118398022D02*
X129050000Y-116716800D01*
X126800000Y-113515000D02*
X126800000Y-112625000D01*
X109063998Y-114563000D02*
X109713000Y-114563000D01*
X108037999Y-115588999D02*
X109063998Y-114563000D01*
X107190000Y-115945000D02*
X107865000Y-115945000D01*
X130250000Y-119050000D02*
X130250000Y-119650000D01*
X135350000Y-115950000D02*
X134950000Y-115950000D01*
X129750000Y-119098022D02*
X129750000Y-119050000D01*
X129050000Y-114001978D02*
X128498022Y-113450000D01*
X128498022Y-116450000D02*
X128450000Y-116450000D01*
X128050000Y-116450000D02*
X128498022Y-116450000D01*
X136775001Y-118175001D02*
X136775001Y-117326979D01*
X137000000Y-118400000D02*
X136775001Y-118175001D01*
X128050000Y-113450000D02*
X126865000Y-113450000D01*
X107652990Y-112912000D02*
X107366000Y-112625010D01*
X108037999Y-115772001D02*
X108037999Y-115588999D01*
X107865000Y-115945000D02*
X108037999Y-115772001D01*
X128450000Y-116450000D02*
X128050000Y-116450000D01*
X110033000Y-114563000D02*
X110033000Y-113905000D01*
X128750000Y-119201978D02*
X129301978Y-118650000D01*
X129301978Y-118650000D02*
X129175989Y-118524011D01*
X134401998Y-115950000D02*
X134950000Y-115950000D01*
X129301978Y-113750000D02*
X133641800Y-113750000D01*
X133641800Y-113750000D02*
X134000000Y-114108200D01*
X134000000Y-115548002D02*
X134401998Y-115950000D01*
X128783200Y-116450000D02*
X128498022Y-116450000D01*
X129175989Y-118524011D02*
X129050000Y-118398022D01*
X129050000Y-116224000D02*
X129050000Y-114001978D01*
X128498022Y-116450000D02*
X128824000Y-116450000D01*
X109713000Y-114563000D02*
X110033000Y-114563000D01*
X128750000Y-119650000D02*
X128750000Y-119201978D01*
X129750000Y-119098022D02*
X129750000Y-119650000D01*
X129750000Y-119050000D02*
X130000000Y-118800000D01*
X136775001Y-117326979D02*
X135448012Y-115999990D01*
X128824000Y-116450000D02*
X129050000Y-116224000D01*
X128498022Y-113450000D02*
X128450000Y-113450000D01*
X126865000Y-113450000D02*
X126800000Y-113515000D01*
X135448012Y-115999990D02*
X135350000Y-115999990D01*
X107366000Y-112683500D02*
X106652500Y-113397000D01*
X108001000Y-112912000D02*
X107652990Y-112912000D01*
X121100000Y-116062500D02*
X121100000Y-115447000D01*
X121100000Y-115447000D02*
X120700000Y-115047000D01*
X120700000Y-115047000D02*
X120700000Y-113350000D01*
X121350000Y-115050000D02*
X121350000Y-113350000D01*
X121600000Y-115300000D02*
X121350000Y-115050000D01*
X121600000Y-116062500D02*
X121600000Y-115300000D01*
X107114500Y-119955000D02*
X106652500Y-119493000D01*
X105627490Y-120518010D02*
X104298160Y-120518010D01*
X103625001Y-117910001D02*
X102651000Y-116936000D01*
X102136000Y-116296000D02*
X102651000Y-116811000D01*
X102651000Y-116936000D02*
X102651000Y-116811000D01*
X109017000Y-119955000D02*
X108001000Y-119955000D01*
X104298160Y-120518010D02*
X103625001Y-119844851D01*
X103625001Y-119844851D02*
X103625001Y-117910001D01*
X106652500Y-119493000D02*
X105627490Y-120518010D01*
X102136000Y-115556000D02*
X102136000Y-116296000D01*
X108001000Y-119955000D02*
X107114500Y-119955000D01*
X134950000Y-113950000D02*
X136450000Y-113950000D01*
X137750000Y-116425000D02*
X137750000Y-115850000D01*
X134250000Y-119650000D02*
X134627501Y-120027501D01*
X137645010Y-119044990D02*
X137645010Y-116529990D01*
X137645010Y-116529990D02*
X137750000Y-116425000D01*
X134250000Y-119201978D02*
X134250000Y-119250000D01*
X134627501Y-120027501D02*
X136637499Y-120027501D01*
X133748022Y-118700000D02*
X134250000Y-119201978D01*
X136637499Y-120027501D02*
X137000000Y-119665000D01*
X134250000Y-119250000D02*
X134250000Y-119650000D01*
X138680000Y-116285000D02*
X138540000Y-116425000D01*
X132750000Y-119100000D02*
X133150000Y-118700000D01*
X132750000Y-119650000D02*
X132750000Y-119100000D01*
X139000000Y-116285000D02*
X138680000Y-116285000D01*
X138540000Y-116425000D02*
X137750000Y-116425000D01*
X137320000Y-119370000D02*
X137645010Y-119044990D01*
X137000000Y-119665000D02*
X137000000Y-119370000D01*
X137000000Y-119370000D02*
X137320000Y-119370000D01*
X133150000Y-118700000D02*
X133748022Y-118700000D01*
X128015000Y-114485000D02*
X128050000Y-114450000D01*
X126781768Y-114485000D02*
X125811768Y-113515000D01*
X126800000Y-114485000D02*
X128015000Y-114485000D01*
X126800000Y-114485000D02*
X126781768Y-114485000D01*
X125811768Y-113515000D02*
X125600000Y-113515000D01*
X123287500Y-118250000D02*
X123884433Y-118250000D01*
X126416000Y-118032002D02*
X126416000Y-115857232D01*
X123884433Y-118250000D02*
X124609432Y-118974999D01*
X127323232Y-114950000D02*
X127650000Y-114950000D01*
X127650000Y-114950000D02*
X128050000Y-114950000D01*
X126416000Y-115857232D02*
X127323232Y-114950000D01*
X125473003Y-118974999D02*
X126416000Y-118032002D01*
X124609432Y-118974999D02*
X125473003Y-118974999D01*
X126866011Y-118435987D02*
X126866011Y-116043632D01*
X127459643Y-115450000D02*
X127650000Y-115450000D01*
X123287500Y-118750000D02*
X123748022Y-118750000D01*
X126866011Y-116043632D02*
X127459643Y-115450000D01*
X124423032Y-119425009D02*
X125876989Y-119425009D01*
X123748022Y-118750000D02*
X124423032Y-119425009D01*
X127650000Y-115450000D02*
X128050000Y-115450000D01*
X125876989Y-119425009D02*
X126866011Y-118435987D01*
X137750000Y-114625000D02*
X137750000Y-114525000D01*
X137750000Y-114525000D02*
X137750000Y-113950000D01*
X137750000Y-114650000D02*
X137750000Y-114625000D01*
X126225001Y-120149999D02*
X126625000Y-119750000D01*
X123287500Y-119250000D02*
X123287500Y-119787500D01*
X137100000Y-115275000D02*
X137750000Y-114650000D01*
X137100000Y-115850000D02*
X137100000Y-115275000D01*
X123287500Y-119787500D02*
X123649999Y-120149999D01*
X123649999Y-120149999D02*
X126225001Y-120149999D01*
X137750000Y-114650000D02*
X137750000Y-114830470D01*
X137750000Y-114830470D02*
X137655500Y-114924970D01*
X137100000Y-113950000D02*
X137100000Y-114407484D01*
X124000002Y-117250000D02*
X125000000Y-118249998D01*
X136450000Y-114950000D02*
X136450000Y-115850000D01*
X136450000Y-115057484D02*
X136450000Y-115850000D01*
X137100000Y-114407484D02*
X136450000Y-115057484D01*
X123287500Y-117250000D02*
X124000002Y-117250000D01*
X100500000Y-112900000D02*
X100500000Y-114278000D01*
X100635000Y-114413000D02*
X100381000Y-114667000D01*
X100500000Y-114278000D02*
X100635000Y-114413000D01*
X100381000Y-117191000D02*
X100651000Y-117461000D01*
X100381000Y-114667000D02*
X100381000Y-117191000D01*
X138332500Y-119337500D02*
X138300000Y-119370000D01*
X129701978Y-120550000D02*
X129250000Y-120098022D01*
X137415000Y-120550000D02*
X129701978Y-120550000D01*
X138300000Y-119370000D02*
X138300000Y-119665000D01*
X138300000Y-119665000D02*
X137415000Y-120550000D01*
X129250000Y-120098022D02*
X129250000Y-120050000D01*
X129250000Y-120050000D02*
X129250000Y-119650000D01*
D22*
X139600000Y-119337500D02*
X138332500Y-119337500D01*
D21*
X125600000Y-114485000D02*
X125600000Y-117350000D01*
X102651000Y-119451000D02*
X102900000Y-119700000D01*
X125600000Y-117350000D02*
X125625000Y-117375000D01*
X102651000Y-118111000D02*
X102651000Y-119451000D01*
X115427184Y-115800000D02*
X115094999Y-115467815D01*
X115548002Y-115800000D02*
X115427184Y-115800000D01*
X115335000Y-118550000D02*
X116039986Y-117845014D01*
X116039986Y-116291984D02*
X115548002Y-115800000D01*
X116039986Y-117845014D02*
X116039986Y-116291984D01*
X115170000Y-113050000D02*
X115950000Y-113050000D01*
X115094999Y-115467815D02*
X115094999Y-113125001D01*
X115094999Y-113125001D02*
X115170000Y-113050000D01*
X104240000Y-118955500D02*
X104240000Y-117445000D01*
X104777500Y-119493000D02*
X104240000Y-118955500D01*
X109652000Y-117588000D02*
X109652000Y-118627000D01*
X109017000Y-118985000D02*
X109337000Y-118985000D01*
X109337000Y-118985000D02*
X109652000Y-118670000D01*
X108001000Y-118985000D02*
X108001000Y-118256000D01*
X109652000Y-118670000D02*
X109652000Y-118627000D01*
X108001000Y-118256000D02*
X107190000Y-117445000D01*
X109652000Y-118627000D02*
X110033000Y-119008000D01*
X109017000Y-118985000D02*
X108001000Y-118985000D01*
X135650500Y-118450000D02*
X136004500Y-118096000D01*
X110264000Y-120128000D02*
X111361832Y-120128000D01*
X111361832Y-120128000D02*
X111430000Y-120196168D01*
X134950000Y-118450000D02*
X135650500Y-118450000D01*
X120600000Y-116062500D02*
X120600000Y-115900000D01*
X120600000Y-115658200D02*
X120472400Y-115530600D01*
X120472400Y-115530600D02*
X120243800Y-115530600D01*
X120600000Y-116062500D02*
X120600000Y-116000000D01*
X120600000Y-116062500D02*
X120600000Y-115658200D01*
X120243800Y-115530600D02*
X120100000Y-115674400D01*
X120100000Y-115674400D02*
X120100000Y-116062500D01*
X103589998Y-115945000D02*
X103489999Y-116044999D01*
X103548000Y-116945000D02*
X103565000Y-116945000D01*
X103603998Y-115945000D02*
X104240000Y-115945000D01*
X112550000Y-116899000D02*
X112461000Y-116810000D01*
X103489999Y-116886999D02*
X103548000Y-116945000D01*
X112446000Y-116795000D02*
X112461000Y-116810000D01*
X112446000Y-115937000D02*
X112446000Y-116795000D01*
X103214998Y-115556000D02*
X103603998Y-115945000D01*
X107190000Y-116445000D02*
X108659000Y-116445000D01*
X112550000Y-117842000D02*
X112550000Y-116899000D01*
X103489999Y-116044999D02*
X103489999Y-116886999D01*
X104240000Y-115945000D02*
X103589998Y-115945000D01*
X108659000Y-116445000D02*
X108659000Y-116041000D01*
X108659000Y-116041000D02*
X108763000Y-115937000D01*
X103565000Y-116945000D02*
X104240000Y-116945000D01*
X104240000Y-113934500D02*
X104777500Y-113397000D01*
X104240000Y-115445000D02*
X104240000Y-113934500D01*
X108001000Y-113882000D02*
X109017000Y-113882000D01*
X108001000Y-113882000D02*
X108001000Y-114634000D01*
X108001000Y-114634000D02*
X107190000Y-115445000D01*
X137146500Y-112700000D02*
X137070000Y-112700000D01*
X137208500Y-112762000D02*
X137146500Y-112700000D01*
X135638000Y-112762000D02*
X137208500Y-112762000D01*
X134950000Y-113450000D02*
X135638000Y-112762000D01*
X126989000Y-120636000D02*
X127875000Y-119750000D01*
X118185000Y-119635000D02*
X118200000Y-119650000D01*
X118185000Y-120020000D02*
X118801000Y-120636000D01*
X118185000Y-119700000D02*
X118185000Y-118350000D01*
X118801000Y-120636000D02*
X126989000Y-120636000D01*
X134950000Y-118950000D02*
X135398000Y-118950000D01*
X118185000Y-119700000D02*
X118185000Y-120020000D01*
X135398000Y-118950000D02*
X135750500Y-119302500D01*
M02*
