G04 #@! TF.GenerationSoftware,KiCad,Pcbnew,(5.1.6)-1*
G04 #@! TF.CreationDate,2020-08-02T19:24:28+02:00*
G04 #@! TF.ProjectId,panelized,70616e65-6c69-47a6-9564-2e6b69636164,rev?*
G04 #@! TF.SameCoordinates,Original*
G04 #@! TF.FileFunction,Paste,Top*
G04 #@! TF.FilePolarity,Positive*
%FSLAX46Y46*%
G04 Gerber Fmt 4.6, Leading zero omitted, Abs format (unit mm)*
G04 Created by KiCad (PCBNEW (5.1.6)-1) date 2020-08-02 19:24:28*
%MOMM*%
%LPD*%
G01*
G04 APERTURE LIST*
%ADD10R,0.850000X0.280000*%
%ADD11R,0.640000X0.640000*%
%ADD12R,0.280000X0.700000*%
%ADD13R,0.700000X0.450000*%
%ADD14R,1.060000X0.650000*%
%ADD15R,0.450000X0.700000*%
%ADD16R,1.600000X0.800000*%
%ADD17R,0.400000X0.650000*%
%ADD18C,2.999800*%
G04 APERTURE END LIST*
G36*
G01*
X104290000Y-113853250D02*
X104290000Y-112940750D01*
G75*
G02*
X104533750Y-112697000I243750J0D01*
G01*
X105021250Y-112697000D01*
G75*
G02*
X105265000Y-112940750I0J-243750D01*
G01*
X105265000Y-113853250D01*
G75*
G02*
X105021250Y-114097000I-243750J0D01*
G01*
X104533750Y-114097000D01*
G75*
G02*
X104290000Y-113853250I0J243750D01*
G01*
G37*
G36*
G01*
X106165000Y-113853250D02*
X106165000Y-112940750D01*
G75*
G02*
X106408750Y-112697000I243750J0D01*
G01*
X106896250Y-112697000D01*
G75*
G02*
X107140000Y-112940750I0J-243750D01*
G01*
X107140000Y-113853250D01*
G75*
G02*
X106896250Y-114097000I-243750J0D01*
G01*
X106408750Y-114097000D01*
G75*
G02*
X106165000Y-113853250I0J243750D01*
G01*
G37*
G36*
G01*
X104290000Y-119949250D02*
X104290000Y-119036750D01*
G75*
G02*
X104533750Y-118793000I243750J0D01*
G01*
X105021250Y-118793000D01*
G75*
G02*
X105265000Y-119036750I0J-243750D01*
G01*
X105265000Y-119949250D01*
G75*
G02*
X105021250Y-120193000I-243750J0D01*
G01*
X104533750Y-120193000D01*
G75*
G02*
X104290000Y-119949250I0J243750D01*
G01*
G37*
G36*
G01*
X106165000Y-119949250D02*
X106165000Y-119036750D01*
G75*
G02*
X106408750Y-118793000I243750J0D01*
G01*
X106896250Y-118793000D01*
G75*
G02*
X107140000Y-119036750I0J-243750D01*
G01*
X107140000Y-119949250D01*
G75*
G02*
X106896250Y-120193000I-243750J0D01*
G01*
X106408750Y-120193000D01*
G75*
G02*
X106165000Y-119949250I0J243750D01*
G01*
G37*
D10*
X107190000Y-117445000D03*
X107190000Y-116945000D03*
X107190000Y-116445000D03*
X107190000Y-115945000D03*
X107190000Y-115445000D03*
X104240000Y-115445000D03*
X104240000Y-115945000D03*
X104240000Y-116445000D03*
X104240000Y-116945000D03*
X104240000Y-117445000D03*
D11*
X105302500Y-115645000D03*
D12*
X105965000Y-117995000D03*
X105965000Y-114895000D03*
X105465000Y-117995000D03*
X105465000Y-114895000D03*
D11*
X106127500Y-115645000D03*
X106127500Y-116445000D03*
X105302500Y-116445000D03*
X106127500Y-117245000D03*
X105302500Y-117245000D03*
G36*
G01*
X112845000Y-117669500D02*
X112845000Y-118014500D01*
G75*
G02*
X112697500Y-118162000I-147500J0D01*
G01*
X112402500Y-118162000D01*
G75*
G02*
X112255000Y-118014500I0J147500D01*
G01*
X112255000Y-117669500D01*
G75*
G02*
X112402500Y-117522000I147500J0D01*
G01*
X112697500Y-117522000D01*
G75*
G02*
X112845000Y-117669500I0J-147500D01*
G01*
G37*
G36*
G01*
X111875000Y-117669500D02*
X111875000Y-118014500D01*
G75*
G02*
X111727500Y-118162000I-147500J0D01*
G01*
X111432500Y-118162000D01*
G75*
G02*
X111285000Y-118014500I0J147500D01*
G01*
X111285000Y-117669500D01*
G75*
G02*
X111432500Y-117522000I147500J0D01*
G01*
X111727500Y-117522000D01*
G75*
G02*
X111875000Y-117669500I0J-147500D01*
G01*
G37*
D13*
X102651000Y-118111000D03*
X102651000Y-116811000D03*
X100651000Y-117461000D03*
G36*
G01*
X126627500Y-113220000D02*
X126972500Y-113220000D01*
G75*
G02*
X127120000Y-113367500I0J-147500D01*
G01*
X127120000Y-113662500D01*
G75*
G02*
X126972500Y-113810000I-147500J0D01*
G01*
X126627500Y-113810000D01*
G75*
G02*
X126480000Y-113662500I0J147500D01*
G01*
X126480000Y-113367500D01*
G75*
G02*
X126627500Y-113220000I147500J0D01*
G01*
G37*
G36*
G01*
X126627500Y-114190000D02*
X126972500Y-114190000D01*
G75*
G02*
X127120000Y-114337500I0J-147500D01*
G01*
X127120000Y-114632500D01*
G75*
G02*
X126972500Y-114780000I-147500J0D01*
G01*
X126627500Y-114780000D01*
G75*
G02*
X126480000Y-114632500I0J147500D01*
G01*
X126480000Y-114337500D01*
G75*
G02*
X126627500Y-114190000I147500J0D01*
G01*
G37*
G36*
G01*
X110904000Y-118967000D02*
X110904000Y-118622000D01*
G75*
G02*
X111051500Y-118474500I147500J0D01*
G01*
X111346500Y-118474500D01*
G75*
G02*
X111494000Y-118622000I0J-147500D01*
G01*
X111494000Y-118967000D01*
G75*
G02*
X111346500Y-119114500I-147500J0D01*
G01*
X111051500Y-119114500D01*
G75*
G02*
X110904000Y-118967000I0J147500D01*
G01*
G37*
G36*
G01*
X111874000Y-118967000D02*
X111874000Y-118622000D01*
G75*
G02*
X112021500Y-118474500I147500J0D01*
G01*
X112316500Y-118474500D01*
G75*
G02*
X112464000Y-118622000I0J-147500D01*
G01*
X112464000Y-118967000D01*
G75*
G02*
X112316500Y-119114500I-147500J0D01*
G01*
X112021500Y-119114500D01*
G75*
G02*
X111874000Y-118967000I0J147500D01*
G01*
G37*
G36*
G01*
X109947000Y-117415500D02*
X109947000Y-117760500D01*
G75*
G02*
X109799500Y-117908000I-147500J0D01*
G01*
X109504500Y-117908000D01*
G75*
G02*
X109357000Y-117760500I0J147500D01*
G01*
X109357000Y-117415500D01*
G75*
G02*
X109504500Y-117268000I147500J0D01*
G01*
X109799500Y-117268000D01*
G75*
G02*
X109947000Y-117415500I0J-147500D01*
G01*
G37*
G36*
G01*
X108977000Y-117415500D02*
X108977000Y-117760500D01*
G75*
G02*
X108829500Y-117908000I-147500J0D01*
G01*
X108534500Y-117908000D01*
G75*
G02*
X108387000Y-117760500I0J147500D01*
G01*
X108387000Y-117415500D01*
G75*
G02*
X108534500Y-117268000I147500J0D01*
G01*
X108829500Y-117268000D01*
G75*
G02*
X108977000Y-117415500I0J-147500D01*
G01*
G37*
G36*
G01*
X139343750Y-118900000D02*
X139856250Y-118900000D01*
G75*
G02*
X140075000Y-119118750I0J-218750D01*
G01*
X140075000Y-119556250D01*
G75*
G02*
X139856250Y-119775000I-218750J0D01*
G01*
X139343750Y-119775000D01*
G75*
G02*
X139125000Y-119556250I0J218750D01*
G01*
X139125000Y-119118750D01*
G75*
G02*
X139343750Y-118900000I218750J0D01*
G01*
G37*
G36*
G01*
X139343750Y-117325000D02*
X139856250Y-117325000D01*
G75*
G02*
X140075000Y-117543750I0J-218750D01*
G01*
X140075000Y-117981250D01*
G75*
G02*
X139856250Y-118200000I-218750J0D01*
G01*
X139343750Y-118200000D01*
G75*
G02*
X139125000Y-117981250I0J218750D01*
G01*
X139125000Y-117543750D01*
G75*
G02*
X139343750Y-117325000I218750J0D01*
G01*
G37*
D14*
X115950000Y-113050000D03*
X115950000Y-114950000D03*
X113750000Y-114950000D03*
X113750000Y-114000000D03*
X113750000Y-113050000D03*
G36*
G01*
X139172500Y-116580000D02*
X138827500Y-116580000D01*
G75*
G02*
X138680000Y-116432500I0J147500D01*
G01*
X138680000Y-116137500D01*
G75*
G02*
X138827500Y-115990000I147500J0D01*
G01*
X139172500Y-115990000D01*
G75*
G02*
X139320000Y-116137500I0J-147500D01*
G01*
X139320000Y-116432500D01*
G75*
G02*
X139172500Y-116580000I-147500J0D01*
G01*
G37*
G36*
G01*
X139172500Y-115610000D02*
X138827500Y-115610000D01*
G75*
G02*
X138680000Y-115462500I0J147500D01*
G01*
X138680000Y-115167500D01*
G75*
G02*
X138827500Y-115020000I147500J0D01*
G01*
X139172500Y-115020000D01*
G75*
G02*
X139320000Y-115167500I0J-147500D01*
G01*
X139320000Y-115462500D01*
G75*
G02*
X139172500Y-115610000I-147500J0D01*
G01*
G37*
G36*
G01*
X100871000Y-115728500D02*
X100871000Y-115383500D01*
G75*
G02*
X101018500Y-115236000I147500J0D01*
G01*
X101313500Y-115236000D01*
G75*
G02*
X101461000Y-115383500I0J-147500D01*
G01*
X101461000Y-115728500D01*
G75*
G02*
X101313500Y-115876000I-147500J0D01*
G01*
X101018500Y-115876000D01*
G75*
G02*
X100871000Y-115728500I0J147500D01*
G01*
G37*
G36*
G01*
X101841000Y-115728500D02*
X101841000Y-115383500D01*
G75*
G02*
X101988500Y-115236000I147500J0D01*
G01*
X102283500Y-115236000D01*
G75*
G02*
X102431000Y-115383500I0J-147500D01*
G01*
X102431000Y-115728500D01*
G75*
G02*
X102283500Y-115876000I-147500J0D01*
G01*
X101988500Y-115876000D01*
G75*
G02*
X101841000Y-115728500I0J147500D01*
G01*
G37*
G36*
G01*
X111621000Y-112970500D02*
X111621000Y-113315500D01*
G75*
G02*
X111473500Y-113463000I-147500J0D01*
G01*
X111178500Y-113463000D01*
G75*
G02*
X111031000Y-113315500I0J147500D01*
G01*
X111031000Y-112970500D01*
G75*
G02*
X111178500Y-112823000I147500J0D01*
G01*
X111473500Y-112823000D01*
G75*
G02*
X111621000Y-112970500I0J-147500D01*
G01*
G37*
G36*
G01*
X112591000Y-112970500D02*
X112591000Y-113315500D01*
G75*
G02*
X112443500Y-113463000I-147500J0D01*
G01*
X112148500Y-113463000D01*
G75*
G02*
X112001000Y-113315500I0J147500D01*
G01*
X112001000Y-112970500D01*
G75*
G02*
X112148500Y-112823000I147500J0D01*
G01*
X112443500Y-112823000D01*
G75*
G02*
X112591000Y-112970500I0J-147500D01*
G01*
G37*
D15*
X111161000Y-116810000D03*
X112461000Y-116810000D03*
X111811000Y-114810000D03*
G36*
G01*
X109860500Y-118713000D02*
X110205500Y-118713000D01*
G75*
G02*
X110353000Y-118860500I0J-147500D01*
G01*
X110353000Y-119155500D01*
G75*
G02*
X110205500Y-119303000I-147500J0D01*
G01*
X109860500Y-119303000D01*
G75*
G02*
X109713000Y-119155500I0J147500D01*
G01*
X109713000Y-118860500D01*
G75*
G02*
X109860500Y-118713000I147500J0D01*
G01*
G37*
G36*
G01*
X109860500Y-119683000D02*
X110205500Y-119683000D01*
G75*
G02*
X110353000Y-119830500I0J-147500D01*
G01*
X110353000Y-120125500D01*
G75*
G02*
X110205500Y-120273000I-147500J0D01*
G01*
X109860500Y-120273000D01*
G75*
G02*
X109713000Y-120125500I0J147500D01*
G01*
X109713000Y-119830500D01*
G75*
G02*
X109860500Y-119683000I147500J0D01*
G01*
G37*
G36*
G01*
X109189500Y-120250000D02*
X108844500Y-120250000D01*
G75*
G02*
X108697000Y-120102500I0J147500D01*
G01*
X108697000Y-119807500D01*
G75*
G02*
X108844500Y-119660000I147500J0D01*
G01*
X109189500Y-119660000D01*
G75*
G02*
X109337000Y-119807500I0J-147500D01*
G01*
X109337000Y-120102500D01*
G75*
G02*
X109189500Y-120250000I-147500J0D01*
G01*
G37*
G36*
G01*
X109189500Y-119280000D02*
X108844500Y-119280000D01*
G75*
G02*
X108697000Y-119132500I0J147500D01*
G01*
X108697000Y-118837500D01*
G75*
G02*
X108844500Y-118690000I147500J0D01*
G01*
X109189500Y-118690000D01*
G75*
G02*
X109337000Y-118837500I0J-147500D01*
G01*
X109337000Y-119132500D01*
G75*
G02*
X109189500Y-119280000I-147500J0D01*
G01*
G37*
G36*
G01*
X115040000Y-118522500D02*
X115040000Y-118177500D01*
G75*
G02*
X115187500Y-118030000I147500J0D01*
G01*
X115482500Y-118030000D01*
G75*
G02*
X115630000Y-118177500I0J-147500D01*
G01*
X115630000Y-118522500D01*
G75*
G02*
X115482500Y-118670000I-147500J0D01*
G01*
X115187500Y-118670000D01*
G75*
G02*
X115040000Y-118522500I0J147500D01*
G01*
G37*
G36*
G01*
X114070000Y-118522500D02*
X114070000Y-118177500D01*
G75*
G02*
X114217500Y-118030000I147500J0D01*
G01*
X114512500Y-118030000D01*
G75*
G02*
X114660000Y-118177500I0J-147500D01*
G01*
X114660000Y-118522500D01*
G75*
G02*
X114512500Y-118670000I-147500J0D01*
G01*
X114217500Y-118670000D01*
G75*
G02*
X114070000Y-118522500I0J147500D01*
G01*
G37*
G36*
G01*
X107828500Y-112617000D02*
X108173500Y-112617000D01*
G75*
G02*
X108321000Y-112764500I0J-147500D01*
G01*
X108321000Y-113059500D01*
G75*
G02*
X108173500Y-113207000I-147500J0D01*
G01*
X107828500Y-113207000D01*
G75*
G02*
X107681000Y-113059500I0J147500D01*
G01*
X107681000Y-112764500D01*
G75*
G02*
X107828500Y-112617000I147500J0D01*
G01*
G37*
G36*
G01*
X107828500Y-113587000D02*
X108173500Y-113587000D01*
G75*
G02*
X108321000Y-113734500I0J-147500D01*
G01*
X108321000Y-114029500D01*
G75*
G02*
X108173500Y-114177000I-147500J0D01*
G01*
X107828500Y-114177000D01*
G75*
G02*
X107681000Y-114029500I0J147500D01*
G01*
X107681000Y-113734500D01*
G75*
G02*
X107828500Y-113587000I147500J0D01*
G01*
G37*
D16*
X143050000Y-118132000D03*
X143050000Y-114400000D03*
G36*
G01*
X110205500Y-115828000D02*
X109860500Y-115828000D01*
G75*
G02*
X109713000Y-115680500I0J147500D01*
G01*
X109713000Y-115385500D01*
G75*
G02*
X109860500Y-115238000I147500J0D01*
G01*
X110205500Y-115238000D01*
G75*
G02*
X110353000Y-115385500I0J-147500D01*
G01*
X110353000Y-115680500D01*
G75*
G02*
X110205500Y-115828000I-147500J0D01*
G01*
G37*
G36*
G01*
X110205500Y-114858000D02*
X109860500Y-114858000D01*
G75*
G02*
X109713000Y-114710500I0J147500D01*
G01*
X109713000Y-114415500D01*
G75*
G02*
X109860500Y-114268000I147500J0D01*
G01*
X110205500Y-114268000D01*
G75*
G02*
X110353000Y-114415500I0J-147500D01*
G01*
X110353000Y-114710500D01*
G75*
G02*
X110205500Y-114858000I-147500J0D01*
G01*
G37*
G36*
G01*
X114070000Y-117172500D02*
X114070000Y-116827500D01*
G75*
G02*
X114217500Y-116680000I147500J0D01*
G01*
X114512500Y-116680000D01*
G75*
G02*
X114660000Y-116827500I0J-147500D01*
G01*
X114660000Y-117172500D01*
G75*
G02*
X114512500Y-117320000I-147500J0D01*
G01*
X114217500Y-117320000D01*
G75*
G02*
X114070000Y-117172500I0J147500D01*
G01*
G37*
G36*
G01*
X115040000Y-117172500D02*
X115040000Y-116827500D01*
G75*
G02*
X115187500Y-116680000I147500J0D01*
G01*
X115482500Y-116680000D01*
G75*
G02*
X115630000Y-116827500I0J-147500D01*
G01*
X115630000Y-117172500D01*
G75*
G02*
X115482500Y-117320000I-147500J0D01*
G01*
X115187500Y-117320000D01*
G75*
G02*
X115040000Y-117172500I0J147500D01*
G01*
G37*
G36*
G01*
X121724999Y-116825000D02*
X122275001Y-116825000D01*
G75*
G02*
X122525000Y-117074999I0J-249999D01*
G01*
X122525000Y-117625001D01*
G75*
G02*
X122275001Y-117875000I-249999J0D01*
G01*
X121724999Y-117875000D01*
G75*
G02*
X121475000Y-117625001I0J249999D01*
G01*
X121475000Y-117074999D01*
G75*
G02*
X121724999Y-116825000I249999J0D01*
G01*
G37*
G36*
G01*
X120424999Y-116825000D02*
X120975001Y-116825000D01*
G75*
G02*
X121225000Y-117074999I0J-249999D01*
G01*
X121225000Y-117625001D01*
G75*
G02*
X120975001Y-117875000I-249999J0D01*
G01*
X120424999Y-117875000D01*
G75*
G02*
X120175000Y-117625001I0J249999D01*
G01*
X120175000Y-117074999D01*
G75*
G02*
X120424999Y-116825000I249999J0D01*
G01*
G37*
G36*
G01*
X121724999Y-118125000D02*
X122275001Y-118125000D01*
G75*
G02*
X122525000Y-118374999I0J-249999D01*
G01*
X122525000Y-118925001D01*
G75*
G02*
X122275001Y-119175000I-249999J0D01*
G01*
X121724999Y-119175000D01*
G75*
G02*
X121475000Y-118925001I0J249999D01*
G01*
X121475000Y-118374999D01*
G75*
G02*
X121724999Y-118125000I249999J0D01*
G01*
G37*
G36*
G01*
X120424999Y-118125000D02*
X120975001Y-118125000D01*
G75*
G02*
X121225000Y-118374999I0J-249999D01*
G01*
X121225000Y-118925001D01*
G75*
G02*
X120975001Y-119175000I-249999J0D01*
G01*
X120424999Y-119175000D01*
G75*
G02*
X120175000Y-118925001I0J249999D01*
G01*
X120175000Y-118374999D01*
G75*
G02*
X120424999Y-118125000I249999J0D01*
G01*
G37*
G36*
G01*
X122537500Y-115650000D02*
X122662500Y-115650000D01*
G75*
G02*
X122725000Y-115712500I0J-62500D01*
G01*
X122725000Y-116412500D01*
G75*
G02*
X122662500Y-116475000I-62500J0D01*
G01*
X122537500Y-116475000D01*
G75*
G02*
X122475000Y-116412500I0J62500D01*
G01*
X122475000Y-115712500D01*
G75*
G02*
X122537500Y-115650000I62500J0D01*
G01*
G37*
G36*
G01*
X122037500Y-115650000D02*
X122162500Y-115650000D01*
G75*
G02*
X122225000Y-115712500I0J-62500D01*
G01*
X122225000Y-116412500D01*
G75*
G02*
X122162500Y-116475000I-62500J0D01*
G01*
X122037500Y-116475000D01*
G75*
G02*
X121975000Y-116412500I0J62500D01*
G01*
X121975000Y-115712500D01*
G75*
G02*
X122037500Y-115650000I62500J0D01*
G01*
G37*
G36*
G01*
X121537500Y-115650000D02*
X121662500Y-115650000D01*
G75*
G02*
X121725000Y-115712500I0J-62500D01*
G01*
X121725000Y-116412500D01*
G75*
G02*
X121662500Y-116475000I-62500J0D01*
G01*
X121537500Y-116475000D01*
G75*
G02*
X121475000Y-116412500I0J62500D01*
G01*
X121475000Y-115712500D01*
G75*
G02*
X121537500Y-115650000I62500J0D01*
G01*
G37*
G36*
G01*
X121037500Y-115650000D02*
X121162500Y-115650000D01*
G75*
G02*
X121225000Y-115712500I0J-62500D01*
G01*
X121225000Y-116412500D01*
G75*
G02*
X121162500Y-116475000I-62500J0D01*
G01*
X121037500Y-116475000D01*
G75*
G02*
X120975000Y-116412500I0J62500D01*
G01*
X120975000Y-115712500D01*
G75*
G02*
X121037500Y-115650000I62500J0D01*
G01*
G37*
G36*
G01*
X120537500Y-115650000D02*
X120662500Y-115650000D01*
G75*
G02*
X120725000Y-115712500I0J-62500D01*
G01*
X120725000Y-116412500D01*
G75*
G02*
X120662500Y-116475000I-62500J0D01*
G01*
X120537500Y-116475000D01*
G75*
G02*
X120475000Y-116412500I0J62500D01*
G01*
X120475000Y-115712500D01*
G75*
G02*
X120537500Y-115650000I62500J0D01*
G01*
G37*
G36*
G01*
X120037500Y-115650000D02*
X120162500Y-115650000D01*
G75*
G02*
X120225000Y-115712500I0J-62500D01*
G01*
X120225000Y-116412500D01*
G75*
G02*
X120162500Y-116475000I-62500J0D01*
G01*
X120037500Y-116475000D01*
G75*
G02*
X119975000Y-116412500I0J62500D01*
G01*
X119975000Y-115712500D01*
G75*
G02*
X120037500Y-115650000I62500J0D01*
G01*
G37*
G36*
G01*
X119062500Y-116625000D02*
X119762500Y-116625000D01*
G75*
G02*
X119825000Y-116687500I0J-62500D01*
G01*
X119825000Y-116812500D01*
G75*
G02*
X119762500Y-116875000I-62500J0D01*
G01*
X119062500Y-116875000D01*
G75*
G02*
X119000000Y-116812500I0J62500D01*
G01*
X119000000Y-116687500D01*
G75*
G02*
X119062500Y-116625000I62500J0D01*
G01*
G37*
G36*
G01*
X119062500Y-117125000D02*
X119762500Y-117125000D01*
G75*
G02*
X119825000Y-117187500I0J-62500D01*
G01*
X119825000Y-117312500D01*
G75*
G02*
X119762500Y-117375000I-62500J0D01*
G01*
X119062500Y-117375000D01*
G75*
G02*
X119000000Y-117312500I0J62500D01*
G01*
X119000000Y-117187500D01*
G75*
G02*
X119062500Y-117125000I62500J0D01*
G01*
G37*
G36*
G01*
X119062500Y-117625000D02*
X119762500Y-117625000D01*
G75*
G02*
X119825000Y-117687500I0J-62500D01*
G01*
X119825000Y-117812500D01*
G75*
G02*
X119762500Y-117875000I-62500J0D01*
G01*
X119062500Y-117875000D01*
G75*
G02*
X119000000Y-117812500I0J62500D01*
G01*
X119000000Y-117687500D01*
G75*
G02*
X119062500Y-117625000I62500J0D01*
G01*
G37*
G36*
G01*
X119062500Y-118125000D02*
X119762500Y-118125000D01*
G75*
G02*
X119825000Y-118187500I0J-62500D01*
G01*
X119825000Y-118312500D01*
G75*
G02*
X119762500Y-118375000I-62500J0D01*
G01*
X119062500Y-118375000D01*
G75*
G02*
X119000000Y-118312500I0J62500D01*
G01*
X119000000Y-118187500D01*
G75*
G02*
X119062500Y-118125000I62500J0D01*
G01*
G37*
G36*
G01*
X119062500Y-118625000D02*
X119762500Y-118625000D01*
G75*
G02*
X119825000Y-118687500I0J-62500D01*
G01*
X119825000Y-118812500D01*
G75*
G02*
X119762500Y-118875000I-62500J0D01*
G01*
X119062500Y-118875000D01*
G75*
G02*
X119000000Y-118812500I0J62500D01*
G01*
X119000000Y-118687500D01*
G75*
G02*
X119062500Y-118625000I62500J0D01*
G01*
G37*
G36*
G01*
X119062500Y-119125000D02*
X119762500Y-119125000D01*
G75*
G02*
X119825000Y-119187500I0J-62500D01*
G01*
X119825000Y-119312500D01*
G75*
G02*
X119762500Y-119375000I-62500J0D01*
G01*
X119062500Y-119375000D01*
G75*
G02*
X119000000Y-119312500I0J62500D01*
G01*
X119000000Y-119187500D01*
G75*
G02*
X119062500Y-119125000I62500J0D01*
G01*
G37*
G36*
G01*
X120037500Y-119525000D02*
X120162500Y-119525000D01*
G75*
G02*
X120225000Y-119587500I0J-62500D01*
G01*
X120225000Y-120287500D01*
G75*
G02*
X120162500Y-120350000I-62500J0D01*
G01*
X120037500Y-120350000D01*
G75*
G02*
X119975000Y-120287500I0J62500D01*
G01*
X119975000Y-119587500D01*
G75*
G02*
X120037500Y-119525000I62500J0D01*
G01*
G37*
G36*
G01*
X120537500Y-119525000D02*
X120662500Y-119525000D01*
G75*
G02*
X120725000Y-119587500I0J-62500D01*
G01*
X120725000Y-120287500D01*
G75*
G02*
X120662500Y-120350000I-62500J0D01*
G01*
X120537500Y-120350000D01*
G75*
G02*
X120475000Y-120287500I0J62500D01*
G01*
X120475000Y-119587500D01*
G75*
G02*
X120537500Y-119525000I62500J0D01*
G01*
G37*
G36*
G01*
X121037500Y-119525000D02*
X121162500Y-119525000D01*
G75*
G02*
X121225000Y-119587500I0J-62500D01*
G01*
X121225000Y-120287500D01*
G75*
G02*
X121162500Y-120350000I-62500J0D01*
G01*
X121037500Y-120350000D01*
G75*
G02*
X120975000Y-120287500I0J62500D01*
G01*
X120975000Y-119587500D01*
G75*
G02*
X121037500Y-119525000I62500J0D01*
G01*
G37*
G36*
G01*
X121537500Y-119525000D02*
X121662500Y-119525000D01*
G75*
G02*
X121725000Y-119587500I0J-62500D01*
G01*
X121725000Y-120287500D01*
G75*
G02*
X121662500Y-120350000I-62500J0D01*
G01*
X121537500Y-120350000D01*
G75*
G02*
X121475000Y-120287500I0J62500D01*
G01*
X121475000Y-119587500D01*
G75*
G02*
X121537500Y-119525000I62500J0D01*
G01*
G37*
G36*
G01*
X122037500Y-119525000D02*
X122162500Y-119525000D01*
G75*
G02*
X122225000Y-119587500I0J-62500D01*
G01*
X122225000Y-120287500D01*
G75*
G02*
X122162500Y-120350000I-62500J0D01*
G01*
X122037500Y-120350000D01*
G75*
G02*
X121975000Y-120287500I0J62500D01*
G01*
X121975000Y-119587500D01*
G75*
G02*
X122037500Y-119525000I62500J0D01*
G01*
G37*
G36*
G01*
X122537500Y-119525000D02*
X122662500Y-119525000D01*
G75*
G02*
X122725000Y-119587500I0J-62500D01*
G01*
X122725000Y-120287500D01*
G75*
G02*
X122662500Y-120350000I-62500J0D01*
G01*
X122537500Y-120350000D01*
G75*
G02*
X122475000Y-120287500I0J62500D01*
G01*
X122475000Y-119587500D01*
G75*
G02*
X122537500Y-119525000I62500J0D01*
G01*
G37*
G36*
G01*
X122937500Y-119125000D02*
X123637500Y-119125000D01*
G75*
G02*
X123700000Y-119187500I0J-62500D01*
G01*
X123700000Y-119312500D01*
G75*
G02*
X123637500Y-119375000I-62500J0D01*
G01*
X122937500Y-119375000D01*
G75*
G02*
X122875000Y-119312500I0J62500D01*
G01*
X122875000Y-119187500D01*
G75*
G02*
X122937500Y-119125000I62500J0D01*
G01*
G37*
G36*
G01*
X122937500Y-118625000D02*
X123637500Y-118625000D01*
G75*
G02*
X123700000Y-118687500I0J-62500D01*
G01*
X123700000Y-118812500D01*
G75*
G02*
X123637500Y-118875000I-62500J0D01*
G01*
X122937500Y-118875000D01*
G75*
G02*
X122875000Y-118812500I0J62500D01*
G01*
X122875000Y-118687500D01*
G75*
G02*
X122937500Y-118625000I62500J0D01*
G01*
G37*
G36*
G01*
X122937500Y-118125000D02*
X123637500Y-118125000D01*
G75*
G02*
X123700000Y-118187500I0J-62500D01*
G01*
X123700000Y-118312500D01*
G75*
G02*
X123637500Y-118375000I-62500J0D01*
G01*
X122937500Y-118375000D01*
G75*
G02*
X122875000Y-118312500I0J62500D01*
G01*
X122875000Y-118187500D01*
G75*
G02*
X122937500Y-118125000I62500J0D01*
G01*
G37*
G36*
G01*
X122937500Y-117625000D02*
X123637500Y-117625000D01*
G75*
G02*
X123700000Y-117687500I0J-62500D01*
G01*
X123700000Y-117812500D01*
G75*
G02*
X123637500Y-117875000I-62500J0D01*
G01*
X122937500Y-117875000D01*
G75*
G02*
X122875000Y-117812500I0J62500D01*
G01*
X122875000Y-117687500D01*
G75*
G02*
X122937500Y-117625000I62500J0D01*
G01*
G37*
G36*
G01*
X122937500Y-117125000D02*
X123637500Y-117125000D01*
G75*
G02*
X123700000Y-117187500I0J-62500D01*
G01*
X123700000Y-117312500D01*
G75*
G02*
X123637500Y-117375000I-62500J0D01*
G01*
X122937500Y-117375000D01*
G75*
G02*
X122875000Y-117312500I0J62500D01*
G01*
X122875000Y-117187500D01*
G75*
G02*
X122937500Y-117125000I62500J0D01*
G01*
G37*
G36*
G01*
X122937500Y-116625000D02*
X123637500Y-116625000D01*
G75*
G02*
X123700000Y-116687500I0J-62500D01*
G01*
X123700000Y-116812500D01*
G75*
G02*
X123637500Y-116875000I-62500J0D01*
G01*
X122937500Y-116875000D01*
G75*
G02*
X122875000Y-116812500I0J62500D01*
G01*
X122875000Y-116687500D01*
G75*
G02*
X122937500Y-116625000I62500J0D01*
G01*
G37*
G36*
G01*
X131125000Y-117395000D02*
X130555000Y-117395000D01*
G75*
G02*
X130305000Y-117145000I0J250000D01*
G01*
X130305000Y-116575000D01*
G75*
G02*
X130555000Y-116325000I250000J0D01*
G01*
X131125000Y-116325000D01*
G75*
G02*
X131375000Y-116575000I0J-250000D01*
G01*
X131375000Y-117145000D01*
G75*
G02*
X131125000Y-117395000I-250000J0D01*
G01*
G37*
G36*
G01*
X132445000Y-117395000D02*
X131875000Y-117395000D01*
G75*
G02*
X131625000Y-117145000I0J250000D01*
G01*
X131625000Y-116575000D01*
G75*
G02*
X131875000Y-116325000I250000J0D01*
G01*
X132445000Y-116325000D01*
G75*
G02*
X132695000Y-116575000I0J-250000D01*
G01*
X132695000Y-117145000D01*
G75*
G02*
X132445000Y-117395000I-250000J0D01*
G01*
G37*
G36*
G01*
X131125000Y-116075000D02*
X130555000Y-116075000D01*
G75*
G02*
X130305000Y-115825000I0J250000D01*
G01*
X130305000Y-115255000D01*
G75*
G02*
X130555000Y-115005000I250000J0D01*
G01*
X131125000Y-115005000D01*
G75*
G02*
X131375000Y-115255000I0J-250000D01*
G01*
X131375000Y-115825000D01*
G75*
G02*
X131125000Y-116075000I-250000J0D01*
G01*
G37*
G36*
G01*
X132445000Y-116075000D02*
X131875000Y-116075000D01*
G75*
G02*
X131625000Y-115825000I0J250000D01*
G01*
X131625000Y-115255000D01*
G75*
G02*
X131875000Y-115005000I250000J0D01*
G01*
X132445000Y-115005000D01*
G75*
G02*
X132695000Y-115255000I0J-250000D01*
G01*
X132695000Y-115825000D01*
G75*
G02*
X132445000Y-116075000I-250000J0D01*
G01*
G37*
G36*
G01*
X128812500Y-120050000D02*
X128687500Y-120050000D01*
G75*
G02*
X128625000Y-119987500I0J62500D01*
G01*
X128625000Y-119312500D01*
G75*
G02*
X128687500Y-119250000I62500J0D01*
G01*
X128812500Y-119250000D01*
G75*
G02*
X128875000Y-119312500I0J-62500D01*
G01*
X128875000Y-119987500D01*
G75*
G02*
X128812500Y-120050000I-62500J0D01*
G01*
G37*
G36*
G01*
X129312500Y-120050000D02*
X129187500Y-120050000D01*
G75*
G02*
X129125000Y-119987500I0J62500D01*
G01*
X129125000Y-119312500D01*
G75*
G02*
X129187500Y-119250000I62500J0D01*
G01*
X129312500Y-119250000D01*
G75*
G02*
X129375000Y-119312500I0J-62500D01*
G01*
X129375000Y-119987500D01*
G75*
G02*
X129312500Y-120050000I-62500J0D01*
G01*
G37*
G36*
G01*
X129812500Y-120050000D02*
X129687500Y-120050000D01*
G75*
G02*
X129625000Y-119987500I0J62500D01*
G01*
X129625000Y-119312500D01*
G75*
G02*
X129687500Y-119250000I62500J0D01*
G01*
X129812500Y-119250000D01*
G75*
G02*
X129875000Y-119312500I0J-62500D01*
G01*
X129875000Y-119987500D01*
G75*
G02*
X129812500Y-120050000I-62500J0D01*
G01*
G37*
G36*
G01*
X130312500Y-120050000D02*
X130187500Y-120050000D01*
G75*
G02*
X130125000Y-119987500I0J62500D01*
G01*
X130125000Y-119312500D01*
G75*
G02*
X130187500Y-119250000I62500J0D01*
G01*
X130312500Y-119250000D01*
G75*
G02*
X130375000Y-119312500I0J-62500D01*
G01*
X130375000Y-119987500D01*
G75*
G02*
X130312500Y-120050000I-62500J0D01*
G01*
G37*
G36*
G01*
X130812500Y-120050000D02*
X130687500Y-120050000D01*
G75*
G02*
X130625000Y-119987500I0J62500D01*
G01*
X130625000Y-119312500D01*
G75*
G02*
X130687500Y-119250000I62500J0D01*
G01*
X130812500Y-119250000D01*
G75*
G02*
X130875000Y-119312500I0J-62500D01*
G01*
X130875000Y-119987500D01*
G75*
G02*
X130812500Y-120050000I-62500J0D01*
G01*
G37*
G36*
G01*
X131312500Y-120050000D02*
X131187500Y-120050000D01*
G75*
G02*
X131125000Y-119987500I0J62500D01*
G01*
X131125000Y-119312500D01*
G75*
G02*
X131187500Y-119250000I62500J0D01*
G01*
X131312500Y-119250000D01*
G75*
G02*
X131375000Y-119312500I0J-62500D01*
G01*
X131375000Y-119987500D01*
G75*
G02*
X131312500Y-120050000I-62500J0D01*
G01*
G37*
G36*
G01*
X131812500Y-120050000D02*
X131687500Y-120050000D01*
G75*
G02*
X131625000Y-119987500I0J62500D01*
G01*
X131625000Y-119312500D01*
G75*
G02*
X131687500Y-119250000I62500J0D01*
G01*
X131812500Y-119250000D01*
G75*
G02*
X131875000Y-119312500I0J-62500D01*
G01*
X131875000Y-119987500D01*
G75*
G02*
X131812500Y-120050000I-62500J0D01*
G01*
G37*
G36*
G01*
X132312500Y-120050000D02*
X132187500Y-120050000D01*
G75*
G02*
X132125000Y-119987500I0J62500D01*
G01*
X132125000Y-119312500D01*
G75*
G02*
X132187500Y-119250000I62500J0D01*
G01*
X132312500Y-119250000D01*
G75*
G02*
X132375000Y-119312500I0J-62500D01*
G01*
X132375000Y-119987500D01*
G75*
G02*
X132312500Y-120050000I-62500J0D01*
G01*
G37*
G36*
G01*
X132812500Y-120050000D02*
X132687500Y-120050000D01*
G75*
G02*
X132625000Y-119987500I0J62500D01*
G01*
X132625000Y-119312500D01*
G75*
G02*
X132687500Y-119250000I62500J0D01*
G01*
X132812500Y-119250000D01*
G75*
G02*
X132875000Y-119312500I0J-62500D01*
G01*
X132875000Y-119987500D01*
G75*
G02*
X132812500Y-120050000I-62500J0D01*
G01*
G37*
G36*
G01*
X133312500Y-120050000D02*
X133187500Y-120050000D01*
G75*
G02*
X133125000Y-119987500I0J62500D01*
G01*
X133125000Y-119312500D01*
G75*
G02*
X133187500Y-119250000I62500J0D01*
G01*
X133312500Y-119250000D01*
G75*
G02*
X133375000Y-119312500I0J-62500D01*
G01*
X133375000Y-119987500D01*
G75*
G02*
X133312500Y-120050000I-62500J0D01*
G01*
G37*
G36*
G01*
X133812500Y-120050000D02*
X133687500Y-120050000D01*
G75*
G02*
X133625000Y-119987500I0J62500D01*
G01*
X133625000Y-119312500D01*
G75*
G02*
X133687500Y-119250000I62500J0D01*
G01*
X133812500Y-119250000D01*
G75*
G02*
X133875000Y-119312500I0J-62500D01*
G01*
X133875000Y-119987500D01*
G75*
G02*
X133812500Y-120050000I-62500J0D01*
G01*
G37*
G36*
G01*
X134312500Y-120050000D02*
X134187500Y-120050000D01*
G75*
G02*
X134125000Y-119987500I0J62500D01*
G01*
X134125000Y-119312500D01*
G75*
G02*
X134187500Y-119250000I62500J0D01*
G01*
X134312500Y-119250000D01*
G75*
G02*
X134375000Y-119312500I0J-62500D01*
G01*
X134375000Y-119987500D01*
G75*
G02*
X134312500Y-120050000I-62500J0D01*
G01*
G37*
G36*
G01*
X135287500Y-119075000D02*
X134612500Y-119075000D01*
G75*
G02*
X134550000Y-119012500I0J62500D01*
G01*
X134550000Y-118887500D01*
G75*
G02*
X134612500Y-118825000I62500J0D01*
G01*
X135287500Y-118825000D01*
G75*
G02*
X135350000Y-118887500I0J-62500D01*
G01*
X135350000Y-119012500D01*
G75*
G02*
X135287500Y-119075000I-62500J0D01*
G01*
G37*
G36*
G01*
X135287500Y-118575000D02*
X134612500Y-118575000D01*
G75*
G02*
X134550000Y-118512500I0J62500D01*
G01*
X134550000Y-118387500D01*
G75*
G02*
X134612500Y-118325000I62500J0D01*
G01*
X135287500Y-118325000D01*
G75*
G02*
X135350000Y-118387500I0J-62500D01*
G01*
X135350000Y-118512500D01*
G75*
G02*
X135287500Y-118575000I-62500J0D01*
G01*
G37*
G36*
G01*
X135287500Y-118075000D02*
X134612500Y-118075000D01*
G75*
G02*
X134550000Y-118012500I0J62500D01*
G01*
X134550000Y-117887500D01*
G75*
G02*
X134612500Y-117825000I62500J0D01*
G01*
X135287500Y-117825000D01*
G75*
G02*
X135350000Y-117887500I0J-62500D01*
G01*
X135350000Y-118012500D01*
G75*
G02*
X135287500Y-118075000I-62500J0D01*
G01*
G37*
G36*
G01*
X135287500Y-117575000D02*
X134612500Y-117575000D01*
G75*
G02*
X134550000Y-117512500I0J62500D01*
G01*
X134550000Y-117387500D01*
G75*
G02*
X134612500Y-117325000I62500J0D01*
G01*
X135287500Y-117325000D01*
G75*
G02*
X135350000Y-117387500I0J-62500D01*
G01*
X135350000Y-117512500D01*
G75*
G02*
X135287500Y-117575000I-62500J0D01*
G01*
G37*
G36*
G01*
X135287500Y-117075000D02*
X134612500Y-117075000D01*
G75*
G02*
X134550000Y-117012500I0J62500D01*
G01*
X134550000Y-116887500D01*
G75*
G02*
X134612500Y-116825000I62500J0D01*
G01*
X135287500Y-116825000D01*
G75*
G02*
X135350000Y-116887500I0J-62500D01*
G01*
X135350000Y-117012500D01*
G75*
G02*
X135287500Y-117075000I-62500J0D01*
G01*
G37*
G36*
G01*
X135287500Y-116575000D02*
X134612500Y-116575000D01*
G75*
G02*
X134550000Y-116512500I0J62500D01*
G01*
X134550000Y-116387500D01*
G75*
G02*
X134612500Y-116325000I62500J0D01*
G01*
X135287500Y-116325000D01*
G75*
G02*
X135350000Y-116387500I0J-62500D01*
G01*
X135350000Y-116512500D01*
G75*
G02*
X135287500Y-116575000I-62500J0D01*
G01*
G37*
G36*
G01*
X135287500Y-116075000D02*
X134612500Y-116075000D01*
G75*
G02*
X134550000Y-116012500I0J62500D01*
G01*
X134550000Y-115887500D01*
G75*
G02*
X134612500Y-115825000I62500J0D01*
G01*
X135287500Y-115825000D01*
G75*
G02*
X135350000Y-115887500I0J-62500D01*
G01*
X135350000Y-116012500D01*
G75*
G02*
X135287500Y-116075000I-62500J0D01*
G01*
G37*
G36*
G01*
X135287500Y-115575000D02*
X134612500Y-115575000D01*
G75*
G02*
X134550000Y-115512500I0J62500D01*
G01*
X134550000Y-115387500D01*
G75*
G02*
X134612500Y-115325000I62500J0D01*
G01*
X135287500Y-115325000D01*
G75*
G02*
X135350000Y-115387500I0J-62500D01*
G01*
X135350000Y-115512500D01*
G75*
G02*
X135287500Y-115575000I-62500J0D01*
G01*
G37*
G36*
G01*
X135287500Y-115075000D02*
X134612500Y-115075000D01*
G75*
G02*
X134550000Y-115012500I0J62500D01*
G01*
X134550000Y-114887500D01*
G75*
G02*
X134612500Y-114825000I62500J0D01*
G01*
X135287500Y-114825000D01*
G75*
G02*
X135350000Y-114887500I0J-62500D01*
G01*
X135350000Y-115012500D01*
G75*
G02*
X135287500Y-115075000I-62500J0D01*
G01*
G37*
G36*
G01*
X135287500Y-114575000D02*
X134612500Y-114575000D01*
G75*
G02*
X134550000Y-114512500I0J62500D01*
G01*
X134550000Y-114387500D01*
G75*
G02*
X134612500Y-114325000I62500J0D01*
G01*
X135287500Y-114325000D01*
G75*
G02*
X135350000Y-114387500I0J-62500D01*
G01*
X135350000Y-114512500D01*
G75*
G02*
X135287500Y-114575000I-62500J0D01*
G01*
G37*
G36*
G01*
X135287500Y-114075000D02*
X134612500Y-114075000D01*
G75*
G02*
X134550000Y-114012500I0J62500D01*
G01*
X134550000Y-113887500D01*
G75*
G02*
X134612500Y-113825000I62500J0D01*
G01*
X135287500Y-113825000D01*
G75*
G02*
X135350000Y-113887500I0J-62500D01*
G01*
X135350000Y-114012500D01*
G75*
G02*
X135287500Y-114075000I-62500J0D01*
G01*
G37*
G36*
G01*
X135287500Y-113575000D02*
X134612500Y-113575000D01*
G75*
G02*
X134550000Y-113512500I0J62500D01*
G01*
X134550000Y-113387500D01*
G75*
G02*
X134612500Y-113325000I62500J0D01*
G01*
X135287500Y-113325000D01*
G75*
G02*
X135350000Y-113387500I0J-62500D01*
G01*
X135350000Y-113512500D01*
G75*
G02*
X135287500Y-113575000I-62500J0D01*
G01*
G37*
G36*
G01*
X134312500Y-113150000D02*
X134187500Y-113150000D01*
G75*
G02*
X134125000Y-113087500I0J62500D01*
G01*
X134125000Y-112412500D01*
G75*
G02*
X134187500Y-112350000I62500J0D01*
G01*
X134312500Y-112350000D01*
G75*
G02*
X134375000Y-112412500I0J-62500D01*
G01*
X134375000Y-113087500D01*
G75*
G02*
X134312500Y-113150000I-62500J0D01*
G01*
G37*
G36*
G01*
X133812500Y-113150000D02*
X133687500Y-113150000D01*
G75*
G02*
X133625000Y-113087500I0J62500D01*
G01*
X133625000Y-112412500D01*
G75*
G02*
X133687500Y-112350000I62500J0D01*
G01*
X133812500Y-112350000D01*
G75*
G02*
X133875000Y-112412500I0J-62500D01*
G01*
X133875000Y-113087500D01*
G75*
G02*
X133812500Y-113150000I-62500J0D01*
G01*
G37*
G36*
G01*
X133312500Y-113150000D02*
X133187500Y-113150000D01*
G75*
G02*
X133125000Y-113087500I0J62500D01*
G01*
X133125000Y-112412500D01*
G75*
G02*
X133187500Y-112350000I62500J0D01*
G01*
X133312500Y-112350000D01*
G75*
G02*
X133375000Y-112412500I0J-62500D01*
G01*
X133375000Y-113087500D01*
G75*
G02*
X133312500Y-113150000I-62500J0D01*
G01*
G37*
G36*
G01*
X132812500Y-113150000D02*
X132687500Y-113150000D01*
G75*
G02*
X132625000Y-113087500I0J62500D01*
G01*
X132625000Y-112412500D01*
G75*
G02*
X132687500Y-112350000I62500J0D01*
G01*
X132812500Y-112350000D01*
G75*
G02*
X132875000Y-112412500I0J-62500D01*
G01*
X132875000Y-113087500D01*
G75*
G02*
X132812500Y-113150000I-62500J0D01*
G01*
G37*
G36*
G01*
X132312500Y-113150000D02*
X132187500Y-113150000D01*
G75*
G02*
X132125000Y-113087500I0J62500D01*
G01*
X132125000Y-112412500D01*
G75*
G02*
X132187500Y-112350000I62500J0D01*
G01*
X132312500Y-112350000D01*
G75*
G02*
X132375000Y-112412500I0J-62500D01*
G01*
X132375000Y-113087500D01*
G75*
G02*
X132312500Y-113150000I-62500J0D01*
G01*
G37*
G36*
G01*
X131812500Y-113150000D02*
X131687500Y-113150000D01*
G75*
G02*
X131625000Y-113087500I0J62500D01*
G01*
X131625000Y-112412500D01*
G75*
G02*
X131687500Y-112350000I62500J0D01*
G01*
X131812500Y-112350000D01*
G75*
G02*
X131875000Y-112412500I0J-62500D01*
G01*
X131875000Y-113087500D01*
G75*
G02*
X131812500Y-113150000I-62500J0D01*
G01*
G37*
G36*
G01*
X131312500Y-113150000D02*
X131187500Y-113150000D01*
G75*
G02*
X131125000Y-113087500I0J62500D01*
G01*
X131125000Y-112412500D01*
G75*
G02*
X131187500Y-112350000I62500J0D01*
G01*
X131312500Y-112350000D01*
G75*
G02*
X131375000Y-112412500I0J-62500D01*
G01*
X131375000Y-113087500D01*
G75*
G02*
X131312500Y-113150000I-62500J0D01*
G01*
G37*
G36*
G01*
X130812500Y-113150000D02*
X130687500Y-113150000D01*
G75*
G02*
X130625000Y-113087500I0J62500D01*
G01*
X130625000Y-112412500D01*
G75*
G02*
X130687500Y-112350000I62500J0D01*
G01*
X130812500Y-112350000D01*
G75*
G02*
X130875000Y-112412500I0J-62500D01*
G01*
X130875000Y-113087500D01*
G75*
G02*
X130812500Y-113150000I-62500J0D01*
G01*
G37*
G36*
G01*
X130312500Y-113150000D02*
X130187500Y-113150000D01*
G75*
G02*
X130125000Y-113087500I0J62500D01*
G01*
X130125000Y-112412500D01*
G75*
G02*
X130187500Y-112350000I62500J0D01*
G01*
X130312500Y-112350000D01*
G75*
G02*
X130375000Y-112412500I0J-62500D01*
G01*
X130375000Y-113087500D01*
G75*
G02*
X130312500Y-113150000I-62500J0D01*
G01*
G37*
G36*
G01*
X129812500Y-113150000D02*
X129687500Y-113150000D01*
G75*
G02*
X129625000Y-113087500I0J62500D01*
G01*
X129625000Y-112412500D01*
G75*
G02*
X129687500Y-112350000I62500J0D01*
G01*
X129812500Y-112350000D01*
G75*
G02*
X129875000Y-112412500I0J-62500D01*
G01*
X129875000Y-113087500D01*
G75*
G02*
X129812500Y-113150000I-62500J0D01*
G01*
G37*
G36*
G01*
X129312500Y-113150000D02*
X129187500Y-113150000D01*
G75*
G02*
X129125000Y-113087500I0J62500D01*
G01*
X129125000Y-112412500D01*
G75*
G02*
X129187500Y-112350000I62500J0D01*
G01*
X129312500Y-112350000D01*
G75*
G02*
X129375000Y-112412500I0J-62500D01*
G01*
X129375000Y-113087500D01*
G75*
G02*
X129312500Y-113150000I-62500J0D01*
G01*
G37*
G36*
G01*
X128812500Y-113150000D02*
X128687500Y-113150000D01*
G75*
G02*
X128625000Y-113087500I0J62500D01*
G01*
X128625000Y-112412500D01*
G75*
G02*
X128687500Y-112350000I62500J0D01*
G01*
X128812500Y-112350000D01*
G75*
G02*
X128875000Y-112412500I0J-62500D01*
G01*
X128875000Y-113087500D01*
G75*
G02*
X128812500Y-113150000I-62500J0D01*
G01*
G37*
G36*
G01*
X128387500Y-113575000D02*
X127712500Y-113575000D01*
G75*
G02*
X127650000Y-113512500I0J62500D01*
G01*
X127650000Y-113387500D01*
G75*
G02*
X127712500Y-113325000I62500J0D01*
G01*
X128387500Y-113325000D01*
G75*
G02*
X128450000Y-113387500I0J-62500D01*
G01*
X128450000Y-113512500D01*
G75*
G02*
X128387500Y-113575000I-62500J0D01*
G01*
G37*
G36*
G01*
X128387500Y-114075000D02*
X127712500Y-114075000D01*
G75*
G02*
X127650000Y-114012500I0J62500D01*
G01*
X127650000Y-113887500D01*
G75*
G02*
X127712500Y-113825000I62500J0D01*
G01*
X128387500Y-113825000D01*
G75*
G02*
X128450000Y-113887500I0J-62500D01*
G01*
X128450000Y-114012500D01*
G75*
G02*
X128387500Y-114075000I-62500J0D01*
G01*
G37*
G36*
G01*
X128387500Y-114575000D02*
X127712500Y-114575000D01*
G75*
G02*
X127650000Y-114512500I0J62500D01*
G01*
X127650000Y-114387500D01*
G75*
G02*
X127712500Y-114325000I62500J0D01*
G01*
X128387500Y-114325000D01*
G75*
G02*
X128450000Y-114387500I0J-62500D01*
G01*
X128450000Y-114512500D01*
G75*
G02*
X128387500Y-114575000I-62500J0D01*
G01*
G37*
G36*
G01*
X128387500Y-115075000D02*
X127712500Y-115075000D01*
G75*
G02*
X127650000Y-115012500I0J62500D01*
G01*
X127650000Y-114887500D01*
G75*
G02*
X127712500Y-114825000I62500J0D01*
G01*
X128387500Y-114825000D01*
G75*
G02*
X128450000Y-114887500I0J-62500D01*
G01*
X128450000Y-115012500D01*
G75*
G02*
X128387500Y-115075000I-62500J0D01*
G01*
G37*
G36*
G01*
X128387500Y-115575000D02*
X127712500Y-115575000D01*
G75*
G02*
X127650000Y-115512500I0J62500D01*
G01*
X127650000Y-115387500D01*
G75*
G02*
X127712500Y-115325000I62500J0D01*
G01*
X128387500Y-115325000D01*
G75*
G02*
X128450000Y-115387500I0J-62500D01*
G01*
X128450000Y-115512500D01*
G75*
G02*
X128387500Y-115575000I-62500J0D01*
G01*
G37*
G36*
G01*
X128387500Y-116075000D02*
X127712500Y-116075000D01*
G75*
G02*
X127650000Y-116012500I0J62500D01*
G01*
X127650000Y-115887500D01*
G75*
G02*
X127712500Y-115825000I62500J0D01*
G01*
X128387500Y-115825000D01*
G75*
G02*
X128450000Y-115887500I0J-62500D01*
G01*
X128450000Y-116012500D01*
G75*
G02*
X128387500Y-116075000I-62500J0D01*
G01*
G37*
G36*
G01*
X128387500Y-116575000D02*
X127712500Y-116575000D01*
G75*
G02*
X127650000Y-116512500I0J62500D01*
G01*
X127650000Y-116387500D01*
G75*
G02*
X127712500Y-116325000I62500J0D01*
G01*
X128387500Y-116325000D01*
G75*
G02*
X128450000Y-116387500I0J-62500D01*
G01*
X128450000Y-116512500D01*
G75*
G02*
X128387500Y-116575000I-62500J0D01*
G01*
G37*
G36*
G01*
X128387500Y-117075000D02*
X127712500Y-117075000D01*
G75*
G02*
X127650000Y-117012500I0J62500D01*
G01*
X127650000Y-116887500D01*
G75*
G02*
X127712500Y-116825000I62500J0D01*
G01*
X128387500Y-116825000D01*
G75*
G02*
X128450000Y-116887500I0J-62500D01*
G01*
X128450000Y-117012500D01*
G75*
G02*
X128387500Y-117075000I-62500J0D01*
G01*
G37*
G36*
G01*
X128387500Y-117575000D02*
X127712500Y-117575000D01*
G75*
G02*
X127650000Y-117512500I0J62500D01*
G01*
X127650000Y-117387500D01*
G75*
G02*
X127712500Y-117325000I62500J0D01*
G01*
X128387500Y-117325000D01*
G75*
G02*
X128450000Y-117387500I0J-62500D01*
G01*
X128450000Y-117512500D01*
G75*
G02*
X128387500Y-117575000I-62500J0D01*
G01*
G37*
G36*
G01*
X128387500Y-118075000D02*
X127712500Y-118075000D01*
G75*
G02*
X127650000Y-118012500I0J62500D01*
G01*
X127650000Y-117887500D01*
G75*
G02*
X127712500Y-117825000I62500J0D01*
G01*
X128387500Y-117825000D01*
G75*
G02*
X128450000Y-117887500I0J-62500D01*
G01*
X128450000Y-118012500D01*
G75*
G02*
X128387500Y-118075000I-62500J0D01*
G01*
G37*
G36*
G01*
X128387500Y-118575000D02*
X127712500Y-118575000D01*
G75*
G02*
X127650000Y-118512500I0J62500D01*
G01*
X127650000Y-118387500D01*
G75*
G02*
X127712500Y-118325000I62500J0D01*
G01*
X128387500Y-118325000D01*
G75*
G02*
X128450000Y-118387500I0J-62500D01*
G01*
X128450000Y-118512500D01*
G75*
G02*
X128387500Y-118575000I-62500J0D01*
G01*
G37*
G36*
G01*
X128387500Y-119075000D02*
X127712500Y-119075000D01*
G75*
G02*
X127650000Y-119012500I0J62500D01*
G01*
X127650000Y-118887500D01*
G75*
G02*
X127712500Y-118825000I62500J0D01*
G01*
X128387500Y-118825000D01*
G75*
G02*
X128450000Y-118887500I0J-62500D01*
G01*
X128450000Y-119012500D01*
G75*
G02*
X128387500Y-119075000I-62500J0D01*
G01*
G37*
G36*
G01*
X117510000Y-118177500D02*
X117510000Y-118522500D01*
G75*
G02*
X117362500Y-118670000I-147500J0D01*
G01*
X117067500Y-118670000D01*
G75*
G02*
X116920000Y-118522500I0J147500D01*
G01*
X116920000Y-118177500D01*
G75*
G02*
X117067500Y-118030000I147500J0D01*
G01*
X117362500Y-118030000D01*
G75*
G02*
X117510000Y-118177500I0J-147500D01*
G01*
G37*
G36*
G01*
X118480000Y-118177500D02*
X118480000Y-118522500D01*
G75*
G02*
X118332500Y-118670000I-147500J0D01*
G01*
X118037500Y-118670000D01*
G75*
G02*
X117890000Y-118522500I0J147500D01*
G01*
X117890000Y-118177500D01*
G75*
G02*
X118037500Y-118030000I147500J0D01*
G01*
X118332500Y-118030000D01*
G75*
G02*
X118480000Y-118177500I0J-147500D01*
G01*
G37*
G36*
G01*
X116920000Y-119872500D02*
X116920000Y-119527500D01*
G75*
G02*
X117067500Y-119380000I147500J0D01*
G01*
X117362500Y-119380000D01*
G75*
G02*
X117510000Y-119527500I0J-147500D01*
G01*
X117510000Y-119872500D01*
G75*
G02*
X117362500Y-120020000I-147500J0D01*
G01*
X117067500Y-120020000D01*
G75*
G02*
X116920000Y-119872500I0J147500D01*
G01*
G37*
G36*
G01*
X117890000Y-119872500D02*
X117890000Y-119527500D01*
G75*
G02*
X118037500Y-119380000I147500J0D01*
G01*
X118332500Y-119380000D01*
G75*
G02*
X118480000Y-119527500I0J-147500D01*
G01*
X118480000Y-119872500D01*
G75*
G02*
X118332500Y-120020000I-147500J0D01*
G01*
X118037500Y-120020000D01*
G75*
G02*
X117890000Y-119872500I0J147500D01*
G01*
G37*
G36*
G01*
X108844500Y-112617000D02*
X109189500Y-112617000D01*
G75*
G02*
X109337000Y-112764500I0J-147500D01*
G01*
X109337000Y-113059500D01*
G75*
G02*
X109189500Y-113207000I-147500J0D01*
G01*
X108844500Y-113207000D01*
G75*
G02*
X108697000Y-113059500I0J147500D01*
G01*
X108697000Y-112764500D01*
G75*
G02*
X108844500Y-112617000I147500J0D01*
G01*
G37*
G36*
G01*
X108844500Y-113587000D02*
X109189500Y-113587000D01*
G75*
G02*
X109337000Y-113734500I0J-147500D01*
G01*
X109337000Y-114029500D01*
G75*
G02*
X109189500Y-114177000I-147500J0D01*
G01*
X108844500Y-114177000D01*
G75*
G02*
X108697000Y-114029500I0J147500D01*
G01*
X108697000Y-113734500D01*
G75*
G02*
X108844500Y-113587000I147500J0D01*
G01*
G37*
G36*
G01*
X108173500Y-119280000D02*
X107828500Y-119280000D01*
G75*
G02*
X107681000Y-119132500I0J147500D01*
G01*
X107681000Y-118837500D01*
G75*
G02*
X107828500Y-118690000I147500J0D01*
G01*
X108173500Y-118690000D01*
G75*
G02*
X108321000Y-118837500I0J-147500D01*
G01*
X108321000Y-119132500D01*
G75*
G02*
X108173500Y-119280000I-147500J0D01*
G01*
G37*
G36*
G01*
X108173500Y-120250000D02*
X107828500Y-120250000D01*
G75*
G02*
X107681000Y-120102500I0J147500D01*
G01*
X107681000Y-119807500D01*
G75*
G02*
X107828500Y-119660000I147500J0D01*
G01*
X108173500Y-119660000D01*
G75*
G02*
X108321000Y-119807500I0J-147500D01*
G01*
X108321000Y-120102500D01*
G75*
G02*
X108173500Y-120250000I-147500J0D01*
G01*
G37*
G36*
G01*
X116505000Y-119527500D02*
X116505000Y-119872500D01*
G75*
G02*
X116357500Y-120020000I-147500J0D01*
G01*
X116062500Y-120020000D01*
G75*
G02*
X115915000Y-119872500I0J147500D01*
G01*
X115915000Y-119527500D01*
G75*
G02*
X116062500Y-119380000I147500J0D01*
G01*
X116357500Y-119380000D01*
G75*
G02*
X116505000Y-119527500I0J-147500D01*
G01*
G37*
G36*
G01*
X115535000Y-119527500D02*
X115535000Y-119872500D01*
G75*
G02*
X115387500Y-120020000I-147500J0D01*
G01*
X115092500Y-120020000D01*
G75*
G02*
X114945000Y-119872500I0J147500D01*
G01*
X114945000Y-119527500D01*
G75*
G02*
X115092500Y-119380000I147500J0D01*
G01*
X115387500Y-119380000D01*
G75*
G02*
X115535000Y-119527500I0J-147500D01*
G01*
G37*
G36*
G01*
X125427500Y-114190000D02*
X125772500Y-114190000D01*
G75*
G02*
X125920000Y-114337500I0J-147500D01*
G01*
X125920000Y-114632500D01*
G75*
G02*
X125772500Y-114780000I-147500J0D01*
G01*
X125427500Y-114780000D01*
G75*
G02*
X125280000Y-114632500I0J147500D01*
G01*
X125280000Y-114337500D01*
G75*
G02*
X125427500Y-114190000I147500J0D01*
G01*
G37*
G36*
G01*
X125427500Y-113220000D02*
X125772500Y-113220000D01*
G75*
G02*
X125920000Y-113367500I0J-147500D01*
G01*
X125920000Y-113662500D01*
G75*
G02*
X125772500Y-113810000I-147500J0D01*
G01*
X125427500Y-113810000D01*
G75*
G02*
X125280000Y-113662500I0J147500D01*
G01*
X125280000Y-113367500D01*
G75*
G02*
X125427500Y-113220000I147500J0D01*
G01*
G37*
G36*
G01*
X136827500Y-118105000D02*
X137172500Y-118105000D01*
G75*
G02*
X137320000Y-118252500I0J-147500D01*
G01*
X137320000Y-118547500D01*
G75*
G02*
X137172500Y-118695000I-147500J0D01*
G01*
X136827500Y-118695000D01*
G75*
G02*
X136680000Y-118547500I0J147500D01*
G01*
X136680000Y-118252500D01*
G75*
G02*
X136827500Y-118105000I147500J0D01*
G01*
G37*
G36*
G01*
X136827500Y-119075000D02*
X137172500Y-119075000D01*
G75*
G02*
X137320000Y-119222500I0J-147500D01*
G01*
X137320000Y-119517500D01*
G75*
G02*
X137172500Y-119665000I-147500J0D01*
G01*
X136827500Y-119665000D01*
G75*
G02*
X136680000Y-119517500I0J147500D01*
G01*
X136680000Y-119222500D01*
G75*
G02*
X136827500Y-119075000I147500J0D01*
G01*
G37*
G36*
G01*
X113929000Y-119872500D02*
X113929000Y-119527500D01*
G75*
G02*
X114076500Y-119380000I147500J0D01*
G01*
X114371500Y-119380000D01*
G75*
G02*
X114519000Y-119527500I0J-147500D01*
G01*
X114519000Y-119872500D01*
G75*
G02*
X114371500Y-120020000I-147500J0D01*
G01*
X114076500Y-120020000D01*
G75*
G02*
X113929000Y-119872500I0J147500D01*
G01*
G37*
G36*
G01*
X112959000Y-119872500D02*
X112959000Y-119527500D01*
G75*
G02*
X113106500Y-119380000I147500J0D01*
G01*
X113401500Y-119380000D01*
G75*
G02*
X113549000Y-119527500I0J-147500D01*
G01*
X113549000Y-119872500D01*
G75*
G02*
X113401500Y-120020000I-147500J0D01*
G01*
X113106500Y-120020000D01*
G75*
G02*
X112959000Y-119872500I0J147500D01*
G01*
G37*
G36*
G01*
X108364000Y-116617500D02*
X108364000Y-116272500D01*
G75*
G02*
X108511500Y-116125000I147500J0D01*
G01*
X108806500Y-116125000D01*
G75*
G02*
X108954000Y-116272500I0J-147500D01*
G01*
X108954000Y-116617500D01*
G75*
G02*
X108806500Y-116765000I-147500J0D01*
G01*
X108511500Y-116765000D01*
G75*
G02*
X108364000Y-116617500I0J147500D01*
G01*
G37*
G36*
G01*
X109334000Y-116617500D02*
X109334000Y-116272500D01*
G75*
G02*
X109481500Y-116125000I147500J0D01*
G01*
X109776500Y-116125000D01*
G75*
G02*
X109924000Y-116272500I0J-147500D01*
G01*
X109924000Y-116617500D01*
G75*
G02*
X109776500Y-116765000I-147500J0D01*
G01*
X109481500Y-116765000D01*
G75*
G02*
X109334000Y-116617500I0J147500D01*
G01*
G37*
D17*
X137750000Y-115850000D03*
X136450000Y-115850000D03*
X137100000Y-113950000D03*
X137100000Y-115850000D03*
X136450000Y-113950000D03*
X137750000Y-113950000D03*
G36*
G01*
X138127500Y-118105000D02*
X138472500Y-118105000D01*
G75*
G02*
X138620000Y-118252500I0J-147500D01*
G01*
X138620000Y-118547500D01*
G75*
G02*
X138472500Y-118695000I-147500J0D01*
G01*
X138127500Y-118695000D01*
G75*
G02*
X137980000Y-118547500I0J147500D01*
G01*
X137980000Y-118252500D01*
G75*
G02*
X138127500Y-118105000I147500J0D01*
G01*
G37*
G36*
G01*
X138127500Y-119075000D02*
X138472500Y-119075000D01*
G75*
G02*
X138620000Y-119222500I0J-147500D01*
G01*
X138620000Y-119517500D01*
G75*
G02*
X138472500Y-119665000I-147500J0D01*
G01*
X138127500Y-119665000D01*
G75*
G02*
X137980000Y-119517500I0J147500D01*
G01*
X137980000Y-119222500D01*
G75*
G02*
X138127500Y-119075000I147500J0D01*
G01*
G37*
G36*
G01*
X100340000Y-114585500D02*
X100340000Y-114240500D01*
G75*
G02*
X100487500Y-114093000I147500J0D01*
G01*
X100782500Y-114093000D01*
G75*
G02*
X100930000Y-114240500I0J-147500D01*
G01*
X100930000Y-114585500D01*
G75*
G02*
X100782500Y-114733000I-147500J0D01*
G01*
X100487500Y-114733000D01*
G75*
G02*
X100340000Y-114585500I0J147500D01*
G01*
G37*
G36*
G01*
X101310000Y-114585500D02*
X101310000Y-114240500D01*
G75*
G02*
X101457500Y-114093000I147500J0D01*
G01*
X101752500Y-114093000D01*
G75*
G02*
X101900000Y-114240500I0J-147500D01*
G01*
X101900000Y-114585500D01*
G75*
G02*
X101752500Y-114733000I-147500J0D01*
G01*
X101457500Y-114733000D01*
G75*
G02*
X101310000Y-114585500I0J147500D01*
G01*
G37*
G36*
G01*
X104290000Y-101853250D02*
X104290000Y-100940750D01*
G75*
G02*
X104533750Y-100697000I243750J0D01*
G01*
X105021250Y-100697000D01*
G75*
G02*
X105265000Y-100940750I0J-243750D01*
G01*
X105265000Y-101853250D01*
G75*
G02*
X105021250Y-102097000I-243750J0D01*
G01*
X104533750Y-102097000D01*
G75*
G02*
X104290000Y-101853250I0J243750D01*
G01*
G37*
G36*
G01*
X106165000Y-101853250D02*
X106165000Y-100940750D01*
G75*
G02*
X106408750Y-100697000I243750J0D01*
G01*
X106896250Y-100697000D01*
G75*
G02*
X107140000Y-100940750I0J-243750D01*
G01*
X107140000Y-101853250D01*
G75*
G02*
X106896250Y-102097000I-243750J0D01*
G01*
X106408750Y-102097000D01*
G75*
G02*
X106165000Y-101853250I0J243750D01*
G01*
G37*
G36*
G01*
X104290000Y-107949250D02*
X104290000Y-107036750D01*
G75*
G02*
X104533750Y-106793000I243750J0D01*
G01*
X105021250Y-106793000D01*
G75*
G02*
X105265000Y-107036750I0J-243750D01*
G01*
X105265000Y-107949250D01*
G75*
G02*
X105021250Y-108193000I-243750J0D01*
G01*
X104533750Y-108193000D01*
G75*
G02*
X104290000Y-107949250I0J243750D01*
G01*
G37*
G36*
G01*
X106165000Y-107949250D02*
X106165000Y-107036750D01*
G75*
G02*
X106408750Y-106793000I243750J0D01*
G01*
X106896250Y-106793000D01*
G75*
G02*
X107140000Y-107036750I0J-243750D01*
G01*
X107140000Y-107949250D01*
G75*
G02*
X106896250Y-108193000I-243750J0D01*
G01*
X106408750Y-108193000D01*
G75*
G02*
X106165000Y-107949250I0J243750D01*
G01*
G37*
D10*
X107190000Y-105445000D03*
X107190000Y-104945000D03*
X107190000Y-104445000D03*
X107190000Y-103945000D03*
X107190000Y-103445000D03*
X104240000Y-103445000D03*
X104240000Y-103945000D03*
X104240000Y-104445000D03*
X104240000Y-104945000D03*
X104240000Y-105445000D03*
D11*
X105302500Y-103645000D03*
D12*
X105965000Y-105995000D03*
X105965000Y-102895000D03*
X105465000Y-105995000D03*
X105465000Y-102895000D03*
D11*
X106127500Y-103645000D03*
X106127500Y-104445000D03*
X105302500Y-104445000D03*
X106127500Y-105245000D03*
X105302500Y-105245000D03*
G36*
G01*
X112845000Y-105669500D02*
X112845000Y-106014500D01*
G75*
G02*
X112697500Y-106162000I-147500J0D01*
G01*
X112402500Y-106162000D01*
G75*
G02*
X112255000Y-106014500I0J147500D01*
G01*
X112255000Y-105669500D01*
G75*
G02*
X112402500Y-105522000I147500J0D01*
G01*
X112697500Y-105522000D01*
G75*
G02*
X112845000Y-105669500I0J-147500D01*
G01*
G37*
G36*
G01*
X111875000Y-105669500D02*
X111875000Y-106014500D01*
G75*
G02*
X111727500Y-106162000I-147500J0D01*
G01*
X111432500Y-106162000D01*
G75*
G02*
X111285000Y-106014500I0J147500D01*
G01*
X111285000Y-105669500D01*
G75*
G02*
X111432500Y-105522000I147500J0D01*
G01*
X111727500Y-105522000D01*
G75*
G02*
X111875000Y-105669500I0J-147500D01*
G01*
G37*
D13*
X102651000Y-106111000D03*
X102651000Y-104811000D03*
X100651000Y-105461000D03*
G36*
G01*
X126627500Y-101220000D02*
X126972500Y-101220000D01*
G75*
G02*
X127120000Y-101367500I0J-147500D01*
G01*
X127120000Y-101662500D01*
G75*
G02*
X126972500Y-101810000I-147500J0D01*
G01*
X126627500Y-101810000D01*
G75*
G02*
X126480000Y-101662500I0J147500D01*
G01*
X126480000Y-101367500D01*
G75*
G02*
X126627500Y-101220000I147500J0D01*
G01*
G37*
G36*
G01*
X126627500Y-102190000D02*
X126972500Y-102190000D01*
G75*
G02*
X127120000Y-102337500I0J-147500D01*
G01*
X127120000Y-102632500D01*
G75*
G02*
X126972500Y-102780000I-147500J0D01*
G01*
X126627500Y-102780000D01*
G75*
G02*
X126480000Y-102632500I0J147500D01*
G01*
X126480000Y-102337500D01*
G75*
G02*
X126627500Y-102190000I147500J0D01*
G01*
G37*
G36*
G01*
X110904000Y-106967000D02*
X110904000Y-106622000D01*
G75*
G02*
X111051500Y-106474500I147500J0D01*
G01*
X111346500Y-106474500D01*
G75*
G02*
X111494000Y-106622000I0J-147500D01*
G01*
X111494000Y-106967000D01*
G75*
G02*
X111346500Y-107114500I-147500J0D01*
G01*
X111051500Y-107114500D01*
G75*
G02*
X110904000Y-106967000I0J147500D01*
G01*
G37*
G36*
G01*
X111874000Y-106967000D02*
X111874000Y-106622000D01*
G75*
G02*
X112021500Y-106474500I147500J0D01*
G01*
X112316500Y-106474500D01*
G75*
G02*
X112464000Y-106622000I0J-147500D01*
G01*
X112464000Y-106967000D01*
G75*
G02*
X112316500Y-107114500I-147500J0D01*
G01*
X112021500Y-107114500D01*
G75*
G02*
X111874000Y-106967000I0J147500D01*
G01*
G37*
G36*
G01*
X109947000Y-105415500D02*
X109947000Y-105760500D01*
G75*
G02*
X109799500Y-105908000I-147500J0D01*
G01*
X109504500Y-105908000D01*
G75*
G02*
X109357000Y-105760500I0J147500D01*
G01*
X109357000Y-105415500D01*
G75*
G02*
X109504500Y-105268000I147500J0D01*
G01*
X109799500Y-105268000D01*
G75*
G02*
X109947000Y-105415500I0J-147500D01*
G01*
G37*
G36*
G01*
X108977000Y-105415500D02*
X108977000Y-105760500D01*
G75*
G02*
X108829500Y-105908000I-147500J0D01*
G01*
X108534500Y-105908000D01*
G75*
G02*
X108387000Y-105760500I0J147500D01*
G01*
X108387000Y-105415500D01*
G75*
G02*
X108534500Y-105268000I147500J0D01*
G01*
X108829500Y-105268000D01*
G75*
G02*
X108977000Y-105415500I0J-147500D01*
G01*
G37*
G36*
G01*
X139343750Y-106900000D02*
X139856250Y-106900000D01*
G75*
G02*
X140075000Y-107118750I0J-218750D01*
G01*
X140075000Y-107556250D01*
G75*
G02*
X139856250Y-107775000I-218750J0D01*
G01*
X139343750Y-107775000D01*
G75*
G02*
X139125000Y-107556250I0J218750D01*
G01*
X139125000Y-107118750D01*
G75*
G02*
X139343750Y-106900000I218750J0D01*
G01*
G37*
G36*
G01*
X139343750Y-105325000D02*
X139856250Y-105325000D01*
G75*
G02*
X140075000Y-105543750I0J-218750D01*
G01*
X140075000Y-105981250D01*
G75*
G02*
X139856250Y-106200000I-218750J0D01*
G01*
X139343750Y-106200000D01*
G75*
G02*
X139125000Y-105981250I0J218750D01*
G01*
X139125000Y-105543750D01*
G75*
G02*
X139343750Y-105325000I218750J0D01*
G01*
G37*
D14*
X115950000Y-101050000D03*
X115950000Y-102950000D03*
X113750000Y-102950000D03*
X113750000Y-102000000D03*
X113750000Y-101050000D03*
G36*
G01*
X139172500Y-104580000D02*
X138827500Y-104580000D01*
G75*
G02*
X138680000Y-104432500I0J147500D01*
G01*
X138680000Y-104137500D01*
G75*
G02*
X138827500Y-103990000I147500J0D01*
G01*
X139172500Y-103990000D01*
G75*
G02*
X139320000Y-104137500I0J-147500D01*
G01*
X139320000Y-104432500D01*
G75*
G02*
X139172500Y-104580000I-147500J0D01*
G01*
G37*
G36*
G01*
X139172500Y-103610000D02*
X138827500Y-103610000D01*
G75*
G02*
X138680000Y-103462500I0J147500D01*
G01*
X138680000Y-103167500D01*
G75*
G02*
X138827500Y-103020000I147500J0D01*
G01*
X139172500Y-103020000D01*
G75*
G02*
X139320000Y-103167500I0J-147500D01*
G01*
X139320000Y-103462500D01*
G75*
G02*
X139172500Y-103610000I-147500J0D01*
G01*
G37*
G36*
G01*
X100871000Y-103728500D02*
X100871000Y-103383500D01*
G75*
G02*
X101018500Y-103236000I147500J0D01*
G01*
X101313500Y-103236000D01*
G75*
G02*
X101461000Y-103383500I0J-147500D01*
G01*
X101461000Y-103728500D01*
G75*
G02*
X101313500Y-103876000I-147500J0D01*
G01*
X101018500Y-103876000D01*
G75*
G02*
X100871000Y-103728500I0J147500D01*
G01*
G37*
G36*
G01*
X101841000Y-103728500D02*
X101841000Y-103383500D01*
G75*
G02*
X101988500Y-103236000I147500J0D01*
G01*
X102283500Y-103236000D01*
G75*
G02*
X102431000Y-103383500I0J-147500D01*
G01*
X102431000Y-103728500D01*
G75*
G02*
X102283500Y-103876000I-147500J0D01*
G01*
X101988500Y-103876000D01*
G75*
G02*
X101841000Y-103728500I0J147500D01*
G01*
G37*
G36*
G01*
X111621000Y-100970500D02*
X111621000Y-101315500D01*
G75*
G02*
X111473500Y-101463000I-147500J0D01*
G01*
X111178500Y-101463000D01*
G75*
G02*
X111031000Y-101315500I0J147500D01*
G01*
X111031000Y-100970500D01*
G75*
G02*
X111178500Y-100823000I147500J0D01*
G01*
X111473500Y-100823000D01*
G75*
G02*
X111621000Y-100970500I0J-147500D01*
G01*
G37*
G36*
G01*
X112591000Y-100970500D02*
X112591000Y-101315500D01*
G75*
G02*
X112443500Y-101463000I-147500J0D01*
G01*
X112148500Y-101463000D01*
G75*
G02*
X112001000Y-101315500I0J147500D01*
G01*
X112001000Y-100970500D01*
G75*
G02*
X112148500Y-100823000I147500J0D01*
G01*
X112443500Y-100823000D01*
G75*
G02*
X112591000Y-100970500I0J-147500D01*
G01*
G37*
D15*
X111161000Y-104810000D03*
X112461000Y-104810000D03*
X111811000Y-102810000D03*
G36*
G01*
X109860500Y-106713000D02*
X110205500Y-106713000D01*
G75*
G02*
X110353000Y-106860500I0J-147500D01*
G01*
X110353000Y-107155500D01*
G75*
G02*
X110205500Y-107303000I-147500J0D01*
G01*
X109860500Y-107303000D01*
G75*
G02*
X109713000Y-107155500I0J147500D01*
G01*
X109713000Y-106860500D01*
G75*
G02*
X109860500Y-106713000I147500J0D01*
G01*
G37*
G36*
G01*
X109860500Y-107683000D02*
X110205500Y-107683000D01*
G75*
G02*
X110353000Y-107830500I0J-147500D01*
G01*
X110353000Y-108125500D01*
G75*
G02*
X110205500Y-108273000I-147500J0D01*
G01*
X109860500Y-108273000D01*
G75*
G02*
X109713000Y-108125500I0J147500D01*
G01*
X109713000Y-107830500D01*
G75*
G02*
X109860500Y-107683000I147500J0D01*
G01*
G37*
G36*
G01*
X109189500Y-108250000D02*
X108844500Y-108250000D01*
G75*
G02*
X108697000Y-108102500I0J147500D01*
G01*
X108697000Y-107807500D01*
G75*
G02*
X108844500Y-107660000I147500J0D01*
G01*
X109189500Y-107660000D01*
G75*
G02*
X109337000Y-107807500I0J-147500D01*
G01*
X109337000Y-108102500D01*
G75*
G02*
X109189500Y-108250000I-147500J0D01*
G01*
G37*
G36*
G01*
X109189500Y-107280000D02*
X108844500Y-107280000D01*
G75*
G02*
X108697000Y-107132500I0J147500D01*
G01*
X108697000Y-106837500D01*
G75*
G02*
X108844500Y-106690000I147500J0D01*
G01*
X109189500Y-106690000D01*
G75*
G02*
X109337000Y-106837500I0J-147500D01*
G01*
X109337000Y-107132500D01*
G75*
G02*
X109189500Y-107280000I-147500J0D01*
G01*
G37*
G36*
G01*
X115040000Y-106522500D02*
X115040000Y-106177500D01*
G75*
G02*
X115187500Y-106030000I147500J0D01*
G01*
X115482500Y-106030000D01*
G75*
G02*
X115630000Y-106177500I0J-147500D01*
G01*
X115630000Y-106522500D01*
G75*
G02*
X115482500Y-106670000I-147500J0D01*
G01*
X115187500Y-106670000D01*
G75*
G02*
X115040000Y-106522500I0J147500D01*
G01*
G37*
G36*
G01*
X114070000Y-106522500D02*
X114070000Y-106177500D01*
G75*
G02*
X114217500Y-106030000I147500J0D01*
G01*
X114512500Y-106030000D01*
G75*
G02*
X114660000Y-106177500I0J-147500D01*
G01*
X114660000Y-106522500D01*
G75*
G02*
X114512500Y-106670000I-147500J0D01*
G01*
X114217500Y-106670000D01*
G75*
G02*
X114070000Y-106522500I0J147500D01*
G01*
G37*
G36*
G01*
X107828500Y-100617000D02*
X108173500Y-100617000D01*
G75*
G02*
X108321000Y-100764500I0J-147500D01*
G01*
X108321000Y-101059500D01*
G75*
G02*
X108173500Y-101207000I-147500J0D01*
G01*
X107828500Y-101207000D01*
G75*
G02*
X107681000Y-101059500I0J147500D01*
G01*
X107681000Y-100764500D01*
G75*
G02*
X107828500Y-100617000I147500J0D01*
G01*
G37*
G36*
G01*
X107828500Y-101587000D02*
X108173500Y-101587000D01*
G75*
G02*
X108321000Y-101734500I0J-147500D01*
G01*
X108321000Y-102029500D01*
G75*
G02*
X108173500Y-102177000I-147500J0D01*
G01*
X107828500Y-102177000D01*
G75*
G02*
X107681000Y-102029500I0J147500D01*
G01*
X107681000Y-101734500D01*
G75*
G02*
X107828500Y-101587000I147500J0D01*
G01*
G37*
D16*
X143050000Y-106132000D03*
X143050000Y-102400000D03*
G36*
G01*
X110205500Y-103828000D02*
X109860500Y-103828000D01*
G75*
G02*
X109713000Y-103680500I0J147500D01*
G01*
X109713000Y-103385500D01*
G75*
G02*
X109860500Y-103238000I147500J0D01*
G01*
X110205500Y-103238000D01*
G75*
G02*
X110353000Y-103385500I0J-147500D01*
G01*
X110353000Y-103680500D01*
G75*
G02*
X110205500Y-103828000I-147500J0D01*
G01*
G37*
G36*
G01*
X110205500Y-102858000D02*
X109860500Y-102858000D01*
G75*
G02*
X109713000Y-102710500I0J147500D01*
G01*
X109713000Y-102415500D01*
G75*
G02*
X109860500Y-102268000I147500J0D01*
G01*
X110205500Y-102268000D01*
G75*
G02*
X110353000Y-102415500I0J-147500D01*
G01*
X110353000Y-102710500D01*
G75*
G02*
X110205500Y-102858000I-147500J0D01*
G01*
G37*
G36*
G01*
X114070000Y-105172500D02*
X114070000Y-104827500D01*
G75*
G02*
X114217500Y-104680000I147500J0D01*
G01*
X114512500Y-104680000D01*
G75*
G02*
X114660000Y-104827500I0J-147500D01*
G01*
X114660000Y-105172500D01*
G75*
G02*
X114512500Y-105320000I-147500J0D01*
G01*
X114217500Y-105320000D01*
G75*
G02*
X114070000Y-105172500I0J147500D01*
G01*
G37*
G36*
G01*
X115040000Y-105172500D02*
X115040000Y-104827500D01*
G75*
G02*
X115187500Y-104680000I147500J0D01*
G01*
X115482500Y-104680000D01*
G75*
G02*
X115630000Y-104827500I0J-147500D01*
G01*
X115630000Y-105172500D01*
G75*
G02*
X115482500Y-105320000I-147500J0D01*
G01*
X115187500Y-105320000D01*
G75*
G02*
X115040000Y-105172500I0J147500D01*
G01*
G37*
G36*
G01*
X121724999Y-104825000D02*
X122275001Y-104825000D01*
G75*
G02*
X122525000Y-105074999I0J-249999D01*
G01*
X122525000Y-105625001D01*
G75*
G02*
X122275001Y-105875000I-249999J0D01*
G01*
X121724999Y-105875000D01*
G75*
G02*
X121475000Y-105625001I0J249999D01*
G01*
X121475000Y-105074999D01*
G75*
G02*
X121724999Y-104825000I249999J0D01*
G01*
G37*
G36*
G01*
X120424999Y-104825000D02*
X120975001Y-104825000D01*
G75*
G02*
X121225000Y-105074999I0J-249999D01*
G01*
X121225000Y-105625001D01*
G75*
G02*
X120975001Y-105875000I-249999J0D01*
G01*
X120424999Y-105875000D01*
G75*
G02*
X120175000Y-105625001I0J249999D01*
G01*
X120175000Y-105074999D01*
G75*
G02*
X120424999Y-104825000I249999J0D01*
G01*
G37*
G36*
G01*
X121724999Y-106125000D02*
X122275001Y-106125000D01*
G75*
G02*
X122525000Y-106374999I0J-249999D01*
G01*
X122525000Y-106925001D01*
G75*
G02*
X122275001Y-107175000I-249999J0D01*
G01*
X121724999Y-107175000D01*
G75*
G02*
X121475000Y-106925001I0J249999D01*
G01*
X121475000Y-106374999D01*
G75*
G02*
X121724999Y-106125000I249999J0D01*
G01*
G37*
G36*
G01*
X120424999Y-106125000D02*
X120975001Y-106125000D01*
G75*
G02*
X121225000Y-106374999I0J-249999D01*
G01*
X121225000Y-106925001D01*
G75*
G02*
X120975001Y-107175000I-249999J0D01*
G01*
X120424999Y-107175000D01*
G75*
G02*
X120175000Y-106925001I0J249999D01*
G01*
X120175000Y-106374999D01*
G75*
G02*
X120424999Y-106125000I249999J0D01*
G01*
G37*
G36*
G01*
X122537500Y-103650000D02*
X122662500Y-103650000D01*
G75*
G02*
X122725000Y-103712500I0J-62500D01*
G01*
X122725000Y-104412500D01*
G75*
G02*
X122662500Y-104475000I-62500J0D01*
G01*
X122537500Y-104475000D01*
G75*
G02*
X122475000Y-104412500I0J62500D01*
G01*
X122475000Y-103712500D01*
G75*
G02*
X122537500Y-103650000I62500J0D01*
G01*
G37*
G36*
G01*
X122037500Y-103650000D02*
X122162500Y-103650000D01*
G75*
G02*
X122225000Y-103712500I0J-62500D01*
G01*
X122225000Y-104412500D01*
G75*
G02*
X122162500Y-104475000I-62500J0D01*
G01*
X122037500Y-104475000D01*
G75*
G02*
X121975000Y-104412500I0J62500D01*
G01*
X121975000Y-103712500D01*
G75*
G02*
X122037500Y-103650000I62500J0D01*
G01*
G37*
G36*
G01*
X121537500Y-103650000D02*
X121662500Y-103650000D01*
G75*
G02*
X121725000Y-103712500I0J-62500D01*
G01*
X121725000Y-104412500D01*
G75*
G02*
X121662500Y-104475000I-62500J0D01*
G01*
X121537500Y-104475000D01*
G75*
G02*
X121475000Y-104412500I0J62500D01*
G01*
X121475000Y-103712500D01*
G75*
G02*
X121537500Y-103650000I62500J0D01*
G01*
G37*
G36*
G01*
X121037500Y-103650000D02*
X121162500Y-103650000D01*
G75*
G02*
X121225000Y-103712500I0J-62500D01*
G01*
X121225000Y-104412500D01*
G75*
G02*
X121162500Y-104475000I-62500J0D01*
G01*
X121037500Y-104475000D01*
G75*
G02*
X120975000Y-104412500I0J62500D01*
G01*
X120975000Y-103712500D01*
G75*
G02*
X121037500Y-103650000I62500J0D01*
G01*
G37*
G36*
G01*
X120537500Y-103650000D02*
X120662500Y-103650000D01*
G75*
G02*
X120725000Y-103712500I0J-62500D01*
G01*
X120725000Y-104412500D01*
G75*
G02*
X120662500Y-104475000I-62500J0D01*
G01*
X120537500Y-104475000D01*
G75*
G02*
X120475000Y-104412500I0J62500D01*
G01*
X120475000Y-103712500D01*
G75*
G02*
X120537500Y-103650000I62500J0D01*
G01*
G37*
G36*
G01*
X120037500Y-103650000D02*
X120162500Y-103650000D01*
G75*
G02*
X120225000Y-103712500I0J-62500D01*
G01*
X120225000Y-104412500D01*
G75*
G02*
X120162500Y-104475000I-62500J0D01*
G01*
X120037500Y-104475000D01*
G75*
G02*
X119975000Y-104412500I0J62500D01*
G01*
X119975000Y-103712500D01*
G75*
G02*
X120037500Y-103650000I62500J0D01*
G01*
G37*
G36*
G01*
X119062500Y-104625000D02*
X119762500Y-104625000D01*
G75*
G02*
X119825000Y-104687500I0J-62500D01*
G01*
X119825000Y-104812500D01*
G75*
G02*
X119762500Y-104875000I-62500J0D01*
G01*
X119062500Y-104875000D01*
G75*
G02*
X119000000Y-104812500I0J62500D01*
G01*
X119000000Y-104687500D01*
G75*
G02*
X119062500Y-104625000I62500J0D01*
G01*
G37*
G36*
G01*
X119062500Y-105125000D02*
X119762500Y-105125000D01*
G75*
G02*
X119825000Y-105187500I0J-62500D01*
G01*
X119825000Y-105312500D01*
G75*
G02*
X119762500Y-105375000I-62500J0D01*
G01*
X119062500Y-105375000D01*
G75*
G02*
X119000000Y-105312500I0J62500D01*
G01*
X119000000Y-105187500D01*
G75*
G02*
X119062500Y-105125000I62500J0D01*
G01*
G37*
G36*
G01*
X119062500Y-105625000D02*
X119762500Y-105625000D01*
G75*
G02*
X119825000Y-105687500I0J-62500D01*
G01*
X119825000Y-105812500D01*
G75*
G02*
X119762500Y-105875000I-62500J0D01*
G01*
X119062500Y-105875000D01*
G75*
G02*
X119000000Y-105812500I0J62500D01*
G01*
X119000000Y-105687500D01*
G75*
G02*
X119062500Y-105625000I62500J0D01*
G01*
G37*
G36*
G01*
X119062500Y-106125000D02*
X119762500Y-106125000D01*
G75*
G02*
X119825000Y-106187500I0J-62500D01*
G01*
X119825000Y-106312500D01*
G75*
G02*
X119762500Y-106375000I-62500J0D01*
G01*
X119062500Y-106375000D01*
G75*
G02*
X119000000Y-106312500I0J62500D01*
G01*
X119000000Y-106187500D01*
G75*
G02*
X119062500Y-106125000I62500J0D01*
G01*
G37*
G36*
G01*
X119062500Y-106625000D02*
X119762500Y-106625000D01*
G75*
G02*
X119825000Y-106687500I0J-62500D01*
G01*
X119825000Y-106812500D01*
G75*
G02*
X119762500Y-106875000I-62500J0D01*
G01*
X119062500Y-106875000D01*
G75*
G02*
X119000000Y-106812500I0J62500D01*
G01*
X119000000Y-106687500D01*
G75*
G02*
X119062500Y-106625000I62500J0D01*
G01*
G37*
G36*
G01*
X119062500Y-107125000D02*
X119762500Y-107125000D01*
G75*
G02*
X119825000Y-107187500I0J-62500D01*
G01*
X119825000Y-107312500D01*
G75*
G02*
X119762500Y-107375000I-62500J0D01*
G01*
X119062500Y-107375000D01*
G75*
G02*
X119000000Y-107312500I0J62500D01*
G01*
X119000000Y-107187500D01*
G75*
G02*
X119062500Y-107125000I62500J0D01*
G01*
G37*
G36*
G01*
X120037500Y-107525000D02*
X120162500Y-107525000D01*
G75*
G02*
X120225000Y-107587500I0J-62500D01*
G01*
X120225000Y-108287500D01*
G75*
G02*
X120162500Y-108350000I-62500J0D01*
G01*
X120037500Y-108350000D01*
G75*
G02*
X119975000Y-108287500I0J62500D01*
G01*
X119975000Y-107587500D01*
G75*
G02*
X120037500Y-107525000I62500J0D01*
G01*
G37*
G36*
G01*
X120537500Y-107525000D02*
X120662500Y-107525000D01*
G75*
G02*
X120725000Y-107587500I0J-62500D01*
G01*
X120725000Y-108287500D01*
G75*
G02*
X120662500Y-108350000I-62500J0D01*
G01*
X120537500Y-108350000D01*
G75*
G02*
X120475000Y-108287500I0J62500D01*
G01*
X120475000Y-107587500D01*
G75*
G02*
X120537500Y-107525000I62500J0D01*
G01*
G37*
G36*
G01*
X121037500Y-107525000D02*
X121162500Y-107525000D01*
G75*
G02*
X121225000Y-107587500I0J-62500D01*
G01*
X121225000Y-108287500D01*
G75*
G02*
X121162500Y-108350000I-62500J0D01*
G01*
X121037500Y-108350000D01*
G75*
G02*
X120975000Y-108287500I0J62500D01*
G01*
X120975000Y-107587500D01*
G75*
G02*
X121037500Y-107525000I62500J0D01*
G01*
G37*
G36*
G01*
X121537500Y-107525000D02*
X121662500Y-107525000D01*
G75*
G02*
X121725000Y-107587500I0J-62500D01*
G01*
X121725000Y-108287500D01*
G75*
G02*
X121662500Y-108350000I-62500J0D01*
G01*
X121537500Y-108350000D01*
G75*
G02*
X121475000Y-108287500I0J62500D01*
G01*
X121475000Y-107587500D01*
G75*
G02*
X121537500Y-107525000I62500J0D01*
G01*
G37*
G36*
G01*
X122037500Y-107525000D02*
X122162500Y-107525000D01*
G75*
G02*
X122225000Y-107587500I0J-62500D01*
G01*
X122225000Y-108287500D01*
G75*
G02*
X122162500Y-108350000I-62500J0D01*
G01*
X122037500Y-108350000D01*
G75*
G02*
X121975000Y-108287500I0J62500D01*
G01*
X121975000Y-107587500D01*
G75*
G02*
X122037500Y-107525000I62500J0D01*
G01*
G37*
G36*
G01*
X122537500Y-107525000D02*
X122662500Y-107525000D01*
G75*
G02*
X122725000Y-107587500I0J-62500D01*
G01*
X122725000Y-108287500D01*
G75*
G02*
X122662500Y-108350000I-62500J0D01*
G01*
X122537500Y-108350000D01*
G75*
G02*
X122475000Y-108287500I0J62500D01*
G01*
X122475000Y-107587500D01*
G75*
G02*
X122537500Y-107525000I62500J0D01*
G01*
G37*
G36*
G01*
X122937500Y-107125000D02*
X123637500Y-107125000D01*
G75*
G02*
X123700000Y-107187500I0J-62500D01*
G01*
X123700000Y-107312500D01*
G75*
G02*
X123637500Y-107375000I-62500J0D01*
G01*
X122937500Y-107375000D01*
G75*
G02*
X122875000Y-107312500I0J62500D01*
G01*
X122875000Y-107187500D01*
G75*
G02*
X122937500Y-107125000I62500J0D01*
G01*
G37*
G36*
G01*
X122937500Y-106625000D02*
X123637500Y-106625000D01*
G75*
G02*
X123700000Y-106687500I0J-62500D01*
G01*
X123700000Y-106812500D01*
G75*
G02*
X123637500Y-106875000I-62500J0D01*
G01*
X122937500Y-106875000D01*
G75*
G02*
X122875000Y-106812500I0J62500D01*
G01*
X122875000Y-106687500D01*
G75*
G02*
X122937500Y-106625000I62500J0D01*
G01*
G37*
G36*
G01*
X122937500Y-106125000D02*
X123637500Y-106125000D01*
G75*
G02*
X123700000Y-106187500I0J-62500D01*
G01*
X123700000Y-106312500D01*
G75*
G02*
X123637500Y-106375000I-62500J0D01*
G01*
X122937500Y-106375000D01*
G75*
G02*
X122875000Y-106312500I0J62500D01*
G01*
X122875000Y-106187500D01*
G75*
G02*
X122937500Y-106125000I62500J0D01*
G01*
G37*
G36*
G01*
X122937500Y-105625000D02*
X123637500Y-105625000D01*
G75*
G02*
X123700000Y-105687500I0J-62500D01*
G01*
X123700000Y-105812500D01*
G75*
G02*
X123637500Y-105875000I-62500J0D01*
G01*
X122937500Y-105875000D01*
G75*
G02*
X122875000Y-105812500I0J62500D01*
G01*
X122875000Y-105687500D01*
G75*
G02*
X122937500Y-105625000I62500J0D01*
G01*
G37*
G36*
G01*
X122937500Y-105125000D02*
X123637500Y-105125000D01*
G75*
G02*
X123700000Y-105187500I0J-62500D01*
G01*
X123700000Y-105312500D01*
G75*
G02*
X123637500Y-105375000I-62500J0D01*
G01*
X122937500Y-105375000D01*
G75*
G02*
X122875000Y-105312500I0J62500D01*
G01*
X122875000Y-105187500D01*
G75*
G02*
X122937500Y-105125000I62500J0D01*
G01*
G37*
G36*
G01*
X122937500Y-104625000D02*
X123637500Y-104625000D01*
G75*
G02*
X123700000Y-104687500I0J-62500D01*
G01*
X123700000Y-104812500D01*
G75*
G02*
X123637500Y-104875000I-62500J0D01*
G01*
X122937500Y-104875000D01*
G75*
G02*
X122875000Y-104812500I0J62500D01*
G01*
X122875000Y-104687500D01*
G75*
G02*
X122937500Y-104625000I62500J0D01*
G01*
G37*
G36*
G01*
X131125000Y-105395000D02*
X130555000Y-105395000D01*
G75*
G02*
X130305000Y-105145000I0J250000D01*
G01*
X130305000Y-104575000D01*
G75*
G02*
X130555000Y-104325000I250000J0D01*
G01*
X131125000Y-104325000D01*
G75*
G02*
X131375000Y-104575000I0J-250000D01*
G01*
X131375000Y-105145000D01*
G75*
G02*
X131125000Y-105395000I-250000J0D01*
G01*
G37*
G36*
G01*
X132445000Y-105395000D02*
X131875000Y-105395000D01*
G75*
G02*
X131625000Y-105145000I0J250000D01*
G01*
X131625000Y-104575000D01*
G75*
G02*
X131875000Y-104325000I250000J0D01*
G01*
X132445000Y-104325000D01*
G75*
G02*
X132695000Y-104575000I0J-250000D01*
G01*
X132695000Y-105145000D01*
G75*
G02*
X132445000Y-105395000I-250000J0D01*
G01*
G37*
G36*
G01*
X131125000Y-104075000D02*
X130555000Y-104075000D01*
G75*
G02*
X130305000Y-103825000I0J250000D01*
G01*
X130305000Y-103255000D01*
G75*
G02*
X130555000Y-103005000I250000J0D01*
G01*
X131125000Y-103005000D01*
G75*
G02*
X131375000Y-103255000I0J-250000D01*
G01*
X131375000Y-103825000D01*
G75*
G02*
X131125000Y-104075000I-250000J0D01*
G01*
G37*
G36*
G01*
X132445000Y-104075000D02*
X131875000Y-104075000D01*
G75*
G02*
X131625000Y-103825000I0J250000D01*
G01*
X131625000Y-103255000D01*
G75*
G02*
X131875000Y-103005000I250000J0D01*
G01*
X132445000Y-103005000D01*
G75*
G02*
X132695000Y-103255000I0J-250000D01*
G01*
X132695000Y-103825000D01*
G75*
G02*
X132445000Y-104075000I-250000J0D01*
G01*
G37*
G36*
G01*
X128812500Y-108050000D02*
X128687500Y-108050000D01*
G75*
G02*
X128625000Y-107987500I0J62500D01*
G01*
X128625000Y-107312500D01*
G75*
G02*
X128687500Y-107250000I62500J0D01*
G01*
X128812500Y-107250000D01*
G75*
G02*
X128875000Y-107312500I0J-62500D01*
G01*
X128875000Y-107987500D01*
G75*
G02*
X128812500Y-108050000I-62500J0D01*
G01*
G37*
G36*
G01*
X129312500Y-108050000D02*
X129187500Y-108050000D01*
G75*
G02*
X129125000Y-107987500I0J62500D01*
G01*
X129125000Y-107312500D01*
G75*
G02*
X129187500Y-107250000I62500J0D01*
G01*
X129312500Y-107250000D01*
G75*
G02*
X129375000Y-107312500I0J-62500D01*
G01*
X129375000Y-107987500D01*
G75*
G02*
X129312500Y-108050000I-62500J0D01*
G01*
G37*
G36*
G01*
X129812500Y-108050000D02*
X129687500Y-108050000D01*
G75*
G02*
X129625000Y-107987500I0J62500D01*
G01*
X129625000Y-107312500D01*
G75*
G02*
X129687500Y-107250000I62500J0D01*
G01*
X129812500Y-107250000D01*
G75*
G02*
X129875000Y-107312500I0J-62500D01*
G01*
X129875000Y-107987500D01*
G75*
G02*
X129812500Y-108050000I-62500J0D01*
G01*
G37*
G36*
G01*
X130312500Y-108050000D02*
X130187500Y-108050000D01*
G75*
G02*
X130125000Y-107987500I0J62500D01*
G01*
X130125000Y-107312500D01*
G75*
G02*
X130187500Y-107250000I62500J0D01*
G01*
X130312500Y-107250000D01*
G75*
G02*
X130375000Y-107312500I0J-62500D01*
G01*
X130375000Y-107987500D01*
G75*
G02*
X130312500Y-108050000I-62500J0D01*
G01*
G37*
G36*
G01*
X130812500Y-108050000D02*
X130687500Y-108050000D01*
G75*
G02*
X130625000Y-107987500I0J62500D01*
G01*
X130625000Y-107312500D01*
G75*
G02*
X130687500Y-107250000I62500J0D01*
G01*
X130812500Y-107250000D01*
G75*
G02*
X130875000Y-107312500I0J-62500D01*
G01*
X130875000Y-107987500D01*
G75*
G02*
X130812500Y-108050000I-62500J0D01*
G01*
G37*
G36*
G01*
X131312500Y-108050000D02*
X131187500Y-108050000D01*
G75*
G02*
X131125000Y-107987500I0J62500D01*
G01*
X131125000Y-107312500D01*
G75*
G02*
X131187500Y-107250000I62500J0D01*
G01*
X131312500Y-107250000D01*
G75*
G02*
X131375000Y-107312500I0J-62500D01*
G01*
X131375000Y-107987500D01*
G75*
G02*
X131312500Y-108050000I-62500J0D01*
G01*
G37*
G36*
G01*
X131812500Y-108050000D02*
X131687500Y-108050000D01*
G75*
G02*
X131625000Y-107987500I0J62500D01*
G01*
X131625000Y-107312500D01*
G75*
G02*
X131687500Y-107250000I62500J0D01*
G01*
X131812500Y-107250000D01*
G75*
G02*
X131875000Y-107312500I0J-62500D01*
G01*
X131875000Y-107987500D01*
G75*
G02*
X131812500Y-108050000I-62500J0D01*
G01*
G37*
G36*
G01*
X132312500Y-108050000D02*
X132187500Y-108050000D01*
G75*
G02*
X132125000Y-107987500I0J62500D01*
G01*
X132125000Y-107312500D01*
G75*
G02*
X132187500Y-107250000I62500J0D01*
G01*
X132312500Y-107250000D01*
G75*
G02*
X132375000Y-107312500I0J-62500D01*
G01*
X132375000Y-107987500D01*
G75*
G02*
X132312500Y-108050000I-62500J0D01*
G01*
G37*
G36*
G01*
X132812500Y-108050000D02*
X132687500Y-108050000D01*
G75*
G02*
X132625000Y-107987500I0J62500D01*
G01*
X132625000Y-107312500D01*
G75*
G02*
X132687500Y-107250000I62500J0D01*
G01*
X132812500Y-107250000D01*
G75*
G02*
X132875000Y-107312500I0J-62500D01*
G01*
X132875000Y-107987500D01*
G75*
G02*
X132812500Y-108050000I-62500J0D01*
G01*
G37*
G36*
G01*
X133312500Y-108050000D02*
X133187500Y-108050000D01*
G75*
G02*
X133125000Y-107987500I0J62500D01*
G01*
X133125000Y-107312500D01*
G75*
G02*
X133187500Y-107250000I62500J0D01*
G01*
X133312500Y-107250000D01*
G75*
G02*
X133375000Y-107312500I0J-62500D01*
G01*
X133375000Y-107987500D01*
G75*
G02*
X133312500Y-108050000I-62500J0D01*
G01*
G37*
G36*
G01*
X133812500Y-108050000D02*
X133687500Y-108050000D01*
G75*
G02*
X133625000Y-107987500I0J62500D01*
G01*
X133625000Y-107312500D01*
G75*
G02*
X133687500Y-107250000I62500J0D01*
G01*
X133812500Y-107250000D01*
G75*
G02*
X133875000Y-107312500I0J-62500D01*
G01*
X133875000Y-107987500D01*
G75*
G02*
X133812500Y-108050000I-62500J0D01*
G01*
G37*
G36*
G01*
X134312500Y-108050000D02*
X134187500Y-108050000D01*
G75*
G02*
X134125000Y-107987500I0J62500D01*
G01*
X134125000Y-107312500D01*
G75*
G02*
X134187500Y-107250000I62500J0D01*
G01*
X134312500Y-107250000D01*
G75*
G02*
X134375000Y-107312500I0J-62500D01*
G01*
X134375000Y-107987500D01*
G75*
G02*
X134312500Y-108050000I-62500J0D01*
G01*
G37*
G36*
G01*
X135287500Y-107075000D02*
X134612500Y-107075000D01*
G75*
G02*
X134550000Y-107012500I0J62500D01*
G01*
X134550000Y-106887500D01*
G75*
G02*
X134612500Y-106825000I62500J0D01*
G01*
X135287500Y-106825000D01*
G75*
G02*
X135350000Y-106887500I0J-62500D01*
G01*
X135350000Y-107012500D01*
G75*
G02*
X135287500Y-107075000I-62500J0D01*
G01*
G37*
G36*
G01*
X135287500Y-106575000D02*
X134612500Y-106575000D01*
G75*
G02*
X134550000Y-106512500I0J62500D01*
G01*
X134550000Y-106387500D01*
G75*
G02*
X134612500Y-106325000I62500J0D01*
G01*
X135287500Y-106325000D01*
G75*
G02*
X135350000Y-106387500I0J-62500D01*
G01*
X135350000Y-106512500D01*
G75*
G02*
X135287500Y-106575000I-62500J0D01*
G01*
G37*
G36*
G01*
X135287500Y-106075000D02*
X134612500Y-106075000D01*
G75*
G02*
X134550000Y-106012500I0J62500D01*
G01*
X134550000Y-105887500D01*
G75*
G02*
X134612500Y-105825000I62500J0D01*
G01*
X135287500Y-105825000D01*
G75*
G02*
X135350000Y-105887500I0J-62500D01*
G01*
X135350000Y-106012500D01*
G75*
G02*
X135287500Y-106075000I-62500J0D01*
G01*
G37*
G36*
G01*
X135287500Y-105575000D02*
X134612500Y-105575000D01*
G75*
G02*
X134550000Y-105512500I0J62500D01*
G01*
X134550000Y-105387500D01*
G75*
G02*
X134612500Y-105325000I62500J0D01*
G01*
X135287500Y-105325000D01*
G75*
G02*
X135350000Y-105387500I0J-62500D01*
G01*
X135350000Y-105512500D01*
G75*
G02*
X135287500Y-105575000I-62500J0D01*
G01*
G37*
G36*
G01*
X135287500Y-105075000D02*
X134612500Y-105075000D01*
G75*
G02*
X134550000Y-105012500I0J62500D01*
G01*
X134550000Y-104887500D01*
G75*
G02*
X134612500Y-104825000I62500J0D01*
G01*
X135287500Y-104825000D01*
G75*
G02*
X135350000Y-104887500I0J-62500D01*
G01*
X135350000Y-105012500D01*
G75*
G02*
X135287500Y-105075000I-62500J0D01*
G01*
G37*
G36*
G01*
X135287500Y-104575000D02*
X134612500Y-104575000D01*
G75*
G02*
X134550000Y-104512500I0J62500D01*
G01*
X134550000Y-104387500D01*
G75*
G02*
X134612500Y-104325000I62500J0D01*
G01*
X135287500Y-104325000D01*
G75*
G02*
X135350000Y-104387500I0J-62500D01*
G01*
X135350000Y-104512500D01*
G75*
G02*
X135287500Y-104575000I-62500J0D01*
G01*
G37*
G36*
G01*
X135287500Y-104075000D02*
X134612500Y-104075000D01*
G75*
G02*
X134550000Y-104012500I0J62500D01*
G01*
X134550000Y-103887500D01*
G75*
G02*
X134612500Y-103825000I62500J0D01*
G01*
X135287500Y-103825000D01*
G75*
G02*
X135350000Y-103887500I0J-62500D01*
G01*
X135350000Y-104012500D01*
G75*
G02*
X135287500Y-104075000I-62500J0D01*
G01*
G37*
G36*
G01*
X135287500Y-103575000D02*
X134612500Y-103575000D01*
G75*
G02*
X134550000Y-103512500I0J62500D01*
G01*
X134550000Y-103387500D01*
G75*
G02*
X134612500Y-103325000I62500J0D01*
G01*
X135287500Y-103325000D01*
G75*
G02*
X135350000Y-103387500I0J-62500D01*
G01*
X135350000Y-103512500D01*
G75*
G02*
X135287500Y-103575000I-62500J0D01*
G01*
G37*
G36*
G01*
X135287500Y-103075000D02*
X134612500Y-103075000D01*
G75*
G02*
X134550000Y-103012500I0J62500D01*
G01*
X134550000Y-102887500D01*
G75*
G02*
X134612500Y-102825000I62500J0D01*
G01*
X135287500Y-102825000D01*
G75*
G02*
X135350000Y-102887500I0J-62500D01*
G01*
X135350000Y-103012500D01*
G75*
G02*
X135287500Y-103075000I-62500J0D01*
G01*
G37*
G36*
G01*
X135287500Y-102575000D02*
X134612500Y-102575000D01*
G75*
G02*
X134550000Y-102512500I0J62500D01*
G01*
X134550000Y-102387500D01*
G75*
G02*
X134612500Y-102325000I62500J0D01*
G01*
X135287500Y-102325000D01*
G75*
G02*
X135350000Y-102387500I0J-62500D01*
G01*
X135350000Y-102512500D01*
G75*
G02*
X135287500Y-102575000I-62500J0D01*
G01*
G37*
G36*
G01*
X135287500Y-102075000D02*
X134612500Y-102075000D01*
G75*
G02*
X134550000Y-102012500I0J62500D01*
G01*
X134550000Y-101887500D01*
G75*
G02*
X134612500Y-101825000I62500J0D01*
G01*
X135287500Y-101825000D01*
G75*
G02*
X135350000Y-101887500I0J-62500D01*
G01*
X135350000Y-102012500D01*
G75*
G02*
X135287500Y-102075000I-62500J0D01*
G01*
G37*
G36*
G01*
X135287500Y-101575000D02*
X134612500Y-101575000D01*
G75*
G02*
X134550000Y-101512500I0J62500D01*
G01*
X134550000Y-101387500D01*
G75*
G02*
X134612500Y-101325000I62500J0D01*
G01*
X135287500Y-101325000D01*
G75*
G02*
X135350000Y-101387500I0J-62500D01*
G01*
X135350000Y-101512500D01*
G75*
G02*
X135287500Y-101575000I-62500J0D01*
G01*
G37*
G36*
G01*
X134312500Y-101150000D02*
X134187500Y-101150000D01*
G75*
G02*
X134125000Y-101087500I0J62500D01*
G01*
X134125000Y-100412500D01*
G75*
G02*
X134187500Y-100350000I62500J0D01*
G01*
X134312500Y-100350000D01*
G75*
G02*
X134375000Y-100412500I0J-62500D01*
G01*
X134375000Y-101087500D01*
G75*
G02*
X134312500Y-101150000I-62500J0D01*
G01*
G37*
G36*
G01*
X133812500Y-101150000D02*
X133687500Y-101150000D01*
G75*
G02*
X133625000Y-101087500I0J62500D01*
G01*
X133625000Y-100412500D01*
G75*
G02*
X133687500Y-100350000I62500J0D01*
G01*
X133812500Y-100350000D01*
G75*
G02*
X133875000Y-100412500I0J-62500D01*
G01*
X133875000Y-101087500D01*
G75*
G02*
X133812500Y-101150000I-62500J0D01*
G01*
G37*
G36*
G01*
X133312500Y-101150000D02*
X133187500Y-101150000D01*
G75*
G02*
X133125000Y-101087500I0J62500D01*
G01*
X133125000Y-100412500D01*
G75*
G02*
X133187500Y-100350000I62500J0D01*
G01*
X133312500Y-100350000D01*
G75*
G02*
X133375000Y-100412500I0J-62500D01*
G01*
X133375000Y-101087500D01*
G75*
G02*
X133312500Y-101150000I-62500J0D01*
G01*
G37*
G36*
G01*
X132812500Y-101150000D02*
X132687500Y-101150000D01*
G75*
G02*
X132625000Y-101087500I0J62500D01*
G01*
X132625000Y-100412500D01*
G75*
G02*
X132687500Y-100350000I62500J0D01*
G01*
X132812500Y-100350000D01*
G75*
G02*
X132875000Y-100412500I0J-62500D01*
G01*
X132875000Y-101087500D01*
G75*
G02*
X132812500Y-101150000I-62500J0D01*
G01*
G37*
G36*
G01*
X132312500Y-101150000D02*
X132187500Y-101150000D01*
G75*
G02*
X132125000Y-101087500I0J62500D01*
G01*
X132125000Y-100412500D01*
G75*
G02*
X132187500Y-100350000I62500J0D01*
G01*
X132312500Y-100350000D01*
G75*
G02*
X132375000Y-100412500I0J-62500D01*
G01*
X132375000Y-101087500D01*
G75*
G02*
X132312500Y-101150000I-62500J0D01*
G01*
G37*
G36*
G01*
X131812500Y-101150000D02*
X131687500Y-101150000D01*
G75*
G02*
X131625000Y-101087500I0J62500D01*
G01*
X131625000Y-100412500D01*
G75*
G02*
X131687500Y-100350000I62500J0D01*
G01*
X131812500Y-100350000D01*
G75*
G02*
X131875000Y-100412500I0J-62500D01*
G01*
X131875000Y-101087500D01*
G75*
G02*
X131812500Y-101150000I-62500J0D01*
G01*
G37*
G36*
G01*
X131312500Y-101150000D02*
X131187500Y-101150000D01*
G75*
G02*
X131125000Y-101087500I0J62500D01*
G01*
X131125000Y-100412500D01*
G75*
G02*
X131187500Y-100350000I62500J0D01*
G01*
X131312500Y-100350000D01*
G75*
G02*
X131375000Y-100412500I0J-62500D01*
G01*
X131375000Y-101087500D01*
G75*
G02*
X131312500Y-101150000I-62500J0D01*
G01*
G37*
G36*
G01*
X130812500Y-101150000D02*
X130687500Y-101150000D01*
G75*
G02*
X130625000Y-101087500I0J62500D01*
G01*
X130625000Y-100412500D01*
G75*
G02*
X130687500Y-100350000I62500J0D01*
G01*
X130812500Y-100350000D01*
G75*
G02*
X130875000Y-100412500I0J-62500D01*
G01*
X130875000Y-101087500D01*
G75*
G02*
X130812500Y-101150000I-62500J0D01*
G01*
G37*
G36*
G01*
X130312500Y-101150000D02*
X130187500Y-101150000D01*
G75*
G02*
X130125000Y-101087500I0J62500D01*
G01*
X130125000Y-100412500D01*
G75*
G02*
X130187500Y-100350000I62500J0D01*
G01*
X130312500Y-100350000D01*
G75*
G02*
X130375000Y-100412500I0J-62500D01*
G01*
X130375000Y-101087500D01*
G75*
G02*
X130312500Y-101150000I-62500J0D01*
G01*
G37*
G36*
G01*
X129812500Y-101150000D02*
X129687500Y-101150000D01*
G75*
G02*
X129625000Y-101087500I0J62500D01*
G01*
X129625000Y-100412500D01*
G75*
G02*
X129687500Y-100350000I62500J0D01*
G01*
X129812500Y-100350000D01*
G75*
G02*
X129875000Y-100412500I0J-62500D01*
G01*
X129875000Y-101087500D01*
G75*
G02*
X129812500Y-101150000I-62500J0D01*
G01*
G37*
G36*
G01*
X129312500Y-101150000D02*
X129187500Y-101150000D01*
G75*
G02*
X129125000Y-101087500I0J62500D01*
G01*
X129125000Y-100412500D01*
G75*
G02*
X129187500Y-100350000I62500J0D01*
G01*
X129312500Y-100350000D01*
G75*
G02*
X129375000Y-100412500I0J-62500D01*
G01*
X129375000Y-101087500D01*
G75*
G02*
X129312500Y-101150000I-62500J0D01*
G01*
G37*
G36*
G01*
X128812500Y-101150000D02*
X128687500Y-101150000D01*
G75*
G02*
X128625000Y-101087500I0J62500D01*
G01*
X128625000Y-100412500D01*
G75*
G02*
X128687500Y-100350000I62500J0D01*
G01*
X128812500Y-100350000D01*
G75*
G02*
X128875000Y-100412500I0J-62500D01*
G01*
X128875000Y-101087500D01*
G75*
G02*
X128812500Y-101150000I-62500J0D01*
G01*
G37*
G36*
G01*
X128387500Y-101575000D02*
X127712500Y-101575000D01*
G75*
G02*
X127650000Y-101512500I0J62500D01*
G01*
X127650000Y-101387500D01*
G75*
G02*
X127712500Y-101325000I62500J0D01*
G01*
X128387500Y-101325000D01*
G75*
G02*
X128450000Y-101387500I0J-62500D01*
G01*
X128450000Y-101512500D01*
G75*
G02*
X128387500Y-101575000I-62500J0D01*
G01*
G37*
G36*
G01*
X128387500Y-102075000D02*
X127712500Y-102075000D01*
G75*
G02*
X127650000Y-102012500I0J62500D01*
G01*
X127650000Y-101887500D01*
G75*
G02*
X127712500Y-101825000I62500J0D01*
G01*
X128387500Y-101825000D01*
G75*
G02*
X128450000Y-101887500I0J-62500D01*
G01*
X128450000Y-102012500D01*
G75*
G02*
X128387500Y-102075000I-62500J0D01*
G01*
G37*
G36*
G01*
X128387500Y-102575000D02*
X127712500Y-102575000D01*
G75*
G02*
X127650000Y-102512500I0J62500D01*
G01*
X127650000Y-102387500D01*
G75*
G02*
X127712500Y-102325000I62500J0D01*
G01*
X128387500Y-102325000D01*
G75*
G02*
X128450000Y-102387500I0J-62500D01*
G01*
X128450000Y-102512500D01*
G75*
G02*
X128387500Y-102575000I-62500J0D01*
G01*
G37*
G36*
G01*
X128387500Y-103075000D02*
X127712500Y-103075000D01*
G75*
G02*
X127650000Y-103012500I0J62500D01*
G01*
X127650000Y-102887500D01*
G75*
G02*
X127712500Y-102825000I62500J0D01*
G01*
X128387500Y-102825000D01*
G75*
G02*
X128450000Y-102887500I0J-62500D01*
G01*
X128450000Y-103012500D01*
G75*
G02*
X128387500Y-103075000I-62500J0D01*
G01*
G37*
G36*
G01*
X128387500Y-103575000D02*
X127712500Y-103575000D01*
G75*
G02*
X127650000Y-103512500I0J62500D01*
G01*
X127650000Y-103387500D01*
G75*
G02*
X127712500Y-103325000I62500J0D01*
G01*
X128387500Y-103325000D01*
G75*
G02*
X128450000Y-103387500I0J-62500D01*
G01*
X128450000Y-103512500D01*
G75*
G02*
X128387500Y-103575000I-62500J0D01*
G01*
G37*
G36*
G01*
X128387500Y-104075000D02*
X127712500Y-104075000D01*
G75*
G02*
X127650000Y-104012500I0J62500D01*
G01*
X127650000Y-103887500D01*
G75*
G02*
X127712500Y-103825000I62500J0D01*
G01*
X128387500Y-103825000D01*
G75*
G02*
X128450000Y-103887500I0J-62500D01*
G01*
X128450000Y-104012500D01*
G75*
G02*
X128387500Y-104075000I-62500J0D01*
G01*
G37*
G36*
G01*
X128387500Y-104575000D02*
X127712500Y-104575000D01*
G75*
G02*
X127650000Y-104512500I0J62500D01*
G01*
X127650000Y-104387500D01*
G75*
G02*
X127712500Y-104325000I62500J0D01*
G01*
X128387500Y-104325000D01*
G75*
G02*
X128450000Y-104387500I0J-62500D01*
G01*
X128450000Y-104512500D01*
G75*
G02*
X128387500Y-104575000I-62500J0D01*
G01*
G37*
G36*
G01*
X128387500Y-105075000D02*
X127712500Y-105075000D01*
G75*
G02*
X127650000Y-105012500I0J62500D01*
G01*
X127650000Y-104887500D01*
G75*
G02*
X127712500Y-104825000I62500J0D01*
G01*
X128387500Y-104825000D01*
G75*
G02*
X128450000Y-104887500I0J-62500D01*
G01*
X128450000Y-105012500D01*
G75*
G02*
X128387500Y-105075000I-62500J0D01*
G01*
G37*
G36*
G01*
X128387500Y-105575000D02*
X127712500Y-105575000D01*
G75*
G02*
X127650000Y-105512500I0J62500D01*
G01*
X127650000Y-105387500D01*
G75*
G02*
X127712500Y-105325000I62500J0D01*
G01*
X128387500Y-105325000D01*
G75*
G02*
X128450000Y-105387500I0J-62500D01*
G01*
X128450000Y-105512500D01*
G75*
G02*
X128387500Y-105575000I-62500J0D01*
G01*
G37*
G36*
G01*
X128387500Y-106075000D02*
X127712500Y-106075000D01*
G75*
G02*
X127650000Y-106012500I0J62500D01*
G01*
X127650000Y-105887500D01*
G75*
G02*
X127712500Y-105825000I62500J0D01*
G01*
X128387500Y-105825000D01*
G75*
G02*
X128450000Y-105887500I0J-62500D01*
G01*
X128450000Y-106012500D01*
G75*
G02*
X128387500Y-106075000I-62500J0D01*
G01*
G37*
G36*
G01*
X128387500Y-106575000D02*
X127712500Y-106575000D01*
G75*
G02*
X127650000Y-106512500I0J62500D01*
G01*
X127650000Y-106387500D01*
G75*
G02*
X127712500Y-106325000I62500J0D01*
G01*
X128387500Y-106325000D01*
G75*
G02*
X128450000Y-106387500I0J-62500D01*
G01*
X128450000Y-106512500D01*
G75*
G02*
X128387500Y-106575000I-62500J0D01*
G01*
G37*
G36*
G01*
X128387500Y-107075000D02*
X127712500Y-107075000D01*
G75*
G02*
X127650000Y-107012500I0J62500D01*
G01*
X127650000Y-106887500D01*
G75*
G02*
X127712500Y-106825000I62500J0D01*
G01*
X128387500Y-106825000D01*
G75*
G02*
X128450000Y-106887500I0J-62500D01*
G01*
X128450000Y-107012500D01*
G75*
G02*
X128387500Y-107075000I-62500J0D01*
G01*
G37*
G36*
G01*
X117510000Y-106177500D02*
X117510000Y-106522500D01*
G75*
G02*
X117362500Y-106670000I-147500J0D01*
G01*
X117067500Y-106670000D01*
G75*
G02*
X116920000Y-106522500I0J147500D01*
G01*
X116920000Y-106177500D01*
G75*
G02*
X117067500Y-106030000I147500J0D01*
G01*
X117362500Y-106030000D01*
G75*
G02*
X117510000Y-106177500I0J-147500D01*
G01*
G37*
G36*
G01*
X118480000Y-106177500D02*
X118480000Y-106522500D01*
G75*
G02*
X118332500Y-106670000I-147500J0D01*
G01*
X118037500Y-106670000D01*
G75*
G02*
X117890000Y-106522500I0J147500D01*
G01*
X117890000Y-106177500D01*
G75*
G02*
X118037500Y-106030000I147500J0D01*
G01*
X118332500Y-106030000D01*
G75*
G02*
X118480000Y-106177500I0J-147500D01*
G01*
G37*
G36*
G01*
X116920000Y-107872500D02*
X116920000Y-107527500D01*
G75*
G02*
X117067500Y-107380000I147500J0D01*
G01*
X117362500Y-107380000D01*
G75*
G02*
X117510000Y-107527500I0J-147500D01*
G01*
X117510000Y-107872500D01*
G75*
G02*
X117362500Y-108020000I-147500J0D01*
G01*
X117067500Y-108020000D01*
G75*
G02*
X116920000Y-107872500I0J147500D01*
G01*
G37*
G36*
G01*
X117890000Y-107872500D02*
X117890000Y-107527500D01*
G75*
G02*
X118037500Y-107380000I147500J0D01*
G01*
X118332500Y-107380000D01*
G75*
G02*
X118480000Y-107527500I0J-147500D01*
G01*
X118480000Y-107872500D01*
G75*
G02*
X118332500Y-108020000I-147500J0D01*
G01*
X118037500Y-108020000D01*
G75*
G02*
X117890000Y-107872500I0J147500D01*
G01*
G37*
G36*
G01*
X108844500Y-100617000D02*
X109189500Y-100617000D01*
G75*
G02*
X109337000Y-100764500I0J-147500D01*
G01*
X109337000Y-101059500D01*
G75*
G02*
X109189500Y-101207000I-147500J0D01*
G01*
X108844500Y-101207000D01*
G75*
G02*
X108697000Y-101059500I0J147500D01*
G01*
X108697000Y-100764500D01*
G75*
G02*
X108844500Y-100617000I147500J0D01*
G01*
G37*
G36*
G01*
X108844500Y-101587000D02*
X109189500Y-101587000D01*
G75*
G02*
X109337000Y-101734500I0J-147500D01*
G01*
X109337000Y-102029500D01*
G75*
G02*
X109189500Y-102177000I-147500J0D01*
G01*
X108844500Y-102177000D01*
G75*
G02*
X108697000Y-102029500I0J147500D01*
G01*
X108697000Y-101734500D01*
G75*
G02*
X108844500Y-101587000I147500J0D01*
G01*
G37*
G36*
G01*
X108173500Y-107280000D02*
X107828500Y-107280000D01*
G75*
G02*
X107681000Y-107132500I0J147500D01*
G01*
X107681000Y-106837500D01*
G75*
G02*
X107828500Y-106690000I147500J0D01*
G01*
X108173500Y-106690000D01*
G75*
G02*
X108321000Y-106837500I0J-147500D01*
G01*
X108321000Y-107132500D01*
G75*
G02*
X108173500Y-107280000I-147500J0D01*
G01*
G37*
G36*
G01*
X108173500Y-108250000D02*
X107828500Y-108250000D01*
G75*
G02*
X107681000Y-108102500I0J147500D01*
G01*
X107681000Y-107807500D01*
G75*
G02*
X107828500Y-107660000I147500J0D01*
G01*
X108173500Y-107660000D01*
G75*
G02*
X108321000Y-107807500I0J-147500D01*
G01*
X108321000Y-108102500D01*
G75*
G02*
X108173500Y-108250000I-147500J0D01*
G01*
G37*
G36*
G01*
X116505000Y-107527500D02*
X116505000Y-107872500D01*
G75*
G02*
X116357500Y-108020000I-147500J0D01*
G01*
X116062500Y-108020000D01*
G75*
G02*
X115915000Y-107872500I0J147500D01*
G01*
X115915000Y-107527500D01*
G75*
G02*
X116062500Y-107380000I147500J0D01*
G01*
X116357500Y-107380000D01*
G75*
G02*
X116505000Y-107527500I0J-147500D01*
G01*
G37*
G36*
G01*
X115535000Y-107527500D02*
X115535000Y-107872500D01*
G75*
G02*
X115387500Y-108020000I-147500J0D01*
G01*
X115092500Y-108020000D01*
G75*
G02*
X114945000Y-107872500I0J147500D01*
G01*
X114945000Y-107527500D01*
G75*
G02*
X115092500Y-107380000I147500J0D01*
G01*
X115387500Y-107380000D01*
G75*
G02*
X115535000Y-107527500I0J-147500D01*
G01*
G37*
G36*
G01*
X125427500Y-102190000D02*
X125772500Y-102190000D01*
G75*
G02*
X125920000Y-102337500I0J-147500D01*
G01*
X125920000Y-102632500D01*
G75*
G02*
X125772500Y-102780000I-147500J0D01*
G01*
X125427500Y-102780000D01*
G75*
G02*
X125280000Y-102632500I0J147500D01*
G01*
X125280000Y-102337500D01*
G75*
G02*
X125427500Y-102190000I147500J0D01*
G01*
G37*
G36*
G01*
X125427500Y-101220000D02*
X125772500Y-101220000D01*
G75*
G02*
X125920000Y-101367500I0J-147500D01*
G01*
X125920000Y-101662500D01*
G75*
G02*
X125772500Y-101810000I-147500J0D01*
G01*
X125427500Y-101810000D01*
G75*
G02*
X125280000Y-101662500I0J147500D01*
G01*
X125280000Y-101367500D01*
G75*
G02*
X125427500Y-101220000I147500J0D01*
G01*
G37*
G36*
G01*
X136827500Y-106105000D02*
X137172500Y-106105000D01*
G75*
G02*
X137320000Y-106252500I0J-147500D01*
G01*
X137320000Y-106547500D01*
G75*
G02*
X137172500Y-106695000I-147500J0D01*
G01*
X136827500Y-106695000D01*
G75*
G02*
X136680000Y-106547500I0J147500D01*
G01*
X136680000Y-106252500D01*
G75*
G02*
X136827500Y-106105000I147500J0D01*
G01*
G37*
G36*
G01*
X136827500Y-107075000D02*
X137172500Y-107075000D01*
G75*
G02*
X137320000Y-107222500I0J-147500D01*
G01*
X137320000Y-107517500D01*
G75*
G02*
X137172500Y-107665000I-147500J0D01*
G01*
X136827500Y-107665000D01*
G75*
G02*
X136680000Y-107517500I0J147500D01*
G01*
X136680000Y-107222500D01*
G75*
G02*
X136827500Y-107075000I147500J0D01*
G01*
G37*
G36*
G01*
X113929000Y-107872500D02*
X113929000Y-107527500D01*
G75*
G02*
X114076500Y-107380000I147500J0D01*
G01*
X114371500Y-107380000D01*
G75*
G02*
X114519000Y-107527500I0J-147500D01*
G01*
X114519000Y-107872500D01*
G75*
G02*
X114371500Y-108020000I-147500J0D01*
G01*
X114076500Y-108020000D01*
G75*
G02*
X113929000Y-107872500I0J147500D01*
G01*
G37*
G36*
G01*
X112959000Y-107872500D02*
X112959000Y-107527500D01*
G75*
G02*
X113106500Y-107380000I147500J0D01*
G01*
X113401500Y-107380000D01*
G75*
G02*
X113549000Y-107527500I0J-147500D01*
G01*
X113549000Y-107872500D01*
G75*
G02*
X113401500Y-108020000I-147500J0D01*
G01*
X113106500Y-108020000D01*
G75*
G02*
X112959000Y-107872500I0J147500D01*
G01*
G37*
G36*
G01*
X108364000Y-104617500D02*
X108364000Y-104272500D01*
G75*
G02*
X108511500Y-104125000I147500J0D01*
G01*
X108806500Y-104125000D01*
G75*
G02*
X108954000Y-104272500I0J-147500D01*
G01*
X108954000Y-104617500D01*
G75*
G02*
X108806500Y-104765000I-147500J0D01*
G01*
X108511500Y-104765000D01*
G75*
G02*
X108364000Y-104617500I0J147500D01*
G01*
G37*
G36*
G01*
X109334000Y-104617500D02*
X109334000Y-104272500D01*
G75*
G02*
X109481500Y-104125000I147500J0D01*
G01*
X109776500Y-104125000D01*
G75*
G02*
X109924000Y-104272500I0J-147500D01*
G01*
X109924000Y-104617500D01*
G75*
G02*
X109776500Y-104765000I-147500J0D01*
G01*
X109481500Y-104765000D01*
G75*
G02*
X109334000Y-104617500I0J147500D01*
G01*
G37*
D17*
X137750000Y-103850000D03*
X136450000Y-103850000D03*
X137100000Y-101950000D03*
X137100000Y-103850000D03*
X136450000Y-101950000D03*
X137750000Y-101950000D03*
G36*
G01*
X138127500Y-106105000D02*
X138472500Y-106105000D01*
G75*
G02*
X138620000Y-106252500I0J-147500D01*
G01*
X138620000Y-106547500D01*
G75*
G02*
X138472500Y-106695000I-147500J0D01*
G01*
X138127500Y-106695000D01*
G75*
G02*
X137980000Y-106547500I0J147500D01*
G01*
X137980000Y-106252500D01*
G75*
G02*
X138127500Y-106105000I147500J0D01*
G01*
G37*
G36*
G01*
X138127500Y-107075000D02*
X138472500Y-107075000D01*
G75*
G02*
X138620000Y-107222500I0J-147500D01*
G01*
X138620000Y-107517500D01*
G75*
G02*
X138472500Y-107665000I-147500J0D01*
G01*
X138127500Y-107665000D01*
G75*
G02*
X137980000Y-107517500I0J147500D01*
G01*
X137980000Y-107222500D01*
G75*
G02*
X138127500Y-107075000I147500J0D01*
G01*
G37*
G36*
G01*
X100340000Y-102585500D02*
X100340000Y-102240500D01*
G75*
G02*
X100487500Y-102093000I147500J0D01*
G01*
X100782500Y-102093000D01*
G75*
G02*
X100930000Y-102240500I0J-147500D01*
G01*
X100930000Y-102585500D01*
G75*
G02*
X100782500Y-102733000I-147500J0D01*
G01*
X100487500Y-102733000D01*
G75*
G02*
X100340000Y-102585500I0J147500D01*
G01*
G37*
G36*
G01*
X101310000Y-102585500D02*
X101310000Y-102240500D01*
G75*
G02*
X101457500Y-102093000I147500J0D01*
G01*
X101752500Y-102093000D01*
G75*
G02*
X101900000Y-102240500I0J-147500D01*
G01*
X101900000Y-102585500D01*
G75*
G02*
X101752500Y-102733000I-147500J0D01*
G01*
X101457500Y-102733000D01*
G75*
G02*
X101310000Y-102585500I0J147500D01*
G01*
G37*
D18*
X93350000Y-116500000D03*
X152600000Y-116500000D03*
X152600000Y-104500000D03*
X93350000Y-104500000D03*
M02*
