G04 #@! TF.GenerationSoftware,KiCad,Pcbnew,(5.1.6)-1*
G04 #@! TF.CreationDate,2020-08-02T19:24:28+02:00*
G04 #@! TF.ProjectId,panelized,70616e65-6c69-47a6-9564-2e6b69636164,rev?*
G04 #@! TF.SameCoordinates,Original*
G04 #@! TF.FileFunction,Soldermask,Bot*
G04 #@! TF.FilePolarity,Negative*
%FSLAX46Y46*%
G04 Gerber Fmt 4.6, Leading zero omitted, Abs format (unit mm)*
G04 Created by KiCad (PCBNEW (5.1.6)-1) date 2020-08-02 19:24:28*
%MOMM*%
%LPD*%
G01*
G04 APERTURE LIST*
%ADD10C,0.101600*%
G04 APERTURE END LIST*
D10*
G36*
X145951000Y-120951000D02*
G01*
X144249000Y-120951000D01*
X144249000Y-119249000D01*
X145951000Y-119249000D01*
X145951000Y-120951000D01*
G37*
G36*
X101751000Y-120951000D02*
G01*
X100049000Y-120951000D01*
X100049000Y-119249000D01*
X101751000Y-119249000D01*
X101751000Y-120951000D01*
G37*
G36*
X98187797Y-118210567D02*
G01*
X98242575Y-118233257D01*
X98242577Y-118233258D01*
X98291876Y-118266198D01*
X98333802Y-118308124D01*
X98366742Y-118357423D01*
X98366743Y-118357425D01*
X98389433Y-118412203D01*
X98401000Y-118470353D01*
X98401000Y-118529647D01*
X98389433Y-118587797D01*
X98366743Y-118642575D01*
X98366742Y-118642577D01*
X98333802Y-118691876D01*
X98291876Y-118733802D01*
X98242577Y-118766742D01*
X98242576Y-118766743D01*
X98242575Y-118766743D01*
X98187797Y-118789433D01*
X98129647Y-118801000D01*
X98070353Y-118801000D01*
X98012203Y-118789433D01*
X97957425Y-118766743D01*
X97957424Y-118766743D01*
X97957423Y-118766742D01*
X97908124Y-118733802D01*
X97866198Y-118691876D01*
X97833258Y-118642577D01*
X97833257Y-118642575D01*
X97810567Y-118587797D01*
X97799000Y-118529647D01*
X97799000Y-118470353D01*
X97810567Y-118412203D01*
X97833257Y-118357425D01*
X97833258Y-118357423D01*
X97866198Y-118308124D01*
X97908124Y-118266198D01*
X97957423Y-118233258D01*
X97957425Y-118233257D01*
X98012203Y-118210567D01*
X98070353Y-118199000D01*
X98129647Y-118199000D01*
X98187797Y-118210567D01*
G37*
G36*
X147937797Y-118210567D02*
G01*
X147992575Y-118233257D01*
X147992577Y-118233258D01*
X148041876Y-118266198D01*
X148083802Y-118308124D01*
X148116742Y-118357423D01*
X148116743Y-118357425D01*
X148139433Y-118412203D01*
X148151000Y-118470353D01*
X148151000Y-118529647D01*
X148139433Y-118587797D01*
X148116743Y-118642575D01*
X148116742Y-118642577D01*
X148083802Y-118691876D01*
X148041876Y-118733802D01*
X147992577Y-118766742D01*
X147992576Y-118766743D01*
X147992575Y-118766743D01*
X147937797Y-118789433D01*
X147879647Y-118801000D01*
X147820353Y-118801000D01*
X147762203Y-118789433D01*
X147707425Y-118766743D01*
X147707424Y-118766743D01*
X147707423Y-118766742D01*
X147658124Y-118733802D01*
X147616198Y-118691876D01*
X147583258Y-118642577D01*
X147583257Y-118642575D01*
X147560567Y-118587797D01*
X147549000Y-118529647D01*
X147549000Y-118470353D01*
X147560567Y-118412203D01*
X147583257Y-118357425D01*
X147583258Y-118357423D01*
X147616198Y-118308124D01*
X147658124Y-118266198D01*
X147707423Y-118233258D01*
X147707425Y-118233257D01*
X147762203Y-118210567D01*
X147820353Y-118199000D01*
X147879647Y-118199000D01*
X147937797Y-118210567D01*
G37*
G36*
X93652585Y-114978802D02*
G01*
X93802410Y-115008604D01*
X94084674Y-115125521D01*
X94338705Y-115295259D01*
X94554741Y-115511295D01*
X94724479Y-115765326D01*
X94841396Y-116047590D01*
X94841396Y-116047591D01*
X94901000Y-116347239D01*
X94901000Y-116652761D01*
X94884880Y-116733802D01*
X94841396Y-116952410D01*
X94724479Y-117234674D01*
X94554741Y-117488705D01*
X94338705Y-117704741D01*
X94084674Y-117874479D01*
X93802410Y-117991396D01*
X93652585Y-118021198D01*
X93502761Y-118051000D01*
X93197239Y-118051000D01*
X93047415Y-118021198D01*
X92897590Y-117991396D01*
X92615326Y-117874479D01*
X92361295Y-117704741D01*
X92145259Y-117488705D01*
X91975521Y-117234674D01*
X91858604Y-116952410D01*
X91815120Y-116733802D01*
X91799000Y-116652761D01*
X91799000Y-116347239D01*
X91858604Y-116047591D01*
X91858604Y-116047590D01*
X91975521Y-115765326D01*
X92145259Y-115511295D01*
X92361295Y-115295259D01*
X92615326Y-115125521D01*
X92897590Y-115008604D01*
X93047415Y-114978802D01*
X93197239Y-114949000D01*
X93502761Y-114949000D01*
X93652585Y-114978802D01*
G37*
G36*
X152902585Y-114978802D02*
G01*
X153052410Y-115008604D01*
X153334674Y-115125521D01*
X153588705Y-115295259D01*
X153804741Y-115511295D01*
X153974479Y-115765326D01*
X154091396Y-116047590D01*
X154091396Y-116047591D01*
X154151000Y-116347239D01*
X154151000Y-116652761D01*
X154134880Y-116733802D01*
X154091396Y-116952410D01*
X153974479Y-117234674D01*
X153804741Y-117488705D01*
X153588705Y-117704741D01*
X153334674Y-117874479D01*
X153052410Y-117991396D01*
X152902585Y-118021198D01*
X152752761Y-118051000D01*
X152447239Y-118051000D01*
X152297415Y-118021198D01*
X152147590Y-117991396D01*
X151865326Y-117874479D01*
X151611295Y-117704741D01*
X151395259Y-117488705D01*
X151225521Y-117234674D01*
X151108604Y-116952410D01*
X151065120Y-116733802D01*
X151049000Y-116652761D01*
X151049000Y-116347239D01*
X151108604Y-116047591D01*
X151108604Y-116047590D01*
X151225521Y-115765326D01*
X151395259Y-115511295D01*
X151611295Y-115295259D01*
X151865326Y-115125521D01*
X152147590Y-115008604D01*
X152297415Y-114978802D01*
X152447239Y-114949000D01*
X152752761Y-114949000D01*
X152902585Y-114978802D01*
G37*
G36*
X147937797Y-117210567D02*
G01*
X147992575Y-117233257D01*
X147992577Y-117233258D01*
X148041876Y-117266198D01*
X148083802Y-117308124D01*
X148116742Y-117357423D01*
X148116743Y-117357425D01*
X148139433Y-117412203D01*
X148151000Y-117470353D01*
X148151000Y-117529647D01*
X148139433Y-117587797D01*
X148116743Y-117642575D01*
X148116742Y-117642577D01*
X148083802Y-117691876D01*
X148041876Y-117733802D01*
X147992577Y-117766742D01*
X147992576Y-117766743D01*
X147992575Y-117766743D01*
X147937797Y-117789433D01*
X147879647Y-117801000D01*
X147820353Y-117801000D01*
X147762203Y-117789433D01*
X147707425Y-117766743D01*
X147707424Y-117766743D01*
X147707423Y-117766742D01*
X147658124Y-117733802D01*
X147616198Y-117691876D01*
X147583258Y-117642577D01*
X147583257Y-117642575D01*
X147560567Y-117587797D01*
X147549000Y-117529647D01*
X147549000Y-117470353D01*
X147560567Y-117412203D01*
X147583257Y-117357425D01*
X147583258Y-117357423D01*
X147616198Y-117308124D01*
X147658124Y-117266198D01*
X147707423Y-117233258D01*
X147707425Y-117233257D01*
X147762203Y-117210567D01*
X147820353Y-117199000D01*
X147879647Y-117199000D01*
X147937797Y-117210567D01*
G37*
G36*
X98187797Y-117210567D02*
G01*
X98242575Y-117233257D01*
X98242577Y-117233258D01*
X98291876Y-117266198D01*
X98333802Y-117308124D01*
X98366742Y-117357423D01*
X98366743Y-117357425D01*
X98389433Y-117412203D01*
X98401000Y-117470353D01*
X98401000Y-117529647D01*
X98389433Y-117587797D01*
X98366743Y-117642575D01*
X98366742Y-117642577D01*
X98333802Y-117691876D01*
X98291876Y-117733802D01*
X98242577Y-117766742D01*
X98242576Y-117766743D01*
X98242575Y-117766743D01*
X98187797Y-117789433D01*
X98129647Y-117801000D01*
X98070353Y-117801000D01*
X98012203Y-117789433D01*
X97957425Y-117766743D01*
X97957424Y-117766743D01*
X97957423Y-117766742D01*
X97908124Y-117733802D01*
X97866198Y-117691876D01*
X97833258Y-117642577D01*
X97833257Y-117642575D01*
X97810567Y-117587797D01*
X97799000Y-117529647D01*
X97799000Y-117470353D01*
X97810567Y-117412203D01*
X97833257Y-117357425D01*
X97833258Y-117357423D01*
X97866198Y-117308124D01*
X97908124Y-117266198D01*
X97957423Y-117233258D01*
X97957425Y-117233257D01*
X98012203Y-117210567D01*
X98070353Y-117199000D01*
X98129647Y-117199000D01*
X98187797Y-117210567D01*
G37*
G36*
X147937797Y-116210567D02*
G01*
X147992575Y-116233257D01*
X147992577Y-116233258D01*
X148041876Y-116266198D01*
X148083802Y-116308124D01*
X148109937Y-116347239D01*
X148116743Y-116357425D01*
X148139433Y-116412203D01*
X148151000Y-116470353D01*
X148151000Y-116529647D01*
X148139433Y-116587797D01*
X148116743Y-116642575D01*
X148116742Y-116642577D01*
X148083802Y-116691876D01*
X148041876Y-116733802D01*
X147992577Y-116766742D01*
X147992576Y-116766743D01*
X147992575Y-116766743D01*
X147937797Y-116789433D01*
X147879647Y-116801000D01*
X147820353Y-116801000D01*
X147762203Y-116789433D01*
X147707425Y-116766743D01*
X147707424Y-116766743D01*
X147707423Y-116766742D01*
X147658124Y-116733802D01*
X147616198Y-116691876D01*
X147583258Y-116642577D01*
X147583257Y-116642575D01*
X147560567Y-116587797D01*
X147549000Y-116529647D01*
X147549000Y-116470353D01*
X147560567Y-116412203D01*
X147583257Y-116357425D01*
X147590063Y-116347239D01*
X147616198Y-116308124D01*
X147658124Y-116266198D01*
X147707423Y-116233258D01*
X147707425Y-116233257D01*
X147762203Y-116210567D01*
X147820353Y-116199000D01*
X147879647Y-116199000D01*
X147937797Y-116210567D01*
G37*
G36*
X98187797Y-116210567D02*
G01*
X98242575Y-116233257D01*
X98242577Y-116233258D01*
X98291876Y-116266198D01*
X98333802Y-116308124D01*
X98359937Y-116347239D01*
X98366743Y-116357425D01*
X98389433Y-116412203D01*
X98401000Y-116470353D01*
X98401000Y-116529647D01*
X98389433Y-116587797D01*
X98366743Y-116642575D01*
X98366742Y-116642577D01*
X98333802Y-116691876D01*
X98291876Y-116733802D01*
X98242577Y-116766742D01*
X98242576Y-116766743D01*
X98242575Y-116766743D01*
X98187797Y-116789433D01*
X98129647Y-116801000D01*
X98070353Y-116801000D01*
X98012203Y-116789433D01*
X97957425Y-116766743D01*
X97957424Y-116766743D01*
X97957423Y-116766742D01*
X97908124Y-116733802D01*
X97866198Y-116691876D01*
X97833258Y-116642577D01*
X97833257Y-116642575D01*
X97810567Y-116587797D01*
X97799000Y-116529647D01*
X97799000Y-116470353D01*
X97810567Y-116412203D01*
X97833257Y-116357425D01*
X97840063Y-116347239D01*
X97866198Y-116308124D01*
X97908124Y-116266198D01*
X97957423Y-116233258D01*
X97957425Y-116233257D01*
X98012203Y-116210567D01*
X98070353Y-116199000D01*
X98129647Y-116199000D01*
X98187797Y-116210567D01*
G37*
G36*
X98187797Y-115210567D02*
G01*
X98242575Y-115233257D01*
X98242577Y-115233258D01*
X98291876Y-115266198D01*
X98333802Y-115308124D01*
X98366742Y-115357423D01*
X98366743Y-115357425D01*
X98389433Y-115412203D01*
X98401000Y-115470353D01*
X98401000Y-115529647D01*
X98389433Y-115587797D01*
X98366743Y-115642575D01*
X98366742Y-115642577D01*
X98333802Y-115691876D01*
X98291876Y-115733802D01*
X98242577Y-115766742D01*
X98242576Y-115766743D01*
X98242575Y-115766743D01*
X98187797Y-115789433D01*
X98129647Y-115801000D01*
X98070353Y-115801000D01*
X98012203Y-115789433D01*
X97957425Y-115766743D01*
X97957424Y-115766743D01*
X97957423Y-115766742D01*
X97908124Y-115733802D01*
X97866198Y-115691876D01*
X97833258Y-115642577D01*
X97833257Y-115642575D01*
X97810567Y-115587797D01*
X97799000Y-115529647D01*
X97799000Y-115470353D01*
X97810567Y-115412203D01*
X97833257Y-115357425D01*
X97833258Y-115357423D01*
X97866198Y-115308124D01*
X97908124Y-115266198D01*
X97957423Y-115233258D01*
X97957425Y-115233257D01*
X98012203Y-115210567D01*
X98070353Y-115199000D01*
X98129647Y-115199000D01*
X98187797Y-115210567D01*
G37*
G36*
X147937797Y-115210567D02*
G01*
X147992575Y-115233257D01*
X147992577Y-115233258D01*
X148041876Y-115266198D01*
X148083802Y-115308124D01*
X148116742Y-115357423D01*
X148116743Y-115357425D01*
X148139433Y-115412203D01*
X148151000Y-115470353D01*
X148151000Y-115529647D01*
X148139433Y-115587797D01*
X148116743Y-115642575D01*
X148116742Y-115642577D01*
X148083802Y-115691876D01*
X148041876Y-115733802D01*
X147992577Y-115766742D01*
X147992576Y-115766743D01*
X147992575Y-115766743D01*
X147937797Y-115789433D01*
X147879647Y-115801000D01*
X147820353Y-115801000D01*
X147762203Y-115789433D01*
X147707425Y-115766743D01*
X147707424Y-115766743D01*
X147707423Y-115766742D01*
X147658124Y-115733802D01*
X147616198Y-115691876D01*
X147583258Y-115642577D01*
X147583257Y-115642575D01*
X147560567Y-115587797D01*
X147549000Y-115529647D01*
X147549000Y-115470353D01*
X147560567Y-115412203D01*
X147583257Y-115357425D01*
X147583258Y-115357423D01*
X147616198Y-115308124D01*
X147658124Y-115266198D01*
X147707423Y-115233258D01*
X147707425Y-115233257D01*
X147762203Y-115210567D01*
X147820353Y-115199000D01*
X147879647Y-115199000D01*
X147937797Y-115210567D01*
G37*
G36*
X147937797Y-114210567D02*
G01*
X147992575Y-114233257D01*
X147992577Y-114233258D01*
X148041876Y-114266198D01*
X148083802Y-114308124D01*
X148116742Y-114357423D01*
X148116743Y-114357425D01*
X148139433Y-114412203D01*
X148151000Y-114470353D01*
X148151000Y-114529647D01*
X148139433Y-114587797D01*
X148116743Y-114642575D01*
X148116742Y-114642577D01*
X148083802Y-114691876D01*
X148041876Y-114733802D01*
X147992577Y-114766742D01*
X147992576Y-114766743D01*
X147992575Y-114766743D01*
X147937797Y-114789433D01*
X147879647Y-114801000D01*
X147820353Y-114801000D01*
X147762203Y-114789433D01*
X147707425Y-114766743D01*
X147707424Y-114766743D01*
X147707423Y-114766742D01*
X147658124Y-114733802D01*
X147616198Y-114691876D01*
X147583258Y-114642577D01*
X147583257Y-114642575D01*
X147560567Y-114587797D01*
X147549000Y-114529647D01*
X147549000Y-114470353D01*
X147560567Y-114412203D01*
X147583257Y-114357425D01*
X147583258Y-114357423D01*
X147616198Y-114308124D01*
X147658124Y-114266198D01*
X147707423Y-114233258D01*
X147707425Y-114233257D01*
X147762203Y-114210567D01*
X147820353Y-114199000D01*
X147879647Y-114199000D01*
X147937797Y-114210567D01*
G37*
G36*
X98187797Y-114210567D02*
G01*
X98242575Y-114233257D01*
X98242577Y-114233258D01*
X98291876Y-114266198D01*
X98333802Y-114308124D01*
X98366742Y-114357423D01*
X98366743Y-114357425D01*
X98389433Y-114412203D01*
X98401000Y-114470353D01*
X98401000Y-114529647D01*
X98389433Y-114587797D01*
X98366743Y-114642575D01*
X98366742Y-114642577D01*
X98333802Y-114691876D01*
X98291876Y-114733802D01*
X98242577Y-114766742D01*
X98242576Y-114766743D01*
X98242575Y-114766743D01*
X98187797Y-114789433D01*
X98129647Y-114801000D01*
X98070353Y-114801000D01*
X98012203Y-114789433D01*
X97957425Y-114766743D01*
X97957424Y-114766743D01*
X97957423Y-114766742D01*
X97908124Y-114733802D01*
X97866198Y-114691876D01*
X97833258Y-114642577D01*
X97833257Y-114642575D01*
X97810567Y-114587797D01*
X97799000Y-114529647D01*
X97799000Y-114470353D01*
X97810567Y-114412203D01*
X97833257Y-114357425D01*
X97833258Y-114357423D01*
X97866198Y-114308124D01*
X97908124Y-114266198D01*
X97957423Y-114233258D01*
X97957425Y-114233257D01*
X98012203Y-114210567D01*
X98070353Y-114199000D01*
X98129647Y-114199000D01*
X98187797Y-114210567D01*
G37*
G36*
X101751000Y-113751000D02*
G01*
X100049000Y-113751000D01*
X100049000Y-112049000D01*
X101751000Y-112049000D01*
X101751000Y-113751000D01*
G37*
G36*
X145951000Y-113751000D02*
G01*
X144249000Y-113751000D01*
X144249000Y-112049000D01*
X145951000Y-112049000D01*
X145951000Y-113751000D01*
G37*
G36*
X145951000Y-108951000D02*
G01*
X144249000Y-108951000D01*
X144249000Y-107249000D01*
X145951000Y-107249000D01*
X145951000Y-108951000D01*
G37*
G36*
X101751000Y-108951000D02*
G01*
X100049000Y-108951000D01*
X100049000Y-107249000D01*
X101751000Y-107249000D01*
X101751000Y-108951000D01*
G37*
G36*
X147937797Y-106210567D02*
G01*
X147992575Y-106233257D01*
X147992577Y-106233258D01*
X148041876Y-106266198D01*
X148083802Y-106308124D01*
X148116742Y-106357423D01*
X148116743Y-106357425D01*
X148139433Y-106412203D01*
X148151000Y-106470353D01*
X148151000Y-106529647D01*
X148139433Y-106587797D01*
X148116743Y-106642575D01*
X148116742Y-106642577D01*
X148083802Y-106691876D01*
X148041876Y-106733802D01*
X147992577Y-106766742D01*
X147992576Y-106766743D01*
X147992575Y-106766743D01*
X147937797Y-106789433D01*
X147879647Y-106801000D01*
X147820353Y-106801000D01*
X147762203Y-106789433D01*
X147707425Y-106766743D01*
X147707424Y-106766743D01*
X147707423Y-106766742D01*
X147658124Y-106733802D01*
X147616198Y-106691876D01*
X147583258Y-106642577D01*
X147583257Y-106642575D01*
X147560567Y-106587797D01*
X147549000Y-106529647D01*
X147549000Y-106470353D01*
X147560567Y-106412203D01*
X147583257Y-106357425D01*
X147583258Y-106357423D01*
X147616198Y-106308124D01*
X147658124Y-106266198D01*
X147707423Y-106233258D01*
X147707425Y-106233257D01*
X147762203Y-106210567D01*
X147820353Y-106199000D01*
X147879647Y-106199000D01*
X147937797Y-106210567D01*
G37*
G36*
X98187797Y-106210567D02*
G01*
X98242575Y-106233257D01*
X98242577Y-106233258D01*
X98291876Y-106266198D01*
X98333802Y-106308124D01*
X98366742Y-106357423D01*
X98366743Y-106357425D01*
X98389433Y-106412203D01*
X98401000Y-106470353D01*
X98401000Y-106529647D01*
X98389433Y-106587797D01*
X98366743Y-106642575D01*
X98366742Y-106642577D01*
X98333802Y-106691876D01*
X98291876Y-106733802D01*
X98242577Y-106766742D01*
X98242576Y-106766743D01*
X98242575Y-106766743D01*
X98187797Y-106789433D01*
X98129647Y-106801000D01*
X98070353Y-106801000D01*
X98012203Y-106789433D01*
X97957425Y-106766743D01*
X97957424Y-106766743D01*
X97957423Y-106766742D01*
X97908124Y-106733802D01*
X97866198Y-106691876D01*
X97833258Y-106642577D01*
X97833257Y-106642575D01*
X97810567Y-106587797D01*
X97799000Y-106529647D01*
X97799000Y-106470353D01*
X97810567Y-106412203D01*
X97833257Y-106357425D01*
X97833258Y-106357423D01*
X97866198Y-106308124D01*
X97908124Y-106266198D01*
X97957423Y-106233258D01*
X97957425Y-106233257D01*
X98012203Y-106210567D01*
X98070353Y-106199000D01*
X98129647Y-106199000D01*
X98187797Y-106210567D01*
G37*
G36*
X152902585Y-102978802D02*
G01*
X153052410Y-103008604D01*
X153334674Y-103125521D01*
X153588705Y-103295259D01*
X153804741Y-103511295D01*
X153974479Y-103765326D01*
X154091396Y-104047590D01*
X154091396Y-104047591D01*
X154151000Y-104347239D01*
X154151000Y-104652761D01*
X154134880Y-104733802D01*
X154091396Y-104952410D01*
X153974479Y-105234674D01*
X153804741Y-105488705D01*
X153588705Y-105704741D01*
X153334674Y-105874479D01*
X153052410Y-105991396D01*
X152902585Y-106021198D01*
X152752761Y-106051000D01*
X152447239Y-106051000D01*
X152297415Y-106021198D01*
X152147590Y-105991396D01*
X151865326Y-105874479D01*
X151611295Y-105704741D01*
X151395259Y-105488705D01*
X151225521Y-105234674D01*
X151108604Y-104952410D01*
X151065120Y-104733802D01*
X151049000Y-104652761D01*
X151049000Y-104347239D01*
X151108604Y-104047591D01*
X151108604Y-104047590D01*
X151225521Y-103765326D01*
X151395259Y-103511295D01*
X151611295Y-103295259D01*
X151865326Y-103125521D01*
X152147590Y-103008604D01*
X152297415Y-102978802D01*
X152447239Y-102949000D01*
X152752761Y-102949000D01*
X152902585Y-102978802D01*
G37*
G36*
X93652585Y-102978802D02*
G01*
X93802410Y-103008604D01*
X94084674Y-103125521D01*
X94338705Y-103295259D01*
X94554741Y-103511295D01*
X94724479Y-103765326D01*
X94841396Y-104047590D01*
X94841396Y-104047591D01*
X94901000Y-104347239D01*
X94901000Y-104652761D01*
X94884880Y-104733802D01*
X94841396Y-104952410D01*
X94724479Y-105234674D01*
X94554741Y-105488705D01*
X94338705Y-105704741D01*
X94084674Y-105874479D01*
X93802410Y-105991396D01*
X93652585Y-106021198D01*
X93502761Y-106051000D01*
X93197239Y-106051000D01*
X93047415Y-106021198D01*
X92897590Y-105991396D01*
X92615326Y-105874479D01*
X92361295Y-105704741D01*
X92145259Y-105488705D01*
X91975521Y-105234674D01*
X91858604Y-104952410D01*
X91815120Y-104733802D01*
X91799000Y-104652761D01*
X91799000Y-104347239D01*
X91858604Y-104047591D01*
X91858604Y-104047590D01*
X91975521Y-103765326D01*
X92145259Y-103511295D01*
X92361295Y-103295259D01*
X92615326Y-103125521D01*
X92897590Y-103008604D01*
X93047415Y-102978802D01*
X93197239Y-102949000D01*
X93502761Y-102949000D01*
X93652585Y-102978802D01*
G37*
G36*
X147937797Y-105210567D02*
G01*
X147992575Y-105233257D01*
X147992577Y-105233258D01*
X148041876Y-105266198D01*
X148083802Y-105308124D01*
X148116742Y-105357423D01*
X148116743Y-105357425D01*
X148139433Y-105412203D01*
X148151000Y-105470353D01*
X148151000Y-105529647D01*
X148139433Y-105587797D01*
X148116743Y-105642575D01*
X148116742Y-105642577D01*
X148083802Y-105691876D01*
X148041876Y-105733802D01*
X147992577Y-105766742D01*
X147992576Y-105766743D01*
X147992575Y-105766743D01*
X147937797Y-105789433D01*
X147879647Y-105801000D01*
X147820353Y-105801000D01*
X147762203Y-105789433D01*
X147707425Y-105766743D01*
X147707424Y-105766743D01*
X147707423Y-105766742D01*
X147658124Y-105733802D01*
X147616198Y-105691876D01*
X147583258Y-105642577D01*
X147583257Y-105642575D01*
X147560567Y-105587797D01*
X147549000Y-105529647D01*
X147549000Y-105470353D01*
X147560567Y-105412203D01*
X147583257Y-105357425D01*
X147583258Y-105357423D01*
X147616198Y-105308124D01*
X147658124Y-105266198D01*
X147707423Y-105233258D01*
X147707425Y-105233257D01*
X147762203Y-105210567D01*
X147820353Y-105199000D01*
X147879647Y-105199000D01*
X147937797Y-105210567D01*
G37*
G36*
X98187797Y-105210567D02*
G01*
X98242575Y-105233257D01*
X98242577Y-105233258D01*
X98291876Y-105266198D01*
X98333802Y-105308124D01*
X98366742Y-105357423D01*
X98366743Y-105357425D01*
X98389433Y-105412203D01*
X98401000Y-105470353D01*
X98401000Y-105529647D01*
X98389433Y-105587797D01*
X98366743Y-105642575D01*
X98366742Y-105642577D01*
X98333802Y-105691876D01*
X98291876Y-105733802D01*
X98242577Y-105766742D01*
X98242576Y-105766743D01*
X98242575Y-105766743D01*
X98187797Y-105789433D01*
X98129647Y-105801000D01*
X98070353Y-105801000D01*
X98012203Y-105789433D01*
X97957425Y-105766743D01*
X97957424Y-105766743D01*
X97957423Y-105766742D01*
X97908124Y-105733802D01*
X97866198Y-105691876D01*
X97833258Y-105642577D01*
X97833257Y-105642575D01*
X97810567Y-105587797D01*
X97799000Y-105529647D01*
X97799000Y-105470353D01*
X97810567Y-105412203D01*
X97833257Y-105357425D01*
X97833258Y-105357423D01*
X97866198Y-105308124D01*
X97908124Y-105266198D01*
X97957423Y-105233258D01*
X97957425Y-105233257D01*
X98012203Y-105210567D01*
X98070353Y-105199000D01*
X98129647Y-105199000D01*
X98187797Y-105210567D01*
G37*
G36*
X147937797Y-104210567D02*
G01*
X147992575Y-104233257D01*
X147992577Y-104233258D01*
X148041876Y-104266198D01*
X148083802Y-104308124D01*
X148109937Y-104347239D01*
X148116743Y-104357425D01*
X148139433Y-104412203D01*
X148151000Y-104470353D01*
X148151000Y-104529647D01*
X148139433Y-104587797D01*
X148116743Y-104642575D01*
X148116742Y-104642577D01*
X148083802Y-104691876D01*
X148041876Y-104733802D01*
X147992577Y-104766742D01*
X147992576Y-104766743D01*
X147992575Y-104766743D01*
X147937797Y-104789433D01*
X147879647Y-104801000D01*
X147820353Y-104801000D01*
X147762203Y-104789433D01*
X147707425Y-104766743D01*
X147707424Y-104766743D01*
X147707423Y-104766742D01*
X147658124Y-104733802D01*
X147616198Y-104691876D01*
X147583258Y-104642577D01*
X147583257Y-104642575D01*
X147560567Y-104587797D01*
X147549000Y-104529647D01*
X147549000Y-104470353D01*
X147560567Y-104412203D01*
X147583257Y-104357425D01*
X147590063Y-104347239D01*
X147616198Y-104308124D01*
X147658124Y-104266198D01*
X147707423Y-104233258D01*
X147707425Y-104233257D01*
X147762203Y-104210567D01*
X147820353Y-104199000D01*
X147879647Y-104199000D01*
X147937797Y-104210567D01*
G37*
G36*
X98187797Y-104210567D02*
G01*
X98242575Y-104233257D01*
X98242577Y-104233258D01*
X98291876Y-104266198D01*
X98333802Y-104308124D01*
X98359937Y-104347239D01*
X98366743Y-104357425D01*
X98389433Y-104412203D01*
X98401000Y-104470353D01*
X98401000Y-104529647D01*
X98389433Y-104587797D01*
X98366743Y-104642575D01*
X98366742Y-104642577D01*
X98333802Y-104691876D01*
X98291876Y-104733802D01*
X98242577Y-104766742D01*
X98242576Y-104766743D01*
X98242575Y-104766743D01*
X98187797Y-104789433D01*
X98129647Y-104801000D01*
X98070353Y-104801000D01*
X98012203Y-104789433D01*
X97957425Y-104766743D01*
X97957424Y-104766743D01*
X97957423Y-104766742D01*
X97908124Y-104733802D01*
X97866198Y-104691876D01*
X97833258Y-104642577D01*
X97833257Y-104642575D01*
X97810567Y-104587797D01*
X97799000Y-104529647D01*
X97799000Y-104470353D01*
X97810567Y-104412203D01*
X97833257Y-104357425D01*
X97840063Y-104347239D01*
X97866198Y-104308124D01*
X97908124Y-104266198D01*
X97957423Y-104233258D01*
X97957425Y-104233257D01*
X98012203Y-104210567D01*
X98070353Y-104199000D01*
X98129647Y-104199000D01*
X98187797Y-104210567D01*
G37*
G36*
X147937797Y-103210567D02*
G01*
X147992575Y-103233257D01*
X147992577Y-103233258D01*
X148041876Y-103266198D01*
X148083802Y-103308124D01*
X148116742Y-103357423D01*
X148116743Y-103357425D01*
X148139433Y-103412203D01*
X148151000Y-103470353D01*
X148151000Y-103529647D01*
X148139433Y-103587797D01*
X148116743Y-103642575D01*
X148116742Y-103642577D01*
X148083802Y-103691876D01*
X148041876Y-103733802D01*
X147992577Y-103766742D01*
X147992576Y-103766743D01*
X147992575Y-103766743D01*
X147937797Y-103789433D01*
X147879647Y-103801000D01*
X147820353Y-103801000D01*
X147762203Y-103789433D01*
X147707425Y-103766743D01*
X147707424Y-103766743D01*
X147707423Y-103766742D01*
X147658124Y-103733802D01*
X147616198Y-103691876D01*
X147583258Y-103642577D01*
X147583257Y-103642575D01*
X147560567Y-103587797D01*
X147549000Y-103529647D01*
X147549000Y-103470353D01*
X147560567Y-103412203D01*
X147583257Y-103357425D01*
X147583258Y-103357423D01*
X147616198Y-103308124D01*
X147658124Y-103266198D01*
X147707423Y-103233258D01*
X147707425Y-103233257D01*
X147762203Y-103210567D01*
X147820353Y-103199000D01*
X147879647Y-103199000D01*
X147937797Y-103210567D01*
G37*
G36*
X98187797Y-103210567D02*
G01*
X98242575Y-103233257D01*
X98242577Y-103233258D01*
X98291876Y-103266198D01*
X98333802Y-103308124D01*
X98366742Y-103357423D01*
X98366743Y-103357425D01*
X98389433Y-103412203D01*
X98401000Y-103470353D01*
X98401000Y-103529647D01*
X98389433Y-103587797D01*
X98366743Y-103642575D01*
X98366742Y-103642577D01*
X98333802Y-103691876D01*
X98291876Y-103733802D01*
X98242577Y-103766742D01*
X98242576Y-103766743D01*
X98242575Y-103766743D01*
X98187797Y-103789433D01*
X98129647Y-103801000D01*
X98070353Y-103801000D01*
X98012203Y-103789433D01*
X97957425Y-103766743D01*
X97957424Y-103766743D01*
X97957423Y-103766742D01*
X97908124Y-103733802D01*
X97866198Y-103691876D01*
X97833258Y-103642577D01*
X97833257Y-103642575D01*
X97810567Y-103587797D01*
X97799000Y-103529647D01*
X97799000Y-103470353D01*
X97810567Y-103412203D01*
X97833257Y-103357425D01*
X97833258Y-103357423D01*
X97866198Y-103308124D01*
X97908124Y-103266198D01*
X97957423Y-103233258D01*
X97957425Y-103233257D01*
X98012203Y-103210567D01*
X98070353Y-103199000D01*
X98129647Y-103199000D01*
X98187797Y-103210567D01*
G37*
G36*
X147937797Y-102210567D02*
G01*
X147992575Y-102233257D01*
X147992577Y-102233258D01*
X148041876Y-102266198D01*
X148083802Y-102308124D01*
X148116742Y-102357423D01*
X148116743Y-102357425D01*
X148139433Y-102412203D01*
X148151000Y-102470353D01*
X148151000Y-102529647D01*
X148139433Y-102587797D01*
X148116743Y-102642575D01*
X148116742Y-102642577D01*
X148083802Y-102691876D01*
X148041876Y-102733802D01*
X147992577Y-102766742D01*
X147992576Y-102766743D01*
X147992575Y-102766743D01*
X147937797Y-102789433D01*
X147879647Y-102801000D01*
X147820353Y-102801000D01*
X147762203Y-102789433D01*
X147707425Y-102766743D01*
X147707424Y-102766743D01*
X147707423Y-102766742D01*
X147658124Y-102733802D01*
X147616198Y-102691876D01*
X147583258Y-102642577D01*
X147583257Y-102642575D01*
X147560567Y-102587797D01*
X147549000Y-102529647D01*
X147549000Y-102470353D01*
X147560567Y-102412203D01*
X147583257Y-102357425D01*
X147583258Y-102357423D01*
X147616198Y-102308124D01*
X147658124Y-102266198D01*
X147707423Y-102233258D01*
X147707425Y-102233257D01*
X147762203Y-102210567D01*
X147820353Y-102199000D01*
X147879647Y-102199000D01*
X147937797Y-102210567D01*
G37*
G36*
X98187797Y-102210567D02*
G01*
X98242575Y-102233257D01*
X98242577Y-102233258D01*
X98291876Y-102266198D01*
X98333802Y-102308124D01*
X98366742Y-102357423D01*
X98366743Y-102357425D01*
X98389433Y-102412203D01*
X98401000Y-102470353D01*
X98401000Y-102529647D01*
X98389433Y-102587797D01*
X98366743Y-102642575D01*
X98366742Y-102642577D01*
X98333802Y-102691876D01*
X98291876Y-102733802D01*
X98242577Y-102766742D01*
X98242576Y-102766743D01*
X98242575Y-102766743D01*
X98187797Y-102789433D01*
X98129647Y-102801000D01*
X98070353Y-102801000D01*
X98012203Y-102789433D01*
X97957425Y-102766743D01*
X97957424Y-102766743D01*
X97957423Y-102766742D01*
X97908124Y-102733802D01*
X97866198Y-102691876D01*
X97833258Y-102642577D01*
X97833257Y-102642575D01*
X97810567Y-102587797D01*
X97799000Y-102529647D01*
X97799000Y-102470353D01*
X97810567Y-102412203D01*
X97833257Y-102357425D01*
X97833258Y-102357423D01*
X97866198Y-102308124D01*
X97908124Y-102266198D01*
X97957423Y-102233258D01*
X97957425Y-102233257D01*
X98012203Y-102210567D01*
X98070353Y-102199000D01*
X98129647Y-102199000D01*
X98187797Y-102210567D01*
G37*
G36*
X101751000Y-101751000D02*
G01*
X100049000Y-101751000D01*
X100049000Y-100049000D01*
X101751000Y-100049000D01*
X101751000Y-101751000D01*
G37*
G36*
X145951000Y-101751000D02*
G01*
X144249000Y-101751000D01*
X144249000Y-100049000D01*
X145951000Y-100049000D01*
X145951000Y-101751000D01*
G37*
M02*
