M48
; DRILL file {KiCad (5.1.9)-1} date 04/28/21 18:49:10
; FORMAT={-:-/ absolute / metric / decimal}
; #@! TF.CreationDate,2021-04-28T18:49:10-07:00
; #@! TF.GenerationSoftware,Kicad,Pcbnew,(5.1.9)-1
; #@! TF.FileFunction,Plated,1,2,PTH
FMAT,2
METRIC
T1C0.400
%
G90
G05
T1
X100.9Y-100.9
X100.9Y-108.1
X100.9Y-112.9
X100.9Y-120.1
X101.482Y-104.609
X101.482Y-116.609
X102.7Y-100.7
X102.7Y-112.7
X102.9Y-107.7
X102.9Y-119.7
X103.239Y-104.001
X103.239Y-116.0
X105.3Y-103.576
X105.3Y-105.1
X105.3Y-115.576
X105.3Y-117.1
X105.715Y-104.345
X105.715Y-116.345
X106.1Y-103.576
X106.1Y-105.1
X106.1Y-115.576
X106.1Y-117.1
X107.366Y-100.625
X107.366Y-112.625
X108.763Y-103.937
X108.763Y-115.937
X110.1Y-101.3
X110.1Y-113.3
X110.6Y-105.9
X110.6Y-117.9
X111.161Y-103.7
X111.161Y-115.7
X111.43Y-108.196
X111.43Y-120.196
X112.446Y-104.064
X112.446Y-116.064
X112.646Y-101.548
X112.646Y-113.548
X114.404Y-105.841
X114.404Y-117.841
X116.002Y-102.032
X116.002Y-114.032
X117.215Y-106.9
X117.215Y-118.9
X117.3Y-105.1
X117.3Y-117.1
X120.574Y-105.27
X120.574Y-106.731
X120.574Y-117.27
X120.574Y-118.731
X121.35Y-106.0
X121.35Y-118.0
X122.098Y-105.27
X122.098Y-106.731
X122.098Y-117.27
X122.098Y-118.731
X125.0Y-106.25
X125.0Y-118.25
X125.625Y-105.375
X125.625Y-117.375
X126.625Y-107.75
X126.625Y-119.75
X126.8Y-100.625
X126.8Y-112.625
X127.875Y-107.75
X127.875Y-119.75
X130.293Y-105.279
X130.293Y-117.279
X130.3Y-103.1
X130.3Y-104.2
X130.3Y-115.1
X130.3Y-116.2
X131.5Y-103.1
X131.5Y-104.2
X131.5Y-105.279
X131.5Y-115.1
X131.5Y-116.2
X131.5Y-117.279
X132.7Y-103.1
X132.7Y-104.2
X132.7Y-115.1
X132.7Y-116.2
X132.707Y-105.279
X132.707Y-117.279
X135.75Y-107.302
X135.75Y-119.302
X136.005Y-106.096
X136.005Y-118.096
X136.45Y-102.95
X136.45Y-114.95
X137.655Y-102.925
X137.655Y-114.925
X138.45Y-105.5
X138.45Y-117.5
X139.0Y-102.1
X139.0Y-114.1
X145.1Y-100.9
X145.1Y-108.1
X145.1Y-112.9
X145.1Y-120.1
T0
M30
