M48
; DRILL file {KiCad (5.1.6)-1} date 08/27/20 15:26:13
; FORMAT={-:-/ absolute / metric / decimal}
; #@! TF.CreationDate,2020-08-27T15:26:13+02:00
; #@! TF.GenerationSoftware,Kicad,Pcbnew,(5.1.6)-1
FMAT,2
METRIC
T1C0.400
T2C0.500
T3C3.000
%
G90
G05
T1
X101.482Y-104.609
X101.482Y-116.609
X102.9Y-107.7
X102.9Y-119.7
X103.239Y-104.001
X103.239Y-116.0
X105.3Y-103.676
X105.3Y-105.2
X105.3Y-115.676
X105.3Y-117.2
X105.715Y-104.445
X105.715Y-116.445
X106.1Y-103.676
X106.1Y-105.2
X106.1Y-115.676
X106.1Y-117.2
X107.366Y-100.625
X107.366Y-112.625
X108.763Y-103.937
X108.763Y-115.937
X110.003Y-101.869
X110.003Y-113.869
X110.6Y-105.9
X110.6Y-117.9
X110.884Y-101.382
X110.884Y-113.382
X111.161Y-104.049
X111.161Y-116.049
X111.176Y-102.794
X111.176Y-114.794
X111.43Y-108.196
X111.43Y-120.196
X112.446Y-104.064
X112.446Y-116.064
X112.646Y-101.548
X112.646Y-113.548
X114.404Y-105.841
X114.404Y-117.841
X115.315Y-104.606
X115.315Y-116.606
X116.002Y-102.032
X116.002Y-114.032
X117.007Y-104.625
X117.007Y-116.625
X117.235Y-105.75
X117.235Y-117.75
X120.574Y-105.27
X120.574Y-106.731
X120.574Y-117.27
X120.574Y-118.731
X121.35Y-106.0
X121.35Y-118.0
X122.098Y-105.27
X122.098Y-106.731
X122.098Y-117.27
X122.098Y-118.731
X125.0Y-106.25
X125.0Y-118.25
X125.625Y-105.375
X125.625Y-117.375
X126.625Y-107.75
X126.625Y-119.75
X126.8Y-100.625
X126.8Y-112.625
X127.875Y-107.75
X127.875Y-119.75
X130.293Y-105.279
X130.293Y-117.279
X130.3Y-103.1
X130.3Y-104.2
X130.3Y-115.1
X130.3Y-116.2
X131.5Y-103.1
X131.5Y-104.2
X131.5Y-105.279
X131.5Y-115.1
X131.5Y-116.2
X131.5Y-117.279
X132.7Y-103.1
X132.7Y-104.2
X132.7Y-115.1
X132.7Y-116.2
X132.707Y-105.279
X132.707Y-117.279
X135.75Y-107.302
X135.75Y-119.302
X136.005Y-106.096
X136.005Y-118.096
X136.45Y-102.95
X136.45Y-114.95
X137.655Y-102.925
X137.655Y-114.925
X138.45Y-105.5
X138.45Y-117.5
X139.0Y-102.1
X139.0Y-114.1
X100.9Y-120.1
X145.1Y-112.9
X145.1Y-120.1
X100.9Y-108.1
X145.1Y-108.1
X100.9Y-112.9
X100.9Y-100.9
X145.1Y-100.9
T2
X147.85Y-102.5
X147.85Y-103.5
X147.85Y-104.5
X147.85Y-105.5
X147.85Y-106.5
X98.1Y-102.5
X98.1Y-103.5
X98.1Y-104.5
X98.1Y-105.5
X98.1Y-106.5
X147.85Y-114.5
X147.85Y-115.5
X147.85Y-116.5
X147.85Y-117.5
X147.85Y-118.5
X98.1Y-114.5
X98.1Y-115.5
X98.1Y-116.5
X98.1Y-117.5
X98.1Y-118.5
T3
X152.6Y-104.5
X93.35Y-104.5
X152.6Y-116.5
X93.35Y-116.5
T0
M30
