G04 #@! TF.GenerationSoftware,KiCad,Pcbnew,(5.1.5)-3*
G04 #@! TF.CreationDate,2020-01-04T07:34:03+01:00*
G04 #@! TF.ProjectId,double-oh,646f7562-6c65-42d6-9f68-2e6b69636164,rev?*
G04 #@! TF.SameCoordinates,Original*
G04 #@! TF.FileFunction,Soldermask,Bot*
G04 #@! TF.FilePolarity,Negative*
%FSLAX46Y46*%
G04 Gerber Fmt 4.6, Leading zero omitted, Abs format (unit mm)*
G04 Created by KiCad (PCBNEW (5.1.5)-3) date 2020-01-04 07:34:03*
%MOMM*%
%LPD*%
G04 APERTURE LIST*
%ADD10C,0.101600*%
G04 APERTURE END LIST*
D10*
G36*
X154351000Y-108951000D02*
G01*
X151049000Y-108951000D01*
X151049000Y-107249000D01*
X154351000Y-107249000D01*
X154351000Y-108951000D01*
G37*
G36*
X159981632Y-100604677D02*
G01*
X160287005Y-100731167D01*
X160718868Y-100910050D01*
X161382362Y-101353383D01*
X161946617Y-101917638D01*
X162389950Y-102581132D01*
X162568833Y-103012995D01*
X162695323Y-103318368D01*
X162851000Y-104101010D01*
X162851000Y-104898990D01*
X162695323Y-105681632D01*
X162568833Y-105987005D01*
X162389950Y-106418868D01*
X161946617Y-107082362D01*
X161382362Y-107646617D01*
X160718868Y-108089950D01*
X160287005Y-108268833D01*
X159981632Y-108395323D01*
X159198990Y-108551000D01*
X158401010Y-108551000D01*
X157618368Y-108395323D01*
X157312995Y-108268833D01*
X156881132Y-108089950D01*
X156217638Y-107646617D01*
X155653383Y-107082362D01*
X155210050Y-106418868D01*
X155031167Y-105987005D01*
X154904677Y-105681632D01*
X154749000Y-104898990D01*
X154749000Y-104101010D01*
X154904677Y-103318368D01*
X155031167Y-103012995D01*
X155210050Y-102581132D01*
X155653383Y-101917638D01*
X156217638Y-101353383D01*
X156881132Y-100910050D01*
X157312995Y-100731167D01*
X157618368Y-100604677D01*
X158401010Y-100449000D01*
X159198990Y-100449000D01*
X159981632Y-100604677D01*
G37*
M02*
