G04 #@! TF.GenerationSoftware,KiCad,Pcbnew,(5.1.5)-3*
G04 #@! TF.CreationDate,2020-01-04T07:33:11+01:00*
G04 #@! TF.ProjectId,double-oh,646f7562-6c65-42d6-9f68-2e6b69636164,rev?*
G04 #@! TF.SameCoordinates,Original*
G04 #@! TF.FileFunction,Soldermask,Bot*
G04 #@! TF.FilePolarity,Negative*
%FSLAX46Y46*%
G04 Gerber Fmt 4.6, Leading zero omitted, Abs format (unit mm)*
G04 Created by KiCad (PCBNEW (5.1.5)-3) date 2020-01-04 07:33:11*
%MOMM*%
%LPD*%
G04 APERTURE LIST*
%ADD10C,0.101600*%
G04 APERTURE END LIST*
D10*
G36*
X94951000Y-108951000D02*
G01*
X91649000Y-108951000D01*
X91649000Y-107249000D01*
X94951000Y-107249000D01*
X94951000Y-108951000D01*
G37*
G36*
X88381632Y-100604677D02*
G01*
X88687005Y-100731167D01*
X89118868Y-100910050D01*
X89782362Y-101353383D01*
X90346617Y-101917638D01*
X90789950Y-102581132D01*
X90968833Y-103012995D01*
X91095323Y-103318368D01*
X91251000Y-104101010D01*
X91251000Y-104898990D01*
X91095323Y-105681632D01*
X90968833Y-105987005D01*
X90789950Y-106418868D01*
X90346617Y-107082362D01*
X89782362Y-107646617D01*
X89118868Y-108089950D01*
X88687005Y-108268833D01*
X88381632Y-108395323D01*
X87598990Y-108551000D01*
X86801010Y-108551000D01*
X86018368Y-108395323D01*
X85712995Y-108268833D01*
X85281132Y-108089950D01*
X84617638Y-107646617D01*
X84053383Y-107082362D01*
X83610050Y-106418868D01*
X83431167Y-105987005D01*
X83304677Y-105681632D01*
X83149000Y-104898990D01*
X83149000Y-104101010D01*
X83304677Y-103318368D01*
X83431167Y-103012995D01*
X83610050Y-102581132D01*
X84053383Y-101917638D01*
X84617638Y-101353383D01*
X85281132Y-100910050D01*
X85712995Y-100731167D01*
X86018368Y-100604677D01*
X86801010Y-100449000D01*
X87598990Y-100449000D01*
X88381632Y-100604677D01*
G37*
G36*
X94951000Y-101751000D02*
G01*
X91649000Y-101751000D01*
X91649000Y-100049000D01*
X94951000Y-100049000D01*
X94951000Y-101751000D01*
G37*
M02*
